<?xml version="1.0" encoding="utf-8"?>
<!-- Generator: Adobe Illustrator 21.0.0, SVG Export Plug-In . SVG Version: 6.00 Build 0)  -->
<svg version="1.1" id="Layer_1" xmlns="http://www.w3.org/2000/svg" xmlns:xlink="http://www.w3.org/1999/xlink" x="0px" y="0px"
	 viewBox="0 0 1865.5 1024" style="enable-background:new 0 0 1865.5 1024;" xml:space="preserve">
<style type="text/css">
	.st0{fill:none;stroke:#DDDDDD;stroke-width:8;stroke-miterlimit:10;}
	.st1{fill:none;stroke:#DDDDDD;stroke-width:3;stroke-miterlimit:10;}
	.st2{fill:none;stroke:#009E73;stroke-width:2;stroke-miterlimit:10;}
	.st3{fill:#009E73;}
	.st4{fill:none;stroke:#0072B2;stroke-width:5;stroke-miterlimit:10;}
	.st5{fill:#0072B2;}
	.st6{fill:none;stroke:#D55E00;stroke-width:2;stroke-miterlimit:10;}
	.st7{fill:#D55E00;}
	.st8{fill:none;stroke:#CC79A7;stroke-width:2;stroke-miterlimit:10;}
	.st9{fill:#CC79A7;}
	.st10{fill:#FFFFFF;}
	.st11{fill:none;stroke:#808080;stroke-miterlimit:10;}
	.st12{fill:none;stroke:#808080;stroke-miterlimit:10;stroke-dasharray:4.932,4.932;}
	.st13{fill:#808080;}
	.st14{fill:none;stroke:#808080;stroke-miterlimit:10;stroke-dasharray:4.9801,4.9801;}
	.st15{fill:none;stroke:#808080;stroke-miterlimit:10;stroke-dasharray:5.0116,5.0116;}
	.st16{fill:none;stroke:#808080;stroke-miterlimit:10;stroke-dasharray:4.9827,4.9827;}
	.st17{fill:none;stroke:#808080;stroke-miterlimit:10;stroke-dasharray:4.9907,4.9907;}
	.st18{fill:none;stroke:#808080;stroke-miterlimit:10;stroke-dasharray:4.9635,4.9635;}
	.st19{fill:none;stroke:#808080;stroke-miterlimit:10;stroke-dasharray:5.0264,5.0264;}
	.st20{fill:none;stroke:#808080;stroke-miterlimit:10;stroke-dasharray:5.0248,5.0248;}
	.st21{fill:none;stroke:#808080;stroke-miterlimit:10;stroke-dasharray:5.0788,5.0788;}
	.st22{fill:none;stroke:#808080;stroke-miterlimit:10;stroke-dasharray:5.0202,5.0202;}
	.st23{fill:#CC99B5;stroke:#CC79A7;stroke-width:6;stroke-miterlimit:10;}
	.st24{fill:#4E8EB2;stroke:#0072B2;stroke-width:7;stroke-miterlimit:10;}
	.st25{fill:#4E8EB2;stroke:#0072B2;stroke-width:8;stroke-miterlimit:10;}
	.st26{fill:#2EB792;stroke:#009E73;stroke-width:4;stroke-miterlimit:10;}
	.st27{fill:#B3B3B3;stroke:#808080;stroke-width:8;stroke-miterlimit:10;}
	.st28{fill:#4E8EB2;stroke:#0072B2;stroke-width:6;stroke-miterlimit:10;}
	.st29{fill:#CC99B5;stroke:#CC79A7;stroke-width:4;stroke-miterlimit:10;}
	.st30{fill:#D5894D;stroke:#D55E00;stroke-width:4;stroke-miterlimit:10;}
	.st31{fill:#B3B3B3;stroke:#808080;stroke-width:4;stroke-miterlimit:10;}
	.st32{fill:none;stroke:#666666;stroke-width:2;stroke-miterlimit:10;}
	.st33{fill:#666666;}
	.st34{fill:none;stroke:#808080;stroke-miterlimit:10;stroke-dasharray:5,5;}
	.st35{fill:none;stroke:#CC79A7;stroke-width:5;stroke-miterlimit:10;}
	.st36{fill:none;stroke:#000000;stroke-width:3;stroke-miterlimit:10;}
	.st37{fill:#E6E6E6;}
	.st38{fill:none;stroke:#4D4D4D;stroke-width:6;stroke-miterlimit:10;stroke-dasharray:4.9152,4.9152;}
	.st39{fill:none;stroke:#000000;stroke-width:3;stroke-miterlimit:10;stroke-dasharray:11.9493,11.9493;}
	.st40{fill:none;stroke:#0072B2;stroke-width:2;stroke-miterlimit:10;}
	.st41{fill:none;stroke:#808080;stroke-miterlimit:10;stroke-dasharray:5.0627,5.0627;}
	.st42{fill:none;stroke:#808080;stroke-miterlimit:10;stroke-dasharray:4.9542,4.9542;}
	.st43{fill:none;stroke:#808080;stroke-miterlimit:10;stroke-dasharray:5.0115,5.0115;}
	.st44{fill:none;stroke:#808080;stroke-miterlimit:10;stroke-dasharray:5.0055,5.0055;}
	.st45{fill:none;stroke:#808080;stroke-miterlimit:10;stroke-dasharray:4.9892,4.9892;}
	.st46{fill:none;stroke:#808080;stroke-miterlimit:10;stroke-dasharray:5.045,5.045;}
	.st47{fill:none;stroke:#808080;stroke-miterlimit:10;stroke-dasharray:4.9175,4.9175;}
	.st48{fill:none;stroke:#808080;stroke-miterlimit:10;stroke-dasharray:5.0137,5.0137;}
	.st49{fill:none;stroke:#000000;stroke-width:2;stroke-miterlimit:10;}
</style>
<path class="st0" d="M1348.9,705.2c-14,5.4-29.4,8.3-41.1,17.7c-20.5,16.4-23.2,48.8-12.7,73.2c10.6,24.4,31.3,42.4,52.3,58.2
	c8.3,6.3,16.9,12.5,26.3,17c32.1,15.4,73.5,8.3,98.4-17.7c5.9-6.1,10.9-13.3,13.5-21.5c6.9-21.5-4-45-0.7-67.3
	c1.7-11.5,7.1-22.1,9.8-33.4c6-24.7-1.9-52.5-19.9-70c-18-17.5-45.5-24.1-69.3-16.6c-16.1,5.1-23.7,13.8-27.7,29.3
	C1373.7,690.2,1364.9,699,1348.9,705.2z"/>
<path class="st1" d="M1558.5,710.8c-32.3,11.7-54,48.7-48.8,83.4c2.9,19.6,13.1,37.1,23.5,53.8c13.3,21.2,30.1,43.7,54.3,47.7
	c24.5,4.1,47.5-12.1,67.3-27.5c13.1-10.2,26.6-20.7,34.8-35.3c5.6-9.9,8.4-21.2,11-32.4c4.8-21.2,8.6-43,6.1-64.7
	c-2.5-21.6-12.1-43.2-29.6-55.6c-18-12.8-46.1-13.6-64.4-0.6c-7.4,5.3-10.6,13.8-17.7,19.2C1585.1,706.4,1570,706.6,1558.5,710.8z"
	/>
<g>
	<g>
		<line class="st2" x1="1260.6" y1="400.2" x2="1403.9" y2="700.5"/>
		<g>
			<path class="st3" d="M1403.1,698.9l2.3-3.5l0.1,0.1l0.4,6.3c0.5,2,1,4.1,1.4,6.1c-1.3-1.7-2.6-3.3-3.9-5l-4.6-4.3l0-0.1
				L1403.1,698.9z"/>
		</g>
	</g>
</g>
<g>
	<g>
		<line class="st4" x1="1400.2" y1="285.9" x2="1431.2" y2="676.8"/>
		<g>
			<path class="st5" d="M1430.8,672.3l8.5-6.2l0.2,0.3l-4.7,15.1c-0.7,5.2-1.4,10.4-2.2,15.6c-1.5-5-3.1-10-4.6-15l-7-14.2l0.1-0.3
				L1430.8,672.3z"/>
		</g>
	</g>
</g>
<g>
	<g>
		<line class="st4" x1="1593.6" y1="419.8" x2="1447.2" y2="792.2"/>
		<g>
			<path class="st5" d="M1448.9,788l10.4-1.8l0.1,0.4l-10.8,11.5c-2.9,4.4-5.8,8.7-8.8,13.1c0.8-5.2,1.6-10.3,2.5-15.5l-0.1-15.8
				l0.3-0.2L1448.9,788z"/>
		</g>
	</g>
</g>
<g>
	<g>
		<line class="st6" x1="1735.3" y1="249.4" x2="1572.4" y2="734.1"/>
		<g>
			<path class="st7" d="M1573,732.3l4.1-0.9l0,0.1l-4.1,4.8c-1.1,1.8-2.2,3.6-3.2,5.4c0.2-2.1,0.5-4.2,0.7-6.3l-0.3-6.3l0.1-0.1
				L1573,732.3z"/>
		</g>
	</g>
</g>
<g>
	<g>
		<line class="st6" x1="1795.9" y1="425.5" x2="1664.5" y2="684.3"/>
		<g>
			<path class="st7" d="M1665.3,682.7l4.2-0.3l0,0.1l-4.7,4.2c-1.3,1.6-2.7,3.2-4,4.9c0.5-2,1.1-4.1,1.6-6.1l0.6-6.3l0.1-0.1
				L1665.3,682.7z"/>
		</g>
	</g>
</g>
<g>
	<g>
		<line class="st8" x1="1553.4" y1="295.1" x2="1456.2" y2="696.9"/>
		<g>
			<path class="st9" d="M1456.6,695.2l4-1.3l0.1,0.1l-3.6,5.2c-0.9,1.9-1.8,3.8-2.8,5.7c0-2.1,0.1-4.2,0.1-6.3l-0.9-6.3l0.1-0.1
				L1456.6,695.2z"/>
		</g>
	</g>
</g>
<g>
	<g>
		<line class="st4" x1="1464.2" y1="481.7" x2="1603.2" y2="684.7"/>
		<g>
			<path class="st5" d="M1600.7,681l4.3-9.6l0.3,0.1l3.5,15.4c2,4.9,3.9,9.7,5.9,14.6c-3.8-3.6-7.6-7.2-11.5-10.8l-13.1-8.8l0-0.3
				L1600.7,681z"/>
		</g>
	</g>
</g>
<g>
	<g>
		<line class="st4" x1="1464.2" y1="481.7" x2="1376.6" y2="710.1"/>
		<g>
			<path class="st5" d="M1378.2,705.9l10.4-1.9l0.1,0.4l-10.7,11.6c-2.9,4.4-5.8,8.7-8.7,13.1c0.8-5.2,1.6-10.4,2.3-15.5l-0.2-15.8
				l0.3-0.2L1378.2,705.9z"/>
		</g>
	</g>
</g>
<g>
	<g>
		<line class="st2" x1="1647.9" y1="132.9" x2="1649" y2="684.2"/>
		<g>
			<path class="st3" d="M1649,682.4l3.6-2.2l0.1,0.1l-2.3,5.9c-0.4,2-0.9,4.1-1.3,6.1c-0.5-2-0.9-4.1-1.4-6.1l-2.3-5.9l0.1-0.1
				L1649,682.4z"/>
		</g>
	</g>
</g>
<g>
	<line class="st10" x1="1349.8" y1="729.1" x2="1260.6" y2="400.2"/>
	<g>
		<line class="st11" x1="1349.8" y1="729.1" x2="1349.1" y2="726.7"/>
		<line class="st12" x1="1347.9" y1="722" x2="1263.3" y2="410.2"/>
		<line class="st11" x1="1262.6" y1="407.8" x2="1262" y2="405.4"/>
		<g>
			
				<ellipse transform="matrix(0.9651 -0.2618 0.2618 0.9651 -62.1885 344.5881)" class="st13" cx="1262" cy="405.7" rx="5.6" ry="5.6"/>
		</g>
	</g>
</g>
<g>
	<line class="st10" x1="1640.1" y1="692.9" x2="1735.3" y2="249.4"/>
	<g>
		<line class="st11" x1="1640.1" y1="692.9" x2="1640.6" y2="690.5"/>
		<line class="st14" x1="1641.7" y1="685.6" x2="1733.2" y2="259.6"/>
		<line class="st11" x1="1733.7" y1="257.1" x2="1734.2" y2="254.7"/>
		<g>
			
				<ellipse transform="matrix(0.21 -0.9777 0.9777 0.21 1120.7803 1896.9266)" class="st13" cx="1734.2" cy="255" rx="5.6" ry="5.6"/>
		</g>
	</g>
</g>
<g>
	<line class="st10" x1="1671.5" y1="780.6" x2="1795.9" y2="425.5"/>
	<g>
		<line class="st11" x1="1671.5" y1="780.6" x2="1672.4" y2="778.2"/>
		<line class="st15" x1="1674" y1="773.5" x2="1792.5" y2="435.3"/>
		<line class="st11" x1="1793.3" y1="433" x2="1794.1" y2="430.6"/>
		<g>
			
				<ellipse transform="matrix(0.3306 -0.9438 0.9438 0.3306 794.3461 1981.6143)" class="st13" cx="1794" cy="430.9" rx="5.6" ry="5.6"/>
		</g>
	</g>
</g>
<g>
	<line class="st10" x1="1562.4" y1="743.4" x2="1466.9" y2="97.3"/>
	<g>
		<line class="st11" x1="1562.4" y1="743.4" x2="1562" y2="740.9"/>
		<line class="st16" x1="1561.3" y1="736" x2="1468.4" y2="107.5"/>
		<line class="st11" x1="1468.1" y1="105" x2="1467.7" y2="102.6"/>
		<g>
			
				<ellipse transform="matrix(0.9893 -0.1461 0.1461 0.9893 0.7282 215.6048)" class="st13" cx="1467.8" cy="102.8" rx="5.6" ry="5.6"/>
		</g>
	</g>
</g>
<g>
	<line class="st10" x1="1587.7" y1="828.4" x2="1559.5" y2="294.8"/>
	<g>
		<line class="st11" x1="1587.7" y1="828.4" x2="1587.5" y2="825.9"/>
		<line class="st17" x1="1587.3" y1="820.9" x2="1560" y2="305.1"/>
		<line class="st11" x1="1559.9" y1="302.6" x2="1559.7" y2="300.1"/>
		<g>
			
				<ellipse transform="matrix(0.9986 -5.277582e-02 5.277582e-02 0.9986 -13.6797 82.7361)" class="st13" cx="1559.8" cy="300.4" rx="5.6" ry="5.6"/>
		</g>
	</g>
</g>
<g>
	<line class="st10" x1="1349.8" y1="729.1" x2="1315.8" y2="198.7"/>
	<g>
		<line class="st11" x1="1349.8" y1="729.1" x2="1349.6" y2="726.6"/>
		<line class="st18" x1="1349.3" y1="721.7" x2="1316.4" y2="209"/>
		<line class="st11" x1="1316.3" y1="206.5" x2="1316.1" y2="204"/>
		<g>
			
				<ellipse transform="matrix(0.998 -6.399763e-02 6.399763e-02 0.998 -10.3785 84.6489)" class="st13" cx="1316.1" cy="204.3" rx="5.6" ry="5.6"/>
		</g>
	</g>
</g>
<g>
	<line class="st10" x1="1413" y1="800.3" x2="1400.6" y2="292.5"/>
	<g>
		<line class="st11" x1="1413" y1="800.3" x2="1413" y2="797.8"/>
		<line class="st19" x1="1412.8" y1="792.7" x2="1400.9" y2="302.8"/>
		<line class="st11" x1="1400.8" y1="300.3" x2="1400.7" y2="297.8"/>
		<g>
			
				<ellipse transform="matrix(0.9997 -2.441544e-02 2.441544e-02 0.9997 -6.8604 34.2887)" class="st13" cx="1400.7" cy="298.1" rx="5.6" ry="5.6"/>
		</g>
	</g>
</g>
<g>
	<line class="st10" x1="1440.3" y1="696.6" x2="1585.4" y2="414.9"/>
	<g>
		<line class="st11" x1="1440.3" y1="696.6" x2="1441.4" y2="694.4"/>
		<line class="st20" x1="1443.7" y1="689.9" x2="1580.6" y2="424.1"/>
		<line class="st11" x1="1581.8" y1="421.9" x2="1582.9" y2="419.7"/>
		<g>
			
				<ellipse transform="matrix(0.4579 -0.889 0.889 0.4579 484.7472 1634.7579)" class="st13" cx="1582.8" cy="419.9" rx="5.6" ry="5.6"/>
		</g>
	</g>
</g>
<g>
	<line class="st10" x1="1562.4" y1="743.4" x2="1464.2" y2="481.7"/>
	<g>
		<line class="st11" x1="1562.4" y1="743.4" x2="1561.5" y2="741"/>
		<line class="st21" x1="1559.7" y1="736.3" x2="1467.9" y2="491.4"/>
		<line class="st11" x1="1467" y1="489" x2="1466.1" y2="486.7"/>
		<g>
			
				<ellipse transform="matrix(0.9363 -0.3512 0.3512 0.9363 -77.6147 545.9501)" class="st13" cx="1466.2" cy="486.9" rx="5.6" ry="5.6"/>
		</g>
	</g>
</g>
<g>
	<line class="st10" x1="1587.7" y1="828.4" x2="1647.9" y2="132.9"/>
	<g>
		<line class="st11" x1="1587.7" y1="828.4" x2="1587.9" y2="825.9"/>
		<line class="st22" x1="1588.3" y1="820.9" x2="1647" y2="143.2"/>
		<line class="st11" x1="1647.2" y1="140.7" x2="1647.4" y2="138.2"/>
		<g>
			
				<ellipse transform="matrix(8.626984e-02 -0.9963 0.9963 8.626984e-02 1367.3046 1767.8075)" class="st13" cx="1647.4" cy="138.5" rx="5.6" ry="5.6"/>
		</g>
	</g>
</g>
<path class="st23" d="M1329.6,175.3c0.6,10.5-7.1,19.5-17.4,20.2c-10.2,0.7-19-7.3-19.7-17.8c-0.6-10.5,7.1-19.5,17.4-20.2
	S1329,164.8,1329.6,175.3z"/>
<path class="st24" d="M1417.2,269.8c0.6,10.5-7.1,19.5-17.4,20.2s-19-7.3-19.7-17.8c-0.6-10.5,7.1-19.5,17.4-20.2
	C1407.8,251.4,1416.6,259.3,1417.2,269.8z"/>
<path class="st25" d="M1472.6,464.6c0.6,10.5-7.1,19.5-17.4,20.2c-10.2,0.7-19-7.3-19.7-17.8c-0.6-10.5,7.1-19.5,17.4-20.2
	C1463.1,446.1,1471.9,454.1,1472.6,464.6z"/>
<path class="st26" d="M1672.9,112.2c0.6,10.5-7.1,19.5-17.4,20.2c-10.2,0.7-19-7.3-19.7-17.8s7.1-19.5,17.4-20.2
	C1663.5,93.8,1672.3,101.7,1672.9,112.2z"/>
<path class="st27" d="M1377.4,754.1c0.9,14.7-10,27.4-24.4,28.3s-26.7-10.3-27.6-25c-0.9-14.7,10-27.4,24.4-28.3
	S1376.5,739.4,1377.4,754.1z"/>
<path class="st28" d="M1610,394.3c0.6,10.5-7.1,19.5-17.4,20.2c-10.2,0.7-19-7.3-19.7-17.8c-0.6-10.5,7.1-19.5,17.4-20.2
	C1600.5,375.8,1609.4,383.8,1610,394.3z"/>
<path class="st29" d="M1576.8,274.6c0.6,10.5-7.1,19.5-17.4,20.2c-10.2,0.7-19-7.3-19.7-17.8c-0.6-10.5,7.1-19.5,17.4-20.2
	C1567.4,256.2,1576.2,264.1,1576.8,274.6z"/>
<path class="st30" d="M1813.3,405.4c0.6,10.5-7.1,19.5-17.4,20.2c-10.2,0.7-19-7.3-19.7-17.8s7.1-19.5,17.4-20.2
	C1803.8,386.9,1812.6,394.9,1813.3,405.4z"/>
<path class="st30" d="M1752.7,229.3c0.6,10.5-7.1,19.5-17.4,20.2c-10.2,0.7-19-7.3-19.7-17.8c-0.6-10.5,7.1-19.5,17.4-20.2
	S1752.1,218.8,1752.7,229.3z"/>
<path class="st27" d="M1460.4,722c0.9,14.7-10,27.4-24.4,28.3c-14.4,0.9-26.7-10.3-27.6-25c-0.9-14.7,10-27.4,24.4-28.3
	C1447.2,696.2,1459.5,707.3,1460.4,722z"/>
<path class="st27" d="M1440.6,825.2c0.9,14.7-10,27.4-24.4,28.3c-14.4,0.9-26.7-10.3-27.6-25c-0.9-14.7,10-27.4,24.4-28.3
	C1427.4,799.4,1439.7,810.5,1440.6,825.2z"/>
<path class="st31" d="M1597.4,766.7c0.9,14.7-10,27.4-24.4,28.3c-14.4,0.9-26.7-10.3-27.6-25c-0.9-14.7,10-27.4,24.4-28.3
	C1584.1,740.9,1596.5,752,1597.4,766.7z"/>
<path class="st31" d="M1615.3,853.4c0.9,14.7-10,27.4-24.4,28.3c-14.4,0.9-26.7-10.3-27.6-25c-0.9-14.7,10-27.4,24.4-28.3
	C1602,827.5,1614.4,838.7,1615.3,853.4z"/>
<path class="st31" d="M1677.5,795.9c0.9,14.7-10,27.4-24.4,28.3c-14.4,0.9-26.7-10.3-27.6-25c-0.9-14.7,10-27.4,24.4-28.3
	C1664.2,770,1676.6,781.2,1677.5,795.9z"/>
<path class="st27" d="M1667.7,717.9c0.9,14.7-10,27.4-24.4,28.3c-14.4,0.9-26.7-10.3-27.6-25c-0.9-14.7,10-27.4,24.4-28.3
	C1654.5,692,1666.8,703.2,1667.7,717.9z"/>
<g>
	<g>
		<line class="st32" x1="1482.8" y1="716.9" x2="1517.5" y2="784.8"/>
		<g>
			
				<ellipse transform="matrix(0.8909 -0.4542 0.4542 0.8909 -163.9574 751.7704)" class="st33" cx="1483" cy="717.2" rx="7.5" ry="7.5"/>
		</g>
		<g>
			
				<ellipse transform="matrix(0.8909 -0.4542 0.4542 0.8909 -190.765 774.6833)" class="st33" cx="1517.3" cy="784.5" rx="7.5" ry="7.5"/>
		</g>
	</g>
</g>
<g>
	<g>
		<line class="st32" x1="1458.9" y1="834.5" x2="1549.4" y2="799.3"/>
		<g>
			
				<ellipse transform="matrix(0.932 -0.3625 0.3625 0.932 -203.197 585.767)" class="st33" cx="1459.3" cy="834.3" rx="7.5" ry="7.5"/>
		</g>
		<g>
			
				<ellipse transform="matrix(0.932 -0.3625 0.3625 0.932 -184.4292 615.9398)" class="st33" cx="1549.1" cy="799.4" rx="7.5" ry="7.5"/>
		</g>
	</g>
</g>
<g>
	<g>
		<line class="st32" x1="1608.6" y1="721.3" x2="1467.6" y2="722"/>
		<g>
			
				<ellipse transform="matrix(1 -5.357131e-03 5.357131e-03 1 -3.8408 8.6258)" class="st33" cx="1608.2" cy="721.3" rx="7.5" ry="7.5"/>
		</g>
		<g>
			
				<ellipse transform="matrix(1 -5.357153e-03 5.357153e-03 1 -3.8468 7.8743)" class="st33" cx="1467.9" cy="722" rx="7.5" ry="7.5"/>
		</g>
	</g>
</g>
<g>
	<g>
		<line class="st32" x1="1556.2" y1="855.6" x2="1448.5" y2="838.9"/>
		<g>
			
				<ellipse transform="matrix(0.1534 -0.9882 0.9882 0.1534 471.7631 2261.75)" class="st33" cx="1555.9" cy="855.5" rx="7.5" ry="7.5"/>
		</g>
		<g>
			
				<ellipse transform="matrix(0.1534 -0.9882 0.9882 0.1534 397.5556 2141.8972)" class="st33" cx="1448.8" cy="838.9" rx="7.5" ry="7.5"/>
		</g>
	</g>
</g>
<g>
	<g>
		<line class="st32" x1="1384.5" y1="766" x2="1559.4" y2="840.4"/>
		<g>
			
				<ellipse transform="matrix(0.3914 -0.9202 0.9202 0.3914 137.8183 1740.6642)" class="st33" cx="1384.9" cy="766.1" rx="7.5" ry="7.5"/>
		</g>
		<g>
			
				<ellipse transform="matrix(0.3914 -0.9202 0.9202 0.3914 175.6488 1946.022)" class="st33" cx="1559.1" cy="840.2" rx="7.5" ry="7.5"/>
		</g>
	</g>
</g>
<g>
	<g>
		<line class="st32" x1="1613.5" y1="798.2" x2="1384.4" y2="755.4"/>
		<g>
			
				<ellipse transform="matrix(0.1838 -0.983 0.983 0.1838 532.127 2237.168)" class="st33" cx="1613.1" cy="798.2" rx="7.5" ry="7.5"/>
		</g>
		<g>
			
				<ellipse transform="matrix(0.1838 -0.983 0.983 0.1838 387.7119 1977.8872)" class="st33" cx="1384.8" cy="755.5" rx="7.5" ry="7.5"/>
		</g>
	</g>
</g>
<g>
	<g>
		<line class="st32" x1="1601.3" y1="831.4" x2="1627.4" y2="753.8"/>
		<g>
			
				<ellipse transform="matrix(0.3183 -0.948 0.948 0.3183 394.3214 2056.7476)" class="st33" cx="1627.3" cy="754.2" rx="7.5" ry="7.5"/>
		</g>
	</g>
</g>
<path class="st26" d="M1265.6,380.9c0.6,10.5-7.1,19.5-17.4,20.2s-19-7.3-19.7-17.8c-0.6-10.5,7.1-19.5,17.4-20.2
	C1256.2,362.4,1265,370.4,1265.6,380.9z"/>
<path class="st29" d="M1484.3,77.1c0.6,10.5-7.1,19.5-17.4,20.2c-10.2,0.7-19-7.3-19.7-17.8s7.1-19.5,17.4-20.2
	C1474.8,58.7,1483.6,66.6,1484.3,77.1z"/>
<g>
	<g>
		<line class="st34" x1="1640.1" y1="692.9" x2="1593.5" y2="419.7"/>
		<g>
			
				<ellipse transform="matrix(0.9858 -0.168 0.168 0.9858 -47.9154 273.7646)" class="st13" cx="1593.6" cy="420" rx="5.6" ry="5.6"/>
		</g>
	</g>
</g>
<g>
	<g>
		<line class="st8" x1="1467.3" y1="90.2" x2="1599.3" y2="678.7"/>
		<g>
			<path class="st9" d="M1599,677l3-2.9l0.1,0.1l-1,6.2c0,2.1,0,4.2,0,6.3c-0.9-1.9-1.8-3.8-2.7-5.7l-3.6-5.2l0-0.1L1599,677z"/>
		</g>
	</g>
</g>
<g>
	<g>
		<line class="st35" x1="1315.8" y1="198.7" x2="1400.5" y2="782.6"/>
		<g>
			<path class="st9" d="M1399.9,778.2l8.1-6.7l0.2,0.3l-3.7,15.4c-0.4,5.2-0.8,10.5-1.1,15.7c-1.8-4.9-3.7-9.8-5.5-14.7l-7.9-13.7
				l0.1-0.3L1399.9,778.2z"/>
		</g>
	</g>
</g>
<g>
	<g>
		<line class="st36" x1="1355.8" y1="272.1" x2="1169" y2="271"/>
		<g>
			<path d="M1350.4,272l-6.6,10.8l0.4,0.2l17.7-6.9c6.1-1.3,12.3-2.6,18.4-3.9c-6.1-1.4-12.3-2.8-18.4-4.2l-17.6-7.1l-0.4,0.2
				L1350.4,272z"/>
		</g>
	</g>
</g>
<g>
	<g>
		<line class="st36" x1="1263" y1="174.8" x2="1172.5" y2="174"/>
		<g>
			<path d="M1257.6,174.7l-6.7,10.7l0.4,0.2l17.7-6.8c6.2-1.3,12.3-2.6,18.5-3.9c-6.1-1.4-12.3-2.8-18.4-4.2l-17.6-7.2l-0.4,0.2
				L1257.6,174.7z"/>
		</g>
	</g>
</g>
<g>
	<g>
		<line class="st36" x1="1548.5" y1="396.6" x2="1172.5" y2="395.5"/>
		<g>
			<path d="M1543.1,396.6l-6.6,10.8l0.4,0.2l17.6-6.9c6.1-1.3,12.3-2.7,18.4-4c-6.1-1.4-12.3-2.7-18.4-4.1l-17.6-7.1l-0.4,0.2
				L1543.1,396.6z"/>
		</g>
	</g>
</g>
<g>
	<path class="st37" d="M1851,314.9c0.6,10.5-7.1,19.5-17.4,20.2c-10.2,0.7-19-7.3-19.7-17.8c-0.6-10.5,7.1-19.5,17.4-20.2
		C1841.6,296.5,1850.4,304.4,1851,314.9z"/>
	<path class="st38" d="M1851,314.9c0.6,10.5-7.1,19.5-17.4,20.2c-10.2,0.7-19-7.3-19.7-17.8c-0.6-10.5,7.1-19.5,17.4-20.2
		C1841.6,296.5,1850.4,304.4,1851,314.9z"/>
</g>
<g>
	<path class="st37" d="M1465.7,352.1c0.6,10.5-7.1,19.5-17.4,20.2c-10.2,0.7-19-7.3-19.7-17.8c-0.6-10.5,7.1-19.5,17.4-20.2
		C1456.3,333.7,1465.1,341.6,1465.7,352.1z"/>
	<path class="st38" d="M1465.7,352.1c0.6,10.5-7.1,19.5-17.4,20.2c-10.2,0.7-19-7.3-19.7-17.8c-0.6-10.5,7.1-19.5,17.4-20.2
		C1456.3,333.7,1465.1,341.6,1465.7,352.1z"/>
</g>
<g>
	<path class="st37" d="M1576.8,146.4c0.6,10.5-7.1,19.5-17.4,20.2c-10.2,0.7-19-7.3-19.7-17.8c-0.6-10.5,7.1-19.5,17.4-20.2
		C1567.4,128,1576.2,136,1576.8,146.4z"/>
	<path class="st38" d="M1576.8,146.4c0.6,10.5-7.1,19.5-17.4,20.2c-10.2,0.7-19-7.3-19.7-17.8c-0.6-10.5,7.1-19.5,17.4-20.2
		C1567.4,128,1576.2,136,1576.8,146.4z"/>
</g>
<g>
	<path class="st37" d="M1806.8,146.4c0.6,10.5-7.1,19.5-17.4,20.2c-10.2,0.7-19-7.3-19.7-17.8c-0.6-10.5,7.1-19.5,17.4-20.2
		C1797.4,128,1806.2,136,1806.8,146.4z"/>
	<path class="st38" d="M1806.8,146.4c0.6,10.5-7.1,19.5-17.4,20.2c-10.2,0.7-19-7.3-19.7-17.8c-0.6-10.5,7.1-19.5,17.4-20.2
		C1797.4,128,1806.2,136,1806.8,146.4z"/>
</g>
<g>
	<path class="st37" d="M1746.9,448.7c0.6,10.5-7.1,19.5-17.4,20.2c-10.2,0.7-19-7.3-19.7-17.8c-0.6-10.5,7.1-19.5,17.4-20.2
		C1737.4,430.3,1746.2,438.2,1746.9,448.7z"/>
	<path class="st38" d="M1746.9,448.7c0.6,10.5-7.1,19.5-17.4,20.2c-10.2,0.7-19-7.3-19.7-17.8c-0.6-10.5,7.1-19.5,17.4-20.2
		C1737.4,430.3,1746.2,438.2,1746.9,448.7z"/>
</g>
<g>
	<path class="st37" d="M1247.1,221.8c0.6,10.5-7.1,19.5-17.4,20.2c-10.2,0.7-19-7.3-19.7-17.8c-0.6-10.5,7.1-19.5,17.4-20.2
		S1246.4,211.4,1247.1,221.8z"/>
	<path class="st38" d="M1247.1,221.8c0.6,10.5-7.1,19.5-17.4,20.2c-10.2,0.7-19-7.3-19.7-17.8s7.1-19.5,17.4-20.2
		C1237.6,203.4,1246.4,211.4,1247.1,221.8z"/>
</g>
<g>
	<path class="st37" d="M1411.4,167.9c0.6,10.5-7.1,19.5-17.4,20.2c-10.2,0.7-19-7.3-19.7-17.8c-0.6-10.5,7.1-19.5,17.4-20.2
		C1402,149.4,1410.8,157.4,1411.4,167.9z"/>
	<path class="st38" d="M1411.4,167.9c0.6,10.5-7.1,19.5-17.4,20.2c-10.2,0.7-19-7.3-19.7-17.8c-0.6-10.5,7.1-19.5,17.4-20.2
		C1402,149.4,1410.8,157.4,1411.4,167.9z"/>
</g>
<g>
	<path class="st37" d="M1691.5,306.1c0.6,10.5-7.1,19.5-17.4,20.2c-10.2,0.7-19-7.3-19.7-17.8c-0.6-10.5,7.1-19.5,17.4-20.2
		C1682,287.6,1690.8,295.6,1691.5,306.1z"/>
	<path class="st38" d="M1691.5,306.1c0.6,10.5-7.1,19.5-17.4,20.2s-19-7.3-19.7-17.8c-0.6-10.5,7.1-19.5,17.4-20.2
		C1682,287.6,1690.8,295.6,1691.5,306.1z"/>
</g>
<g>
	<g>
		<line class="st36" x1="1411.1" y1="466.9" x2="1172.5" y2="466.9"/>
		<g>
			<path d="M1405.7,466.9l-6.6,10.8l0.4,0.2l17.6-7c6.1-1.4,12.3-2.7,18.4-4.1c-6.1-1.4-12.3-2.7-18.4-4.1l-17.6-7l-0.4,0.2
				L1405.7,466.9z"/>
		</g>
	</g>
</g>
<path class="st36" d="M1020,177.4c5.5-0.3,11,0.2,16.4,0c5.5-0.2,11.2-1.3,14.6-3.9c5.8-4.4,3.6-12.3,12-14.8c2-0.6,4.3-0.7,6.5-0.7
	c6.9,0,13.9,1.2,19.8,3.4c6.8,2.5,12.1,6.1,18.2,9.1c12.9,6.3,29.6,9.7,46.1,9.4"/>
<path class="st36" d="M1015.7,281.5c5.5-0.4,11,0.3,16.4,0c5.5-0.3,11.2-1.9,14.6-5.8c5.8-6.7,3.6-18.5,12-22.2c2-0.9,4.3-1.1,6.5-1
	c6.9,0,13.9,1.8,19.8,5.1c6.8,3.7,12.1,9.2,18.2,13.7c12.9,9.5,29.6,14.6,46.1,14.1"/>
<path class="st36" d="M1012.6,398.8c5.5-0.6,11,0.5,16.4,0c5.5-0.5,11.2-3,14.6-9.3c5.8-10.7,3.6-29.7,12-35.6
	c2-1.4,4.3-1.7,6.5-1.7c6.9,0.1,13.9,2.9,19.8,8.2c6.8,6,12.1,14.8,18.2,22.1c12.9,15.2,29.6,23.4,46.1,22.7"/>
<path class="st36" d="M1012.6,474.9c5.5-0.4,11,0.3,16.4,0c5.5-0.3,11.2-1.8,14.6-5.4c5.8-6.2,3.6-17.3,12-20.7c2-0.8,4.3-1,6.5-1
	c6.9,0,13.9,1.7,19.8,4.7c6.8,3.5,12.1,8.6,18.2,12.8c12.9,8.8,29.6,13.6,46.1,13.2"/>
<g>
	<path class="st39" d="M1740.5,910h-463.1c-6.6,0-12-5.4-12-12v-264c0-6.6,5.4-12,12-12h463.1c6.6,0,12,5.4,12,12v264
		C1752.5,904.6,1747.1,910,1740.5,910z"/>
</g>
<g>
	<g>
		<line class="st36" x1="1222.7" y1="766.1" x2="1172.5" y2="765.6"/>
		<g>
			<path d="M1217.3,766l-6.7,10.7l0.4,0.2l17.7-6.8c6.2-1.3,12.3-2.6,18.5-3.9c-6.1-1.4-12.3-2.8-18.4-4.2l-17.6-7.2l-0.4,0.2
				L1217.3,766z"/>
		</g>
	</g>
</g>
<path class="st36" d="M1026.6,785.1c5.5-0.6,11,0.5,16.4,0c5.5-0.5,11.2-3,14.6-9.3c5.8-10.7,3.6-29.7,12-35.6
	c2-1.4,4.3-1.7,6.5-1.7c6.9,0.1,13.9,2.9,19.8,8.2c6.8,6,12.1,14.8,18.2,22.1c12.9,15.2,29.6,23.4,46.1,22.7"/>
<g>
	<g>
		<line class="st2" x1="286.6" y1="410.5" x2="514.5" y2="689.1"/>
		<g>
			<path class="st3" d="M513.4,687.7l1.4-4l0.1,0l1.9,6c0.9,1.9,1.9,3.7,2.8,5.6c-1.6-1.3-3.3-2.6-4.9-3.9l-5.5-3.1l0-0.1
				L513.4,687.7z"/>
		</g>
	</g>
</g>
<g>
	<g>
		<line class="st40" x1="426.2" y1="296.2" x2="517.8" y2="687.4"/>
		<g>
			<path class="st5" d="M517.4,685.7l3-3l0.1,0.1l-0.9,6.3c0,2.1,0.1,4.2,0.1,6.3c-0.9-1.9-1.8-3.8-2.7-5.7l-3.6-5.2l0-0.1
				L517.4,685.7z"/>
		</g>
	</g>
</g>
<g>
	<g>
		<line class="st40" x1="619.5" y1="430.1" x2="518.3" y2="842.2"/>
		<g>
			<path class="st5" d="M518.7,840.5l4-1.3l0,0.1l-3.7,5.1c-0.9,1.9-1.9,3.8-2.8,5.6c0.1-2.1,0.1-4.2,0.2-6.3l-0.9-6.3l0.1-0.1
				L518.7,840.5z"/>
		</g>
	</g>
</g>
<g>
	<g>
		<line class="st6" x1="761.3" y1="259.7" x2="598.4" y2="744.3"/>
		<g>
			<path class="st7" d="M599,742.6l4.1-0.9l0,0.1l-4.1,4.8c-1.1,1.8-2.2,3.6-3.2,5.4c0.2-2.1,0.5-4.2,0.7-6.3l-0.3-6.3l0.1-0.1
				L599,742.6z"/>
		</g>
	</g>
</g>
<g>
	<g>
		<line class="st6" x1="821.9" y1="435.8" x2="738" y2="740.6"/>
		<g>
			<path class="st7" d="M738.4,738.9l4.1-1.2l0,0.1l-3.8,5c-1,1.9-2,3.7-2.9,5.6c0.1-2.1,0.2-4.2,0.3-6.3l-0.7-6.3l0.1-0.1
				L738.4,738.9z"/>
		</g>
	</g>
</g>
<g>
	<g>
		<line class="st8" x1="579.4" y1="305.4" x2="520.9" y2="687.3"/>
		<g>
			<path class="st9" d="M521.2,685.5l3.9-1.6l0.1,0.1l-3.2,5.5c-0.8,2-1.5,3.9-2.3,5.9c-0.1-2.1-0.3-4.2-0.4-6.3l-1.4-6.2l0.1-0.1
				L521.2,685.5z"/>
		</g>
	</g>
</g>
<g>
	<g>
		<line class="st40" x1="490.2" y1="491.9" x2="730.2" y2="746.1"/>
		<g>
			<path class="st5" d="M729,744.8l1.1-4.1l0.1,0l2.3,5.9c1.1,1.8,2.2,3.6,3.2,5.4c-1.7-1.2-3.5-2.4-5.2-3.5l-5.7-2.7l0-0.1
				L729,744.8z"/>
		</g>
	</g>
</g>
<g>
	<g>
		<line class="st40" x1="490.2" y1="491.9" x2="358.4" y2="732.7"/>
		<g>
			<path class="st5" d="M359.3,731.1l4.2-0.2l0,0.1l-4.9,4c-1.4,1.6-2.8,3.2-4.1,4.7c0.6-2,1.2-4,1.8-6l0.8-6.3l0.1-0.1L359.3,731.1
				z"/>
		</g>
	</g>
</g>
<g>
	<g>
		<line class="st2" x1="673.9" y1="143.1" x2="735" y2="743.9"/>
		<g>
			<path class="st3" d="M734.8,742.1l3.4-2.5l0.1,0.1l-1.7,6.1c-0.2,2.1-0.5,4.2-0.7,6.2c-0.7-2-1.3-4-2-6l-2.9-5.6l0-0.1
				L734.8,742.1z"/>
		</g>
	</g>
</g>
<g>
	<line class="st10" x1="354.6" y1="743" x2="286.6" y2="410.5"/>
	<g>
		<line class="st11" x1="354.6" y1="743" x2="354.1" y2="740.6"/>
		<line class="st41" x1="353.1" y1="735.6" x2="288.6" y2="420.7"/>
		<line class="st11" x1="288.1" y1="418.2" x2="287.6" y2="415.7"/>
		<g>
			
				<ellipse transform="matrix(0.9797 -0.2005 0.2005 0.9797 -77.5561 66.1155)" class="st13" cx="287.7" cy="416" rx="5.6" ry="5.6"/>
		</g>
	</g>
</g>
<g>
	<line class="st10" x1="715.9" y1="748.5" x2="761.3" y2="259.7"/>
	<g>
		<line class="st11" x1="715.9" y1="748.5" x2="716.1" y2="746"/>
		<line class="st42" x1="716.6" y1="741.1" x2="760.4" y2="270"/>
		<line class="st11" x1="760.6" y1="267.5" x2="760.8" y2="265"/>
		<g>
			
				<ellipse transform="matrix(9.264199e-02 -0.9957 0.9957 9.264199e-02 426.1534 998.2901)" class="st13" cx="760.8" cy="265.3" rx="5.6" ry="5.6"/>
		</g>
	</g>
</g>
<g>
	<line class="st10" x1="664.2" y1="842.6" x2="821.9" y2="435.8"/>
	<g>
		<line class="st11" x1="664.2" y1="842.6" x2="665.1" y2="840.3"/>
		<line class="st43" x1="666.9" y1="835.6" x2="818.2" y2="445.5"/>
		<line class="st11" x1="819.1" y1="443.1" x2="820" y2="440.8"/>
		<g>
			
				<ellipse transform="matrix(0.3615 -0.9324 0.9324 0.3615 112.2713 1046.0665)" class="st13" cx="819.9" cy="441.1" rx="5.6" ry="5.6"/>
		</g>
	</g>
</g>
<g>
	<line class="st10" x1="588.4" y1="753.7" x2="492.9" y2="107.5"/>
	<g>
		<line class="st11" x1="588.4" y1="753.7" x2="588" y2="751.2"/>
		<line class="st16" x1="587.3" y1="746.2" x2="494.4" y2="117.8"/>
		<line class="st11" x1="494.1" y1="115.3" x2="493.7" y2="112.8"/>
		<g>
			
				<ellipse transform="matrix(0.9893 -0.1461 0.1461 0.9893 -11.2299 73.3724)" class="st13" cx="493.8" cy="113.1" rx="5.6" ry="5.6"/>
		</g>
	</g>
</g>
<g>
	<line class="st10" x1="430.3" y1="828.5" x2="585.5" y2="305"/>
	<g>
		<line class="st11" x1="430.3" y1="828.5" x2="431" y2="826.1"/>
		<line class="st44" x1="432.4" y1="821.3" x2="582.5" y2="315"/>
		<line class="st11" x1="583.2" y1="312.6" x2="583.9" y2="310.2"/>
		<g>
			
				<ellipse transform="matrix(0.2842 -0.9588 0.9588 0.2842 120.2883 781.9902)" class="st13" cx="583.9" cy="310.4" rx="5.6" ry="5.6"/>
		</g>
	</g>
</g>
<g>
	<line class="st10" x1="354.6" y1="743" x2="341.8" y2="209"/>
	<g>
		<line class="st11" x1="354.6" y1="743" x2="354.5" y2="740.5"/>
		<line class="st45" x1="354.4" y1="735.6" x2="342" y2="219.3"/>
		<line class="st11" x1="342" y1="216.8" x2="341.9" y2="214.3"/>
		<g>
			
				<ellipse transform="matrix(0.9997 -2.401376e-02 2.401376e-02 0.9997 -5.055 8.2725)" class="st13" cx="341.9" cy="214.6" rx="5.6" ry="5.6"/>
		</g>
	</g>
</g>
<g>
	<line class="st10" x1="517.5" y1="845.3" x2="426.6" y2="302.7"/>
	<g>
		<line class="st11" x1="517.5" y1="845.3" x2="517.1" y2="842.9"/>
		<line class="st46" x1="516.3" y1="837.9" x2="428.3" y2="313"/>
		<line class="st11" x1="427.9" y1="310.5" x2="427.5" y2="308"/>
		<g>
			
				<ellipse transform="matrix(0.9863 -0.1653 0.1653 0.9863 -45.0676 74.892)" class="st13" cx="427.5" cy="308.3" rx="5.6" ry="5.6"/>
		</g>
	</g>
</g>
<g>
	<line class="st10" x1="520.4" y1="690.8" x2="611.4" y2="425.2"/>
	<g>
		<line class="st11" x1="520.4" y1="690.8" x2="521.2" y2="688.5"/>
		<line class="st47" x1="522.8" y1="683.8" x2="608" y2="434.9"/>
		<line class="st11" x1="608.8" y1="432.6" x2="609.6" y2="430.2"/>
		<g>
			
				<ellipse transform="matrix(0.324 -0.9461 0.9461 0.324 4.7821 867.6979)" class="st13" cx="609.5" cy="430.5" rx="5.6" ry="5.6"/>
		</g>
	</g>
</g>
<g>
	<line class="st10" x1="588.4" y1="753.7" x2="490.2" y2="491.9"/>
	<g>
		<line class="st11" x1="588.4" y1="753.7" x2="587.5" y2="751.3"/>
		<line class="st21" x1="585.7" y1="746.6" x2="493.9" y2="501.7"/>
		<line class="st11" x1="493" y1="499.3" x2="492.1" y2="496.9"/>
		<g>
			
				<ellipse transform="matrix(0.9363 -0.3512 0.3512 0.9363 -143.2669 204.5296)" class="st13" cx="492.2" cy="497.2" rx="5.6" ry="5.6"/>
		</g>
	</g>
</g>
<g>
	<line class="st10" x1="430.3" y1="828.5" x2="673.9" y2="143.1"/>
	<g>
		<line class="st11" x1="430.3" y1="828.5" x2="431.1" y2="826.1"/>
		<line class="st48" x1="432.8" y1="821.4" x2="670.4" y2="152.9"/>
		<line class="st11" x1="671.3" y1="150.5" x2="672.1" y2="148.2"/>
		<g>
			
				<ellipse transform="matrix(0.3349 -0.9423 0.9423 0.3349 307.0534 731.9279)" class="st13" cx="672" cy="148.5" rx="5.6" ry="5.6"/>
		</g>
	</g>
</g>
<path class="st29" d="M355.6,185.6c0.6,10.5-7.1,19.5-17.4,20.2c-10.2,0.7-19-7.3-19.7-17.8s7.1-19.5,17.4-20.2
	C346.1,167.1,354.9,175.1,355.6,185.6z"/>
<path class="st25" d="M443.2,280.1c0.6,10.5-7.1,19.5-17.4,20.2c-10.2,0.7-19-7.3-19.7-17.8c-0.6-10.5,7.1-19.5,17.4-20.2
	C433.8,261.7,442.6,269.6,443.2,280.1z"/>
<path class="st25" d="M498.6,474.8c0.6,10.5-7.1,19.5-17.4,20.2s-19-7.3-19.7-17.8c-0.6-10.5,7.1-19.5,17.4-20.2
	S497.9,464.4,498.6,474.8z"/>
<path class="st26" d="M698.9,122.5c0.6,10.5-7.1,19.5-17.4,20.2s-19-7.3-19.7-17.8c-0.6-10.5,7.1-19.5,17.4-20.2
	S698.3,112,698.9,122.5z"/>
<path class="st31" d="M382.2,768c0.9,14.7-10,27.4-24.4,28.3s-26.7-10.3-27.6-25c-0.9-14.7,10-27.4,24.4-28.3
	C369,742.1,381.3,753.3,382.2,768z"/>
<path class="st25" d="M636,404.5c0.6,10.5-7.1,19.5-17.4,20.2s-19-7.3-19.7-17.8c-0.6-10.5,7.1-19.5,17.4-20.2
	S635.3,394.1,636,404.5z"/>
<path class="st29" d="M602.8,284.9c0.6,10.5-7.1,19.5-17.4,20.2s-19-7.3-19.7-17.8c-0.6-10.5,7.1-19.5,17.4-20.2
	S602.2,274.4,602.8,284.9z"/>
<path class="st30" d="M839.3,415.6c0.6,10.5-7.1,19.5-17.4,20.2s-19-7.3-19.7-17.8c-0.6-10.5,7.1-19.5,17.4-20.2
	S838.6,405.2,839.3,415.6z"/>
<path class="st30" d="M778.7,239.5c0.6,10.5-7.1,19.5-17.4,20.2c-10.2,0.7-19-7.3-19.7-17.8c-0.6-10.5,7.1-19.5,17.4-20.2
	C769.3,221.1,778.1,229.1,778.7,239.5z"/>
<path class="st27" d="M543.8,720.3c0.9,14.7-10,27.4-24.4,28.3s-26.7-10.3-27.6-25c-0.9-14.7,10-27.4,24.4-28.3
	S542.9,705.6,543.8,720.3z"/>
<path class="st31" d="M549.3,874.1c0.9,14.7-10,27.4-24.4,28.3c-14.4,0.9-26.7-10.3-27.6-25c-0.9-14.7,10-27.4,24.4-28.3
	S548.4,859.4,549.3,874.1z"/>
<path class="st27" d="M623.4,777c0.9,14.7-10,27.4-24.4,28.3c-14.4,0.9-26.7-10.3-27.6-25c-0.9-14.7,10-27.4,24.4-28.3
	S622.5,762.3,623.4,777z"/>
<path class="st27" d="M448.4,853.5c0.9,14.7-10,27.4-24.4,28.3s-26.7-10.3-27.6-25c-0.9-14.7,10-27.4,24.4-28.3
	C435.1,827.6,447.5,838.8,448.4,853.5z"/>
<path class="st31" d="M677.4,867.7c0.9,14.7-10,27.4-24.4,28.3c-14.4,0.9-26.7-10.3-27.6-25c-0.9-14.7,10-27.4,24.4-28.3
	S676.5,853,677.4,867.7z"/>
<path class="st31" d="M743.5,773.5c0.9,14.7-10,27.4-24.4,28.3c-14.4,0.9-26.7-10.3-27.6-25c-0.9-14.7,10-27.4,24.4-28.3
	S742.6,758.8,743.5,773.5z"/>
<g>
	<g>
		<line class="st32" x1="539.3" y1="743.1" x2="564.3" y2="769.9"/>
		<g>
			
				<ellipse transform="matrix(0.7309 -0.6825 0.6825 0.7309 -373.4431 592.0795)" class="st33" cx="564.1" cy="769.6" rx="7.5" ry="7.5"/>
		</g>
	</g>
</g>
<g>
	<g>
		<line class="st32" x1="546.5" y1="892" x2="579.3" y2="813.5"/>
		<g>
			
				<ellipse transform="matrix(0.386 -0.9225 0.9225 0.386 -395.2139 1033.9896)" class="st33" cx="579.2" cy="813.9" rx="7.5" ry="7.5"/>
		</g>
	</g>
</g>
<g>
	<g>
		<line class="st32" x1="688.2" y1="769.7" x2="550.6" y2="718.9"/>
		<g>
			
				<ellipse transform="matrix(0.3461 -0.9382 0.9382 0.3461 -314.3549 987.0361)" class="st33" cx="550.9" cy="719" rx="7.5" ry="7.5"/>
		</g>
	</g>
</g>
<g>
	<g>
		<line class="st32" x1="448.4" y1="866.8" x2="488" y2="886.2"/>
		<g>
			
				<ellipse transform="matrix(0.4388 -0.8986 0.8986 0.4388 -522.4813 935.4265)" class="st33" cx="487.7" cy="886" rx="7.5" ry="7.5"/>
		</g>
	</g>
</g>
<g>
	<g>
		<line class="st32" x1="385.6" y1="775.1" x2="403" y2="821.8"/>
		<g>
			
				<ellipse transform="matrix(0.9371 -0.349 0.349 0.9371 -261.3557 192.2512)" class="st33" cx="402.8" cy="821.4" rx="7.5" ry="7.5"/>
		</g>
	</g>
</g>
<g>
	<g>
		<line class="st32" x1="625.4" y1="855.1" x2="392.4" y2="777.4"/>
		<g>
			
				<ellipse transform="matrix(0.3165 -0.9486 0.9486 0.3165 -469.1174 903.9778)" class="st33" cx="392.7" cy="777.5" rx="7.5" ry="7.5"/>
		</g>
	</g>
</g>
<g>
	<g>
		<line class="st32" x1="448.4" y1="839" x2="687.9" y2="789.8"/>
		<g>
			
				<ellipse transform="matrix(0.9796 -0.201 0.201 0.9796 -144.7538 154.3323)" class="st33" cx="687.5" cy="789.9" rx="7.5" ry="7.5"/>
		</g>
	</g>
</g>
<path class="st26" d="M291.6,391.1c0.6,10.5-7.1,19.5-17.4,20.2c-10.2,0.7-19-7.3-19.7-17.8C254,383,261.7,374,272,373.3
	C282.2,372.7,291,380.6,291.6,391.1z"/>
<path class="st29" d="M510.3,87.4c0.6,10.5-7.1,19.5-17.4,20.2s-19-7.3-19.7-17.8s7.1-19.5,17.4-20.2S509.6,76.9,510.3,87.4z"/>
<g>
	<g>
		<line class="st34" x1="715.9" y1="748.5" x2="620.2" y2="429.8"/>
		<g>
			
				<ellipse transform="matrix(0.9578 -0.2876 0.2876 0.9578 -97.4904 196.55)" class="st13" cx="620.3" cy="430.1" rx="5.6" ry="5.6"/>
		</g>
	</g>
</g>
<g>
	<g>
		<line class="st8" x1="493.3" y1="100.5" x2="733" y2="744.4"/>
		<g>
			<path class="st9" d="M732.3,742.7l2.6-3.3l0.1,0.1l-0.1,6.3c0.3,2.1,0.6,4.2,0.9,6.2c-1.1-1.8-2.3-3.5-3.4-5.3l-4.2-4.7l0-0.1
				L732.3,742.7z"/>
		</g>
	</g>
</g>
<g>
	<g>
		<line class="st8" x1="341.8" y1="209" x2="514.2" y2="842.2"/>
		<g>
			<path class="st9" d="M513.7,840.5l2.9-3.1l0.1,0.1l-0.7,6.3c0.1,2.1,0.2,4.2,0.3,6.3c-1-1.9-1.9-3.7-2.9-5.6l-3.8-5.1l0-0.1
				L513.7,840.5z"/>
		</g>
	</g>
</g>
<g>
	<g>
		<line class="st36" x1="381.8" y1="282.3" x2="195" y2="281.3"/>
		<g>
			<path d="M376.4,282.3l-6.6,10.8l0.4,0.2l17.7-6.9c6.1-1.3,12.3-2.6,18.4-3.9c-6.1-1.4-12.3-2.8-18.4-4.2l-17.6-7.1l-0.4,0.2
				L376.4,282.3z"/>
		</g>
	</g>
</g>
<g>
	<g>
		<line class="st36" x1="289" y1="185.1" x2="198.5" y2="184.2"/>
		<g>
			<path d="M283.6,185l-6.7,10.7l0.4,0.2l17.7-6.8c6.2-1.3,12.3-2.6,18.5-3.9c-6.1-1.4-12.3-2.8-18.4-4.2l-17.6-7.2l-0.4,0.2
				L283.6,185z"/>
		</g>
	</g>
</g>
<g>
	<g>
		<line class="st36" x1="574.5" y1="406.8" x2="198.5" y2="405.7"/>
		<g>
			<path d="M569.1,406.8l-6.6,10.8l0.4,0.2l17.6-6.9c6.1-1.3,12.3-2.7,18.4-4c-6.1-1.4-12.3-2.7-18.4-4.1l-17.6-7.1l-0.4,0.2
				L569.1,406.8z"/>
		</g>
	</g>
</g>
<g>
	<path class="st37" d="M877,325.2c0.6,10.5-7.1,19.5-17.4,20.2s-19-7.3-19.7-17.8c-0.6-10.5,7.1-19.5,17.4-20.2
		C867.6,306.7,876.4,314.7,877,325.2z"/>
	<path class="st38" d="M877,325.2c0.6,10.5-7.1,19.5-17.4,20.2s-19-7.3-19.7-17.8c-0.6-10.5,7.1-19.5,17.4-20.2
		S876.4,314.7,877,325.2z"/>
</g>
<g>
	<path class="st37" d="M491.7,362.4c0.6,10.5-7.1,19.5-17.4,20.2s-19-7.3-19.7-17.8c-0.6-10.5,7.1-19.5,17.4-20.2
		S491.1,351.9,491.7,362.4z"/>
	<path class="st38" d="M491.7,362.4c0.6,10.5-7.1,19.5-17.4,20.2c-10.2,0.7-19-7.3-19.7-17.8c-0.6-10.5,7.1-19.5,17.4-20.2
		S491.1,351.9,491.7,362.4z"/>
</g>
<g>
	<path class="st37" d="M602.8,156.7c0.6,10.5-7.1,19.5-17.4,20.2s-19-7.3-19.7-17.8c-0.6-10.5,7.1-19.5,17.4-20.2
		S602.2,146.2,602.8,156.7z"/>
	<path class="st38" d="M602.8,156.7c0.6,10.5-7.1,19.5-17.4,20.2s-19-7.3-19.7-17.8c-0.6-10.5,7.1-19.5,17.4-20.2
		S602.2,146.2,602.8,156.7z"/>
</g>
<g>
	<path class="st37" d="M832.8,156.7c0.6,10.5-7.1,19.5-17.4,20.2s-19-7.3-19.7-17.8c-0.6-10.5,7.1-19.5,17.4-20.2
		S832.2,146.2,832.8,156.7z"/>
	<path class="st38" d="M832.8,156.7c0.6,10.5-7.1,19.5-17.4,20.2s-19-7.3-19.7-17.8c-0.6-10.5,7.1-19.5,17.4-20.2
		S832.2,146.2,832.8,156.7z"/>
</g>
<g>
	<path class="st37" d="M772.9,459c0.6,10.5-7.1,19.5-17.4,20.2s-19-7.3-19.7-17.8c-0.6-10.5,7.1-19.5,17.4-20.2
		S772.2,448.5,772.9,459z"/>
	<path class="st38" d="M772.9,459c0.6,10.5-7.1,19.5-17.4,20.2s-19-7.3-19.7-17.8c-0.6-10.5,7.1-19.5,17.4-20.2
		S772.2,448.5,772.9,459z"/>
</g>
<g>
	<path class="st37" d="M273.1,232.1c0.6,10.5-7.1,19.5-17.4,20.2s-19-7.3-19.7-17.8c-0.6-10.5,7.1-19.5,17.4-20.2
		S272.4,221.6,273.1,232.1z"/>
	<path class="st38" d="M273.1,232.1c0.6,10.5-7.1,19.5-17.4,20.2s-19-7.3-19.7-17.8c-0.6-10.5,7.1-19.5,17.4-20.2
		C263.6,213.7,272.4,221.6,273.1,232.1z"/>
</g>
<g>
	<path class="st37" d="M437.4,178.1c0.6,10.5-7.1,19.5-17.4,20.2c-10.2,0.7-19-7.3-19.7-17.8s7.1-19.5,17.4-20.2
		C428,159.7,436.8,167.7,437.4,178.1z"/>
	<path class="st38" d="M437.4,178.1c0.6,10.5-7.1,19.5-17.4,20.2s-19-7.3-19.7-17.8c-0.6-10.5,7.1-19.5,17.4-20.2
		C428,159.7,436.8,167.7,437.4,178.1z"/>
</g>
<g>
	<path class="st37" d="M717.5,316.3c0.6,10.5-7.1,19.5-17.4,20.2s-19-7.3-19.7-17.8c-0.6-10.5,7.1-19.5,17.4-20.2
		S716.8,305.8,717.5,316.3z"/>
	<path class="st38" d="M717.5,316.3c0.6,10.5-7.1,19.5-17.4,20.2s-19-7.3-19.7-17.8c-0.6-10.5,7.1-19.5,17.4-20.2
		S716.8,305.8,717.5,316.3z"/>
</g>
<g>
	<g>
		<line class="st36" x1="437.1" y1="477.2" x2="198.5" y2="477.2"/>
		<g>
			<path d="M431.7,477.2l-6.6,10.8l0.4,0.2l17.6-7c6.1-1.4,12.3-2.7,18.4-4.1c-6.1-1.4-12.3-2.7-18.4-4.1l-17.6-7l-0.4,0.2
				L431.7,477.2z"/>
		</g>
	</g>
</g>
<path class="st36" d="M46,187.7c5.5-0.3,11,0.2,16.4,0c5.5-0.2,11.2-1.3,14.6-3.9c5.8-4.4,3.6-12.3,12-14.8c2-0.6,4.3-0.7,6.5-0.7
	c6.9,0,13.9,1.2,19.8,3.4c6.8,2.5,12.1,6.1,18.2,9.1c12.9,6.3,29.6,9.7,46.1,9.4"/>
<path class="st36" d="M41.7,291.8c5.5-0.4,11,0.3,16.4,0s11.2-1.9,14.6-5.8c5.8-6.7,3.6-18.5,12-22.2c2-0.9,4.3-1.1,6.5-1
	c6.9,0,13.9,1.8,19.8,5.1c6.8,3.7,12.1,9.2,18.2,13.7c12.9,9.5,29.6,14.6,46.1,14.1"/>
<path class="st36" d="M38.6,409.1c5.5-0.6,11,0.5,16.4,0c5.5-0.5,11.2-3,14.6-9.3c5.8-10.7,3.6-29.7,12-35.6c2-1.4,4.3-1.7,6.5-1.7
	c6.9,0.1,13.9,2.9,19.8,8.2c6.8,6,12.1,14.8,18.2,22.1c12.9,15.2,29.6,23.4,46.1,22.7"/>
<path class="st36" d="M38.6,485.1c5.5-0.4,11,0.3,16.4,0s11.2-1.8,14.6-5.4c5.8-6.2,3.6-17.3,12-20.7c2-0.8,4.3-1,6.5-1
	c6.9,0,13.9,1.7,19.8,4.7c6.8,3.5,12.1,8.6,18.2,12.8c12.9,8.8,29.6,13.6,46.1,13.2"/>
<g>
	<g>
		<line class="st36" x1="547" y1="780.3" x2="198.5" y2="780.3"/>
		<g>
			<path d="M541.6,780.3l-6.6,10.8l0.4,0.2l17.6-7c6.1-1.4,12.3-2.7,18.4-4.1c-6.1-1.4-12.3-2.7-18.4-4.1l-17.6-7l-0.4,0.2
				L541.6,780.3z"/>
		</g>
	</g>
</g>
<path class="st36" d="M52.6,795.3c5.5-0.6,11,0.5,16.4,0c5.5-0.5,11.2-3,14.6-9.3c5.8-10.7,3.6-29.7,12-35.6c2-1.4,4.3-1.7,6.5-1.7
	c6.9,0.1,13.9,2.9,19.8,8.2c6.8,6,12.1,14.8,18.2,22.1c12.9,15.2,29.6,23.4,46.1,22.7"/>
<g>
	<g>
		<line class="st36" x1="371.9" y1="856.8" x2="198.5" y2="856.8"/>
		<g>
			<path d="M366.5,856.8l-6.6,10.8l0.4,0.2l17.6-7c6.1-1.4,12.3-2.7,18.4-4.1c-6.1-1.4-12.3-2.7-18.4-4.1l-17.6-7l-0.4,0.2
				L366.5,856.8z"/>
		</g>
	</g>
</g>
<g>
	<g>
		<line class="st36" x1="465.7" y1="722.6" x2="198.5" y2="722.6"/>
		<g>
			<path d="M460.3,722.6l-6.6,10.8l0.4,0.2l17.6-7c6.1-1.4,12.3-2.7,18.4-4.1c-6.1-1.4-12.3-2.7-18.4-4.1l-17.6-7l-0.4,0.2
				L460.3,722.6z"/>
		</g>
	</g>
</g>
<path class="st36" d="M50.5,866.8c5.5-0.4,11,0.3,16.4,0c5.5-0.3,11.2-1.8,14.6-5.4c5.8-6.2,3.6-17.3,12-20.8c2-0.8,4.3-1,6.5-1
	c6.9,0,13.9,1.7,19.8,4.8c6.8,3.5,12.1,8.6,18.2,12.8c12.9,8.9,29.6,13.6,46.1,13.2"/>
<path class="st36" d="M50.5,723.7c5.5-0.4,11,0.3,16.4,0c5.5-0.3,11.2-1.8,14.6-5.7c5.8-6.5,3.6-18.1,12-21.7c2-0.9,4.3-1,6.5-1
	c6.9,0,13.9,1.8,19.8,5c6.8,3.6,12.1,9,18.2,13.4c12.9,9.3,29.6,14.3,46.1,13.8"/>
<g>
	<g>
		<line class="st49" x1="443.2" y1="280.1" x2="553.6" y2="286.5"/>
		<g>
			<path d="M550.9,286.4l-3-5.6l0.2-0.1l8.6,4c3,0.9,6.1,1.7,9.1,2.6c-3.1,0.5-6.2,1-9.3,1.5l-9,3l-0.2-0.1L550.9,286.4z"/>
		</g>
	</g>
</g>
<g>
	<g>
		<line class="st49" x1="597.4" y1="397.8" x2="453" y2="287.5"/>
		<g>
			<path d="M455.1,289.2l-0.7,6.3l-0.2,0l-4.9-8.1c-2-2.4-4.1-4.8-6.1-7.2c2.9,1.3,5.7,2.7,8.6,4l9.1,2.6l0.1,0.2L455.1,289.2z"/>
		</g>
	</g>
</g>
<g>
	<g>
		<line class="st49" x1="272" y1="373.3" x2="326" y2="217.3"/>
		<g>
			<path d="M325.1,219.9l-6.2,1.3l-0.1-0.2l6.2-7.2c1.6-2.7,3.3-5.4,4.9-8c-0.4,3.1-0.7,6.2-1.1,9.4l0.4,9.5l-0.1,0.1L325.1,219.9z"
				/>
		</g>
	</g>
</g>
<g>
	<g>
		<line class="st49" x1="412.6" y1="295.7" x2="282.7" y2="367.4"/>
		<g>
			<path d="M285,366.1l5.5,3.1l-0.1,0.2l-9.4,1.2c-3,0.9-6,1.8-9,2.7c2.4-2.1,4.7-4.1,7.1-6.2l6-7.3l0.2,0L285,366.1z"/>
		</g>
	</g>
</g>
<g>
	<g>
		<line class="st49" x1="348.2" y1="169.1" x2="461.5" y2="103.4"/>
		<g>
			<path d="M459.2,104.8l-5.6-3l0.1-0.2l9.4-1.4c3-1,6-1.9,9-2.9c-2.3,2.1-4.6,4.2-7,6.4l-5.9,7.4l-0.2,0L459.2,104.8z"/>
		</g>
	</g>
</g>
<g>
	<g>
		<line class="st49" x1="429.1" y1="259.7" x2="476.2" y2="119.2"/>
		<g>
			<path d="M475.3,121.7l-6.2,1.4l-0.1-0.2l6.1-7.2c1.6-2.7,3.2-5.4,4.8-8.1c-0.3,3.1-0.7,6.3-1,9.4l0.5,9.5l-0.1,0.1L475.3,121.7z"
				/>
		</g>
	</g>
</g>
<line class="st49" x1="510.3" y1="87.4" x2="661.8" y2="115.7"/>
<g>
	<g>
		<line class="st49" x1="661.8" y1="138.9" x2="603.1" y2="251.9"/>
		<g>
			<path d="M604.3,249.5l6.3-0.4l0,0.2l-7.2,6.2c-2,2.4-4,4.8-6,7.2c0.8-3,1.6-6.1,2.5-9.1l1-9.4l0.2-0.1L604.3,249.5z"/>
		</g>
	</g>
</g>
<g>
	<g>
		<line class="st49" x1="498.6" y1="474.8" x2="591.8" y2="430"/>
		<g>
			<path d="M589.4,431.2l-5.3-3.4l0.1-0.2l9.5-0.7c3.1-0.7,6.1-1.4,9.2-2.2c-2.5,1.9-5,3.9-7.4,5.8l-6.4,7l-0.2,0L589.4,431.2z"/>
		</g>
	</g>
</g>
<g>
	<g>
		<line class="st49" x1="461.5" y1="466.9" x2="298.2" y2="414.3"/>
		<g>
			<path d="M300.8,415.1l1.5,6.2l-0.2,0.1l-7.3-6c-2.7-1.6-5.4-3.2-8.1-4.8c3.1,0.3,6.3,0.6,9.4,0.9l9.5-0.6l0.1,0.1L300.8,415.1z"
				/>
		</g>
	</g>
</g>
<g>
	<g>
		<line class="st49" x1="817.2" y1="398.9" x2="770.4" y2="273.4"/>
		<g>
			<path d="M771.4,275.9l-3.9,5l-0.2-0.1l0.2-9.5c-0.4-3.1-0.9-6.2-1.3-9.3c1.7,2.6,3.4,5.3,5.1,7.9l6.4,7l0,0.2L771.4,275.9z"/>
		</g>
	</g>
</g>
<line class="st49" x1="691.5" y1="138.9" x2="749" y2="225.5"/>
<line class="st49" x1="602.8" y1="284.9" x2="741.7" y2="241.9"/>
<g>
	<g>
		<line class="st49" x1="633.4" y1="396.1" x2="738.1" y2="262.1"/>
		<g>
			<path d="M736.4,264.2l-6.3-0.7l0-0.2l8.2-4.8c2.4-2,4.8-4,7.3-6c-1.4,2.8-2.7,5.7-4.1,8.5l-2.7,9.1l-0.2,0.1L736.4,264.2z"/>
		</g>
	</g>
</g>
<g>
	<g>
		<line class="st49" x1="803.9" y1="424.7" x2="648.2" y2="412.3"/>
		<g>
			<path d="M650.9,412.5l2.8,5.6l-0.2,0.1l-8.5-4.2c-3-0.9-6-1.8-9-2.8c3.1-0.4,6.2-0.9,9.3-1.3l9.1-2.8l0.2,0.1L650.9,412.5z"/>
		</g>
	</g>
</g>
<g>
	<g>
		<line class="st49" x1="498.6" y1="474.8" x2="791.8" y2="426.7"/>
		<g>
			<path d="M789.2,427.2l-4.1-4.8l0.2-0.2l9.3,2c3.1,0.2,6.3,0.3,9.4,0.5c-2.9,1.2-5.8,2.3-8.8,3.5l-8.1,4.9l-0.2-0.1L789.2,427.2z"
				/>
		</g>
	</g>
</g>
<g>
	<g>
		<line class="st49" x1="616.3" y1="386.8" x2="669.5" y2="159.7"/>
		<g>
			<path d="M668.8,162.3l-6,2l-0.1-0.2l5.4-7.8c1.4-2.8,2.7-5.7,4.1-8.5c0,3.1-0.1,6.3-0.1,9.4l1.4,9.4l-0.1,0.2L668.8,162.3z"/>
		</g>
	</g>
</g>
<g>
	<g>
		<line class="st49" x1="478.9" y1="457" x2="492.4" y2="119.8"/>
		<g>
			<path d="M492.3,122.4l-5.5,3.1l-0.1-0.2l3.9-8.7c0.8-3,1.6-6.1,2.4-9.1c0.6,3.1,1.1,6.2,1.7,9.3l3.1,8.9l-0.1,0.2L492.3,122.4z"
				/>
		</g>
	</g>
</g>
</svg>
