<?xml version="1.0" encoding="utf-8" standalone="no"?>
<!DOCTYPE svg PUBLIC "-//W3C//DTD SVG 1.1//EN"
  "http://www.w3.org/Graphics/SVG/1.1/DTD/svg11.dtd">
<!-- Created with matplotlib (https://matplotlib.org/) -->
<svg height="72pt" version="1.1" viewBox="0 0 864 72" width="864pt" xmlns="http://www.w3.org/2000/svg" xmlns:xlink="http://www.w3.org/1999/xlink">
 <metadata>
  <rdf:RDF xmlns:cc="http://creativecommons.org/ns#" xmlns:dc="http://purl.org/dc/elements/1.1/" xmlns:rdf="http://www.w3.org/1999/02/22-rdf-syntax-ns#">
   <cc:Work>
    <dc:type rdf:resource="http://purl.org/dc/dcmitype/StillImage"/>
    <dc:date>2021-09-13T17:57:24.694949</dc:date>
    <dc:format>image/svg+xml</dc:format>
    <dc:creator>
     <cc:Agent>
      <dc:title>Matplotlib v3.3.4, https://matplotlib.org/</dc:title>
     </cc:Agent>
    </dc:creator>
   </cc:Work>
  </rdf:RDF>
 </metadata>
 <defs>
  <style type="text/css">*{stroke-linecap:butt;stroke-linejoin:round;}</style>
 </defs>
 <g id="figure_1">
  <g id="patch_1">
   <path d="M 0 72 
L 864 72 
L 864 0 
L 0 0 
z
" style="fill:none;"/>
  </g>
  <g id="axes_1">
   <g id="matplotlib.axis_1"/>
   <g id="matplotlib.axis_2"/>
   <g id="line2d_1">
    <path clip-path="url(#p5239622ed0)" d="M 10.8 58.909091 
L 43.19946 58.909091 
L 43.3107 13.090909 
L 59.39946 13.090909 
L 59.5107 58.909091 
L 75.59946 58.909091 
L 75.7107 13.090909 
L 102.59946 13.090909 
L 102.7107 58.909091 
L 105.29946 58.909091 
L 105.4107 13.090909 
L 132.29946 13.090909 
L 132.4107 58.909091 
L 140.39946 58.909091 
L 140.5107 13.090909 
L 143.09946 13.090909 
L 143.2107 58.909091 
L 156.59946 58.909091 
L 156.7107 13.090909 
L 167.39946 13.090909 
L 167.5107 58.909091 
L 172.79946 58.909091 
L 172.9107 13.090909 
L 175.49946 13.090909 
L 175.6107 58.909091 
L 178.19946 58.909091 
L 178.3107 13.090909 
L 186.29946 13.090909 
L 186.4107 58.909091 
L 205.19946 58.909091 
L 205.3107 13.090909 
L 256.49946 13.090909 
L 256.6107 58.909091 
L 259.19946 58.909091 
L 259.3107 13.090909 
L 261.89946 13.090909 
L 262.0107 58.909091 
L 267.29946 58.909091 
L 267.4107 13.090909 
L 269.99946 13.090909 
L 270.1107 58.909091 
L 288.89946 58.909091 
L 289.0107 13.090909 
L 291.59946 13.090909 
L 291.7107 58.909091 
L 294.29946 58.909091 
L 294.4107 13.090909 
L 310.49946 13.090909 
L 310.6107 58.909091 
L 313.19946 58.909091 
L 313.3107 13.090909 
L 326.69946 13.090909 
L 326.8107 58.909091 
L 329.39946 58.909091 
L 329.5107 13.090909 
L 340.19946 13.090909 
L 340.3107 58.909091 
L 348.29946 58.909091 
L 348.4107 13.090909 
L 388.79946 13.090909 
L 388.9107 58.909091 
L 391.49946 58.909091 
L 391.6107 13.090909 
L 396.89946 13.090909 
L 397.0107 58.909091 
L 410.39946 58.909091 
L 410.5107 13.090909 
L 421.19946 13.090909 
L 421.3107 58.909091 
L 448.19946 58.909091 
L 448.3107 13.090909 
L 456.29946 13.090909 
L 456.4107 58.909091 
L 461.69946 58.909091 
L 461.8107 13.090909 
L 464.39946 13.090909 
L 464.5107 58.909091 
L 469.79946 58.909091 
L 469.9107 13.090909 
L 472.49946 13.090909 
L 472.6107 58.909091 
L 475.19946 58.909091 
L 475.3107 13.090909 
L 477.89946 13.090909 
L 478.0107 58.909091 
L 488.69946 58.909091 
L 488.8107 13.090909 
L 502.19946 13.090909 
L 502.3107 58.909091 
L 504.89946 58.909091 
L 505.0107 13.090909 
L 531.89946 13.090909 
L 532.0107 58.909091 
L 537.29946 58.909091 
L 537.4107 13.090909 
L 561.59946 13.090909 
L 561.7107 58.909091 
L 575.09946 58.909091 
L 575.2107 13.090909 
L 577.79946 13.090909 
L 577.9107 58.909091 
L 580.49946 58.909091 
L 580.6107 13.090909 
L 631.79946 13.090909 
L 631.9107 58.909091 
L 634.49946 58.909091 
L 634.6107 13.090909 
L 645.29946 13.090909 
L 645.4107 58.909091 
L 647.99946 58.909091 
L 648.1107 13.090909 
L 650.69946 13.090909 
L 650.8107 58.909091 
L 653.39946 58.909091 
L 653.5107 13.090909 
L 656.09946 13.090909 
L 656.2107 58.909091 
L 658.79946 58.909091 
L 658.9107 13.090909 
L 661.49946 13.090909 
L 661.6107 58.909091 
L 664.19946 58.909091 
L 664.3107 13.090909 
L 674.99946 13.090909 
L 675.1107 58.909091 
L 712.79946 58.909091 
L 712.79946 58.909091 
" style="fill:none;stroke:#000000;stroke-linecap:square;stroke-width:1.5;"/>
   </g>
  </g>
 </g>
 <defs>
  <clipPath id="p5239622ed0">
   <rect height="50.4" width="842.4" x="10.8" y="10.8"/>
  </clipPath>
 </defs>
</svg>
