<?xml version="1.0" encoding="utf-8" standalone="no"?>
<!DOCTYPE svg PUBLIC "-//W3C//DTD SVG 1.1//EN"
  "http://www.w3.org/Graphics/SVG/1.1/DTD/svg11.dtd">
<!-- Created with matplotlib (https://matplotlib.org/) -->
<svg height="360pt" version="1.1" viewBox="0 0 360 360" width="360pt" xmlns="http://www.w3.org/2000/svg" xmlns:xlink="http://www.w3.org/1999/xlink">
 <metadata>
  <rdf:RDF xmlns:cc="http://creativecommons.org/ns#" xmlns:dc="http://purl.org/dc/elements/1.1/" xmlns:rdf="http://www.w3.org/1999/02/22-rdf-syntax-ns#">
   <cc:Work>
    <dc:type rdf:resource="http://purl.org/dc/dcmitype/StillImage"/>
    <dc:date>2021-04-19T14:09:10.092822</dc:date>
    <dc:format>image/svg+xml</dc:format>
    <dc:creator>
     <cc:Agent>
      <dc:title>Matplotlib v3.3.2, https://matplotlib.org/</dc:title>
     </cc:Agent>
    </dc:creator>
   </cc:Work>
  </rdf:RDF>
 </metadata>
 <defs>
  <style type="text/css">*{stroke-linecap:butt;stroke-linejoin:round;}</style>
 </defs>
 <g id="figure_1">
  <g id="patch_1">
   <path d="M 0 360 
L 360 360 
L 360 0 
L 0 0 
z
" style="fill:none;"/>
  </g>
  <g id="axes_1">
   <g id="patch_2">
    <path clip-path="url(#p98a5fceedb)" d="M 242.337099 163.474017 
Q 256.95058 213.10084 285.676656 254.060102 
" style="fill:none;stroke:#cd5c5c;stroke-linecap:round;"/>
    <path clip-path="url(#p98a5fceedb)" d="M 284.028306 243.001941 
L 285.676656 254.060102 
L 275.841116 248.743885 
L 284.028306 243.001941 
z
" style="fill:#cd5c5c;stroke:#cd5c5c;stroke-linecap:round;"/>
   </g>
   <g id="patch_3">
    <path clip-path="url(#p98a5fceedb)" d="M 242.337099 163.474017 
Q 218.860573 117.49685 183.147174 82.618591 
" style="fill:none;stroke:#cd5c5c;stroke-linecap:round;"/>
    <path clip-path="url(#p98a5fceedb)" d="M 186.807934 93.182626 
L 183.147174 82.618591 
L 193.794858 86.028404 
L 186.807934 93.182626 
z
" style="fill:#cd5c5c;stroke:#cd5c5c;stroke-linecap:round;"/>
   </g>
   <g id="patch_4">
    <path clip-path="url(#p98a5fceedb)" d="M 242.337099 163.474017 
Q 188.222782 157.44497 136.72829 168.808624 
" style="fill:none;stroke:#cd5c5c;stroke-linecap:round;"/>
    <path clip-path="url(#p98a5fceedb)" d="M 147.570807 171.536228 
L 136.72829 168.808624 
L 145.415883 161.771172 
L 147.570807 171.536228 
z
" style="fill:#cd5c5c;stroke:#cd5c5c;stroke-linecap:round;"/>
   </g>
   <g id="patch_5">
    <path clip-path="url(#p98a5fceedb)" d="M 242.337099 163.474017 
Q 207.740002 212.596924 191.609205 268.671443 
" style="fill:none;stroke:#cd5c5c;stroke-linecap:round;"/>
    <path clip-path="url(#p98a5fceedb)" d="M 199.178896 260.443455 
L 191.609205 268.671443 
L 189.568629 257.678897 
L 199.178896 260.443455 
z
" style="fill:#cd5c5c;stroke:#cd5c5c;stroke-linecap:round;"/>
   </g>
   <g id="patch_6">
    <path clip-path="url(#p98a5fceedb)" d="M 113.971704 174.597639 
Q 86.572644 216.555947 74.355306 263.402337 
" style="fill:none;stroke:#cd5c5c;stroke-linecap:round;"/>
    <path clip-path="url(#p98a5fceedb)" d="M 81.71703 254.987765 
L 74.355306 263.402337 
L 72.040683 252.464215 
L 81.71703 254.987765 
z
" style="fill:#cd5c5c;stroke:#cd5c5c;stroke-linecap:round;"/>
   </g>
   <g id="patch_7">
    <path clip-path="url(#p98a5fceedb)" d="M 113.971704 174.597639 
Q 143.903494 134.864182 159.140177 89.295165 
" style="fill:none;stroke:#cd5c5c;stroke-linecap:round;"/>
    <path clip-path="url(#p98a5fceedb)" d="M 151.227149 97.193518 
L 159.140177 89.295165 
L 160.711042 100.3646 
L 151.227149 97.193518 
z
" style="fill:#cd5c5c;stroke:#cd5c5c;stroke-linecap:round;"/>
   </g>
   <g id="patch_8">
    <path clip-path="url(#p98a5fceedb)" d="M 113.971704 174.597639 
Q 168.086021 180.626686 219.580513 169.263032 
" style="fill:none;stroke:#cd5c5c;stroke-linecap:round;"/>
    <path clip-path="url(#p98a5fceedb)" d="M 208.737996 166.535428 
L 219.580513 169.263032 
L 210.89292 176.300484 
L 208.737996 166.535428 
z
" style="fill:#cd5c5c;stroke:#cd5c5c;stroke-linecap:round;"/>
   </g>
   <g id="patch_9">
    <path clip-path="url(#p98a5fceedb)" d="M 113.971704 174.597639 
Q 134.300761 229.640438 170.375424 273.703297 
" style="fill:none;stroke:#cd5c5c;stroke-linecap:round;"/>
    <path clip-path="url(#p98a5fceedb)" d="M 167.909389 262.798313 
L 170.375424 273.703297 
L 160.171816 269.133134 
L 167.909389 262.798313 
z
" style="fill:#cd5c5c;stroke:#cd5c5c;stroke-linecap:round;"/>
   </g>
   <g id="patch_10">
    <path clip-path="url(#p98a5fceedb)" d="M 185.783479 291.41405 
Q 138.937423 279.893152 92.534817 283.610689 
" style="fill:none;stroke:#cd5c5c;stroke-linecap:round;"/>
    <path clip-path="url(#p98a5fceedb)" d="M 102.902174 287.79613 
L 92.534817 283.610689 
L 102.103584 277.828069 
L 102.902174 287.79613 
z
" style="fill:#cd5c5c;stroke:#cd5c5c;stroke-linecap:round;"/>
   </g>
   <g id="patch_11">
    <path clip-path="url(#p98a5fceedb)" d="M 185.783479 291.41405 
Q 233.398827 293.116147 277.507806 280.211852 
" style="fill:none;stroke:#cd5c5c;stroke-linecap:round;"/>
    <path clip-path="url(#p98a5fceedb)" d="M 266.506173 278.220854 
L 277.507806 280.211852 
L 269.314028 287.81856 
L 266.506173 278.220854 
z
" style="fill:#cd5c5c;stroke:#cd5c5c;stroke-linecap:round;"/>
   </g>
   <g id="patch_12">
    <path clip-path="url(#p98a5fceedb)" d="M 185.783479 291.41405 
Q 220.380575 242.291143 236.511373 186.216624 
" style="fill:none;stroke:#cd5c5c;stroke-linecap:round;"/>
    <path clip-path="url(#p98a5fceedb)" d="M 228.941682 194.444611 
L 236.511373 186.216624 
L 238.551948 197.209169 
L 228.941682 194.444611 
z
" style="fill:#cd5c5c;stroke:#cd5c5c;stroke-linecap:round;"/>
   </g>
   <g id="patch_13">
    <path clip-path="url(#p98a5fceedb)" d="M 185.783479 291.41405 
Q 165.454422 236.371251 129.379759 192.308392 
" style="fill:none;stroke:#cd5c5c;stroke-linecap:round;"/>
    <path clip-path="url(#p98a5fceedb)" d="M 131.845794 203.213376 
L 129.379759 192.308392 
L 139.583367 196.878554 
L 131.845794 203.213376 
z
" style="fill:#cd5c5c;stroke:#cd5c5c;stroke-linecap:round;"/>
   </g>
   <g id="patch_14">
    <path clip-path="url(#p98a5fceedb)" d="M 69.210744 286.310759 
Q 157.808811 246.778059 225.87059 180.209746 
" style="fill:none;stroke:#000000;stroke-linecap:round;"/>
    <path clip-path="url(#p98a5fceedb)" d="M 215.225423 183.627409 
L 225.87059 180.209746 
L 222.217621 190.776477 
L 215.225423 183.627409 
z
" style="stroke:#000000;stroke-linecap:round;"/>
   </g>
   <g id="patch_15">
    <path clip-path="url(#p98a5fceedb)" d="M 299.789256 272.821165 
Q 225.403732 212.216585 136.330403 181.761176 
" style="fill:none;stroke:#000000;stroke-linecap:round;"/>
    <path clip-path="url(#p98a5fceedb)" d="M 144.17497 189.727528 
L 136.330403 181.761176 
L 147.410225 180.265334 
L 144.17497 189.727528 
z
" style="stroke:#000000;stroke-linecap:round;"/>
   </g>
   <g id="patch_16">
    <path clip-path="url(#p98a5fceedb)" d="M 165.814665 66.78595 
Q 154.553904 169.942426 179.604134 268.762777 
" style="fill:none;stroke:#000000;stroke-linecap:round;"/>
    <path clip-path="url(#p98a5fceedb)" d="M 181.99363 257.840767 
L 179.604134 268.762777 
L 172.300223 260.297974 
L 181.99363 257.840767 
z
" style="stroke:#000000;stroke-linecap:round;"/>
   </g>
   <g id="PathCollection_1">
    <defs>
     <path d="M 0 22.36068 
C 5.930122 22.36068 11.618159 20.004617 15.811388 15.811388 
C 20.004617 11.618159 22.36068 5.930122 22.36068 -0 
C 22.36068 -5.930122 20.004617 -11.618159 15.811388 -15.811388 
C 11.618159 -20.004617 5.930122 -22.36068 0 -22.36068 
C -5.930122 -22.36068 -11.618159 -20.004617 -15.811388 -15.811388 
C -20.004617 -11.618159 -22.36068 -5.930122 -22.36068 0 
C -22.36068 5.930122 -20.004617 11.618159 -15.811388 15.811388 
C -11.618159 20.004617 -5.930122 22.36068 0 22.36068 
z
" id="C0_0_1f114093d9"/>
    </defs>
    <g clip-path="url(#p98a5fceedb)">
     <use style="fill:#420a68;stroke:#420a68;" x="69.210744" xlink:href="#C0_0_1f114093d9" y="286.310759"/>
    </g>
    <g clip-path="url(#p98a5fceedb)">
     <use style="fill:#bc3754;stroke:#bc3754;" x="299.789256" xlink:href="#C0_0_1f114093d9" y="272.821165"/>
    </g>
    <g clip-path="url(#p98a5fceedb)">
     <use style="fill:#fca50a;stroke:#fca50a;" x="165.814665" xlink:href="#C0_0_1f114093d9" y="66.78595"/>
    </g>
   </g>
   <g id="PathCollection_2">
    <path clip-path="url(#p98a5fceedb)" d="M 219.976419 185.834697 
L 264.697779 185.834697 
L 264.697779 141.113337 
L 219.976419 141.113337 
z
" style="fill:#420a68;stroke:#420a68;"/>
    <path clip-path="url(#p98a5fceedb)" d="M 91.611024 196.958319 
L 136.332384 196.958319 
L 136.332384 152.236959 
L 91.611024 152.236959 
z
" style="fill:#bc3754;stroke:#bc3754;"/>
    <path clip-path="url(#p98a5fceedb)" d="M 163.422799 313.774729 
L 208.144159 313.774729 
L 208.144159 269.05337 
L 163.422799 269.05337 
z
" style="fill:#fca50a;stroke:#fca50a;"/>
   </g>
   <g id="text_1">
    <g clip-path="url(#p98a5fceedb)">
     <!-- $PN_1$ -->
     <g style="fill:#ffffff;" transform="translate(54.570744 290.725759)scale(0.16 -0.16)">
      <defs>
       <path d="M 16.890625 72.90625 
L 39.703125 72.90625 
Q 49.65625 72.90625 54.875 68.265625 
Q 60.109375 63.625 60.109375 54.6875 
Q 60.109375 42.671875 52.390625 35.984375 
Q 44.671875 29.296875 30.71875 29.296875 
L 18.3125 29.296875 
L 12.59375 0 
L 2.6875 0 
z
M 25.203125 64.796875 
L 19.921875 37.40625 
L 32.328125 37.40625 
Q 40.71875 37.40625 45.203125 41.703125 
Q 49.703125 46 49.703125 54 
Q 49.703125 59.125 46.65625 61.953125 
Q 43.609375 64.796875 38.09375 64.796875 
z
" id="DejaVuSans-Oblique-80"/>
       <path d="M 16.890625 72.90625 
L 30.171875 72.90625 
L 50.296875 10.40625 
L 62.5 72.90625 
L 72.125 72.90625 
L 57.90625 0 
L 44.578125 0 
L 24.515625 62.890625 
L 12.3125 0 
L 2.6875 0 
z
" id="DejaVuSans-Oblique-78"/>
       <path d="M 12.40625 8.296875 
L 28.515625 8.296875 
L 28.515625 63.921875 
L 10.984375 60.40625 
L 10.984375 69.390625 
L 28.421875 72.90625 
L 38.28125 72.90625 
L 38.28125 8.296875 
L 54.390625 8.296875 
L 54.390625 0 
L 12.40625 0 
z
" id="DejaVuSans-49"/>
      </defs>
      <use transform="translate(0 0.09375)" xlink:href="#DejaVuSans-Oblique-80"/>
      <use transform="translate(60.302734 0.09375)" xlink:href="#DejaVuSans-Oblique-78"/>
      <use transform="translate(135.107422 -16.3125)scale(0.7)" xlink:href="#DejaVuSans-49"/>
     </g>
    </g>
   </g>
   <g id="text_2">
    <g clip-path="url(#p98a5fceedb)">
     <!-- $PN_2$ -->
     <g style="fill:#ffffff;" transform="translate(285.149256 277.236165)scale(0.16 -0.16)">
      <defs>
       <path d="M 19.1875 8.296875 
L 53.609375 8.296875 
L 53.609375 0 
L 7.328125 0 
L 7.328125 8.296875 
Q 12.9375 14.109375 22.625 23.890625 
Q 32.328125 33.6875 34.8125 36.53125 
Q 39.546875 41.84375 41.421875 45.53125 
Q 43.3125 49.21875 43.3125 52.78125 
Q 43.3125 58.59375 39.234375 62.25 
Q 35.15625 65.921875 28.609375 65.921875 
Q 23.96875 65.921875 18.8125 64.3125 
Q 13.671875 62.703125 7.8125 59.421875 
L 7.8125 69.390625 
Q 13.765625 71.78125 18.9375 73 
Q 24.125 74.21875 28.421875 74.21875 
Q 39.75 74.21875 46.484375 68.546875 
Q 53.21875 62.890625 53.21875 53.421875 
Q 53.21875 48.921875 51.53125 44.890625 
Q 49.859375 40.875 45.40625 35.40625 
Q 44.1875 33.984375 37.640625 27.21875 
Q 31.109375 20.453125 19.1875 8.296875 
z
" id="DejaVuSans-50"/>
      </defs>
      <use transform="translate(0 0.09375)" xlink:href="#DejaVuSans-Oblique-80"/>
      <use transform="translate(60.302734 0.09375)" xlink:href="#DejaVuSans-Oblique-78"/>
      <use transform="translate(135.107422 -16.3125)scale(0.7)" xlink:href="#DejaVuSans-50"/>
     </g>
    </g>
   </g>
   <g id="text_3">
    <g clip-path="url(#p98a5fceedb)">
     <!-- $PN_3$ -->
     <g style="fill:#ffffff;" transform="translate(151.174665 71.20095)scale(0.16 -0.16)">
      <defs>
       <path d="M 40.578125 39.3125 
Q 47.65625 37.796875 51.625 33 
Q 55.609375 28.21875 55.609375 21.1875 
Q 55.609375 10.40625 48.1875 4.484375 
Q 40.765625 -1.421875 27.09375 -1.421875 
Q 22.515625 -1.421875 17.65625 -0.515625 
Q 12.796875 0.390625 7.625 2.203125 
L 7.625 11.71875 
Q 11.71875 9.328125 16.59375 8.109375 
Q 21.484375 6.890625 26.8125 6.890625 
Q 36.078125 6.890625 40.9375 10.546875 
Q 45.796875 14.203125 45.796875 21.1875 
Q 45.796875 27.640625 41.28125 31.265625 
Q 36.765625 34.90625 28.71875 34.90625 
L 20.21875 34.90625 
L 20.21875 43.015625 
L 29.109375 43.015625 
Q 36.375 43.015625 40.234375 45.921875 
Q 44.09375 48.828125 44.09375 54.296875 
Q 44.09375 59.90625 40.109375 62.90625 
Q 36.140625 65.921875 28.71875 65.921875 
Q 24.65625 65.921875 20.015625 65.03125 
Q 15.375 64.15625 9.8125 62.3125 
L 9.8125 71.09375 
Q 15.4375 72.65625 20.34375 73.4375 
Q 25.25 74.21875 29.59375 74.21875 
Q 40.828125 74.21875 47.359375 69.109375 
Q 53.90625 64.015625 53.90625 55.328125 
Q 53.90625 49.265625 50.4375 45.09375 
Q 46.96875 40.921875 40.578125 39.3125 
z
" id="DejaVuSans-51"/>
      </defs>
      <use transform="translate(0 0.09375)" xlink:href="#DejaVuSans-Oblique-80"/>
      <use transform="translate(60.302734 0.09375)" xlink:href="#DejaVuSans-Oblique-78"/>
      <use transform="translate(135.107422 -16.3125)scale(0.7)" xlink:href="#DejaVuSans-51"/>
     </g>
    </g>
   </g>
   <g id="text_4">
    <g clip-path="url(#p98a5fceedb)">
     <!-- $LN_1$ -->
     <g style="fill:#ffffff;" transform="translate(228.097099 167.889017)scale(0.16 -0.16)">
      <defs>
       <path d="M 16.796875 72.90625 
L 26.703125 72.90625 
L 14.203125 8.203125 
L 49.703125 8.203125 
L 48.09375 0 
L 2.6875 0 
z
" id="DejaVuSans-Oblique-76"/>
      </defs>
      <use transform="translate(0 0.09375)" xlink:href="#DejaVuSans-Oblique-76"/>
      <use transform="translate(55.712891 0.09375)" xlink:href="#DejaVuSans-Oblique-78"/>
      <use transform="translate(130.517578 -16.3125)scale(0.7)" xlink:href="#DejaVuSans-49"/>
     </g>
    </g>
   </g>
   <g id="text_5">
    <g clip-path="url(#p98a5fceedb)">
     <!-- $LN_2$ -->
     <g style="fill:#ffffff;" transform="translate(99.731704 179.012639)scale(0.16 -0.16)">
      <use transform="translate(0 0.09375)" xlink:href="#DejaVuSans-Oblique-76"/>
      <use transform="translate(55.712891 0.09375)" xlink:href="#DejaVuSans-Oblique-78"/>
      <use transform="translate(130.517578 -16.3125)scale(0.7)" xlink:href="#DejaVuSans-50"/>
     </g>
    </g>
   </g>
   <g id="text_6">
    <g clip-path="url(#p98a5fceedb)">
     <!-- $LN_3$ -->
     <g style="fill:#ffffff;" transform="translate(171.543479 295.82905)scale(0.16 -0.16)">
      <use transform="translate(0 0.09375)" xlink:href="#DejaVuSans-Oblique-76"/>
      <use transform="translate(55.712891 0.09375)" xlink:href="#DejaVuSans-Oblique-78"/>
      <use transform="translate(130.517578 -16.3125)scale(0.7)" xlink:href="#DejaVuSans-51"/>
     </g>
    </g>
   </g>
  </g>
 </g>
 <defs>
  <clipPath id="p98a5fceedb">
   <rect height="271.8" width="279" x="45" y="43.2"/>
  </clipPath>
 </defs>
</svg>
