<?xml version="1.0" encoding="utf-8" standalone="no"?>
<!DOCTYPE svg PUBLIC "-//W3C//DTD SVG 1.1//EN"
  "http://www.w3.org/Graphics/SVG/1.1/DTD/svg11.dtd">
<!-- Created with matplotlib (https://matplotlib.org/) -->
<svg height="288pt" version="1.1" viewBox="0 0 576 288" width="576pt" xmlns="http://www.w3.org/2000/svg" xmlns:xlink="http://www.w3.org/1999/xlink">
 <metadata>
  <rdf:RDF xmlns:cc="http://creativecommons.org/ns#" xmlns:dc="http://purl.org/dc/elements/1.1/" xmlns:rdf="http://www.w3.org/1999/02/22-rdf-syntax-ns#">
   <cc:Work>
    <dc:type rdf:resource="http://purl.org/dc/dcmitype/StillImage"/>
    <dc:date>2021-07-08T18:27:34.962825</dc:date>
    <dc:format>image/svg+xml</dc:format>
    <dc:creator>
     <cc:Agent>
      <dc:title>Matplotlib v3.3.4, https://matplotlib.org/</dc:title>
     </cc:Agent>
    </dc:creator>
   </cc:Work>
  </rdf:RDF>
 </metadata>
 <defs>
  <style type="text/css">*{stroke-linecap:butt;stroke-linejoin:round;}</style>
 </defs>
 <g id="figure_1">
  <g id="patch_1">
   <path d="M 0 288 
L 576 288 
L 576 0 
L 0 0 
z
" style="fill:none;"/>
  </g>
  <g id="axes_1">
   <g id="patch_2">
    <path d="M 67.585 228.04 
L 563.04 228.04 
L 563.04 17.96 
L 67.585 17.96 
z
" style="fill:#ffffff;"/>
   </g>
   <g id="PathCollection_1">
    <defs>
     <path d="M 0 3.383948 
C 0.897434 3.383948 1.758231 3.027394 2.392813 2.392813 
C 3.027394 1.758231 3.383948 0.897434 3.383948 0 
C 3.383948 -0.897434 3.027394 -1.758231 2.392813 -2.392813 
C 1.758231 -3.027394 0.897434 -3.383948 0 -3.383948 
C -0.897434 -3.383948 -1.758231 -3.027394 -2.392813 -2.392813 
C -3.027394 -1.758231 -3.383948 -0.897434 -3.383948 0 
C -3.383948 0.897434 -3.027394 1.758231 -2.392813 2.392813 
C -1.758231 3.027394 -0.897434 3.383948 0 3.383948 
z
" id="m4d09dc01f7" style="stroke:#781c6d;stroke-width:2.025;"/>
    </defs>
    <g clip-path="url(#pf665e2a809)">
     <use style="fill:#781c6d;stroke:#781c6d;stroke-width:2.025;" x="76.328324" xlink:href="#m4d09dc01f7" y="102.834921"/>
     <use style="fill:#781c6d;stroke:#781c6d;stroke-width:2.025;" x="95.757931" xlink:href="#m4d09dc01f7" y="126.438239"/>
     <use style="fill:#781c6d;stroke:#781c6d;stroke-width:2.025;" x="115.187539" xlink:href="#m4d09dc01f7" y="125.759579"/>
     <use style="fill:#781c6d;stroke:#781c6d;stroke-width:2.025;" x="134.617147" xlink:href="#m4d09dc01f7" y="119.110058"/>
     <use style="fill:#781c6d;stroke:#781c6d;stroke-width:2.025;" x="154.046755" xlink:href="#m4d09dc01f7" y="113.172109"/>
     <use style="fill:#781c6d;stroke:#781c6d;stroke-width:2.025;" x="173.476363" xlink:href="#m4d09dc01f7" y="106.560904"/>
     <use style="fill:#781c6d;stroke:#781c6d;stroke-width:2.025;" x="192.905971" xlink:href="#m4d09dc01f7" y="100.413203"/>
     <use style="fill:#781c6d;stroke:#781c6d;stroke-width:2.025;" x="212.335578" xlink:href="#m4d09dc01f7" y="94.962038"/>
     <use style="fill:#781c6d;stroke:#781c6d;stroke-width:2.025;" x="231.765186" xlink:href="#m4d09dc01f7" y="90.097716"/>
     <use style="fill:#781c6d;stroke:#781c6d;stroke-width:2.025;" x="251.194794" xlink:href="#m4d09dc01f7" y="86.180864"/>
     <use style="fill:#781c6d;stroke:#781c6d;stroke-width:2.025;" x="270.624402" xlink:href="#m4d09dc01f7" y="82.114428"/>
     <use style="fill:#781c6d;stroke:#781c6d;stroke-width:2.025;" x="290.05401" xlink:href="#m4d09dc01f7" y="79.003538"/>
     <use style="fill:#781c6d;stroke:#781c6d;stroke-width:2.025;" x="309.483618" xlink:href="#m4d09dc01f7" y="75.599953"/>
     <use style="fill:#781c6d;stroke:#781c6d;stroke-width:2.025;" x="328.913225" xlink:href="#m4d09dc01f7" y="73.11485"/>
     <use style="fill:#781c6d;stroke:#781c6d;stroke-width:2.025;" x="348.342833" xlink:href="#m4d09dc01f7" y="70.793682"/>
     <use style="fill:#781c6d;stroke:#781c6d;stroke-width:2.025;" x="367.772441" xlink:href="#m4d09dc01f7" y="68.63422"/>
     <use style="fill:#781c6d;stroke:#781c6d;stroke-width:2.025;" x="387.202049" xlink:href="#m4d09dc01f7" y="66.364629"/>
     <use style="fill:#781c6d;stroke:#781c6d;stroke-width:2.025;" x="406.631657" xlink:href="#m4d09dc01f7" y="64.667056"/>
     <use style="fill:#781c6d;stroke:#781c6d;stroke-width:2.025;" x="426.061265" xlink:href="#m4d09dc01f7" y="62.804735"/>
     <use style="fill:#781c6d;stroke:#781c6d;stroke-width:2.025;" x="445.490873" xlink:href="#m4d09dc01f7" y="61.223"/>
     <use style="fill:#781c6d;stroke:#781c6d;stroke-width:2.025;" x="464.92048" xlink:href="#m4d09dc01f7" y="59.533304"/>
     <use style="fill:#781c6d;stroke:#781c6d;stroke-width:2.025;" x="484.350088" xlink:href="#m4d09dc01f7" y="57.970678"/>
     <use style="fill:#781c6d;stroke:#781c6d;stroke-width:2.025;" x="503.779696" xlink:href="#m4d09dc01f7" y="56.566277"/>
     <use style="fill:#781c6d;stroke:#781c6d;stroke-width:2.025;" x="523.209304" xlink:href="#m4d09dc01f7" y="55.430216"/>
     <use style="fill:#781c6d;stroke:#781c6d;stroke-width:2.025;" x="542.638912" xlink:href="#m4d09dc01f7" y="55.414539"/>
    </g>
   </g>
   <g id="line2d_1">
    <path clip-path="url(#pf665e2a809)" d="M 76.328324 102.834921 
L 95.757931 126.438239 
L 115.187539 125.759579 
L 134.617147 119.110058 
L 154.046755 113.172109 
L 173.476363 106.560904 
L 192.905971 100.413203 
L 212.335578 94.962038 
L 231.765186 90.097716 
L 251.194794 86.180864 
L 270.624402 82.114428 
L 290.05401 79.003538 
L 309.483618 75.599953 
L 328.913225 73.11485 
L 348.342833 70.793682 
L 367.772441 68.63422 
L 387.202049 66.364629 
L 406.631657 64.667056 
L 426.061265 62.804735 
L 445.490873 61.223 
L 464.92048 59.533304 
L 484.350088 57.970678 
L 503.779696 56.566277 
L 523.209304 55.430216 
L 542.638912 55.414539 
" style="fill:none;stroke:#781c6d;stroke-linecap:square;stroke-width:2.7;"/>
   </g>
   <g id="line2d_2">
    <path clip-path="url(#pf665e2a809)" d="M 76.328324 152.935057 
L 76.328324 52.734786 
" style="fill:none;stroke:#781c6d;stroke-linecap:square;stroke-width:2.7;"/>
   </g>
   <g id="line2d_3">
    <path clip-path="url(#pf665e2a809)" d="M 75.356843 152.935057 
L 77.299804 152.935057 
" style="fill:none;stroke:#781c6d;stroke-linecap:square;stroke-width:2.7;"/>
   </g>
   <g id="line2d_4">
    <path clip-path="url(#pf665e2a809)" d="M 75.356843 52.734786 
L 77.299804 52.734786 
" style="fill:none;stroke:#781c6d;stroke-linecap:square;stroke-width:2.7;"/>
   </g>
   <g id="line2d_5">
    <path clip-path="url(#pf665e2a809)" d="M 95.757931 165.287732 
L 95.757931 87.588747 
" style="fill:none;stroke:#781c6d;stroke-linecap:square;stroke-width:2.7;"/>
   </g>
   <g id="line2d_6">
    <path clip-path="url(#pf665e2a809)" d="M 94.786451 165.287732 
L 96.729412 165.287732 
" style="fill:none;stroke:#781c6d;stroke-linecap:square;stroke-width:2.7;"/>
   </g>
   <g id="line2d_7">
    <path clip-path="url(#pf665e2a809)" d="M 94.786451 87.588747 
L 96.729412 87.588747 
" style="fill:none;stroke:#781c6d;stroke-linecap:square;stroke-width:2.7;"/>
   </g>
   <g id="line2d_8">
    <path clip-path="url(#pf665e2a809)" d="M 115.187539 157.144191 
L 115.187539 94.374968 
" style="fill:none;stroke:#781c6d;stroke-linecap:square;stroke-width:2.7;"/>
   </g>
   <g id="line2d_9">
    <path clip-path="url(#pf665e2a809)" d="M 114.216059 157.144191 
L 116.15902 157.144191 
" style="fill:none;stroke:#781c6d;stroke-linecap:square;stroke-width:2.7;"/>
   </g>
   <g id="line2d_10">
    <path clip-path="url(#pf665e2a809)" d="M 114.216059 94.374968 
L 116.15902 94.374968 
" style="fill:none;stroke:#781c6d;stroke-linecap:square;stroke-width:2.7;"/>
   </g>
   <g id="line2d_11">
    <path clip-path="url(#pf665e2a809)" d="M 134.617147 147.799865 
L 134.617147 90.420251 
" style="fill:none;stroke:#781c6d;stroke-linecap:square;stroke-width:2.7;"/>
   </g>
   <g id="line2d_12">
    <path clip-path="url(#pf665e2a809)" d="M 133.645667 147.799865 
L 135.588627 147.799865 
" style="fill:none;stroke:#781c6d;stroke-linecap:square;stroke-width:2.7;"/>
   </g>
   <g id="line2d_13">
    <path clip-path="url(#pf665e2a809)" d="M 133.645667 90.420251 
L 135.588627 90.420251 
" style="fill:none;stroke:#781c6d;stroke-linecap:square;stroke-width:2.7;"/>
   </g>
   <g id="line2d_14">
    <path clip-path="url(#pf665e2a809)" d="M 154.046755 139.91841 
L 154.046755 86.425815 
" style="fill:none;stroke:#781c6d;stroke-linecap:square;stroke-width:2.7;"/>
   </g>
   <g id="line2d_15">
    <path clip-path="url(#pf665e2a809)" d="M 153.075275 139.91841 
L 155.018235 139.91841 
" style="fill:none;stroke:#781c6d;stroke-linecap:square;stroke-width:2.7;"/>
   </g>
   <g id="line2d_16">
    <path clip-path="url(#pf665e2a809)" d="M 153.075275 86.425815 
L 155.018235 86.425815 
" style="fill:none;stroke:#781c6d;stroke-linecap:square;stroke-width:2.7;"/>
   </g>
   <g id="line2d_17">
    <path clip-path="url(#pf665e2a809)" d="M 173.476363 131.899278 
L 173.476363 81.222529 
" style="fill:none;stroke:#781c6d;stroke-linecap:square;stroke-width:2.7;"/>
   </g>
   <g id="line2d_18">
    <path clip-path="url(#pf665e2a809)" d="M 172.504882 131.899278 
L 174.447843 131.899278 
" style="fill:none;stroke:#781c6d;stroke-linecap:square;stroke-width:2.7;"/>
   </g>
   <g id="line2d_19">
    <path clip-path="url(#pf665e2a809)" d="M 172.504882 81.222529 
L 174.447843 81.222529 
" style="fill:none;stroke:#781c6d;stroke-linecap:square;stroke-width:2.7;"/>
   </g>
   <g id="line2d_20">
    <path clip-path="url(#pf665e2a809)" d="M 192.905971 124.139723 
L 192.905971 76.686678 
" style="fill:none;stroke:#781c6d;stroke-linecap:square;stroke-width:2.7;"/>
   </g>
   <g id="line2d_21">
    <path clip-path="url(#pf665e2a809)" d="M 191.93449 124.139723 
L 193.877451 124.139723 
" style="fill:none;stroke:#781c6d;stroke-linecap:square;stroke-width:2.7;"/>
   </g>
   <g id="line2d_22">
    <path clip-path="url(#pf665e2a809)" d="M 191.93449 76.686678 
L 193.877451 76.686678 
" style="fill:none;stroke:#781c6d;stroke-linecap:square;stroke-width:2.7;"/>
   </g>
   <g id="line2d_23">
    <path clip-path="url(#pf665e2a809)" d="M 212.335578 117.192778 
L 212.335578 72.731297 
" style="fill:none;stroke:#781c6d;stroke-linecap:square;stroke-width:2.7;"/>
   </g>
   <g id="line2d_24">
    <path clip-path="url(#pf665e2a809)" d="M 211.364098 117.192778 
L 213.307059 117.192778 
" style="fill:none;stroke:#781c6d;stroke-linecap:square;stroke-width:2.7;"/>
   </g>
   <g id="line2d_25">
    <path clip-path="url(#pf665e2a809)" d="M 211.364098 72.731297 
L 213.307059 72.731297 
" style="fill:none;stroke:#781c6d;stroke-linecap:square;stroke-width:2.7;"/>
   </g>
   <g id="line2d_26">
    <path clip-path="url(#pf665e2a809)" d="M 231.765186 111.184958 
L 231.765186 69.010473 
" style="fill:none;stroke:#781c6d;stroke-linecap:square;stroke-width:2.7;"/>
   </g>
   <g id="line2d_27">
    <path clip-path="url(#pf665e2a809)" d="M 230.793706 111.184958 
L 232.736667 111.184958 
" style="fill:none;stroke:#781c6d;stroke-linecap:square;stroke-width:2.7;"/>
   </g>
   <g id="line2d_28">
    <path clip-path="url(#pf665e2a809)" d="M 230.793706 69.010473 
L 232.736667 69.010473 
" style="fill:none;stroke:#781c6d;stroke-linecap:square;stroke-width:2.7;"/>
   </g>
   <g id="line2d_29">
    <path clip-path="url(#pf665e2a809)" d="M 251.194794 106.311909 
L 251.194794 66.04982 
" style="fill:none;stroke:#781c6d;stroke-linecap:square;stroke-width:2.7;"/>
   </g>
   <g id="line2d_30">
    <path clip-path="url(#pf665e2a809)" d="M 250.223314 106.311909 
L 252.166275 106.311909 
" style="fill:none;stroke:#781c6d;stroke-linecap:square;stroke-width:2.7;"/>
   </g>
   <g id="line2d_31">
    <path clip-path="url(#pf665e2a809)" d="M 250.223314 66.04982 
L 252.166275 66.04982 
" style="fill:none;stroke:#781c6d;stroke-linecap:square;stroke-width:2.7;"/>
   </g>
   <g id="line2d_32">
    <path clip-path="url(#pf665e2a809)" d="M 270.624402 101.281611 
L 270.624402 62.947245 
" style="fill:none;stroke:#781c6d;stroke-linecap:square;stroke-width:2.7;"/>
   </g>
   <g id="line2d_33">
    <path clip-path="url(#pf665e2a809)" d="M 269.652922 101.281611 
L 271.595882 101.281611 
" style="fill:none;stroke:#781c6d;stroke-linecap:square;stroke-width:2.7;"/>
   </g>
   <g id="line2d_34">
    <path clip-path="url(#pf665e2a809)" d="M 269.652922 62.947245 
L 271.595882 62.947245 
" style="fill:none;stroke:#781c6d;stroke-linecap:square;stroke-width:2.7;"/>
   </g>
   <g id="line2d_35">
    <path clip-path="url(#pf665e2a809)" d="M 290.05401 97.500082 
L 290.05401 60.506995 
" style="fill:none;stroke:#781c6d;stroke-linecap:square;stroke-width:2.7;"/>
   </g>
   <g id="line2d_36">
    <path clip-path="url(#pf665e2a809)" d="M 289.082529 97.500082 
L 291.02549 97.500082 
" style="fill:none;stroke:#781c6d;stroke-linecap:square;stroke-width:2.7;"/>
   </g>
   <g id="line2d_37">
    <path clip-path="url(#pf665e2a809)" d="M 289.082529 60.506995 
L 291.02549 60.506995 
" style="fill:none;stroke:#781c6d;stroke-linecap:square;stroke-width:2.7;"/>
   </g>
   <g id="line2d_38">
    <path clip-path="url(#pf665e2a809)" d="M 309.483618 93.201994 
L 309.483618 57.997913 
" style="fill:none;stroke:#781c6d;stroke-linecap:square;stroke-width:2.7;"/>
   </g>
   <g id="line2d_39">
    <path clip-path="url(#pf665e2a809)" d="M 308.512137 93.201994 
L 310.455098 93.201994 
" style="fill:none;stroke:#781c6d;stroke-linecap:square;stroke-width:2.7;"/>
   </g>
   <g id="line2d_40">
    <path clip-path="url(#pf665e2a809)" d="M 308.512137 57.997913 
L 310.455098 57.997913 
" style="fill:none;stroke:#781c6d;stroke-linecap:square;stroke-width:2.7;"/>
   </g>
   <g id="line2d_41">
    <path clip-path="url(#pf665e2a809)" d="M 328.913225 90.12003 
L 328.913225 56.109671 
" style="fill:none;stroke:#781c6d;stroke-linecap:square;stroke-width:2.7;"/>
   </g>
   <g id="line2d_42">
    <path clip-path="url(#pf665e2a809)" d="M 327.941745 90.12003 
L 329.884706 90.12003 
" style="fill:none;stroke:#781c6d;stroke-linecap:square;stroke-width:2.7;"/>
   </g>
   <g id="line2d_43">
    <path clip-path="url(#pf665e2a809)" d="M 327.941745 56.109671 
L 329.884706 56.109671 
" style="fill:none;stroke:#781c6d;stroke-linecap:square;stroke-width:2.7;"/>
   </g>
   <g id="line2d_44">
    <path clip-path="url(#pf665e2a809)" d="M 348.342833 87.384404 
L 348.342833 54.20296 
" style="fill:none;stroke:#781c6d;stroke-linecap:square;stroke-width:2.7;"/>
   </g>
   <g id="line2d_45">
    <path clip-path="url(#pf665e2a809)" d="M 347.371353 87.384404 
L 349.314314 87.384404 
" style="fill:none;stroke:#781c6d;stroke-linecap:square;stroke-width:2.7;"/>
   </g>
   <g id="line2d_46">
    <path clip-path="url(#pf665e2a809)" d="M 347.371353 54.20296 
L 349.314314 54.20296 
" style="fill:none;stroke:#781c6d;stroke-linecap:square;stroke-width:2.7;"/>
   </g>
   <g id="line2d_47">
    <path clip-path="url(#pf665e2a809)" d="M 367.772441 84.605641 
L 367.772441 52.662798 
" style="fill:none;stroke:#781c6d;stroke-linecap:square;stroke-width:2.7;"/>
   </g>
   <g id="line2d_48">
    <path clip-path="url(#pf665e2a809)" d="M 366.800961 84.605641 
L 368.743922 84.605641 
" style="fill:none;stroke:#781c6d;stroke-linecap:square;stroke-width:2.7;"/>
   </g>
   <g id="line2d_49">
    <path clip-path="url(#pf665e2a809)" d="M 366.800961 52.662798 
L 368.743922 52.662798 
" style="fill:none;stroke:#781c6d;stroke-linecap:square;stroke-width:2.7;"/>
   </g>
   <g id="line2d_50">
    <path clip-path="url(#pf665e2a809)" d="M 387.202049 81.90519 
L 387.202049 50.824068 
" style="fill:none;stroke:#781c6d;stroke-linecap:square;stroke-width:2.7;"/>
   </g>
   <g id="line2d_51">
    <path clip-path="url(#pf665e2a809)" d="M 386.230569 81.90519 
L 388.173529 81.90519 
" style="fill:none;stroke:#781c6d;stroke-linecap:square;stroke-width:2.7;"/>
   </g>
   <g id="line2d_52">
    <path clip-path="url(#pf665e2a809)" d="M 386.230569 50.824068 
L 388.173529 50.824068 
" style="fill:none;stroke:#781c6d;stroke-linecap:square;stroke-width:2.7;"/>
   </g>
   <g id="line2d_53">
    <path clip-path="url(#pf665e2a809)" d="M 406.631657 79.92743 
L 406.631657 49.406682 
" style="fill:none;stroke:#781c6d;stroke-linecap:square;stroke-width:2.7;"/>
   </g>
   <g id="line2d_54">
    <path clip-path="url(#pf665e2a809)" d="M 405.660176 79.92743 
L 407.603137 79.92743 
" style="fill:none;stroke:#781c6d;stroke-linecap:square;stroke-width:2.7;"/>
   </g>
   <g id="line2d_55">
    <path clip-path="url(#pf665e2a809)" d="M 405.660176 49.406682 
L 407.603137 49.406682 
" style="fill:none;stroke:#781c6d;stroke-linecap:square;stroke-width:2.7;"/>
   </g>
   <g id="line2d_56">
    <path clip-path="url(#pf665e2a809)" d="M 426.061265 77.539659 
L 426.061265 48.06981 
" style="fill:none;stroke:#781c6d;stroke-linecap:square;stroke-width:2.7;"/>
   </g>
   <g id="line2d_57">
    <path clip-path="url(#pf665e2a809)" d="M 425.089784 77.539659 
L 427.032745 77.539659 
" style="fill:none;stroke:#781c6d;stroke-linecap:square;stroke-width:2.7;"/>
   </g>
   <g id="line2d_58">
    <path clip-path="url(#pf665e2a809)" d="M 425.089784 48.06981 
L 427.032745 48.06981 
" style="fill:none;stroke:#781c6d;stroke-linecap:square;stroke-width:2.7;"/>
   </g>
   <g id="line2d_59">
    <path clip-path="url(#pf665e2a809)" d="M 445.490873 75.48007 
L 445.490873 46.965931 
" style="fill:none;stroke:#781c6d;stroke-linecap:square;stroke-width:2.7;"/>
   </g>
   <g id="line2d_60">
    <path clip-path="url(#pf665e2a809)" d="M 444.519392 75.48007 
L 446.462353 75.48007 
" style="fill:none;stroke:#781c6d;stroke-linecap:square;stroke-width:2.7;"/>
   </g>
   <g id="line2d_61">
    <path clip-path="url(#pf665e2a809)" d="M 444.519392 46.965931 
L 446.462353 46.965931 
" style="fill:none;stroke:#781c6d;stroke-linecap:square;stroke-width:2.7;"/>
   </g>
   <g id="line2d_62">
    <path clip-path="url(#pf665e2a809)" d="M 464.92048 73.160943 
L 464.92048 45.905665 
" style="fill:none;stroke:#781c6d;stroke-linecap:square;stroke-width:2.7;"/>
   </g>
   <g id="line2d_63">
    <path clip-path="url(#pf665e2a809)" d="M 463.949 73.160943 
L 465.891961 73.160943 
" style="fill:none;stroke:#781c6d;stroke-linecap:square;stroke-width:2.7;"/>
   </g>
   <g id="line2d_64">
    <path clip-path="url(#pf665e2a809)" d="M 463.949 45.905665 
L 465.891961 45.905665 
" style="fill:none;stroke:#781c6d;stroke-linecap:square;stroke-width:2.7;"/>
   </g>
   <g id="line2d_65">
    <path clip-path="url(#pf665e2a809)" d="M 484.350088 71.117745 
L 484.350088 44.823611 
" style="fill:none;stroke:#781c6d;stroke-linecap:square;stroke-width:2.7;"/>
   </g>
   <g id="line2d_66">
    <path clip-path="url(#pf665e2a809)" d="M 483.378608 71.117745 
L 485.321569 71.117745 
" style="fill:none;stroke:#781c6d;stroke-linecap:square;stroke-width:2.7;"/>
   </g>
   <g id="line2d_67">
    <path clip-path="url(#pf665e2a809)" d="M 483.378608 44.823611 
L 485.321569 44.823611 
" style="fill:none;stroke:#781c6d;stroke-linecap:square;stroke-width:2.7;"/>
   </g>
   <g id="line2d_68">
    <path clip-path="url(#pf665e2a809)" d="M 503.779696 69.346457 
L 503.779696 43.786097 
" style="fill:none;stroke:#781c6d;stroke-linecap:square;stroke-width:2.7;"/>
   </g>
   <g id="line2d_69">
    <path clip-path="url(#pf665e2a809)" d="M 502.808216 69.346457 
L 504.751176 69.346457 
" style="fill:none;stroke:#781c6d;stroke-linecap:square;stroke-width:2.7;"/>
   </g>
   <g id="line2d_70">
    <path clip-path="url(#pf665e2a809)" d="M 502.808216 43.786097 
L 504.751176 43.786097 
" style="fill:none;stroke:#781c6d;stroke-linecap:square;stroke-width:2.7;"/>
   </g>
   <g id="line2d_71">
    <path clip-path="url(#pf665e2a809)" d="M 523.209304 67.761517 
L 523.209304 43.098916 
" style="fill:none;stroke:#781c6d;stroke-linecap:square;stroke-width:2.7;"/>
   </g>
   <g id="line2d_72">
    <path clip-path="url(#pf665e2a809)" d="M 522.237824 67.761517 
L 524.180784 67.761517 
" style="fill:none;stroke:#781c6d;stroke-linecap:square;stroke-width:2.7;"/>
   </g>
   <g id="line2d_73">
    <path clip-path="url(#pf665e2a809)" d="M 522.237824 43.098916 
L 524.180784 43.098916 
" style="fill:none;stroke:#781c6d;stroke-linecap:square;stroke-width:2.7;"/>
   </g>
   <g id="line2d_74">
    <path clip-path="url(#pf665e2a809)" d="M 542.638912 67.730876 
L 542.638912 43.098202 
" style="fill:none;stroke:#781c6d;stroke-linecap:square;stroke-width:2.7;"/>
   </g>
   <g id="line2d_75">
    <path clip-path="url(#pf665e2a809)" d="M 541.667431 67.730876 
L 543.610392 67.730876 
" style="fill:none;stroke:#781c6d;stroke-linecap:square;stroke-width:2.7;"/>
   </g>
   <g id="line2d_76">
    <path clip-path="url(#pf665e2a809)" d="M 541.667431 43.098202 
L 543.610392 43.098202 
" style="fill:none;stroke:#781c6d;stroke-linecap:square;stroke-width:2.7;"/>
   </g>
   <g id="matplotlib.axis_1">
    <g id="xtick_1">
     <g id="line2d_77">
      <defs>
       <path d="M 0 0 
L 0 3.5 
" id="mb78449ab52" style="stroke:#000000;stroke-width:0.8;"/>
      </defs>
      <g>
       <use style="stroke:#000000;stroke-width:0.8;" x="96.729412" xlink:href="#mb78449ab52" y="238.04"/>
      </g>
     </g>
     <g id="text_1">
      <!-- 1.5 -->
      <g transform="translate(86.392381 254.917969)scale(0.13 -0.13)">
       <defs>
        <path d="M 12.40625 8.296875 
L 28.515625 8.296875 
L 28.515625 63.921875 
L 10.984375 60.40625 
L 10.984375 69.390625 
L 28.421875 72.90625 
L 38.28125 72.90625 
L 38.28125 8.296875 
L 54.390625 8.296875 
L 54.390625 0 
L 12.40625 0 
z
" id="DejaVuSans-49"/>
        <path d="M 10.6875 12.40625 
L 21 12.40625 
L 21 0 
L 10.6875 0 
z
" id="DejaVuSans-46"/>
        <path d="M 10.796875 72.90625 
L 49.515625 72.90625 
L 49.515625 64.59375 
L 19.828125 64.59375 
L 19.828125 46.734375 
Q 21.96875 47.46875 24.109375 47.828125 
Q 26.265625 48.1875 28.421875 48.1875 
Q 40.625 48.1875 47.75 41.5 
Q 54.890625 34.8125 54.890625 23.390625 
Q 54.890625 11.625 47.5625 5.09375 
Q 40.234375 -1.421875 26.90625 -1.421875 
Q 22.3125 -1.421875 17.546875 -0.640625 
Q 12.796875 0.140625 7.71875 1.703125 
L 7.71875 11.625 
Q 12.109375 9.234375 16.796875 8.0625 
Q 21.484375 6.890625 26.703125 6.890625 
Q 35.15625 6.890625 40.078125 11.328125 
Q 45.015625 15.765625 45.015625 23.390625 
Q 45.015625 31 40.078125 35.4375 
Q 35.15625 39.890625 26.703125 39.890625 
Q 22.75 39.890625 18.8125 39.015625 
Q 14.890625 38.140625 10.796875 36.28125 
z
" id="DejaVuSans-53"/>
       </defs>
       <use xlink:href="#DejaVuSans-49"/>
       <use x="63.623047" xlink:href="#DejaVuSans-46"/>
       <use x="95.410156" xlink:href="#DejaVuSans-53"/>
      </g>
     </g>
    </g>
    <g id="xtick_2">
     <g id="line2d_78">
      <g>
       <use style="stroke:#000000;stroke-width:0.8;" x="174.447843" xlink:href="#mb78449ab52" y="238.04"/>
      </g>
     </g>
     <g id="text_2">
      <!-- 3.5 -->
      <g transform="translate(164.110812 254.917969)scale(0.13 -0.13)">
       <defs>
        <path d="M 40.578125 39.3125 
Q 47.65625 37.796875 51.625 33 
Q 55.609375 28.21875 55.609375 21.1875 
Q 55.609375 10.40625 48.1875 4.484375 
Q 40.765625 -1.421875 27.09375 -1.421875 
Q 22.515625 -1.421875 17.65625 -0.515625 
Q 12.796875 0.390625 7.625 2.203125 
L 7.625 11.71875 
Q 11.71875 9.328125 16.59375 8.109375 
Q 21.484375 6.890625 26.8125 6.890625 
Q 36.078125 6.890625 40.9375 10.546875 
Q 45.796875 14.203125 45.796875 21.1875 
Q 45.796875 27.640625 41.28125 31.265625 
Q 36.765625 34.90625 28.71875 34.90625 
L 20.21875 34.90625 
L 20.21875 43.015625 
L 29.109375 43.015625 
Q 36.375 43.015625 40.234375 45.921875 
Q 44.09375 48.828125 44.09375 54.296875 
Q 44.09375 59.90625 40.109375 62.90625 
Q 36.140625 65.921875 28.71875 65.921875 
Q 24.65625 65.921875 20.015625 65.03125 
Q 15.375 64.15625 9.8125 62.3125 
L 9.8125 71.09375 
Q 15.4375 72.65625 20.34375 73.4375 
Q 25.25 74.21875 29.59375 74.21875 
Q 40.828125 74.21875 47.359375 69.109375 
Q 53.90625 64.015625 53.90625 55.328125 
Q 53.90625 49.265625 50.4375 45.09375 
Q 46.96875 40.921875 40.578125 39.3125 
z
" id="DejaVuSans-51"/>
       </defs>
       <use xlink:href="#DejaVuSans-51"/>
       <use x="63.623047" xlink:href="#DejaVuSans-46"/>
       <use x="95.410156" xlink:href="#DejaVuSans-53"/>
      </g>
     </g>
    </g>
    <g id="xtick_3">
     <g id="line2d_79">
      <g>
       <use style="stroke:#000000;stroke-width:0.8;" x="252.166275" xlink:href="#mb78449ab52" y="238.04"/>
      </g>
     </g>
     <g id="text_3">
      <!-- 5.5 -->
      <g transform="translate(241.829243 254.917969)scale(0.13 -0.13)">
       <use xlink:href="#DejaVuSans-53"/>
       <use x="63.623047" xlink:href="#DejaVuSans-46"/>
       <use x="95.410156" xlink:href="#DejaVuSans-53"/>
      </g>
     </g>
    </g>
    <g id="xtick_4">
     <g id="line2d_80">
      <g>
       <use style="stroke:#000000;stroke-width:0.8;" x="329.884706" xlink:href="#mb78449ab52" y="238.04"/>
      </g>
     </g>
     <g id="text_4">
      <!-- 7.5 -->
      <g transform="translate(319.547675 254.917969)scale(0.13 -0.13)">
       <defs>
        <path d="M 8.203125 72.90625 
L 55.078125 72.90625 
L 55.078125 68.703125 
L 28.609375 0 
L 18.3125 0 
L 43.21875 64.59375 
L 8.203125 64.59375 
z
" id="DejaVuSans-55"/>
       </defs>
       <use xlink:href="#DejaVuSans-55"/>
       <use x="63.623047" xlink:href="#DejaVuSans-46"/>
       <use x="95.410156" xlink:href="#DejaVuSans-53"/>
      </g>
     </g>
    </g>
    <g id="xtick_5">
     <g id="line2d_81">
      <g>
       <use style="stroke:#000000;stroke-width:0.8;" x="407.603137" xlink:href="#mb78449ab52" y="238.04"/>
      </g>
     </g>
     <g id="text_5">
      <!-- 9.5 -->
      <g transform="translate(397.266106 254.917969)scale(0.13 -0.13)">
       <defs>
        <path d="M 10.984375 1.515625 
L 10.984375 10.5 
Q 14.703125 8.734375 18.5 7.8125 
Q 22.3125 6.890625 25.984375 6.890625 
Q 35.75 6.890625 40.890625 13.453125 
Q 46.046875 20.015625 46.78125 33.40625 
Q 43.953125 29.203125 39.59375 26.953125 
Q 35.25 24.703125 29.984375 24.703125 
Q 19.046875 24.703125 12.671875 31.3125 
Q 6.296875 37.9375 6.296875 49.421875 
Q 6.296875 60.640625 12.9375 67.421875 
Q 19.578125 74.21875 30.609375 74.21875 
Q 43.265625 74.21875 49.921875 64.515625 
Q 56.59375 54.828125 56.59375 36.375 
Q 56.59375 19.140625 48.40625 8.859375 
Q 40.234375 -1.421875 26.421875 -1.421875 
Q 22.703125 -1.421875 18.890625 -0.6875 
Q 15.09375 0.046875 10.984375 1.515625 
z
M 30.609375 32.421875 
Q 37.25 32.421875 41.125 36.953125 
Q 45.015625 41.5 45.015625 49.421875 
Q 45.015625 57.28125 41.125 61.84375 
Q 37.25 66.40625 30.609375 66.40625 
Q 23.96875 66.40625 20.09375 61.84375 
Q 16.21875 57.28125 16.21875 49.421875 
Q 16.21875 41.5 20.09375 36.953125 
Q 23.96875 32.421875 30.609375 32.421875 
z
" id="DejaVuSans-57"/>
       </defs>
       <use xlink:href="#DejaVuSans-57"/>
       <use x="63.623047" xlink:href="#DejaVuSans-46"/>
       <use x="95.410156" xlink:href="#DejaVuSans-53"/>
      </g>
     </g>
    </g>
    <g id="xtick_6">
     <g id="line2d_82">
      <g>
       <use style="stroke:#000000;stroke-width:0.8;" x="485.321569" xlink:href="#mb78449ab52" y="238.04"/>
      </g>
     </g>
     <g id="text_6">
      <!-- 11.5 -->
      <g transform="translate(470.848912 254.917969)scale(0.13 -0.13)">
       <use xlink:href="#DejaVuSans-49"/>
       <use x="63.623047" xlink:href="#DejaVuSans-49"/>
       <use x="127.246094" xlink:href="#DejaVuSans-46"/>
       <use x="159.033203" xlink:href="#DejaVuSans-53"/>
      </g>
     </g>
    </g>
    <g id="xtick_7">
     <g id="line2d_83">
      <g>
       <use style="stroke:#000000;stroke-width:0.8;" x="563.04" xlink:href="#mb78449ab52" y="238.04"/>
      </g>
     </g>
    </g>
    <g id="text_7">
     <!-- Time -->
     <g transform="translate(300.632187 270.739688)scale(0.12 -0.12)">
      <defs>
       <path d="M -0.296875 72.90625 
L 61.375 72.90625 
L 61.375 64.59375 
L 35.5 64.59375 
L 35.5 0 
L 25.59375 0 
L 25.59375 64.59375 
L -0.296875 64.59375 
z
" id="DejaVuSans-84"/>
       <path d="M 9.421875 54.6875 
L 18.40625 54.6875 
L 18.40625 0 
L 9.421875 0 
z
M 9.421875 75.984375 
L 18.40625 75.984375 
L 18.40625 64.59375 
L 9.421875 64.59375 
z
" id="DejaVuSans-105"/>
       <path d="M 52 44.1875 
Q 55.375 50.25 60.0625 53.125 
Q 64.75 56 71.09375 56 
Q 79.640625 56 84.28125 50.015625 
Q 88.921875 44.046875 88.921875 33.015625 
L 88.921875 0 
L 79.890625 0 
L 79.890625 32.71875 
Q 79.890625 40.578125 77.09375 44.375 
Q 74.3125 48.1875 68.609375 48.1875 
Q 61.625 48.1875 57.5625 43.546875 
Q 53.515625 38.921875 53.515625 30.90625 
L 53.515625 0 
L 44.484375 0 
L 44.484375 32.71875 
Q 44.484375 40.625 41.703125 44.40625 
Q 38.921875 48.1875 33.109375 48.1875 
Q 26.21875 48.1875 22.15625 43.53125 
Q 18.109375 38.875 18.109375 30.90625 
L 18.109375 0 
L 9.078125 0 
L 9.078125 54.6875 
L 18.109375 54.6875 
L 18.109375 46.1875 
Q 21.1875 51.21875 25.484375 53.609375 
Q 29.78125 56 35.6875 56 
Q 41.65625 56 45.828125 52.96875 
Q 50 49.953125 52 44.1875 
z
" id="DejaVuSans-109"/>
       <path d="M 56.203125 29.59375 
L 56.203125 25.203125 
L 14.890625 25.203125 
Q 15.484375 15.921875 20.484375 11.0625 
Q 25.484375 6.203125 34.421875 6.203125 
Q 39.59375 6.203125 44.453125 7.46875 
Q 49.3125 8.734375 54.109375 11.28125 
L 54.109375 2.78125 
Q 49.265625 0.734375 44.1875 -0.34375 
Q 39.109375 -1.421875 33.890625 -1.421875 
Q 20.796875 -1.421875 13.15625 6.1875 
Q 5.515625 13.8125 5.515625 26.8125 
Q 5.515625 40.234375 12.765625 48.109375 
Q 20.015625 56 32.328125 56 
Q 43.359375 56 49.78125 48.890625 
Q 56.203125 41.796875 56.203125 29.59375 
z
M 47.21875 32.234375 
Q 47.125 39.59375 43.09375 43.984375 
Q 39.0625 48.390625 32.421875 48.390625 
Q 24.90625 48.390625 20.390625 44.140625 
Q 15.875 39.890625 15.1875 32.171875 
z
" id="DejaVuSans-101"/>
      </defs>
      <use xlink:href="#DejaVuSans-84"/>
      <use x="57.958984" xlink:href="#DejaVuSans-105"/>
      <use x="85.742188" xlink:href="#DejaVuSans-109"/>
      <use x="183.154297" xlink:href="#DejaVuSans-101"/>
     </g>
    </g>
   </g>
   <g id="matplotlib.axis_2">
    <g id="ytick_1">
     <g id="line2d_84">
      <defs>
       <path d="M 0 0 
L -3.5 0 
" id="mf88c2e0add" style="stroke:#000000;stroke-width:0.8;"/>
      </defs>
      <g>
       <use style="stroke:#000000;stroke-width:0.8;" x="57.585" xlink:href="#mf88c2e0add" y="228.04"/>
      </g>
     </g>
     <g id="text_8">
      <!-- 0.0 -->
      <g transform="translate(29.910937 232.978984)scale(0.13 -0.13)">
       <defs>
        <path d="M 31.78125 66.40625 
Q 24.171875 66.40625 20.328125 58.90625 
Q 16.5 51.421875 16.5 36.375 
Q 16.5 21.390625 20.328125 13.890625 
Q 24.171875 6.390625 31.78125 6.390625 
Q 39.453125 6.390625 43.28125 13.890625 
Q 47.125 21.390625 47.125 36.375 
Q 47.125 51.421875 43.28125 58.90625 
Q 39.453125 66.40625 31.78125 66.40625 
z
M 31.78125 74.21875 
Q 44.046875 74.21875 50.515625 64.515625 
Q 56.984375 54.828125 56.984375 36.375 
Q 56.984375 17.96875 50.515625 8.265625 
Q 44.046875 -1.421875 31.78125 -1.421875 
Q 19.53125 -1.421875 13.0625 8.265625 
Q 6.59375 17.96875 6.59375 36.375 
Q 6.59375 54.828125 13.0625 64.515625 
Q 19.53125 74.21875 31.78125 74.21875 
z
" id="DejaVuSans-48"/>
       </defs>
       <use xlink:href="#DejaVuSans-48"/>
       <use x="63.623047" xlink:href="#DejaVuSans-46"/>
       <use x="95.410156" xlink:href="#DejaVuSans-48"/>
      </g>
     </g>
    </g>
    <g id="ytick_2">
     <g id="line2d_85">
      <g>
       <use style="stroke:#000000;stroke-width:0.8;" x="57.585" xlink:href="#mf88c2e0add" y="186.024"/>
      </g>
     </g>
     <g id="text_9">
      <!-- 0.2 -->
      <g transform="translate(29.910937 190.962984)scale(0.13 -0.13)">
       <defs>
        <path d="M 19.1875 8.296875 
L 53.609375 8.296875 
L 53.609375 0 
L 7.328125 0 
L 7.328125 8.296875 
Q 12.9375 14.109375 22.625 23.890625 
Q 32.328125 33.6875 34.8125 36.53125 
Q 39.546875 41.84375 41.421875 45.53125 
Q 43.3125 49.21875 43.3125 52.78125 
Q 43.3125 58.59375 39.234375 62.25 
Q 35.15625 65.921875 28.609375 65.921875 
Q 23.96875 65.921875 18.8125 64.3125 
Q 13.671875 62.703125 7.8125 59.421875 
L 7.8125 69.390625 
Q 13.765625 71.78125 18.9375 73 
Q 24.125 74.21875 28.421875 74.21875 
Q 39.75 74.21875 46.484375 68.546875 
Q 53.21875 62.890625 53.21875 53.421875 
Q 53.21875 48.921875 51.53125 44.890625 
Q 49.859375 40.875 45.40625 35.40625 
Q 44.1875 33.984375 37.640625 27.21875 
Q 31.109375 20.453125 19.1875 8.296875 
z
" id="DejaVuSans-50"/>
       </defs>
       <use xlink:href="#DejaVuSans-48"/>
       <use x="63.623047" xlink:href="#DejaVuSans-46"/>
       <use x="95.410156" xlink:href="#DejaVuSans-50"/>
      </g>
     </g>
    </g>
    <g id="ytick_3">
     <g id="line2d_86">
      <g>
       <use style="stroke:#000000;stroke-width:0.8;" x="57.585" xlink:href="#mf88c2e0add" y="144.008"/>
      </g>
     </g>
     <g id="text_10">
      <!-- 0.4 -->
      <g transform="translate(29.910937 148.946984)scale(0.13 -0.13)">
       <defs>
        <path d="M 37.796875 64.3125 
L 12.890625 25.390625 
L 37.796875 25.390625 
z
M 35.203125 72.90625 
L 47.609375 72.90625 
L 47.609375 25.390625 
L 58.015625 25.390625 
L 58.015625 17.1875 
L 47.609375 17.1875 
L 47.609375 0 
L 37.796875 0 
L 37.796875 17.1875 
L 4.890625 17.1875 
L 4.890625 26.703125 
z
" id="DejaVuSans-52"/>
       </defs>
       <use xlink:href="#DejaVuSans-48"/>
       <use x="63.623047" xlink:href="#DejaVuSans-46"/>
       <use x="95.410156" xlink:href="#DejaVuSans-52"/>
      </g>
     </g>
    </g>
    <g id="ytick_4">
     <g id="line2d_87">
      <g>
       <use style="stroke:#000000;stroke-width:0.8;" x="57.585" xlink:href="#mf88c2e0add" y="101.992"/>
      </g>
     </g>
     <g id="text_11">
      <!-- 0.6 -->
      <g transform="translate(29.910937 106.930984)scale(0.13 -0.13)">
       <defs>
        <path d="M 33.015625 40.375 
Q 26.375 40.375 22.484375 35.828125 
Q 18.609375 31.296875 18.609375 23.390625 
Q 18.609375 15.53125 22.484375 10.953125 
Q 26.375 6.390625 33.015625 6.390625 
Q 39.65625 6.390625 43.53125 10.953125 
Q 47.40625 15.53125 47.40625 23.390625 
Q 47.40625 31.296875 43.53125 35.828125 
Q 39.65625 40.375 33.015625 40.375 
z
M 52.59375 71.296875 
L 52.59375 62.3125 
Q 48.875 64.0625 45.09375 64.984375 
Q 41.3125 65.921875 37.59375 65.921875 
Q 27.828125 65.921875 22.671875 59.328125 
Q 17.53125 52.734375 16.796875 39.40625 
Q 19.671875 43.65625 24.015625 45.921875 
Q 28.375 48.1875 33.59375 48.1875 
Q 44.578125 48.1875 50.953125 41.515625 
Q 57.328125 34.859375 57.328125 23.390625 
Q 57.328125 12.15625 50.6875 5.359375 
Q 44.046875 -1.421875 33.015625 -1.421875 
Q 20.359375 -1.421875 13.671875 8.265625 
Q 6.984375 17.96875 6.984375 36.375 
Q 6.984375 53.65625 15.1875 63.9375 
Q 23.390625 74.21875 37.203125 74.21875 
Q 40.921875 74.21875 44.703125 73.484375 
Q 48.484375 72.75 52.59375 71.296875 
z
" id="DejaVuSans-54"/>
       </defs>
       <use xlink:href="#DejaVuSans-48"/>
       <use x="63.623047" xlink:href="#DejaVuSans-46"/>
       <use x="95.410156" xlink:href="#DejaVuSans-54"/>
      </g>
     </g>
    </g>
    <g id="ytick_5">
     <g id="line2d_88">
      <g>
       <use style="stroke:#000000;stroke-width:0.8;" x="57.585" xlink:href="#mf88c2e0add" y="59.976"/>
      </g>
     </g>
     <g id="text_12">
      <!-- 0.8 -->
      <g transform="translate(29.910937 64.914984)scale(0.13 -0.13)">
       <defs>
        <path d="M 31.78125 34.625 
Q 24.75 34.625 20.71875 30.859375 
Q 16.703125 27.09375 16.703125 20.515625 
Q 16.703125 13.921875 20.71875 10.15625 
Q 24.75 6.390625 31.78125 6.390625 
Q 38.8125 6.390625 42.859375 10.171875 
Q 46.921875 13.96875 46.921875 20.515625 
Q 46.921875 27.09375 42.890625 30.859375 
Q 38.875 34.625 31.78125 34.625 
z
M 21.921875 38.8125 
Q 15.578125 40.375 12.03125 44.71875 
Q 8.5 49.078125 8.5 55.328125 
Q 8.5 64.0625 14.71875 69.140625 
Q 20.953125 74.21875 31.78125 74.21875 
Q 42.671875 74.21875 48.875 69.140625 
Q 55.078125 64.0625 55.078125 55.328125 
Q 55.078125 49.078125 51.53125 44.71875 
Q 48 40.375 41.703125 38.8125 
Q 48.828125 37.15625 52.796875 32.3125 
Q 56.78125 27.484375 56.78125 20.515625 
Q 56.78125 9.90625 50.3125 4.234375 
Q 43.84375 -1.421875 31.78125 -1.421875 
Q 19.734375 -1.421875 13.25 4.234375 
Q 6.78125 9.90625 6.78125 20.515625 
Q 6.78125 27.484375 10.78125 32.3125 
Q 14.796875 37.15625 21.921875 38.8125 
z
M 18.3125 54.390625 
Q 18.3125 48.734375 21.84375 45.5625 
Q 25.390625 42.390625 31.78125 42.390625 
Q 38.140625 42.390625 41.71875 45.5625 
Q 45.3125 48.734375 45.3125 54.390625 
Q 45.3125 60.0625 41.71875 63.234375 
Q 38.140625 66.40625 31.78125 66.40625 
Q 25.390625 66.40625 21.84375 63.234375 
Q 18.3125 60.0625 18.3125 54.390625 
z
" id="DejaVuSans-56"/>
       </defs>
       <use xlink:href="#DejaVuSans-48"/>
       <use x="63.623047" xlink:href="#DejaVuSans-46"/>
       <use x="95.410156" xlink:href="#DejaVuSans-56"/>
      </g>
     </g>
    </g>
    <g id="ytick_6">
     <g id="line2d_89">
      <g>
       <use style="stroke:#000000;stroke-width:0.8;" x="57.585" xlink:href="#mf88c2e0add" y="17.96"/>
      </g>
     </g>
     <g id="text_13">
      <!-- 1.0 -->
      <g transform="translate(29.910937 22.898984)scale(0.13 -0.13)">
       <use xlink:href="#DejaVuSans-49"/>
       <use x="63.623047" xlink:href="#DejaVuSans-46"/>
       <use x="95.410156" xlink:href="#DejaVuSans-48"/>
      </g>
     </g>
    </g>
    <g id="text_14">
     <!-- Correlation -->
     <g transform="translate(23.415312 156.0825)rotate(-90)scale(0.12 -0.12)">
      <defs>
       <path d="M 64.40625 67.28125 
L 64.40625 56.890625 
Q 59.421875 61.53125 53.78125 63.8125 
Q 48.140625 66.109375 41.796875 66.109375 
Q 29.296875 66.109375 22.65625 58.46875 
Q 16.015625 50.828125 16.015625 36.375 
Q 16.015625 21.96875 22.65625 14.328125 
Q 29.296875 6.6875 41.796875 6.6875 
Q 48.140625 6.6875 53.78125 8.984375 
Q 59.421875 11.28125 64.40625 15.921875 
L 64.40625 5.609375 
Q 59.234375 2.09375 53.4375 0.328125 
Q 47.65625 -1.421875 41.21875 -1.421875 
Q 24.65625 -1.421875 15.125 8.703125 
Q 5.609375 18.84375 5.609375 36.375 
Q 5.609375 53.953125 15.125 64.078125 
Q 24.65625 74.21875 41.21875 74.21875 
Q 47.75 74.21875 53.53125 72.484375 
Q 59.328125 70.75 64.40625 67.28125 
z
" id="DejaVuSans-67"/>
       <path d="M 30.609375 48.390625 
Q 23.390625 48.390625 19.1875 42.75 
Q 14.984375 37.109375 14.984375 27.296875 
Q 14.984375 17.484375 19.15625 11.84375 
Q 23.34375 6.203125 30.609375 6.203125 
Q 37.796875 6.203125 41.984375 11.859375 
Q 46.1875 17.53125 46.1875 27.296875 
Q 46.1875 37.015625 41.984375 42.703125 
Q 37.796875 48.390625 30.609375 48.390625 
z
M 30.609375 56 
Q 42.328125 56 49.015625 48.375 
Q 55.71875 40.765625 55.71875 27.296875 
Q 55.71875 13.875 49.015625 6.21875 
Q 42.328125 -1.421875 30.609375 -1.421875 
Q 18.84375 -1.421875 12.171875 6.21875 
Q 5.515625 13.875 5.515625 27.296875 
Q 5.515625 40.765625 12.171875 48.375 
Q 18.84375 56 30.609375 56 
z
" id="DejaVuSans-111"/>
       <path d="M 41.109375 46.296875 
Q 39.59375 47.171875 37.8125 47.578125 
Q 36.03125 48 33.890625 48 
Q 26.265625 48 22.1875 43.046875 
Q 18.109375 38.09375 18.109375 28.8125 
L 18.109375 0 
L 9.078125 0 
L 9.078125 54.6875 
L 18.109375 54.6875 
L 18.109375 46.1875 
Q 20.953125 51.171875 25.484375 53.578125 
Q 30.03125 56 36.53125 56 
Q 37.453125 56 38.578125 55.875 
Q 39.703125 55.765625 41.0625 55.515625 
z
" id="DejaVuSans-114"/>
       <path d="M 9.421875 75.984375 
L 18.40625 75.984375 
L 18.40625 0 
L 9.421875 0 
z
" id="DejaVuSans-108"/>
       <path d="M 34.28125 27.484375 
Q 23.390625 27.484375 19.1875 25 
Q 14.984375 22.515625 14.984375 16.5 
Q 14.984375 11.71875 18.140625 8.90625 
Q 21.296875 6.109375 26.703125 6.109375 
Q 34.1875 6.109375 38.703125 11.40625 
Q 43.21875 16.703125 43.21875 25.484375 
L 43.21875 27.484375 
z
M 52.203125 31.203125 
L 52.203125 0 
L 43.21875 0 
L 43.21875 8.296875 
Q 40.140625 3.328125 35.546875 0.953125 
Q 30.953125 -1.421875 24.3125 -1.421875 
Q 15.921875 -1.421875 10.953125 3.296875 
Q 6 8.015625 6 15.921875 
Q 6 25.140625 12.171875 29.828125 
Q 18.359375 34.515625 30.609375 34.515625 
L 43.21875 34.515625 
L 43.21875 35.40625 
Q 43.21875 41.609375 39.140625 45 
Q 35.0625 48.390625 27.6875 48.390625 
Q 23 48.390625 18.546875 47.265625 
Q 14.109375 46.140625 10.015625 43.890625 
L 10.015625 52.203125 
Q 14.9375 54.109375 19.578125 55.046875 
Q 24.21875 56 28.609375 56 
Q 40.484375 56 46.34375 49.84375 
Q 52.203125 43.703125 52.203125 31.203125 
z
" id="DejaVuSans-97"/>
       <path d="M 18.3125 70.21875 
L 18.3125 54.6875 
L 36.8125 54.6875 
L 36.8125 47.703125 
L 18.3125 47.703125 
L 18.3125 18.015625 
Q 18.3125 11.328125 20.140625 9.421875 
Q 21.96875 7.515625 27.59375 7.515625 
L 36.8125 7.515625 
L 36.8125 0 
L 27.59375 0 
Q 17.1875 0 13.234375 3.875 
Q 9.28125 7.765625 9.28125 18.015625 
L 9.28125 47.703125 
L 2.6875 47.703125 
L 2.6875 54.6875 
L 9.28125 54.6875 
L 9.28125 70.21875 
z
" id="DejaVuSans-116"/>
       <path d="M 54.890625 33.015625 
L 54.890625 0 
L 45.90625 0 
L 45.90625 32.71875 
Q 45.90625 40.484375 42.875 44.328125 
Q 39.84375 48.1875 33.796875 48.1875 
Q 26.515625 48.1875 22.3125 43.546875 
Q 18.109375 38.921875 18.109375 30.90625 
L 18.109375 0 
L 9.078125 0 
L 9.078125 54.6875 
L 18.109375 54.6875 
L 18.109375 46.1875 
Q 21.34375 51.125 25.703125 53.5625 
Q 30.078125 56 35.796875 56 
Q 45.21875 56 50.046875 50.171875 
Q 54.890625 44.34375 54.890625 33.015625 
z
" id="DejaVuSans-110"/>
      </defs>
      <use xlink:href="#DejaVuSans-67"/>
      <use x="69.824219" xlink:href="#DejaVuSans-111"/>
      <use x="131.005859" xlink:href="#DejaVuSans-114"/>
      <use x="170.369141" xlink:href="#DejaVuSans-114"/>
      <use x="209.232422" xlink:href="#DejaVuSans-101"/>
      <use x="270.755859" xlink:href="#DejaVuSans-108"/>
      <use x="298.539062" xlink:href="#DejaVuSans-97"/>
      <use x="359.818359" xlink:href="#DejaVuSans-116"/>
      <use x="399.027344" xlink:href="#DejaVuSans-105"/>
      <use x="426.810547" xlink:href="#DejaVuSans-111"/>
      <use x="487.992188" xlink:href="#DejaVuSans-110"/>
     </g>
    </g>
   </g>
   <g id="PathCollection_2">
    <defs>
     <path d="M 0 3.383948 
C 0.897434 3.383948 1.758231 3.027394 2.392813 2.392813 
C 3.027394 1.758231 3.383948 0.897434 3.383948 0 
C 3.383948 -0.897434 3.027394 -1.758231 2.392813 -2.392813 
C 1.758231 -3.027394 0.897434 -3.383948 0 -3.383948 
C -0.897434 -3.383948 -1.758231 -3.027394 -2.392813 -2.392813 
C -3.027394 -1.758231 -3.383948 -0.897434 -3.383948 0 
C -3.383948 0.897434 -3.027394 1.758231 -2.392813 2.392813 
C -1.758231 3.027394 -0.897434 3.383948 0 3.383948 
z
" id="mc706ae95ad" style="stroke:#ed6925;stroke-width:2.025;"/>
    </defs>
    <g clip-path="url(#pf665e2a809)">
     <use style="fill:#ed6925;stroke:#ed6925;stroke-width:2.025;" x="78.271284" xlink:href="#mc706ae95ad" y="200.52663"/>
     <use style="fill:#ed6925;stroke:#ed6925;stroke-width:2.025;" x="97.700892" xlink:href="#mc706ae95ad" y="179.787125"/>
     <use style="fill:#ed6925;stroke:#ed6925;stroke-width:2.025;" x="117.1305" xlink:href="#mc706ae95ad" y="164.215677"/>
     <use style="fill:#ed6925;stroke:#ed6925;stroke-width:2.025;" x="136.560108" xlink:href="#mc706ae95ad" y="150.11352"/>
     <use style="fill:#ed6925;stroke:#ed6925;stroke-width:2.025;" x="155.989716" xlink:href="#mc706ae95ad" y="139.604709"/>
     <use style="fill:#ed6925;stroke:#ed6925;stroke-width:2.025;" x="175.419324" xlink:href="#mc706ae95ad" y="131.568523"/>
     <use style="fill:#ed6925;stroke:#ed6925;stroke-width:2.025;" x="194.848931" xlink:href="#mc706ae95ad" y="123.439519"/>
     <use style="fill:#ed6925;stroke:#ed6925;stroke-width:2.025;" x="214.278539" xlink:href="#mc706ae95ad" y="116.947027"/>
     <use style="fill:#ed6925;stroke:#ed6925;stroke-width:2.025;" x="233.708147" xlink:href="#mc706ae95ad" y="111.645233"/>
     <use style="fill:#ed6925;stroke:#ed6925;stroke-width:2.025;" x="253.137755" xlink:href="#mc706ae95ad" y="107.299248"/>
     <use style="fill:#ed6925;stroke:#ed6925;stroke-width:2.025;" x="272.567363" xlink:href="#mc706ae95ad" y="103.211751"/>
     <use style="fill:#ed6925;stroke:#ed6925;stroke-width:2.025;" x="291.996971" xlink:href="#mc706ae95ad" y="99.649164"/>
     <use style="fill:#ed6925;stroke:#ed6925;stroke-width:2.025;" x="311.426578" xlink:href="#mc706ae95ad" y="96.352051"/>
     <use style="fill:#ed6925;stroke:#ed6925;stroke-width:2.025;" x="330.856186" xlink:href="#mc706ae95ad" y="93.668792"/>
     <use style="fill:#ed6925;stroke:#ed6925;stroke-width:2.025;" x="350.285794" xlink:href="#mc706ae95ad" y="91.460132"/>
     <use style="fill:#ed6925;stroke:#ed6925;stroke-width:2.025;" x="369.715402" xlink:href="#mc706ae95ad" y="89.113958"/>
     <use style="fill:#ed6925;stroke:#ed6925;stroke-width:2.025;" x="389.14501" xlink:href="#mc706ae95ad" y="86.765555"/>
     <use style="fill:#ed6925;stroke:#ed6925;stroke-width:2.025;" x="408.574618" xlink:href="#mc706ae95ad" y="84.821679"/>
     <use style="fill:#ed6925;stroke:#ed6925;stroke-width:2.025;" x="428.004225" xlink:href="#mc706ae95ad" y="83.177411"/>
     <use style="fill:#ed6925;stroke:#ed6925;stroke-width:2.025;" x="447.433833" xlink:href="#mc706ae95ad" y="81.597781"/>
     <use style="fill:#ed6925;stroke:#ed6925;stroke-width:2.025;" x="466.863441" xlink:href="#mc706ae95ad" y="80.072545"/>
     <use style="fill:#ed6925;stroke:#ed6925;stroke-width:2.025;" x="486.293049" xlink:href="#mc706ae95ad" y="78.773214"/>
     <use style="fill:#ed6925;stroke:#ed6925;stroke-width:2.025;" x="505.722657" xlink:href="#mc706ae95ad" y="77.249217"/>
     <use style="fill:#ed6925;stroke:#ed6925;stroke-width:2.025;" x="525.152265" xlink:href="#mc706ae95ad" y="75.900801"/>
     <use style="fill:#ed6925;stroke:#ed6925;stroke-width:2.025;" x="544.581873" xlink:href="#mc706ae95ad" y="75.886551"/>
    </g>
   </g>
   <g id="line2d_90">
    <path clip-path="url(#pf665e2a809)" d="M 78.271284 200.52663 
L 97.700892 179.787125 
L 117.1305 164.215677 
L 136.560108 150.11352 
L 155.989716 139.604709 
L 175.419324 131.568523 
L 194.848931 123.439519 
L 214.278539 116.947027 
L 233.708147 111.645233 
L 253.137755 107.299248 
L 272.567363 103.211751 
L 291.996971 99.649164 
L 311.426578 96.352051 
L 330.856186 93.668792 
L 350.285794 91.460132 
L 369.715402 89.113958 
L 389.14501 86.765555 
L 408.574618 84.821679 
L 428.004225 83.177411 
L 447.433833 81.597781 
L 466.863441 80.072545 
L 486.293049 78.773214 
L 505.722657 77.249217 
L 525.152265 75.900801 
L 544.581873 75.886551 
" style="fill:none;stroke:#ed6925;stroke-linecap:square;stroke-width:2.7;"/>
   </g>
   <g id="line2d_91">
    <path clip-path="url(#pf665e2a809)" d="M 78.271284 232.421349 
L 78.271284 168.631914 
" style="fill:none;stroke:#ed6925;stroke-linecap:square;stroke-width:2.7;"/>
   </g>
   <g id="line2d_92">
    <path clip-path="url(#pf665e2a809)" d="M 77.299804 232.421349 
L 79.242765 232.421349 
" style="fill:none;stroke:#ed6925;stroke-linecap:square;stroke-width:2.7;"/>
   </g>
   <g id="line2d_93">
    <path clip-path="url(#pf665e2a809)" d="M 77.299804 168.631914 
L 79.242765 168.631914 
" style="fill:none;stroke:#ed6925;stroke-linecap:square;stroke-width:2.7;"/>
   </g>
   <g id="line2d_94">
    <path clip-path="url(#pf665e2a809)" d="M 97.700892 208.686916 
L 97.700892 150.887338 
" style="fill:none;stroke:#ed6925;stroke-linecap:square;stroke-width:2.7;"/>
   </g>
   <g id="line2d_95">
    <path clip-path="url(#pf665e2a809)" d="M 96.729412 208.686916 
L 98.672373 208.686916 
" style="fill:none;stroke:#ed6925;stroke-linecap:square;stroke-width:2.7;"/>
   </g>
   <g id="line2d_96">
    <path clip-path="url(#pf665e2a809)" d="M 96.729412 150.887338 
L 98.672373 150.887338 
" style="fill:none;stroke:#ed6925;stroke-linecap:square;stroke-width:2.7;"/>
   </g>
   <g id="line2d_97">
    <path clip-path="url(#pf665e2a809)" d="M 117.1305 192.961502 
L 117.1305 135.469854 
" style="fill:none;stroke:#ed6925;stroke-linecap:square;stroke-width:2.7;"/>
   </g>
   <g id="line2d_98">
    <path clip-path="url(#pf665e2a809)" d="M 116.15902 192.961502 
L 118.10198 192.961502 
" style="fill:none;stroke:#ed6925;stroke-linecap:square;stroke-width:2.7;"/>
   </g>
   <g id="line2d_99">
    <path clip-path="url(#pf665e2a809)" d="M 116.15902 135.469854 
L 118.10198 135.469854 
" style="fill:none;stroke:#ed6925;stroke-linecap:square;stroke-width:2.7;"/>
   </g>
   <g id="line2d_100">
    <path clip-path="url(#pf665e2a809)" d="M 136.560108 177.459825 
L 136.560108 122.767221 
" style="fill:none;stroke:#ed6925;stroke-linecap:square;stroke-width:2.7;"/>
   </g>
   <g id="line2d_101">
    <path clip-path="url(#pf665e2a809)" d="M 135.588627 177.459825 
L 137.531588 177.459825 
" style="fill:none;stroke:#ed6925;stroke-linecap:square;stroke-width:2.7;"/>
   </g>
   <g id="line2d_102">
    <path clip-path="url(#pf665e2a809)" d="M 135.588627 122.767221 
L 137.531588 122.767221 
" style="fill:none;stroke:#ed6925;stroke-linecap:square;stroke-width:2.7;"/>
   </g>
   <g id="line2d_103">
    <path clip-path="url(#pf665e2a809)" d="M 155.989716 165.398731 
L 155.989716 113.810693 
" style="fill:none;stroke:#ed6925;stroke-linecap:square;stroke-width:2.7;"/>
   </g>
   <g id="line2d_104">
    <path clip-path="url(#pf665e2a809)" d="M 155.018235 165.398731 
L 156.961196 165.398731 
" style="fill:none;stroke:#ed6925;stroke-linecap:square;stroke-width:2.7;"/>
   </g>
   <g id="line2d_105">
    <path clip-path="url(#pf665e2a809)" d="M 155.018235 113.810693 
L 156.961196 113.810693 
" style="fill:none;stroke:#ed6925;stroke-linecap:square;stroke-width:2.7;"/>
   </g>
   <g id="line2d_106">
    <path clip-path="url(#pf665e2a809)" d="M 175.419324 156.700389 
L 175.419324 106.436663 
" style="fill:none;stroke:#ed6925;stroke-linecap:square;stroke-width:2.7;"/>
   </g>
   <g id="line2d_107">
    <path clip-path="url(#pf665e2a809)" d="M 174.447843 156.700389 
L 176.390804 156.700389 
" style="fill:none;stroke:#ed6925;stroke-linecap:square;stroke-width:2.7;"/>
   </g>
   <g id="line2d_108">
    <path clip-path="url(#pf665e2a809)" d="M 174.447843 106.436663 
L 176.390804 106.436663 
" style="fill:none;stroke:#ed6925;stroke-linecap:square;stroke-width:2.7;"/>
   </g>
   <g id="line2d_109">
    <path clip-path="url(#pf665e2a809)" d="M 194.848931 147.249315 
L 194.848931 99.62973 
" style="fill:none;stroke:#ed6925;stroke-linecap:square;stroke-width:2.7;"/>
   </g>
   <g id="line2d_110">
    <path clip-path="url(#pf665e2a809)" d="M 193.877451 147.249315 
L 195.820412 147.249315 
" style="fill:none;stroke:#ed6925;stroke-linecap:square;stroke-width:2.7;"/>
   </g>
   <g id="line2d_111">
    <path clip-path="url(#pf665e2a809)" d="M 193.877451 99.62973 
L 195.820412 99.62973 
" style="fill:none;stroke:#ed6925;stroke-linecap:square;stroke-width:2.7;"/>
   </g>
   <g id="line2d_112">
    <path clip-path="url(#pf665e2a809)" d="M 214.278539 139.880738 
L 214.278539 94.013315 
" style="fill:none;stroke:#ed6925;stroke-linecap:square;stroke-width:2.7;"/>
   </g>
   <g id="line2d_113">
    <path clip-path="url(#pf665e2a809)" d="M 213.307059 139.880738 
L 215.25002 139.880738 
" style="fill:none;stroke:#ed6925;stroke-linecap:square;stroke-width:2.7;"/>
   </g>
   <g id="line2d_114">
    <path clip-path="url(#pf665e2a809)" d="M 213.307059 94.013315 
L 215.25002 94.013315 
" style="fill:none;stroke:#ed6925;stroke-linecap:square;stroke-width:2.7;"/>
   </g>
   <g id="line2d_115">
    <path clip-path="url(#pf665e2a809)" d="M 233.708147 133.666122 
L 233.708147 89.624344 
" style="fill:none;stroke:#ed6925;stroke-linecap:square;stroke-width:2.7;"/>
   </g>
   <g id="line2d_116">
    <path clip-path="url(#pf665e2a809)" d="M 232.736667 133.666122 
L 234.679627 133.666122 
" style="fill:none;stroke:#ed6925;stroke-linecap:square;stroke-width:2.7;"/>
   </g>
   <g id="line2d_117">
    <path clip-path="url(#pf665e2a809)" d="M 232.736667 89.624344 
L 234.679627 89.624344 
" style="fill:none;stroke:#ed6925;stroke-linecap:square;stroke-width:2.7;"/>
   </g>
   <g id="line2d_118">
    <path clip-path="url(#pf665e2a809)" d="M 253.137755 128.777864 
L 253.137755 85.820639 
" style="fill:none;stroke:#ed6925;stroke-linecap:square;stroke-width:2.7;"/>
   </g>
   <g id="line2d_119">
    <path clip-path="url(#pf665e2a809)" d="M 252.166275 128.777864 
L 254.109235 128.777864 
" style="fill:none;stroke:#ed6925;stroke-linecap:square;stroke-width:2.7;"/>
   </g>
   <g id="line2d_120">
    <path clip-path="url(#pf665e2a809)" d="M 252.166275 85.820639 
L 254.109235 85.820639 
" style="fill:none;stroke:#ed6925;stroke-linecap:square;stroke-width:2.7;"/>
   </g>
   <g id="line2d_121">
    <path clip-path="url(#pf665e2a809)" d="M 272.567363 124.114711 
L 272.567363 82.30879 
" style="fill:none;stroke:#ed6925;stroke-linecap:square;stroke-width:2.7;"/>
   </g>
   <g id="line2d_122">
    <path clip-path="url(#pf665e2a809)" d="M 271.595882 124.114711 
L 273.538843 124.114711 
" style="fill:none;stroke:#ed6925;stroke-linecap:square;stroke-width:2.7;"/>
   </g>
   <g id="line2d_123">
    <path clip-path="url(#pf665e2a809)" d="M 271.595882 82.30879 
L 273.538843 82.30879 
" style="fill:none;stroke:#ed6925;stroke-linecap:square;stroke-width:2.7;"/>
   </g>
   <g id="line2d_124">
    <path clip-path="url(#pf665e2a809)" d="M 291.996971 119.940475 
L 291.996971 79.357854 
" style="fill:none;stroke:#ed6925;stroke-linecap:square;stroke-width:2.7;"/>
   </g>
   <g id="line2d_125">
    <path clip-path="url(#pf665e2a809)" d="M 291.02549 119.940475 
L 292.968451 119.940475 
" style="fill:none;stroke:#ed6925;stroke-linecap:square;stroke-width:2.7;"/>
   </g>
   <g id="line2d_126">
    <path clip-path="url(#pf665e2a809)" d="M 291.02549 79.357854 
L 292.968451 79.357854 
" style="fill:none;stroke:#ed6925;stroke-linecap:square;stroke-width:2.7;"/>
   </g>
   <g id="line2d_127">
    <path clip-path="url(#pf665e2a809)" d="M 311.426578 115.837312 
L 311.426578 76.866791 
" style="fill:none;stroke:#ed6925;stroke-linecap:square;stroke-width:2.7;"/>
   </g>
   <g id="line2d_128">
    <path clip-path="url(#pf665e2a809)" d="M 310.455098 115.837312 
L 312.398059 115.837312 
" style="fill:none;stroke:#ed6925;stroke-linecap:square;stroke-width:2.7;"/>
   </g>
   <g id="line2d_129">
    <path clip-path="url(#pf665e2a809)" d="M 310.455098 76.866791 
L 312.398059 76.866791 
" style="fill:none;stroke:#ed6925;stroke-linecap:square;stroke-width:2.7;"/>
   </g>
   <g id="line2d_130">
    <path clip-path="url(#pf665e2a809)" d="M 330.856186 112.738782 
L 330.856186 74.598802 
" style="fill:none;stroke:#ed6925;stroke-linecap:square;stroke-width:2.7;"/>
   </g>
   <g id="line2d_131">
    <path clip-path="url(#pf665e2a809)" d="M 329.884706 112.738782 
L 331.827667 112.738782 
" style="fill:none;stroke:#ed6925;stroke-linecap:square;stroke-width:2.7;"/>
   </g>
   <g id="line2d_132">
    <path clip-path="url(#pf665e2a809)" d="M 329.884706 74.598802 
L 331.827667 74.598802 
" style="fill:none;stroke:#ed6925;stroke-linecap:square;stroke-width:2.7;"/>
   </g>
   <g id="line2d_133">
    <path clip-path="url(#pf665e2a809)" d="M 350.285794 110.165864 
L 350.285794 72.754399 
" style="fill:none;stroke:#ed6925;stroke-linecap:square;stroke-width:2.7;"/>
   </g>
   <g id="line2d_134">
    <path clip-path="url(#pf665e2a809)" d="M 349.314314 110.165864 
L 351.257275 110.165864 
" style="fill:none;stroke:#ed6925;stroke-linecap:square;stroke-width:2.7;"/>
   </g>
   <g id="line2d_135">
    <path clip-path="url(#pf665e2a809)" d="M 349.314314 72.754399 
L 351.257275 72.754399 
" style="fill:none;stroke:#ed6925;stroke-linecap:square;stroke-width:2.7;"/>
   </g>
   <g id="line2d_136">
    <path clip-path="url(#pf665e2a809)" d="M 369.715402 107.473651 
L 369.715402 70.754264 
" style="fill:none;stroke:#ed6925;stroke-linecap:square;stroke-width:2.7;"/>
   </g>
   <g id="line2d_137">
    <path clip-path="url(#pf665e2a809)" d="M 368.743922 107.473651 
L 370.686882 107.473651 
" style="fill:none;stroke:#ed6925;stroke-linecap:square;stroke-width:2.7;"/>
   </g>
   <g id="line2d_138">
    <path clip-path="url(#pf665e2a809)" d="M 368.743922 70.754264 
L 370.686882 70.754264 
" style="fill:none;stroke:#ed6925;stroke-linecap:square;stroke-width:2.7;"/>
   </g>
   <g id="line2d_139">
    <path clip-path="url(#pf665e2a809)" d="M 389.14501 104.790442 
L 389.14501 68.740667 
" style="fill:none;stroke:#ed6925;stroke-linecap:square;stroke-width:2.7;"/>
   </g>
   <g id="line2d_140">
    <path clip-path="url(#pf665e2a809)" d="M 388.173529 104.790442 
L 390.11649 104.790442 
" style="fill:none;stroke:#ed6925;stroke-linecap:square;stroke-width:2.7;"/>
   </g>
   <g id="line2d_141">
    <path clip-path="url(#pf665e2a809)" d="M 388.173529 68.740667 
L 390.11649 68.740667 
" style="fill:none;stroke:#ed6925;stroke-linecap:square;stroke-width:2.7;"/>
   </g>
   <g id="line2d_142">
    <path clip-path="url(#pf665e2a809)" d="M 408.574618 102.559756 
L 408.574618 67.083602 
" style="fill:none;stroke:#ed6925;stroke-linecap:square;stroke-width:2.7;"/>
   </g>
   <g id="line2d_143">
    <path clip-path="url(#pf665e2a809)" d="M 407.603137 102.559756 
L 409.546098 102.559756 
" style="fill:none;stroke:#ed6925;stroke-linecap:square;stroke-width:2.7;"/>
   </g>
   <g id="line2d_144">
    <path clip-path="url(#pf665e2a809)" d="M 407.603137 67.083602 
L 409.546098 67.083602 
" style="fill:none;stroke:#ed6925;stroke-linecap:square;stroke-width:2.7;"/>
   </g>
   <g id="line2d_145">
    <path clip-path="url(#pf665e2a809)" d="M 428.004225 100.54393 
L 428.004225 65.810892 
" style="fill:none;stroke:#ed6925;stroke-linecap:square;stroke-width:2.7;"/>
   </g>
   <g id="line2d_146">
    <path clip-path="url(#pf665e2a809)" d="M 427.032745 100.54393 
L 428.975706 100.54393 
" style="fill:none;stroke:#ed6925;stroke-linecap:square;stroke-width:2.7;"/>
   </g>
   <g id="line2d_147">
    <path clip-path="url(#pf665e2a809)" d="M 427.032745 65.810892 
L 428.975706 65.810892 
" style="fill:none;stroke:#ed6925;stroke-linecap:square;stroke-width:2.7;"/>
   </g>
   <g id="line2d_148">
    <path clip-path="url(#pf665e2a809)" d="M 447.433833 98.479721 
L 447.433833 64.715841 
" style="fill:none;stroke:#ed6925;stroke-linecap:square;stroke-width:2.7;"/>
   </g>
   <g id="line2d_149">
    <path clip-path="url(#pf665e2a809)" d="M 446.462353 98.479721 
L 448.405314 98.479721 
" style="fill:none;stroke:#ed6925;stroke-linecap:square;stroke-width:2.7;"/>
   </g>
   <g id="line2d_150">
    <path clip-path="url(#pf665e2a809)" d="M 446.462353 64.715841 
L 448.405314 64.715841 
" style="fill:none;stroke:#ed6925;stroke-linecap:square;stroke-width:2.7;"/>
   </g>
   <g id="line2d_151">
    <path clip-path="url(#pf665e2a809)" d="M 466.863441 96.442709 
L 466.863441 63.702381 
" style="fill:none;stroke:#ed6925;stroke-linecap:square;stroke-width:2.7;"/>
   </g>
   <g id="line2d_152">
    <path clip-path="url(#pf665e2a809)" d="M 465.891961 96.442709 
L 467.834922 96.442709 
" style="fill:none;stroke:#ed6925;stroke-linecap:square;stroke-width:2.7;"/>
   </g>
   <g id="line2d_153">
    <path clip-path="url(#pf665e2a809)" d="M 465.891961 63.702381 
L 467.834922 63.702381 
" style="fill:none;stroke:#ed6925;stroke-linecap:square;stroke-width:2.7;"/>
   </g>
   <g id="line2d_154">
    <path clip-path="url(#pf665e2a809)" d="M 486.293049 94.843983 
L 486.293049 62.702444 
" style="fill:none;stroke:#ed6925;stroke-linecap:square;stroke-width:2.7;"/>
   </g>
   <g id="line2d_155">
    <path clip-path="url(#pf665e2a809)" d="M 485.321569 94.843983 
L 487.264529 94.843983 
" style="fill:none;stroke:#ed6925;stroke-linecap:square;stroke-width:2.7;"/>
   </g>
   <g id="line2d_156">
    <path clip-path="url(#pf665e2a809)" d="M 485.321569 62.702444 
L 487.264529 62.702444 
" style="fill:none;stroke:#ed6925;stroke-linecap:square;stroke-width:2.7;"/>
   </g>
   <g id="line2d_157">
    <path clip-path="url(#pf665e2a809)" d="M 505.722657 92.977091 
L 505.722657 61.521343 
" style="fill:none;stroke:#ed6925;stroke-linecap:square;stroke-width:2.7;"/>
   </g>
   <g id="line2d_158">
    <path clip-path="url(#pf665e2a809)" d="M 504.751176 92.977091 
L 506.694137 92.977091 
" style="fill:none;stroke:#ed6925;stroke-linecap:square;stroke-width:2.7;"/>
   </g>
   <g id="line2d_159">
    <path clip-path="url(#pf665e2a809)" d="M 504.751176 61.521343 
L 506.694137 61.521343 
" style="fill:none;stroke:#ed6925;stroke-linecap:square;stroke-width:2.7;"/>
   </g>
   <g id="line2d_160">
    <path clip-path="url(#pf665e2a809)" d="M 525.152265 91.174523 
L 525.152265 60.627078 
" style="fill:none;stroke:#ed6925;stroke-linecap:square;stroke-width:2.7;"/>
   </g>
   <g id="line2d_161">
    <path clip-path="url(#pf665e2a809)" d="M 524.180784 91.174523 
L 526.123745 91.174523 
" style="fill:none;stroke:#ed6925;stroke-linecap:square;stroke-width:2.7;"/>
   </g>
   <g id="line2d_162">
    <path clip-path="url(#pf665e2a809)" d="M 524.180784 60.627078 
L 526.123745 60.627078 
" style="fill:none;stroke:#ed6925;stroke-linecap:square;stroke-width:2.7;"/>
   </g>
   <g id="line2d_163">
    <path clip-path="url(#pf665e2a809)" d="M 544.581873 91.14402 
L 544.581873 60.629082 
" style="fill:none;stroke:#ed6925;stroke-linecap:square;stroke-width:2.7;"/>
   </g>
   <g id="line2d_164">
    <path clip-path="url(#pf665e2a809)" d="M 543.610392 91.14402 
L 545.553353 91.14402 
" style="fill:none;stroke:#ed6925;stroke-linecap:square;stroke-width:2.7;"/>
   </g>
   <g id="line2d_165">
    <path clip-path="url(#pf665e2a809)" d="M 543.610392 60.629082 
L 545.553353 60.629082 
" style="fill:none;stroke:#ed6925;stroke-linecap:square;stroke-width:2.7;"/>
   </g>
   <g id="patch_3">
    <path d="M 57.585 228.04 
L 57.585 17.96 
" style="fill:none;stroke:#000000;stroke-linecap:square;stroke-linejoin:miter;stroke-width:0.8;"/>
   </g>
   <g id="patch_4">
    <path d="M 67.585 238.04 
L 563.04 238.04 
" style="fill:none;stroke:#000000;stroke-linecap:square;stroke-linejoin:miter;stroke-width:0.8;"/>
   </g>
   <g id="legend_1">
    <g id="PathCollection_3">
     <g>
      <use style="fill:#781c6d;stroke:#781c6d;stroke-width:2.025;" x="90.385" xlink:href="#m4d09dc01f7" y="34.728125"/>
     </g>
    </g>
    <g id="text_15">
     <!-- Within Odors -->
     <g transform="translate(111.985 37.878125)scale(0.12 -0.12)">
      <defs>
       <path d="M 3.328125 72.90625 
L 13.28125 72.90625 
L 28.609375 11.28125 
L 43.890625 72.90625 
L 54.984375 72.90625 
L 70.3125 11.28125 
L 85.59375 72.90625 
L 95.609375 72.90625 
L 77.296875 0 
L 64.890625 0 
L 49.515625 63.28125 
L 33.984375 0 
L 21.578125 0 
z
" id="DejaVuSans-87"/>
       <path d="M 54.890625 33.015625 
L 54.890625 0 
L 45.90625 0 
L 45.90625 32.71875 
Q 45.90625 40.484375 42.875 44.328125 
Q 39.84375 48.1875 33.796875 48.1875 
Q 26.515625 48.1875 22.3125 43.546875 
Q 18.109375 38.921875 18.109375 30.90625 
L 18.109375 0 
L 9.078125 0 
L 9.078125 75.984375 
L 18.109375 75.984375 
L 18.109375 46.1875 
Q 21.34375 51.125 25.703125 53.5625 
Q 30.078125 56 35.796875 56 
Q 45.21875 56 50.046875 50.171875 
Q 54.890625 44.34375 54.890625 33.015625 
z
" id="DejaVuSans-104"/>
       <path id="DejaVuSans-32"/>
       <path d="M 39.40625 66.21875 
Q 28.65625 66.21875 22.328125 58.203125 
Q 16.015625 50.203125 16.015625 36.375 
Q 16.015625 22.609375 22.328125 14.59375 
Q 28.65625 6.59375 39.40625 6.59375 
Q 50.140625 6.59375 56.421875 14.59375 
Q 62.703125 22.609375 62.703125 36.375 
Q 62.703125 50.203125 56.421875 58.203125 
Q 50.140625 66.21875 39.40625 66.21875 
z
M 39.40625 74.21875 
Q 54.734375 74.21875 63.90625 63.9375 
Q 73.09375 53.65625 73.09375 36.375 
Q 73.09375 19.140625 63.90625 8.859375 
Q 54.734375 -1.421875 39.40625 -1.421875 
Q 24.03125 -1.421875 14.8125 8.828125 
Q 5.609375 19.09375 5.609375 36.375 
Q 5.609375 53.65625 14.8125 63.9375 
Q 24.03125 74.21875 39.40625 74.21875 
z
" id="DejaVuSans-79"/>
       <path d="M 45.40625 46.390625 
L 45.40625 75.984375 
L 54.390625 75.984375 
L 54.390625 0 
L 45.40625 0 
L 45.40625 8.203125 
Q 42.578125 3.328125 38.25 0.953125 
Q 33.9375 -1.421875 27.875 -1.421875 
Q 17.96875 -1.421875 11.734375 6.484375 
Q 5.515625 14.40625 5.515625 27.296875 
Q 5.515625 40.1875 11.734375 48.09375 
Q 17.96875 56 27.875 56 
Q 33.9375 56 38.25 53.625 
Q 42.578125 51.265625 45.40625 46.390625 
z
M 14.796875 27.296875 
Q 14.796875 17.390625 18.875 11.75 
Q 22.953125 6.109375 30.078125 6.109375 
Q 37.203125 6.109375 41.296875 11.75 
Q 45.40625 17.390625 45.40625 27.296875 
Q 45.40625 37.203125 41.296875 42.84375 
Q 37.203125 48.484375 30.078125 48.484375 
Q 22.953125 48.484375 18.875 42.84375 
Q 14.796875 37.203125 14.796875 27.296875 
z
" id="DejaVuSans-100"/>
       <path d="M 44.28125 53.078125 
L 44.28125 44.578125 
Q 40.484375 46.53125 36.375 47.5 
Q 32.28125 48.484375 27.875 48.484375 
Q 21.1875 48.484375 17.84375 46.4375 
Q 14.5 44.390625 14.5 40.28125 
Q 14.5 37.15625 16.890625 35.375 
Q 19.28125 33.59375 26.515625 31.984375 
L 29.59375 31.296875 
Q 39.15625 29.25 43.1875 25.515625 
Q 47.21875 21.78125 47.21875 15.09375 
Q 47.21875 7.46875 41.1875 3.015625 
Q 35.15625 -1.421875 24.609375 -1.421875 
Q 20.21875 -1.421875 15.453125 -0.5625 
Q 10.6875 0.296875 5.421875 2 
L 5.421875 11.28125 
Q 10.40625 8.6875 15.234375 7.390625 
Q 20.0625 6.109375 24.8125 6.109375 
Q 31.15625 6.109375 34.5625 8.28125 
Q 37.984375 10.453125 37.984375 14.40625 
Q 37.984375 18.0625 35.515625 20.015625 
Q 33.0625 21.96875 24.703125 23.78125 
L 21.578125 24.515625 
Q 13.234375 26.265625 9.515625 29.90625 
Q 5.8125 33.546875 5.8125 39.890625 
Q 5.8125 47.609375 11.28125 51.796875 
Q 16.75 56 26.8125 56 
Q 31.78125 56 36.171875 55.265625 
Q 40.578125 54.546875 44.28125 53.078125 
z
" id="DejaVuSans-115"/>
      </defs>
      <use xlink:href="#DejaVuSans-87"/>
      <use x="96.626953" xlink:href="#DejaVuSans-105"/>
      <use x="124.410156" xlink:href="#DejaVuSans-116"/>
      <use x="163.619141" xlink:href="#DejaVuSans-104"/>
      <use x="226.998047" xlink:href="#DejaVuSans-105"/>
      <use x="254.78125" xlink:href="#DejaVuSans-110"/>
      <use x="318.160156" xlink:href="#DejaVuSans-32"/>
      <use x="349.947266" xlink:href="#DejaVuSans-79"/>
      <use x="428.658203" xlink:href="#DejaVuSans-100"/>
      <use x="492.134766" xlink:href="#DejaVuSans-111"/>
      <use x="553.316406" xlink:href="#DejaVuSans-114"/>
      <use x="594.429688" xlink:href="#DejaVuSans-115"/>
     </g>
    </g>
    <g id="PathCollection_4">
     <g>
      <use style="fill:#ed6925;stroke:#ed6925;stroke-width:2.025;" x="90.385" xlink:href="#mc706ae95ad" y="52.341875"/>
     </g>
    </g>
    <g id="text_16">
     <!-- Across Odors -->
     <g transform="translate(111.985 55.491875)scale(0.12 -0.12)">
      <defs>
       <path d="M 34.1875 63.1875 
L 20.796875 26.90625 
L 47.609375 26.90625 
z
M 28.609375 72.90625 
L 39.796875 72.90625 
L 67.578125 0 
L 57.328125 0 
L 50.6875 18.703125 
L 17.828125 18.703125 
L 11.1875 0 
L 0.78125 0 
z
" id="DejaVuSans-65"/>
       <path d="M 48.78125 52.59375 
L 48.78125 44.1875 
Q 44.96875 46.296875 41.140625 47.34375 
Q 37.3125 48.390625 33.40625 48.390625 
Q 24.65625 48.390625 19.8125 42.84375 
Q 14.984375 37.3125 14.984375 27.296875 
Q 14.984375 17.28125 19.8125 11.734375 
Q 24.65625 6.203125 33.40625 6.203125 
Q 37.3125 6.203125 41.140625 7.25 
Q 44.96875 8.296875 48.78125 10.40625 
L 48.78125 2.09375 
Q 45.015625 0.34375 40.984375 -0.53125 
Q 36.96875 -1.421875 32.421875 -1.421875 
Q 20.0625 -1.421875 12.78125 6.34375 
Q 5.515625 14.109375 5.515625 27.296875 
Q 5.515625 40.671875 12.859375 48.328125 
Q 20.21875 56 33.015625 56 
Q 37.15625 56 41.109375 55.140625 
Q 45.0625 54.296875 48.78125 52.59375 
z
" id="DejaVuSans-99"/>
      </defs>
      <use xlink:href="#DejaVuSans-65"/>
      <use x="66.658203" xlink:href="#DejaVuSans-99"/>
      <use x="121.638672" xlink:href="#DejaVuSans-114"/>
      <use x="160.501953" xlink:href="#DejaVuSans-111"/>
      <use x="221.683594" xlink:href="#DejaVuSans-115"/>
      <use x="273.783203" xlink:href="#DejaVuSans-115"/>
      <use x="325.882812" xlink:href="#DejaVuSans-32"/>
      <use x="357.669922" xlink:href="#DejaVuSans-79"/>
      <use x="436.380859" xlink:href="#DejaVuSans-100"/>
      <use x="499.857422" xlink:href="#DejaVuSans-111"/>
      <use x="561.039062" xlink:href="#DejaVuSans-114"/>
      <use x="602.152344" xlink:href="#DejaVuSans-115"/>
     </g>
    </g>
   </g>
  </g>
  <g id="axes_2">
   <g id="patch_5">
    <path d="M 397.44 201.6 
L 552.96 201.6 
L 552.96 129.6 
L 397.44 129.6 
z
" style="fill:#ffffff;"/>
   </g>
   <g id="matplotlib.axis_3">
    <g id="xtick_8">
     <g id="line2d_166">
      <g>
       <use style="stroke:#000000;stroke-width:0.8;" x="397.44" xlink:href="#mb78449ab52" y="201.6"/>
      </g>
     </g>
     <g id="text_17">
      <!-- 0 -->
      <g transform="translate(393.304375 218.477969)scale(0.13 -0.13)">
       <use xlink:href="#DejaVuSans-48"/>
      </g>
     </g>
    </g>
    <g id="xtick_9">
     <g id="line2d_167">
      <g>
       <use style="stroke:#000000;stroke-width:0.8;" x="452.982857" xlink:href="#mb78449ab52" y="201.6"/>
      </g>
     </g>
     <g id="text_18">
      <!-- 5 -->
      <g transform="translate(448.847232 218.477969)scale(0.13 -0.13)">
       <use xlink:href="#DejaVuSans-53"/>
      </g>
     </g>
    </g>
    <g id="xtick_10">
     <g id="line2d_168">
      <g>
       <use style="stroke:#000000;stroke-width:0.8;" x="508.525714" xlink:href="#mb78449ab52" y="201.6"/>
      </g>
     </g>
     <g id="text_19">
      <!-- 10 -->
      <g transform="translate(500.254464 218.477969)scale(0.13 -0.13)">
       <use xlink:href="#DejaVuSans-49"/>
       <use x="63.623047" xlink:href="#DejaVuSans-48"/>
      </g>
     </g>
    </g>
   </g>
   <g id="matplotlib.axis_4">
    <g id="ytick_7">
     <g id="line2d_169">
      <g>
       <use style="stroke:#000000;stroke-width:0.8;" x="397.44" xlink:href="#mf88c2e0add" y="189.6"/>
      </g>
     </g>
     <g id="text_20">
      <!-- 0.5 -->
      <g transform="translate(369.765937 194.538984)scale(0.13 -0.13)">
       <use xlink:href="#DejaVuSans-48"/>
       <use x="63.623047" xlink:href="#DejaVuSans-46"/>
       <use x="95.410156" xlink:href="#DejaVuSans-53"/>
      </g>
     </g>
    </g>
    <g id="ytick_8">
     <g id="line2d_170">
      <g>
       <use style="stroke:#000000;stroke-width:0.8;" x="397.44" xlink:href="#mf88c2e0add" y="129.6"/>
      </g>
     </g>
     <g id="text_21">
      <!-- 1.0 -->
      <g transform="translate(369.765937 134.538984)scale(0.13 -0.13)">
       <use xlink:href="#DejaVuSans-49"/>
       <use x="63.623047" xlink:href="#DejaVuSans-46"/>
       <use x="95.410156" xlink:href="#DejaVuSans-48"/>
      </g>
     </g>
    </g>
    <g id="text_22">
     <!-- Cliff  -->
     <g transform="translate(363.270312 182.925937)rotate(-90)scale(0.12 -0.12)">
      <defs>
       <path d="M 37.109375 75.984375 
L 37.109375 68.5 
L 28.515625 68.5 
Q 23.6875 68.5 21.796875 66.546875 
Q 19.921875 64.59375 19.921875 59.515625 
L 19.921875 54.6875 
L 34.71875 54.6875 
L 34.71875 47.703125 
L 19.921875 47.703125 
L 19.921875 0 
L 10.890625 0 
L 10.890625 47.703125 
L 2.296875 47.703125 
L 2.296875 54.6875 
L 10.890625 54.6875 
L 10.890625 58.5 
Q 10.890625 67.625 15.140625 71.796875 
Q 19.390625 75.984375 28.609375 75.984375 
z
" id="DejaVuSans-102"/>
       <path d="M 49.03125 63.328125 
Q 44.046875 66.75 32.375 66.75 
Q 20.015625 66.75 20.015625 61.03125 
Q 20.015625 56.546875 32.90625 54.203125 
Q 43.0625 52.390625 48.78125 46.921875 
Q 55.71875 40.328125 55.71875 26.8125 
Q 55.71875 13.875 49.03125 6.25 
Q 42.328125 -1.421875 30.609375 -1.421875 
Q 18.953125 -1.421875 12.203125 6.25 
Q 5.515625 13.875 5.515625 27.296875 
Q 5.515625 37.25 12.203125 45.3125 
Q 14.796875 48.4375 18.453125 50.203125 
Q 10.84375 54.046875 10.84375 60.9375 
Q 10.84375 74.21875 32.375 74.21875 
Q 43.171875 74.21875 49.03125 70.796875 
z
M 25.203125 47.75 
Q 21.875 46.34375 19.1875 42.78125 
Q 14.984375 37.25 14.984375 27.296875 
Q 14.984375 17.390625 19.140625 11.8125 
Q 23.34375 6.203125 30.609375 6.203125 
Q 37.796875 6.203125 41.984375 11.859375 
Q 46.1875 17.53125 46.1875 26.8125 
Q 46.1875 36.53125 41.75 41.21875 
Q 37.015625 46.234375 30.859375 46.78125 
Q 27.734375 47.078125 25.203125 47.75 
z
" id="DejaVuSans-948"/>
      </defs>
      <use xlink:href="#DejaVuSans-67"/>
      <use x="69.824219" xlink:href="#DejaVuSans-108"/>
      <use x="97.607422" xlink:href="#DejaVuSans-105"/>
      <use x="125.390625" xlink:href="#DejaVuSans-102"/>
      <use x="160.595703" xlink:href="#DejaVuSans-102"/>
      <use x="195.800781" xlink:href="#DejaVuSans-32"/>
      <use x="227.587891" xlink:href="#DejaVuSans-948"/>
     </g>
    </g>
   </g>
   <g id="LineCollection_1">
    <path clip-path="url(#p253d70aee8)" d="M 408.548571 143.168089 
L 408.548571 141.306185 
" style="fill:none;stroke:#bc3754;stroke-width:1.5;"/>
    <path clip-path="url(#p253d70aee8)" d="M 414.102857 162.176821 
L 414.102857 159.271796 
" style="fill:none;stroke:#bc3754;stroke-width:1.5;"/>
    <path clip-path="url(#p253d70aee8)" d="M 419.657143 175.339948 
L 419.657143 171.711402 
" style="fill:none;stroke:#bc3754;stroke-width:1.5;"/>
    <path clip-path="url(#p253d70aee8)" d="M 425.211429 184.154898 
L 425.211429 180.231593 
" style="fill:none;stroke:#bc3754;stroke-width:1.5;"/>
    <path clip-path="url(#p253d70aee8)" d="M 430.765714 189.425808 
L 430.765714 185.098706 
" style="fill:none;stroke:#bc3754;stroke-width:1.5;"/>
    <path clip-path="url(#p253d70aee8)" d="M 436.32 190.043826 
L 436.32 185.678611 
" style="fill:none;stroke:#bc3754;stroke-width:1.5;"/>
    <path clip-path="url(#p253d70aee8)" d="M 441.874286 191.220341 
L 441.874286 186.812901 
" style="fill:none;stroke:#bc3754;stroke-width:1.5;"/>
    <path clip-path="url(#p253d70aee8)" d="M 447.428571 190.771829 
L 447.428571 186.279834 
" style="fill:none;stroke:#bc3754;stroke-width:1.5;"/>
    <path clip-path="url(#p253d70aee8)" d="M 452.982857 189.323262 
L 452.982857 184.903965 
" style="fill:none;stroke:#bc3754;stroke-width:1.5;"/>
    <path clip-path="url(#p253d70aee8)" d="M 458.537143 188.824005 
L 458.537143 184.512141 
" style="fill:none;stroke:#bc3754;stroke-width:1.5;"/>
    <path clip-path="url(#p253d70aee8)" d="M 464.091429 186.974747 
L 464.091429 182.79815 
" style="fill:none;stroke:#bc3754;stroke-width:1.5;"/>
    <path clip-path="url(#p253d70aee8)" d="M 469.645714 186.261433 
L 469.645714 181.909135 
" style="fill:none;stroke:#bc3754;stroke-width:1.5;"/>
    <path clip-path="url(#p253d70aee8)" d="M 475.2 182.854403 
L 475.2 178.636591 
" style="fill:none;stroke:#bc3754;stroke-width:1.5;"/>
    <path clip-path="url(#p253d70aee8)" d="M 480.754286 181.256014 
L 480.754286 177.202117 
" style="fill:none;stroke:#bc3754;stroke-width:1.5;"/>
    <path clip-path="url(#p253d70aee8)" d="M 486.308571 179.558882 
L 486.308571 175.435729 
" style="fill:none;stroke:#bc3754;stroke-width:1.5;"/>
    <path clip-path="url(#p253d70aee8)" d="M 491.862857 178.574486 
L 491.862857 174.578847 
" style="fill:none;stroke:#bc3754;stroke-width:1.5;"/>
    <path clip-path="url(#p253d70aee8)" d="M 497.417143 177.534624 
L 497.417143 173.516271 
" style="fill:none;stroke:#bc3754;stroke-width:1.5;"/>
    <path clip-path="url(#p253d70aee8)" d="M 502.971429 177.060547 
L 502.971429 173.081632 
" style="fill:none;stroke:#bc3754;stroke-width:1.5;"/>
    <path clip-path="url(#p253d70aee8)" d="M 508.525714 174.651224 
L 508.525714 170.756924 
" style="fill:none;stroke:#bc3754;stroke-width:1.5;"/>
    <path clip-path="url(#p253d70aee8)" d="M 514.08 172.869893 
L 514.08 169.056535 
" style="fill:none;stroke:#bc3754;stroke-width:1.5;"/>
    <path clip-path="url(#p253d70aee8)" d="M 519.634286 170.462405 
L 519.634286 166.643113 
" style="fill:none;stroke:#bc3754;stroke-width:1.5;"/>
    <path clip-path="url(#p253d70aee8)" d="M 525.188571 168.134154 
L 525.188571 164.495048 
" style="fill:none;stroke:#bc3754;stroke-width:1.5;"/>
    <path clip-path="url(#p253d70aee8)" d="M 530.742857 166.967561 
L 530.742857 163.395647 
" style="fill:none;stroke:#bc3754;stroke-width:1.5;"/>
    <path clip-path="url(#p253d70aee8)" d="M 536.297143 166.066484 
L 536.297143 162.630802 
" style="fill:none;stroke:#bc3754;stroke-width:1.5;"/>
    <path clip-path="url(#p253d70aee8)" d="M 541.851429 166.01519 
L 541.851429 162.466481 
" style="fill:none;stroke:#bc3754;stroke-width:1.5;"/>
   </g>
   <g id="line2d_171">
    <defs>
     <path d="M 2 0 
L -2 -0 
" id="m2350be53ac" style="stroke:#bc3754;"/>
    </defs>
    <g clip-path="url(#p253d70aee8)">
     <use style="fill:#bc3754;stroke:#bc3754;" x="408.548571" xlink:href="#m2350be53ac" y="143.168089"/>
     <use style="fill:#bc3754;stroke:#bc3754;" x="414.102857" xlink:href="#m2350be53ac" y="162.176821"/>
     <use style="fill:#bc3754;stroke:#bc3754;" x="419.657143" xlink:href="#m2350be53ac" y="175.339948"/>
     <use style="fill:#bc3754;stroke:#bc3754;" x="425.211429" xlink:href="#m2350be53ac" y="184.154898"/>
     <use style="fill:#bc3754;stroke:#bc3754;" x="430.765714" xlink:href="#m2350be53ac" y="189.425808"/>
     <use style="fill:#bc3754;stroke:#bc3754;" x="436.32" xlink:href="#m2350be53ac" y="190.043826"/>
     <use style="fill:#bc3754;stroke:#bc3754;" x="441.874286" xlink:href="#m2350be53ac" y="191.220341"/>
     <use style="fill:#bc3754;stroke:#bc3754;" x="447.428571" xlink:href="#m2350be53ac" y="190.771829"/>
     <use style="fill:#bc3754;stroke:#bc3754;" x="452.982857" xlink:href="#m2350be53ac" y="189.323262"/>
     <use style="fill:#bc3754;stroke:#bc3754;" x="458.537143" xlink:href="#m2350be53ac" y="188.824005"/>
     <use style="fill:#bc3754;stroke:#bc3754;" x="464.091429" xlink:href="#m2350be53ac" y="186.974747"/>
     <use style="fill:#bc3754;stroke:#bc3754;" x="469.645714" xlink:href="#m2350be53ac" y="186.261433"/>
     <use style="fill:#bc3754;stroke:#bc3754;" x="475.2" xlink:href="#m2350be53ac" y="182.854403"/>
     <use style="fill:#bc3754;stroke:#bc3754;" x="480.754286" xlink:href="#m2350be53ac" y="181.256014"/>
     <use style="fill:#bc3754;stroke:#bc3754;" x="486.308571" xlink:href="#m2350be53ac" y="179.558882"/>
     <use style="fill:#bc3754;stroke:#bc3754;" x="491.862857" xlink:href="#m2350be53ac" y="178.574486"/>
     <use style="fill:#bc3754;stroke:#bc3754;" x="497.417143" xlink:href="#m2350be53ac" y="177.534624"/>
     <use style="fill:#bc3754;stroke:#bc3754;" x="502.971429" xlink:href="#m2350be53ac" y="177.060547"/>
     <use style="fill:#bc3754;stroke:#bc3754;" x="508.525714" xlink:href="#m2350be53ac" y="174.651224"/>
     <use style="fill:#bc3754;stroke:#bc3754;" x="514.08" xlink:href="#m2350be53ac" y="172.869893"/>
     <use style="fill:#bc3754;stroke:#bc3754;" x="519.634286" xlink:href="#m2350be53ac" y="170.462405"/>
     <use style="fill:#bc3754;stroke:#bc3754;" x="525.188571" xlink:href="#m2350be53ac" y="168.134154"/>
     <use style="fill:#bc3754;stroke:#bc3754;" x="530.742857" xlink:href="#m2350be53ac" y="166.967561"/>
     <use style="fill:#bc3754;stroke:#bc3754;" x="536.297143" xlink:href="#m2350be53ac" y="166.066484"/>
     <use style="fill:#bc3754;stroke:#bc3754;" x="541.851429" xlink:href="#m2350be53ac" y="166.01519"/>
    </g>
   </g>
   <g id="line2d_172">
    <g clip-path="url(#p253d70aee8)">
     <use style="fill:#bc3754;stroke:#bc3754;" x="408.548571" xlink:href="#m2350be53ac" y="141.306185"/>
     <use style="fill:#bc3754;stroke:#bc3754;" x="414.102857" xlink:href="#m2350be53ac" y="159.271796"/>
     <use style="fill:#bc3754;stroke:#bc3754;" x="419.657143" xlink:href="#m2350be53ac" y="171.711402"/>
     <use style="fill:#bc3754;stroke:#bc3754;" x="425.211429" xlink:href="#m2350be53ac" y="180.231593"/>
     <use style="fill:#bc3754;stroke:#bc3754;" x="430.765714" xlink:href="#m2350be53ac" y="185.098706"/>
     <use style="fill:#bc3754;stroke:#bc3754;" x="436.32" xlink:href="#m2350be53ac" y="185.678611"/>
     <use style="fill:#bc3754;stroke:#bc3754;" x="441.874286" xlink:href="#m2350be53ac" y="186.812901"/>
     <use style="fill:#bc3754;stroke:#bc3754;" x="447.428571" xlink:href="#m2350be53ac" y="186.279834"/>
     <use style="fill:#bc3754;stroke:#bc3754;" x="452.982857" xlink:href="#m2350be53ac" y="184.903965"/>
     <use style="fill:#bc3754;stroke:#bc3754;" x="458.537143" xlink:href="#m2350be53ac" y="184.512141"/>
     <use style="fill:#bc3754;stroke:#bc3754;" x="464.091429" xlink:href="#m2350be53ac" y="182.79815"/>
     <use style="fill:#bc3754;stroke:#bc3754;" x="469.645714" xlink:href="#m2350be53ac" y="181.909135"/>
     <use style="fill:#bc3754;stroke:#bc3754;" x="475.2" xlink:href="#m2350be53ac" y="178.636591"/>
     <use style="fill:#bc3754;stroke:#bc3754;" x="480.754286" xlink:href="#m2350be53ac" y="177.202117"/>
     <use style="fill:#bc3754;stroke:#bc3754;" x="486.308571" xlink:href="#m2350be53ac" y="175.435729"/>
     <use style="fill:#bc3754;stroke:#bc3754;" x="491.862857" xlink:href="#m2350be53ac" y="174.578847"/>
     <use style="fill:#bc3754;stroke:#bc3754;" x="497.417143" xlink:href="#m2350be53ac" y="173.516271"/>
     <use style="fill:#bc3754;stroke:#bc3754;" x="502.971429" xlink:href="#m2350be53ac" y="173.081632"/>
     <use style="fill:#bc3754;stroke:#bc3754;" x="508.525714" xlink:href="#m2350be53ac" y="170.756924"/>
     <use style="fill:#bc3754;stroke:#bc3754;" x="514.08" xlink:href="#m2350be53ac" y="169.056535"/>
     <use style="fill:#bc3754;stroke:#bc3754;" x="519.634286" xlink:href="#m2350be53ac" y="166.643113"/>
     <use style="fill:#bc3754;stroke:#bc3754;" x="525.188571" xlink:href="#m2350be53ac" y="164.495048"/>
     <use style="fill:#bc3754;stroke:#bc3754;" x="530.742857" xlink:href="#m2350be53ac" y="163.395647"/>
     <use style="fill:#bc3754;stroke:#bc3754;" x="536.297143" xlink:href="#m2350be53ac" y="162.630802"/>
     <use style="fill:#bc3754;stroke:#bc3754;" x="541.851429" xlink:href="#m2350be53ac" y="162.466481"/>
    </g>
   </g>
   <g id="line2d_173">
    <path clip-path="url(#p253d70aee8)" d="M 408.548571 142.239607 
L 414.102857 160.707131 
L 419.657143 173.535157 
L 425.211429 182.179707 
L 430.765714 187.254763 
L 436.32 187.844165 
L 441.874286 189.053525 
L 447.428571 188.516485 
L 452.982857 187.105355 
L 458.537143 186.705397 
L 464.091429 184.922901 
L 469.645714 184.048432 
L 475.2 180.698288 
L 480.754286 179.266811 
L 486.308571 177.489355 
L 491.862857 176.584523 
L 497.417143 175.527307 
L 502.971429 175.040464 
L 508.525714 172.700976 
L 514.08 170.993248 
L 519.634286 168.545349 
L 525.188571 166.303077 
L 530.742857 165.212165 
L 536.297143 164.300037 
L 541.851429 164.233552 
" style="fill:none;stroke:#bc3754;stroke-linecap:square;stroke-width:1.5;"/>
   </g>
   <g id="patch_6">
    <path d="M 397.44 201.6 
L 397.44 129.6 
" style="fill:none;stroke:#000000;stroke-linecap:square;stroke-linejoin:miter;stroke-width:0.8;"/>
   </g>
   <g id="patch_7">
    <path d="M 397.44 201.6 
L 552.96 201.6 
" style="fill:none;stroke:#000000;stroke-linecap:square;stroke-linejoin:miter;stroke-width:0.8;"/>
   </g>
  </g>
 </g>
 <defs>
  <clipPath id="pf665e2a809">
   <rect height="210.08" width="495.455" x="67.585" y="17.96"/>
  </clipPath>
  <clipPath id="p253d70aee8">
   <rect height="72" width="155.52" x="397.44" y="129.6"/>
  </clipPath>
 </defs>
</svg>
