<?xml version="1.0" encoding="utf-8" standalone="no"?>
<!DOCTYPE svg PUBLIC "-//W3C//DTD SVG 1.1//EN"
  "http://www.w3.org/Graphics/SVG/1.1/DTD/svg11.dtd">
<!-- Created with matplotlib (https://matplotlib.org/) -->
<svg height="504pt" version="1.1" viewBox="0 0 1152 504" width="1152pt" xmlns="http://www.w3.org/2000/svg" xmlns:xlink="http://www.w3.org/1999/xlink">
 <metadata>
  <rdf:RDF xmlns:cc="http://creativecommons.org/ns#" xmlns:dc="http://purl.org/dc/elements/1.1/" xmlns:rdf="http://www.w3.org/1999/02/22-rdf-syntax-ns#">
   <cc:Work>
    <dc:type rdf:resource="http://purl.org/dc/dcmitype/StillImage"/>
    <dc:date>2021-05-03T23:43:34.625254</dc:date>
    <dc:format>image/svg+xml</dc:format>
    <dc:creator>
     <cc:Agent>
      <dc:title>Matplotlib v3.3.4, https://matplotlib.org/</dc:title>
     </cc:Agent>
    </dc:creator>
   </cc:Work>
  </rdf:RDF>
 </metadata>
 <defs>
  <style type="text/css">*{stroke-linecap:butt;stroke-linejoin:round;}</style>
 </defs>
 <g id="figure_1">
  <g id="patch_1">
   <path d="M 0 504 
L 1152 504 
L 1152 0 
L 0 0 
z
" style="fill:none;"/>
  </g>
  <g id="axes_1">
   <g id="patch_2">
    <path d="M 144 441 
L 1036.8 441 
L 1036.8 60.48 
L 144 60.48 
z
" style="fill:#ffffff;"/>
   </g>
   <g id="matplotlib.axis_1">
    <g id="xtick_1">
     <g id="line2d_1">
      <defs>
       <path d="M 0 0 
L 0 3.5 
" id="m96df007a7b" style="stroke:#000000;stroke-width:0.8;"/>
      </defs>
      <g>
       <use style="stroke:#000000;stroke-width:0.8;" x="144" xlink:href="#m96df007a7b" y="441"/>
      </g>
     </g>
     <g id="text_1">
      <!-- 0 -->
      <g transform="translate(137.6375 463.196875)scale(0.2 -0.2)">
       <defs>
        <path d="M 31.78125 66.40625 
Q 24.171875 66.40625 20.328125 58.90625 
Q 16.5 51.421875 16.5 36.375 
Q 16.5 21.390625 20.328125 13.890625 
Q 24.171875 6.390625 31.78125 6.390625 
Q 39.453125 6.390625 43.28125 13.890625 
Q 47.125 21.390625 47.125 36.375 
Q 47.125 51.421875 43.28125 58.90625 
Q 39.453125 66.40625 31.78125 66.40625 
z
M 31.78125 74.21875 
Q 44.046875 74.21875 50.515625 64.515625 
Q 56.984375 54.828125 56.984375 36.375 
Q 56.984375 17.96875 50.515625 8.265625 
Q 44.046875 -1.421875 31.78125 -1.421875 
Q 19.53125 -1.421875 13.0625 8.265625 
Q 6.59375 17.96875 6.59375 36.375 
Q 6.59375 54.828125 13.0625 64.515625 
Q 19.53125 74.21875 31.78125 74.21875 
z
" id="DejaVuSans-48"/>
       </defs>
       <use xlink:href="#DejaVuSans-48"/>
      </g>
     </g>
    </g>
    <g id="xtick_2">
     <g id="line2d_2">
      <g>
       <use style="stroke:#000000;stroke-width:0.8;" x="271.542857" xlink:href="#m96df007a7b" y="441"/>
      </g>
     </g>
     <g id="text_2">
      <!-- 5 -->
      <g transform="translate(265.180357 463.196875)scale(0.2 -0.2)">
       <defs>
        <path d="M 10.796875 72.90625 
L 49.515625 72.90625 
L 49.515625 64.59375 
L 19.828125 64.59375 
L 19.828125 46.734375 
Q 21.96875 47.46875 24.109375 47.828125 
Q 26.265625 48.1875 28.421875 48.1875 
Q 40.625 48.1875 47.75 41.5 
Q 54.890625 34.8125 54.890625 23.390625 
Q 54.890625 11.625 47.5625 5.09375 
Q 40.234375 -1.421875 26.90625 -1.421875 
Q 22.3125 -1.421875 17.546875 -0.640625 
Q 12.796875 0.140625 7.71875 1.703125 
L 7.71875 11.625 
Q 12.109375 9.234375 16.796875 8.0625 
Q 21.484375 6.890625 26.703125 6.890625 
Q 35.15625 6.890625 40.078125 11.328125 
Q 45.015625 15.765625 45.015625 23.390625 
Q 45.015625 31 40.078125 35.4375 
Q 35.15625 39.890625 26.703125 39.890625 
Q 22.75 39.890625 18.8125 39.015625 
Q 14.890625 38.140625 10.796875 36.28125 
z
" id="DejaVuSans-53"/>
       </defs>
       <use xlink:href="#DejaVuSans-53"/>
      </g>
     </g>
    </g>
    <g id="xtick_3">
     <g id="line2d_3">
      <g>
       <use style="stroke:#000000;stroke-width:0.8;" x="399.085714" xlink:href="#m96df007a7b" y="441"/>
      </g>
     </g>
     <g id="text_3">
      <!-- 10 -->
      <g transform="translate(386.360714 463.196875)scale(0.2 -0.2)">
       <defs>
        <path d="M 12.40625 8.296875 
L 28.515625 8.296875 
L 28.515625 63.921875 
L 10.984375 60.40625 
L 10.984375 69.390625 
L 28.421875 72.90625 
L 38.28125 72.90625 
L 38.28125 8.296875 
L 54.390625 8.296875 
L 54.390625 0 
L 12.40625 0 
z
" id="DejaVuSans-49"/>
       </defs>
       <use xlink:href="#DejaVuSans-49"/>
       <use x="63.623047" xlink:href="#DejaVuSans-48"/>
      </g>
     </g>
    </g>
    <g id="xtick_4">
     <g id="line2d_4">
      <g>
       <use style="stroke:#000000;stroke-width:0.8;" x="526.628571" xlink:href="#m96df007a7b" y="441"/>
      </g>
     </g>
     <g id="text_4">
      <!-- 15 -->
      <g transform="translate(513.903571 463.196875)scale(0.2 -0.2)">
       <use xlink:href="#DejaVuSans-49"/>
       <use x="63.623047" xlink:href="#DejaVuSans-53"/>
      </g>
     </g>
    </g>
    <g id="xtick_5">
     <g id="line2d_5">
      <g>
       <use style="stroke:#000000;stroke-width:0.8;" x="654.171429" xlink:href="#m96df007a7b" y="441"/>
      </g>
     </g>
     <g id="text_5">
      <!-- 20 -->
      <g transform="translate(641.446429 463.196875)scale(0.2 -0.2)">
       <defs>
        <path d="M 19.1875 8.296875 
L 53.609375 8.296875 
L 53.609375 0 
L 7.328125 0 
L 7.328125 8.296875 
Q 12.9375 14.109375 22.625 23.890625 
Q 32.328125 33.6875 34.8125 36.53125 
Q 39.546875 41.84375 41.421875 45.53125 
Q 43.3125 49.21875 43.3125 52.78125 
Q 43.3125 58.59375 39.234375 62.25 
Q 35.15625 65.921875 28.609375 65.921875 
Q 23.96875 65.921875 18.8125 64.3125 
Q 13.671875 62.703125 7.8125 59.421875 
L 7.8125 69.390625 
Q 13.765625 71.78125 18.9375 73 
Q 24.125 74.21875 28.421875 74.21875 
Q 39.75 74.21875 46.484375 68.546875 
Q 53.21875 62.890625 53.21875 53.421875 
Q 53.21875 48.921875 51.53125 44.890625 
Q 49.859375 40.875 45.40625 35.40625 
Q 44.1875 33.984375 37.640625 27.21875 
Q 31.109375 20.453125 19.1875 8.296875 
z
" id="DejaVuSans-50"/>
       </defs>
       <use xlink:href="#DejaVuSans-50"/>
       <use x="63.623047" xlink:href="#DejaVuSans-48"/>
      </g>
     </g>
    </g>
    <g id="xtick_6">
     <g id="line2d_6">
      <g>
       <use style="stroke:#000000;stroke-width:0.8;" x="781.714286" xlink:href="#m96df007a7b" y="441"/>
      </g>
     </g>
     <g id="text_6">
      <!-- 25 -->
      <g transform="translate(768.989286 463.196875)scale(0.2 -0.2)">
       <use xlink:href="#DejaVuSans-50"/>
       <use x="63.623047" xlink:href="#DejaVuSans-53"/>
      </g>
     </g>
    </g>
    <g id="xtick_7">
     <g id="line2d_7">
      <g>
       <use style="stroke:#000000;stroke-width:0.8;" x="909.257143" xlink:href="#m96df007a7b" y="441"/>
      </g>
     </g>
     <g id="text_7">
      <!-- 30 -->
      <g transform="translate(896.532143 463.196875)scale(0.2 -0.2)">
       <defs>
        <path d="M 40.578125 39.3125 
Q 47.65625 37.796875 51.625 33 
Q 55.609375 28.21875 55.609375 21.1875 
Q 55.609375 10.40625 48.1875 4.484375 
Q 40.765625 -1.421875 27.09375 -1.421875 
Q 22.515625 -1.421875 17.65625 -0.515625 
Q 12.796875 0.390625 7.625 2.203125 
L 7.625 11.71875 
Q 11.71875 9.328125 16.59375 8.109375 
Q 21.484375 6.890625 26.8125 6.890625 
Q 36.078125 6.890625 40.9375 10.546875 
Q 45.796875 14.203125 45.796875 21.1875 
Q 45.796875 27.640625 41.28125 31.265625 
Q 36.765625 34.90625 28.71875 34.90625 
L 20.21875 34.90625 
L 20.21875 43.015625 
L 29.109375 43.015625 
Q 36.375 43.015625 40.234375 45.921875 
Q 44.09375 48.828125 44.09375 54.296875 
Q 44.09375 59.90625 40.109375 62.90625 
Q 36.140625 65.921875 28.71875 65.921875 
Q 24.65625 65.921875 20.015625 65.03125 
Q 15.375 64.15625 9.8125 62.3125 
L 9.8125 71.09375 
Q 15.4375 72.65625 20.34375 73.4375 
Q 25.25 74.21875 29.59375 74.21875 
Q 40.828125 74.21875 47.359375 69.109375 
Q 53.90625 64.015625 53.90625 55.328125 
Q 53.90625 49.265625 50.4375 45.09375 
Q 46.96875 40.921875 40.578125 39.3125 
z
" id="DejaVuSans-51"/>
       </defs>
       <use xlink:href="#DejaVuSans-51"/>
       <use x="63.623047" xlink:href="#DejaVuSans-48"/>
      </g>
     </g>
    </g>
    <g id="xtick_8">
     <g id="line2d_8">
      <g>
       <use style="stroke:#000000;stroke-width:0.8;" x="1036.8" xlink:href="#m96df007a7b" y="441"/>
      </g>
     </g>
     <g id="text_8">
      <!-- 35 -->
      <g transform="translate(1024.075 463.196875)scale(0.2 -0.2)">
       <use xlink:href="#DejaVuSans-51"/>
       <use x="63.623047" xlink:href="#DejaVuSans-53"/>
      </g>
     </g>
    </g>
    <g id="text_9">
     <!-- Time (in s) -->
     <g transform="translate(537.448437 486.553125)scale(0.2 -0.2)">
      <defs>
       <path d="M -0.296875 72.90625 
L 61.375 72.90625 
L 61.375 64.59375 
L 35.5 64.59375 
L 35.5 0 
L 25.59375 0 
L 25.59375 64.59375 
L -0.296875 64.59375 
z
" id="DejaVuSans-84"/>
       <path d="M 9.421875 54.6875 
L 18.40625 54.6875 
L 18.40625 0 
L 9.421875 0 
z
M 9.421875 75.984375 
L 18.40625 75.984375 
L 18.40625 64.59375 
L 9.421875 64.59375 
z
" id="DejaVuSans-105"/>
       <path d="M 52 44.1875 
Q 55.375 50.25 60.0625 53.125 
Q 64.75 56 71.09375 56 
Q 79.640625 56 84.28125 50.015625 
Q 88.921875 44.046875 88.921875 33.015625 
L 88.921875 0 
L 79.890625 0 
L 79.890625 32.71875 
Q 79.890625 40.578125 77.09375 44.375 
Q 74.3125 48.1875 68.609375 48.1875 
Q 61.625 48.1875 57.5625 43.546875 
Q 53.515625 38.921875 53.515625 30.90625 
L 53.515625 0 
L 44.484375 0 
L 44.484375 32.71875 
Q 44.484375 40.625 41.703125 44.40625 
Q 38.921875 48.1875 33.109375 48.1875 
Q 26.21875 48.1875 22.15625 43.53125 
Q 18.109375 38.875 18.109375 30.90625 
L 18.109375 0 
L 9.078125 0 
L 9.078125 54.6875 
L 18.109375 54.6875 
L 18.109375 46.1875 
Q 21.1875 51.21875 25.484375 53.609375 
Q 29.78125 56 35.6875 56 
Q 41.65625 56 45.828125 52.96875 
Q 50 49.953125 52 44.1875 
z
" id="DejaVuSans-109"/>
       <path d="M 56.203125 29.59375 
L 56.203125 25.203125 
L 14.890625 25.203125 
Q 15.484375 15.921875 20.484375 11.0625 
Q 25.484375 6.203125 34.421875 6.203125 
Q 39.59375 6.203125 44.453125 7.46875 
Q 49.3125 8.734375 54.109375 11.28125 
L 54.109375 2.78125 
Q 49.265625 0.734375 44.1875 -0.34375 
Q 39.109375 -1.421875 33.890625 -1.421875 
Q 20.796875 -1.421875 13.15625 6.1875 
Q 5.515625 13.8125 5.515625 26.8125 
Q 5.515625 40.234375 12.765625 48.109375 
Q 20.015625 56 32.328125 56 
Q 43.359375 56 49.78125 48.890625 
Q 56.203125 41.796875 56.203125 29.59375 
z
M 47.21875 32.234375 
Q 47.125 39.59375 43.09375 43.984375 
Q 39.0625 48.390625 32.421875 48.390625 
Q 24.90625 48.390625 20.390625 44.140625 
Q 15.875 39.890625 15.1875 32.171875 
z
" id="DejaVuSans-101"/>
       <path id="DejaVuSans-32"/>
       <path d="M 31 75.875 
Q 24.46875 64.65625 21.28125 53.65625 
Q 18.109375 42.671875 18.109375 31.390625 
Q 18.109375 20.125 21.3125 9.0625 
Q 24.515625 -2 31 -13.1875 
L 23.1875 -13.1875 
Q 15.875 -1.703125 12.234375 9.375 
Q 8.59375 20.453125 8.59375 31.390625 
Q 8.59375 42.28125 12.203125 53.3125 
Q 15.828125 64.359375 23.1875 75.875 
z
" id="DejaVuSans-40"/>
       <path d="M 54.890625 33.015625 
L 54.890625 0 
L 45.90625 0 
L 45.90625 32.71875 
Q 45.90625 40.484375 42.875 44.328125 
Q 39.84375 48.1875 33.796875 48.1875 
Q 26.515625 48.1875 22.3125 43.546875 
Q 18.109375 38.921875 18.109375 30.90625 
L 18.109375 0 
L 9.078125 0 
L 9.078125 54.6875 
L 18.109375 54.6875 
L 18.109375 46.1875 
Q 21.34375 51.125 25.703125 53.5625 
Q 30.078125 56 35.796875 56 
Q 45.21875 56 50.046875 50.171875 
Q 54.890625 44.34375 54.890625 33.015625 
z
" id="DejaVuSans-110"/>
       <path d="M 44.28125 53.078125 
L 44.28125 44.578125 
Q 40.484375 46.53125 36.375 47.5 
Q 32.28125 48.484375 27.875 48.484375 
Q 21.1875 48.484375 17.84375 46.4375 
Q 14.5 44.390625 14.5 40.28125 
Q 14.5 37.15625 16.890625 35.375 
Q 19.28125 33.59375 26.515625 31.984375 
L 29.59375 31.296875 
Q 39.15625 29.25 43.1875 25.515625 
Q 47.21875 21.78125 47.21875 15.09375 
Q 47.21875 7.46875 41.1875 3.015625 
Q 35.15625 -1.421875 24.609375 -1.421875 
Q 20.21875 -1.421875 15.453125 -0.5625 
Q 10.6875 0.296875 5.421875 2 
L 5.421875 11.28125 
Q 10.40625 8.6875 15.234375 7.390625 
Q 20.0625 6.109375 24.8125 6.109375 
Q 31.15625 6.109375 34.5625 8.28125 
Q 37.984375 10.453125 37.984375 14.40625 
Q 37.984375 18.0625 35.515625 20.015625 
Q 33.0625 21.96875 24.703125 23.78125 
L 21.578125 24.515625 
Q 13.234375 26.265625 9.515625 29.90625 
Q 5.8125 33.546875 5.8125 39.890625 
Q 5.8125 47.609375 11.28125 51.796875 
Q 16.75 56 26.8125 56 
Q 31.78125 56 36.171875 55.265625 
Q 40.578125 54.546875 44.28125 53.078125 
z
" id="DejaVuSans-115"/>
       <path d="M 8.015625 75.875 
L 15.828125 75.875 
Q 23.140625 64.359375 26.78125 53.3125 
Q 30.421875 42.28125 30.421875 31.390625 
Q 30.421875 20.453125 26.78125 9.375 
Q 23.140625 -1.703125 15.828125 -13.1875 
L 8.015625 -13.1875 
Q 14.5 -2 17.703125 9.0625 
Q 20.90625 20.125 20.90625 31.390625 
Q 20.90625 42.671875 17.703125 53.65625 
Q 14.5 64.65625 8.015625 75.875 
z
" id="DejaVuSans-41"/>
      </defs>
      <use xlink:href="#DejaVuSans-84"/>
      <use x="57.958984" xlink:href="#DejaVuSans-105"/>
      <use x="85.742188" xlink:href="#DejaVuSans-109"/>
      <use x="183.154297" xlink:href="#DejaVuSans-101"/>
      <use x="244.677734" xlink:href="#DejaVuSans-32"/>
      <use x="276.464844" xlink:href="#DejaVuSans-40"/>
      <use x="315.478516" xlink:href="#DejaVuSans-105"/>
      <use x="343.261719" xlink:href="#DejaVuSans-110"/>
      <use x="406.640625" xlink:href="#DejaVuSans-32"/>
      <use x="438.427734" xlink:href="#DejaVuSans-115"/>
      <use x="490.527344" xlink:href="#DejaVuSans-41"/>
     </g>
    </g>
   </g>
   <g id="matplotlib.axis_2">
    <g id="ytick_1">
     <g id="line2d_9">
      <defs>
       <path d="M 0 0 
L -3.5 0 
" id="m65ffd4e590" style="stroke:#000000;stroke-width:0.8;"/>
      </defs>
      <g>
       <use style="stroke:#000000;stroke-width:0.8;" x="144" xlink:href="#m65ffd4e590" y="423.703636"/>
      </g>
     </g>
     <g id="text_10">
      <!-- 0.0 -->
      <g transform="translate(105.19375 431.302074)scale(0.2 -0.2)">
       <defs>
        <path d="M 10.6875 12.40625 
L 21 12.40625 
L 21 0 
L 10.6875 0 
z
" id="DejaVuSans-46"/>
       </defs>
       <use xlink:href="#DejaVuSans-48"/>
       <use x="63.623047" xlink:href="#DejaVuSans-46"/>
       <use x="95.410156" xlink:href="#DejaVuSans-48"/>
      </g>
     </g>
    </g>
    <g id="ytick_2">
     <g id="line2d_10">
      <g>
       <use style="stroke:#000000;stroke-width:0.8;" x="144" xlink:href="#m65ffd4e590" y="377.58"/>
      </g>
     </g>
     <g id="text_11">
      <!-- 0.2 -->
      <g transform="translate(105.19375 385.178437)scale(0.2 -0.2)">
       <use xlink:href="#DejaVuSans-48"/>
       <use x="63.623047" xlink:href="#DejaVuSans-46"/>
       <use x="95.410156" xlink:href="#DejaVuSans-50"/>
      </g>
     </g>
    </g>
    <g id="ytick_3">
     <g id="line2d_11">
      <g>
       <use style="stroke:#000000;stroke-width:0.8;" x="144" xlink:href="#m65ffd4e590" y="331.456364"/>
      </g>
     </g>
     <g id="text_12">
      <!-- 0.4 -->
      <g transform="translate(105.19375 339.054801)scale(0.2 -0.2)">
       <defs>
        <path d="M 37.796875 64.3125 
L 12.890625 25.390625 
L 37.796875 25.390625 
z
M 35.203125 72.90625 
L 47.609375 72.90625 
L 47.609375 25.390625 
L 58.015625 25.390625 
L 58.015625 17.1875 
L 47.609375 17.1875 
L 47.609375 0 
L 37.796875 0 
L 37.796875 17.1875 
L 4.890625 17.1875 
L 4.890625 26.703125 
z
" id="DejaVuSans-52"/>
       </defs>
       <use xlink:href="#DejaVuSans-48"/>
       <use x="63.623047" xlink:href="#DejaVuSans-46"/>
       <use x="95.410156" xlink:href="#DejaVuSans-52"/>
      </g>
     </g>
    </g>
    <g id="ytick_4">
     <g id="line2d_12">
      <g>
       <use style="stroke:#000000;stroke-width:0.8;" x="144" xlink:href="#m65ffd4e590" y="285.332727"/>
      </g>
     </g>
     <g id="text_13">
      <!-- 0.6 -->
      <g transform="translate(105.19375 292.931165)scale(0.2 -0.2)">
       <defs>
        <path d="M 33.015625 40.375 
Q 26.375 40.375 22.484375 35.828125 
Q 18.609375 31.296875 18.609375 23.390625 
Q 18.609375 15.53125 22.484375 10.953125 
Q 26.375 6.390625 33.015625 6.390625 
Q 39.65625 6.390625 43.53125 10.953125 
Q 47.40625 15.53125 47.40625 23.390625 
Q 47.40625 31.296875 43.53125 35.828125 
Q 39.65625 40.375 33.015625 40.375 
z
M 52.59375 71.296875 
L 52.59375 62.3125 
Q 48.875 64.0625 45.09375 64.984375 
Q 41.3125 65.921875 37.59375 65.921875 
Q 27.828125 65.921875 22.671875 59.328125 
Q 17.53125 52.734375 16.796875 39.40625 
Q 19.671875 43.65625 24.015625 45.921875 
Q 28.375 48.1875 33.59375 48.1875 
Q 44.578125 48.1875 50.953125 41.515625 
Q 57.328125 34.859375 57.328125 23.390625 
Q 57.328125 12.15625 50.6875 5.359375 
Q 44.046875 -1.421875 33.015625 -1.421875 
Q 20.359375 -1.421875 13.671875 8.265625 
Q 6.984375 17.96875 6.984375 36.375 
Q 6.984375 53.65625 15.1875 63.9375 
Q 23.390625 74.21875 37.203125 74.21875 
Q 40.921875 74.21875 44.703125 73.484375 
Q 48.484375 72.75 52.59375 71.296875 
z
" id="DejaVuSans-54"/>
       </defs>
       <use xlink:href="#DejaVuSans-48"/>
       <use x="63.623047" xlink:href="#DejaVuSans-46"/>
       <use x="95.410156" xlink:href="#DejaVuSans-54"/>
      </g>
     </g>
    </g>
    <g id="ytick_5">
     <g id="line2d_13">
      <g>
       <use style="stroke:#000000;stroke-width:0.8;" x="144" xlink:href="#m65ffd4e590" y="239.209091"/>
      </g>
     </g>
     <g id="text_14">
      <!-- 0.8 -->
      <g transform="translate(105.19375 246.807528)scale(0.2 -0.2)">
       <defs>
        <path d="M 31.78125 34.625 
Q 24.75 34.625 20.71875 30.859375 
Q 16.703125 27.09375 16.703125 20.515625 
Q 16.703125 13.921875 20.71875 10.15625 
Q 24.75 6.390625 31.78125 6.390625 
Q 38.8125 6.390625 42.859375 10.171875 
Q 46.921875 13.96875 46.921875 20.515625 
Q 46.921875 27.09375 42.890625 30.859375 
Q 38.875 34.625 31.78125 34.625 
z
M 21.921875 38.8125 
Q 15.578125 40.375 12.03125 44.71875 
Q 8.5 49.078125 8.5 55.328125 
Q 8.5 64.0625 14.71875 69.140625 
Q 20.953125 74.21875 31.78125 74.21875 
Q 42.671875 74.21875 48.875 69.140625 
Q 55.078125 64.0625 55.078125 55.328125 
Q 55.078125 49.078125 51.53125 44.71875 
Q 48 40.375 41.703125 38.8125 
Q 48.828125 37.15625 52.796875 32.3125 
Q 56.78125 27.484375 56.78125 20.515625 
Q 56.78125 9.90625 50.3125 4.234375 
Q 43.84375 -1.421875 31.78125 -1.421875 
Q 19.734375 -1.421875 13.25 4.234375 
Q 6.78125 9.90625 6.78125 20.515625 
Q 6.78125 27.484375 10.78125 32.3125 
Q 14.796875 37.15625 21.921875 38.8125 
z
M 18.3125 54.390625 
Q 18.3125 48.734375 21.84375 45.5625 
Q 25.390625 42.390625 31.78125 42.390625 
Q 38.140625 42.390625 41.71875 45.5625 
Q 45.3125 48.734375 45.3125 54.390625 
Q 45.3125 60.0625 41.71875 63.234375 
Q 38.140625 66.40625 31.78125 66.40625 
Q 25.390625 66.40625 21.84375 63.234375 
Q 18.3125 60.0625 18.3125 54.390625 
z
" id="DejaVuSans-56"/>
       </defs>
       <use xlink:href="#DejaVuSans-48"/>
       <use x="63.623047" xlink:href="#DejaVuSans-46"/>
       <use x="95.410156" xlink:href="#DejaVuSans-56"/>
      </g>
     </g>
    </g>
    <g id="ytick_6">
     <g id="line2d_14">
      <g>
       <use style="stroke:#000000;stroke-width:0.8;" x="144" xlink:href="#m65ffd4e590" y="193.085455"/>
      </g>
     </g>
     <g id="text_15">
      <!-- 1.0 -->
      <g transform="translate(105.19375 200.683892)scale(0.2 -0.2)">
       <use xlink:href="#DejaVuSans-49"/>
       <use x="63.623047" xlink:href="#DejaVuSans-46"/>
       <use x="95.410156" xlink:href="#DejaVuSans-48"/>
      </g>
     </g>
    </g>
    <g id="ytick_7">
     <g id="line2d_15">
      <g>
       <use style="stroke:#000000;stroke-width:0.8;" x="144" xlink:href="#m65ffd4e590" y="146.961818"/>
      </g>
     </g>
     <g id="text_16">
      <!-- 1.2 -->
      <g transform="translate(105.19375 154.560256)scale(0.2 -0.2)">
       <use xlink:href="#DejaVuSans-49"/>
       <use x="63.623047" xlink:href="#DejaVuSans-46"/>
       <use x="95.410156" xlink:href="#DejaVuSans-50"/>
      </g>
     </g>
    </g>
    <g id="ytick_8">
     <g id="line2d_16">
      <g>
       <use style="stroke:#000000;stroke-width:0.8;" x="144" xlink:href="#m65ffd4e590" y="100.838182"/>
      </g>
     </g>
     <g id="text_17">
      <!-- 1.4 -->
      <g transform="translate(105.19375 108.436619)scale(0.2 -0.2)">
       <use xlink:href="#DejaVuSans-49"/>
       <use x="63.623047" xlink:href="#DejaVuSans-46"/>
       <use x="95.410156" xlink:href="#DejaVuSans-52"/>
      </g>
     </g>
    </g>
    <g id="text_18">
     <!-- Mean Activity -->
     <g transform="translate(97.034375 318.563438)rotate(-90)scale(0.2 -0.2)">
      <defs>
       <path d="M 9.8125 72.90625 
L 24.515625 72.90625 
L 43.109375 23.296875 
L 61.8125 72.90625 
L 76.515625 72.90625 
L 76.515625 0 
L 66.890625 0 
L 66.890625 64.015625 
L 48.09375 14.015625 
L 38.1875 14.015625 
L 19.390625 64.015625 
L 19.390625 0 
L 9.8125 0 
z
" id="DejaVuSans-77"/>
       <path d="M 34.28125 27.484375 
Q 23.390625 27.484375 19.1875 25 
Q 14.984375 22.515625 14.984375 16.5 
Q 14.984375 11.71875 18.140625 8.90625 
Q 21.296875 6.109375 26.703125 6.109375 
Q 34.1875 6.109375 38.703125 11.40625 
Q 43.21875 16.703125 43.21875 25.484375 
L 43.21875 27.484375 
z
M 52.203125 31.203125 
L 52.203125 0 
L 43.21875 0 
L 43.21875 8.296875 
Q 40.140625 3.328125 35.546875 0.953125 
Q 30.953125 -1.421875 24.3125 -1.421875 
Q 15.921875 -1.421875 10.953125 3.296875 
Q 6 8.015625 6 15.921875 
Q 6 25.140625 12.171875 29.828125 
Q 18.359375 34.515625 30.609375 34.515625 
L 43.21875 34.515625 
L 43.21875 35.40625 
Q 43.21875 41.609375 39.140625 45 
Q 35.0625 48.390625 27.6875 48.390625 
Q 23 48.390625 18.546875 47.265625 
Q 14.109375 46.140625 10.015625 43.890625 
L 10.015625 52.203125 
Q 14.9375 54.109375 19.578125 55.046875 
Q 24.21875 56 28.609375 56 
Q 40.484375 56 46.34375 49.84375 
Q 52.203125 43.703125 52.203125 31.203125 
z
" id="DejaVuSans-97"/>
       <path d="M 34.1875 63.1875 
L 20.796875 26.90625 
L 47.609375 26.90625 
z
M 28.609375 72.90625 
L 39.796875 72.90625 
L 67.578125 0 
L 57.328125 0 
L 50.6875 18.703125 
L 17.828125 18.703125 
L 11.1875 0 
L 0.78125 0 
z
" id="DejaVuSans-65"/>
       <path d="M 48.78125 52.59375 
L 48.78125 44.1875 
Q 44.96875 46.296875 41.140625 47.34375 
Q 37.3125 48.390625 33.40625 48.390625 
Q 24.65625 48.390625 19.8125 42.84375 
Q 14.984375 37.3125 14.984375 27.296875 
Q 14.984375 17.28125 19.8125 11.734375 
Q 24.65625 6.203125 33.40625 6.203125 
Q 37.3125 6.203125 41.140625 7.25 
Q 44.96875 8.296875 48.78125 10.40625 
L 48.78125 2.09375 
Q 45.015625 0.34375 40.984375 -0.53125 
Q 36.96875 -1.421875 32.421875 -1.421875 
Q 20.0625 -1.421875 12.78125 6.34375 
Q 5.515625 14.109375 5.515625 27.296875 
Q 5.515625 40.671875 12.859375 48.328125 
Q 20.21875 56 33.015625 56 
Q 37.15625 56 41.109375 55.140625 
Q 45.0625 54.296875 48.78125 52.59375 
z
" id="DejaVuSans-99"/>
       <path d="M 18.3125 70.21875 
L 18.3125 54.6875 
L 36.8125 54.6875 
L 36.8125 47.703125 
L 18.3125 47.703125 
L 18.3125 18.015625 
Q 18.3125 11.328125 20.140625 9.421875 
Q 21.96875 7.515625 27.59375 7.515625 
L 36.8125 7.515625 
L 36.8125 0 
L 27.59375 0 
Q 17.1875 0 13.234375 3.875 
Q 9.28125 7.765625 9.28125 18.015625 
L 9.28125 47.703125 
L 2.6875 47.703125 
L 2.6875 54.6875 
L 9.28125 54.6875 
L 9.28125 70.21875 
z
" id="DejaVuSans-116"/>
       <path d="M 2.984375 54.6875 
L 12.5 54.6875 
L 29.59375 8.796875 
L 46.6875 54.6875 
L 56.203125 54.6875 
L 35.6875 0 
L 23.484375 0 
z
" id="DejaVuSans-118"/>
       <path d="M 32.171875 -5.078125 
Q 28.375 -14.84375 24.75 -17.8125 
Q 21.140625 -20.796875 15.09375 -20.796875 
L 7.90625 -20.796875 
L 7.90625 -13.28125 
L 13.1875 -13.28125 
Q 16.890625 -13.28125 18.9375 -11.515625 
Q 21 -9.765625 23.484375 -3.21875 
L 25.09375 0.875 
L 2.984375 54.6875 
L 12.5 54.6875 
L 29.59375 11.921875 
L 46.6875 54.6875 
L 56.203125 54.6875 
z
" id="DejaVuSans-121"/>
      </defs>
      <use xlink:href="#DejaVuSans-77"/>
      <use x="86.279297" xlink:href="#DejaVuSans-101"/>
      <use x="147.802734" xlink:href="#DejaVuSans-97"/>
      <use x="209.082031" xlink:href="#DejaVuSans-110"/>
      <use x="272.460938" xlink:href="#DejaVuSans-32"/>
      <use x="304.248047" xlink:href="#DejaVuSans-65"/>
      <use x="370.90625" xlink:href="#DejaVuSans-99"/>
      <use x="425.886719" xlink:href="#DejaVuSans-116"/>
      <use x="465.095703" xlink:href="#DejaVuSans-105"/>
      <use x="492.878906" xlink:href="#DejaVuSans-118"/>
      <use x="552.058594" xlink:href="#DejaVuSans-105"/>
      <use x="579.841797" xlink:href="#DejaVuSans-116"/>
      <use x="619.050781" xlink:href="#DejaVuSans-121"/>
     </g>
    </g>
   </g>
   <g id="line2d_17">
    <path clip-path="url(#pf02a94dee7)" d="M 144 423.703636 
L 155.478857 423.703636 
L 156.754286 300.707273 
L 158.029714 193.085455 
L 159.305143 300.707273 
L 160.580571 285.332727 
L 161.856 177.710909 
L 163.131429 285.332727 
L 164.406857 285.332727 
L 165.682286 269.958182 
L 166.957714 269.958182 
L 168.233143 257.658545 
L 169.508571 162.336364 
L 170.784 251.508727 
L 172.059429 242.284 
L 173.334857 269.958182 
L 174.610286 269.958182 
L 175.885714 254.583636 
L 177.161143 269.958182 
L 178.436571 199.235273 
L 179.712 236.134182 
L 180.987429 279.182909 
L 182.262857 193.085455 
L 183.538286 193.085455 
L 184.813714 233.059273 
L 186.089143 245.358909 
L 187.364571 196.160364 
L 188.64 226.909455 
L 189.915429 242.284 
L 191.190857 260.733455 
L 192.466286 260.733455 
L 193.741714 208.46 
L 195.017143 236.134182 
L 196.292571 226.909455 
L 197.568 229.984364 
L 198.843429 236.134182 
L 200.118857 248.433818 
L 201.394286 239.209091 
L 202.669714 220.759636 
L 203.945143 217.684727 
L 205.220571 226.909455 
L 206.496 217.684727 
L 207.771429 162.336364 
L 210.322286 279.182909 
L 211.597714 223.834545 
L 212.873143 260.733455 
L 214.148571 266.883273 
L 215.424 229.984364 
L 217.974857 266.883273 
L 219.250286 239.209091 
L 220.525714 229.984364 
L 221.801143 245.358909 
L 223.076571 263.808364 
L 224.352 239.209091 
L 225.627429 223.834545 
L 226.902857 269.958182 
L 228.178286 254.583636 
L 229.453714 220.759636 
L 230.729143 236.134182 
L 232.004571 214.609818 
L 233.28 180.785818 
L 234.555429 220.759636 
L 235.830857 242.284 
L 237.106286 233.059273 
L 238.381714 217.684727 
L 239.657143 236.134182 
L 240.932571 214.609818 
L 242.208 223.834545 
L 243.483429 236.134182 
L 244.758857 245.358909 
L 246.034286 242.284 
L 247.309714 217.684727 
L 248.585143 233.059273 
L 249.860571 223.834545 
L 251.136 226.909455 
L 252.411429 220.759636 
L 253.686857 242.284 
L 254.962286 248.433818 
L 256.237714 211.534909 
L 258.788571 168.486182 
L 260.064 214.609818 
L 261.339429 239.209091 
L 262.614857 239.209091 
L 263.890286 269.958182 
L 265.165714 233.059273 
L 266.441143 236.134182 
L 267.716571 242.284 
L 268.992 229.984364 
L 270.267429 242.284 
L 271.542857 239.209091 
L 272.818286 248.433818 
L 274.093714 236.134182 
L 275.369143 226.909455 
L 276.644571 229.984364 
L 277.92 220.759636 
L 279.195429 229.984364 
L 280.470857 254.583636 
L 281.746286 257.658545 
L 283.021714 211.534909 
L 284.297143 180.785818 
L 285.572571 260.733455 
L 286.848 245.358909 
L 288.123429 257.658545 
L 289.398857 263.808364 
L 290.674286 273.033091 
L 291.949714 276.108 
L 293.225143 248.433818 
L 294.500571 254.583636 
L 295.776 269.958182 
L 297.051429 266.883273 
L 298.326857 269.958182 
L 299.602286 260.733455 
L 300.877714 269.958182 
L 302.153143 260.733455 
L 303.428571 254.583636 
L 304.704 282.257818 
L 305.979429 273.033091 
L 307.254857 273.033091 
L 308.530286 319.156727 
L 309.805714 423.703636 
L 334.038857 423.703636 
L 335.314286 408.329091 
L 337.865143 408.329091 
L 339.140571 392.954545 
L 340.416 408.329091 
L 342.966857 408.329091 
L 344.242286 423.703636 
L 346.793143 423.703636 
L 348.068571 408.329091 
L 349.344 377.58 
L 350.619429 392.954545 
L 351.894857 362.205455 
L 353.170286 392.954545 
L 355.721143 392.954545 
L 356.996571 377.58 
L 358.272 377.58 
L 359.547429 392.954545 
L 360.822857 377.58 
L 362.098286 392.954545 
L 363.373714 392.954545 
L 364.649143 408.329091 
L 365.924571 392.954545 
L 367.2 408.329091 
L 374.852571 408.329091 
L 376.128 392.954545 
L 377.403429 408.329091 
L 379.954286 408.329091 
L 382.505143 377.58 
L 383.780571 392.954545 
L 386.331429 362.205455 
L 388.882286 392.954545 
L 393.984 392.954545 
L 395.259429 362.205455 
L 396.534857 392.954545 
L 402.912 392.954545 
L 404.187429 377.58 
L 405.462857 377.58 
L 406.738286 392.954545 
L 411.84 392.954545 
L 413.115429 377.58 
L 414.390857 346.830909 
L 415.666286 300.707273 
L 416.941714 346.830909 
L 418.217143 346.830909 
L 419.492571 300.707273 
L 420.768 346.830909 
L 422.043429 346.830909 
L 423.318857 331.456364 
L 424.594286 362.205455 
L 425.869714 362.205455 
L 427.145143 346.830909 
L 428.420571 346.830909 
L 429.696 377.58 
L 430.971429 392.954545 
L 432.246857 377.58 
L 433.522286 377.58 
L 434.797714 392.954545 
L 436.073143 392.954545 
L 437.348571 346.830909 
L 439.899429 377.58 
L 442.450286 300.707273 
L 443.725714 337.606182 
L 445.001143 362.205455 
L 446.276571 362.205455 
L 447.552 331.456364 
L 448.827429 362.205455 
L 450.102857 346.830909 
L 451.378286 362.205455 
L 452.653714 346.830909 
L 453.929143 362.205455 
L 455.204571 346.830909 
L 456.48 392.954545 
L 459.030857 392.954545 
L 462.857143 346.830909 
L 464.132571 377.58 
L 465.408 362.205455 
L 466.683429 377.58 
L 470.509714 331.456364 
L 473.060571 362.205455 
L 474.336 362.205455 
L 475.611429 346.830909 
L 479.437714 346.830909 
L 480.713143 362.205455 
L 483.264 362.205455 
L 485.814857 392.954545 
L 487.090286 392.954545 
L 488.365714 423.703636 
L 512.598857 423.703636 
L 513.874286 362.205455 
L 515.149714 316.081818 
L 516.425143 362.205455 
L 518.976 331.456364 
L 520.251429 392.954545 
L 522.802286 392.954545 
L 524.077714 377.58 
L 525.353143 392.954545 
L 526.628571 377.58 
L 527.904 392.954545 
L 531.730286 392.954545 
L 533.005714 377.58 
L 534.281143 392.954545 
L 535.556571 392.954545 
L 536.832 377.58 
L 538.107429 392.954545 
L 539.382857 362.205455 
L 541.933714 331.456364 
L 543.209143 239.209091 
L 544.484571 193.085455 
L 545.76 193.085455 
L 547.035429 254.583636 
L 548.310857 223.834545 
L 549.586286 223.834545 
L 550.861714 162.336364 
L 552.137143 254.583636 
L 553.412571 239.209091 
L 554.688 254.583636 
L 555.963429 251.508727 
L 557.238857 211.534909 
L 558.514286 239.209091 
L 559.789714 193.085455 
L 561.065143 223.834545 
L 562.340571 239.209091 
L 563.616 239.209091 
L 564.891429 193.085455 
L 566.166857 116.212727 
L 567.442286 269.958182 
L 569.993143 239.209091 
L 571.268571 269.958182 
L 573.819429 269.958182 
L 575.094857 208.46 
L 576.370286 177.710909 
L 577.645714 223.834545 
L 580.196571 254.583636 
L 581.472 242.284 
L 582.747429 220.759636 
L 584.022857 208.46 
L 585.298286 223.834545 
L 586.573714 223.834545 
L 587.849143 208.46 
L 589.124571 239.209091 
L 590.4 177.710909 
L 591.675429 285.332727 
L 592.950857 319.156727 
L 594.226286 356.055636 
L 595.501714 340.681091 
L 596.777143 340.681091 
L 598.052571 349.905818 
L 599.328 352.980727 
L 600.603429 319.156727 
L 601.878857 346.830909 
L 603.154286 346.830909 
L 604.429714 337.606182 
L 606.980571 325.306545 
L 608.256 340.681091 
L 609.531429 322.231636 
L 610.806857 340.681091 
L 613.357714 346.830909 
L 614.633143 331.456364 
L 615.908571 309.932 
L 617.184 331.456364 
L 619.734857 331.456364 
L 621.010286 306.857091 
L 622.285714 331.456364 
L 623.561143 316.081818 
L 624.836571 316.081818 
L 626.112 309.932 
L 627.387429 300.707273 
L 628.662857 331.456364 
L 629.938286 322.231636 
L 631.213714 331.456364 
L 632.489143 331.456364 
L 633.764571 285.332727 
L 635.04 325.306545 
L 636.315429 300.707273 
L 637.590857 331.456364 
L 638.866286 322.231636 
L 640.141714 285.332727 
L 641.417143 260.733455 
L 642.692571 309.932 
L 643.968 349.905818 
L 645.243429 325.306545 
L 646.518857 334.531273 
L 647.794286 337.606182 
L 649.069714 349.905818 
L 650.345143 337.606182 
L 651.620571 352.980727 
L 652.896 346.830909 
L 654.171429 352.980727 
L 655.446857 322.231636 
L 656.722286 337.606182 
L 657.997714 349.905818 
L 659.273143 349.905818 
L 660.548571 334.531273 
L 661.824 334.531273 
L 663.099429 346.830909 
L 664.374857 331.456364 
L 665.650286 368.355273 
L 666.925714 423.703636 
L 691.158857 423.703636 
L 693.709714 300.707273 
L 694.985143 362.205455 
L 696.260571 362.205455 
L 697.536 300.707273 
L 698.811429 377.58 
L 700.086857 392.954545 
L 701.362286 377.58 
L 702.637714 392.954545 
L 705.188571 392.954545 
L 706.464 408.329091 
L 712.841143 408.329091 
L 714.116571 392.954545 
L 715.392 408.329091 
L 716.667429 408.329091 
L 717.942857 392.954545 
L 720.493714 392.954545 
L 721.769143 331.456364 
L 723.044571 300.707273 
L 724.32 300.707273 
L 725.595429 316.081818 
L 730.697143 316.081818 
L 731.972571 300.707273 
L 734.523429 331.456364 
L 735.798857 331.456364 
L 737.074286 316.081818 
L 740.900571 316.081818 
L 742.176 300.707273 
L 743.451429 331.456364 
L 747.277714 331.456364 
L 748.553143 346.830909 
L 749.828571 346.830909 
L 751.104 316.081818 
L 753.654857 346.830909 
L 754.930286 331.456364 
L 756.205714 331.456364 
L 757.481143 346.830909 
L 758.756571 346.830909 
L 760.032 331.456364 
L 765.133714 331.456364 
L 766.409143 346.830909 
L 767.684571 316.081818 
L 770.235429 316.081818 
L 771.510857 300.707273 
L 774.061714 300.707273 
L 775.337143 285.332727 
L 776.612571 300.707273 
L 777.888 285.332727 
L 779.163429 300.707273 
L 780.438857 300.707273 
L 782.989714 331.456364 
L 784.265143 269.958182 
L 785.540571 285.332727 
L 786.816 285.332727 
L 788.091429 254.583636 
L 789.366857 285.332727 
L 790.642286 285.332727 
L 791.917714 300.707273 
L 793.193143 193.085455 
L 795.744 193.085455 
L 798.294857 254.583636 
L 799.570286 242.284 
L 800.845714 205.385091 
L 802.121143 254.583636 
L 803.396571 254.583636 
L 804.672 269.958182 
L 805.947429 239.209091 
L 807.222857 223.834545 
L 808.498286 180.785818 
L 809.773714 236.134182 
L 811.049143 248.433818 
L 812.324571 229.984364 
L 813.6 239.209091 
L 814.875429 239.209091 
L 816.150857 269.958182 
L 818.701714 208.46 
L 819.977143 223.834545 
L 821.252571 223.834545 
L 822.528 254.583636 
L 823.803429 223.834545 
L 825.078857 239.209091 
L 826.354286 208.46 
L 827.629714 223.834545 
L 828.905143 208.46 
L 830.180571 223.834545 
L 831.456 254.583636 
L 832.731429 239.209091 
L 834.006857 254.583636 
L 835.282286 239.209091 
L 836.557714 193.085455 
L 837.833143 223.834545 
L 839.108571 223.834545 
L 841.659429 254.583636 
L 842.934857 239.209091 
L 844.210286 269.958182 
L 845.485714 423.703636 
L 869.718857 423.703636 
L 872.269714 116.212727 
L 873.545143 269.958182 
L 874.820571 269.958182 
L 876.096 116.212727 
L 877.371429 269.958182 
L 882.473143 269.958182 
L 883.748571 116.212727 
L 885.024 254.583636 
L 886.299429 254.583636 
L 887.574857 248.433818 
L 888.850286 269.958182 
L 890.125714 269.958182 
L 891.401143 257.658545 
L 892.676571 159.261455 
L 893.952 248.433818 
L 895.227429 229.984364 
L 896.502857 208.46 
L 897.778286 211.534909 
L 899.053714 282.257818 
L 900.329143 266.883273 
L 901.604571 217.684727 
L 902.88 282.257818 
L 904.155429 282.257818 
L 905.430857 254.583636 
L 906.706286 245.358909 
L 907.981714 269.958182 
L 910.532571 208.46 
L 911.808 236.134182 
L 913.083429 266.883273 
L 914.358857 245.358909 
L 915.634286 229.984364 
L 916.909714 266.883273 
L 918.185143 223.834545 
L 919.460571 223.834545 
L 920.736 208.46 
L 922.011429 162.336364 
L 923.286857 236.134182 
L 924.562286 217.684727 
L 925.837714 248.433818 
L 927.113143 211.534909 
L 928.388571 251.508727 
L 929.664 208.46 
L 930.939429 211.534909 
L 932.214857 242.284 
L 933.490286 248.433818 
L 934.765714 242.284 
L 936.041143 239.209091 
L 937.316571 220.759636 
L 938.592 205.385091 
L 939.867429 217.684727 
L 941.142857 239.209091 
L 942.418286 248.433818 
L 943.693714 245.358909 
L 944.969143 239.209091 
L 946.244571 131.587273 
L 947.52 168.486182 
L 948.795429 196.160364 
L 950.070857 269.958182 
L 951.346286 226.909455 
L 952.621714 263.808364 
L 953.897143 276.108 
L 955.172571 199.235273 
L 956.448 239.209091 
L 957.723429 257.658545 
L 958.998857 269.958182 
L 960.274286 276.108 
L 961.549714 266.883273 
L 962.825143 276.108 
L 964.100571 208.46 
L 965.376 260.733455 
L 966.651429 242.284 
L 967.926857 242.284 
L 969.202286 273.033091 
L 970.477714 269.958182 
L 971.753143 202.310182 
L 973.028571 159.261455 
L 974.304 205.385091 
L 975.579429 217.684727 
L 976.854857 223.834545 
L 978.130286 245.358909 
L 979.405714 245.358909 
L 980.681143 242.284 
L 981.956571 211.534909 
L 983.232 211.534909 
L 984.507429 205.385091 
L 985.782857 254.583636 
L 987.058286 242.284 
L 988.333714 248.433818 
L 989.609143 239.209091 
L 990.884571 226.909455 
L 992.16 199.235273 
L 993.435429 202.310182 
L 994.710857 254.583636 
L 995.986286 245.358909 
L 997.261714 190.010545 
L 998.537143 193.085455 
L 999.812571 202.310182 
L 1001.088 239.209091 
L 1002.363429 239.209091 
L 1003.638857 211.534909 
L 1004.914286 245.358909 
L 1006.189714 229.984364 
L 1007.465143 242.284 
L 1008.740571 233.059273 
L 1010.016 214.609818 
L 1011.291429 242.284 
L 1012.566857 223.834545 
L 1013.842286 236.134182 
L 1016.393143 229.984364 
L 1017.668571 236.134182 
L 1018.944 226.909455 
L 1020.219429 226.909455 
L 1021.494857 223.834545 
L 1022.770286 328.381455 
L 1024.045714 423.703636 
L 1035.524571 423.703636 
L 1035.524571 423.703636 
" style="fill:none;stroke:#000004;stroke-linecap:square;"/>
   </g>
   <g id="line2d_18">
    <path clip-path="url(#pf02a94dee7)" d="M 144 423.703636 
L 155.478857 423.703636 
L 156.754286 390.758182 
L 158.029714 291.921818 
L 159.305143 357.812727 
L 160.580571 324.867273 
L 163.131429 390.758182 
L 166.957714 390.758182 
L 168.233143 417.114545 
L 169.508571 423.703636 
L 183.538286 423.703636 
L 184.813714 417.114545 
L 187.364571 417.114545 
L 188.64 410.525455 
L 189.915429 417.114545 
L 192.466286 417.114545 
L 193.741714 410.525455 
L 195.017143 417.114545 
L 198.843429 417.114545 
L 200.118857 423.703636 
L 205.220571 423.703636 
L 206.496 410.525455 
L 207.771429 377.58 
L 209.046857 370.990909 
L 210.322286 384.169091 
L 211.597714 377.58 
L 212.873143 410.525455 
L 216.699429 410.525455 
L 217.974857 403.936364 
L 219.250286 403.936364 
L 220.525714 410.525455 
L 221.801143 410.525455 
L 223.076571 423.703636 
L 272.818286 423.703636 
L 274.093714 410.525455 
L 275.369143 417.114545 
L 276.644571 410.525455 
L 277.92 417.114545 
L 279.195429 417.114545 
L 280.470857 403.936364 
L 283.021714 417.114545 
L 284.297143 410.525455 
L 285.572571 417.114545 
L 288.123429 417.114545 
L 289.398857 403.936364 
L 291.949714 403.936364 
L 293.225143 410.525455 
L 294.500571 410.525455 
L 295.776 417.114545 
L 297.051429 417.114545 
L 298.326857 403.936364 
L 299.602286 410.525455 
L 300.877714 410.525455 
L 302.153143 390.758182 
L 303.428571 403.936364 
L 304.704 397.347273 
L 305.979429 403.936364 
L 307.254857 397.347273 
L 309.805714 423.703636 
L 334.038857 423.703636 
L 336.589714 226.030909 
L 337.865143 324.867273 
L 339.140571 324.867273 
L 340.416 226.030909 
L 341.691429 324.867273 
L 342.966857 357.812727 
L 346.793143 357.812727 
L 348.068571 324.867273 
L 349.344 390.758182 
L 350.619429 390.758182 
L 351.894857 357.812727 
L 353.170286 390.758182 
L 356.996571 390.758182 
L 358.272 357.812727 
L 359.547429 390.758182 
L 360.822857 357.812727 
L 362.098286 390.758182 
L 363.373714 390.758182 
L 364.649143 423.703636 
L 379.954286 423.703636 
L 382.505143 357.812727 
L 383.780571 390.758182 
L 386.331429 390.758182 
L 387.606857 357.812727 
L 388.882286 390.758182 
L 395.259429 390.758182 
L 396.534857 357.812727 
L 397.810286 390.758182 
L 404.187429 390.758182 
L 405.462857 357.812727 
L 406.738286 390.758182 
L 409.289143 390.758182 
L 410.564571 357.812727 
L 411.84 390.758182 
L 413.115429 357.812727 
L 414.390857 390.758182 
L 415.666286 390.758182 
L 416.941714 324.867273 
L 418.217143 357.812727 
L 419.492571 357.812727 
L 420.768 324.867273 
L 422.043429 324.867273 
L 424.594286 390.758182 
L 429.696 390.758182 
L 430.971429 357.812727 
L 432.246857 390.758182 
L 436.073143 390.758182 
L 437.348571 357.812727 
L 438.624 357.812727 
L 439.899429 390.758182 
L 441.174857 390.758182 
L 443.725714 324.867273 
L 445.001143 357.812727 
L 446.276571 357.812727 
L 447.552 324.867273 
L 448.827429 324.867273 
L 450.102857 390.758182 
L 456.48 390.758182 
L 457.755429 357.812727 
L 459.030857 390.758182 
L 465.408 390.758182 
L 466.683429 357.812727 
L 467.958857 390.758182 
L 470.509714 390.758182 
L 473.060571 324.867273 
L 474.336 357.812727 
L 475.611429 324.867273 
L 476.886857 357.812727 
L 478.162286 324.867273 
L 479.437714 390.758182 
L 483.264 390.758182 
L 484.539429 357.812727 
L 487.090286 423.703636 
L 512.598857 423.703636 
L 515.149714 357.812727 
L 516.425143 390.758182 
L 517.700571 390.758182 
L 518.976 357.812727 
L 520.251429 390.758182 
L 525.353143 390.758182 
L 526.628571 357.812727 
L 527.904 390.758182 
L 534.281143 390.758182 
L 535.556571 357.812727 
L 536.832 390.758182 
L 538.107429 390.758182 
L 539.382857 357.812727 
L 540.658286 357.812727 
L 543.209143 423.703636 
L 590.4 423.703636 
L 591.675429 291.921818 
L 594.226286 212.852727 
L 595.501714 272.154545 
L 596.777143 239.209091 
L 598.052571 186.496364 
L 599.328 305.1 
L 600.603429 291.921818 
L 601.878857 291.921818 
L 603.154286 324.867273 
L 605.705143 324.867273 
L 606.980571 291.921818 
L 608.256 324.867273 
L 609.531429 272.154545 
L 610.806857 311.689091 
L 612.082286 324.867273 
L 613.357714 324.867273 
L 614.633143 258.976364 
L 615.908571 258.976364 
L 617.184 272.154545 
L 618.459429 291.921818 
L 619.734857 291.921818 
L 621.010286 311.689091 
L 622.285714 324.867273 
L 623.561143 258.976364 
L 624.836571 324.867273 
L 626.112 324.867273 
L 627.387429 305.1 
L 628.662857 324.867273 
L 631.213714 298.510909 
L 632.489143 318.278182 
L 633.764571 291.921818 
L 635.04 324.867273 
L 636.315429 305.1 
L 637.590857 324.867273 
L 638.866286 324.867273 
L 642.692571 285.332727 
L 643.968 278.743636 
L 645.243429 232.62 
L 646.518857 285.332727 
L 647.794286 291.921818 
L 650.345143 239.209091 
L 651.620571 258.976364 
L 652.896 291.921818 
L 654.171429 278.743636 
L 655.446857 285.332727 
L 656.722286 278.743636 
L 657.997714 245.798182 
L 659.273143 285.332727 
L 660.548571 245.798182 
L 661.824 291.921818 
L 663.099429 272.154545 
L 664.374857 278.743636 
L 665.650286 324.867273 
L 666.925714 423.703636 
L 691.158857 423.703636 
L 693.709714 226.030909 
L 694.985143 324.867273 
L 696.260571 324.867273 
L 697.536 226.030909 
L 698.811429 291.921818 
L 701.362286 226.030909 
L 702.637714 226.030909 
L 703.913143 258.976364 
L 705.188571 127.194545 
L 707.739429 258.976364 
L 709.014857 226.030909 
L 710.290286 291.921818 
L 714.116571 193.085455 
L 715.392 226.030909 
L 719.218286 127.194545 
L 721.769143 258.976364 
L 723.044571 258.976364 
L 724.32 324.867273 
L 725.595429 324.867273 
L 726.870857 291.921818 
L 728.146286 324.867273 
L 729.421714 291.921818 
L 730.697143 324.867273 
L 731.972571 291.921818 
L 733.248 324.867273 
L 734.523429 324.867273 
L 735.798857 291.921818 
L 737.074286 324.867273 
L 738.349714 291.921818 
L 739.625143 324.867273 
L 740.900571 291.921818 
L 742.176 291.921818 
L 743.451429 226.030909 
L 744.726857 226.030909 
L 746.002286 291.921818 
L 747.277714 324.867273 
L 748.553143 324.867273 
L 749.828571 291.921818 
L 751.104 324.867273 
L 752.379429 291.921818 
L 753.654857 291.921818 
L 754.930286 324.867273 
L 757.481143 324.867273 
L 758.756571 291.921818 
L 760.032 324.867273 
L 761.307429 291.921818 
L 762.582857 291.921818 
L 763.858286 324.867273 
L 765.133714 291.921818 
L 766.409143 291.921818 
L 767.684571 160.14 
L 768.96 258.976364 
L 770.235429 291.921818 
L 771.510857 390.758182 
L 772.786286 423.703636 
L 813.6 423.703636 
L 816.150857 357.812727 
L 817.426286 390.758182 
L 818.701714 357.812727 
L 819.977143 357.812727 
L 822.528 423.703636 
L 895.227429 423.703636 
L 897.778286 357.812727 
L 899.053714 390.758182 
L 900.329143 357.812727 
L 901.604571 390.758182 
L 904.155429 390.758182 
L 905.430857 410.525455 
L 906.706286 417.114545 
L 907.981714 410.525455 
L 909.257143 417.114545 
L 910.532571 417.114545 
L 911.808 423.703636 
L 961.549714 423.703636 
L 962.825143 410.525455 
L 964.100571 417.114545 
L 965.376 417.114545 
L 966.651429 403.936364 
L 967.926857 410.525455 
L 969.202286 403.936364 
L 970.477714 410.525455 
L 971.753143 410.525455 
L 973.028571 423.703636 
L 1035.524571 423.703636 
L 1035.524571 423.703636 
" style="fill:none;stroke:#781c6d;stroke-linecap:square;"/>
   </g>
   <g id="line2d_19">
    <path clip-path="url(#pf02a94dee7)" d="M 144 423.703636 
L 224.352 423.703636 
L 225.627429 412.172727 
L 226.902857 412.172727 
L 228.178286 400.641818 
L 229.453714 412.172727 
L 230.729143 412.172727 
L 232.004571 400.641818 
L 233.28 400.641818 
L 234.555429 412.172727 
L 235.830857 417.938182 
L 237.106286 412.172727 
L 238.381714 417.938182 
L 239.657143 417.938182 
L 240.932571 412.172727 
L 243.483429 423.703636 
L 260.064 423.703636 
L 261.339429 412.172727 
L 262.614857 383.345455 
L 263.890286 383.345455 
L 265.165714 394.876364 
L 266.441143 371.814545 
L 268.992 406.407273 
L 270.267429 417.938182 
L 271.542857 423.703636 
L 283.021714 423.703636 
L 284.297143 389.110909 
L 285.572571 389.110909 
L 286.848 394.876364 
L 288.123429 394.876364 
L 290.674286 360.283636 
L 291.949714 383.345455 
L 293.225143 389.110909 
L 294.500571 383.345455 
L 295.776 371.814545 
L 297.051429 371.814545 
L 298.326857 366.049091 
L 299.602286 371.814545 
L 302.153143 371.814545 
L 303.428571 366.049091 
L 305.979429 377.58 
L 307.254857 377.58 
L 308.530286 406.407273 
L 309.805714 423.703636 
L 334.038857 423.703636 
L 336.589714 193.085455 
L 337.865143 308.394545 
L 339.140571 308.394545 
L 340.416 193.085455 
L 341.691429 308.394545 
L 342.966857 279.567273 
L 344.242286 193.085455 
L 345.517714 250.74 
L 346.793143 250.74 
L 348.068571 77.776364 
L 349.344 193.085455 
L 350.619429 221.912727 
L 351.894857 164.258182 
L 353.170286 221.912727 
L 354.445714 193.085455 
L 355.721143 221.912727 
L 356.996571 106.603636 
L 359.547429 221.912727 
L 360.822857 106.603636 
L 362.098286 164.258182 
L 363.373714 193.085455 
L 365.924571 135.430909 
L 367.2 135.430909 
L 369.750857 193.085455 
L 372.301714 193.085455 
L 373.577143 106.603636 
L 374.852571 193.085455 
L 376.128 77.776364 
L 377.403429 164.258182 
L 378.678857 193.085455 
L 379.954286 193.085455 
L 381.229714 221.912727 
L 382.505143 135.430909 
L 383.780571 221.912727 
L 385.056 135.430909 
L 386.331429 106.603636 
L 387.606857 193.085455 
L 388.882286 221.912727 
L 390.157714 164.258182 
L 392.708571 221.912727 
L 393.984 193.085455 
L 395.259429 135.430909 
L 396.534857 221.912727 
L 399.085714 221.912727 
L 400.361143 135.430909 
L 401.636571 221.912727 
L 402.912 221.912727 
L 404.187429 106.603636 
L 405.462857 221.912727 
L 408.013714 221.912727 
L 409.289143 193.085455 
L 410.564571 106.603636 
L 411.84 135.430909 
L 413.115429 193.085455 
L 414.390857 221.912727 
L 415.666286 308.394545 
L 416.941714 337.221818 
L 419.492571 337.221818 
L 420.768 308.394545 
L 422.043429 337.221818 
L 423.318857 250.74 
L 425.869714 250.74 
L 427.145143 279.567273 
L 428.420571 279.567273 
L 430.971429 164.258182 
L 432.246857 135.430909 
L 433.522286 193.085455 
L 434.797714 221.912727 
L 436.073143 106.603636 
L 437.348571 164.258182 
L 438.624 193.085455 
L 439.899429 250.74 
L 441.174857 250.74 
L 442.450286 308.394545 
L 443.725714 337.221818 
L 445.001143 308.394545 
L 446.276571 308.394545 
L 447.552 250.74 
L 448.827429 308.394545 
L 450.102857 279.567273 
L 451.378286 221.912727 
L 452.653714 221.912727 
L 453.929143 279.567273 
L 455.204571 250.74 
L 456.48 193.085455 
L 457.755429 221.912727 
L 459.030857 135.430909 
L 460.306286 193.085455 
L 461.581714 193.085455 
L 462.857143 164.258182 
L 464.132571 221.912727 
L 466.683429 221.912727 
L 467.958857 250.74 
L 470.509714 250.74 
L 473.060571 308.394545 
L 474.336 279.567273 
L 475.611429 279.567273 
L 476.886857 308.394545 
L 478.162286 308.394545 
L 479.437714 221.912727 
L 480.713143 279.567273 
L 481.988571 279.567273 
L 483.264 250.74 
L 484.539429 135.430909 
L 485.814857 221.912727 
L 487.090286 279.567273 
L 488.365714 423.703636 
L 512.598857 423.703636 
L 513.874286 308.394545 
L 515.149714 279.567273 
L 516.425143 308.394545 
L 517.700571 221.912727 
L 518.976 250.74 
L 520.251429 221.912727 
L 521.526857 221.912727 
L 522.802286 135.430909 
L 524.077714 135.430909 
L 525.353143 221.912727 
L 526.628571 193.085455 
L 527.904 187.32 
L 529.179429 170.023636 
L 530.454857 221.912727 
L 531.730286 221.912727 
L 533.005714 135.430909 
L 534.281143 221.912727 
L 535.556571 216.147273 
L 536.832 146.961818 
L 538.107429 187.32 
L 539.382857 135.430909 
L 540.658286 164.258182 
L 541.933714 337.221818 
L 543.209143 423.703636 
L 566.166857 423.703636 
L 567.442286 366.049091 
L 568.717714 394.876364 
L 569.993143 394.876364 
L 571.268571 371.814545 
L 572.544 389.110909 
L 573.819429 394.876364 
L 575.094857 423.703636 
L 591.675429 423.703636 
L 592.950857 366.049091 
L 594.226286 377.58 
L 595.501714 371.814545 
L 596.777143 360.283636 
L 598.052571 377.58 
L 599.328 354.518182 
L 600.603429 337.221818 
L 601.878857 279.567273 
L 603.154286 337.221818 
L 604.429714 308.394545 
L 605.705143 337.221818 
L 606.980571 319.925455 
L 608.256 308.394545 
L 609.531429 337.221818 
L 610.806857 325.690909 
L 612.082286 337.221818 
L 613.357714 314.16 
L 614.633143 302.629091 
L 615.908571 262.270909 
L 617.184 337.221818 
L 618.459429 366.049091 
L 619.734857 354.518182 
L 621.010286 366.049091 
L 622.285714 366.049091 
L 623.561143 337.221818 
L 624.836571 348.752727 
L 626.112 366.049091 
L 627.387429 366.049091 
L 628.662857 354.518182 
L 629.938286 366.049091 
L 631.213714 366.049091 
L 632.489143 337.221818 
L 633.764571 348.752727 
L 635.04 366.049091 
L 636.315429 366.049091 
L 637.590857 354.518182 
L 638.866286 366.049091 
L 640.141714 337.221818 
L 641.417143 348.752727 
L 642.692571 371.814545 
L 643.968 383.345455 
L 645.243429 383.345455 
L 646.518857 371.814545 
L 647.794286 383.345455 
L 649.069714 366.049091 
L 650.345143 383.345455 
L 651.620571 366.049091 
L 652.896 377.58 
L 654.171429 383.345455 
L 657.997714 383.345455 
L 659.273143 354.518182 
L 660.548571 383.345455 
L 661.824 360.283636 
L 663.099429 383.345455 
L 665.650286 383.345455 
L 666.925714 423.703636 
L 691.158857 423.703636 
L 693.709714 366.049091 
L 694.985143 394.876364 
L 696.260571 394.876364 
L 697.536 366.049091 
L 698.811429 394.876364 
L 700.086857 394.876364 
L 701.362286 366.049091 
L 702.637714 394.876364 
L 703.913143 394.876364 
L 706.464 337.221818 
L 707.739429 366.049091 
L 711.565714 279.567273 
L 712.841143 337.221818 
L 714.116571 308.394545 
L 715.392 337.221818 
L 716.667429 308.394545 
L 719.218286 366.049091 
L 720.493714 423.703636 
L 721.769143 423.703636 
L 723.044571 337.221818 
L 725.595429 337.221818 
L 726.870857 366.049091 
L 728.146286 337.221818 
L 729.421714 366.049091 
L 730.697143 366.049091 
L 731.972571 337.221818 
L 733.248 366.049091 
L 734.523429 366.049091 
L 735.798857 337.221818 
L 737.074286 366.049091 
L 740.900571 366.049091 
L 742.176 337.221818 
L 743.451429 366.049091 
L 744.726857 337.221818 
L 746.002286 337.221818 
L 747.277714 308.394545 
L 748.553143 337.221818 
L 749.828571 337.221818 
L 751.104 308.394545 
L 753.654857 308.394545 
L 754.930286 337.221818 
L 758.756571 337.221818 
L 760.032 308.394545 
L 762.582857 308.394545 
L 765.133714 366.049091 
L 767.684571 366.049091 
L 768.96 337.221818 
L 770.235429 394.876364 
L 771.510857 337.221818 
L 772.786286 308.394545 
L 774.061714 366.049091 
L 775.337143 366.049091 
L 776.612571 308.394545 
L 777.888 366.049091 
L 779.163429 366.049091 
L 780.438857 337.221818 
L 781.714286 337.221818 
L 782.989714 308.394545 
L 784.265143 366.049091 
L 785.540571 394.876364 
L 788.091429 394.876364 
L 789.366857 366.049091 
L 790.642286 394.876364 
L 791.917714 394.876364 
L 793.193143 423.703636 
L 797.019429 423.703636 
L 798.294857 366.049091 
L 799.570286 394.876364 
L 802.121143 394.876364 
L 803.396571 366.049091 
L 805.947429 423.703636 
L 885.024 423.703636 
L 886.299429 412.172727 
L 887.574857 394.876364 
L 888.850286 366.049091 
L 890.125714 394.876364 
L 893.952 394.876364 
L 895.227429 423.703636 
L 914.358857 423.703636 
L 915.634286 417.938182 
L 916.909714 400.641818 
L 918.185143 394.876364 
L 919.460571 366.049091 
L 922.011429 423.703636 
L 1035.524571 423.703636 
L 1035.524571 423.703636 
" style="fill:none;stroke:#ed6925;stroke-linecap:square;"/>
   </g>
   <g id="patch_3">
    <path d="M 144 441 
L 144 60.48 
" style="fill:none;stroke:#000000;stroke-linecap:square;stroke-linejoin:miter;stroke-width:0.8;"/>
   </g>
   <g id="patch_4">
    <path d="M 1036.8 441 
L 1036.8 60.48 
" style="fill:none;stroke:#000000;stroke-linecap:square;stroke-linejoin:miter;stroke-width:0.8;"/>
   </g>
   <g id="patch_5">
    <path d="M 144 441 
L 1036.8 441 
" style="fill:none;stroke:#000000;stroke-linecap:square;stroke-linejoin:miter;stroke-width:0.8;"/>
   </g>
   <g id="patch_6">
    <path d="M 144 60.48 
L 1036.8 60.48 
" style="fill:none;stroke:#000000;stroke-linecap:square;stroke-linejoin:miter;stroke-width:0.8;"/>
   </g>
   <g id="legend_1">
    <g id="line2d_20">
     <path d="M 505.914062 73.578438 
L 525.914062 73.578438 
" style="fill:none;stroke:#000004;stroke-linecap:square;"/>
    </g>
    <g id="line2d_21"/>
    <g id="text_19">
     <!-- M1 -->
     <g transform="translate(533.914062 77.078438)scale(0.1 -0.1)">
      <use xlink:href="#DejaVuSans-77"/>
      <use x="86.279297" xlink:href="#DejaVuSans-49"/>
     </g>
    </g>
    <g id="line2d_22">
     <path d="M 568.904688 73.578438 
L 588.904688 73.578438 
" style="fill:none;stroke:#781c6d;stroke-linecap:square;"/>
    </g>
    <g id="line2d_23"/>
    <g id="text_20">
     <!-- M2 -->
     <g transform="translate(596.904688 77.078438)scale(0.1 -0.1)">
      <use xlink:href="#DejaVuSans-77"/>
      <use x="86.279297" xlink:href="#DejaVuSans-50"/>
     </g>
    </g>
    <g id="line2d_24">
     <path d="M 631.895313 73.578438 
L 651.895313 73.578438 
" style="fill:none;stroke:#ed6925;stroke-linecap:square;"/>
    </g>
    <g id="line2d_25"/>
    <g id="text_21">
     <!-- M3 -->
     <g transform="translate(659.895313 77.078438)scale(0.1 -0.1)">
      <use xlink:href="#DejaVuSans-77"/>
      <use x="86.279297" xlink:href="#DejaVuSans-51"/>
     </g>
    </g>
   </g>
  </g>
 </g>
 <defs>
  <clipPath id="pf02a94dee7">
   <rect height="380.52" width="892.8" x="144" y="60.48"/>
  </clipPath>
 </defs>
</svg>
