<?xml version="1.0" encoding="utf-8" standalone="no"?>
<!DOCTYPE svg PUBLIC "-//W3C//DTD SVG 1.1//EN"
  "http://www.w3.org/Graphics/SVG/1.1/DTD/svg11.dtd">
<!-- Created with matplotlib (https://matplotlib.org/) -->
<svg height="504pt" version="1.1" viewBox="0 0 1152 504" width="1152pt" xmlns="http://www.w3.org/2000/svg" xmlns:xlink="http://www.w3.org/1999/xlink">
 <metadata>
  <rdf:RDF xmlns:cc="http://creativecommons.org/ns#" xmlns:dc="http://purl.org/dc/elements/1.1/" xmlns:rdf="http://www.w3.org/1999/02/22-rdf-syntax-ns#">
   <cc:Work>
    <dc:type rdf:resource="http://purl.org/dc/dcmitype/StillImage"/>
    <dc:date>2021-05-03T23:43:40.077557</dc:date>
    <dc:format>image/svg+xml</dc:format>
    <dc:creator>
     <cc:Agent>
      <dc:title>Matplotlib v3.3.4, https://matplotlib.org/</dc:title>
     </cc:Agent>
    </dc:creator>
   </cc:Work>
  </rdf:RDF>
 </metadata>
 <defs>
  <style type="text/css">*{stroke-linecap:butt;stroke-linejoin:round;}</style>
 </defs>
 <g id="figure_1">
  <g id="patch_1">
   <path d="M 0 504 
L 1152 504 
L 1152 0 
L 0 0 
z
" style="fill:none;"/>
  </g>
  <g id="axes_1">
   <g id="patch_2">
    <path d="M 144 441 
L 1036.8 441 
L 1036.8 60.48 
L 144 60.48 
z
" style="fill:#ffffff;"/>
   </g>
   <g id="matplotlib.axis_1">
    <g id="xtick_1">
     <g id="line2d_1">
      <defs>
       <path d="M 0 0 
L 0 3.5 
" id="m1fb2381de8" style="stroke:#000000;stroke-width:0.8;"/>
      </defs>
      <g>
       <use style="stroke:#000000;stroke-width:0.8;" x="144" xlink:href="#m1fb2381de8" y="441"/>
      </g>
     </g>
     <g id="text_1">
      <!-- 0 -->
      <g transform="translate(137.6375 463.196875)scale(0.2 -0.2)">
       <defs>
        <path d="M 31.78125 66.40625 
Q 24.171875 66.40625 20.328125 58.90625 
Q 16.5 51.421875 16.5 36.375 
Q 16.5 21.390625 20.328125 13.890625 
Q 24.171875 6.390625 31.78125 6.390625 
Q 39.453125 6.390625 43.28125 13.890625 
Q 47.125 21.390625 47.125 36.375 
Q 47.125 51.421875 43.28125 58.90625 
Q 39.453125 66.40625 31.78125 66.40625 
z
M 31.78125 74.21875 
Q 44.046875 74.21875 50.515625 64.515625 
Q 56.984375 54.828125 56.984375 36.375 
Q 56.984375 17.96875 50.515625 8.265625 
Q 44.046875 -1.421875 31.78125 -1.421875 
Q 19.53125 -1.421875 13.0625 8.265625 
Q 6.59375 17.96875 6.59375 36.375 
Q 6.59375 54.828125 13.0625 64.515625 
Q 19.53125 74.21875 31.78125 74.21875 
z
" id="DejaVuSans-48"/>
       </defs>
       <use xlink:href="#DejaVuSans-48"/>
      </g>
     </g>
    </g>
    <g id="xtick_2">
     <g id="line2d_2">
      <g>
       <use style="stroke:#000000;stroke-width:0.8;" x="271.542857" xlink:href="#m1fb2381de8" y="441"/>
      </g>
     </g>
     <g id="text_2">
      <!-- 5 -->
      <g transform="translate(265.180357 463.196875)scale(0.2 -0.2)">
       <defs>
        <path d="M 10.796875 72.90625 
L 49.515625 72.90625 
L 49.515625 64.59375 
L 19.828125 64.59375 
L 19.828125 46.734375 
Q 21.96875 47.46875 24.109375 47.828125 
Q 26.265625 48.1875 28.421875 48.1875 
Q 40.625 48.1875 47.75 41.5 
Q 54.890625 34.8125 54.890625 23.390625 
Q 54.890625 11.625 47.5625 5.09375 
Q 40.234375 -1.421875 26.90625 -1.421875 
Q 22.3125 -1.421875 17.546875 -0.640625 
Q 12.796875 0.140625 7.71875 1.703125 
L 7.71875 11.625 
Q 12.109375 9.234375 16.796875 8.0625 
Q 21.484375 6.890625 26.703125 6.890625 
Q 35.15625 6.890625 40.078125 11.328125 
Q 45.015625 15.765625 45.015625 23.390625 
Q 45.015625 31 40.078125 35.4375 
Q 35.15625 39.890625 26.703125 39.890625 
Q 22.75 39.890625 18.8125 39.015625 
Q 14.890625 38.140625 10.796875 36.28125 
z
" id="DejaVuSans-53"/>
       </defs>
       <use xlink:href="#DejaVuSans-53"/>
      </g>
     </g>
    </g>
    <g id="xtick_3">
     <g id="line2d_3">
      <g>
       <use style="stroke:#000000;stroke-width:0.8;" x="399.085714" xlink:href="#m1fb2381de8" y="441"/>
      </g>
     </g>
     <g id="text_3">
      <!-- 10 -->
      <g transform="translate(386.360714 463.196875)scale(0.2 -0.2)">
       <defs>
        <path d="M 12.40625 8.296875 
L 28.515625 8.296875 
L 28.515625 63.921875 
L 10.984375 60.40625 
L 10.984375 69.390625 
L 28.421875 72.90625 
L 38.28125 72.90625 
L 38.28125 8.296875 
L 54.390625 8.296875 
L 54.390625 0 
L 12.40625 0 
z
" id="DejaVuSans-49"/>
       </defs>
       <use xlink:href="#DejaVuSans-49"/>
       <use x="63.623047" xlink:href="#DejaVuSans-48"/>
      </g>
     </g>
    </g>
    <g id="xtick_4">
     <g id="line2d_4">
      <g>
       <use style="stroke:#000000;stroke-width:0.8;" x="526.628571" xlink:href="#m1fb2381de8" y="441"/>
      </g>
     </g>
     <g id="text_4">
      <!-- 15 -->
      <g transform="translate(513.903571 463.196875)scale(0.2 -0.2)">
       <use xlink:href="#DejaVuSans-49"/>
       <use x="63.623047" xlink:href="#DejaVuSans-53"/>
      </g>
     </g>
    </g>
    <g id="xtick_5">
     <g id="line2d_5">
      <g>
       <use style="stroke:#000000;stroke-width:0.8;" x="654.171429" xlink:href="#m1fb2381de8" y="441"/>
      </g>
     </g>
     <g id="text_5">
      <!-- 20 -->
      <g transform="translate(641.446429 463.196875)scale(0.2 -0.2)">
       <defs>
        <path d="M 19.1875 8.296875 
L 53.609375 8.296875 
L 53.609375 0 
L 7.328125 0 
L 7.328125 8.296875 
Q 12.9375 14.109375 22.625 23.890625 
Q 32.328125 33.6875 34.8125 36.53125 
Q 39.546875 41.84375 41.421875 45.53125 
Q 43.3125 49.21875 43.3125 52.78125 
Q 43.3125 58.59375 39.234375 62.25 
Q 35.15625 65.921875 28.609375 65.921875 
Q 23.96875 65.921875 18.8125 64.3125 
Q 13.671875 62.703125 7.8125 59.421875 
L 7.8125 69.390625 
Q 13.765625 71.78125 18.9375 73 
Q 24.125 74.21875 28.421875 74.21875 
Q 39.75 74.21875 46.484375 68.546875 
Q 53.21875 62.890625 53.21875 53.421875 
Q 53.21875 48.921875 51.53125 44.890625 
Q 49.859375 40.875 45.40625 35.40625 
Q 44.1875 33.984375 37.640625 27.21875 
Q 31.109375 20.453125 19.1875 8.296875 
z
" id="DejaVuSans-50"/>
       </defs>
       <use xlink:href="#DejaVuSans-50"/>
       <use x="63.623047" xlink:href="#DejaVuSans-48"/>
      </g>
     </g>
    </g>
    <g id="xtick_6">
     <g id="line2d_6">
      <g>
       <use style="stroke:#000000;stroke-width:0.8;" x="781.714286" xlink:href="#m1fb2381de8" y="441"/>
      </g>
     </g>
     <g id="text_6">
      <!-- 25 -->
      <g transform="translate(768.989286 463.196875)scale(0.2 -0.2)">
       <use xlink:href="#DejaVuSans-50"/>
       <use x="63.623047" xlink:href="#DejaVuSans-53"/>
      </g>
     </g>
    </g>
    <g id="xtick_7">
     <g id="line2d_7">
      <g>
       <use style="stroke:#000000;stroke-width:0.8;" x="909.257143" xlink:href="#m1fb2381de8" y="441"/>
      </g>
     </g>
     <g id="text_7">
      <!-- 30 -->
      <g transform="translate(896.532143 463.196875)scale(0.2 -0.2)">
       <defs>
        <path d="M 40.578125 39.3125 
Q 47.65625 37.796875 51.625 33 
Q 55.609375 28.21875 55.609375 21.1875 
Q 55.609375 10.40625 48.1875 4.484375 
Q 40.765625 -1.421875 27.09375 -1.421875 
Q 22.515625 -1.421875 17.65625 -0.515625 
Q 12.796875 0.390625 7.625 2.203125 
L 7.625 11.71875 
Q 11.71875 9.328125 16.59375 8.109375 
Q 21.484375 6.890625 26.8125 6.890625 
Q 36.078125 6.890625 40.9375 10.546875 
Q 45.796875 14.203125 45.796875 21.1875 
Q 45.796875 27.640625 41.28125 31.265625 
Q 36.765625 34.90625 28.71875 34.90625 
L 20.21875 34.90625 
L 20.21875 43.015625 
L 29.109375 43.015625 
Q 36.375 43.015625 40.234375 45.921875 
Q 44.09375 48.828125 44.09375 54.296875 
Q 44.09375 59.90625 40.109375 62.90625 
Q 36.140625 65.921875 28.71875 65.921875 
Q 24.65625 65.921875 20.015625 65.03125 
Q 15.375 64.15625 9.8125 62.3125 
L 9.8125 71.09375 
Q 15.4375 72.65625 20.34375 73.4375 
Q 25.25 74.21875 29.59375 74.21875 
Q 40.828125 74.21875 47.359375 69.109375 
Q 53.90625 64.015625 53.90625 55.328125 
Q 53.90625 49.265625 50.4375 45.09375 
Q 46.96875 40.921875 40.578125 39.3125 
z
" id="DejaVuSans-51"/>
       </defs>
       <use xlink:href="#DejaVuSans-51"/>
       <use x="63.623047" xlink:href="#DejaVuSans-48"/>
      </g>
     </g>
    </g>
    <g id="xtick_8">
     <g id="line2d_8">
      <g>
       <use style="stroke:#000000;stroke-width:0.8;" x="1036.8" xlink:href="#m1fb2381de8" y="441"/>
      </g>
     </g>
     <g id="text_8">
      <!-- 35 -->
      <g transform="translate(1024.075 463.196875)scale(0.2 -0.2)">
       <use xlink:href="#DejaVuSans-51"/>
       <use x="63.623047" xlink:href="#DejaVuSans-53"/>
      </g>
     </g>
    </g>
    <g id="text_9">
     <!-- Time (in s) -->
     <g transform="translate(537.448437 486.553125)scale(0.2 -0.2)">
      <defs>
       <path d="M -0.296875 72.90625 
L 61.375 72.90625 
L 61.375 64.59375 
L 35.5 64.59375 
L 35.5 0 
L 25.59375 0 
L 25.59375 64.59375 
L -0.296875 64.59375 
z
" id="DejaVuSans-84"/>
       <path d="M 9.421875 54.6875 
L 18.40625 54.6875 
L 18.40625 0 
L 9.421875 0 
z
M 9.421875 75.984375 
L 18.40625 75.984375 
L 18.40625 64.59375 
L 9.421875 64.59375 
z
" id="DejaVuSans-105"/>
       <path d="M 52 44.1875 
Q 55.375 50.25 60.0625 53.125 
Q 64.75 56 71.09375 56 
Q 79.640625 56 84.28125 50.015625 
Q 88.921875 44.046875 88.921875 33.015625 
L 88.921875 0 
L 79.890625 0 
L 79.890625 32.71875 
Q 79.890625 40.578125 77.09375 44.375 
Q 74.3125 48.1875 68.609375 48.1875 
Q 61.625 48.1875 57.5625 43.546875 
Q 53.515625 38.921875 53.515625 30.90625 
L 53.515625 0 
L 44.484375 0 
L 44.484375 32.71875 
Q 44.484375 40.625 41.703125 44.40625 
Q 38.921875 48.1875 33.109375 48.1875 
Q 26.21875 48.1875 22.15625 43.53125 
Q 18.109375 38.875 18.109375 30.90625 
L 18.109375 0 
L 9.078125 0 
L 9.078125 54.6875 
L 18.109375 54.6875 
L 18.109375 46.1875 
Q 21.1875 51.21875 25.484375 53.609375 
Q 29.78125 56 35.6875 56 
Q 41.65625 56 45.828125 52.96875 
Q 50 49.953125 52 44.1875 
z
" id="DejaVuSans-109"/>
       <path d="M 56.203125 29.59375 
L 56.203125 25.203125 
L 14.890625 25.203125 
Q 15.484375 15.921875 20.484375 11.0625 
Q 25.484375 6.203125 34.421875 6.203125 
Q 39.59375 6.203125 44.453125 7.46875 
Q 49.3125 8.734375 54.109375 11.28125 
L 54.109375 2.78125 
Q 49.265625 0.734375 44.1875 -0.34375 
Q 39.109375 -1.421875 33.890625 -1.421875 
Q 20.796875 -1.421875 13.15625 6.1875 
Q 5.515625 13.8125 5.515625 26.8125 
Q 5.515625 40.234375 12.765625 48.109375 
Q 20.015625 56 32.328125 56 
Q 43.359375 56 49.78125 48.890625 
Q 56.203125 41.796875 56.203125 29.59375 
z
M 47.21875 32.234375 
Q 47.125 39.59375 43.09375 43.984375 
Q 39.0625 48.390625 32.421875 48.390625 
Q 24.90625 48.390625 20.390625 44.140625 
Q 15.875 39.890625 15.1875 32.171875 
z
" id="DejaVuSans-101"/>
       <path id="DejaVuSans-32"/>
       <path d="M 31 75.875 
Q 24.46875 64.65625 21.28125 53.65625 
Q 18.109375 42.671875 18.109375 31.390625 
Q 18.109375 20.125 21.3125 9.0625 
Q 24.515625 -2 31 -13.1875 
L 23.1875 -13.1875 
Q 15.875 -1.703125 12.234375 9.375 
Q 8.59375 20.453125 8.59375 31.390625 
Q 8.59375 42.28125 12.203125 53.3125 
Q 15.828125 64.359375 23.1875 75.875 
z
" id="DejaVuSans-40"/>
       <path d="M 54.890625 33.015625 
L 54.890625 0 
L 45.90625 0 
L 45.90625 32.71875 
Q 45.90625 40.484375 42.875 44.328125 
Q 39.84375 48.1875 33.796875 48.1875 
Q 26.515625 48.1875 22.3125 43.546875 
Q 18.109375 38.921875 18.109375 30.90625 
L 18.109375 0 
L 9.078125 0 
L 9.078125 54.6875 
L 18.109375 54.6875 
L 18.109375 46.1875 
Q 21.34375 51.125 25.703125 53.5625 
Q 30.078125 56 35.796875 56 
Q 45.21875 56 50.046875 50.171875 
Q 54.890625 44.34375 54.890625 33.015625 
z
" id="DejaVuSans-110"/>
       <path d="M 44.28125 53.078125 
L 44.28125 44.578125 
Q 40.484375 46.53125 36.375 47.5 
Q 32.28125 48.484375 27.875 48.484375 
Q 21.1875 48.484375 17.84375 46.4375 
Q 14.5 44.390625 14.5 40.28125 
Q 14.5 37.15625 16.890625 35.375 
Q 19.28125 33.59375 26.515625 31.984375 
L 29.59375 31.296875 
Q 39.15625 29.25 43.1875 25.515625 
Q 47.21875 21.78125 47.21875 15.09375 
Q 47.21875 7.46875 41.1875 3.015625 
Q 35.15625 -1.421875 24.609375 -1.421875 
Q 20.21875 -1.421875 15.453125 -0.5625 
Q 10.6875 0.296875 5.421875 2 
L 5.421875 11.28125 
Q 10.40625 8.6875 15.234375 7.390625 
Q 20.0625 6.109375 24.8125 6.109375 
Q 31.15625 6.109375 34.5625 8.28125 
Q 37.984375 10.453125 37.984375 14.40625 
Q 37.984375 18.0625 35.515625 20.015625 
Q 33.0625 21.96875 24.703125 23.78125 
L 21.578125 24.515625 
Q 13.234375 26.265625 9.515625 29.90625 
Q 5.8125 33.546875 5.8125 39.890625 
Q 5.8125 47.609375 11.28125 51.796875 
Q 16.75 56 26.8125 56 
Q 31.78125 56 36.171875 55.265625 
Q 40.578125 54.546875 44.28125 53.078125 
z
" id="DejaVuSans-115"/>
       <path d="M 8.015625 75.875 
L 15.828125 75.875 
Q 23.140625 64.359375 26.78125 53.3125 
Q 30.421875 42.28125 30.421875 31.390625 
Q 30.421875 20.453125 26.78125 9.375 
Q 23.140625 -1.703125 15.828125 -13.1875 
L 8.015625 -13.1875 
Q 14.5 -2 17.703125 9.0625 
Q 20.90625 20.125 20.90625 31.390625 
Q 20.90625 42.671875 17.703125 53.65625 
Q 14.5 64.65625 8.015625 75.875 
z
" id="DejaVuSans-41"/>
      </defs>
      <use xlink:href="#DejaVuSans-84"/>
      <use x="57.958984" xlink:href="#DejaVuSans-105"/>
      <use x="85.742188" xlink:href="#DejaVuSans-109"/>
      <use x="183.154297" xlink:href="#DejaVuSans-101"/>
      <use x="244.677734" xlink:href="#DejaVuSans-32"/>
      <use x="276.464844" xlink:href="#DejaVuSans-40"/>
      <use x="315.478516" xlink:href="#DejaVuSans-105"/>
      <use x="343.261719" xlink:href="#DejaVuSans-110"/>
      <use x="406.640625" xlink:href="#DejaVuSans-32"/>
      <use x="438.427734" xlink:href="#DejaVuSans-115"/>
      <use x="490.527344" xlink:href="#DejaVuSans-41"/>
     </g>
    </g>
   </g>
   <g id="matplotlib.axis_2">
    <g id="ytick_1">
     <g id="line2d_9">
      <defs>
       <path d="M 0 0 
L -3.5 0 
" id="m066be461da" style="stroke:#000000;stroke-width:0.8;"/>
      </defs>
      <g>
       <use style="stroke:#000000;stroke-width:0.8;" x="144" xlink:href="#m066be461da" y="423.703636"/>
      </g>
     </g>
     <g id="text_10">
      <!-- 0.0 -->
      <g transform="translate(105.19375 431.302074)scale(0.2 -0.2)">
       <defs>
        <path d="M 10.6875 12.40625 
L 21 12.40625 
L 21 0 
L 10.6875 0 
z
" id="DejaVuSans-46"/>
       </defs>
       <use xlink:href="#DejaVuSans-48"/>
       <use x="63.623047" xlink:href="#DejaVuSans-46"/>
       <use x="95.410156" xlink:href="#DejaVuSans-48"/>
      </g>
     </g>
    </g>
    <g id="ytick_2">
     <g id="line2d_10">
      <g>
       <use style="stroke:#000000;stroke-width:0.8;" x="144" xlink:href="#m066be461da" y="368.355273"/>
      </g>
     </g>
     <g id="text_11">
      <!-- 0.2 -->
      <g transform="translate(105.19375 375.95371)scale(0.2 -0.2)">
       <use xlink:href="#DejaVuSans-48"/>
       <use x="63.623047" xlink:href="#DejaVuSans-46"/>
       <use x="95.410156" xlink:href="#DejaVuSans-50"/>
      </g>
     </g>
    </g>
    <g id="ytick_3">
     <g id="line2d_11">
      <g>
       <use style="stroke:#000000;stroke-width:0.8;" x="144" xlink:href="#m066be461da" y="313.006909"/>
      </g>
     </g>
     <g id="text_12">
      <!-- 0.4 -->
      <g transform="translate(105.19375 320.605347)scale(0.2 -0.2)">
       <defs>
        <path d="M 37.796875 64.3125 
L 12.890625 25.390625 
L 37.796875 25.390625 
z
M 35.203125 72.90625 
L 47.609375 72.90625 
L 47.609375 25.390625 
L 58.015625 25.390625 
L 58.015625 17.1875 
L 47.609375 17.1875 
L 47.609375 0 
L 37.796875 0 
L 37.796875 17.1875 
L 4.890625 17.1875 
L 4.890625 26.703125 
z
" id="DejaVuSans-52"/>
       </defs>
       <use xlink:href="#DejaVuSans-48"/>
       <use x="63.623047" xlink:href="#DejaVuSans-46"/>
       <use x="95.410156" xlink:href="#DejaVuSans-52"/>
      </g>
     </g>
    </g>
    <g id="ytick_4">
     <g id="line2d_12">
      <g>
       <use style="stroke:#000000;stroke-width:0.8;" x="144" xlink:href="#m066be461da" y="257.658545"/>
      </g>
     </g>
     <g id="text_13">
      <!-- 0.6 -->
      <g transform="translate(105.19375 265.256983)scale(0.2 -0.2)">
       <defs>
        <path d="M 33.015625 40.375 
Q 26.375 40.375 22.484375 35.828125 
Q 18.609375 31.296875 18.609375 23.390625 
Q 18.609375 15.53125 22.484375 10.953125 
Q 26.375 6.390625 33.015625 6.390625 
Q 39.65625 6.390625 43.53125 10.953125 
Q 47.40625 15.53125 47.40625 23.390625 
Q 47.40625 31.296875 43.53125 35.828125 
Q 39.65625 40.375 33.015625 40.375 
z
M 52.59375 71.296875 
L 52.59375 62.3125 
Q 48.875 64.0625 45.09375 64.984375 
Q 41.3125 65.921875 37.59375 65.921875 
Q 27.828125 65.921875 22.671875 59.328125 
Q 17.53125 52.734375 16.796875 39.40625 
Q 19.671875 43.65625 24.015625 45.921875 
Q 28.375 48.1875 33.59375 48.1875 
Q 44.578125 48.1875 50.953125 41.515625 
Q 57.328125 34.859375 57.328125 23.390625 
Q 57.328125 12.15625 50.6875 5.359375 
Q 44.046875 -1.421875 33.015625 -1.421875 
Q 20.359375 -1.421875 13.671875 8.265625 
Q 6.984375 17.96875 6.984375 36.375 
Q 6.984375 53.65625 15.1875 63.9375 
Q 23.390625 74.21875 37.203125 74.21875 
Q 40.921875 74.21875 44.703125 73.484375 
Q 48.484375 72.75 52.59375 71.296875 
z
" id="DejaVuSans-54"/>
       </defs>
       <use xlink:href="#DejaVuSans-48"/>
       <use x="63.623047" xlink:href="#DejaVuSans-46"/>
       <use x="95.410156" xlink:href="#DejaVuSans-54"/>
      </g>
     </g>
    </g>
    <g id="ytick_5">
     <g id="line2d_13">
      <g>
       <use style="stroke:#000000;stroke-width:0.8;" x="144" xlink:href="#m066be461da" y="202.310182"/>
      </g>
     </g>
     <g id="text_14">
      <!-- 0.8 -->
      <g transform="translate(105.19375 209.908619)scale(0.2 -0.2)">
       <defs>
        <path d="M 31.78125 34.625 
Q 24.75 34.625 20.71875 30.859375 
Q 16.703125 27.09375 16.703125 20.515625 
Q 16.703125 13.921875 20.71875 10.15625 
Q 24.75 6.390625 31.78125 6.390625 
Q 38.8125 6.390625 42.859375 10.171875 
Q 46.921875 13.96875 46.921875 20.515625 
Q 46.921875 27.09375 42.890625 30.859375 
Q 38.875 34.625 31.78125 34.625 
z
M 21.921875 38.8125 
Q 15.578125 40.375 12.03125 44.71875 
Q 8.5 49.078125 8.5 55.328125 
Q 8.5 64.0625 14.71875 69.140625 
Q 20.953125 74.21875 31.78125 74.21875 
Q 42.671875 74.21875 48.875 69.140625 
Q 55.078125 64.0625 55.078125 55.328125 
Q 55.078125 49.078125 51.53125 44.71875 
Q 48 40.375 41.703125 38.8125 
Q 48.828125 37.15625 52.796875 32.3125 
Q 56.78125 27.484375 56.78125 20.515625 
Q 56.78125 9.90625 50.3125 4.234375 
Q 43.84375 -1.421875 31.78125 -1.421875 
Q 19.734375 -1.421875 13.25 4.234375 
Q 6.78125 9.90625 6.78125 20.515625 
Q 6.78125 27.484375 10.78125 32.3125 
Q 14.796875 37.15625 21.921875 38.8125 
z
M 18.3125 54.390625 
Q 18.3125 48.734375 21.84375 45.5625 
Q 25.390625 42.390625 31.78125 42.390625 
Q 38.140625 42.390625 41.71875 45.5625 
Q 45.3125 48.734375 45.3125 54.390625 
Q 45.3125 60.0625 41.71875 63.234375 
Q 38.140625 66.40625 31.78125 66.40625 
Q 25.390625 66.40625 21.84375 63.234375 
Q 18.3125 60.0625 18.3125 54.390625 
z
" id="DejaVuSans-56"/>
       </defs>
       <use xlink:href="#DejaVuSans-48"/>
       <use x="63.623047" xlink:href="#DejaVuSans-46"/>
       <use x="95.410156" xlink:href="#DejaVuSans-56"/>
      </g>
     </g>
    </g>
    <g id="ytick_6">
     <g id="line2d_14">
      <g>
       <use style="stroke:#000000;stroke-width:0.8;" x="144" xlink:href="#m066be461da" y="146.961818"/>
      </g>
     </g>
     <g id="text_15">
      <!-- 1.0 -->
      <g transform="translate(105.19375 154.560256)scale(0.2 -0.2)">
       <use xlink:href="#DejaVuSans-49"/>
       <use x="63.623047" xlink:href="#DejaVuSans-46"/>
       <use x="95.410156" xlink:href="#DejaVuSans-48"/>
      </g>
     </g>
    </g>
    <g id="ytick_7">
     <g id="line2d_15">
      <g>
       <use style="stroke:#000000;stroke-width:0.8;" x="144" xlink:href="#m066be461da" y="91.613455"/>
      </g>
     </g>
     <g id="text_16">
      <!-- 1.2 -->
      <g transform="translate(105.19375 99.211892)scale(0.2 -0.2)">
       <use xlink:href="#DejaVuSans-49"/>
       <use x="63.623047" xlink:href="#DejaVuSans-46"/>
       <use x="95.410156" xlink:href="#DejaVuSans-50"/>
      </g>
     </g>
    </g>
    <g id="text_17">
     <!-- Mean Activity -->
     <g transform="translate(97.034375 318.563438)rotate(-90)scale(0.2 -0.2)">
      <defs>
       <path d="M 9.8125 72.90625 
L 24.515625 72.90625 
L 43.109375 23.296875 
L 61.8125 72.90625 
L 76.515625 72.90625 
L 76.515625 0 
L 66.890625 0 
L 66.890625 64.015625 
L 48.09375 14.015625 
L 38.1875 14.015625 
L 19.390625 64.015625 
L 19.390625 0 
L 9.8125 0 
z
" id="DejaVuSans-77"/>
       <path d="M 34.28125 27.484375 
Q 23.390625 27.484375 19.1875 25 
Q 14.984375 22.515625 14.984375 16.5 
Q 14.984375 11.71875 18.140625 8.90625 
Q 21.296875 6.109375 26.703125 6.109375 
Q 34.1875 6.109375 38.703125 11.40625 
Q 43.21875 16.703125 43.21875 25.484375 
L 43.21875 27.484375 
z
M 52.203125 31.203125 
L 52.203125 0 
L 43.21875 0 
L 43.21875 8.296875 
Q 40.140625 3.328125 35.546875 0.953125 
Q 30.953125 -1.421875 24.3125 -1.421875 
Q 15.921875 -1.421875 10.953125 3.296875 
Q 6 8.015625 6 15.921875 
Q 6 25.140625 12.171875 29.828125 
Q 18.359375 34.515625 30.609375 34.515625 
L 43.21875 34.515625 
L 43.21875 35.40625 
Q 43.21875 41.609375 39.140625 45 
Q 35.0625 48.390625 27.6875 48.390625 
Q 23 48.390625 18.546875 47.265625 
Q 14.109375 46.140625 10.015625 43.890625 
L 10.015625 52.203125 
Q 14.9375 54.109375 19.578125 55.046875 
Q 24.21875 56 28.609375 56 
Q 40.484375 56 46.34375 49.84375 
Q 52.203125 43.703125 52.203125 31.203125 
z
" id="DejaVuSans-97"/>
       <path d="M 34.1875 63.1875 
L 20.796875 26.90625 
L 47.609375 26.90625 
z
M 28.609375 72.90625 
L 39.796875 72.90625 
L 67.578125 0 
L 57.328125 0 
L 50.6875 18.703125 
L 17.828125 18.703125 
L 11.1875 0 
L 0.78125 0 
z
" id="DejaVuSans-65"/>
       <path d="M 48.78125 52.59375 
L 48.78125 44.1875 
Q 44.96875 46.296875 41.140625 47.34375 
Q 37.3125 48.390625 33.40625 48.390625 
Q 24.65625 48.390625 19.8125 42.84375 
Q 14.984375 37.3125 14.984375 27.296875 
Q 14.984375 17.28125 19.8125 11.734375 
Q 24.65625 6.203125 33.40625 6.203125 
Q 37.3125 6.203125 41.140625 7.25 
Q 44.96875 8.296875 48.78125 10.40625 
L 48.78125 2.09375 
Q 45.015625 0.34375 40.984375 -0.53125 
Q 36.96875 -1.421875 32.421875 -1.421875 
Q 20.0625 -1.421875 12.78125 6.34375 
Q 5.515625 14.109375 5.515625 27.296875 
Q 5.515625 40.671875 12.859375 48.328125 
Q 20.21875 56 33.015625 56 
Q 37.15625 56 41.109375 55.140625 
Q 45.0625 54.296875 48.78125 52.59375 
z
" id="DejaVuSans-99"/>
       <path d="M 18.3125 70.21875 
L 18.3125 54.6875 
L 36.8125 54.6875 
L 36.8125 47.703125 
L 18.3125 47.703125 
L 18.3125 18.015625 
Q 18.3125 11.328125 20.140625 9.421875 
Q 21.96875 7.515625 27.59375 7.515625 
L 36.8125 7.515625 
L 36.8125 0 
L 27.59375 0 
Q 17.1875 0 13.234375 3.875 
Q 9.28125 7.765625 9.28125 18.015625 
L 9.28125 47.703125 
L 2.6875 47.703125 
L 2.6875 54.6875 
L 9.28125 54.6875 
L 9.28125 70.21875 
z
" id="DejaVuSans-116"/>
       <path d="M 2.984375 54.6875 
L 12.5 54.6875 
L 29.59375 8.796875 
L 46.6875 54.6875 
L 56.203125 54.6875 
L 35.6875 0 
L 23.484375 0 
z
" id="DejaVuSans-118"/>
       <path d="M 32.171875 -5.078125 
Q 28.375 -14.84375 24.75 -17.8125 
Q 21.140625 -20.796875 15.09375 -20.796875 
L 7.90625 -20.796875 
L 7.90625 -13.28125 
L 13.1875 -13.28125 
Q 16.890625 -13.28125 18.9375 -11.515625 
Q 21 -9.765625 23.484375 -3.21875 
L 25.09375 0.875 
L 2.984375 54.6875 
L 12.5 54.6875 
L 29.59375 11.921875 
L 46.6875 54.6875 
L 56.203125 54.6875 
z
" id="DejaVuSans-121"/>
      </defs>
      <use xlink:href="#DejaVuSans-77"/>
      <use x="86.279297" xlink:href="#DejaVuSans-101"/>
      <use x="147.802734" xlink:href="#DejaVuSans-97"/>
      <use x="209.082031" xlink:href="#DejaVuSans-110"/>
      <use x="272.460938" xlink:href="#DejaVuSans-32"/>
      <use x="304.248047" xlink:href="#DejaVuSans-65"/>
      <use x="370.90625" xlink:href="#DejaVuSans-99"/>
      <use x="425.886719" xlink:href="#DejaVuSans-116"/>
      <use x="465.095703" xlink:href="#DejaVuSans-105"/>
      <use x="492.878906" xlink:href="#DejaVuSans-118"/>
      <use x="552.058594" xlink:href="#DejaVuSans-105"/>
      <use x="579.841797" xlink:href="#DejaVuSans-116"/>
      <use x="619.050781" xlink:href="#DejaVuSans-121"/>
     </g>
    </g>
   </g>
   <g id="line2d_16">
    <path clip-path="url(#p809a58b3b3)" d="M 144 423.703636 
L 155.478857 423.703636 
L 158.029714 354.518182 
L 159.305143 389.110909 
L 160.580571 389.110909 
L 161.856 354.518182 
L 163.131429 389.110909 
L 166.957714 389.110909 
L 168.233143 354.518182 
L 169.508571 389.110909 
L 170.784 389.110909 
L 172.059429 354.518182 
L 173.334857 389.110909 
L 178.436571 389.110909 
L 179.712 354.518182 
L 180.987429 389.110909 
L 182.262857 354.518182 
L 183.538286 389.110909 
L 186.089143 389.110909 
L 187.364571 354.518182 
L 188.64 389.110909 
L 193.741714 389.110909 
L 195.017143 423.703636 
L 206.496 423.703636 
L 207.771429 354.518182 
L 209.046857 375.273818 
L 210.322286 299.169818 
L 211.597714 243.821455 
L 212.873143 126.206182 
L 214.148571 236.902909 
L 215.424 195.391636 
L 216.699429 126.206182 
L 217.974857 202.310182 
L 219.250286 236.902909 
L 220.525714 229.984364 
L 221.801143 236.902909 
L 223.076571 209.228727 
L 224.352 133.124727 
L 225.627429 250.74 
L 226.902857 250.74 
L 229.453714 319.925455 
L 230.729143 319.925455 
L 232.004571 292.251273 
L 233.28 382.192364 
L 234.555429 354.518182 
L 235.830857 389.110909 
L 237.106286 361.436727 
L 238.381714 382.192364 
L 239.657143 389.110909 
L 242.208 389.110909 
L 243.483429 354.518182 
L 244.758857 389.110909 
L 249.860571 389.110909 
L 251.136 354.518182 
L 252.411429 423.703636 
L 285.572571 423.703636 
L 286.848 326.844 
L 288.123429 278.414182 
L 289.398857 278.414182 
L 290.674286 209.228727 
L 291.949714 202.310182 
L 293.225143 278.414182 
L 294.500571 271.495636 
L 295.776 236.902909 
L 297.051429 243.821455 
L 298.326857 243.821455 
L 299.602286 250.74 
L 300.877714 285.332727 
L 302.153143 285.332727 
L 303.428571 299.169818 
L 304.704 285.332727 
L 305.979429 340.681091 
L 307.254857 313.006909 
L 308.530286 389.110909 
L 309.805714 423.703636 
L 334.038857 423.703636 
L 335.314286 319.925455 
L 336.589714 250.74 
L 337.865143 319.925455 
L 340.416 250.74 
L 341.691429 319.925455 
L 342.966857 354.518182 
L 344.242286 354.518182 
L 345.517714 319.925455 
L 346.793143 354.518182 
L 348.068571 319.925455 
L 349.344 354.518182 
L 353.170286 354.518182 
L 354.445714 319.925455 
L 355.721143 354.518182 
L 356.996571 354.518182 
L 358.272 319.925455 
L 362.098286 423.703636 
L 387.606857 423.703636 
L 388.882286 354.518182 
L 390.157714 389.110909 
L 391.433143 389.110909 
L 392.708571 354.518182 
L 393.984 389.110909 
L 399.085714 389.110909 
L 400.361143 354.518182 
L 401.636571 389.110909 
L 408.013714 389.110909 
L 409.289143 354.518182 
L 411.84 423.703636 
L 436.073143 423.703636 
L 437.348571 354.518182 
L 438.624 389.110909 
L 439.899429 354.518182 
L 441.174857 389.110909 
L 446.276571 389.110909 
L 447.552 354.518182 
L 450.102857 423.703636 
L 512.598857 423.703636 
L 513.874286 347.599636 
L 515.149714 250.74 
L 516.425143 319.925455 
L 518.976 250.74 
L 520.251429 354.518182 
L 524.077714 354.518182 
L 525.353143 340.681091 
L 526.628571 313.006909 
L 527.904 340.681091 
L 529.179429 354.518182 
L 533.005714 354.518182 
L 534.281143 347.599636 
L 535.556571 313.006909 
L 538.107429 354.518182 
L 539.382857 146.961818 
L 540.658286 167.717455 
L 541.933714 257.658545 
L 543.209143 292.251273 
L 544.484571 271.495636 
L 545.76 223.065818 
L 547.035429 257.658545 
L 548.310857 271.495636 
L 549.586286 250.74 
L 550.861714 250.74 
L 552.137143 243.821455 
L 553.412571 271.495636 
L 554.688 285.332727 
L 555.963429 271.495636 
L 557.238857 292.251273 
L 558.514286 271.495636 
L 559.789714 292.251273 
L 561.065143 257.658545 
L 562.340571 299.169818 
L 563.616 229.984364 
L 564.891429 257.658545 
L 566.166857 202.310182 
L 567.442286 271.495636 
L 568.717714 264.577091 
L 569.993143 340.681091 
L 571.268571 375.273818 
L 572.544 389.110909 
L 573.819429 375.273818 
L 575.094857 389.110909 
L 576.370286 382.192364 
L 577.645714 382.192364 
L 578.921143 375.273818 
L 580.196571 361.436727 
L 581.472 368.355273 
L 582.747429 347.599636 
L 585.298286 361.436727 
L 586.573714 361.436727 
L 587.849143 354.518182 
L 589.124571 340.681091 
L 590.4 333.762545 
L 591.675429 347.599636 
L 592.950857 375.273818 
L 594.226286 375.273818 
L 596.777143 389.110909 
L 598.052571 389.110909 
L 599.328 375.273818 
L 600.603429 389.110909 
L 601.878857 382.192364 
L 604.429714 396.029455 
L 605.705143 389.110909 
L 606.980571 396.029455 
L 608.256 382.192364 
L 609.531429 396.029455 
L 610.806857 396.029455 
L 612.082286 402.948 
L 613.357714 402.948 
L 614.633143 396.029455 
L 615.908571 416.785091 
L 617.184 416.785091 
L 618.459429 389.110909 
L 619.734857 354.518182 
L 622.285714 368.355273 
L 623.561143 354.518182 
L 624.836571 361.436727 
L 626.112 375.273818 
L 627.387429 361.436727 
L 628.662857 375.273818 
L 629.938286 375.273818 
L 631.213714 368.355273 
L 632.489143 368.355273 
L 633.764571 389.110909 
L 636.315429 389.110909 
L 637.590857 402.948 
L 638.866286 402.948 
L 640.141714 375.273818 
L 641.417143 340.681091 
L 642.692571 361.436727 
L 643.968 368.355273 
L 645.243429 361.436727 
L 646.518857 333.762545 
L 647.794286 368.355273 
L 649.069714 347.599636 
L 650.345143 340.681091 
L 651.620571 361.436727 
L 652.896 340.681091 
L 655.446857 368.355273 
L 656.722286 368.355273 
L 657.997714 347.599636 
L 660.548571 375.273818 
L 661.824 375.273818 
L 663.099429 389.110909 
L 665.650286 389.110909 
L 666.925714 423.703636 
L 716.667429 423.703636 
L 719.218286 354.518182 
L 720.493714 354.518182 
L 721.769143 319.925455 
L 723.044571 250.74 
L 724.32 250.74 
L 725.595429 285.332727 
L 726.870857 216.147273 
L 728.146286 181.554545 
L 729.421714 181.554545 
L 730.697143 250.74 
L 731.972571 216.147273 
L 733.248 216.147273 
L 734.523429 250.74 
L 735.798857 216.147273 
L 737.074286 250.74 
L 738.349714 216.147273 
L 739.625143 285.332727 
L 740.900571 319.925455 
L 742.176 319.925455 
L 743.451429 285.332727 
L 744.726857 319.925455 
L 746.002286 389.110909 
L 747.277714 354.518182 
L 748.553143 389.110909 
L 756.205714 389.110909 
L 757.481143 354.518182 
L 758.756571 354.518182 
L 760.032 250.74 
L 761.307429 319.925455 
L 762.582857 319.925455 
L 763.858286 250.74 
L 765.133714 319.925455 
L 766.409143 285.332727 
L 767.684571 319.925455 
L 768.96 319.925455 
L 770.235429 354.518182 
L 772.786286 216.147273 
L 774.061714 319.925455 
L 775.337143 319.925455 
L 777.888 250.74 
L 779.163429 319.925455 
L 781.714286 319.925455 
L 782.989714 216.147273 
L 784.265143 250.74 
L 785.540571 146.961818 
L 786.816 181.554545 
L 788.091429 250.74 
L 791.917714 250.74 
L 793.193143 112.369091 
L 794.468571 77.776364 
L 795.744 250.74 
L 798.294857 389.110909 
L 802.121143 389.110909 
L 803.396571 354.518182 
L 804.672 389.110909 
L 811.049143 389.110909 
L 812.324571 285.332727 
L 813.6 319.925455 
L 814.875429 285.332727 
L 816.150857 285.332727 
L 817.426286 319.925455 
L 818.701714 319.925455 
L 819.977143 285.332727 
L 821.252571 285.332727 
L 822.528 216.147273 
L 825.078857 216.147273 
L 826.354286 250.74 
L 827.629714 216.147273 
L 828.905143 250.74 
L 830.180571 319.925455 
L 831.456 285.332727 
L 832.731429 319.925455 
L 834.006857 319.925455 
L 835.282286 285.332727 
L 836.557714 319.925455 
L 837.833143 285.332727 
L 839.108571 285.332727 
L 840.384 216.147273 
L 841.659429 250.74 
L 842.934857 250.74 
L 844.210286 285.332727 
L 845.485714 423.703636 
L 869.718857 423.703636 
L 870.994286 354.518182 
L 872.269714 319.925455 
L 873.545143 354.518182 
L 874.820571 319.925455 
L 876.096 319.925455 
L 878.646857 389.110909 
L 879.922286 389.110909 
L 881.197714 354.518182 
L 883.748571 423.703636 
L 895.227429 423.703636 
L 896.502857 354.518182 
L 897.778286 354.518182 
L 899.053714 389.110909 
L 902.88 389.110909 
L 904.155429 354.518182 
L 905.430857 389.110909 
L 909.257143 389.110909 
L 910.532571 396.029455 
L 911.808 423.703636 
L 923.286857 423.703636 
L 924.562286 389.110909 
L 925.837714 389.110909 
L 927.113143 354.518182 
L 928.388571 389.110909 
L 930.939429 389.110909 
L 932.214857 354.518182 
L 933.490286 389.110909 
L 938.592 389.110909 
L 939.867429 354.518182 
L 941.142857 389.110909 
L 948.795429 389.110909 
L 950.070857 354.518182 
L 951.346286 389.110909 
L 956.448 389.110909 
L 957.723429 423.703636 
L 974.304 423.703636 
L 975.579429 375.273818 
L 976.854857 375.273818 
L 978.130286 354.518182 
L 979.405714 375.273818 
L 980.681143 382.192364 
L 981.956571 375.273818 
L 983.232 354.518182 
L 984.507429 382.192364 
L 987.058286 368.355273 
L 988.333714 382.192364 
L 989.609143 389.110909 
L 990.884571 382.192364 
L 992.16 368.355273 
L 993.435429 382.192364 
L 994.710857 389.110909 
L 997.261714 389.110909 
L 998.537143 409.866545 
L 999.812571 416.785091 
L 1001.088 354.518182 
L 1003.638857 382.192364 
L 1004.914286 354.518182 
L 1006.189714 375.273818 
L 1007.465143 382.192364 
L 1010.016 382.192364 
L 1011.291429 354.518182 
L 1012.566857 375.273818 
L 1013.842286 375.273818 
L 1015.117714 389.110909 
L 1018.944 389.110909 
L 1020.219429 361.436727 
L 1021.494857 382.192364 
L 1022.770286 423.703636 
L 1035.524571 423.703636 
L 1035.524571 423.703636 
" style="fill:none;stroke:#000004;stroke-linecap:square;"/>
   </g>
   <g id="line2d_17">
    <path clip-path="url(#p809a58b3b3)" d="M 144 423.703636 
L 155.478857 423.703636 
L 158.029714 119.287636 
L 159.305143 265.565455 
L 160.580571 245.798182 
L 161.856 127.194545 
L 163.131429 265.565455 
L 164.406857 265.565455 
L 165.682286 245.798182 
L 166.957714 245.798182 
L 169.508571 206.263636 
L 170.784 285.332727 
L 172.059429 226.030909 
L 173.334857 285.332727 
L 174.610286 305.1 
L 175.885714 305.1 
L 177.161143 344.634545 
L 178.436571 305.1 
L 180.987429 344.634545 
L 182.262857 305.1 
L 183.538286 305.1 
L 184.813714 324.867273 
L 186.089143 324.867273 
L 187.364571 301.146545 
L 188.64 210.217091 
L 189.915429 226.030909 
L 191.190857 245.798182 
L 192.466286 226.030909 
L 193.741714 245.798182 
L 195.017143 206.263636 
L 196.292571 186.496364 
L 197.568 226.030909 
L 198.843429 166.729091 
L 200.118857 245.798182 
L 201.394286 206.263636 
L 202.669714 245.798182 
L 205.220571 206.263636 
L 206.496 146.961818 
L 207.771429 265.565455 
L 209.046857 245.798182 
L 210.322286 344.634545 
L 211.597714 388.122545 
L 215.424 388.122545 
L 216.699429 352.541455 
L 217.974857 388.122545 
L 224.352 388.122545 
L 225.627429 348.588 
L 226.902857 380.215636 
L 228.178286 384.169091 
L 229.453714 364.401818 
L 230.729143 340.681091 
L 232.004571 324.867273 
L 233.28 245.798182 
L 234.555429 226.030909 
L 235.830857 229.984364 
L 237.106286 182.542909 
L 238.381714 226.030909 
L 239.657143 265.565455 
L 240.932571 226.030909 
L 242.208 214.170545 
L 243.483429 257.658545 
L 244.758857 245.798182 
L 246.034286 210.217091 
L 247.309714 265.565455 
L 248.585143 241.844727 
L 249.860571 245.798182 
L 251.136 210.217091 
L 252.411429 241.844727 
L 254.962286 186.496364 
L 256.237714 222.077455 
L 258.788571 135.101455 
L 260.064 198.356727 
L 261.339429 226.030909 
L 262.614857 226.030909 
L 263.890286 198.356727 
L 265.165714 222.077455 
L 266.441143 222.077455 
L 267.716571 210.217091 
L 268.992 222.077455 
L 270.267429 226.030909 
L 271.542857 241.844727 
L 272.818286 210.217091 
L 275.369143 218.124 
L 277.92 202.310182 
L 279.195429 229.984364 
L 280.470857 237.891273 
L 281.746286 233.937818 
L 283.021714 146.961818 
L 284.297143 146.961818 
L 285.572571 198.356727 
L 286.848 285.332727 
L 288.123429 344.634545 
L 289.398857 336.727636 
L 290.674286 356.494909 
L 291.949714 340.681091 
L 293.225143 356.494909 
L 295.776 356.494909 
L 297.051429 340.681091 
L 298.326857 352.541455 
L 299.602286 356.494909 
L 300.877714 332.774182 
L 302.153143 352.541455 
L 303.428571 348.588 
L 304.704 352.541455 
L 305.979429 305.1 
L 307.254857 336.727636 
L 308.530286 364.401818 
L 309.805714 423.703636 
L 334.038857 423.703636 
L 336.589714 186.496364 
L 337.865143 305.1 
L 339.140571 305.1 
L 340.416 186.496364 
L 341.691429 305.1 
L 342.966857 285.332727 
L 344.242286 245.798182 
L 345.517714 285.332727 
L 346.793143 285.332727 
L 348.068571 186.496364 
L 349.344 245.798182 
L 350.619429 285.332727 
L 355.721143 285.332727 
L 356.996571 166.729091 
L 358.272 265.565455 
L 359.547429 285.332727 
L 360.822857 146.961818 
L 362.098286 146.961818 
L 363.373714 186.496364 
L 364.649143 245.798182 
L 365.924571 166.729091 
L 368.475429 245.798182 
L 369.750857 226.030909 
L 371.026286 226.030909 
L 372.301714 206.263636 
L 374.852571 206.263636 
L 377.403429 245.798182 
L 379.954286 206.263636 
L 381.229714 226.030909 
L 382.505143 226.030909 
L 383.780571 206.263636 
L 385.056 166.729091 
L 386.331429 146.961818 
L 387.606857 166.729091 
L 388.882286 265.565455 
L 390.157714 206.263636 
L 392.708571 285.332727 
L 393.984 285.332727 
L 397.810286 344.634545 
L 400.361143 305.1 
L 401.636571 344.634545 
L 404.187429 344.634545 
L 405.462857 324.867273 
L 406.738286 344.634545 
L 408.013714 324.867273 
L 411.84 324.867273 
L 413.115429 364.401818 
L 414.390857 324.867273 
L 415.666286 245.798182 
L 416.941714 265.565455 
L 418.217143 305.1 
L 419.492571 285.332727 
L 420.768 206.263636 
L 422.043429 285.332727 
L 423.318857 285.332727 
L 424.594286 245.798182 
L 427.145143 285.332727 
L 428.420571 226.030909 
L 429.696 226.030909 
L 430.971429 285.332727 
L 432.246857 226.030909 
L 433.522286 210.217091 
L 434.797714 241.844727 
L 436.073143 186.496364 
L 437.348571 146.961818 
L 438.624 229.984364 
L 439.899429 261.612 
L 441.174857 265.565455 
L 442.450286 265.565455 
L 443.725714 245.798182 
L 445.001143 245.798182 
L 446.276571 214.170545 
L 447.552 202.310182 
L 448.827429 261.612 
L 450.102857 245.798182 
L 451.378286 245.798182 
L 452.653714 226.030909 
L 453.929143 226.030909 
L 455.204571 182.542909 
L 456.48 174.636 
L 457.755429 222.077455 
L 459.030857 245.798182 
L 460.306286 245.798182 
L 461.581714 194.403273 
L 462.857143 154.868727 
L 464.132571 194.403273 
L 465.408 186.496364 
L 466.683429 233.937818 
L 467.958857 253.705091 
L 469.234286 237.891273 
L 470.509714 257.658545 
L 471.785143 226.030909 
L 473.060571 233.937818 
L 474.336 194.403273 
L 475.611429 253.705091 
L 476.886857 218.124 
L 478.162286 249.751636 
L 479.437714 253.705091 
L 480.713143 210.217091 
L 481.988571 226.030909 
L 483.264 194.403273 
L 484.539429 226.030909 
L 485.814857 214.170545 
L 487.090286 336.727636 
L 488.365714 423.703636 
L 512.598857 423.703636 
L 513.874286 344.634545 
L 515.149714 226.030909 
L 516.425143 305.1 
L 517.700571 226.030909 
L 518.976 265.565455 
L 520.251429 285.332727 
L 521.526857 265.565455 
L 522.802286 285.332727 
L 524.077714 226.030909 
L 525.353143 265.565455 
L 526.628571 226.030909 
L 527.904 273.472364 
L 529.179429 277.425818 
L 530.454857 285.332727 
L 531.730286 285.332727 
L 533.005714 226.030909 
L 534.281143 281.379273 
L 535.556571 210.217091 
L 536.832 285.332727 
L 538.107429 285.332727 
L 539.382857 265.565455 
L 540.658286 249.751636 
L 541.933714 332.774182 
L 543.209143 320.913818 
L 544.484571 340.681091 
L 545.76 344.634545 
L 547.035429 356.494909 
L 548.310857 344.634545 
L 549.586286 376.262182 
L 550.861714 376.262182 
L 552.137143 372.308727 
L 553.412571 372.308727 
L 554.688 380.215636 
L 555.963429 372.308727 
L 557.238857 356.494909 
L 558.514286 376.262182 
L 559.789714 380.215636 
L 561.065143 372.308727 
L 562.340571 380.215636 
L 563.616 356.494909 
L 564.891429 356.494909 
L 566.166857 313.006909 
L 567.442286 344.634545 
L 568.717714 293.239636 
L 569.993143 301.146545 
L 571.268571 273.472364 
L 572.544 257.658545 
L 573.819429 281.379273 
L 575.094857 281.379273 
L 576.370286 277.425818 
L 577.645714 301.146545 
L 578.921143 301.146545 
L 580.196571 305.1 
L 581.472 297.193091 
L 582.747429 281.379273 
L 584.022857 316.960364 
L 585.298286 305.1 
L 586.573714 305.1 
L 587.849143 320.913818 
L 589.124571 324.867273 
L 590.4 289.286182 
L 591.675429 297.193091 
L 592.950857 320.913818 
L 594.226286 313.006909 
L 595.501714 313.006909 
L 596.777143 324.867273 
L 598.052571 313.006909 
L 599.328 297.193091 
L 600.603429 293.239636 
L 601.878857 316.960364 
L 603.154286 289.286182 
L 604.429714 285.332727 
L 605.705143 277.425818 
L 606.980571 285.332727 
L 608.256 265.565455 
L 609.531429 261.612 
L 610.806857 277.425818 
L 612.082286 281.379273 
L 613.357714 269.518909 
L 614.633143 233.937818 
L 615.908571 190.449818 
L 617.184 222.077455 
L 618.459429 241.844727 
L 619.734857 245.798182 
L 621.010286 257.658545 
L 622.285714 229.984364 
L 623.561143 261.612 
L 624.836571 277.425818 
L 626.112 261.612 
L 627.387429 269.518909 
L 628.662857 273.472364 
L 629.938286 245.798182 
L 631.213714 226.030909 
L 632.489143 261.612 
L 633.764571 269.518909 
L 635.04 261.612 
L 636.315429 229.984364 
L 637.590857 265.565455 
L 638.866286 233.937818 
L 640.141714 198.356727 
L 641.417143 202.310182 
L 642.692571 261.612 
L 643.968 245.798182 
L 645.243429 265.565455 
L 646.518857 245.798182 
L 647.794286 253.705091 
L 649.069714 269.518909 
L 650.345143 277.425818 
L 651.620571 289.286182 
L 652.896 297.193091 
L 654.171429 293.239636 
L 655.446857 301.146545 
L 657.997714 285.332727 
L 659.273143 305.1 
L 660.548571 316.960364 
L 661.824 316.960364 
L 663.099429 309.053455 
L 664.374857 297.193091 
L 665.650286 376.262182 
L 666.925714 423.703636 
L 691.158857 423.703636 
L 693.709714 107.427273 
L 694.985143 265.565455 
L 696.260571 265.565455 
L 697.536 87.66 
L 698.811429 245.798182 
L 700.086857 245.798182 
L 701.362286 186.496364 
L 702.637714 245.798182 
L 703.913143 245.798182 
L 705.188571 127.194545 
L 706.464 226.030909 
L 707.739429 206.263636 
L 709.014857 245.798182 
L 710.290286 226.030909 
L 711.565714 226.030909 
L 712.841143 245.798182 
L 714.116571 146.961818 
L 715.392 226.030909 
L 717.942857 186.496364 
L 719.218286 186.496364 
L 720.493714 344.634545 
L 721.769143 364.401818 
L 723.044571 403.936364 
L 725.595429 403.936364 
L 726.870857 384.169091 
L 728.146286 384.169091 
L 729.421714 364.401818 
L 730.697143 364.401818 
L 731.972571 384.169091 
L 733.248 364.401818 
L 734.523429 384.169091 
L 738.349714 384.169091 
L 739.625143 364.401818 
L 740.900571 324.867273 
L 743.451429 364.401818 
L 744.726857 364.401818 
L 746.002286 344.634545 
L 747.277714 305.1 
L 748.553143 344.634545 
L 749.828571 324.867273 
L 753.654857 324.867273 
L 754.930286 344.634545 
L 756.205714 344.634545 
L 757.481143 364.401818 
L 758.756571 364.401818 
L 760.032 384.169091 
L 761.307429 364.401818 
L 762.582857 384.169091 
L 766.409143 384.169091 
L 767.684571 344.634545 
L 770.235429 384.169091 
L 771.510857 384.169091 
L 774.061714 344.634545 
L 775.337143 364.401818 
L 777.888 324.867273 
L 779.163429 364.401818 
L 781.714286 364.401818 
L 782.989714 384.169091 
L 785.540571 384.169091 
L 786.816 344.634545 
L 788.091429 384.169091 
L 791.917714 384.169091 
L 793.193143 364.401818 
L 795.744 364.401818 
L 797.019429 403.936364 
L 798.294857 364.401818 
L 799.570286 305.1 
L 802.121143 344.634545 
L 803.396571 324.867273 
L 804.672 285.332727 
L 805.947429 344.634545 
L 811.049143 344.634545 
L 812.324571 384.169091 
L 813.6 364.401818 
L 814.875429 384.169091 
L 817.426286 384.169091 
L 819.977143 344.634545 
L 821.252571 384.169091 
L 822.528 364.401818 
L 823.803429 384.169091 
L 825.078857 364.401818 
L 826.354286 384.169091 
L 828.905143 384.169091 
L 830.180571 344.634545 
L 831.456 344.634545 
L 832.731429 348.588 
L 834.006857 360.448364 
L 835.282286 344.634545 
L 836.557714 364.401818 
L 839.108571 364.401818 
L 840.384 384.169091 
L 841.659429 384.169091 
L 842.934857 364.401818 
L 844.210286 403.936364 
L 845.485714 423.703636 
L 869.718857 423.703636 
L 872.269714 265.565455 
L 873.545143 344.634545 
L 874.820571 344.634545 
L 876.096 245.798182 
L 877.371429 305.1 
L 878.646857 245.798182 
L 879.922286 226.030909 
L 882.473143 265.565455 
L 883.748571 146.961818 
L 885.024 206.263636 
L 886.299429 206.263636 
L 887.574857 226.030909 
L 888.850286 206.263636 
L 890.125714 245.798182 
L 891.401143 226.030909 
L 892.676571 186.496364 
L 893.952 186.496364 
L 895.227429 206.263636 
L 897.778286 166.729091 
L 899.053714 265.565455 
L 900.329143 265.565455 
L 901.604571 210.217091 
L 902.88 245.798182 
L 904.155429 261.612 
L 905.430857 229.984364 
L 906.706286 245.798182 
L 907.981714 226.030909 
L 909.257143 265.565455 
L 910.532571 206.263636 
L 911.808 222.077455 
L 913.083429 226.030909 
L 914.358857 206.263636 
L 915.634286 190.449818 
L 916.909714 226.030909 
L 918.185143 245.798182 
L 919.460571 206.263636 
L 920.736 186.496364 
L 922.011429 146.961818 
L 923.286857 131.148 
L 924.562286 261.612 
L 925.837714 229.984364 
L 927.113143 241.844727 
L 928.388571 285.332727 
L 929.664 285.332727 
L 930.939429 226.030909 
L 932.214857 269.518909 
L 933.490286 301.146545 
L 934.765714 344.634545 
L 938.592 344.634545 
L 939.867429 324.867273 
L 941.142857 309.053455 
L 942.418286 320.913818 
L 943.693714 344.634545 
L 944.969143 344.634545 
L 948.795429 285.332727 
L 950.070857 305.1 
L 951.346286 226.030909 
L 952.621714 226.030909 
L 953.897143 245.798182 
L 955.172571 245.798182 
L 956.448 226.030909 
L 957.723429 202.310182 
L 958.998857 190.449818 
L 960.274286 206.263636 
L 962.825143 206.263636 
L 964.100571 245.798182 
L 965.376 245.798182 
L 966.651429 194.403273 
L 967.926857 166.729091 
L 969.202286 218.124 
L 970.477714 245.798182 
L 971.753143 202.310182 
L 973.028571 190.449818 
L 974.304 170.682545 
L 975.579429 277.425818 
L 976.854857 293.239636 
L 978.130286 253.705091 
L 979.405714 297.193091 
L 980.681143 309.053455 
L 981.956571 297.193091 
L 983.232 297.193091 
L 984.507429 324.867273 
L 985.782857 344.634545 
L 988.333714 305.1 
L 989.609143 332.774182 
L 990.884571 324.867273 
L 992.16 313.006909 
L 993.435429 328.820727 
L 994.710857 313.006909 
L 995.986286 313.006909 
L 997.261714 301.146545 
L 998.537143 229.984364 
L 999.812571 241.844727 
L 1001.088 289.286182 
L 1002.363429 257.658545 
L 1003.638857 253.705091 
L 1004.914286 269.518909 
L 1006.189714 237.891273 
L 1007.465143 285.332727 
L 1008.740571 281.379273 
L 1010.016 273.472364 
L 1011.291429 273.472364 
L 1012.566857 269.518909 
L 1013.842286 241.844727 
L 1016.393143 281.379273 
L 1017.668571 277.425818 
L 1018.944 265.565455 
L 1020.219429 285.332727 
L 1021.494857 249.751636 
L 1024.045714 423.703636 
L 1035.524571 423.703636 
L 1035.524571 423.703636 
" style="fill:none;stroke:#781c6d;stroke-linecap:square;"/>
   </g>
   <g id="line2d_18">
    <path clip-path="url(#p809a58b3b3)" d="M 144 423.703636 
L 168.233143 423.703636 
L 169.508571 416.785091 
L 170.784 361.436727 
L 172.059429 389.110909 
L 173.334857 354.518182 
L 174.610286 354.518182 
L 177.161143 216.147273 
L 178.436571 285.332727 
L 179.712 250.74 
L 180.987429 181.554545 
L 182.262857 181.554545 
L 183.538286 285.332727 
L 186.089143 285.332727 
L 188.64 423.703636 
L 195.017143 423.703636 
L 196.292571 389.110909 
L 197.568 389.110909 
L 198.843429 354.518182 
L 200.118857 389.110909 
L 203.945143 389.110909 
L 205.220571 354.518182 
L 206.496 389.110909 
L 209.046857 319.925455 
L 210.322286 292.251273 
L 211.597714 223.065818 
L 212.873143 299.169818 
L 214.148571 326.844 
L 215.424 326.844 
L 216.699429 292.251273 
L 217.974857 326.844 
L 219.250286 264.577091 
L 220.525714 326.844 
L 223.076571 326.844 
L 224.352 306.088364 
L 225.627429 292.251273 
L 228.178286 236.902909 
L 229.453714 250.74 
L 230.729143 285.332727 
L 232.004571 278.414182 
L 233.28 361.436727 
L 234.555429 354.518182 
L 235.830857 423.703636 
L 252.411429 423.703636 
L 253.686857 416.785091 
L 254.962286 375.273818 
L 256.237714 368.355273 
L 257.513143 375.273818 
L 258.788571 361.436727 
L 260.064 361.436727 
L 261.339429 389.110909 
L 263.890286 389.110909 
L 265.165714 382.192364 
L 266.441143 389.110909 
L 267.716571 361.436727 
L 268.992 389.110909 
L 274.093714 389.110909 
L 275.369143 382.192364 
L 276.644571 361.436727 
L 277.92 389.110909 
L 283.021714 389.110909 
L 284.297143 382.192364 
L 285.572571 389.110909 
L 286.848 354.518182 
L 288.123429 306.088364 
L 289.398857 306.088364 
L 290.674286 278.414182 
L 291.949714 333.762545 
L 293.225143 306.088364 
L 294.500571 333.762545 
L 295.776 271.495636 
L 297.051429 333.762545 
L 299.602286 333.762545 
L 300.877714 306.088364 
L 302.153143 333.762545 
L 303.428571 271.495636 
L 304.704 271.495636 
L 305.979429 299.169818 
L 307.254857 299.169818 
L 308.530286 347.599636 
L 309.805714 423.703636 
L 362.098286 423.703636 
L 363.373714 389.110909 
L 364.649143 389.110909 
L 365.924571 354.518182 
L 367.2 389.110909 
L 369.750857 389.110909 
L 371.026286 354.518182 
L 372.301714 389.110909 
L 378.678857 389.110909 
L 379.954286 354.518182 
L 381.229714 389.110909 
L 385.056 389.110909 
L 386.331429 423.703636 
L 390.157714 423.703636 
L 392.708571 354.518182 
L 393.984 389.110909 
L 395.259429 319.925455 
L 396.534857 216.147273 
L 397.810286 250.74 
L 399.085714 216.147273 
L 400.361143 285.332727 
L 401.636571 285.332727 
L 402.912 250.74 
L 404.187429 250.74 
L 405.462857 216.147273 
L 406.738286 285.332727 
L 409.289143 285.332727 
L 410.564571 216.147273 
L 413.115429 146.961818 
L 414.390857 250.74 
L 415.666286 250.74 
L 416.941714 319.925455 
L 418.217143 285.332727 
L 419.492571 319.925455 
L 420.768 319.925455 
L 422.043429 354.518182 
L 423.318857 319.925455 
L 424.594286 319.925455 
L 425.869714 354.518182 
L 432.246857 354.518182 
L 433.522286 389.110909 
L 436.073143 389.110909 
L 437.348571 354.518182 
L 438.624 389.110909 
L 439.899429 354.518182 
L 441.174857 389.110909 
L 450.102857 389.110909 
L 451.378286 354.518182 
L 452.653714 389.110909 
L 459.030857 389.110909 
L 460.306286 354.518182 
L 461.581714 389.110909 
L 462.857143 354.518182 
L 464.132571 389.110909 
L 465.408 389.110909 
L 467.958857 375.273818 
L 469.234286 333.762545 
L 470.509714 368.355273 
L 471.785143 375.273818 
L 473.060571 375.273818 
L 474.336 368.355273 
L 475.611429 368.355273 
L 478.162286 382.192364 
L 479.437714 347.599636 
L 480.713143 382.192364 
L 483.264 382.192364 
L 484.539429 389.110909 
L 487.090286 389.110909 
L 488.365714 423.703636 
L 540.658286 423.703636 
L 541.933714 409.866545 
L 543.209143 354.518182 
L 544.484571 361.436727 
L 545.76 340.681091 
L 547.035429 347.599636 
L 548.310857 361.436727 
L 549.586286 299.169818 
L 550.861714 285.332727 
L 552.137143 264.577091 
L 553.412571 292.251273 
L 554.688 285.332727 
L 555.963429 285.332727 
L 557.238857 250.74 
L 558.514286 292.251273 
L 559.789714 271.495636 
L 561.065143 264.577091 
L 562.340571 299.169818 
L 563.616 264.577091 
L 564.891429 319.925455 
L 566.166857 278.414182 
L 567.442286 396.029455 
L 568.717714 382.192364 
L 569.993143 340.681091 
L 571.268571 333.762545 
L 572.544 354.518182 
L 573.819429 340.681091 
L 575.094857 306.088364 
L 576.370286 333.762545 
L 577.645714 326.844 
L 578.921143 326.844 
L 580.196571 299.169818 
L 581.472 326.844 
L 582.747429 340.681091 
L 584.022857 319.925455 
L 585.298286 319.925455 
L 586.573714 306.088364 
L 587.849143 299.169818 
L 589.124571 264.577091 
L 590.4 264.577091 
L 591.675429 271.495636 
L 592.950857 292.251273 
L 594.226286 306.088364 
L 595.501714 278.414182 
L 596.777143 306.088364 
L 598.052571 285.332727 
L 599.328 313.006909 
L 600.603429 292.251273 
L 601.878857 299.169818 
L 603.154286 326.844 
L 604.429714 326.844 
L 606.980571 340.681091 
L 609.531429 326.844 
L 610.806857 340.681091 
L 612.082286 347.599636 
L 613.357714 326.844 
L 614.633143 299.169818 
L 615.908571 326.844 
L 617.184 347.599636 
L 618.459429 382.192364 
L 619.734857 361.436727 
L 622.285714 375.273818 
L 623.561143 368.355273 
L 624.836571 354.518182 
L 626.112 361.436727 
L 627.387429 375.273818 
L 628.662857 368.355273 
L 629.938286 375.273818 
L 631.213714 368.355273 
L 632.489143 368.355273 
L 633.764571 361.436727 
L 636.315429 361.436727 
L 637.590857 368.355273 
L 638.866286 361.436727 
L 640.141714 361.436727 
L 641.417143 389.110909 
L 642.692571 396.029455 
L 643.968 389.110909 
L 645.243429 402.948 
L 646.518857 396.029455 
L 647.794286 361.436727 
L 649.069714 382.192364 
L 650.345143 382.192364 
L 651.620571 361.436727 
L 652.896 361.436727 
L 654.171429 306.088364 
L 655.446857 319.925455 
L 656.722286 340.681091 
L 657.997714 326.844 
L 659.273143 292.251273 
L 660.548571 306.088364 
L 661.824 292.251273 
L 663.099429 292.251273 
L 664.374857 278.414182 
L 665.650286 347.599636 
L 666.925714 423.703636 
L 707.739429 423.703636 
L 710.290286 354.518182 
L 711.565714 389.110909 
L 714.116571 389.110909 
L 715.392 354.518182 
L 716.667429 389.110909 
L 719.218286 319.925455 
L 720.493714 319.925455 
L 721.769143 250.74 
L 723.044571 146.961818 
L 724.32 285.332727 
L 725.595429 250.74 
L 728.146286 319.925455 
L 729.421714 285.332727 
L 730.697143 319.925455 
L 731.972571 319.925455 
L 733.248 285.332727 
L 734.523429 319.925455 
L 735.798857 285.332727 
L 737.074286 319.925455 
L 738.349714 285.332727 
L 739.625143 216.147273 
L 740.900571 285.332727 
L 742.176 181.554545 
L 743.451429 250.74 
L 744.726857 112.369091 
L 746.002286 285.332727 
L 747.277714 250.74 
L 748.553143 285.332727 
L 749.828571 285.332727 
L 751.104 250.74 
L 753.654857 250.74 
L 754.930286 285.332727 
L 757.481143 216.147273 
L 758.756571 250.74 
L 760.032 250.74 
L 761.307429 285.332727 
L 762.582857 216.147273 
L 763.858286 285.332727 
L 765.133714 250.74 
L 766.409143 285.332727 
L 768.96 146.961818 
L 770.235429 146.961818 
L 771.510857 285.332727 
L 772.786286 285.332727 
L 774.061714 216.147273 
L 775.337143 285.332727 
L 776.612571 285.332727 
L 777.888 216.147273 
L 779.163429 285.332727 
L 781.714286 285.332727 
L 782.989714 250.74 
L 784.265143 319.925455 
L 786.816 319.925455 
L 788.091429 250.74 
L 789.366857 319.925455 
L 791.917714 319.925455 
L 793.193143 250.74 
L 794.468571 319.925455 
L 795.744 285.332727 
L 797.019429 181.554545 
L 798.294857 216.147273 
L 799.570286 285.332727 
L 800.845714 285.332727 
L 802.121143 181.554545 
L 803.396571 285.332727 
L 804.672 285.332727 
L 805.947429 250.74 
L 807.222857 285.332727 
L 808.498286 285.332727 
L 809.773714 216.147273 
L 811.049143 181.554545 
L 812.324571 250.74 
L 813.6 285.332727 
L 814.875429 216.147273 
L 816.150857 285.332727 
L 817.426286 285.332727 
L 818.701714 250.74 
L 819.977143 146.961818 
L 821.252571 250.74 
L 822.528 319.925455 
L 823.803429 319.925455 
L 825.078857 285.332727 
L 826.354286 319.925455 
L 828.905143 250.74 
L 830.180571 285.332727 
L 831.456 216.147273 
L 832.731429 285.332727 
L 834.006857 285.332727 
L 835.282286 250.74 
L 836.557714 285.332727 
L 837.833143 250.74 
L 840.384 250.74 
L 841.659429 319.925455 
L 842.934857 319.925455 
L 844.210286 354.518182 
L 845.485714 423.703636 
L 869.718857 423.703636 
L 872.269714 285.332727 
L 873.545143 354.518182 
L 874.820571 354.518182 
L 876.096 319.925455 
L 877.371429 423.703636 
L 885.024 423.703636 
L 886.299429 389.110909 
L 887.574857 389.110909 
L 888.850286 354.518182 
L 890.125714 389.110909 
L 892.676571 389.110909 
L 893.952 354.518182 
L 895.227429 389.110909 
L 900.329143 389.110909 
L 901.604571 416.785091 
L 902.88 416.785091 
L 904.155429 409.866545 
L 905.430857 416.785091 
L 909.257143 416.785091 
L 910.532571 361.436727 
L 911.808 389.110909 
L 913.083429 368.355273 
L 914.358857 375.273818 
L 915.634286 389.110909 
L 919.460571 389.110909 
L 920.736 361.436727 
L 922.011429 416.785091 
L 923.286857 423.703636 
L 925.837714 423.703636 
L 928.388571 354.518182 
L 929.664 389.110909 
L 930.939429 389.110909 
L 932.214857 319.925455 
L 933.490286 319.925455 
L 934.765714 216.147273 
L 937.316571 285.332727 
L 938.592 250.74 
L 939.867429 223.065818 
L 941.142857 243.821455 
L 942.418286 285.332727 
L 944.969143 285.332727 
L 946.244571 216.147273 
L 947.52 250.74 
L 948.795429 209.228727 
L 950.070857 326.844 
L 951.346286 423.703636 
L 957.723429 423.703636 
L 958.998857 389.110909 
L 961.549714 389.110909 
L 962.825143 354.518182 
L 964.100571 389.110909 
L 967.926857 389.110909 
L 969.202286 354.518182 
L 970.477714 389.110909 
L 971.753143 389.110909 
L 973.028571 354.518182 
L 974.304 389.110909 
L 976.854857 375.273818 
L 978.130286 354.518182 
L 979.405714 306.088364 
L 980.681143 347.599636 
L 981.956571 319.925455 
L 983.232 313.006909 
L 984.507429 257.658545 
L 985.782857 271.495636 
L 987.058286 271.495636 
L 988.333714 292.251273 
L 989.609143 292.251273 
L 990.884571 216.147273 
L 992.16 299.169818 
L 993.435429 271.495636 
L 994.710857 299.169818 
L 995.986286 299.169818 
L 997.261714 236.902909 
L 998.537143 285.332727 
L 999.812571 354.518182 
L 1001.088 326.844 
L 1002.363429 354.518182 
L 1003.638857 354.518182 
L 1004.914286 326.844 
L 1006.189714 347.599636 
L 1007.465143 319.925455 
L 1008.740571 354.518182 
L 1011.291429 354.518182 
L 1012.566857 326.844 
L 1013.842286 354.518182 
L 1015.117714 354.518182 
L 1016.393143 313.006909 
L 1017.668571 354.518182 
L 1020.219429 354.518182 
L 1021.494857 326.844 
L 1022.770286 382.192364 
L 1024.045714 423.703636 
L 1035.524571 423.703636 
L 1035.524571 423.703636 
" style="fill:none;stroke:#ed6925;stroke-linecap:square;"/>
   </g>
   <g id="patch_3">
    <path d="M 144 441 
L 144 60.48 
" style="fill:none;stroke:#000000;stroke-linecap:square;stroke-linejoin:miter;stroke-width:0.8;"/>
   </g>
   <g id="patch_4">
    <path d="M 1036.8 441 
L 1036.8 60.48 
" style="fill:none;stroke:#000000;stroke-linecap:square;stroke-linejoin:miter;stroke-width:0.8;"/>
   </g>
   <g id="patch_5">
    <path d="M 144 441 
L 1036.8 441 
" style="fill:none;stroke:#000000;stroke-linecap:square;stroke-linejoin:miter;stroke-width:0.8;"/>
   </g>
   <g id="patch_6">
    <path d="M 144 60.48 
L 1036.8 60.48 
" style="fill:none;stroke:#000000;stroke-linecap:square;stroke-linejoin:miter;stroke-width:0.8;"/>
   </g>
   <g id="legend_1">
    <g id="line2d_19">
     <path d="M 505.914062 73.578438 
L 525.914062 73.578438 
" style="fill:none;stroke:#000004;stroke-linecap:square;"/>
    </g>
    <g id="line2d_20"/>
    <g id="text_18">
     <!-- M1 -->
     <g transform="translate(533.914062 77.078438)scale(0.1 -0.1)">
      <use xlink:href="#DejaVuSans-77"/>
      <use x="86.279297" xlink:href="#DejaVuSans-49"/>
     </g>
    </g>
    <g id="line2d_21">
     <path d="M 568.904688 73.578438 
L 588.904688 73.578438 
" style="fill:none;stroke:#781c6d;stroke-linecap:square;"/>
    </g>
    <g id="line2d_22"/>
    <g id="text_19">
     <!-- M2 -->
     <g transform="translate(596.904688 77.078438)scale(0.1 -0.1)">
      <use xlink:href="#DejaVuSans-77"/>
      <use x="86.279297" xlink:href="#DejaVuSans-50"/>
     </g>
    </g>
    <g id="line2d_23">
     <path d="M 631.895313 73.578438 
L 651.895313 73.578438 
" style="fill:none;stroke:#ed6925;stroke-linecap:square;"/>
    </g>
    <g id="line2d_24"/>
    <g id="text_20">
     <!-- M3 -->
     <g transform="translate(659.895313 77.078438)scale(0.1 -0.1)">
      <use xlink:href="#DejaVuSans-77"/>
      <use x="86.279297" xlink:href="#DejaVuSans-51"/>
     </g>
    </g>
   </g>
  </g>
 </g>
 <defs>
  <clipPath id="p809a58b3b3">
   <rect height="380.52" width="892.8" x="144" y="60.48"/>
  </clipPath>
 </defs>
</svg>
