<?xml version="1.0" encoding="utf-8" standalone="no"?>
<!DOCTYPE svg PUBLIC "-//W3C//DTD SVG 1.1//EN"
  "http://www.w3.org/Graphics/SVG/1.1/DTD/svg11.dtd">
<!-- Created with matplotlib (https://matplotlib.org/) -->
<svg height="216pt" version="1.1" viewBox="0 0 864 216" width="864pt" xmlns="http://www.w3.org/2000/svg" xmlns:xlink="http://www.w3.org/1999/xlink">
 <metadata>
  <rdf:RDF xmlns:cc="http://creativecommons.org/ns#" xmlns:dc="http://purl.org/dc/elements/1.1/" xmlns:rdf="http://www.w3.org/1999/02/22-rdf-syntax-ns#">
   <cc:Work>
    <dc:type rdf:resource="http://purl.org/dc/dcmitype/StillImage"/>
    <dc:date>2021-11-24T13:51:23.286070</dc:date>
    <dc:format>image/svg+xml</dc:format>
    <dc:creator>
     <cc:Agent>
      <dc:title>Matplotlib v3.3.4, https://matplotlib.org/</dc:title>
     </cc:Agent>
    </dc:creator>
   </cc:Work>
  </rdf:RDF>
 </metadata>
 <defs>
  <style type="text/css">*{stroke-linecap:butt;stroke-linejoin:round;}</style>
 </defs>
 <g id="figure_1">
  <g id="patch_1">
   <path d="M 0 216 
L 864 216 
L 864 0 
L 0 0 
z
" style="fill:none;"/>
  </g>
  <g id="axes_1">
   <g id="matplotlib.axis_1"/>
   <g id="matplotlib.axis_2"/>
   <g id="LineCollection_1">
    <path clip-path="url(#pddd936b789)" d="M 37.330634 164.231405 
L 63.861267 164.231405 
" style="fill:none;stroke:#000000;stroke-width:3;"/>
   </g>
   <g id="line2d_1">
    <path clip-path="url(#pddd936b789)" d="M 10.8 51.768595 
L 37.330103 51.768595 
L 37.441532 19.636364 
L 674.06531 19.636364 
L 674.176739 51.768595 
L 700.595944 51.768595 
L 700.595944 51.768595 
" style="fill:none;stroke:#000004;stroke-linecap:square;stroke-width:1.5;"/>
   </g>
   <g id="line2d_2">
    <path clip-path="url(#pddd936b789)" d="M 24.065317 67.834711 
L 55.901547 67.834711 
L 56.012975 35.702479 
L 71.819927 35.702479 
L 71.931355 67.834711 
L 114.268941 67.834711 
L 114.380369 35.702479 
L 151.411828 35.702479 
L 151.523256 67.834711 
L 154.064891 67.834711 
L 154.17632 35.702479 
L 188.554715 35.702479 
L 188.666143 67.834711 
L 265.493552 67.834711 
L 265.604981 35.702479 
L 270.799679 35.702479 
L 270.911108 67.834711 
L 297.330313 67.834711 
L 297.441741 35.702479 
L 299.983376 35.702479 
L 300.094805 67.834711 
L 321.207883 67.834711 
L 321.319312 35.702479 
L 337.126263 35.702479 
L 337.237692 67.834711 
L 347.738516 67.834711 
L 347.849945 35.702479 
L 398.14672 35.702479 
L 398.258149 67.834711 
L 416.718164 67.834711 
L 416.829593 35.702479 
L 427.330417 35.702479 
L 427.441846 67.834711 
L 461.820241 67.834711 
L 461.93167 35.702479 
L 467.126368 35.702479 
L 467.237796 67.834711 
L 469.779431 67.834711 
L 469.89086 35.702479 
L 475.085558 35.702479 
L 475.196987 67.834711 
L 578.555029 67.834711 
L 578.666458 35.702479 
L 634.26936 35.702479 
L 634.380788 67.834711 
L 666.10612 67.834711 
L 666.217549 35.702479 
L 676.718373 35.702479 
L 676.829802 67.834711 
L 713.861261 67.834711 
L 713.861261 67.834711 
" style="fill:none;stroke:#160b39;stroke-linecap:square;stroke-width:1.5;"/>
   </g>
   <g id="line2d_3">
    <path clip-path="url(#pddd936b789)" d="M 37.330634 83.900826 
L 69.166863 83.900826 
L 69.278292 51.768595 
L 85.085244 51.768595 
L 85.196672 83.900826 
L 127.534257 83.900826 
L 127.645686 51.768595 
L 130.187321 51.768595 
L 130.298749 83.900826 
L 156.717954 83.900826 
L 156.829383 51.768595 
L 164.677144 51.768595 
L 164.788573 83.900826 
L 167.330208 83.900826 
L 167.441636 51.768595 
L 180.595525 51.768595 
L 180.706953 83.900826 
L 201.820032 83.900826 
L 201.93146 51.768595 
L 209.779222 51.768595 
L 209.89065 83.900826 
L 228.350665 83.900826 
L 228.462094 51.768595 
L 278.758869 51.768595 
L 278.870298 83.900826 
L 284.064996 83.900826 
L 284.176424 51.768595 
L 289.371122 51.768595 
L 289.482551 83.900826 
L 292.024186 83.900826 
L 292.135615 51.768595 
L 310.595629 51.768595 
L 310.707058 83.900826 
L 313.248693 83.900826 
L 313.360121 51.768595 
L 334.4732 51.768595 
L 334.584628 83.900826 
L 350.39158 83.900826 
L 350.503009 51.768595 
L 361.003833 51.768595 
L 361.115262 83.900826 
L 408.758974 83.900826 
L 408.870402 51.768595 
L 411.412037 51.768595 
L 411.523466 83.900826 
L 429.983481 83.900826 
L 430.094909 51.768595 
L 440.595734 51.768595 
L 440.707163 83.900826 
L 475.085558 83.900826 
L 475.196987 51.768595 
L 480.391685 51.768595 
L 480.503113 83.900826 
L 483.044748 83.900826 
L 483.156177 51.768595 
L 488.350875 51.768595 
L 488.462303 83.900826 
L 506.922318 83.900826 
L 507.033747 51.768595 
L 549.371332 51.768595 
L 549.482761 83.900826 
L 554.677459 83.900826 
L 554.788887 51.768595 
L 591.820346 51.768595 
L 591.931775 83.900826 
L 594.473409 83.900826 
L 594.584838 51.768595 
L 647.534676 51.768595 
L 647.646105 83.900826 
L 650.18774 83.900826 
L 650.299169 51.768595 
L 660.799993 51.768595 
L 660.911422 83.900826 
L 663.453057 83.900826 
L 663.564485 51.768595 
L 676.718373 51.768595 
L 676.829802 83.900826 
L 679.371437 83.900826 
L 679.482866 51.768595 
L 689.98369 51.768595 
L 690.095119 83.900826 
L 727.126577 83.900826 
L 727.126577 83.900826 
" style="fill:none;stroke:#420a68;stroke-linecap:square;stroke-width:1.5;"/>
   </g>
   <g id="line2d_4">
    <path clip-path="url(#pddd936b789)" d="M 50.59595 99.966942 
L 82.43218 99.966942 
L 82.543609 67.834711 
L 98.35056 67.834711 
L 98.461989 99.966942 
L 114.268941 99.966942 
L 114.380369 67.834711 
L 140.799574 67.834711 
L 140.911003 99.966942 
L 143.452638 99.966942 
L 143.564066 67.834711 
L 169.983271 67.834711 
L 170.0947 99.966942 
L 177.942461 99.966942 
L 178.05389 67.834711 
L 180.595525 67.834711 
L 180.706953 99.966942 
L 193.860841 99.966942 
L 193.97227 67.834711 
L 204.473095 67.834711 
L 204.584524 99.966942 
L 209.779222 99.966942 
L 209.89065 67.834711 
L 212.432285 67.834711 
L 212.543714 99.966942 
L 215.085348 99.966942 
L 215.196777 67.834711 
L 223.044538 67.834711 
L 223.155967 99.966942 
L 241.615982 99.966942 
L 241.727411 67.834711 
L 292.024186 67.834711 
L 292.135615 99.966942 
L 294.677249 99.966942 
L 294.788678 67.834711 
L 297.330313 67.834711 
L 297.441741 99.966942 
L 302.636439 99.966942 
L 302.747868 67.834711 
L 305.289503 67.834711 
L 305.400931 99.966942 
L 323.860946 99.966942 
L 323.972375 67.834711 
L 326.51401 67.834711 
L 326.625438 99.966942 
L 329.167073 99.966942 
L 329.278502 67.834711 
L 345.085453 67.834711 
L 345.196882 99.966942 
L 347.738516 99.966942 
L 347.849945 67.834711 
L 361.003833 67.834711 
L 361.115262 99.966942 
L 363.656897 99.966942 
L 363.768325 67.834711 
L 374.26915 67.834711 
L 374.380579 99.966942 
L 382.22834 99.966942 
L 382.339769 67.834711 
L 422.024291 67.834711 
L 422.135719 99.966942 
L 424.677354 99.966942 
L 424.788783 67.834711 
L 429.983481 67.834711 
L 430.094909 99.966942 
L 443.248798 99.966942 
L 443.360226 67.834711 
L 453.861051 67.834711 
L 453.97248 99.966942 
L 480.391685 99.966942 
L 480.503113 67.834711 
L 488.350875 67.834711 
L 488.462303 99.966942 
L 493.657001 99.966942 
L 493.76843 67.834711 
L 496.310065 67.834711 
L 496.421493 99.966942 
L 501.616192 99.966942 
L 501.72762 67.834711 
L 504.269255 67.834711 
L 504.380684 99.966942 
L 506.922318 99.966942 
L 507.033747 67.834711 
L 509.575382 67.834711 
L 509.68681 99.966942 
L 520.187635 99.966942 
L 520.299064 67.834711 
L 533.452952 67.834711 
L 533.564381 99.966942 
L 536.106015 99.966942 
L 536.217444 67.834711 
L 562.636649 67.834711 
L 562.748078 99.966942 
L 567.942776 99.966942 
L 568.054204 67.834711 
L 591.820346 67.834711 
L 591.931775 99.966942 
L 605.085663 99.966942 
L 605.197091 67.834711 
L 607.738726 67.834711 
L 607.850155 99.966942 
L 610.391789 99.966942 
L 610.503218 67.834711 
L 660.799993 67.834711 
L 660.911422 99.966942 
L 663.453057 99.966942 
L 663.564485 67.834711 
L 674.06531 67.834711 
L 674.176739 99.966942 
L 676.718373 99.966942 
L 676.829802 67.834711 
L 679.371437 67.834711 
L 679.482866 99.966942 
L 682.0245 99.966942 
L 682.135929 67.834711 
L 684.677564 67.834711 
L 684.788992 99.966942 
L 687.330627 99.966942 
L 687.442056 67.834711 
L 689.98369 67.834711 
L 690.095119 99.966942 
L 692.636754 99.966942 
L 692.748182 67.834711 
L 703.249007 67.834711 
L 703.360436 99.966942 
L 740.391894 99.966942 
L 740.391894 99.966942 
" style="fill:none;stroke:#6a176e;stroke-linecap:square;stroke-width:1.5;"/>
   </g>
   <g id="line2d_5">
    <path clip-path="url(#pddd936b789)" d="M 63.861267 116.033058 
L 95.697497 116.033058 
L 95.808926 83.900826 
L 111.615877 83.900826 
L 111.727306 116.033058 
L 119.575067 116.033058 
L 119.686496 83.900826 
L 127.534257 83.900826 
L 127.645686 116.033058 
L 146.105701 116.033058 
L 146.21713 83.900826 
L 151.411828 83.900826 
L 151.523256 116.033058 
L 154.064891 116.033058 
L 154.17632 83.900826 
L 156.717954 83.900826 
L 156.829383 116.033058 
L 172.636335 116.033058 
L 172.747763 83.900826 
L 183.248588 83.900826 
L 183.360017 116.033058 
L 191.207778 116.033058 
L 191.319207 83.900826 
L 193.860841 83.900826 
L 193.97227 116.033058 
L 204.473095 116.033058 
L 204.584524 83.900826 
L 207.126158 83.900826 
L 207.237587 116.033058 
L 209.779222 116.033058 
L 209.89065 83.900826 
L 217.738412 83.900826 
L 217.84984 116.033058 
L 223.044538 116.033058 
L 223.155967 83.900826 
L 225.697602 83.900826 
L 225.80903 116.033058 
L 228.350665 116.033058 
L 228.462094 83.900826 
L 231.003729 83.900826 
L 231.115157 116.033058 
L 236.309855 116.033058 
L 236.421284 83.900826 
L 254.881299 83.900826 
L 254.992727 116.033058 
L 257.534362 116.033058 
L 257.645791 83.900826 
L 294.677249 83.900826 
L 294.788678 116.033058 
L 305.289503 116.033058 
L 305.400931 83.900826 
L 307.942566 83.900826 
L 308.053995 116.033058 
L 310.595629 116.033058 
L 310.707058 83.900826 
L 315.901756 83.900826 
L 316.013185 116.033058 
L 318.554819 116.033058 
L 318.666248 83.900826 
L 337.126263 83.900826 
L 337.237692 116.033058 
L 339.779326 116.033058 
L 339.890755 83.900826 
L 342.43239 83.900826 
L 342.543818 116.033058 
L 358.35077 116.033058 
L 358.462199 83.900826 
L 361.003833 83.900826 
L 361.115262 116.033058 
L 374.26915 116.033058 
L 374.380579 83.900826 
L 376.922213 83.900826 
L 377.033642 116.033058 
L 387.534467 116.033058 
L 387.645896 83.900826 
L 395.493657 83.900826 
L 395.605086 116.033058 
L 411.412037 116.033058 
L 411.523466 83.900826 
L 422.024291 83.900826 
L 422.135719 116.033058 
L 435.289607 116.033058 
L 435.401036 83.900826 
L 437.942671 83.900826 
L 438.054099 116.033058 
L 443.248798 116.033058 
L 443.360226 83.900826 
L 453.861051 83.900826 
L 453.97248 116.033058 
L 456.514114 116.033058 
L 456.625543 83.900826 
L 467.126368 83.900826 
L 467.237796 116.033058 
L 469.779431 116.033058 
L 469.89086 83.900826 
L 485.697811 83.900826 
L 485.80924 116.033058 
L 493.657001 116.033058 
L 493.76843 83.900826 
L 501.616192 83.900826 
L 501.72762 116.033058 
L 504.269255 116.033058 
L 504.380684 83.900826 
L 506.922318 83.900826 
L 507.033747 116.033058 
L 509.575382 116.033058 
L 509.68681 83.900826 
L 514.881508 83.900826 
L 514.992937 116.033058 
L 517.534572 116.033058 
L 517.646 83.900826 
L 520.187635 83.900826 
L 520.299064 116.033058 
L 522.840698 116.033058 
L 522.952127 83.900826 
L 533.452952 83.900826 
L 533.564381 116.033058 
L 536.106015 116.033058 
L 536.217444 83.900826 
L 546.718269 83.900826 
L 546.829697 116.033058 
L 549.371332 116.033058 
L 549.482761 83.900826 
L 575.901966 83.900826 
L 576.013394 116.033058 
L 581.208092 116.033058 
L 581.319521 83.900826 
L 599.779536 83.900826 
L 599.890965 116.033058 
L 605.085663 116.033058 
L 605.197091 83.900826 
L 610.391789 83.900826 
L 610.503218 116.033058 
L 618.350979 116.033058 
L 618.462408 83.900826 
L 621.004043 83.900826 
L 621.115472 116.033058 
L 623.657106 116.033058 
L 623.768535 83.900826 
L 658.14693 83.900826 
L 658.258359 116.033058 
L 674.06531 116.033058 
L 674.176739 83.900826 
L 676.718373 83.900826 
L 676.829802 116.033058 
L 687.330627 116.033058 
L 687.442056 83.900826 
L 689.98369 83.900826 
L 690.095119 116.033058 
L 692.636754 116.033058 
L 692.748182 83.900826 
L 695.289817 83.900826 
L 695.401246 116.033058 
L 697.94288 116.033058 
L 698.054309 83.900826 
L 700.595944 83.900826 
L 700.707372 116.033058 
L 703.249007 116.033058 
L 703.360436 83.900826 
L 705.90207 83.900826 
L 706.013499 116.033058 
L 716.514324 116.033058 
L 716.625753 83.900826 
L 727.126577 83.900826 
L 727.238006 116.033058 
L 753.657211 116.033058 
L 753.657211 116.033058 
" style="fill:none;stroke:#932667;stroke-linecap:square;stroke-width:1.5;"/>
   </g>
   <g id="line2d_6">
    <path clip-path="url(#pddd936b789)" d="M 77.126584 132.099174 
L 108.962814 132.099174 
L 109.074242 99.966942 
L 124.881194 99.966942 
L 124.992623 132.099174 
L 132.840384 132.099174 
L 132.951813 99.966942 
L 135.493447 99.966942 
L 135.604876 132.099174 
L 140.799574 132.099174 
L 140.911003 99.966942 
L 159.371018 99.966942 
L 159.482446 132.099174 
L 164.677144 132.099174 
L 164.788573 99.966942 
L 167.330208 99.966942 
L 167.441636 132.099174 
L 169.983271 132.099174 
L 170.0947 99.966942 
L 185.901651 99.966942 
L 186.01308 132.099174 
L 196.513905 132.099174 
L 196.625333 99.966942 
L 204.473095 99.966942 
L 204.584524 132.099174 
L 207.126158 132.099174 
L 207.237587 99.966942 
L 217.738412 99.966942 
L 217.84984 132.099174 
L 220.391475 132.099174 
L 220.502904 99.966942 
L 223.044538 99.966942 
L 223.155967 132.099174 
L 225.697602 132.099174 
L 225.80903 99.966942 
L 231.003729 99.966942 
L 231.115157 132.099174 
L 236.309855 132.099174 
L 236.421284 99.966942 
L 238.962919 99.966942 
L 239.074347 132.099174 
L 241.615982 132.099174 
L 241.727411 99.966942 
L 244.269045 99.966942 
L 244.380474 132.099174 
L 249.575172 132.099174 
L 249.686601 99.966942 
L 260.187426 99.966942 
L 260.298854 132.099174 
L 265.493552 132.099174 
L 265.604981 99.966942 
L 268.146616 99.966942 
L 268.258044 132.099174 
L 270.799679 132.099174 
L 270.911108 99.966942 
L 276.105806 99.966942 
L 276.217234 132.099174 
L 286.718059 132.099174 
L 286.829488 99.966942 
L 292.024186 99.966942 
L 292.135615 132.099174 
L 307.942566 132.099174 
L 308.053995 99.966942 
L 310.595629 99.966942 
L 310.707058 132.099174 
L 318.554819 132.099174 
L 318.666248 99.966942 
L 321.207883 99.966942 
L 321.319312 132.099174 
L 323.860946 132.099174 
L 323.972375 99.966942 
L 326.51401 99.966942 
L 326.625438 132.099174 
L 329.167073 132.099174 
L 329.278502 99.966942 
L 331.820136 99.966942 
L 331.931565 132.099174 
L 350.39158 132.099174 
L 350.503009 99.966942 
L 353.044643 99.966942 
L 353.156072 132.099174 
L 355.697707 132.099174 
L 355.809135 99.966942 
L 358.35077 99.966942 
L 358.462199 132.099174 
L 368.963023 132.099174 
L 369.074452 99.966942 
L 371.616087 99.966942 
L 371.727515 132.099174 
L 374.26915 132.099174 
L 374.380579 99.966942 
L 384.881404 99.966942 
L 384.992832 132.099174 
L 387.534467 132.099174 
L 387.645896 99.966942 
L 390.18753 99.966942 
L 390.298959 132.099174 
L 400.799784 132.099174 
L 400.911212 99.966942 
L 408.758974 99.966942 
L 408.870402 132.099174 
L 424.677354 132.099174 
L 424.788783 99.966942 
L 432.636544 99.966942 
L 432.747973 132.099174 
L 435.289607 132.099174 
L 435.401036 99.966942 
L 443.248798 99.966942 
L 443.360226 132.099174 
L 448.554924 132.099174 
L 448.666353 99.966942 
L 451.207988 99.966942 
L 451.319416 132.099174 
L 456.514114 132.099174 
L 456.625543 99.966942 
L 464.473304 99.966942 
L 464.584733 132.099174 
L 467.126368 132.099174 
L 467.237796 99.966942 
L 469.779431 99.966942 
L 469.89086 132.099174 
L 477.738621 132.099174 
L 477.85005 99.966942 
L 480.391685 99.966942 
L 480.503113 132.099174 
L 483.044748 132.099174 
L 483.156177 99.966942 
L 496.310065 99.966942 
L 496.421493 132.099174 
L 498.963128 132.099174 
L 499.074557 99.966942 
L 504.269255 99.966942 
L 504.380684 132.099174 
L 506.922318 132.099174 
L 507.033747 99.966942 
L 514.881508 99.966942 
L 514.992937 132.099174 
L 517.534572 132.099174 
L 517.646 99.966942 
L 520.187635 99.966942 
L 520.299064 132.099174 
L 522.840698 132.099174 
L 522.952127 99.966942 
L 528.146825 99.966942 
L 528.258254 132.099174 
L 530.799889 132.099174 
L 530.911317 99.966942 
L 533.452952 99.966942 
L 533.564381 132.099174 
L 536.106015 132.099174 
L 536.217444 99.966942 
L 538.759079 99.966942 
L 538.870507 132.099174 
L 546.718269 132.099174 
L 546.829697 99.966942 
L 549.371332 99.966942 
L 549.482761 132.099174 
L 554.677459 132.099174 
L 554.788887 99.966942 
L 559.983586 99.966942 
L 560.095014 132.099174 
L 562.636649 132.099174 
L 562.748078 99.966942 
L 575.901966 99.966942 
L 576.013394 132.099174 
L 589.167283 132.099174 
L 589.278711 99.966942 
L 594.473409 99.966942 
L 594.584838 132.099174 
L 613.044853 132.099174 
L 613.156281 99.966942 
L 618.350979 99.966942 
L 618.462408 132.099174 
L 623.657106 132.099174 
L 623.768535 99.966942 
L 631.616296 99.966942 
L 631.727725 132.099174 
L 634.26936 132.099174 
L 634.380788 99.966942 
L 636.922423 99.966942 
L 637.033852 132.099174 
L 650.18774 132.099174 
L 650.299169 99.966942 
L 652.840803 99.966942 
L 652.952232 132.099174 
L 668.759183 132.099174 
L 668.870612 99.966942 
L 671.412247 99.966942 
L 671.523675 132.099174 
L 687.330627 132.099174 
L 687.442056 99.966942 
L 689.98369 99.966942 
L 690.095119 132.099174 
L 700.595944 132.099174 
L 700.707372 99.966942 
L 703.249007 99.966942 
L 703.360436 132.099174 
L 705.90207 132.099174 
L 706.013499 99.966942 
L 708.555134 99.966942 
L 708.666562 132.099174 
L 711.208197 132.099174 
L 711.319626 99.966942 
L 713.861261 99.966942 
L 713.972689 132.099174 
L 716.514324 132.099174 
L 716.625753 99.966942 
L 719.167387 99.966942 
L 719.278816 132.099174 
L 724.473514 132.099174 
L 724.584943 99.966942 
L 729.779641 99.966942 
L 729.891069 132.099174 
L 766.922528 132.099174 
L 766.922528 132.099174 
" style="fill:none;stroke:#bc3754;stroke-linecap:square;stroke-width:1.5;"/>
   </g>
   <g id="line2d_7">
    <path clip-path="url(#pddd936b789)" d="M 90.391901 148.165289 
L 122.228131 148.165289 
L 122.339559 116.033058 
L 138.146511 116.033058 
L 138.257939 148.165289 
L 143.452638 148.165289 
L 143.564066 116.033058 
L 146.105701 116.033058 
L 146.21713 148.165289 
L 148.758764 148.165289 
L 148.870193 116.033058 
L 154.064891 116.033058 
L 154.17632 148.165289 
L 172.636335 148.165289 
L 172.747763 116.033058 
L 177.942461 116.033058 
L 178.05389 148.165289 
L 180.595525 148.165289 
L 180.706953 116.033058 
L 183.248588 116.033058 
L 183.360017 148.165289 
L 188.554715 148.165289 
L 188.666143 116.033058 
L 191.207778 116.033058 
L 191.319207 148.165289 
L 199.166968 148.165289 
L 199.278397 116.033058 
L 209.779222 116.033058 
L 209.89065 148.165289 
L 217.738412 148.165289 
L 217.84984 116.033058 
L 220.391475 116.033058 
L 220.502904 148.165289 
L 225.697602 148.165289 
L 225.80903 116.033058 
L 231.003729 116.033058 
L 231.115157 148.165289 
L 233.656792 148.165289 
L 233.768221 116.033058 
L 236.309855 116.033058 
L 236.421284 148.165289 
L 238.962919 148.165289 
L 239.074347 116.033058 
L 244.269045 116.033058 
L 244.380474 148.165289 
L 249.575172 148.165289 
L 249.686601 116.033058 
L 252.228235 116.033058 
L 252.339664 148.165289 
L 254.881299 148.165289 
L 254.992727 116.033058 
L 257.534362 116.033058 
L 257.645791 148.165289 
L 260.187426 148.165289 
L 260.298854 116.033058 
L 262.840489 116.033058 
L 262.951918 148.165289 
L 273.452742 148.165289 
L 273.564171 116.033058 
L 278.758869 116.033058 
L 278.870298 148.165289 
L 281.411932 148.165289 
L 281.523361 116.033058 
L 284.064996 116.033058 
L 284.176424 148.165289 
L 289.371122 148.165289 
L 289.482551 116.033058 
L 299.983376 116.033058 
L 300.094805 148.165289 
L 305.289503 148.165289 
L 305.400931 116.033058 
L 315.901756 116.033058 
L 316.013185 148.165289 
L 321.207883 148.165289 
L 321.319312 116.033058 
L 323.860946 116.033058 
L 323.972375 148.165289 
L 331.820136 148.165289 
L 331.931565 116.033058 
L 334.4732 116.033058 
L 334.584628 148.165289 
L 337.126263 148.165289 
L 337.237692 116.033058 
L 339.779326 116.033058 
L 339.890755 148.165289 
L 342.43239 148.165289 
L 342.543818 116.033058 
L 345.085453 116.033058 
L 345.196882 148.165289 
L 350.39158 148.165289 
L 350.503009 116.033058 
L 363.656897 116.033058 
L 363.768325 148.165289 
L 366.30996 148.165289 
L 366.421389 116.033058 
L 368.963023 116.033058 
L 369.074452 148.165289 
L 371.616087 148.165289 
L 371.727515 116.033058 
L 382.22834 116.033058 
L 382.339769 148.165289 
L 384.881404 148.165289 
L 384.992832 116.033058 
L 387.534467 116.033058 
L 387.645896 148.165289 
L 398.14672 148.165289 
L 398.258149 116.033058 
L 400.799784 116.033058 
L 400.911212 148.165289 
L 403.452847 148.165289 
L 403.564276 116.033058 
L 411.412037 116.033058 
L 411.523466 148.165289 
L 414.065101 148.165289 
L 414.176529 116.033058 
L 422.024291 116.033058 
L 422.135719 148.165289 
L 437.942671 148.165289 
L 438.054099 116.033058 
L 445.901861 116.033058 
L 446.01329 148.165289 
L 448.554924 148.165289 
L 448.666353 116.033058 
L 456.514114 116.033058 
L 456.625543 148.165289 
L 461.820241 148.165289 
L 461.93167 116.033058 
L 464.473304 116.033058 
L 464.584733 148.165289 
L 467.126368 148.165289 
L 467.237796 116.033058 
L 469.779431 116.033058 
L 469.89086 148.165289 
L 477.738621 148.165289 
L 477.85005 116.033058 
L 480.391685 116.033058 
L 480.503113 148.165289 
L 483.044748 148.165289 
L 483.156177 116.033058 
L 485.697811 116.033058 
L 485.80924 148.165289 
L 491.003938 148.165289 
L 491.115367 116.033058 
L 493.657001 116.033058 
L 493.76843 148.165289 
L 496.310065 148.165289 
L 496.421493 116.033058 
L 501.616192 116.033058 
L 501.72762 148.165289 
L 506.922318 148.165289 
L 507.033747 116.033058 
L 509.575382 116.033058 
L 509.68681 148.165289 
L 512.228445 148.165289 
L 512.339874 116.033058 
L 517.534572 116.033058 
L 517.646 148.165289 
L 520.187635 148.165289 
L 520.299064 116.033058 
L 522.840698 116.033058 
L 522.952127 148.165289 
L 528.146825 148.165289 
L 528.258254 116.033058 
L 530.799889 116.033058 
L 530.911317 148.165289 
L 533.452952 148.165289 
L 533.564381 116.033058 
L 536.106015 116.033058 
L 536.217444 148.165289 
L 541.412142 148.165289 
L 541.523571 116.033058 
L 544.065205 116.033058 
L 544.176634 148.165289 
L 546.718269 148.165289 
L 546.829697 116.033058 
L 549.371332 116.033058 
L 549.482761 148.165289 
L 552.024395 148.165289 
L 552.135824 116.033058 
L 559.983586 116.033058 
L 560.095014 148.165289 
L 562.636649 148.165289 
L 562.748078 116.033058 
L 567.942776 116.033058 
L 568.054204 148.165289 
L 573.248902 148.165289 
L 573.360331 116.033058 
L 575.901966 116.033058 
L 576.013394 148.165289 
L 583.861156 148.165289 
L 583.972584 116.033058 
L 586.514219 116.033058 
L 586.625648 148.165289 
L 589.167283 148.165289 
L 589.278711 116.033058 
L 599.779536 116.033058 
L 599.890965 148.165289 
L 602.432599 148.165289 
L 602.544028 116.033058 
L 607.738726 116.033058 
L 607.850155 148.165289 
L 626.31017 148.165289 
L 626.421598 116.033058 
L 628.963233 116.033058 
L 629.074662 148.165289 
L 631.616296 148.165289 
L 631.727725 116.033058 
L 636.922423 116.033058 
L 637.033852 148.165289 
L 644.881613 148.165289 
L 644.993042 116.033058 
L 647.534676 116.033058 
L 647.646105 148.165289 
L 650.18774 148.165289 
L 650.299169 116.033058 
L 660.799993 116.033058 
L 660.911422 148.165289 
L 663.453057 148.165289 
L 663.564485 116.033058 
L 666.10612 116.033058 
L 666.217549 148.165289 
L 671.412247 148.165289 
L 671.523675 116.033058 
L 674.06531 116.033058 
L 674.176739 148.165289 
L 682.0245 148.165289 
L 682.135929 116.033058 
L 684.677564 116.033058 
L 684.788992 148.165289 
L 687.330627 148.165289 
L 687.442056 116.033058 
L 700.595944 116.033058 
L 700.707372 148.165289 
L 703.249007 148.165289 
L 703.360436 116.033058 
L 705.90207 116.033058 
L 706.013499 148.165289 
L 713.861261 148.165289 
L 713.972689 116.033058 
L 716.514324 116.033058 
L 716.625753 148.165289 
L 719.167387 148.165289 
L 719.278816 116.033058 
L 721.820451 116.033058 
L 721.931879 148.165289 
L 724.473514 148.165289 
L 724.584943 116.033058 
L 727.126577 116.033058 
L 727.238006 148.165289 
L 729.779641 148.165289 
L 729.891069 116.033058 
L 732.432704 116.033058 
L 732.544133 148.165289 
L 735.085767 148.165289 
L 735.197196 116.033058 
L 737.738831 116.033058 
L 737.850259 148.165289 
L 743.044958 148.165289 
L 743.156386 116.033058 
L 753.657211 116.033058 
L 753.76864 148.165289 
L 780.187845 148.165289 
L 780.187845 148.165289 
" style="fill:none;stroke:#dd513a;stroke-linecap:square;stroke-width:1.5;"/>
   </g>
   <g id="line2d_8">
    <path clip-path="url(#pddd936b789)" d="M 103.657218 164.231405 
L 135.493447 164.231405 
L 135.604876 132.099174 
L 151.411828 132.099174 
L 151.523256 164.231405 
L 156.717954 164.231405 
L 156.829383 132.099174 
L 159.371018 132.099174 
L 159.482446 164.231405 
L 162.024081 164.231405 
L 162.13551 132.099174 
L 167.330208 132.099174 
L 167.441636 164.231405 
L 180.595525 164.231405 
L 180.706953 132.099174 
L 185.901651 132.099174 
L 186.01308 164.231405 
L 188.554715 164.231405 
L 188.666143 132.099174 
L 191.207778 132.099174 
L 191.319207 164.231405 
L 193.860841 164.231405 
L 193.97227 132.099174 
L 196.513905 132.099174 
L 196.625333 164.231405 
L 201.820032 164.231405 
L 201.93146 132.099174 
L 204.473095 132.099174 
L 204.584524 164.231405 
L 212.432285 164.231405 
L 212.543714 132.099174 
L 220.391475 132.099174 
L 220.502904 164.231405 
L 223.044538 164.231405 
L 223.155967 132.099174 
L 231.003729 132.099174 
L 231.115157 164.231405 
L 233.656792 164.231405 
L 233.768221 132.099174 
L 238.962919 132.099174 
L 239.074347 164.231405 
L 241.615982 164.231405 
L 241.727411 132.099174 
L 244.269045 132.099174 
L 244.380474 164.231405 
L 246.922109 164.231405 
L 247.033537 132.099174 
L 249.575172 132.099174 
L 249.686601 164.231405 
L 252.228235 164.231405 
L 252.339664 132.099174 
L 257.534362 132.099174 
L 257.645791 164.231405 
L 262.840489 164.231405 
L 262.951918 132.099174 
L 265.493552 132.099174 
L 265.604981 164.231405 
L 268.146616 164.231405 
L 268.258044 132.099174 
L 270.799679 132.099174 
L 270.911108 164.231405 
L 273.452742 164.231405 
L 273.564171 132.099174 
L 276.105806 132.099174 
L 276.217234 164.231405 
L 284.064996 164.231405 
L 284.176424 132.099174 
L 286.718059 132.099174 
L 286.829488 164.231405 
L 292.024186 164.231405 
L 292.135615 132.099174 
L 294.677249 132.099174 
L 294.788678 164.231405 
L 297.330313 164.231405 
L 297.441741 132.099174 
L 299.983376 132.099174 
L 300.094805 164.231405 
L 302.636439 164.231405 
L 302.747868 132.099174 
L 313.248693 132.099174 
L 313.360121 164.231405 
L 315.901756 164.231405 
L 316.013185 132.099174 
L 318.554819 132.099174 
L 318.666248 164.231405 
L 329.167073 164.231405 
L 329.278502 132.099174 
L 334.4732 132.099174 
L 334.584628 164.231405 
L 337.126263 164.231405 
L 337.237692 132.099174 
L 342.43239 132.099174 
L 342.543818 164.231405 
L 345.085453 164.231405 
L 345.196882 132.099174 
L 347.738516 132.099174 
L 347.849945 164.231405 
L 350.39158 164.231405 
L 350.503009 132.099174 
L 353.044643 132.099174 
L 353.156072 164.231405 
L 355.697707 164.231405 
L 355.809135 132.099174 
L 358.35077 132.099174 
L 358.462199 164.231405 
L 363.656897 164.231405 
L 363.768325 132.099174 
L 366.30996 132.099174 
L 366.421389 164.231405 
L 376.922213 164.231405 
L 377.033642 132.099174 
L 379.575277 132.099174 
L 379.686705 164.231405 
L 382.22834 164.231405 
L 382.339769 132.099174 
L 384.881404 132.099174 
L 384.992832 164.231405 
L 395.493657 164.231405 
L 395.605086 132.099174 
L 398.14672 132.099174 
L 398.258149 164.231405 
L 400.799784 164.231405 
L 400.911212 132.099174 
L 411.412037 132.099174 
L 411.523466 164.231405 
L 414.065101 164.231405 
L 414.176529 132.099174 
L 416.718164 132.099174 
L 416.829593 164.231405 
L 424.677354 164.231405 
L 424.788783 132.099174 
L 427.330417 132.099174 
L 427.441846 164.231405 
L 435.289607 164.231405 
L 435.401036 132.099174 
L 445.901861 132.099174 
L 446.01329 164.231405 
L 451.207988 164.231405 
L 451.319416 132.099174 
L 459.167178 132.099174 
L 459.278606 164.231405 
L 461.820241 164.231405 
L 461.93167 132.099174 
L 469.779431 132.099174 
L 469.89086 164.231405 
L 475.085558 164.231405 
L 475.196987 132.099174 
L 477.738621 132.099174 
L 477.85005 164.231405 
L 480.391685 164.231405 
L 480.503113 132.099174 
L 483.044748 132.099174 
L 483.156177 164.231405 
L 485.697811 164.231405 
L 485.80924 132.099174 
L 491.003938 132.099174 
L 491.115367 164.231405 
L 493.657001 164.231405 
L 493.76843 132.099174 
L 496.310065 132.099174 
L 496.421493 164.231405 
L 498.963128 164.231405 
L 499.074557 132.099174 
L 504.269255 132.099174 
L 504.380684 164.231405 
L 506.922318 164.231405 
L 507.033747 132.099174 
L 509.575382 132.099174 
L 509.68681 164.231405 
L 514.881508 164.231405 
L 514.992937 132.099174 
L 517.534572 132.099174 
L 517.646 164.231405 
L 520.187635 164.231405 
L 520.299064 132.099174 
L 522.840698 132.099174 
L 522.952127 164.231405 
L 525.493762 164.231405 
L 525.60519 132.099174 
L 530.799889 132.099174 
L 530.911317 164.231405 
L 533.452952 164.231405 
L 533.564381 132.099174 
L 536.106015 132.099174 
L 536.217444 164.231405 
L 541.412142 164.231405 
L 541.523571 132.099174 
L 544.065205 132.099174 
L 544.176634 164.231405 
L 546.718269 164.231405 
L 546.829697 132.099174 
L 549.371332 132.099174 
L 549.482761 164.231405 
L 554.677459 164.231405 
L 554.788887 132.099174 
L 557.330522 132.099174 
L 557.441951 164.231405 
L 559.983586 164.231405 
L 560.095014 132.099174 
L 562.636649 132.099174 
L 562.748078 164.231405 
L 565.289712 164.231405 
L 565.401141 132.099174 
L 573.248902 132.099174 
L 573.360331 164.231405 
L 575.901966 164.231405 
L 576.013394 132.099174 
L 581.208092 132.099174 
L 581.319521 164.231405 
L 586.514219 164.231405 
L 586.625648 132.099174 
L 589.167283 132.099174 
L 589.278711 164.231405 
L 594.473409 164.231405 
L 594.584838 132.099174 
L 597.126473 132.099174 
L 597.237901 164.231405 
L 599.779536 164.231405 
L 599.890965 132.099174 
L 602.432599 132.099174 
L 602.544028 164.231405 
L 613.044853 164.231405 
L 613.156281 132.099174 
L 615.697916 132.099174 
L 615.809345 164.231405 
L 621.004043 164.231405 
L 621.115472 132.099174 
L 626.31017 132.099174 
L 626.421598 164.231405 
L 631.616296 164.231405 
L 631.727725 132.099174 
L 639.575486 132.099174 
L 639.686915 164.231405 
L 642.22855 164.231405 
L 642.339978 132.099174 
L 644.881613 132.099174 
L 644.993042 164.231405 
L 650.18774 164.231405 
L 650.299169 132.099174 
L 652.840803 132.099174 
L 652.952232 164.231405 
L 658.14693 164.231405 
L 658.258359 132.099174 
L 660.799993 132.099174 
L 660.911422 164.231405 
L 663.453057 164.231405 
L 663.564485 132.099174 
L 671.412247 132.099174 
L 671.523675 164.231405 
L 674.06531 164.231405 
L 674.176739 132.099174 
L 676.718373 132.099174 
L 676.829802 164.231405 
L 679.371437 164.231405 
L 679.482866 132.099174 
L 684.677564 132.099174 
L 684.788992 164.231405 
L 687.330627 164.231405 
L 687.442056 132.099174 
L 695.289817 132.099174 
L 695.401246 164.231405 
L 697.94288 164.231405 
L 698.054309 132.099174 
L 700.595944 132.099174 
L 700.707372 164.231405 
L 708.555134 164.231405 
L 708.666562 132.099174 
L 713.861261 132.099174 
L 713.972689 164.231405 
L 716.514324 164.231405 
L 716.625753 132.099174 
L 719.167387 132.099174 
L 719.278816 164.231405 
L 727.126577 164.231405 
L 727.238006 132.099174 
L 729.779641 132.099174 
L 729.891069 164.231405 
L 732.432704 164.231405 
L 732.544133 132.099174 
L 735.085767 132.099174 
L 735.197196 164.231405 
L 737.738831 164.231405 
L 737.850259 132.099174 
L 740.391894 132.099174 
L 740.503323 164.231405 
L 743.044958 164.231405 
L 743.156386 132.099174 
L 745.698021 132.099174 
L 745.80945 164.231405 
L 748.351084 164.231405 
L 748.462513 132.099174 
L 751.004148 132.099174 
L 751.115576 164.231405 
L 756.310274 164.231405 
L 756.421703 132.099174 
L 766.922528 132.099174 
L 767.033956 164.231405 
L 793.453161 164.231405 
L 793.453161 164.231405 
" style="fill:none;stroke:#f37819;stroke-linecap:square;stroke-width:1.5;"/>
   </g>
   <g id="line2d_9">
    <path clip-path="url(#pddd936b789)" d="M 116.922535 180.297521 
L 146.105701 180.297521 
L 146.21713 148.165289 
L 148.758764 148.165289 
L 148.870193 180.297521 
L 159.371018 180.297521 
L 159.482446 148.165289 
L 162.024081 148.165289 
L 162.13551 180.297521 
L 164.677144 180.297521 
L 164.788573 148.165289 
L 169.983271 148.165289 
L 170.0947 180.297521 
L 172.636335 180.297521 
L 172.747763 148.165289 
L 175.289398 148.165289 
L 175.400827 180.297521 
L 180.595525 180.297521 
L 180.706953 148.165289 
L 185.901651 148.165289 
L 186.01308 180.297521 
L 188.554715 180.297521 
L 188.666143 148.165289 
L 193.860841 148.165289 
L 193.97227 180.297521 
L 199.166968 180.297521 
L 199.278397 148.165289 
L 201.820032 148.165289 
L 201.93146 180.297521 
L 204.473095 180.297521 
L 204.584524 148.165289 
L 207.126158 148.165289 
L 207.237587 180.297521 
L 209.779222 180.297521 
L 209.89065 148.165289 
L 215.085348 148.165289 
L 215.196777 180.297521 
L 217.738412 180.297521 
L 217.84984 148.165289 
L 225.697602 148.165289 
L 225.80903 180.297521 
L 231.003729 180.297521 
L 231.115157 148.165289 
L 233.656792 148.165289 
L 233.768221 180.297521 
L 236.309855 180.297521 
L 236.421284 148.165289 
L 238.962919 148.165289 
L 239.074347 180.297521 
L 244.269045 180.297521 
L 244.380474 148.165289 
L 246.922109 148.165289 
L 247.033537 180.297521 
L 252.228235 180.297521 
L 252.339664 148.165289 
L 254.881299 148.165289 
L 254.992727 180.297521 
L 257.534362 180.297521 
L 257.645791 148.165289 
L 260.187426 148.165289 
L 260.298854 180.297521 
L 262.840489 180.297521 
L 262.951918 148.165289 
L 265.493552 148.165289 
L 265.604981 180.297521 
L 268.146616 180.297521 
L 268.258044 148.165289 
L 270.799679 148.165289 
L 270.911108 180.297521 
L 276.105806 180.297521 
L 276.217234 148.165289 
L 278.758869 148.165289 
L 278.870298 180.297521 
L 281.411932 180.297521 
L 281.523361 148.165289 
L 284.064996 148.165289 
L 284.176424 180.297521 
L 286.718059 180.297521 
L 286.829488 148.165289 
L 289.371122 148.165289 
L 289.482551 180.297521 
L 297.330313 180.297521 
L 297.441741 148.165289 
L 299.983376 148.165289 
L 300.094805 180.297521 
L 305.289503 180.297521 
L 305.400931 148.165289 
L 307.942566 148.165289 
L 308.053995 180.297521 
L 310.595629 180.297521 
L 310.707058 148.165289 
L 313.248693 148.165289 
L 313.360121 180.297521 
L 315.901756 180.297521 
L 316.013185 148.165289 
L 323.860946 148.165289 
L 323.972375 180.297521 
L 326.51401 180.297521 
L 326.625438 148.165289 
L 329.167073 148.165289 
L 329.278502 180.297521 
L 331.820136 180.297521 
L 331.931565 148.165289 
L 334.4732 148.165289 
L 334.584628 180.297521 
L 339.779326 180.297521 
L 339.890755 148.165289 
L 342.43239 148.165289 
L 342.543818 180.297521 
L 347.738516 180.297521 
L 347.849945 148.165289 
L 350.39158 148.165289 
L 350.503009 180.297521 
L 355.697707 180.297521 
L 355.809135 148.165289 
L 358.35077 148.165289 
L 358.462199 180.297521 
L 361.003833 180.297521 
L 361.115262 148.165289 
L 363.656897 148.165289 
L 363.768325 180.297521 
L 366.30996 180.297521 
L 366.421389 148.165289 
L 368.963023 148.165289 
L 369.074452 180.297521 
L 371.616087 180.297521 
L 371.727515 148.165289 
L 376.922213 148.165289 
L 377.033642 180.297521 
L 379.575277 180.297521 
L 379.686705 148.165289 
L 384.881404 148.165289 
L 384.992832 180.297521 
L 390.18753 180.297521 
L 390.298959 148.165289 
L 392.840594 148.165289 
L 392.952022 180.297521 
L 395.493657 180.297521 
L 395.605086 148.165289 
L 398.14672 148.165289 
L 398.258149 180.297521 
L 408.758974 180.297521 
L 408.870402 148.165289 
L 411.412037 148.165289 
L 411.523466 180.297521 
L 414.065101 180.297521 
L 414.176529 148.165289 
L 419.371227 148.165289 
L 419.482656 180.297521 
L 424.677354 180.297521 
L 424.788783 148.165289 
L 427.330417 148.165289 
L 427.441846 180.297521 
L 429.983481 180.297521 
L 430.094909 148.165289 
L 432.636544 148.165289 
L 432.747973 180.297521 
L 437.942671 180.297521 
L 438.054099 148.165289 
L 440.595734 148.165289 
L 440.707163 180.297521 
L 445.901861 180.297521 
L 446.01329 148.165289 
L 448.554924 148.165289 
L 448.666353 180.297521 
L 459.167178 180.297521 
L 459.278606 148.165289 
L 461.820241 148.165289 
L 461.93167 180.297521 
L 464.473304 180.297521 
L 464.584733 148.165289 
L 469.779431 148.165289 
L 469.89086 180.297521 
L 472.432495 180.297521 
L 472.543923 148.165289 
L 475.085558 148.165289 
L 475.196987 180.297521 
L 477.738621 180.297521 
L 477.85005 148.165289 
L 483.044748 148.165289 
L 483.156177 180.297521 
L 488.350875 180.297521 
L 488.462303 148.165289 
L 491.003938 148.165289 
L 491.115367 180.297521 
L 493.657001 180.297521 
L 493.76843 148.165289 
L 496.310065 148.165289 
L 496.421493 180.297521 
L 498.963128 180.297521 
L 499.074557 148.165289 
L 501.616192 148.165289 
L 501.72762 180.297521 
L 504.269255 180.297521 
L 504.380684 148.165289 
L 506.922318 148.165289 
L 507.033747 180.297521 
L 509.575382 180.297521 
L 509.68681 148.165289 
L 512.228445 148.165289 
L 512.339874 180.297521 
L 517.534572 180.297521 
L 517.646 148.165289 
L 520.187635 148.165289 
L 520.299064 180.297521 
L 522.840698 180.297521 
L 522.952127 148.165289 
L 528.146825 148.165289 
L 528.258254 180.297521 
L 530.799889 180.297521 
L 530.911317 148.165289 
L 533.452952 148.165289 
L 533.564381 180.297521 
L 536.106015 180.297521 
L 536.217444 148.165289 
L 538.759079 148.165289 
L 538.870507 180.297521 
L 541.412142 180.297521 
L 541.523571 148.165289 
L 544.065205 148.165289 
L 544.176634 180.297521 
L 546.718269 180.297521 
L 546.829697 148.165289 
L 549.371332 148.165289 
L 549.482761 180.297521 
L 554.677459 180.297521 
L 554.788887 148.165289 
L 557.330522 148.165289 
L 557.441951 180.297521 
L 559.983586 180.297521 
L 560.095014 148.165289 
L 562.636649 148.165289 
L 562.748078 180.297521 
L 567.942776 180.297521 
L 568.054204 148.165289 
L 570.595839 148.165289 
L 570.707268 180.297521 
L 573.248902 180.297521 
L 573.360331 148.165289 
L 575.901966 148.165289 
L 576.013394 180.297521 
L 578.555029 180.297521 
L 578.666458 148.165289 
L 586.514219 148.165289 
L 586.625648 180.297521 
L 589.167283 180.297521 
L 589.278711 148.165289 
L 594.473409 148.165289 
L 594.584838 180.297521 
L 597.126473 180.297521 
L 597.237901 148.165289 
L 599.779536 148.165289 
L 599.890965 180.297521 
L 602.432599 180.297521 
L 602.544028 148.165289 
L 607.738726 148.165289 
L 607.850155 180.297521 
L 610.391789 180.297521 
L 610.503218 148.165289 
L 613.044853 148.165289 
L 613.156281 180.297521 
L 615.697916 180.297521 
L 615.809345 148.165289 
L 626.31017 148.165289 
L 626.421598 180.297521 
L 628.963233 180.297521 
L 629.074662 148.165289 
L 634.26936 148.165289 
L 634.380788 180.297521 
L 636.922423 180.297521 
L 637.033852 148.165289 
L 639.575486 148.165289 
L 639.686915 180.297521 
L 642.22855 180.297521 
L 642.339978 148.165289 
L 644.881613 148.165289 
L 644.993042 180.297521 
L 652.840803 180.297521 
L 652.952232 148.165289 
L 655.493867 148.165289 
L 655.605295 180.297521 
L 658.14693 180.297521 
L 658.258359 148.165289 
L 663.453057 148.165289 
L 663.564485 180.297521 
L 666.10612 180.297521 
L 666.217549 148.165289 
L 671.412247 148.165289 
L 671.523675 180.297521 
L 674.06531 180.297521 
L 674.176739 148.165289 
L 676.718373 148.165289 
L 676.829802 180.297521 
L 682.0245 180.297521 
L 682.135929 148.165289 
L 684.677564 148.165289 
L 684.788992 180.297521 
L 687.330627 180.297521 
L 687.442056 148.165289 
L 689.98369 148.165289 
L 690.095119 180.297521 
L 692.636754 180.297521 
L 692.748182 148.165289 
L 695.289817 148.165289 
L 695.401246 180.297521 
L 697.94288 180.297521 
L 698.054309 148.165289 
L 700.595944 148.165289 
L 700.707372 180.297521 
L 708.555134 180.297521 
L 708.666562 148.165289 
L 711.208197 148.165289 
L 711.319626 180.297521 
L 713.861261 180.297521 
L 713.972689 148.165289 
L 719.167387 148.165289 
L 719.278816 180.297521 
L 721.820451 180.297521 
L 721.931879 148.165289 
L 727.126577 148.165289 
L 727.238006 180.297521 
L 729.779641 180.297521 
L 729.891069 148.165289 
L 732.432704 148.165289 
L 732.544133 180.297521 
L 737.738831 180.297521 
L 737.850259 148.165289 
L 740.391894 148.165289 
L 740.503323 180.297521 
L 743.044958 180.297521 
L 743.156386 148.165289 
L 745.698021 148.165289 
L 745.80945 180.297521 
L 748.351084 180.297521 
L 748.462513 148.165289 
L 751.004148 148.165289 
L 751.115576 180.297521 
L 753.657211 180.297521 
L 753.76864 148.165289 
L 756.310274 148.165289 
L 756.421703 180.297521 
L 758.963338 180.297521 
L 759.074766 148.165289 
L 761.616401 148.165289 
L 761.72783 180.297521 
L 764.269464 180.297521 
L 764.380893 148.165289 
L 769.575591 148.165289 
L 769.68702 180.297521 
L 772.228655 180.297521 
L 772.340083 148.165289 
L 774.881718 148.165289 
L 774.993147 180.297521 
L 806.718478 180.297521 
L 806.718478 180.297521 
" style="fill:none;stroke:#fca50a;stroke-linecap:square;stroke-width:1.5;"/>
   </g>
   <g id="line2d_10">
    <path clip-path="url(#pddd936b789)" d="M 130.187851 196.363636 
L 159.371018 196.363636 
L 159.482446 164.231405 
L 162.024081 164.231405 
L 162.13551 196.363636 
L 164.677144 196.363636 
L 164.788573 164.231405 
L 167.330208 164.231405 
L 167.441636 196.363636 
L 169.983271 196.363636 
L 170.0947 164.231405 
L 172.636335 164.231405 
L 172.747763 196.363636 
L 175.289398 196.363636 
L 175.400827 164.231405 
L 177.942461 164.231405 
L 178.05389 196.363636 
L 183.248588 196.363636 
L 183.360017 164.231405 
L 185.901651 164.231405 
L 186.01308 196.363636 
L 188.554715 196.363636 
L 188.666143 164.231405 
L 191.207778 164.231405 
L 191.319207 196.363636 
L 193.860841 196.363636 
L 193.97227 164.231405 
L 199.166968 164.231405 
L 199.278397 196.363636 
L 201.820032 196.363636 
L 201.93146 164.231405 
L 204.473095 164.231405 
L 204.584524 196.363636 
L 207.126158 196.363636 
L 207.237587 164.231405 
L 212.432285 164.231405 
L 212.543714 196.363636 
L 215.085348 196.363636 
L 215.196777 164.231405 
L 217.738412 164.231405 
L 217.84984 196.363636 
L 220.391475 196.363636 
L 220.502904 164.231405 
L 223.044538 164.231405 
L 223.155967 196.363636 
L 228.350665 196.363636 
L 228.462094 164.231405 
L 231.003729 164.231405 
L 231.115157 196.363636 
L 233.656792 196.363636 
L 233.768221 164.231405 
L 238.962919 164.231405 
L 239.074347 196.363636 
L 241.615982 196.363636 
L 241.727411 164.231405 
L 244.269045 164.231405 
L 244.380474 196.363636 
L 246.922109 196.363636 
L 247.033537 164.231405 
L 249.575172 164.231405 
L 249.686601 196.363636 
L 252.228235 196.363636 
L 252.339664 164.231405 
L 257.534362 164.231405 
L 257.645791 196.363636 
L 260.187426 196.363636 
L 260.298854 164.231405 
L 265.493552 164.231405 
L 265.604981 196.363636 
L 268.146616 196.363636 
L 268.258044 164.231405 
L 270.799679 164.231405 
L 270.911108 196.363636 
L 273.452742 196.363636 
L 273.564171 164.231405 
L 276.105806 164.231405 
L 276.217234 196.363636 
L 278.758869 196.363636 
L 278.870298 164.231405 
L 281.411932 164.231405 
L 281.523361 196.363636 
L 284.064996 196.363636 
L 284.176424 164.231405 
L 289.371122 164.231405 
L 289.482551 196.363636 
L 292.024186 196.363636 
L 292.135615 164.231405 
L 294.677249 164.231405 
L 294.788678 196.363636 
L 297.330313 196.363636 
L 297.441741 164.231405 
L 299.983376 164.231405 
L 300.094805 196.363636 
L 302.636439 196.363636 
L 302.747868 164.231405 
L 305.289503 164.231405 
L 305.400931 196.363636 
L 307.942566 196.363636 
L 308.053995 164.231405 
L 310.595629 164.231405 
L 310.707058 196.363636 
L 313.248693 196.363636 
L 313.360121 164.231405 
L 318.554819 164.231405 
L 318.666248 196.363636 
L 321.207883 196.363636 
L 321.319312 164.231405 
L 323.860946 164.231405 
L 323.972375 196.363636 
L 326.51401 196.363636 
L 326.625438 164.231405 
L 329.167073 164.231405 
L 329.278502 196.363636 
L 331.820136 196.363636 
L 331.931565 164.231405 
L 337.126263 164.231405 
L 337.237692 196.363636 
L 339.779326 196.363636 
L 339.890755 164.231405 
L 342.43239 164.231405 
L 342.543818 196.363636 
L 345.085453 196.363636 
L 345.196882 164.231405 
L 347.738516 164.231405 
L 347.849945 196.363636 
L 350.39158 196.363636 
L 350.503009 164.231405 
L 353.044643 164.231405 
L 353.156072 196.363636 
L 355.697707 196.363636 
L 355.809135 164.231405 
L 361.003833 164.231405 
L 361.115262 196.363636 
L 363.656897 196.363636 
L 363.768325 164.231405 
L 366.30996 164.231405 
L 366.421389 196.363636 
L 368.963023 196.363636 
L 369.074452 164.231405 
L 371.616087 164.231405 
L 371.727515 196.363636 
L 374.26915 196.363636 
L 374.380579 164.231405 
L 376.922213 164.231405 
L 377.033642 196.363636 
L 379.575277 196.363636 
L 379.686705 164.231405 
L 382.22834 164.231405 
L 382.339769 196.363636 
L 384.881404 196.363636 
L 384.992832 164.231405 
L 390.18753 164.231405 
L 390.298959 196.363636 
L 392.840594 196.363636 
L 392.952022 164.231405 
L 398.14672 164.231405 
L 398.258149 196.363636 
L 400.799784 196.363636 
L 400.911212 164.231405 
L 403.452847 164.231405 
L 403.564276 196.363636 
L 406.10591 196.363636 
L 406.217339 164.231405 
L 408.758974 164.231405 
L 408.870402 196.363636 
L 411.412037 196.363636 
L 411.523466 164.231405 
L 419.371227 164.231405 
L 419.482656 196.363636 
L 422.024291 196.363636 
L 422.135719 164.231405 
L 424.677354 164.231405 
L 424.788783 196.363636 
L 427.330417 196.363636 
L 427.441846 164.231405 
L 429.983481 164.231405 
L 430.094909 196.363636 
L 432.636544 196.363636 
L 432.747973 164.231405 
L 437.942671 164.231405 
L 438.054099 196.363636 
L 440.595734 196.363636 
L 440.707163 164.231405 
L 443.248798 164.231405 
L 443.360226 196.363636 
L 445.901861 196.363636 
L 446.01329 164.231405 
L 451.207988 164.231405 
L 451.319416 196.363636 
L 453.861051 196.363636 
L 453.97248 164.231405 
L 456.514114 164.231405 
L 456.625543 196.363636 
L 459.167178 196.363636 
L 459.278606 164.231405 
L 461.820241 164.231405 
L 461.93167 196.363636 
L 464.473304 196.363636 
L 464.584733 164.231405 
L 467.126368 164.231405 
L 467.237796 196.363636 
L 469.779431 196.363636 
L 469.89086 164.231405 
L 472.432495 164.231405 
L 472.543923 196.363636 
L 475.085558 196.363636 
L 475.196987 164.231405 
L 477.738621 164.231405 
L 477.85005 196.363636 
L 480.391685 196.363636 
L 480.503113 164.231405 
L 483.044748 164.231405 
L 483.156177 196.363636 
L 485.697811 196.363636 
L 485.80924 164.231405 
L 488.350875 164.231405 
L 488.462303 196.363636 
L 491.003938 196.363636 
L 491.115367 164.231405 
L 496.310065 164.231405 
L 496.421493 196.363636 
L 501.616192 196.363636 
L 501.72762 164.231405 
L 504.269255 164.231405 
L 504.380684 196.363636 
L 506.922318 196.363636 
L 507.033747 164.231405 
L 509.575382 164.231405 
L 509.68681 196.363636 
L 512.228445 196.363636 
L 512.339874 164.231405 
L 514.881508 164.231405 
L 514.992937 196.363636 
L 517.534572 196.363636 
L 517.646 164.231405 
L 520.187635 164.231405 
L 520.299064 196.363636 
L 522.840698 196.363636 
L 522.952127 164.231405 
L 525.493762 164.231405 
L 525.60519 196.363636 
L 528.146825 196.363636 
L 528.258254 164.231405 
L 530.799889 164.231405 
L 530.911317 196.363636 
L 533.452952 196.363636 
L 533.564381 164.231405 
L 536.106015 164.231405 
L 536.217444 196.363636 
L 541.412142 196.363636 
L 541.523571 164.231405 
L 544.065205 164.231405 
L 544.176634 196.363636 
L 546.718269 196.363636 
L 546.829697 164.231405 
L 549.371332 164.231405 
L 549.482761 196.363636 
L 552.024395 196.363636 
L 552.135824 164.231405 
L 554.677459 164.231405 
L 554.788887 196.363636 
L 557.330522 196.363636 
L 557.441951 164.231405 
L 559.983586 164.231405 
L 560.095014 196.363636 
L 562.636649 196.363636 
L 562.748078 164.231405 
L 567.942776 164.231405 
L 568.054204 196.363636 
L 570.595839 196.363636 
L 570.707268 164.231405 
L 573.248902 164.231405 
L 573.360331 196.363636 
L 575.901966 196.363636 
L 576.013394 164.231405 
L 578.555029 164.231405 
L 578.666458 196.363636 
L 581.208092 196.363636 
L 581.319521 164.231405 
L 583.861156 164.231405 
L 583.972584 196.363636 
L 586.514219 196.363636 
L 586.625648 164.231405 
L 589.167283 164.231405 
L 589.278711 196.363636 
L 591.820346 196.363636 
L 591.931775 164.231405 
L 594.473409 164.231405 
L 594.584838 196.363636 
L 597.126473 196.363636 
L 597.237901 164.231405 
L 599.779536 164.231405 
L 599.890965 196.363636 
L 602.432599 196.363636 
L 602.544028 164.231405 
L 605.085663 164.231405 
L 605.197091 196.363636 
L 607.738726 196.363636 
L 607.850155 164.231405 
L 610.391789 164.231405 
L 610.503218 196.363636 
L 613.044853 196.363636 
L 613.156281 164.231405 
L 615.697916 164.231405 
L 615.809345 196.363636 
L 618.350979 196.363636 
L 618.462408 164.231405 
L 621.004043 164.231405 
L 621.115472 196.363636 
L 623.657106 196.363636 
L 623.768535 164.231405 
L 626.31017 164.231405 
L 626.421598 196.363636 
L 628.963233 196.363636 
L 629.074662 164.231405 
L 634.26936 164.231405 
L 634.380788 196.363636 
L 636.922423 196.363636 
L 637.033852 164.231405 
L 639.575486 164.231405 
L 639.686915 196.363636 
L 642.22855 196.363636 
L 642.339978 164.231405 
L 647.534676 164.231405 
L 647.646105 196.363636 
L 650.18774 196.363636 
L 650.299169 164.231405 
L 652.840803 164.231405 
L 652.952232 196.363636 
L 655.493867 196.363636 
L 655.605295 164.231405 
L 658.14693 164.231405 
L 658.258359 196.363636 
L 666.10612 196.363636 
L 666.217549 164.231405 
L 668.759183 164.231405 
L 668.870612 196.363636 
L 671.412247 196.363636 
L 671.523675 164.231405 
L 674.06531 164.231405 
L 674.176739 196.363636 
L 676.718373 196.363636 
L 676.829802 164.231405 
L 679.371437 164.231405 
L 679.482866 196.363636 
L 684.677564 196.363636 
L 684.788992 164.231405 
L 687.330627 164.231405 
L 687.442056 196.363636 
L 689.98369 196.363636 
L 690.095119 164.231405 
L 692.636754 164.231405 
L 692.748182 196.363636 
L 695.289817 196.363636 
L 695.401246 164.231405 
L 697.94288 164.231405 
L 698.054309 196.363636 
L 700.595944 196.363636 
L 700.707372 164.231405 
L 703.249007 164.231405 
L 703.360436 196.363636 
L 705.90207 196.363636 
L 706.013499 164.231405 
L 708.555134 164.231405 
L 708.666562 196.363636 
L 711.208197 196.363636 
L 711.319626 164.231405 
L 713.861261 164.231405 
L 713.972689 196.363636 
L 716.514324 196.363636 
L 716.625753 164.231405 
L 719.167387 164.231405 
L 719.278816 196.363636 
L 721.820451 196.363636 
L 721.931879 164.231405 
L 724.473514 164.231405 
L 724.584943 196.363636 
L 727.126577 196.363636 
L 727.238006 164.231405 
L 729.779641 164.231405 
L 729.891069 196.363636 
L 732.432704 196.363636 
L 732.544133 164.231405 
L 735.085767 164.231405 
L 735.197196 196.363636 
L 737.738831 196.363636 
L 737.850259 164.231405 
L 740.391894 164.231405 
L 740.503323 196.363636 
L 743.044958 196.363636 
L 743.156386 164.231405 
L 745.698021 164.231405 
L 745.80945 196.363636 
L 748.351084 196.363636 
L 748.462513 164.231405 
L 751.004148 164.231405 
L 751.115576 196.363636 
L 753.657211 196.363636 
L 753.76864 164.231405 
L 756.310274 164.231405 
L 756.421703 196.363636 
L 758.963338 196.363636 
L 759.074766 164.231405 
L 761.616401 164.231405 
L 761.72783 196.363636 
L 764.269464 196.363636 
L 764.380893 164.231405 
L 766.922528 164.231405 
L 767.033956 196.363636 
L 769.575591 196.363636 
L 769.68702 164.231405 
L 772.228655 164.231405 
L 772.340083 196.363636 
L 774.881718 196.363636 
L 774.993147 164.231405 
L 777.534781 164.231405 
L 777.64621 196.363636 
L 780.187845 196.363636 
L 780.299273 164.231405 
L 782.840908 164.231405 
L 782.952337 196.363636 
L 785.493971 196.363636 
L 785.6054 164.231405 
L 788.147035 164.231405 
L 788.258463 196.363636 
L 819.983795 196.363636 
L 819.983795 196.363636 
" style="fill:none;stroke:#f6d746;stroke-linecap:square;stroke-width:1.5;"/>
   </g>
   <g id="text_1">
    <!-- DC -->
    <g style="fill:#000004;" transform="translate(705.902601 51.768595)scale(0.16 -0.16)">
     <defs>
      <path d="M 19.671875 64.796875 
L 19.671875 8.109375 
L 31.59375 8.109375 
Q 46.6875 8.109375 53.6875 14.9375 
Q 60.6875 21.78125 60.6875 36.53125 
Q 60.6875 51.171875 53.6875 57.984375 
Q 46.6875 64.796875 31.59375 64.796875 
z
M 9.8125 72.90625 
L 30.078125 72.90625 
Q 51.265625 72.90625 61.171875 64.09375 
Q 71.09375 55.28125 71.09375 36.53125 
Q 71.09375 17.671875 61.125 8.828125 
Q 51.171875 0 30.078125 0 
L 9.8125 0 
z
" id="DejaVuSans-68"/>
      <path d="M 64.40625 67.28125 
L 64.40625 56.890625 
Q 59.421875 61.53125 53.78125 63.8125 
Q 48.140625 66.109375 41.796875 66.109375 
Q 29.296875 66.109375 22.65625 58.46875 
Q 16.015625 50.828125 16.015625 36.375 
Q 16.015625 21.96875 22.65625 14.328125 
Q 29.296875 6.6875 41.796875 6.6875 
Q 48.140625 6.6875 53.78125 8.984375 
Q 59.421875 11.28125 64.40625 15.921875 
L 64.40625 5.609375 
Q 59.234375 2.09375 53.4375 0.328125 
Q 47.65625 -1.421875 41.21875 -1.421875 
Q 24.65625 -1.421875 15.125 8.703125 
Q 5.609375 18.84375 5.609375 36.375 
Q 5.609375 53.953125 15.125 64.078125 
Q 24.65625 74.21875 41.21875 74.21875 
Q 47.75 74.21875 53.53125 72.484375 
Q 59.328125 70.75 64.40625 67.28125 
z
" id="DejaVuSans-67"/>
     </defs>
     <use xlink:href="#DejaVuSans-68"/>
     <use x="77.001953" xlink:href="#DejaVuSans-67"/>
    </g>
   </g>
   <g id="text_2">
    <!-- 0.1 -->
    <g style="fill:#160b39;" transform="translate(719.167918 67.834711)scale(0.16 -0.16)">
     <defs>
      <path d="M 31.78125 66.40625 
Q 24.171875 66.40625 20.328125 58.90625 
Q 16.5 51.421875 16.5 36.375 
Q 16.5 21.390625 20.328125 13.890625 
Q 24.171875 6.390625 31.78125 6.390625 
Q 39.453125 6.390625 43.28125 13.890625 
Q 47.125 21.390625 47.125 36.375 
Q 47.125 51.421875 43.28125 58.90625 
Q 39.453125 66.40625 31.78125 66.40625 
z
M 31.78125 74.21875 
Q 44.046875 74.21875 50.515625 64.515625 
Q 56.984375 54.828125 56.984375 36.375 
Q 56.984375 17.96875 50.515625 8.265625 
Q 44.046875 -1.421875 31.78125 -1.421875 
Q 19.53125 -1.421875 13.0625 8.265625 
Q 6.59375 17.96875 6.59375 36.375 
Q 6.59375 54.828125 13.0625 64.515625 
Q 19.53125 74.21875 31.78125 74.21875 
z
" id="DejaVuSans-48"/>
      <path d="M 10.6875 12.40625 
L 21 12.40625 
L 21 0 
L 10.6875 0 
z
" id="DejaVuSans-46"/>
      <path d="M 12.40625 8.296875 
L 28.515625 8.296875 
L 28.515625 63.921875 
L 10.984375 60.40625 
L 10.984375 69.390625 
L 28.421875 72.90625 
L 38.28125 72.90625 
L 38.28125 8.296875 
L 54.390625 8.296875 
L 54.390625 0 
L 12.40625 0 
z
" id="DejaVuSans-49"/>
     </defs>
     <use xlink:href="#DejaVuSans-48"/>
     <use x="63.623047" xlink:href="#DejaVuSans-46"/>
     <use x="95.410156" xlink:href="#DejaVuSans-49"/>
    </g>
   </g>
   <g id="text_3">
    <!-- 0.2 -->
    <g style="fill:#420a68;" transform="translate(732.433235 83.900826)scale(0.16 -0.16)">
     <defs>
      <path d="M 19.1875 8.296875 
L 53.609375 8.296875 
L 53.609375 0 
L 7.328125 0 
L 7.328125 8.296875 
Q 12.9375 14.109375 22.625 23.890625 
Q 32.328125 33.6875 34.8125 36.53125 
Q 39.546875 41.84375 41.421875 45.53125 
Q 43.3125 49.21875 43.3125 52.78125 
Q 43.3125 58.59375 39.234375 62.25 
Q 35.15625 65.921875 28.609375 65.921875 
Q 23.96875 65.921875 18.8125 64.3125 
Q 13.671875 62.703125 7.8125 59.421875 
L 7.8125 69.390625 
Q 13.765625 71.78125 18.9375 73 
Q 24.125 74.21875 28.421875 74.21875 
Q 39.75 74.21875 46.484375 68.546875 
Q 53.21875 62.890625 53.21875 53.421875 
Q 53.21875 48.921875 51.53125 44.890625 
Q 49.859375 40.875 45.40625 35.40625 
Q 44.1875 33.984375 37.640625 27.21875 
Q 31.109375 20.453125 19.1875 8.296875 
z
" id="DejaVuSans-50"/>
     </defs>
     <use xlink:href="#DejaVuSans-48"/>
     <use x="63.623047" xlink:href="#DejaVuSans-46"/>
     <use x="95.410156" xlink:href="#DejaVuSans-50"/>
    </g>
   </g>
   <g id="text_4">
    <!-- 0.3 -->
    <g style="fill:#6a176e;" transform="translate(745.698552 99.966942)scale(0.16 -0.16)">
     <defs>
      <path d="M 40.578125 39.3125 
Q 47.65625 37.796875 51.625 33 
Q 55.609375 28.21875 55.609375 21.1875 
Q 55.609375 10.40625 48.1875 4.484375 
Q 40.765625 -1.421875 27.09375 -1.421875 
Q 22.515625 -1.421875 17.65625 -0.515625 
Q 12.796875 0.390625 7.625 2.203125 
L 7.625 11.71875 
Q 11.71875 9.328125 16.59375 8.109375 
Q 21.484375 6.890625 26.8125 6.890625 
Q 36.078125 6.890625 40.9375 10.546875 
Q 45.796875 14.203125 45.796875 21.1875 
Q 45.796875 27.640625 41.28125 31.265625 
Q 36.765625 34.90625 28.71875 34.90625 
L 20.21875 34.90625 
L 20.21875 43.015625 
L 29.109375 43.015625 
Q 36.375 43.015625 40.234375 45.921875 
Q 44.09375 48.828125 44.09375 54.296875 
Q 44.09375 59.90625 40.109375 62.90625 
Q 36.140625 65.921875 28.71875 65.921875 
Q 24.65625 65.921875 20.015625 65.03125 
Q 15.375 64.15625 9.8125 62.3125 
L 9.8125 71.09375 
Q 15.4375 72.65625 20.34375 73.4375 
Q 25.25 74.21875 29.59375 74.21875 
Q 40.828125 74.21875 47.359375 69.109375 
Q 53.90625 64.015625 53.90625 55.328125 
Q 53.90625 49.265625 50.4375 45.09375 
Q 46.96875 40.921875 40.578125 39.3125 
z
" id="DejaVuSans-51"/>
     </defs>
     <use xlink:href="#DejaVuSans-48"/>
     <use x="63.623047" xlink:href="#DejaVuSans-46"/>
     <use x="95.410156" xlink:href="#DejaVuSans-51"/>
    </g>
   </g>
   <g id="text_5">
    <!-- 0.4 -->
    <g style="fill:#932667;" transform="translate(758.963868 116.033058)scale(0.16 -0.16)">
     <defs>
      <path d="M 37.796875 64.3125 
L 12.890625 25.390625 
L 37.796875 25.390625 
z
M 35.203125 72.90625 
L 47.609375 72.90625 
L 47.609375 25.390625 
L 58.015625 25.390625 
L 58.015625 17.1875 
L 47.609375 17.1875 
L 47.609375 0 
L 37.796875 0 
L 37.796875 17.1875 
L 4.890625 17.1875 
L 4.890625 26.703125 
z
" id="DejaVuSans-52"/>
     </defs>
     <use xlink:href="#DejaVuSans-48"/>
     <use x="63.623047" xlink:href="#DejaVuSans-46"/>
     <use x="95.410156" xlink:href="#DejaVuSans-52"/>
    </g>
   </g>
   <g id="text_6">
    <!-- 0.5 -->
    <g style="fill:#bc3754;" transform="translate(772.229185 132.099174)scale(0.16 -0.16)">
     <defs>
      <path d="M 10.796875 72.90625 
L 49.515625 72.90625 
L 49.515625 64.59375 
L 19.828125 64.59375 
L 19.828125 46.734375 
Q 21.96875 47.46875 24.109375 47.828125 
Q 26.265625 48.1875 28.421875 48.1875 
Q 40.625 48.1875 47.75 41.5 
Q 54.890625 34.8125 54.890625 23.390625 
Q 54.890625 11.625 47.5625 5.09375 
Q 40.234375 -1.421875 26.90625 -1.421875 
Q 22.3125 -1.421875 17.546875 -0.640625 
Q 12.796875 0.140625 7.71875 1.703125 
L 7.71875 11.625 
Q 12.109375 9.234375 16.796875 8.0625 
Q 21.484375 6.890625 26.703125 6.890625 
Q 35.15625 6.890625 40.078125 11.328125 
Q 45.015625 15.765625 45.015625 23.390625 
Q 45.015625 31 40.078125 35.4375 
Q 35.15625 39.890625 26.703125 39.890625 
Q 22.75 39.890625 18.8125 39.015625 
Q 14.890625 38.140625 10.796875 36.28125 
z
" id="DejaVuSans-53"/>
     </defs>
     <use xlink:href="#DejaVuSans-48"/>
     <use x="63.623047" xlink:href="#DejaVuSans-46"/>
     <use x="95.410156" xlink:href="#DejaVuSans-53"/>
    </g>
   </g>
   <g id="text_7">
    <!-- 0.6 -->
    <g style="fill:#dd513a;" transform="translate(785.494502 148.165289)scale(0.16 -0.16)">
     <defs>
      <path d="M 33.015625 40.375 
Q 26.375 40.375 22.484375 35.828125 
Q 18.609375 31.296875 18.609375 23.390625 
Q 18.609375 15.53125 22.484375 10.953125 
Q 26.375 6.390625 33.015625 6.390625 
Q 39.65625 6.390625 43.53125 10.953125 
Q 47.40625 15.53125 47.40625 23.390625 
Q 47.40625 31.296875 43.53125 35.828125 
Q 39.65625 40.375 33.015625 40.375 
z
M 52.59375 71.296875 
L 52.59375 62.3125 
Q 48.875 64.0625 45.09375 64.984375 
Q 41.3125 65.921875 37.59375 65.921875 
Q 27.828125 65.921875 22.671875 59.328125 
Q 17.53125 52.734375 16.796875 39.40625 
Q 19.671875 43.65625 24.015625 45.921875 
Q 28.375 48.1875 33.59375 48.1875 
Q 44.578125 48.1875 50.953125 41.515625 
Q 57.328125 34.859375 57.328125 23.390625 
Q 57.328125 12.15625 50.6875 5.359375 
Q 44.046875 -1.421875 33.015625 -1.421875 
Q 20.359375 -1.421875 13.671875 8.265625 
Q 6.984375 17.96875 6.984375 36.375 
Q 6.984375 53.65625 15.1875 63.9375 
Q 23.390625 74.21875 37.203125 74.21875 
Q 40.921875 74.21875 44.703125 73.484375 
Q 48.484375 72.75 52.59375 71.296875 
z
" id="DejaVuSans-54"/>
     </defs>
     <use xlink:href="#DejaVuSans-48"/>
     <use x="63.623047" xlink:href="#DejaVuSans-46"/>
     <use x="95.410156" xlink:href="#DejaVuSans-54"/>
    </g>
   </g>
   <g id="text_8">
    <!-- 0.7 -->
    <g style="fill:#f37819;" transform="translate(798.759819 164.231405)scale(0.16 -0.16)">
     <defs>
      <path d="M 8.203125 72.90625 
L 55.078125 72.90625 
L 55.078125 68.703125 
L 28.609375 0 
L 18.3125 0 
L 43.21875 64.59375 
L 8.203125 64.59375 
z
" id="DejaVuSans-55"/>
     </defs>
     <use xlink:href="#DejaVuSans-48"/>
     <use x="63.623047" xlink:href="#DejaVuSans-46"/>
     <use x="95.410156" xlink:href="#DejaVuSans-55"/>
    </g>
   </g>
   <g id="text_9">
    <!-- 0.8 -->
    <g style="fill:#fca50a;" transform="translate(812.025136 180.297521)scale(0.16 -0.16)">
     <defs>
      <path d="M 31.78125 34.625 
Q 24.75 34.625 20.71875 30.859375 
Q 16.703125 27.09375 16.703125 20.515625 
Q 16.703125 13.921875 20.71875 10.15625 
Q 24.75 6.390625 31.78125 6.390625 
Q 38.8125 6.390625 42.859375 10.171875 
Q 46.921875 13.96875 46.921875 20.515625 
Q 46.921875 27.09375 42.890625 30.859375 
Q 38.875 34.625 31.78125 34.625 
z
M 21.921875 38.8125 
Q 15.578125 40.375 12.03125 44.71875 
Q 8.5 49.078125 8.5 55.328125 
Q 8.5 64.0625 14.71875 69.140625 
Q 20.953125 74.21875 31.78125 74.21875 
Q 42.671875 74.21875 48.875 69.140625 
Q 55.078125 64.0625 55.078125 55.328125 
Q 55.078125 49.078125 51.53125 44.71875 
Q 48 40.375 41.703125 38.8125 
Q 48.828125 37.15625 52.796875 32.3125 
Q 56.78125 27.484375 56.78125 20.515625 
Q 56.78125 9.90625 50.3125 4.234375 
Q 43.84375 -1.421875 31.78125 -1.421875 
Q 19.734375 -1.421875 13.25 4.234375 
Q 6.78125 9.90625 6.78125 20.515625 
Q 6.78125 27.484375 10.78125 32.3125 
Q 14.796875 37.15625 21.921875 38.8125 
z
M 18.3125 54.390625 
Q 18.3125 48.734375 21.84375 45.5625 
Q 25.390625 42.390625 31.78125 42.390625 
Q 38.140625 42.390625 41.71875 45.5625 
Q 45.3125 48.734375 45.3125 54.390625 
Q 45.3125 60.0625 41.71875 63.234375 
Q 38.140625 66.40625 31.78125 66.40625 
Q 25.390625 66.40625 21.84375 63.234375 
Q 18.3125 60.0625 18.3125 54.390625 
z
" id="DejaVuSans-56"/>
     </defs>
     <use xlink:href="#DejaVuSans-48"/>
     <use x="63.623047" xlink:href="#DejaVuSans-46"/>
     <use x="95.410156" xlink:href="#DejaVuSans-56"/>
    </g>
   </g>
   <g id="text_10">
    <!-- 0.9 -->
    <g style="fill:#f6d746;" transform="translate(825.290452 196.363636)scale(0.16 -0.16)">
     <defs>
      <path d="M 10.984375 1.515625 
L 10.984375 10.5 
Q 14.703125 8.734375 18.5 7.8125 
Q 22.3125 6.890625 25.984375 6.890625 
Q 35.75 6.890625 40.890625 13.453125 
Q 46.046875 20.015625 46.78125 33.40625 
Q 43.953125 29.203125 39.59375 26.953125 
Q 35.25 24.703125 29.984375 24.703125 
Q 19.046875 24.703125 12.671875 31.3125 
Q 6.296875 37.9375 6.296875 49.421875 
Q 6.296875 60.640625 12.9375 67.421875 
Q 19.578125 74.21875 30.609375 74.21875 
Q 43.265625 74.21875 49.921875 64.515625 
Q 56.59375 54.828125 56.59375 36.375 
Q 56.59375 19.140625 48.40625 8.859375 
Q 40.234375 -1.421875 26.421875 -1.421875 
Q 22.703125 -1.421875 18.890625 -0.6875 
Q 15.09375 0.046875 10.984375 1.515625 
z
M 30.609375 32.421875 
Q 37.25 32.421875 41.125 36.953125 
Q 45.015625 41.5 45.015625 49.421875 
Q 45.015625 57.28125 41.125 61.84375 
Q 37.25 66.40625 30.609375 66.40625 
Q 23.96875 66.40625 20.09375 61.84375 
Q 16.21875 57.28125 16.21875 49.421875 
Q 16.21875 41.5 20.09375 36.953125 
Q 23.96875 32.421875 30.609375 32.421875 
z
" id="DejaVuSans-57"/>
     </defs>
     <use xlink:href="#DejaVuSans-48"/>
     <use x="63.623047" xlink:href="#DejaVuSans-46"/>
     <use x="95.410156" xlink:href="#DejaVuSans-57"/>
    </g>
   </g>
   <g id="text_11">
    <!-- 0.5 s -->
    <g transform="translate(37.330634 180.297521)scale(0.16 -0.16)">
     <defs>
      <path id="DejaVuSans-32"/>
      <path d="M 44.28125 53.078125 
L 44.28125 44.578125 
Q 40.484375 46.53125 36.375 47.5 
Q 32.28125 48.484375 27.875 48.484375 
Q 21.1875 48.484375 17.84375 46.4375 
Q 14.5 44.390625 14.5 40.28125 
Q 14.5 37.15625 16.890625 35.375 
Q 19.28125 33.59375 26.515625 31.984375 
L 29.59375 31.296875 
Q 39.15625 29.25 43.1875 25.515625 
Q 47.21875 21.78125 47.21875 15.09375 
Q 47.21875 7.46875 41.1875 3.015625 
Q 35.15625 -1.421875 24.609375 -1.421875 
Q 20.21875 -1.421875 15.453125 -0.5625 
Q 10.6875 0.296875 5.421875 2 
L 5.421875 11.28125 
Q 10.40625 8.6875 15.234375 7.390625 
Q 20.0625 6.109375 24.8125 6.109375 
Q 31.15625 6.109375 34.5625 8.28125 
Q 37.984375 10.453125 37.984375 14.40625 
Q 37.984375 18.0625 35.515625 20.015625 
Q 33.0625 21.96875 24.703125 23.78125 
L 21.578125 24.515625 
Q 13.234375 26.265625 9.515625 29.90625 
Q 5.8125 33.546875 5.8125 39.890625 
Q 5.8125 47.609375 11.28125 51.796875 
Q 16.75 56 26.8125 56 
Q 31.78125 56 36.171875 55.265625 
Q 40.578125 54.546875 44.28125 53.078125 
z
" id="DejaVuSans-115"/>
     </defs>
     <use xlink:href="#DejaVuSans-48"/>
     <use x="63.623047" xlink:href="#DejaVuSans-46"/>
     <use x="95.410156" xlink:href="#DejaVuSans-53"/>
     <use x="159.033203" xlink:href="#DejaVuSans-32"/>
     <use x="190.820312" xlink:href="#DejaVuSans-115"/>
    </g>
   </g>
  </g>
 </g>
 <defs>
  <clipPath id="pddd936b789">
   <rect height="194.4" width="827.755769" x="10.8" y="10.8"/>
  </clipPath>
 </defs>
</svg>
