<?xml version="1.0" encoding="utf-8" standalone="no"?>
<!DOCTYPE svg PUBLIC "-//W3C//DTD SVG 1.1//EN"
  "http://www.w3.org/Graphics/SVG/1.1/DTD/svg11.dtd">
<svg xmlns:xlink="http://www.w3.org/1999/xlink" width="864pt" height="216pt" viewBox="0 0 864 216" xmlns="http://www.w3.org/2000/svg" version="1.1">
 <metadata>
  <rdf:RDF xmlns:dc="http://purl.org/dc/elements/1.1/" xmlns:cc="http://creativecommons.org/ns#" xmlns:rdf="http://www.w3.org/1999/02/22-rdf-syntax-ns#">
   <cc:Work>
    <dc:type rdf:resource="http://purl.org/dc/dcmitype/StillImage"/>
    <dc:date>2026-04-25T00:52:38.520678</dc:date>
    <dc:format>image/svg+xml</dc:format>
    <dc:creator>
     <cc:Agent>
      <dc:title>Matplotlib v3.8.4, https://matplotlib.org/</dc:title>
     </cc:Agent>
    </dc:creator>
   </cc:Work>
  </rdf:RDF>
 </metadata>
 <defs>
  <style type="text/css">*{stroke-linejoin: round; stroke-linecap: butt}</style>
 </defs>
 <g id="figure_1">
  <g id="patch_1">
   <path d="M 0 216 
L 864 216 
L 864 0 
L 0 0 
z
" style="fill: #ffffff"/>
  </g>
  <g id="axes_1">
   <g id="matplotlib.axis_1"/>
   <g id="matplotlib.axis_2"/>
   <g id="line2d_1">
    <path d="M 10.8 51.768595 
L 37.327058 51.768595 
L 37.438474 19.636364 
L 673.989188 19.636364 
L 674.100604 51.768595 
L 700.516777 51.768595 
L 700.516777 51.768595 
" clip-path="url(#p0fd82df02a)" style="fill: none; stroke: #000004; stroke-width: 1.5; stroke-linecap: square"/>
   </g>
   <g id="line2d_2">
    <path d="M 24.063794 67.834711 
L 55.89637 67.834711 
L 56.007786 35.702479 
L 71.812924 35.702479 
L 71.924339 67.834711 
L 114.257066 67.834711 
L 114.368481 35.702479 
L 151.39569 35.702479 
L 151.507106 67.834711 
L 154.048449 67.834711 
L 154.159865 35.702479 
L 188.534314 35.702479 
L 188.64573 67.834711 
L 265.464322 67.834711 
L 265.575737 35.702479 
L 270.769839 35.702479 
L 270.881255 67.834711 
L 297.297428 67.834711 
L 297.408844 35.702479 
L 299.950187 35.702479 
L 300.061603 67.834711 
L 321.172258 67.834711 
L 321.283674 35.702479 
L 337.088811 35.702479 
L 337.200227 67.834711 
L 347.699847 67.834711 
L 347.811263 35.702479 
L 398.102265 35.702479 
L 398.213681 67.834711 
L 416.671577 67.834711 
L 416.782993 35.702479 
L 427.282613 35.702479 
L 427.394029 67.834711 
L 461.768478 67.834711 
L 461.879894 35.702479 
L 467.073996 35.702479 
L 467.185412 67.834711 
L 469.726755 67.834711 
L 469.838171 35.702479 
L 475.032273 35.702479 
L 475.143689 67.834711 
L 578.489869 67.834711 
L 578.601285 35.702479 
L 634.197805 35.702479 
L 634.309221 67.834711 
L 666.030912 67.834711 
L 666.142328 35.702479 
L 676.641947 35.702479 
L 676.753363 67.834711 
L 713.780572 67.834711 
L 713.780572 67.834711 
" clip-path="url(#p0fd82df02a)" style="fill: none; stroke: #160b39; stroke-width: 1.5; stroke-linecap: square"/>
   </g>
   <g id="line2d_3">
    <path d="M 37.327589 83.900826 
L 69.160165 83.900826 
L 69.271581 51.768595 
L 85.076718 51.768595 
L 85.188134 83.900826 
L 127.52086 83.900826 
L 127.632276 51.768595 
L 130.173619 51.768595 
L 130.285035 83.900826 
L 156.701208 83.900826 
L 156.812623 51.768595 
L 164.659484 51.768595 
L 164.7709 83.900826 
L 167.312243 83.900826 
L 167.423659 51.768595 
L 180.576037 51.768595 
L 180.687453 83.900826 
L 201.798109 83.900826 
L 201.909524 51.768595 
L 209.756385 51.768595 
L 209.867801 83.900826 
L 228.325697 83.900826 
L 228.437113 51.768595 
L 278.728116 51.768595 
L 278.839532 83.900826 
L 284.033634 83.900826 
L 284.14505 51.768595 
L 289.339151 51.768595 
L 289.450567 83.900826 
L 291.99191 83.900826 
L 292.103326 51.768595 
L 310.561222 51.768595 
L 310.672638 83.900826 
L 313.213981 83.900826 
L 313.325397 51.768595 
L 334.436052 51.768595 
L 334.547468 83.900826 
L 350.352606 83.900826 
L 350.464021 51.768595 
L 360.963641 51.768595 
L 361.075057 83.900826 
L 408.713301 83.900826 
L 408.824717 51.768595 
L 411.36606 51.768595 
L 411.477476 83.900826 
L 429.935372 83.900826 
L 430.046788 51.768595 
L 440.546407 51.768595 
L 440.657823 83.900826 
L 475.032273 83.900826 
L 475.143689 51.768595 
L 480.33779 51.768595 
L 480.449206 83.900826 
L 482.990549 83.900826 
L 483.101965 51.768595 
L 488.296067 51.768595 
L 488.407483 83.900826 
L 506.865379 83.900826 
L 506.976795 51.768595 
L 549.309521 51.768595 
L 549.420937 83.900826 
L 554.615039 83.900826 
L 554.726455 51.768595 
L 591.753663 51.768595 
L 591.865079 83.900826 
L 594.406422 83.900826 
L 594.517838 51.768595 
L 647.4616 51.768595 
L 647.573015 83.900826 
L 650.114359 83.900826 
L 650.225774 51.768595 
L 660.725394 51.768595 
L 660.83681 83.900826 
L 663.378153 83.900826 
L 663.489569 51.768595 
L 676.641947 51.768595 
L 676.753363 83.900826 
L 679.294706 83.900826 
L 679.406122 51.768595 
L 689.905742 51.768595 
L 690.017158 83.900826 
L 727.044366 83.900826 
L 727.044366 83.900826 
" clip-path="url(#p0fd82df02a)" style="fill: none; stroke: #420a68; stroke-width: 1.5; stroke-linecap: square"/>
   </g>
   <g id="line2d_4">
    <path d="M 50.591383 99.966942 
L 82.423959 99.966942 
L 82.535375 67.834711 
L 98.340512 67.834711 
L 98.451928 99.966942 
L 114.257066 99.966942 
L 114.368481 67.834711 
L 140.784654 67.834711 
L 140.89607 99.966942 
L 143.437413 99.966942 
L 143.548829 67.834711 
L 169.965002 67.834711 
L 170.076418 99.966942 
L 177.923279 99.966942 
L 178.034694 67.834711 
L 180.576037 67.834711 
L 180.687453 99.966942 
L 193.839832 99.966942 
L 193.951248 67.834711 
L 204.450867 67.834711 
L 204.562283 99.966942 
L 209.756385 99.966942 
L 209.867801 67.834711 
L 212.409144 67.834711 
L 212.52056 99.966942 
L 215.061903 99.966942 
L 215.173319 67.834711 
L 223.02018 67.834711 
L 223.131595 99.966942 
L 241.589492 99.966942 
L 241.700908 67.834711 
L 291.99191 67.834711 
L 292.103326 99.966942 
L 294.644669 99.966942 
L 294.756085 67.834711 
L 297.297428 67.834711 
L 297.408844 99.966942 
L 302.602946 99.966942 
L 302.714362 67.834711 
L 305.255705 67.834711 
L 305.367121 99.966942 
L 323.825017 99.966942 
L 323.936433 67.834711 
L 326.477776 67.834711 
L 326.589192 99.966942 
L 329.130535 99.966942 
L 329.24195 67.834711 
L 345.047088 67.834711 
L 345.158504 99.966942 
L 347.699847 99.966942 
L 347.811263 67.834711 
L 360.963641 67.834711 
L 361.075057 99.966942 
L 363.6164 99.966942 
L 363.727816 67.834711 
L 374.227435 67.834711 
L 374.338851 99.966942 
L 382.185712 99.966942 
L 382.297128 67.834711 
L 421.977095 67.834711 
L 422.088511 99.966942 
L 424.629854 99.966942 
L 424.74127 67.834711 
L 429.935372 67.834711 
L 430.046788 99.966942 
L 443.199166 99.966942 
L 443.310582 67.834711 
L 453.810202 67.834711 
L 453.921618 99.966942 
L 480.33779 99.966942 
L 480.449206 67.834711 
L 488.296067 67.834711 
L 488.407483 99.966942 
L 493.601585 99.966942 
L 493.713001 67.834711 
L 496.254344 67.834711 
L 496.36576 99.966942 
L 501.559861 99.966942 
L 501.671277 67.834711 
L 504.21262 67.834711 
L 504.324036 99.966942 
L 506.865379 99.966942 
L 506.976795 67.834711 
L 509.518138 67.834711 
L 509.629554 99.966942 
L 520.129174 99.966942 
L 520.240589 67.834711 
L 533.392968 67.834711 
L 533.504384 99.966942 
L 536.045727 99.966942 
L 536.157143 67.834711 
L 562.573316 67.834711 
L 562.684731 99.966942 
L 567.878833 99.966942 
L 567.990249 67.834711 
L 591.753663 67.834711 
L 591.865079 99.966942 
L 605.017458 99.966942 
L 605.128873 67.834711 
L 607.670216 67.834711 
L 607.781632 99.966942 
L 610.322975 99.966942 
L 610.434391 67.834711 
L 660.725394 67.834711 
L 660.83681 99.966942 
L 663.378153 99.966942 
L 663.489569 67.834711 
L 673.989188 67.834711 
L 674.100604 99.966942 
L 676.641947 99.966942 
L 676.753363 67.834711 
L 679.294706 67.834711 
L 679.406122 99.966942 
L 681.947465 99.966942 
L 682.058881 67.834711 
L 684.600224 67.834711 
L 684.71164 99.966942 
L 687.252983 99.966942 
L 687.364399 67.834711 
L 689.905742 67.834711 
L 690.017158 99.966942 
L 692.558501 99.966942 
L 692.669916 67.834711 
L 703.169536 67.834711 
L 703.280952 99.966942 
L 740.30816 99.966942 
L 740.30816 99.966942 
" clip-path="url(#p0fd82df02a)" style="fill: none; stroke: #6a176e; stroke-width: 1.5; stroke-linecap: square"/>
   </g>
   <g id="line2d_5">
    <path d="M 63.855178 116.033058 
L 95.687753 116.033058 
L 95.799169 83.900826 
L 111.604307 83.900826 
L 111.715723 116.033058 
L 119.562583 116.033058 
L 119.673999 83.900826 
L 127.52086 83.900826 
L 127.632276 116.033058 
L 146.090172 116.033058 
L 146.201588 83.900826 
L 151.39569 83.900826 
L 151.507106 116.033058 
L 154.048449 116.033058 
L 154.159865 83.900826 
L 156.701208 83.900826 
L 156.812623 116.033058 
L 172.617761 116.033058 
L 172.729177 83.900826 
L 183.228796 83.900826 
L 183.340212 116.033058 
L 191.187073 116.033058 
L 191.298489 83.900826 
L 193.839832 83.900826 
L 193.951248 116.033058 
L 204.450867 116.033058 
L 204.562283 83.900826 
L 207.103626 83.900826 
L 207.215042 116.033058 
L 209.756385 116.033058 
L 209.867801 83.900826 
L 217.714662 83.900826 
L 217.826078 116.033058 
L 223.02018 116.033058 
L 223.131595 83.900826 
L 225.672938 83.900826 
L 225.784354 116.033058 
L 228.325697 116.033058 
L 228.437113 83.900826 
L 230.978456 83.900826 
L 231.089872 116.033058 
L 236.283974 116.033058 
L 236.39539 83.900826 
L 254.853286 83.900826 
L 254.964702 116.033058 
L 257.506045 116.033058 
L 257.617461 83.900826 
L 294.644669 83.900826 
L 294.756085 116.033058 
L 305.255705 116.033058 
L 305.367121 83.900826 
L 307.908464 83.900826 
L 308.019879 116.033058 
L 310.561222 116.033058 
L 310.672638 83.900826 
L 315.86674 83.900826 
L 315.978156 116.033058 
L 318.519499 116.033058 
L 318.630915 83.900826 
L 337.088811 83.900826 
L 337.200227 116.033058 
L 339.74157 116.033058 
L 339.852986 83.900826 
L 342.394329 83.900826 
L 342.505745 116.033058 
L 358.310882 116.033058 
L 358.422298 83.900826 
L 360.963641 83.900826 
L 361.075057 116.033058 
L 374.227435 116.033058 
L 374.338851 83.900826 
L 376.880194 83.900826 
L 376.99161 116.033058 
L 387.49123 116.033058 
L 387.602646 83.900826 
L 395.449506 83.900826 
L 395.560922 116.033058 
L 411.36606 116.033058 
L 411.477476 83.900826 
L 421.977095 83.900826 
L 422.088511 116.033058 
L 435.24089 116.033058 
L 435.352305 83.900826 
L 437.893648 83.900826 
L 438.005064 116.033058 
L 443.199166 116.033058 
L 443.310582 83.900826 
L 453.810202 83.900826 
L 453.921618 116.033058 
L 456.462961 116.033058 
L 456.574376 83.900826 
L 467.073996 83.900826 
L 467.185412 116.033058 
L 469.726755 116.033058 
L 469.838171 83.900826 
L 485.643308 83.900826 
L 485.754724 116.033058 
L 493.601585 116.033058 
L 493.713001 83.900826 
L 501.559861 83.900826 
L 501.671277 116.033058 
L 504.21262 116.033058 
L 504.324036 83.900826 
L 506.865379 83.900826 
L 506.976795 116.033058 
L 509.518138 116.033058 
L 509.629554 83.900826 
L 514.823656 83.900826 
L 514.935072 116.033058 
L 517.476415 116.033058 
L 517.587831 83.900826 
L 520.129174 83.900826 
L 520.240589 116.033058 
L 522.781932 116.033058 
L 522.893348 83.900826 
L 533.392968 83.900826 
L 533.504384 116.033058 
L 536.045727 116.033058 
L 536.157143 83.900826 
L 546.656762 83.900826 
L 546.768178 116.033058 
L 549.309521 116.033058 
L 549.420937 83.900826 
L 575.83711 83.900826 
L 575.948526 116.033058 
L 581.142628 116.033058 
L 581.254044 83.900826 
L 599.71194 83.900826 
L 599.823356 116.033058 
L 605.017458 116.033058 
L 605.128873 83.900826 
L 610.322975 83.900826 
L 610.434391 116.033058 
L 618.281252 116.033058 
L 618.392668 83.900826 
L 620.934011 83.900826 
L 621.045427 116.033058 
L 623.58677 116.033058 
L 623.698186 83.900826 
L 658.072635 83.900826 
L 658.184051 116.033058 
L 673.989188 116.033058 
L 674.100604 83.900826 
L 676.641947 83.900826 
L 676.753363 116.033058 
L 687.252983 116.033058 
L 687.364399 83.900826 
L 689.905742 83.900826 
L 690.017158 116.033058 
L 692.558501 116.033058 
L 692.669916 83.900826 
L 695.211259 83.900826 
L 695.322675 116.033058 
L 697.864018 116.033058 
L 697.975434 83.900826 
L 700.516777 83.900826 
L 700.628193 116.033058 
L 703.169536 116.033058 
L 703.280952 83.900826 
L 705.822295 83.900826 
L 705.933711 116.033058 
L 716.43333 116.033058 
L 716.544746 83.900826 
L 727.044366 83.900826 
L 727.155782 116.033058 
L 753.571955 116.033058 
L 753.571955 116.033058 
" clip-path="url(#p0fd82df02a)" style="fill: none; stroke: #932667; stroke-width: 1.5; stroke-linecap: square"/>
   </g>
   <g id="line2d_6">
    <path d="M 77.118972 132.099174 
L 108.951548 132.099174 
L 109.062964 99.966942 
L 124.868101 99.966942 
L 124.979517 132.099174 
L 132.826378 132.099174 
L 132.937794 99.966942 
L 135.479137 99.966942 
L 135.590552 132.099174 
L 140.784654 132.099174 
L 140.89607 99.966942 
L 159.353966 99.966942 
L 159.465382 132.099174 
L 164.659484 132.099174 
L 164.7709 99.966942 
L 167.312243 99.966942 
L 167.423659 132.099174 
L 169.965002 132.099174 
L 170.076418 99.966942 
L 185.881555 99.966942 
L 185.992971 132.099174 
L 196.492591 132.099174 
L 196.604007 99.966942 
L 204.450867 99.966942 
L 204.562283 132.099174 
L 207.103626 132.099174 
L 207.215042 99.966942 
L 217.714662 99.966942 
L 217.826078 132.099174 
L 220.367421 132.099174 
L 220.478837 99.966942 
L 223.02018 99.966942 
L 223.131595 132.099174 
L 225.672938 132.099174 
L 225.784354 99.966942 
L 230.978456 99.966942 
L 231.089872 132.099174 
L 236.283974 132.099174 
L 236.39539 99.966942 
L 238.936733 99.966942 
L 239.048149 132.099174 
L 241.589492 132.099174 
L 241.700908 99.966942 
L 244.242251 99.966942 
L 244.353666 132.099174 
L 249.547768 132.099174 
L 249.659184 99.966942 
L 260.158804 99.966942 
L 260.27022 132.099174 
L 265.464322 132.099174 
L 265.575737 99.966942 
L 268.11708 99.966942 
L 268.228496 132.099174 
L 270.769839 132.099174 
L 270.881255 99.966942 
L 276.075357 99.966942 
L 276.186773 132.099174 
L 286.686393 132.099174 
L 286.797808 99.966942 
L 291.99191 99.966942 
L 292.103326 132.099174 
L 307.908464 132.099174 
L 308.019879 99.966942 
L 310.561222 99.966942 
L 310.672638 132.099174 
L 318.519499 132.099174 
L 318.630915 99.966942 
L 321.172258 99.966942 
L 321.283674 132.099174 
L 323.825017 132.099174 
L 323.936433 99.966942 
L 326.477776 99.966942 
L 326.589192 132.099174 
L 329.130535 132.099174 
L 329.24195 99.966942 
L 331.783293 99.966942 
L 331.894709 132.099174 
L 350.352606 132.099174 
L 350.464021 99.966942 
L 353.005364 99.966942 
L 353.11678 132.099174 
L 355.658123 132.099174 
L 355.769539 99.966942 
L 358.310882 99.966942 
L 358.422298 132.099174 
L 368.921918 132.099174 
L 369.033334 99.966942 
L 371.574677 99.966942 
L 371.686092 132.099174 
L 374.227435 132.099174 
L 374.338851 99.966942 
L 384.838471 99.966942 
L 384.949887 132.099174 
L 387.49123 132.099174 
L 387.602646 99.966942 
L 390.143989 99.966942 
L 390.255405 132.099174 
L 400.755024 132.099174 
L 400.86644 99.966942 
L 408.713301 99.966942 
L 408.824717 132.099174 
L 424.629854 132.099174 
L 424.74127 99.966942 
L 432.588131 99.966942 
L 432.699547 132.099174 
L 435.24089 132.099174 
L 435.352305 99.966942 
L 443.199166 99.966942 
L 443.310582 132.099174 
L 448.504684 132.099174 
L 448.6161 99.966942 
L 451.157443 99.966942 
L 451.268859 132.099174 
L 456.462961 132.099174 
L 456.574376 99.966942 
L 464.421237 99.966942 
L 464.532653 132.099174 
L 467.073996 132.099174 
L 467.185412 99.966942 
L 469.726755 99.966942 
L 469.838171 132.099174 
L 477.685032 132.099174 
L 477.796447 99.966942 
L 480.33779 99.966942 
L 480.449206 132.099174 
L 482.990549 132.099174 
L 483.101965 99.966942 
L 496.254344 99.966942 
L 496.36576 132.099174 
L 498.907103 132.099174 
L 499.018518 99.966942 
L 504.21262 99.966942 
L 504.324036 132.099174 
L 506.865379 132.099174 
L 506.976795 99.966942 
L 514.823656 99.966942 
L 514.935072 132.099174 
L 517.476415 132.099174 
L 517.587831 99.966942 
L 520.129174 99.966942 
L 520.240589 132.099174 
L 522.781932 132.099174 
L 522.893348 99.966942 
L 528.08745 99.966942 
L 528.198866 132.099174 
L 530.740209 132.099174 
L 530.851625 99.966942 
L 533.392968 99.966942 
L 533.504384 132.099174 
L 536.045727 132.099174 
L 536.157143 99.966942 
L 538.698486 99.966942 
L 538.809902 132.099174 
L 546.656762 132.099174 
L 546.768178 99.966942 
L 549.309521 99.966942 
L 549.420937 132.099174 
L 554.615039 132.099174 
L 554.726455 99.966942 
L 559.920557 99.966942 
L 560.031973 132.099174 
L 562.573316 132.099174 
L 562.684731 99.966942 
L 575.83711 99.966942 
L 575.948526 132.099174 
L 589.100904 132.099174 
L 589.21232 99.966942 
L 594.406422 99.966942 
L 594.517838 132.099174 
L 612.975734 132.099174 
L 613.08715 99.966942 
L 618.281252 99.966942 
L 618.392668 132.099174 
L 623.58677 132.099174 
L 623.698186 99.966942 
L 631.545046 99.966942 
L 631.656462 132.099174 
L 634.197805 132.099174 
L 634.309221 99.966942 
L 636.850564 99.966942 
L 636.96198 132.099174 
L 650.114359 132.099174 
L 650.225774 99.966942 
L 652.767117 99.966942 
L 652.878533 132.099174 
L 668.683671 132.099174 
L 668.795087 99.966942 
L 671.33643 99.966942 
L 671.447845 132.099174 
L 687.252983 132.099174 
L 687.364399 99.966942 
L 689.905742 99.966942 
L 690.017158 132.099174 
L 700.516777 132.099174 
L 700.628193 99.966942 
L 703.169536 99.966942 
L 703.280952 132.099174 
L 705.822295 132.099174 
L 705.933711 99.966942 
L 708.475054 99.966942 
L 708.58647 132.099174 
L 711.127813 132.099174 
L 711.239229 99.966942 
L 713.780572 99.966942 
L 713.891987 132.099174 
L 716.43333 132.099174 
L 716.544746 99.966942 
L 719.086089 99.966942 
L 719.197505 132.099174 
L 724.391607 132.099174 
L 724.503023 99.966942 
L 729.697125 99.966942 
L 729.808541 132.099174 
L 766.835749 132.099174 
L 766.835749 132.099174 
" clip-path="url(#p0fd82df02a)" style="fill: none; stroke: #bc3754; stroke-width: 1.5; stroke-linecap: square"/>
   </g>
   <g id="line2d_7">
    <path d="M 90.382766 148.165289 
L 122.215342 148.165289 
L 122.326758 116.033058 
L 138.131895 116.033058 
L 138.243311 148.165289 
L 143.437413 148.165289 
L 143.548829 116.033058 
L 146.090172 116.033058 
L 146.201588 148.165289 
L 148.742931 148.165289 
L 148.854347 116.033058 
L 154.048449 116.033058 
L 154.159865 148.165289 
L 172.617761 148.165289 
L 172.729177 116.033058 
L 177.923279 116.033058 
L 178.034694 148.165289 
L 180.576037 148.165289 
L 180.687453 116.033058 
L 183.228796 116.033058 
L 183.340212 148.165289 
L 188.534314 148.165289 
L 188.64573 116.033058 
L 191.187073 116.033058 
L 191.298489 148.165289 
L 199.14535 148.165289 
L 199.256765 116.033058 
L 209.756385 116.033058 
L 209.867801 148.165289 
L 217.714662 148.165289 
L 217.826078 116.033058 
L 220.367421 116.033058 
L 220.478837 148.165289 
L 225.672938 148.165289 
L 225.784354 116.033058 
L 230.978456 116.033058 
L 231.089872 148.165289 
L 233.631215 148.165289 
L 233.742631 116.033058 
L 236.283974 116.033058 
L 236.39539 148.165289 
L 238.936733 148.165289 
L 239.048149 116.033058 
L 244.242251 116.033058 
L 244.353666 148.165289 
L 249.547768 148.165289 
L 249.659184 116.033058 
L 252.200527 116.033058 
L 252.311943 148.165289 
L 254.853286 148.165289 
L 254.964702 116.033058 
L 257.506045 116.033058 
L 257.617461 148.165289 
L 260.158804 148.165289 
L 260.27022 116.033058 
L 262.811563 116.033058 
L 262.922979 148.165289 
L 273.422598 148.165289 
L 273.534014 116.033058 
L 278.728116 116.033058 
L 278.839532 148.165289 
L 281.380875 148.165289 
L 281.492291 116.033058 
L 284.033634 116.033058 
L 284.14505 148.165289 
L 289.339151 148.165289 
L 289.450567 116.033058 
L 299.950187 116.033058 
L 300.061603 148.165289 
L 305.255705 148.165289 
L 305.367121 116.033058 
L 315.86674 116.033058 
L 315.978156 148.165289 
L 321.172258 148.165289 
L 321.283674 116.033058 
L 323.825017 116.033058 
L 323.936433 148.165289 
L 331.783293 148.165289 
L 331.894709 116.033058 
L 334.436052 116.033058 
L 334.547468 148.165289 
L 337.088811 148.165289 
L 337.200227 116.033058 
L 339.74157 116.033058 
L 339.852986 148.165289 
L 342.394329 148.165289 
L 342.505745 116.033058 
L 345.047088 116.033058 
L 345.158504 148.165289 
L 350.352606 148.165289 
L 350.464021 116.033058 
L 363.6164 116.033058 
L 363.727816 148.165289 
L 366.269159 148.165289 
L 366.380575 116.033058 
L 368.921918 116.033058 
L 369.033334 148.165289 
L 371.574677 148.165289 
L 371.686092 116.033058 
L 382.185712 116.033058 
L 382.297128 148.165289 
L 384.838471 148.165289 
L 384.949887 116.033058 
L 387.49123 116.033058 
L 387.602646 148.165289 
L 398.102265 148.165289 
L 398.213681 116.033058 
L 400.755024 116.033058 
L 400.86644 148.165289 
L 403.407783 148.165289 
L 403.519199 116.033058 
L 411.36606 116.033058 
L 411.477476 148.165289 
L 414.018819 148.165289 
L 414.130234 116.033058 
L 421.977095 116.033058 
L 422.088511 148.165289 
L 437.893648 148.165289 
L 438.005064 116.033058 
L 445.851925 116.033058 
L 445.963341 148.165289 
L 448.504684 148.165289 
L 448.6161 116.033058 
L 456.462961 116.033058 
L 456.574376 148.165289 
L 461.768478 148.165289 
L 461.879894 116.033058 
L 464.421237 116.033058 
L 464.532653 148.165289 
L 467.073996 148.165289 
L 467.185412 116.033058 
L 469.726755 116.033058 
L 469.838171 148.165289 
L 477.685032 148.165289 
L 477.796447 116.033058 
L 480.33779 116.033058 
L 480.449206 148.165289 
L 482.990549 148.165289 
L 483.101965 116.033058 
L 485.643308 116.033058 
L 485.754724 148.165289 
L 490.948826 148.165289 
L 491.060242 116.033058 
L 493.601585 116.033058 
L 493.713001 148.165289 
L 496.254344 148.165289 
L 496.36576 116.033058 
L 501.559861 116.033058 
L 501.671277 148.165289 
L 506.865379 148.165289 
L 506.976795 116.033058 
L 509.518138 116.033058 
L 509.629554 148.165289 
L 512.170897 148.165289 
L 512.282313 116.033058 
L 517.476415 116.033058 
L 517.587831 148.165289 
L 520.129174 148.165289 
L 520.240589 116.033058 
L 522.781932 116.033058 
L 522.893348 148.165289 
L 528.08745 148.165289 
L 528.198866 116.033058 
L 530.740209 116.033058 
L 530.851625 148.165289 
L 533.392968 148.165289 
L 533.504384 116.033058 
L 536.045727 116.033058 
L 536.157143 148.165289 
L 541.351245 148.165289 
L 541.46266 116.033058 
L 544.004003 116.033058 
L 544.115419 148.165289 
L 546.656762 148.165289 
L 546.768178 116.033058 
L 549.309521 116.033058 
L 549.420937 148.165289 
L 551.96228 148.165289 
L 552.073696 116.033058 
L 559.920557 116.033058 
L 560.031973 148.165289 
L 562.573316 148.165289 
L 562.684731 116.033058 
L 567.878833 116.033058 
L 567.990249 148.165289 
L 573.184351 148.165289 
L 573.295767 116.033058 
L 575.83711 116.033058 
L 575.948526 148.165289 
L 583.795387 148.165289 
L 583.906802 116.033058 
L 586.448145 116.033058 
L 586.559561 148.165289 
L 589.100904 148.165289 
L 589.21232 116.033058 
L 599.71194 116.033058 
L 599.823356 148.165289 
L 602.364699 148.165289 
L 602.476115 116.033058 
L 607.670216 116.033058 
L 607.781632 148.165289 
L 626.239529 148.165289 
L 626.350944 116.033058 
L 628.892287 116.033058 
L 629.003703 148.165289 
L 631.545046 148.165289 
L 631.656462 116.033058 
L 636.850564 116.033058 
L 636.96198 148.165289 
L 644.808841 148.165289 
L 644.920257 116.033058 
L 647.4616 116.033058 
L 647.573015 148.165289 
L 650.114359 148.165289 
L 650.225774 116.033058 
L 660.725394 116.033058 
L 660.83681 148.165289 
L 663.378153 148.165289 
L 663.489569 116.033058 
L 666.030912 116.033058 
L 666.142328 148.165289 
L 671.33643 148.165289 
L 671.447845 116.033058 
L 673.989188 116.033058 
L 674.100604 148.165289 
L 681.947465 148.165289 
L 682.058881 116.033058 
L 684.600224 116.033058 
L 684.71164 148.165289 
L 687.252983 148.165289 
L 687.364399 116.033058 
L 700.516777 116.033058 
L 700.628193 148.165289 
L 703.169536 148.165289 
L 703.280952 116.033058 
L 705.822295 116.033058 
L 705.933711 148.165289 
L 713.780572 148.165289 
L 713.891987 116.033058 
L 716.43333 116.033058 
L 716.544746 148.165289 
L 719.086089 148.165289 
L 719.197505 116.033058 
L 721.738848 116.033058 
L 721.850264 148.165289 
L 724.391607 148.165289 
L 724.503023 116.033058 
L 727.044366 116.033058 
L 727.155782 148.165289 
L 729.697125 148.165289 
L 729.808541 116.033058 
L 732.349884 116.033058 
L 732.4613 148.165289 
L 735.002643 148.165289 
L 735.114058 116.033058 
L 737.655401 116.033058 
L 737.766817 148.165289 
L 742.960919 148.165289 
L 743.072335 116.033058 
L 753.571955 116.033058 
L 753.683371 148.165289 
L 780.099543 148.165289 
L 780.099543 148.165289 
" clip-path="url(#p0fd82df02a)" style="fill: none; stroke: #dd513a; stroke-width: 1.5; stroke-linecap: square"/>
   </g>
   <g id="line2d_8">
    <path d="M 103.646561 164.231405 
L 135.479137 164.231405 
L 135.590552 132.099174 
L 151.39569 132.099174 
L 151.507106 164.231405 
L 156.701208 164.231405 
L 156.812623 132.099174 
L 159.353966 132.099174 
L 159.465382 164.231405 
L 162.006725 164.231405 
L 162.118141 132.099174 
L 167.312243 132.099174 
L 167.423659 164.231405 
L 180.576037 164.231405 
L 180.687453 132.099174 
L 185.881555 132.099174 
L 185.992971 164.231405 
L 188.534314 164.231405 
L 188.64573 132.099174 
L 191.187073 132.099174 
L 191.298489 164.231405 
L 193.839832 164.231405 
L 193.951248 132.099174 
L 196.492591 132.099174 
L 196.604007 164.231405 
L 201.798109 164.231405 
L 201.909524 132.099174 
L 204.450867 132.099174 
L 204.562283 164.231405 
L 212.409144 164.231405 
L 212.52056 132.099174 
L 220.367421 132.099174 
L 220.478837 164.231405 
L 223.02018 164.231405 
L 223.131595 132.099174 
L 230.978456 132.099174 
L 231.089872 164.231405 
L 233.631215 164.231405 
L 233.742631 132.099174 
L 238.936733 132.099174 
L 239.048149 164.231405 
L 241.589492 164.231405 
L 241.700908 132.099174 
L 244.242251 132.099174 
L 244.353666 164.231405 
L 246.895009 164.231405 
L 247.006425 132.099174 
L 249.547768 132.099174 
L 249.659184 164.231405 
L 252.200527 164.231405 
L 252.311943 132.099174 
L 257.506045 132.099174 
L 257.617461 164.231405 
L 262.811563 164.231405 
L 262.922979 132.099174 
L 265.464322 132.099174 
L 265.575737 164.231405 
L 268.11708 164.231405 
L 268.228496 132.099174 
L 270.769839 132.099174 
L 270.881255 164.231405 
L 273.422598 164.231405 
L 273.534014 132.099174 
L 276.075357 132.099174 
L 276.186773 164.231405 
L 284.033634 164.231405 
L 284.14505 132.099174 
L 286.686393 132.099174 
L 286.797808 164.231405 
L 291.99191 164.231405 
L 292.103326 132.099174 
L 294.644669 132.099174 
L 294.756085 164.231405 
L 297.297428 164.231405 
L 297.408844 132.099174 
L 299.950187 132.099174 
L 300.061603 164.231405 
L 302.602946 164.231405 
L 302.714362 132.099174 
L 313.213981 132.099174 
L 313.325397 164.231405 
L 315.86674 164.231405 
L 315.978156 132.099174 
L 318.519499 132.099174 
L 318.630915 164.231405 
L 329.130535 164.231405 
L 329.24195 132.099174 
L 334.436052 132.099174 
L 334.547468 164.231405 
L 337.088811 164.231405 
L 337.200227 132.099174 
L 342.394329 132.099174 
L 342.505745 164.231405 
L 345.047088 164.231405 
L 345.158504 132.099174 
L 347.699847 132.099174 
L 347.811263 164.231405 
L 350.352606 164.231405 
L 350.464021 132.099174 
L 353.005364 132.099174 
L 353.11678 164.231405 
L 355.658123 164.231405 
L 355.769539 132.099174 
L 358.310882 132.099174 
L 358.422298 164.231405 
L 363.6164 164.231405 
L 363.727816 132.099174 
L 366.269159 132.099174 
L 366.380575 164.231405 
L 376.880194 164.231405 
L 376.99161 132.099174 
L 379.532953 132.099174 
L 379.644369 164.231405 
L 382.185712 164.231405 
L 382.297128 132.099174 
L 384.838471 132.099174 
L 384.949887 164.231405 
L 395.449506 164.231405 
L 395.560922 132.099174 
L 398.102265 132.099174 
L 398.213681 164.231405 
L 400.755024 164.231405 
L 400.86644 132.099174 
L 411.36606 132.099174 
L 411.477476 164.231405 
L 414.018819 164.231405 
L 414.130234 132.099174 
L 416.671577 132.099174 
L 416.782993 164.231405 
L 424.629854 164.231405 
L 424.74127 132.099174 
L 427.282613 132.099174 
L 427.394029 164.231405 
L 435.24089 164.231405 
L 435.352305 132.099174 
L 445.851925 132.099174 
L 445.963341 164.231405 
L 451.157443 164.231405 
L 451.268859 132.099174 
L 459.115719 132.099174 
L 459.227135 164.231405 
L 461.768478 164.231405 
L 461.879894 132.099174 
L 469.726755 132.099174 
L 469.838171 164.231405 
L 475.032273 164.231405 
L 475.143689 132.099174 
L 477.685032 132.099174 
L 477.796447 164.231405 
L 480.33779 164.231405 
L 480.449206 132.099174 
L 482.990549 132.099174 
L 483.101965 164.231405 
L 485.643308 164.231405 
L 485.754724 132.099174 
L 490.948826 132.099174 
L 491.060242 164.231405 
L 493.601585 164.231405 
L 493.713001 132.099174 
L 496.254344 132.099174 
L 496.36576 164.231405 
L 498.907103 164.231405 
L 499.018518 132.099174 
L 504.21262 132.099174 
L 504.324036 164.231405 
L 506.865379 164.231405 
L 506.976795 132.099174 
L 509.518138 132.099174 
L 509.629554 164.231405 
L 514.823656 164.231405 
L 514.935072 132.099174 
L 517.476415 132.099174 
L 517.587831 164.231405 
L 520.129174 164.231405 
L 520.240589 132.099174 
L 522.781932 132.099174 
L 522.893348 164.231405 
L 525.434691 164.231405 
L 525.546107 132.099174 
L 530.740209 132.099174 
L 530.851625 164.231405 
L 533.392968 164.231405 
L 533.504384 132.099174 
L 536.045727 132.099174 
L 536.157143 164.231405 
L 541.351245 164.231405 
L 541.46266 132.099174 
L 544.004003 132.099174 
L 544.115419 164.231405 
L 546.656762 164.231405 
L 546.768178 132.099174 
L 549.309521 132.099174 
L 549.420937 164.231405 
L 554.615039 164.231405 
L 554.726455 132.099174 
L 557.267798 132.099174 
L 557.379214 164.231405 
L 559.920557 164.231405 
L 560.031973 132.099174 
L 562.573316 132.099174 
L 562.684731 164.231405 
L 565.226074 164.231405 
L 565.33749 132.099174 
L 573.184351 132.099174 
L 573.295767 164.231405 
L 575.83711 164.231405 
L 575.948526 132.099174 
L 581.142628 132.099174 
L 581.254044 164.231405 
L 586.448145 164.231405 
L 586.559561 132.099174 
L 589.100904 132.099174 
L 589.21232 164.231405 
L 594.406422 164.231405 
L 594.517838 132.099174 
L 597.059181 132.099174 
L 597.170597 164.231405 
L 599.71194 164.231405 
L 599.823356 132.099174 
L 602.364699 132.099174 
L 602.476115 164.231405 
L 612.975734 164.231405 
L 613.08715 132.099174 
L 615.628493 132.099174 
L 615.739909 164.231405 
L 620.934011 164.231405 
L 621.045427 132.099174 
L 626.239529 132.099174 
L 626.350944 164.231405 
L 631.545046 164.231405 
L 631.656462 132.099174 
L 639.503323 132.099174 
L 639.614739 164.231405 
L 642.156082 164.231405 
L 642.267498 132.099174 
L 644.808841 132.099174 
L 644.920257 164.231405 
L 650.114359 164.231405 
L 650.225774 132.099174 
L 652.767117 132.099174 
L 652.878533 164.231405 
L 658.072635 164.231405 
L 658.184051 132.099174 
L 660.725394 132.099174 
L 660.83681 164.231405 
L 663.378153 164.231405 
L 663.489569 132.099174 
L 671.33643 132.099174 
L 671.447845 164.231405 
L 673.989188 164.231405 
L 674.100604 132.099174 
L 676.641947 132.099174 
L 676.753363 164.231405 
L 679.294706 164.231405 
L 679.406122 132.099174 
L 684.600224 132.099174 
L 684.71164 164.231405 
L 687.252983 164.231405 
L 687.364399 132.099174 
L 695.211259 132.099174 
L 695.322675 164.231405 
L 697.864018 164.231405 
L 697.975434 132.099174 
L 700.516777 132.099174 
L 700.628193 164.231405 
L 708.475054 164.231405 
L 708.58647 132.099174 
L 713.780572 132.099174 
L 713.891987 164.231405 
L 716.43333 164.231405 
L 716.544746 132.099174 
L 719.086089 132.099174 
L 719.197505 164.231405 
L 727.044366 164.231405 
L 727.155782 132.099174 
L 729.697125 132.099174 
L 729.808541 164.231405 
L 732.349884 164.231405 
L 732.4613 132.099174 
L 735.002643 132.099174 
L 735.114058 164.231405 
L 737.655401 164.231405 
L 737.766817 132.099174 
L 740.30816 132.099174 
L 740.419576 164.231405 
L 742.960919 164.231405 
L 743.072335 132.099174 
L 745.613678 132.099174 
L 745.725094 164.231405 
L 748.266437 164.231405 
L 748.377853 132.099174 
L 750.919196 132.099174 
L 751.030612 164.231405 
L 756.224714 164.231405 
L 756.336129 132.099174 
L 766.835749 132.099174 
L 766.947165 164.231405 
L 793.363338 164.231405 
L 793.363338 164.231405 
" clip-path="url(#p0fd82df02a)" style="fill: none; stroke: #f37819; stroke-width: 1.5; stroke-linecap: square"/>
   </g>
   <g id="line2d_9">
    <path d="M 116.910355 180.297521 
L 146.090172 180.297521 
L 146.201588 148.165289 
L 148.742931 148.165289 
L 148.854347 180.297521 
L 159.353966 180.297521 
L 159.465382 148.165289 
L 162.006725 148.165289 
L 162.118141 180.297521 
L 164.659484 180.297521 
L 164.7709 148.165289 
L 169.965002 148.165289 
L 170.076418 180.297521 
L 172.617761 180.297521 
L 172.729177 148.165289 
L 175.27052 148.165289 
L 175.381936 180.297521 
L 180.576037 180.297521 
L 180.687453 148.165289 
L 185.881555 148.165289 
L 185.992971 180.297521 
L 188.534314 180.297521 
L 188.64573 148.165289 
L 193.839832 148.165289 
L 193.951248 180.297521 
L 199.14535 180.297521 
L 199.256765 148.165289 
L 201.798109 148.165289 
L 201.909524 180.297521 
L 204.450867 180.297521 
L 204.562283 148.165289 
L 207.103626 148.165289 
L 207.215042 180.297521 
L 209.756385 180.297521 
L 209.867801 148.165289 
L 215.061903 148.165289 
L 215.173319 180.297521 
L 217.714662 180.297521 
L 217.826078 148.165289 
L 225.672938 148.165289 
L 225.784354 180.297521 
L 230.978456 180.297521 
L 231.089872 148.165289 
L 233.631215 148.165289 
L 233.742631 180.297521 
L 236.283974 180.297521 
L 236.39539 148.165289 
L 238.936733 148.165289 
L 239.048149 180.297521 
L 244.242251 180.297521 
L 244.353666 148.165289 
L 246.895009 148.165289 
L 247.006425 180.297521 
L 252.200527 180.297521 
L 252.311943 148.165289 
L 254.853286 148.165289 
L 254.964702 180.297521 
L 257.506045 180.297521 
L 257.617461 148.165289 
L 260.158804 148.165289 
L 260.27022 180.297521 
L 262.811563 180.297521 
L 262.922979 148.165289 
L 265.464322 148.165289 
L 265.575737 180.297521 
L 268.11708 180.297521 
L 268.228496 148.165289 
L 270.769839 148.165289 
L 270.881255 180.297521 
L 276.075357 180.297521 
L 276.186773 148.165289 
L 278.728116 148.165289 
L 278.839532 180.297521 
L 281.380875 180.297521 
L 281.492291 148.165289 
L 284.033634 148.165289 
L 284.14505 180.297521 
L 286.686393 180.297521 
L 286.797808 148.165289 
L 289.339151 148.165289 
L 289.450567 180.297521 
L 297.297428 180.297521 
L 297.408844 148.165289 
L 299.950187 148.165289 
L 300.061603 180.297521 
L 305.255705 180.297521 
L 305.367121 148.165289 
L 307.908464 148.165289 
L 308.019879 180.297521 
L 310.561222 180.297521 
L 310.672638 148.165289 
L 313.213981 148.165289 
L 313.325397 180.297521 
L 315.86674 180.297521 
L 315.978156 148.165289 
L 323.825017 148.165289 
L 323.936433 180.297521 
L 326.477776 180.297521 
L 326.589192 148.165289 
L 329.130535 148.165289 
L 329.24195 180.297521 
L 331.783293 180.297521 
L 331.894709 148.165289 
L 334.436052 148.165289 
L 334.547468 180.297521 
L 339.74157 180.297521 
L 339.852986 148.165289 
L 342.394329 148.165289 
L 342.505745 180.297521 
L 347.699847 180.297521 
L 347.811263 148.165289 
L 350.352606 148.165289 
L 350.464021 180.297521 
L 355.658123 180.297521 
L 355.769539 148.165289 
L 358.310882 148.165289 
L 358.422298 180.297521 
L 360.963641 180.297521 
L 361.075057 148.165289 
L 363.6164 148.165289 
L 363.727816 180.297521 
L 366.269159 180.297521 
L 366.380575 148.165289 
L 368.921918 148.165289 
L 369.033334 180.297521 
L 371.574677 180.297521 
L 371.686092 148.165289 
L 376.880194 148.165289 
L 376.99161 180.297521 
L 379.532953 180.297521 
L 379.644369 148.165289 
L 384.838471 148.165289 
L 384.949887 180.297521 
L 390.143989 180.297521 
L 390.255405 148.165289 
L 392.796748 148.165289 
L 392.908163 180.297521 
L 395.449506 180.297521 
L 395.560922 148.165289 
L 398.102265 148.165289 
L 398.213681 180.297521 
L 408.713301 180.297521 
L 408.824717 148.165289 
L 411.36606 148.165289 
L 411.477476 180.297521 
L 414.018819 180.297521 
L 414.130234 148.165289 
L 419.324336 148.165289 
L 419.435752 180.297521 
L 424.629854 180.297521 
L 424.74127 148.165289 
L 427.282613 148.165289 
L 427.394029 180.297521 
L 429.935372 180.297521 
L 430.046788 148.165289 
L 432.588131 148.165289 
L 432.699547 180.297521 
L 437.893648 180.297521 
L 438.005064 148.165289 
L 440.546407 148.165289 
L 440.657823 180.297521 
L 445.851925 180.297521 
L 445.963341 148.165289 
L 448.504684 148.165289 
L 448.6161 180.297521 
L 459.115719 180.297521 
L 459.227135 148.165289 
L 461.768478 148.165289 
L 461.879894 180.297521 
L 464.421237 180.297521 
L 464.532653 148.165289 
L 469.726755 148.165289 
L 469.838171 180.297521 
L 472.379514 180.297521 
L 472.49093 148.165289 
L 475.032273 148.165289 
L 475.143689 180.297521 
L 477.685032 180.297521 
L 477.796447 148.165289 
L 482.990549 148.165289 
L 483.101965 180.297521 
L 488.296067 180.297521 
L 488.407483 148.165289 
L 490.948826 148.165289 
L 491.060242 180.297521 
L 493.601585 180.297521 
L 493.713001 148.165289 
L 496.254344 148.165289 
L 496.36576 180.297521 
L 498.907103 180.297521 
L 499.018518 148.165289 
L 501.559861 148.165289 
L 501.671277 180.297521 
L 504.21262 180.297521 
L 504.324036 148.165289 
L 506.865379 148.165289 
L 506.976795 180.297521 
L 509.518138 180.297521 
L 509.629554 148.165289 
L 512.170897 148.165289 
L 512.282313 180.297521 
L 517.476415 180.297521 
L 517.587831 148.165289 
L 520.129174 148.165289 
L 520.240589 180.297521 
L 522.781932 180.297521 
L 522.893348 148.165289 
L 528.08745 148.165289 
L 528.198866 180.297521 
L 530.740209 180.297521 
L 530.851625 148.165289 
L 533.392968 148.165289 
L 533.504384 180.297521 
L 536.045727 180.297521 
L 536.157143 148.165289 
L 538.698486 148.165289 
L 538.809902 180.297521 
L 541.351245 180.297521 
L 541.46266 148.165289 
L 544.004003 148.165289 
L 544.115419 180.297521 
L 546.656762 180.297521 
L 546.768178 148.165289 
L 549.309521 148.165289 
L 549.420937 180.297521 
L 554.615039 180.297521 
L 554.726455 148.165289 
L 557.267798 148.165289 
L 557.379214 180.297521 
L 559.920557 180.297521 
L 560.031973 148.165289 
L 562.573316 148.165289 
L 562.684731 180.297521 
L 567.878833 180.297521 
L 567.990249 148.165289 
L 570.531592 148.165289 
L 570.643008 180.297521 
L 573.184351 180.297521 
L 573.295767 148.165289 
L 575.83711 148.165289 
L 575.948526 180.297521 
L 578.489869 180.297521 
L 578.601285 148.165289 
L 586.448145 148.165289 
L 586.559561 180.297521 
L 589.100904 180.297521 
L 589.21232 148.165289 
L 594.406422 148.165289 
L 594.517838 180.297521 
L 597.059181 180.297521 
L 597.170597 148.165289 
L 599.71194 148.165289 
L 599.823356 180.297521 
L 602.364699 180.297521 
L 602.476115 148.165289 
L 607.670216 148.165289 
L 607.781632 180.297521 
L 610.322975 180.297521 
L 610.434391 148.165289 
L 612.975734 148.165289 
L 613.08715 180.297521 
L 615.628493 180.297521 
L 615.739909 148.165289 
L 626.239529 148.165289 
L 626.350944 180.297521 
L 628.892287 180.297521 
L 629.003703 148.165289 
L 634.197805 148.165289 
L 634.309221 180.297521 
L 636.850564 180.297521 
L 636.96198 148.165289 
L 639.503323 148.165289 
L 639.614739 180.297521 
L 642.156082 180.297521 
L 642.267498 148.165289 
L 644.808841 148.165289 
L 644.920257 180.297521 
L 652.767117 180.297521 
L 652.878533 148.165289 
L 655.419876 148.165289 
L 655.531292 180.297521 
L 658.072635 180.297521 
L 658.184051 148.165289 
L 663.378153 148.165289 
L 663.489569 180.297521 
L 666.030912 180.297521 
L 666.142328 148.165289 
L 671.33643 148.165289 
L 671.447845 180.297521 
L 673.989188 180.297521 
L 674.100604 148.165289 
L 676.641947 148.165289 
L 676.753363 180.297521 
L 681.947465 180.297521 
L 682.058881 148.165289 
L 684.600224 148.165289 
L 684.71164 180.297521 
L 687.252983 180.297521 
L 687.364399 148.165289 
L 689.905742 148.165289 
L 690.017158 180.297521 
L 692.558501 180.297521 
L 692.669916 148.165289 
L 695.211259 148.165289 
L 695.322675 180.297521 
L 697.864018 180.297521 
L 697.975434 148.165289 
L 700.516777 148.165289 
L 700.628193 180.297521 
L 708.475054 180.297521 
L 708.58647 148.165289 
L 711.127813 148.165289 
L 711.239229 180.297521 
L 713.780572 180.297521 
L 713.891987 148.165289 
L 719.086089 148.165289 
L 719.197505 180.297521 
L 721.738848 180.297521 
L 721.850264 148.165289 
L 727.044366 148.165289 
L 727.155782 180.297521 
L 729.697125 180.297521 
L 729.808541 148.165289 
L 732.349884 148.165289 
L 732.4613 180.297521 
L 737.655401 180.297521 
L 737.766817 148.165289 
L 740.30816 148.165289 
L 740.419576 180.297521 
L 742.960919 180.297521 
L 743.072335 148.165289 
L 745.613678 148.165289 
L 745.725094 180.297521 
L 748.266437 180.297521 
L 748.377853 148.165289 
L 750.919196 148.165289 
L 751.030612 180.297521 
L 753.571955 180.297521 
L 753.683371 148.165289 
L 756.224714 148.165289 
L 756.336129 180.297521 
L 758.877472 180.297521 
L 758.988888 148.165289 
L 761.530231 148.165289 
L 761.641647 180.297521 
L 764.18299 180.297521 
L 764.294406 148.165289 
L 769.488508 148.165289 
L 769.599924 180.297521 
L 772.141267 180.297521 
L 772.252683 148.165289 
L 774.794026 148.165289 
L 774.905442 180.297521 
L 806.627132 180.297521 
L 806.627132 180.297521 
" clip-path="url(#p0fd82df02a)" style="fill: none; stroke: #fca50a; stroke-width: 1.5; stroke-linecap: square"/>
   </g>
   <g id="line2d_10">
    <path d="M 130.174149 196.363636 
L 159.353966 196.363636 
L 159.465382 164.231405 
L 162.006725 164.231405 
L 162.118141 196.363636 
L 164.659484 196.363636 
L 164.7709 164.231405 
L 167.312243 164.231405 
L 167.423659 196.363636 
L 169.965002 196.363636 
L 170.076418 164.231405 
L 172.617761 164.231405 
L 172.729177 196.363636 
L 175.27052 196.363636 
L 175.381936 164.231405 
L 177.923279 164.231405 
L 178.034694 196.363636 
L 183.228796 196.363636 
L 183.340212 164.231405 
L 185.881555 164.231405 
L 185.992971 196.363636 
L 188.534314 196.363636 
L 188.64573 164.231405 
L 191.187073 164.231405 
L 191.298489 196.363636 
L 193.839832 196.363636 
L 193.951248 164.231405 
L 199.14535 164.231405 
L 199.256765 196.363636 
L 201.798109 196.363636 
L 201.909524 164.231405 
L 204.450867 164.231405 
L 204.562283 196.363636 
L 207.103626 196.363636 
L 207.215042 164.231405 
L 212.409144 164.231405 
L 212.52056 196.363636 
L 215.061903 196.363636 
L 215.173319 164.231405 
L 217.714662 164.231405 
L 217.826078 196.363636 
L 220.367421 196.363636 
L 220.478837 164.231405 
L 223.02018 164.231405 
L 223.131595 196.363636 
L 228.325697 196.363636 
L 228.437113 164.231405 
L 230.978456 164.231405 
L 231.089872 196.363636 
L 233.631215 196.363636 
L 233.742631 164.231405 
L 238.936733 164.231405 
L 239.048149 196.363636 
L 241.589492 196.363636 
L 241.700908 164.231405 
L 244.242251 164.231405 
L 244.353666 196.363636 
L 246.895009 196.363636 
L 247.006425 164.231405 
L 249.547768 164.231405 
L 249.659184 196.363636 
L 252.200527 196.363636 
L 252.311943 164.231405 
L 257.506045 164.231405 
L 257.617461 196.363636 
L 260.158804 196.363636 
L 260.27022 164.231405 
L 265.464322 164.231405 
L 265.575737 196.363636 
L 268.11708 196.363636 
L 268.228496 164.231405 
L 270.769839 164.231405 
L 270.881255 196.363636 
L 273.422598 196.363636 
L 273.534014 164.231405 
L 276.075357 164.231405 
L 276.186773 196.363636 
L 278.728116 196.363636 
L 278.839532 164.231405 
L 281.380875 164.231405 
L 281.492291 196.363636 
L 284.033634 196.363636 
L 284.14505 164.231405 
L 289.339151 164.231405 
L 289.450567 196.363636 
L 291.99191 196.363636 
L 292.103326 164.231405 
L 294.644669 164.231405 
L 294.756085 196.363636 
L 297.297428 196.363636 
L 297.408844 164.231405 
L 299.950187 164.231405 
L 300.061603 196.363636 
L 302.602946 196.363636 
L 302.714362 164.231405 
L 305.255705 164.231405 
L 305.367121 196.363636 
L 307.908464 196.363636 
L 308.019879 164.231405 
L 310.561222 164.231405 
L 310.672638 196.363636 
L 313.213981 196.363636 
L 313.325397 164.231405 
L 318.519499 164.231405 
L 318.630915 196.363636 
L 321.172258 196.363636 
L 321.283674 164.231405 
L 323.825017 164.231405 
L 323.936433 196.363636 
L 326.477776 196.363636 
L 326.589192 164.231405 
L 329.130535 164.231405 
L 329.24195 196.363636 
L 331.783293 196.363636 
L 331.894709 164.231405 
L 337.088811 164.231405 
L 337.200227 196.363636 
L 339.74157 196.363636 
L 339.852986 164.231405 
L 342.394329 164.231405 
L 342.505745 196.363636 
L 345.047088 196.363636 
L 345.158504 164.231405 
L 347.699847 164.231405 
L 347.811263 196.363636 
L 350.352606 196.363636 
L 350.464021 164.231405 
L 353.005364 164.231405 
L 353.11678 196.363636 
L 355.658123 196.363636 
L 355.769539 164.231405 
L 360.963641 164.231405 
L 361.075057 196.363636 
L 363.6164 196.363636 
L 363.727816 164.231405 
L 366.269159 164.231405 
L 366.380575 196.363636 
L 368.921918 196.363636 
L 369.033334 164.231405 
L 371.574677 164.231405 
L 371.686092 196.363636 
L 374.227435 196.363636 
L 374.338851 164.231405 
L 376.880194 164.231405 
L 376.99161 196.363636 
L 379.532953 196.363636 
L 379.644369 164.231405 
L 382.185712 164.231405 
L 382.297128 196.363636 
L 384.838471 196.363636 
L 384.949887 164.231405 
L 390.143989 164.231405 
L 390.255405 196.363636 
L 392.796748 196.363636 
L 392.908163 164.231405 
L 398.102265 164.231405 
L 398.213681 196.363636 
L 400.755024 196.363636 
L 400.86644 164.231405 
L 403.407783 164.231405 
L 403.519199 196.363636 
L 406.060542 196.363636 
L 406.171958 164.231405 
L 408.713301 164.231405 
L 408.824717 196.363636 
L 411.36606 196.363636 
L 411.477476 164.231405 
L 419.324336 164.231405 
L 419.435752 196.363636 
L 421.977095 196.363636 
L 422.088511 164.231405 
L 424.629854 164.231405 
L 424.74127 196.363636 
L 427.282613 196.363636 
L 427.394029 164.231405 
L 429.935372 164.231405 
L 430.046788 196.363636 
L 432.588131 196.363636 
L 432.699547 164.231405 
L 437.893648 164.231405 
L 438.005064 196.363636 
L 440.546407 196.363636 
L 440.657823 164.231405 
L 443.199166 164.231405 
L 443.310582 196.363636 
L 445.851925 196.363636 
L 445.963341 164.231405 
L 451.157443 164.231405 
L 451.268859 196.363636 
L 453.810202 196.363636 
L 453.921618 164.231405 
L 456.462961 164.231405 
L 456.574376 196.363636 
L 459.115719 196.363636 
L 459.227135 164.231405 
L 461.768478 164.231405 
L 461.879894 196.363636 
L 464.421237 196.363636 
L 464.532653 164.231405 
L 467.073996 164.231405 
L 467.185412 196.363636 
L 469.726755 196.363636 
L 469.838171 164.231405 
L 472.379514 164.231405 
L 472.49093 196.363636 
L 475.032273 196.363636 
L 475.143689 164.231405 
L 477.685032 164.231405 
L 477.796447 196.363636 
L 480.33779 196.363636 
L 480.449206 164.231405 
L 482.990549 164.231405 
L 483.101965 196.363636 
L 485.643308 196.363636 
L 485.754724 164.231405 
L 488.296067 164.231405 
L 488.407483 196.363636 
L 490.948826 196.363636 
L 491.060242 164.231405 
L 496.254344 164.231405 
L 496.36576 196.363636 
L 501.559861 196.363636 
L 501.671277 164.231405 
L 504.21262 164.231405 
L 504.324036 196.363636 
L 506.865379 196.363636 
L 506.976795 164.231405 
L 509.518138 164.231405 
L 509.629554 196.363636 
L 512.170897 196.363636 
L 512.282313 164.231405 
L 514.823656 164.231405 
L 514.935072 196.363636 
L 517.476415 196.363636 
L 517.587831 164.231405 
L 520.129174 164.231405 
L 520.240589 196.363636 
L 522.781932 196.363636 
L 522.893348 164.231405 
L 525.434691 164.231405 
L 525.546107 196.363636 
L 528.08745 196.363636 
L 528.198866 164.231405 
L 530.740209 164.231405 
L 530.851625 196.363636 
L 533.392968 196.363636 
L 533.504384 164.231405 
L 536.045727 164.231405 
L 536.157143 196.363636 
L 541.351245 196.363636 
L 541.46266 164.231405 
L 544.004003 164.231405 
L 544.115419 196.363636 
L 546.656762 196.363636 
L 546.768178 164.231405 
L 549.309521 164.231405 
L 549.420937 196.363636 
L 551.96228 196.363636 
L 552.073696 164.231405 
L 554.615039 164.231405 
L 554.726455 196.363636 
L 557.267798 196.363636 
L 557.379214 164.231405 
L 559.920557 164.231405 
L 560.031973 196.363636 
L 562.573316 196.363636 
L 562.684731 164.231405 
L 567.878833 164.231405 
L 567.990249 196.363636 
L 570.531592 196.363636 
L 570.643008 164.231405 
L 573.184351 164.231405 
L 573.295767 196.363636 
L 575.83711 196.363636 
L 575.948526 164.231405 
L 578.489869 164.231405 
L 578.601285 196.363636 
L 581.142628 196.363636 
L 581.254044 164.231405 
L 583.795387 164.231405 
L 583.906802 196.363636 
L 586.448145 196.363636 
L 586.559561 164.231405 
L 589.100904 164.231405 
L 589.21232 196.363636 
L 591.753663 196.363636 
L 591.865079 164.231405 
L 594.406422 164.231405 
L 594.517838 196.363636 
L 597.059181 196.363636 
L 597.170597 164.231405 
L 599.71194 164.231405 
L 599.823356 196.363636 
L 602.364699 196.363636 
L 602.476115 164.231405 
L 605.017458 164.231405 
L 605.128873 196.363636 
L 607.670216 196.363636 
L 607.781632 164.231405 
L 610.322975 164.231405 
L 610.434391 196.363636 
L 612.975734 196.363636 
L 613.08715 164.231405 
L 615.628493 164.231405 
L 615.739909 196.363636 
L 618.281252 196.363636 
L 618.392668 164.231405 
L 620.934011 164.231405 
L 621.045427 196.363636 
L 623.58677 196.363636 
L 623.698186 164.231405 
L 626.239529 164.231405 
L 626.350944 196.363636 
L 628.892287 196.363636 
L 629.003703 164.231405 
L 634.197805 164.231405 
L 634.309221 196.363636 
L 636.850564 196.363636 
L 636.96198 164.231405 
L 639.503323 164.231405 
L 639.614739 196.363636 
L 642.156082 196.363636 
L 642.267498 164.231405 
L 647.4616 164.231405 
L 647.573015 196.363636 
L 650.114359 196.363636 
L 650.225774 164.231405 
L 652.767117 164.231405 
L 652.878533 196.363636 
L 655.419876 196.363636 
L 655.531292 164.231405 
L 658.072635 164.231405 
L 658.184051 196.363636 
L 666.030912 196.363636 
L 666.142328 164.231405 
L 668.683671 164.231405 
L 668.795087 196.363636 
L 671.33643 196.363636 
L 671.447845 164.231405 
L 673.989188 164.231405 
L 674.100604 196.363636 
L 676.641947 196.363636 
L 676.753363 164.231405 
L 679.294706 164.231405 
L 679.406122 196.363636 
L 684.600224 196.363636 
L 684.71164 164.231405 
L 687.252983 164.231405 
L 687.364399 196.363636 
L 689.905742 196.363636 
L 690.017158 164.231405 
L 692.558501 164.231405 
L 692.669916 196.363636 
L 695.211259 196.363636 
L 695.322675 164.231405 
L 697.864018 164.231405 
L 697.975434 196.363636 
L 700.516777 196.363636 
L 700.628193 164.231405 
L 703.169536 164.231405 
L 703.280952 196.363636 
L 705.822295 196.363636 
L 705.933711 164.231405 
L 708.475054 164.231405 
L 708.58647 196.363636 
L 711.127813 196.363636 
L 711.239229 164.231405 
L 713.780572 164.231405 
L 713.891987 196.363636 
L 716.43333 196.363636 
L 716.544746 164.231405 
L 719.086089 164.231405 
L 719.197505 196.363636 
L 721.738848 196.363636 
L 721.850264 164.231405 
L 724.391607 164.231405 
L 724.503023 196.363636 
L 727.044366 196.363636 
L 727.155782 164.231405 
L 729.697125 164.231405 
L 729.808541 196.363636 
L 732.349884 196.363636 
L 732.4613 164.231405 
L 735.002643 164.231405 
L 735.114058 196.363636 
L 737.655401 196.363636 
L 737.766817 164.231405 
L 740.30816 164.231405 
L 740.419576 196.363636 
L 742.960919 196.363636 
L 743.072335 164.231405 
L 745.613678 164.231405 
L 745.725094 196.363636 
L 748.266437 196.363636 
L 748.377853 164.231405 
L 750.919196 164.231405 
L 751.030612 196.363636 
L 753.571955 196.363636 
L 753.683371 164.231405 
L 756.224714 164.231405 
L 756.336129 196.363636 
L 758.877472 196.363636 
L 758.988888 164.231405 
L 761.530231 164.231405 
L 761.641647 196.363636 
L 764.18299 196.363636 
L 764.294406 164.231405 
L 766.835749 164.231405 
L 766.947165 196.363636 
L 769.488508 196.363636 
L 769.599924 164.231405 
L 772.141267 164.231405 
L 772.252683 196.363636 
L 774.794026 196.363636 
L 774.905442 164.231405 
L 777.446785 164.231405 
L 777.5582 196.363636 
L 780.099543 196.363636 
L 780.210959 164.231405 
L 782.752302 164.231405 
L 782.863718 196.363636 
L 785.405061 196.363636 
L 785.516477 164.231405 
L 788.05782 164.231405 
L 788.169236 196.363636 
L 819.890927 196.363636 
L 819.890927 196.363636 
" clip-path="url(#p0fd82df02a)" style="fill: none; stroke: #f6d746; stroke-width: 1.5; stroke-linecap: square"/>
   </g>
   <g id="LineCollection_1">
    <path d="M 37.327589 164.231405 
L 63.855178 164.231405 
" clip-path="url(#p0fd82df02a)" style="fill: none; stroke: #000000; stroke-width: 3"/>
   </g>
   <g id="text_1">
    <!-- DC -->
    <g style="fill: #000004" transform="translate(705.822825 51.768595) scale(0.16 -0.16)">
     <defs>
      <path id="DejaVuSans-44" d="M 1259 4147 
L 1259 519 
L 2022 519 
Q 2988 519 3436 956 
Q 3884 1394 3884 2338 
Q 3884 3275 3436 3711 
Q 2988 4147 2022 4147 
L 1259 4147 
z
M 628 4666 
L 1925 4666 
Q 3281 4666 3915 4102 
Q 4550 3538 4550 2338 
Q 4550 1131 3912 565 
Q 3275 0 1925 0 
L 628 0 
L 628 4666 
z
" transform="scale(0.015625)"/>
      <path id="DejaVuSans-43" d="M 4122 4306 
L 4122 3641 
Q 3803 3938 3442 4084 
Q 3081 4231 2675 4231 
Q 1875 4231 1450 3742 
Q 1025 3253 1025 2328 
Q 1025 1406 1450 917 
Q 1875 428 2675 428 
Q 3081 428 3442 575 
Q 3803 722 4122 1019 
L 4122 359 
Q 3791 134 3420 21 
Q 3050 -91 2638 -91 
Q 1578 -91 968 557 
Q 359 1206 359 2328 
Q 359 3453 968 4101 
Q 1578 4750 2638 4750 
Q 3056 4750 3426 4639 
Q 3797 4528 4122 4306 
z
" transform="scale(0.015625)"/>
     </defs>
     <use xlink:href="#DejaVuSans-44"/>
     <use xlink:href="#DejaVuSans-43" x="77.001953"/>
    </g>
   </g>
   <g id="text_2">
    <!-- 0.1 -->
    <g style="fill: #160b39" transform="translate(719.08662 67.834711) scale(0.16 -0.16)">
     <defs>
      <path id="DejaVuSans-30" d="M 2034 4250 
Q 1547 4250 1301 3770 
Q 1056 3291 1056 2328 
Q 1056 1369 1301 889 
Q 1547 409 2034 409 
Q 2525 409 2770 889 
Q 3016 1369 3016 2328 
Q 3016 3291 2770 3770 
Q 2525 4250 2034 4250 
z
M 2034 4750 
Q 2819 4750 3233 4129 
Q 3647 3509 3647 2328 
Q 3647 1150 3233 529 
Q 2819 -91 2034 -91 
Q 1250 -91 836 529 
Q 422 1150 422 2328 
Q 422 3509 836 4129 
Q 1250 4750 2034 4750 
z
" transform="scale(0.015625)"/>
      <path id="DejaVuSans-2e" d="M 684 794 
L 1344 794 
L 1344 0 
L 684 0 
L 684 794 
z
" transform="scale(0.015625)"/>
      <path id="DejaVuSans-31" d="M 794 531 
L 1825 531 
L 1825 4091 
L 703 3866 
L 703 4441 
L 1819 4666 
L 2450 4666 
L 2450 531 
L 3481 531 
L 3481 0 
L 794 0 
L 794 531 
z
" transform="scale(0.015625)"/>
     </defs>
     <use xlink:href="#DejaVuSans-30"/>
     <use xlink:href="#DejaVuSans-2e" x="63.623047"/>
     <use xlink:href="#DejaVuSans-31" x="95.410156"/>
    </g>
   </g>
   <g id="text_3">
    <!-- 0.2 -->
    <g style="fill: #420a68" transform="translate(732.350414 83.900826) scale(0.16 -0.16)">
     <defs>
      <path id="DejaVuSans-32" d="M 1228 531 
L 3431 531 
L 3431 0 
L 469 0 
L 469 531 
Q 828 903 1448 1529 
Q 2069 2156 2228 2338 
Q 2531 2678 2651 2914 
Q 2772 3150 2772 3378 
Q 2772 3750 2511 3984 
Q 2250 4219 1831 4219 
Q 1534 4219 1204 4116 
Q 875 4013 500 3803 
L 500 4441 
Q 881 4594 1212 4672 
Q 1544 4750 1819 4750 
Q 2544 4750 2975 4387 
Q 3406 4025 3406 3419 
Q 3406 3131 3298 2873 
Q 3191 2616 2906 2266 
Q 2828 2175 2409 1742 
Q 1991 1309 1228 531 
z
" transform="scale(0.015625)"/>
     </defs>
     <use xlink:href="#DejaVuSans-30"/>
     <use xlink:href="#DejaVuSans-2e" x="63.623047"/>
     <use xlink:href="#DejaVuSans-32" x="95.410156"/>
    </g>
   </g>
   <g id="text_4">
    <!-- 0.3 -->
    <g style="fill: #6a176e" transform="translate(745.614209 99.966942) scale(0.16 -0.16)">
     <defs>
      <path id="DejaVuSans-33" d="M 2597 2516 
Q 3050 2419 3304 2112 
Q 3559 1806 3559 1356 
Q 3559 666 3084 287 
Q 2609 -91 1734 -91 
Q 1441 -91 1130 -33 
Q 819 25 488 141 
L 488 750 
Q 750 597 1062 519 
Q 1375 441 1716 441 
Q 2309 441 2620 675 
Q 2931 909 2931 1356 
Q 2931 1769 2642 2001 
Q 2353 2234 1838 2234 
L 1294 2234 
L 1294 2753 
L 1863 2753 
Q 2328 2753 2575 2939 
Q 2822 3125 2822 3475 
Q 2822 3834 2567 4026 
Q 2313 4219 1838 4219 
Q 1578 4219 1281 4162 
Q 984 4106 628 3988 
L 628 4550 
Q 988 4650 1302 4700 
Q 1616 4750 1894 4750 
Q 2613 4750 3031 4423 
Q 3450 4097 3450 3541 
Q 3450 3153 3228 2886 
Q 3006 2619 2597 2516 
z
" transform="scale(0.015625)"/>
     </defs>
     <use xlink:href="#DejaVuSans-30"/>
     <use xlink:href="#DejaVuSans-2e" x="63.623047"/>
     <use xlink:href="#DejaVuSans-33" x="95.410156"/>
    </g>
   </g>
   <g id="text_5">
    <!-- 0.4 -->
    <g style="fill: #932667" transform="translate(758.878003 116.033058) scale(0.16 -0.16)">
     <defs>
      <path id="DejaVuSans-34" d="M 2419 4116 
L 825 1625 
L 2419 1625 
L 2419 4116 
z
M 2253 4666 
L 3047 4666 
L 3047 1625 
L 3713 1625 
L 3713 1100 
L 3047 1100 
L 3047 0 
L 2419 0 
L 2419 1100 
L 313 1100 
L 313 1709 
L 2253 4666 
z
" transform="scale(0.015625)"/>
     </defs>
     <use xlink:href="#DejaVuSans-30"/>
     <use xlink:href="#DejaVuSans-2e" x="63.623047"/>
     <use xlink:href="#DejaVuSans-34" x="95.410156"/>
    </g>
   </g>
   <g id="text_6">
    <!-- 0.5 -->
    <g style="fill: #bc3754" transform="translate(772.141797 132.099174) scale(0.16 -0.16)">
     <defs>
      <path id="DejaVuSans-35" d="M 691 4666 
L 3169 4666 
L 3169 4134 
L 1269 4134 
L 1269 2991 
Q 1406 3038 1543 3061 
Q 1681 3084 1819 3084 
Q 2600 3084 3056 2656 
Q 3513 2228 3513 1497 
Q 3513 744 3044 326 
Q 2575 -91 1722 -91 
Q 1428 -91 1123 -41 
Q 819 9 494 109 
L 494 744 
Q 775 591 1075 516 
Q 1375 441 1709 441 
Q 2250 441 2565 725 
Q 2881 1009 2881 1497 
Q 2881 1984 2565 2268 
Q 2250 2553 1709 2553 
Q 1456 2553 1204 2497 
Q 953 2441 691 2322 
L 691 4666 
z
" transform="scale(0.015625)"/>
     </defs>
     <use xlink:href="#DejaVuSans-30"/>
     <use xlink:href="#DejaVuSans-2e" x="63.623047"/>
     <use xlink:href="#DejaVuSans-35" x="95.410156"/>
    </g>
   </g>
   <g id="text_7">
    <!-- 0.6 -->
    <g style="fill: #dd513a" transform="translate(785.405592 148.165289) scale(0.16 -0.16)">
     <defs>
      <path id="DejaVuSans-36" d="M 2113 2584 
Q 1688 2584 1439 2293 
Q 1191 2003 1191 1497 
Q 1191 994 1439 701 
Q 1688 409 2113 409 
Q 2538 409 2786 701 
Q 3034 994 3034 1497 
Q 3034 2003 2786 2293 
Q 2538 2584 2113 2584 
z
M 3366 4563 
L 3366 3988 
Q 3128 4100 2886 4159 
Q 2644 4219 2406 4219 
Q 1781 4219 1451 3797 
Q 1122 3375 1075 2522 
Q 1259 2794 1537 2939 
Q 1816 3084 2150 3084 
Q 2853 3084 3261 2657 
Q 3669 2231 3669 1497 
Q 3669 778 3244 343 
Q 2819 -91 2113 -91 
Q 1303 -91 875 529 
Q 447 1150 447 2328 
Q 447 3434 972 4092 
Q 1497 4750 2381 4750 
Q 2619 4750 2861 4703 
Q 3103 4656 3366 4563 
z
" transform="scale(0.015625)"/>
     </defs>
     <use xlink:href="#DejaVuSans-30"/>
     <use xlink:href="#DejaVuSans-2e" x="63.623047"/>
     <use xlink:href="#DejaVuSans-36" x="95.410156"/>
    </g>
   </g>
   <g id="text_8">
    <!-- 0.7 -->
    <g style="fill: #f37819" transform="translate(798.669386 164.231405) scale(0.16 -0.16)">
     <defs>
      <path id="DejaVuSans-37" d="M 525 4666 
L 3525 4666 
L 3525 4397 
L 1831 0 
L 1172 0 
L 2766 4134 
L 525 4134 
L 525 4666 
z
" transform="scale(0.015625)"/>
     </defs>
     <use xlink:href="#DejaVuSans-30"/>
     <use xlink:href="#DejaVuSans-2e" x="63.623047"/>
     <use xlink:href="#DejaVuSans-37" x="95.410156"/>
    </g>
   </g>
   <g id="text_9">
    <!-- 0.8 -->
    <g style="fill: #fca50a" transform="translate(811.93318 180.297521) scale(0.16 -0.16)">
     <defs>
      <path id="DejaVuSans-38" d="M 2034 2216 
Q 1584 2216 1326 1975 
Q 1069 1734 1069 1313 
Q 1069 891 1326 650 
Q 1584 409 2034 409 
Q 2484 409 2743 651 
Q 3003 894 3003 1313 
Q 3003 1734 2745 1975 
Q 2488 2216 2034 2216 
z
M 1403 2484 
Q 997 2584 770 2862 
Q 544 3141 544 3541 
Q 544 4100 942 4425 
Q 1341 4750 2034 4750 
Q 2731 4750 3128 4425 
Q 3525 4100 3525 3541 
Q 3525 3141 3298 2862 
Q 3072 2584 2669 2484 
Q 3125 2378 3379 2068 
Q 3634 1759 3634 1313 
Q 3634 634 3220 271 
Q 2806 -91 2034 -91 
Q 1263 -91 848 271 
Q 434 634 434 1313 
Q 434 1759 690 2068 
Q 947 2378 1403 2484 
z
M 1172 3481 
Q 1172 3119 1398 2916 
Q 1625 2713 2034 2713 
Q 2441 2713 2670 2916 
Q 2900 3119 2900 3481 
Q 2900 3844 2670 4047 
Q 2441 4250 2034 4250 
Q 1625 4250 1398 4047 
Q 1172 3844 1172 3481 
z
" transform="scale(0.015625)"/>
     </defs>
     <use xlink:href="#DejaVuSans-30"/>
     <use xlink:href="#DejaVuSans-2e" x="63.623047"/>
     <use xlink:href="#DejaVuSans-38" x="95.410156"/>
    </g>
   </g>
   <g id="text_10">
    <!-- 0.9 -->
    <g style="fill: #f6d746" transform="translate(825.196975 196.363636) scale(0.16 -0.16)">
     <defs>
      <path id="DejaVuSans-39" d="M 703 97 
L 703 672 
Q 941 559 1184 500 
Q 1428 441 1663 441 
Q 2288 441 2617 861 
Q 2947 1281 2994 2138 
Q 2813 1869 2534 1725 
Q 2256 1581 1919 1581 
Q 1219 1581 811 2004 
Q 403 2428 403 3163 
Q 403 3881 828 4315 
Q 1253 4750 1959 4750 
Q 2769 4750 3195 4129 
Q 3622 3509 3622 2328 
Q 3622 1225 3098 567 
Q 2575 -91 1691 -91 
Q 1453 -91 1209 -44 
Q 966 3 703 97 
z
M 1959 2075 
Q 2384 2075 2632 2365 
Q 2881 2656 2881 3163 
Q 2881 3666 2632 3958 
Q 2384 4250 1959 4250 
Q 1534 4250 1286 3958 
Q 1038 3666 1038 3163 
Q 1038 2656 1286 2365 
Q 1534 2075 1959 2075 
z
" transform="scale(0.015625)"/>
     </defs>
     <use xlink:href="#DejaVuSans-30"/>
     <use xlink:href="#DejaVuSans-2e" x="63.623047"/>
     <use xlink:href="#DejaVuSans-39" x="95.410156"/>
    </g>
   </g>
   <g id="text_11">
    <!-- 0.5 s -->
    <g transform="translate(37.327589 180.297521) scale(0.16 -0.16)">
     <defs>
      <path id="DejaVuSans-20" transform="scale(0.015625)"/>
      <path id="DejaVuSans-73" d="M 2834 3397 
L 2834 2853 
Q 2591 2978 2328 3040 
Q 2066 3103 1784 3103 
Q 1356 3103 1142 2972 
Q 928 2841 928 2578 
Q 928 2378 1081 2264 
Q 1234 2150 1697 2047 
L 1894 2003 
Q 2506 1872 2764 1633 
Q 3022 1394 3022 966 
Q 3022 478 2636 193 
Q 2250 -91 1575 -91 
Q 1294 -91 989 -36 
Q 684 19 347 128 
L 347 722 
Q 666 556 975 473 
Q 1284 391 1588 391 
Q 1994 391 2212 530 
Q 2431 669 2431 922 
Q 2431 1156 2273 1281 
Q 2116 1406 1581 1522 
L 1381 1569 
Q 847 1681 609 1914 
Q 372 2147 372 2553 
Q 372 3047 722 3315 
Q 1072 3584 1716 3584 
Q 2034 3584 2315 3537 
Q 2597 3491 2834 3397 
z
" transform="scale(0.015625)"/>
     </defs>
     <use xlink:href="#DejaVuSans-30"/>
     <use xlink:href="#DejaVuSans-2e" x="63.623047"/>
     <use xlink:href="#DejaVuSans-35" x="95.410156"/>
     <use xlink:href="#DejaVuSans-20" x="159.033203"/>
     <use xlink:href="#DejaVuSans-73" x="190.820312"/>
    </g>
   </g>
  </g>
 </g>
 <defs>
  <clipPath id="p0fd82df02a">
   <rect x="10.8" y="10.8" width="827.660769" height="194.4"/>
  </clipPath>
 </defs>
</svg>
