<?xml version="1.0" encoding="utf-8" standalone="no"?>
<!DOCTYPE svg PUBLIC "-//W3C//DTD SVG 1.1//EN"
  "http://www.w3.org/Graphics/SVG/1.1/DTD/svg11.dtd">
<!-- Created with matplotlib (https://matplotlib.org/) -->
<svg height="216pt" version="1.1" viewBox="0 0 864 216" width="864pt" xmlns="http://www.w3.org/2000/svg" xmlns:xlink="http://www.w3.org/1999/xlink">
 <metadata>
  <rdf:RDF xmlns:cc="http://creativecommons.org/ns#" xmlns:dc="http://purl.org/dc/elements/1.1/" xmlns:rdf="http://www.w3.org/1999/02/22-rdf-syntax-ns#">
   <cc:Work>
    <dc:type rdf:resource="http://purl.org/dc/dcmitype/StillImage"/>
    <dc:date>2021-09-09T21:32:25.306932</dc:date>
    <dc:format>image/svg+xml</dc:format>
    <dc:creator>
     <cc:Agent>
      <dc:title>Matplotlib v3.3.4, https://matplotlib.org/</dc:title>
     </cc:Agent>
    </dc:creator>
   </cc:Work>
  </rdf:RDF>
 </metadata>
 <defs>
  <style type="text/css">*{stroke-linecap:butt;stroke-linejoin:round;}</style>
 </defs>
 <g id="figure_1">
  <g id="patch_1">
   <path d="M 0 216 
L 864 216 
L 864 0 
L 0 0 
z
" style="fill:none;"/>
  </g>
  <g id="axes_1">
   <g id="matplotlib.axis_1"/>
   <g id="matplotlib.axis_2"/>
   <g id="LineCollection_1">
    <path clip-path="url(#p12bea8324d)" d="M 37.674569 178.690909 
L 64.549137 178.690909 
" style="fill:none;stroke:#000000;stroke-width:3;"/>
   </g>
   <g id="line2d_1">
    <path clip-path="url(#p12bea8324d)" d="M 10.8 54.981818 
L 43.048945 54.981818 
L 43.160205 19.636364 
L 59.173686 19.636364 
L 59.284947 54.981818 
L 102.172996 54.981818 
L 102.284256 19.636364 
L 139.797392 19.636364 
L 139.908652 54.981818 
L 142.484848 54.981818 
L 142.596109 19.636364 
L 177.421787 19.636364 
L 177.533048 54.981818 
L 255.358036 54.981818 
L 255.469297 19.636364 
L 260.73295 19.636364 
L 260.844211 54.981818 
L 287.607518 54.981818 
L 287.718779 19.636364 
L 290.294975 19.636364 
L 290.406236 54.981818 
L 311.79463 54.981818 
L 311.905891 19.636364 
L 327.919371 19.636364 
L 328.030632 54.981818 
L 338.669199 54.981818 
L 338.780459 19.636364 
L 389.730879 19.636364 
L 389.84214 54.981818 
L 408.543077 54.981818 
L 408.654338 19.636364 
L 419.292904 19.636364 
L 419.404165 54.981818 
L 454.229843 54.981818 
L 454.341104 19.636364 
L 459.604757 19.636364 
L 459.716018 54.981818 
L 462.292214 54.981818 
L 462.403475 19.636364 
L 467.667128 19.636364 
L 467.778388 54.981818 
L 572.477945 54.981818 
L 572.589206 19.636364 
L 628.914539 19.636364 
L 629.0258 54.981818 
L 661.164021 54.981818 
L 661.275282 19.636364 
L 671.913849 19.636364 
L 672.025109 54.981818 
L 709.538245 54.981818 
L 709.538245 54.981818 
" style="fill:none;stroke:#000004;stroke-linecap:square;stroke-width:1.5;"/>
   </g>
   <g id="line2d_2">
    <path clip-path="url(#p12bea8324d)" d="M 24.237284 72.654545 
L 56.486229 72.654545 
L 56.59749 37.309091 
L 72.61097 37.309091 
L 72.722231 72.654545 
L 115.61028 72.654545 
L 115.721541 37.309091 
L 118.297737 37.309091 
L 118.408997 72.654545 
L 145.172305 72.654545 
L 145.283566 37.309091 
L 153.234676 37.309091 
L 153.345936 72.654545 
L 155.922133 72.654545 
L 156.033393 37.309091 
L 169.359417 37.309091 
L 169.470678 72.654545 
L 190.859072 72.654545 
L 190.970332 37.309091 
L 198.921442 37.309091 
L 199.032703 72.654545 
L 217.73364 72.654545 
L 217.844901 37.309091 
L 268.79532 37.309091 
L 268.906581 72.654545 
L 274.170234 72.654545 
L 274.281495 37.309091 
L 279.545148 37.309091 
L 279.656409 72.654545 
L 282.232605 72.654545 
L 282.343865 37.309091 
L 301.044803 37.309091 
L 301.156063 72.654545 
L 303.73226 72.654545 
L 303.84352 37.309091 
L 325.231914 37.309091 
L 325.343175 72.654545 
L 341.356656 72.654545 
L 341.467916 37.309091 
L 352.106483 37.309091 
L 352.217744 72.654545 
L 400.480706 72.654545 
L 400.591967 37.309091 
L 403.168163 37.309091 
L 403.279424 72.654545 
L 421.980361 72.654545 
L 422.091622 37.309091 
L 432.730189 37.309091 
L 432.841449 72.654545 
L 467.667128 72.654545 
L 467.778388 37.309091 
L 473.042041 37.309091 
L 473.153302 72.654545 
L 475.729498 72.654545 
L 475.840759 37.309091 
L 481.104412 37.309091 
L 481.215673 72.654545 
L 499.91661 72.654545 
L 500.027871 37.309091 
L 542.91592 37.309091 
L 543.02718 72.654545 
L 548.290833 72.654545 
L 548.402094 37.309091 
L 585.915229 37.309091 
L 586.02649 72.654545 
L 588.602686 72.654545 
L 588.713947 37.309091 
L 642.351823 37.309091 
L 642.463084 72.654545 
L 645.03928 72.654545 
L 645.150541 37.309091 
L 655.789107 37.309091 
L 655.900368 72.654545 
L 658.476564 72.654545 
L 658.587825 37.309091 
L 671.913849 37.309091 
L 672.025109 72.654545 
L 674.601305 72.654545 
L 674.712566 37.309091 
L 685.351133 37.309091 
L 685.462394 72.654545 
L 722.975529 72.654545 
L 722.975529 72.654545 
" style="fill:none;stroke:#160b39;stroke-linecap:square;stroke-width:1.5;"/>
   </g>
   <g id="line2d_3">
    <path clip-path="url(#p12bea8324d)" d="M 37.674569 90.327273 
L 69.923513 90.327273 
L 70.034774 54.981818 
L 86.048254 54.981818 
L 86.159515 90.327273 
L 102.172996 90.327273 
L 102.284256 54.981818 
L 129.047564 54.981818 
L 129.158825 90.327273 
L 131.735021 90.327273 
L 131.846282 54.981818 
L 158.609589 54.981818 
L 158.72085 90.327273 
L 166.67196 90.327273 
L 166.783221 54.981818 
L 169.359417 54.981818 
L 169.470678 90.327273 
L 182.796701 90.327273 
L 182.907962 54.981818 
L 193.546529 54.981818 
L 193.657789 90.327273 
L 198.921442 90.327273 
L 199.032703 54.981818 
L 201.608899 54.981818 
L 201.72016 90.327273 
L 204.296356 90.327273 
L 204.407617 54.981818 
L 212.358727 54.981818 
L 212.469987 90.327273 
L 231.170925 90.327273 
L 231.282185 54.981818 
L 282.232605 54.981818 
L 282.343865 90.327273 
L 284.920062 90.327273 
L 285.031322 54.981818 
L 287.607518 54.981818 
L 287.718779 90.327273 
L 292.982432 90.327273 
L 293.093693 54.981818 
L 295.669889 54.981818 
L 295.78115 90.327273 
L 314.482087 90.327273 
L 314.593348 54.981818 
L 317.169544 54.981818 
L 317.280805 90.327273 
L 319.857001 90.327273 
L 319.968261 54.981818 
L 335.981742 54.981818 
L 336.093003 90.327273 
L 338.669199 90.327273 
L 338.780459 54.981818 
L 352.106483 54.981818 
L 352.217744 90.327273 
L 354.79394 90.327273 
L 354.905201 54.981818 
L 365.543767 54.981818 
L 365.655028 90.327273 
L 373.606138 90.327273 
L 373.717399 54.981818 
L 413.917991 54.981818 
L 414.029251 90.327273 
L 416.605447 90.327273 
L 416.716708 54.981818 
L 421.980361 54.981818 
L 422.091622 90.327273 
L 435.417645 90.327273 
L 435.528906 54.981818 
L 446.167473 54.981818 
L 446.278734 90.327273 
L 473.042041 90.327273 
L 473.153302 54.981818 
L 481.104412 54.981818 
L 481.215673 90.327273 
L 486.479326 90.327273 
L 486.590586 54.981818 
L 489.166783 54.981818 
L 489.278043 90.327273 
L 494.541696 90.327273 
L 494.652957 54.981818 
L 497.229153 54.981818 
L 497.340414 90.327273 
L 499.91661 90.327273 
L 500.027871 54.981818 
L 502.604067 54.981818 
L 502.715328 90.327273 
L 513.353894 90.327273 
L 513.465155 54.981818 
L 526.791178 54.981818 
L 526.902439 90.327273 
L 529.478635 90.327273 
L 529.589896 54.981818 
L 556.353204 54.981818 
L 556.464465 90.327273 
L 561.728118 90.327273 
L 561.839378 54.981818 
L 585.915229 54.981818 
L 586.02649 90.327273 
L 599.352514 90.327273 
L 599.463774 54.981818 
L 602.03997 54.981818 
L 602.151231 90.327273 
L 604.727427 90.327273 
L 604.838688 54.981818 
L 655.789107 54.981818 
L 655.900368 90.327273 
L 658.476564 90.327273 
L 658.587825 54.981818 
L 669.226392 54.981818 
L 669.337652 90.327273 
L 671.913849 90.327273 
L 672.025109 54.981818 
L 674.601305 54.981818 
L 674.712566 90.327273 
L 677.288762 90.327273 
L 677.400023 54.981818 
L 679.976219 54.981818 
L 680.08748 90.327273 
L 682.663676 90.327273 
L 682.774937 54.981818 
L 685.351133 54.981818 
L 685.462394 90.327273 
L 688.03859 90.327273 
L 688.14985 54.981818 
L 698.788417 54.981818 
L 698.899678 90.327273 
L 736.412813 90.327273 
L 736.412813 90.327273 
" style="fill:none;stroke:#420a68;stroke-linecap:square;stroke-width:1.5;"/>
   </g>
   <g id="line2d_4">
    <path clip-path="url(#p12bea8324d)" d="M 51.111853 108 
L 83.360798 108 
L 83.472058 72.654545 
L 99.485539 72.654545 
L 99.596799 108 
L 107.547909 108 
L 107.65917 72.654545 
L 115.61028 72.654545 
L 115.721541 108 
L 134.422478 108 
L 134.533739 72.654545 
L 139.797392 72.654545 
L 139.908652 108 
L 142.484848 108 
L 142.596109 72.654545 
L 145.172305 72.654545 
L 145.283566 108 
L 161.297046 108 
L 161.408307 72.654545 
L 172.046874 72.654545 
L 172.158134 108 
L 180.109244 108 
L 180.220505 72.654545 
L 182.796701 72.654545 
L 182.907962 108 
L 193.546529 108 
L 193.657789 72.654545 
L 196.233985 72.654545 
L 196.345246 108 
L 198.921442 108 
L 199.032703 72.654545 
L 206.983813 72.654545 
L 207.095074 108 
L 212.358727 108 
L 212.469987 72.654545 
L 215.046183 72.654545 
L 215.157444 108 
L 217.73364 108 
L 217.844901 72.654545 
L 220.421097 72.654545 
L 220.532358 108 
L 225.796011 108 
L 225.907272 72.654545 
L 244.608209 72.654545 
L 244.71947 108 
L 247.295666 108 
L 247.406926 72.654545 
L 284.920062 72.654545 
L 285.031322 108 
L 295.669889 108 
L 295.78115 72.654545 
L 298.357346 72.654545 
L 298.468607 108 
L 301.044803 108 
L 301.156063 72.654545 
L 306.419716 72.654545 
L 306.530977 108 
L 309.107173 108 
L 309.218434 72.654545 
L 327.919371 72.654545 
L 328.030632 108 
L 330.606828 108 
L 330.718089 72.654545 
L 333.294285 72.654545 
L 333.405546 108 
L 349.419026 108 
L 349.530287 72.654545 
L 352.106483 72.654545 
L 352.217744 108 
L 365.543767 108 
L 365.655028 72.654545 
L 368.231224 72.654545 
L 368.342485 108 
L 378.981052 108 
L 379.092312 72.654545 
L 387.043422 72.654545 
L 387.154683 108 
L 403.168163 108 
L 403.279424 72.654545 
L 413.917991 72.654545 
L 414.029251 108 
L 427.355275 108 
L 427.466536 72.654545 
L 430.042732 72.654545 
L 430.153992 108 
L 435.417645 108 
L 435.528906 72.654545 
L 446.167473 72.654545 
L 446.278734 108 
L 448.85493 108 
L 448.96619 72.654545 
L 459.604757 72.654545 
L 459.716018 108 
L 462.292214 108 
L 462.403475 72.654545 
L 478.416955 72.654545 
L 478.528216 108 
L 486.479326 108 
L 486.590586 72.654545 
L 494.541696 72.654545 
L 494.652957 108 
L 497.229153 108 
L 497.340414 72.654545 
L 499.91661 72.654545 
L 500.027871 108 
L 502.604067 108 
L 502.715328 72.654545 
L 507.978981 72.654545 
L 508.090241 108 
L 510.666437 108 
L 510.777698 72.654545 
L 513.353894 72.654545 
L 513.465155 108 
L 516.041351 108 
L 516.152612 72.654545 
L 526.791178 72.654545 
L 526.902439 108 
L 529.478635 108 
L 529.589896 72.654545 
L 540.228463 72.654545 
L 540.339723 108 
L 542.91592 108 
L 543.02718 72.654545 
L 569.790488 72.654545 
L 569.901749 108 
L 575.165402 108 
L 575.276663 72.654545 
L 593.9776 72.654545 
L 594.088861 108 
L 599.352514 108 
L 599.463774 72.654545 
L 604.727427 72.654545 
L 604.838688 108 
L 612.789798 108 
L 612.901059 72.654545 
L 615.477255 72.654545 
L 615.588515 108 
L 618.164712 108 
L 618.275972 72.654545 
L 653.101651 72.654545 
L 653.212911 108 
L 669.226392 108 
L 669.337652 72.654545 
L 671.913849 72.654545 
L 672.025109 108 
L 682.663676 108 
L 682.774937 72.654545 
L 685.351133 72.654545 
L 685.462394 108 
L 688.03859 108 
L 688.14985 72.654545 
L 690.726047 72.654545 
L 690.837307 108 
L 693.413503 108 
L 693.524764 72.654545 
L 696.10096 72.654545 
L 696.212221 108 
L 698.788417 108 
L 698.899678 72.654545 
L 701.475874 72.654545 
L 701.587135 108 
L 712.225701 108 
L 712.336962 72.654545 
L 722.975529 72.654545 
L 723.08679 108 
L 749.850097 108 
L 749.850097 108 
" style="fill:none;stroke:#6a176e;stroke-linecap:square;stroke-width:1.5;"/>
   </g>
   <g id="line2d_5">
    <path clip-path="url(#p12bea8324d)" d="M 64.549137 125.672727 
L 96.798082 125.672727 
L 96.909343 90.327273 
L 112.922823 90.327273 
L 113.034084 125.672727 
L 120.985194 125.672727 
L 121.096454 90.327273 
L 123.67265 90.327273 
L 123.783911 125.672727 
L 129.047564 125.672727 
L 129.158825 90.327273 
L 147.859762 90.327273 
L 147.971023 125.672727 
L 153.234676 125.672727 
L 153.345936 90.327273 
L 155.922133 90.327273 
L 156.033393 125.672727 
L 158.609589 125.672727 
L 158.72085 90.327273 
L 174.734331 90.327273 
L 174.845591 125.672727 
L 185.484158 125.672727 
L 185.595419 90.327273 
L 193.546529 90.327273 
L 193.657789 125.672727 
L 196.233985 125.672727 
L 196.345246 90.327273 
L 206.983813 90.327273 
L 207.095074 125.672727 
L 209.67127 125.672727 
L 209.78253 90.327273 
L 212.358727 90.327273 
L 212.469987 125.672727 
L 215.046183 125.672727 
L 215.157444 90.327273 
L 220.421097 90.327273 
L 220.532358 125.672727 
L 225.796011 125.672727 
L 225.907272 90.327273 
L 228.483468 90.327273 
L 228.594728 125.672727 
L 231.170925 125.672727 
L 231.282185 90.327273 
L 233.858381 90.327273 
L 233.969642 125.672727 
L 239.233295 125.672727 
L 239.344556 90.327273 
L 249.983123 90.327273 
L 250.094383 125.672727 
L 255.358036 125.672727 
L 255.469297 90.327273 
L 258.045493 90.327273 
L 258.156754 125.672727 
L 260.73295 125.672727 
L 260.844211 90.327273 
L 266.107864 90.327273 
L 266.219124 125.672727 
L 276.857691 125.672727 
L 276.968952 90.327273 
L 282.232605 90.327273 
L 282.343865 125.672727 
L 298.357346 125.672727 
L 298.468607 90.327273 
L 301.044803 90.327273 
L 301.156063 125.672727 
L 309.107173 125.672727 
L 309.218434 90.327273 
L 311.79463 90.327273 
L 311.905891 125.672727 
L 314.482087 125.672727 
L 314.593348 90.327273 
L 317.169544 90.327273 
L 317.280805 125.672727 
L 319.857001 125.672727 
L 319.968261 90.327273 
L 322.544458 90.327273 
L 322.655718 125.672727 
L 341.356656 125.672727 
L 341.467916 90.327273 
L 344.044112 90.327273 
L 344.155373 125.672727 
L 346.731569 125.672727 
L 346.84283 90.327273 
L 349.419026 90.327273 
L 349.530287 125.672727 
L 360.168854 125.672727 
L 360.280114 90.327273 
L 362.85631 90.327273 
L 362.967571 125.672727 
L 365.543767 125.672727 
L 365.655028 90.327273 
L 376.293595 90.327273 
L 376.404855 125.672727 
L 378.981052 125.672727 
L 379.092312 90.327273 
L 381.668508 90.327273 
L 381.779769 125.672727 
L 392.418336 125.672727 
L 392.529596 90.327273 
L 400.480706 90.327273 
L 400.591967 125.672727 
L 416.605447 125.672727 
L 416.716708 90.327273 
L 424.667818 90.327273 
L 424.779079 125.672727 
L 427.355275 125.672727 
L 427.466536 90.327273 
L 435.417645 90.327273 
L 435.528906 125.672727 
L 440.792559 125.672727 
L 440.90382 90.327273 
L 443.480016 90.327273 
L 443.591277 125.672727 
L 448.85493 125.672727 
L 448.96619 90.327273 
L 456.9173 90.327273 
L 457.028561 125.672727 
L 459.604757 125.672727 
L 459.716018 90.327273 
L 462.292214 90.327273 
L 462.403475 125.672727 
L 470.354585 125.672727 
L 470.465845 90.327273 
L 473.042041 90.327273 
L 473.153302 125.672727 
L 475.729498 125.672727 
L 475.840759 90.327273 
L 489.166783 90.327273 
L 489.278043 125.672727 
L 491.854239 125.672727 
L 491.9655 90.327273 
L 497.229153 90.327273 
L 497.340414 125.672727 
L 499.91661 125.672727 
L 500.027871 90.327273 
L 507.978981 90.327273 
L 508.090241 125.672727 
L 510.666437 125.672727 
L 510.777698 90.327273 
L 513.353894 90.327273 
L 513.465155 125.672727 
L 516.041351 125.672727 
L 516.152612 90.327273 
L 521.416265 90.327273 
L 521.527525 125.672727 
L 524.103722 125.672727 
L 524.214982 90.327273 
L 526.791178 90.327273 
L 526.902439 125.672727 
L 529.478635 125.672727 
L 529.589896 90.327273 
L 532.166092 90.327273 
L 532.277353 125.672727 
L 540.228463 125.672727 
L 540.339723 90.327273 
L 542.91592 90.327273 
L 543.02718 125.672727 
L 548.290833 125.672727 
L 548.402094 90.327273 
L 553.665747 90.327273 
L 553.777008 125.672727 
L 556.353204 125.672727 
L 556.464465 90.327273 
L 569.790488 90.327273 
L 569.901749 125.672727 
L 583.227772 125.672727 
L 583.339033 90.327273 
L 588.602686 90.327273 
L 588.713947 125.672727 
L 607.414884 125.672727 
L 607.526145 90.327273 
L 612.789798 90.327273 
L 612.901059 125.672727 
L 618.164712 125.672727 
L 618.275972 90.327273 
L 626.227082 90.327273 
L 626.338343 125.672727 
L 628.914539 125.672727 
L 629.0258 90.327273 
L 631.601996 90.327273 
L 631.713257 125.672727 
L 645.03928 125.672727 
L 645.150541 90.327273 
L 647.726737 90.327273 
L 647.837998 125.672727 
L 663.851478 125.672727 
L 663.962739 90.327273 
L 666.538935 90.327273 
L 666.650196 125.672727 
L 682.663676 125.672727 
L 682.774937 90.327273 
L 685.351133 90.327273 
L 685.462394 125.672727 
L 696.10096 125.672727 
L 696.212221 90.327273 
L 698.788417 90.327273 
L 698.899678 125.672727 
L 701.475874 125.672727 
L 701.587135 90.327273 
L 704.163331 90.327273 
L 704.274592 125.672727 
L 706.850788 125.672727 
L 706.962048 90.327273 
L 709.538245 90.327273 
L 709.649505 125.672727 
L 712.225701 125.672727 
L 712.336962 90.327273 
L 714.913158 90.327273 
L 715.024419 125.672727 
L 720.288072 125.672727 
L 720.399333 90.327273 
L 725.662986 90.327273 
L 725.774246 125.672727 
L 763.287382 125.672727 
L 763.287382 125.672727 
" style="fill:none;stroke:#932667;stroke-linecap:square;stroke-width:1.5;"/>
   </g>
   <g id="line2d_6">
    <path clip-path="url(#p12bea8324d)" d="M 77.986421 143.345455 
L 110.235366 143.345455 
L 110.346627 108 
L 126.360107 108 
L 126.471368 143.345455 
L 131.735021 143.345455 
L 131.846282 108 
L 134.422478 108 
L 134.533739 143.345455 
L 137.109935 143.345455 
L 137.221195 108 
L 142.484848 108 
L 142.596109 143.345455 
L 161.297046 143.345455 
L 161.408307 108 
L 166.67196 108 
L 166.783221 143.345455 
L 169.359417 143.345455 
L 169.470678 108 
L 172.046874 108 
L 172.158134 143.345455 
L 177.421787 143.345455 
L 177.533048 108 
L 180.109244 108 
L 180.220505 143.345455 
L 188.171615 143.345455 
L 188.282876 108 
L 198.921442 108 
L 199.032703 143.345455 
L 206.983813 143.345455 
L 207.095074 108 
L 209.67127 108 
L 209.78253 143.345455 
L 215.046183 143.345455 
L 215.157444 108 
L 220.421097 108 
L 220.532358 143.345455 
L 223.108554 143.345455 
L 223.219815 108 
L 225.796011 108 
L 225.907272 143.345455 
L 228.483468 143.345455 
L 228.594728 108 
L 233.858381 108 
L 233.969642 143.345455 
L 239.233295 143.345455 
L 239.344556 108 
L 241.920752 108 
L 242.032013 143.345455 
L 244.608209 143.345455 
L 244.71947 108 
L 247.295666 108 
L 247.406926 143.345455 
L 249.983123 143.345455 
L 250.094383 108 
L 252.670579 108 
L 252.78184 143.345455 
L 263.420407 143.345455 
L 263.531668 108 
L 268.79532 108 
L 268.906581 143.345455 
L 271.482777 143.345455 
L 271.594038 108 
L 274.170234 108 
L 274.281495 143.345455 
L 279.545148 143.345455 
L 279.656409 108 
L 290.294975 108 
L 290.406236 143.345455 
L 295.669889 143.345455 
L 295.78115 108 
L 306.419716 108 
L 306.530977 143.345455 
L 311.79463 143.345455 
L 311.905891 108 
L 314.482087 108 
L 314.593348 143.345455 
L 322.544458 143.345455 
L 322.655718 108 
L 325.231914 108 
L 325.343175 143.345455 
L 327.919371 143.345455 
L 328.030632 108 
L 330.606828 108 
L 330.718089 143.345455 
L 333.294285 143.345455 
L 333.405546 108 
L 335.981742 108 
L 336.093003 143.345455 
L 341.356656 143.345455 
L 341.467916 108 
L 354.79394 108 
L 354.905201 143.345455 
L 357.481397 143.345455 
L 357.592657 108 
L 360.168854 108 
L 360.280114 143.345455 
L 362.85631 143.345455 
L 362.967571 108 
L 373.606138 108 
L 373.717399 143.345455 
L 376.293595 143.345455 
L 376.404855 108 
L 378.981052 108 
L 379.092312 143.345455 
L 389.730879 143.345455 
L 389.84214 108 
L 392.418336 108 
L 392.529596 143.345455 
L 395.105793 143.345455 
L 395.217053 108 
L 403.168163 108 
L 403.279424 143.345455 
L 405.85562 143.345455 
L 405.966881 108 
L 413.917991 108 
L 414.029251 143.345455 
L 430.042732 143.345455 
L 430.153992 108 
L 438.105102 108 
L 438.216363 143.345455 
L 440.792559 143.345455 
L 440.90382 108 
L 448.85493 108 
L 448.96619 143.345455 
L 454.229843 143.345455 
L 454.341104 108 
L 456.9173 108 
L 457.028561 143.345455 
L 459.604757 143.345455 
L 459.716018 108 
L 462.292214 108 
L 462.403475 143.345455 
L 470.354585 143.345455 
L 470.465845 108 
L 473.042041 108 
L 473.153302 143.345455 
L 475.729498 143.345455 
L 475.840759 108 
L 478.416955 108 
L 478.528216 143.345455 
L 483.791869 143.345455 
L 483.90313 108 
L 486.479326 108 
L 486.590586 143.345455 
L 489.166783 143.345455 
L 489.278043 108 
L 494.541696 108 
L 494.652957 143.345455 
L 499.91661 143.345455 
L 500.027871 108 
L 502.604067 108 
L 502.715328 143.345455 
L 505.291524 143.345455 
L 505.402784 108 
L 510.666437 108 
L 510.777698 143.345455 
L 513.353894 143.345455 
L 513.465155 108 
L 516.041351 108 
L 516.152612 143.345455 
L 521.416265 143.345455 
L 521.527525 108 
L 524.103722 108 
L 524.214982 143.345455 
L 526.791178 143.345455 
L 526.902439 108 
L 529.478635 108 
L 529.589896 143.345455 
L 534.853549 143.345455 
L 534.96481 108 
L 537.541006 108 
L 537.652267 143.345455 
L 540.228463 143.345455 
L 540.339723 108 
L 542.91592 108 
L 543.02718 143.345455 
L 545.603376 143.345455 
L 545.714637 108 
L 553.665747 108 
L 553.777008 143.345455 
L 556.353204 143.345455 
L 556.464465 108 
L 561.728118 108 
L 561.839378 143.345455 
L 567.103031 143.345455 
L 567.214292 108 
L 569.790488 108 
L 569.901749 143.345455 
L 577.852859 143.345455 
L 577.964119 108 
L 580.540316 108 
L 580.651576 143.345455 
L 583.227772 143.345455 
L 583.339033 108 
L 593.9776 108 
L 594.088861 143.345455 
L 596.665057 143.345455 
L 596.776317 108 
L 602.03997 108 
L 602.151231 143.345455 
L 620.852168 143.345455 
L 620.963429 108 
L 623.539625 108 
L 623.650886 143.345455 
L 626.227082 143.345455 
L 626.338343 108 
L 631.601996 108 
L 631.713257 143.345455 
L 639.664366 143.345455 
L 639.775627 108 
L 642.351823 108 
L 642.463084 143.345455 
L 645.03928 143.345455 
L 645.150541 108 
L 655.789107 108 
L 655.900368 143.345455 
L 658.476564 143.345455 
L 658.587825 108 
L 661.164021 108 
L 661.275282 143.345455 
L 666.538935 143.345455 
L 666.650196 108 
L 669.226392 108 
L 669.337652 143.345455 
L 677.288762 143.345455 
L 677.400023 108 
L 679.976219 108 
L 680.08748 143.345455 
L 682.663676 143.345455 
L 682.774937 108 
L 696.10096 108 
L 696.212221 143.345455 
L 698.788417 143.345455 
L 698.899678 108 
L 701.475874 108 
L 701.587135 143.345455 
L 709.538245 143.345455 
L 709.649505 108 
L 712.225701 108 
L 712.336962 143.345455 
L 714.913158 143.345455 
L 715.024419 108 
L 717.600615 108 
L 717.711876 143.345455 
L 720.288072 143.345455 
L 720.399333 108 
L 722.975529 108 
L 723.08679 143.345455 
L 725.662986 143.345455 
L 725.774246 108 
L 728.350443 108 
L 728.461703 143.345455 
L 731.037899 143.345455 
L 731.14916 108 
L 733.725356 108 
L 733.836617 143.345455 
L 739.10027 143.345455 
L 739.211531 108 
L 749.850097 108 
L 749.961358 143.345455 
L 776.724666 143.345455 
L 776.724666 143.345455 
" style="fill:none;stroke:#bc3754;stroke-linecap:square;stroke-width:1.5;"/>
   </g>
   <g id="line2d_7">
    <path clip-path="url(#p12bea8324d)" d="M 91.423706 161.018182 
L 123.67265 161.018182 
L 123.783911 125.672727 
L 139.797392 125.672727 
L 139.908652 161.018182 
L 145.172305 161.018182 
L 145.283566 125.672727 
L 147.859762 125.672727 
L 147.971023 161.018182 
L 150.547219 161.018182 
L 150.65848 125.672727 
L 155.922133 125.672727 
L 156.033393 161.018182 
L 169.359417 161.018182 
L 169.470678 125.672727 
L 174.734331 125.672727 
L 174.845591 161.018182 
L 177.421787 161.018182 
L 177.533048 125.672727 
L 180.109244 125.672727 
L 180.220505 161.018182 
L 182.796701 161.018182 
L 182.907962 125.672727 
L 185.484158 125.672727 
L 185.595419 161.018182 
L 190.859072 161.018182 
L 190.970332 125.672727 
L 193.546529 125.672727 
L 193.657789 161.018182 
L 201.608899 161.018182 
L 201.72016 125.672727 
L 209.67127 125.672727 
L 209.78253 161.018182 
L 212.358727 161.018182 
L 212.469987 125.672727 
L 220.421097 125.672727 
L 220.532358 161.018182 
L 223.108554 161.018182 
L 223.219815 125.672727 
L 228.483468 125.672727 
L 228.594728 161.018182 
L 231.170925 161.018182 
L 231.282185 125.672727 
L 233.858381 125.672727 
L 233.969642 161.018182 
L 236.545838 161.018182 
L 236.657099 125.672727 
L 239.233295 125.672727 
L 239.344556 161.018182 
L 241.920752 161.018182 
L 242.032013 125.672727 
L 247.295666 125.672727 
L 247.406926 161.018182 
L 252.670579 161.018182 
L 252.78184 125.672727 
L 255.358036 125.672727 
L 255.469297 161.018182 
L 258.045493 161.018182 
L 258.156754 125.672727 
L 260.73295 125.672727 
L 260.844211 161.018182 
L 263.420407 161.018182 
L 263.531668 125.672727 
L 266.107864 125.672727 
L 266.219124 161.018182 
L 274.170234 161.018182 
L 274.281495 125.672727 
L 276.857691 125.672727 
L 276.968952 161.018182 
L 282.232605 161.018182 
L 282.343865 125.672727 
L 284.920062 125.672727 
L 285.031322 161.018182 
L 287.607518 161.018182 
L 287.718779 125.672727 
L 290.294975 125.672727 
L 290.406236 161.018182 
L 292.982432 161.018182 
L 293.093693 125.672727 
L 303.73226 125.672727 
L 303.84352 161.018182 
L 306.419716 161.018182 
L 306.530977 125.672727 
L 309.107173 125.672727 
L 309.218434 161.018182 
L 319.857001 161.018182 
L 319.968261 125.672727 
L 325.231914 125.672727 
L 325.343175 161.018182 
L 327.919371 161.018182 
L 328.030632 125.672727 
L 333.294285 125.672727 
L 333.405546 161.018182 
L 335.981742 161.018182 
L 336.093003 125.672727 
L 338.669199 125.672727 
L 338.780459 161.018182 
L 341.356656 161.018182 
L 341.467916 125.672727 
L 344.044112 125.672727 
L 344.155373 161.018182 
L 346.731569 161.018182 
L 346.84283 125.672727 
L 349.419026 125.672727 
L 349.530287 161.018182 
L 354.79394 161.018182 
L 354.905201 125.672727 
L 357.481397 125.672727 
L 357.592657 161.018182 
L 368.231224 161.018182 
L 368.342485 125.672727 
L 370.918681 125.672727 
L 371.029942 161.018182 
L 373.606138 161.018182 
L 373.717399 125.672727 
L 376.293595 125.672727 
L 376.404855 161.018182 
L 387.043422 161.018182 
L 387.154683 125.672727 
L 389.730879 125.672727 
L 389.84214 161.018182 
L 392.418336 161.018182 
L 392.529596 125.672727 
L 403.168163 125.672727 
L 403.279424 161.018182 
L 405.85562 161.018182 
L 405.966881 125.672727 
L 408.543077 125.672727 
L 408.654338 161.018182 
L 416.605447 161.018182 
L 416.716708 125.672727 
L 419.292904 125.672727 
L 419.404165 161.018182 
L 427.355275 161.018182 
L 427.466536 125.672727 
L 438.105102 125.672727 
L 438.216363 161.018182 
L 443.480016 161.018182 
L 443.591277 125.672727 
L 451.542387 125.672727 
L 451.653647 161.018182 
L 454.229843 161.018182 
L 454.341104 125.672727 
L 462.292214 125.672727 
L 462.403475 161.018182 
L 467.667128 161.018182 
L 467.778388 125.672727 
L 470.354585 125.672727 
L 470.465845 161.018182 
L 473.042041 161.018182 
L 473.153302 125.672727 
L 475.729498 125.672727 
L 475.840759 161.018182 
L 478.416955 161.018182 
L 478.528216 125.672727 
L 483.791869 125.672727 
L 483.90313 161.018182 
L 486.479326 161.018182 
L 486.590586 125.672727 
L 489.166783 125.672727 
L 489.278043 161.018182 
L 491.854239 161.018182 
L 491.9655 125.672727 
L 497.229153 125.672727 
L 497.340414 161.018182 
L 499.91661 161.018182 
L 500.027871 125.672727 
L 502.604067 125.672727 
L 502.715328 161.018182 
L 507.978981 161.018182 
L 508.090241 125.672727 
L 510.666437 125.672727 
L 510.777698 161.018182 
L 513.353894 161.018182 
L 513.465155 125.672727 
L 516.041351 125.672727 
L 516.152612 161.018182 
L 518.728808 161.018182 
L 518.840069 125.672727 
L 524.103722 125.672727 
L 524.214982 161.018182 
L 526.791178 161.018182 
L 526.902439 125.672727 
L 529.478635 125.672727 
L 529.589896 161.018182 
L 534.853549 161.018182 
L 534.96481 125.672727 
L 537.541006 125.672727 
L 537.652267 161.018182 
L 540.228463 161.018182 
L 540.339723 125.672727 
L 542.91592 125.672727 
L 543.02718 161.018182 
L 548.290833 161.018182 
L 548.402094 125.672727 
L 550.97829 125.672727 
L 551.089551 161.018182 
L 553.665747 161.018182 
L 553.777008 125.672727 
L 556.353204 125.672727 
L 556.464465 161.018182 
L 559.040661 161.018182 
L 559.151921 125.672727 
L 567.103031 125.672727 
L 567.214292 161.018182 
L 569.790488 161.018182 
L 569.901749 125.672727 
L 575.165402 125.672727 
L 575.276663 161.018182 
L 580.540316 161.018182 
L 580.651576 125.672727 
L 583.227772 125.672727 
L 583.339033 161.018182 
L 588.602686 161.018182 
L 588.713947 125.672727 
L 591.290143 125.672727 
L 591.401404 161.018182 
L 593.9776 161.018182 
L 594.088861 125.672727 
L 596.665057 125.672727 
L 596.776317 161.018182 
L 607.414884 161.018182 
L 607.526145 125.672727 
L 610.102341 125.672727 
L 610.213602 161.018182 
L 615.477255 161.018182 
L 615.588515 125.672727 
L 620.852168 125.672727 
L 620.963429 161.018182 
L 626.227082 161.018182 
L 626.338343 125.672727 
L 634.289453 125.672727 
L 634.400713 161.018182 
L 636.97691 161.018182 
L 637.08817 125.672727 
L 639.664366 125.672727 
L 639.775627 161.018182 
L 645.03928 161.018182 
L 645.150541 125.672727 
L 647.726737 125.672727 
L 647.837998 161.018182 
L 653.101651 161.018182 
L 653.212911 125.672727 
L 655.789107 125.672727 
L 655.900368 161.018182 
L 658.476564 161.018182 
L 658.587825 125.672727 
L 666.538935 125.672727 
L 666.650196 161.018182 
L 669.226392 161.018182 
L 669.337652 125.672727 
L 671.913849 125.672727 
L 672.025109 161.018182 
L 674.601305 161.018182 
L 674.712566 125.672727 
L 679.976219 125.672727 
L 680.08748 161.018182 
L 682.663676 161.018182 
L 682.774937 125.672727 
L 690.726047 125.672727 
L 690.837307 161.018182 
L 693.413503 161.018182 
L 693.524764 125.672727 
L 696.10096 125.672727 
L 696.212221 161.018182 
L 704.163331 161.018182 
L 704.274592 125.672727 
L 709.538245 125.672727 
L 709.649505 161.018182 
L 712.225701 161.018182 
L 712.336962 125.672727 
L 714.913158 125.672727 
L 715.024419 161.018182 
L 722.975529 161.018182 
L 723.08679 125.672727 
L 725.662986 125.672727 
L 725.774246 161.018182 
L 728.350443 161.018182 
L 728.461703 125.672727 
L 731.037899 125.672727 
L 731.14916 161.018182 
L 733.725356 161.018182 
L 733.836617 125.672727 
L 736.412813 125.672727 
L 736.524074 161.018182 
L 739.10027 161.018182 
L 739.211531 125.672727 
L 741.787727 125.672727 
L 741.898988 161.018182 
L 744.475184 161.018182 
L 744.586444 125.672727 
L 747.162641 125.672727 
L 747.273901 161.018182 
L 752.537554 161.018182 
L 752.648815 125.672727 
L 763.287382 125.672727 
L 763.398642 161.018182 
L 790.16195 161.018182 
L 790.16195 161.018182 
" style="fill:none;stroke:#dd513a;stroke-linecap:square;stroke-width:1.5;"/>
   </g>
   <g id="line2d_8">
    <path clip-path="url(#p12bea8324d)" d="M 104.86099 178.690909 
L 134.422478 178.690909 
L 134.533739 143.345455 
L 137.109935 143.345455 
L 137.221195 178.690909 
L 147.859762 178.690909 
L 147.971023 143.345455 
L 150.547219 143.345455 
L 150.65848 178.690909 
L 153.234676 178.690909 
L 153.345936 143.345455 
L 158.609589 143.345455 
L 158.72085 178.690909 
L 161.297046 178.690909 
L 161.408307 143.345455 
L 163.984503 143.345455 
L 164.095764 178.690909 
L 169.359417 178.690909 
L 169.470678 143.345455 
L 174.734331 143.345455 
L 174.845591 178.690909 
L 177.421787 178.690909 
L 177.533048 143.345455 
L 182.796701 143.345455 
L 182.907962 178.690909 
L 188.171615 178.690909 
L 188.282876 143.345455 
L 190.859072 143.345455 
L 190.970332 178.690909 
L 193.546529 178.690909 
L 193.657789 143.345455 
L 196.233985 143.345455 
L 196.345246 178.690909 
L 198.921442 178.690909 
L 199.032703 143.345455 
L 204.296356 143.345455 
L 204.407617 178.690909 
L 206.983813 178.690909 
L 207.095074 143.345455 
L 215.046183 143.345455 
L 215.157444 178.690909 
L 220.421097 178.690909 
L 220.532358 143.345455 
L 223.108554 143.345455 
L 223.219815 178.690909 
L 225.796011 178.690909 
L 225.907272 143.345455 
L 228.483468 143.345455 
L 228.594728 178.690909 
L 233.858381 178.690909 
L 233.969642 143.345455 
L 236.545838 143.345455 
L 236.657099 178.690909 
L 241.920752 178.690909 
L 242.032013 143.345455 
L 244.608209 143.345455 
L 244.71947 178.690909 
L 247.295666 178.690909 
L 247.406926 143.345455 
L 249.983123 143.345455 
L 250.094383 178.690909 
L 252.670579 178.690909 
L 252.78184 143.345455 
L 255.358036 143.345455 
L 255.469297 178.690909 
L 258.045493 178.690909 
L 258.156754 143.345455 
L 260.73295 143.345455 
L 260.844211 178.690909 
L 266.107864 178.690909 
L 266.219124 143.345455 
L 268.79532 143.345455 
L 268.906581 178.690909 
L 271.482777 178.690909 
L 271.594038 143.345455 
L 274.170234 143.345455 
L 274.281495 178.690909 
L 276.857691 178.690909 
L 276.968952 143.345455 
L 279.545148 143.345455 
L 279.656409 178.690909 
L 287.607518 178.690909 
L 287.718779 143.345455 
L 290.294975 143.345455 
L 290.406236 178.690909 
L 295.669889 178.690909 
L 295.78115 143.345455 
L 298.357346 143.345455 
L 298.468607 178.690909 
L 301.044803 178.690909 
L 301.156063 143.345455 
L 303.73226 143.345455 
L 303.84352 178.690909 
L 306.419716 178.690909 
L 306.530977 143.345455 
L 314.482087 143.345455 
L 314.593348 178.690909 
L 317.169544 178.690909 
L 317.280805 143.345455 
L 319.857001 143.345455 
L 319.968261 178.690909 
L 322.544458 178.690909 
L 322.655718 143.345455 
L 325.231914 143.345455 
L 325.343175 178.690909 
L 330.606828 178.690909 
L 330.718089 143.345455 
L 333.294285 143.345455 
L 333.405546 178.690909 
L 338.669199 178.690909 
L 338.780459 143.345455 
L 341.356656 143.345455 
L 341.467916 178.690909 
L 346.731569 178.690909 
L 346.84283 143.345455 
L 349.419026 143.345455 
L 349.530287 178.690909 
L 352.106483 178.690909 
L 352.217744 143.345455 
L 354.79394 143.345455 
L 354.905201 178.690909 
L 357.481397 178.690909 
L 357.592657 143.345455 
L 360.168854 143.345455 
L 360.280114 178.690909 
L 362.85631 178.690909 
L 362.967571 143.345455 
L 368.231224 143.345455 
L 368.342485 178.690909 
L 370.918681 178.690909 
L 371.029942 143.345455 
L 376.293595 143.345455 
L 376.404855 178.690909 
L 381.668508 178.690909 
L 381.779769 143.345455 
L 384.355965 143.345455 
L 384.467226 178.690909 
L 387.043422 178.690909 
L 387.154683 143.345455 
L 389.730879 143.345455 
L 389.84214 178.690909 
L 400.480706 178.690909 
L 400.591967 143.345455 
L 403.168163 143.345455 
L 403.279424 178.690909 
L 405.85562 178.690909 
L 405.966881 143.345455 
L 411.230534 143.345455 
L 411.341794 178.690909 
L 416.605447 178.690909 
L 416.716708 143.345455 
L 419.292904 143.345455 
L 419.404165 178.690909 
L 421.980361 178.690909 
L 422.091622 143.345455 
L 424.667818 143.345455 
L 424.779079 178.690909 
L 430.042732 178.690909 
L 430.153992 143.345455 
L 432.730189 143.345455 
L 432.841449 178.690909 
L 438.105102 178.690909 
L 438.216363 143.345455 
L 440.792559 143.345455 
L 440.90382 178.690909 
L 451.542387 178.690909 
L 451.653647 143.345455 
L 454.229843 143.345455 
L 454.341104 178.690909 
L 456.9173 178.690909 
L 457.028561 143.345455 
L 462.292214 143.345455 
L 462.403475 178.690909 
L 464.979671 178.690909 
L 465.090932 143.345455 
L 467.667128 143.345455 
L 467.778388 178.690909 
L 470.354585 178.690909 
L 470.465845 143.345455 
L 475.729498 143.345455 
L 475.840759 178.690909 
L 481.104412 178.690909 
L 481.215673 143.345455 
L 483.791869 143.345455 
L 483.90313 178.690909 
L 486.479326 178.690909 
L 486.590586 143.345455 
L 489.166783 143.345455 
L 489.278043 178.690909 
L 491.854239 178.690909 
L 491.9655 143.345455 
L 494.541696 143.345455 
L 494.652957 178.690909 
L 497.229153 178.690909 
L 497.340414 143.345455 
L 499.91661 143.345455 
L 500.027871 178.690909 
L 502.604067 178.690909 
L 502.715328 143.345455 
L 505.291524 143.345455 
L 505.402784 178.690909 
L 510.666437 178.690909 
L 510.777698 143.345455 
L 513.353894 143.345455 
L 513.465155 178.690909 
L 516.041351 178.690909 
L 516.152612 143.345455 
L 521.416265 143.345455 
L 521.527525 178.690909 
L 524.103722 178.690909 
L 524.214982 143.345455 
L 526.791178 143.345455 
L 526.902439 178.690909 
L 529.478635 178.690909 
L 529.589896 143.345455 
L 532.166092 143.345455 
L 532.277353 178.690909 
L 534.853549 178.690909 
L 534.96481 143.345455 
L 537.541006 143.345455 
L 537.652267 178.690909 
L 540.228463 178.690909 
L 540.339723 143.345455 
L 542.91592 143.345455 
L 543.02718 178.690909 
L 548.290833 178.690909 
L 548.402094 143.345455 
L 550.97829 143.345455 
L 551.089551 178.690909 
L 553.665747 178.690909 
L 553.777008 143.345455 
L 556.353204 143.345455 
L 556.464465 178.690909 
L 561.728118 178.690909 
L 561.839378 143.345455 
L 564.415574 143.345455 
L 564.526835 178.690909 
L 567.103031 178.690909 
L 567.214292 143.345455 
L 569.790488 143.345455 
L 569.901749 178.690909 
L 572.477945 178.690909 
L 572.589206 143.345455 
L 580.540316 143.345455 
L 580.651576 178.690909 
L 583.227772 178.690909 
L 583.339033 143.345455 
L 588.602686 143.345455 
L 588.713947 178.690909 
L 591.290143 178.690909 
L 591.401404 143.345455 
L 593.9776 143.345455 
L 594.088861 178.690909 
L 596.665057 178.690909 
L 596.776317 143.345455 
L 602.03997 143.345455 
L 602.151231 178.690909 
L 604.727427 178.690909 
L 604.838688 143.345455 
L 607.414884 143.345455 
L 607.526145 178.690909 
L 610.102341 178.690909 
L 610.213602 143.345455 
L 620.852168 143.345455 
L 620.963429 178.690909 
L 623.539625 178.690909 
L 623.650886 143.345455 
L 628.914539 143.345455 
L 629.0258 178.690909 
L 631.601996 178.690909 
L 631.713257 143.345455 
L 634.289453 143.345455 
L 634.400713 178.690909 
L 636.97691 178.690909 
L 637.08817 143.345455 
L 639.664366 143.345455 
L 639.775627 178.690909 
L 647.726737 178.690909 
L 647.837998 143.345455 
L 650.414194 143.345455 
L 650.525454 178.690909 
L 653.101651 178.690909 
L 653.212911 143.345455 
L 658.476564 143.345455 
L 658.587825 178.690909 
L 661.164021 178.690909 
L 661.275282 143.345455 
L 666.538935 143.345455 
L 666.650196 178.690909 
L 669.226392 178.690909 
L 669.337652 143.345455 
L 671.913849 143.345455 
L 672.025109 178.690909 
L 677.288762 178.690909 
L 677.400023 143.345455 
L 679.976219 143.345455 
L 680.08748 178.690909 
L 682.663676 178.690909 
L 682.774937 143.345455 
L 685.351133 143.345455 
L 685.462394 178.690909 
L 688.03859 178.690909 
L 688.14985 143.345455 
L 690.726047 143.345455 
L 690.837307 178.690909 
L 693.413503 178.690909 
L 693.524764 143.345455 
L 696.10096 143.345455 
L 696.212221 178.690909 
L 704.163331 178.690909 
L 704.274592 143.345455 
L 706.850788 143.345455 
L 706.962048 178.690909 
L 709.538245 178.690909 
L 709.649505 143.345455 
L 714.913158 143.345455 
L 715.024419 178.690909 
L 717.600615 178.690909 
L 717.711876 143.345455 
L 722.975529 143.345455 
L 723.08679 178.690909 
L 725.662986 178.690909 
L 725.774246 143.345455 
L 728.350443 143.345455 
L 728.461703 178.690909 
L 733.725356 178.690909 
L 733.836617 143.345455 
L 736.412813 143.345455 
L 736.524074 178.690909 
L 739.10027 178.690909 
L 739.211531 143.345455 
L 741.787727 143.345455 
L 741.898988 178.690909 
L 744.475184 178.690909 
L 744.586444 143.345455 
L 747.162641 143.345455 
L 747.273901 178.690909 
L 749.850097 178.690909 
L 749.961358 143.345455 
L 752.537554 143.345455 
L 752.648815 178.690909 
L 755.225011 178.690909 
L 755.336272 143.345455 
L 757.912468 143.345455 
L 758.023729 178.690909 
L 760.599925 178.690909 
L 760.711186 143.345455 
L 765.974838 143.345455 
L 766.086099 178.690909 
L 768.662295 178.690909 
L 768.773556 143.345455 
L 771.349752 143.345455 
L 771.461013 178.690909 
L 803.599234 178.690909 
L 803.599234 178.690909 
" style="fill:none;stroke:#f37819;stroke-linecap:square;stroke-width:1.5;"/>
   </g>
   <g id="line2d_9">
    <path clip-path="url(#p12bea8324d)" d="M 118.298274 196.363636 
L 147.859762 196.363636 
L 147.971023 161.018182 
L 150.547219 161.018182 
L 150.65848 196.363636 
L 153.234676 196.363636 
L 153.345936 161.018182 
L 155.922133 161.018182 
L 156.033393 196.363636 
L 158.609589 196.363636 
L 158.72085 161.018182 
L 161.297046 161.018182 
L 161.408307 196.363636 
L 163.984503 196.363636 
L 164.095764 161.018182 
L 166.67196 161.018182 
L 166.783221 196.363636 
L 172.046874 196.363636 
L 172.158134 161.018182 
L 174.734331 161.018182 
L 174.845591 196.363636 
L 177.421787 196.363636 
L 177.533048 161.018182 
L 180.109244 161.018182 
L 180.220505 196.363636 
L 182.796701 196.363636 
L 182.907962 161.018182 
L 188.171615 161.018182 
L 188.282876 196.363636 
L 190.859072 196.363636 
L 190.970332 161.018182 
L 193.546529 161.018182 
L 193.657789 196.363636 
L 196.233985 196.363636 
L 196.345246 161.018182 
L 201.608899 161.018182 
L 201.72016 196.363636 
L 204.296356 196.363636 
L 204.407617 161.018182 
L 206.983813 161.018182 
L 207.095074 196.363636 
L 209.67127 196.363636 
L 209.78253 161.018182 
L 212.358727 161.018182 
L 212.469987 196.363636 
L 217.73364 196.363636 
L 217.844901 161.018182 
L 220.421097 161.018182 
L 220.532358 196.363636 
L 223.108554 196.363636 
L 223.219815 161.018182 
L 228.483468 161.018182 
L 228.594728 196.363636 
L 231.170925 196.363636 
L 231.282185 161.018182 
L 233.858381 161.018182 
L 233.969642 196.363636 
L 236.545838 196.363636 
L 236.657099 161.018182 
L 239.233295 161.018182 
L 239.344556 196.363636 
L 241.920752 196.363636 
L 242.032013 161.018182 
L 247.295666 161.018182 
L 247.406926 196.363636 
L 249.983123 196.363636 
L 250.094383 161.018182 
L 255.358036 161.018182 
L 255.469297 196.363636 
L 258.045493 196.363636 
L 258.156754 161.018182 
L 260.73295 161.018182 
L 260.844211 196.363636 
L 263.420407 196.363636 
L 263.531668 161.018182 
L 266.107864 161.018182 
L 266.219124 196.363636 
L 268.79532 196.363636 
L 268.906581 161.018182 
L 271.482777 161.018182 
L 271.594038 196.363636 
L 274.170234 196.363636 
L 274.281495 161.018182 
L 279.545148 161.018182 
L 279.656409 196.363636 
L 282.232605 196.363636 
L 282.343865 161.018182 
L 284.920062 161.018182 
L 285.031322 196.363636 
L 287.607518 196.363636 
L 287.718779 161.018182 
L 290.294975 161.018182 
L 290.406236 196.363636 
L 292.982432 196.363636 
L 293.093693 161.018182 
L 295.669889 161.018182 
L 295.78115 196.363636 
L 298.357346 196.363636 
L 298.468607 161.018182 
L 301.044803 161.018182 
L 301.156063 196.363636 
L 303.73226 196.363636 
L 303.84352 161.018182 
L 309.107173 161.018182 
L 309.218434 196.363636 
L 311.79463 196.363636 
L 311.905891 161.018182 
L 314.482087 161.018182 
L 314.593348 196.363636 
L 317.169544 196.363636 
L 317.280805 161.018182 
L 319.857001 161.018182 
L 319.968261 196.363636 
L 322.544458 196.363636 
L 322.655718 161.018182 
L 327.919371 161.018182 
L 328.030632 196.363636 
L 330.606828 196.363636 
L 330.718089 161.018182 
L 333.294285 161.018182 
L 333.405546 196.363636 
L 335.981742 196.363636 
L 336.093003 161.018182 
L 338.669199 161.018182 
L 338.780459 196.363636 
L 341.356656 196.363636 
L 341.467916 161.018182 
L 344.044112 161.018182 
L 344.155373 196.363636 
L 346.731569 196.363636 
L 346.84283 161.018182 
L 352.106483 161.018182 
L 352.217744 196.363636 
L 354.79394 196.363636 
L 354.905201 161.018182 
L 357.481397 161.018182 
L 357.592657 196.363636 
L 360.168854 196.363636 
L 360.280114 161.018182 
L 362.85631 161.018182 
L 362.967571 196.363636 
L 365.543767 196.363636 
L 365.655028 161.018182 
L 368.231224 161.018182 
L 368.342485 196.363636 
L 370.918681 196.363636 
L 371.029942 161.018182 
L 373.606138 161.018182 
L 373.717399 196.363636 
L 376.293595 196.363636 
L 376.404855 161.018182 
L 381.668508 161.018182 
L 381.779769 196.363636 
L 384.355965 196.363636 
L 384.467226 161.018182 
L 389.730879 161.018182 
L 389.84214 196.363636 
L 392.418336 196.363636 
L 392.529596 161.018182 
L 395.105793 161.018182 
L 395.217053 196.363636 
L 397.793249 196.363636 
L 397.90451 161.018182 
L 400.480706 161.018182 
L 400.591967 196.363636 
L 403.168163 196.363636 
L 403.279424 161.018182 
L 411.230534 161.018182 
L 411.341794 196.363636 
L 413.917991 196.363636 
L 414.029251 161.018182 
L 416.605447 161.018182 
L 416.716708 196.363636 
L 419.292904 196.363636 
L 419.404165 161.018182 
L 421.980361 161.018182 
L 422.091622 196.363636 
L 424.667818 196.363636 
L 424.779079 161.018182 
L 430.042732 161.018182 
L 430.153992 196.363636 
L 432.730189 196.363636 
L 432.841449 161.018182 
L 435.417645 161.018182 
L 435.528906 196.363636 
L 438.105102 196.363636 
L 438.216363 161.018182 
L 443.480016 161.018182 
L 443.591277 196.363636 
L 446.167473 196.363636 
L 446.278734 161.018182 
L 448.85493 161.018182 
L 448.96619 196.363636 
L 451.542387 196.363636 
L 451.653647 161.018182 
L 454.229843 161.018182 
L 454.341104 196.363636 
L 456.9173 196.363636 
L 457.028561 161.018182 
L 459.604757 161.018182 
L 459.716018 196.363636 
L 462.292214 196.363636 
L 462.403475 161.018182 
L 464.979671 161.018182 
L 465.090932 196.363636 
L 467.667128 196.363636 
L 467.778388 161.018182 
L 470.354585 161.018182 
L 470.465845 196.363636 
L 473.042041 196.363636 
L 473.153302 161.018182 
L 475.729498 161.018182 
L 475.840759 196.363636 
L 478.416955 196.363636 
L 478.528216 161.018182 
L 481.104412 161.018182 
L 481.215673 196.363636 
L 483.791869 196.363636 
L 483.90313 161.018182 
L 489.166783 161.018182 
L 489.278043 196.363636 
L 494.541696 196.363636 
L 494.652957 161.018182 
L 497.229153 161.018182 
L 497.340414 196.363636 
L 499.91661 196.363636 
L 500.027871 161.018182 
L 502.604067 161.018182 
L 502.715328 196.363636 
L 505.291524 196.363636 
L 505.402784 161.018182 
L 507.978981 161.018182 
L 508.090241 196.363636 
L 510.666437 196.363636 
L 510.777698 161.018182 
L 513.353894 161.018182 
L 513.465155 196.363636 
L 516.041351 196.363636 
L 516.152612 161.018182 
L 518.728808 161.018182 
L 518.840069 196.363636 
L 521.416265 196.363636 
L 521.527525 161.018182 
L 524.103722 161.018182 
L 524.214982 196.363636 
L 526.791178 196.363636 
L 526.902439 161.018182 
L 529.478635 161.018182 
L 529.589896 196.363636 
L 534.853549 196.363636 
L 534.96481 161.018182 
L 537.541006 161.018182 
L 537.652267 196.363636 
L 540.228463 196.363636 
L 540.339723 161.018182 
L 542.91592 161.018182 
L 543.02718 196.363636 
L 545.603376 196.363636 
L 545.714637 161.018182 
L 548.290833 161.018182 
L 548.402094 196.363636 
L 550.97829 196.363636 
L 551.089551 161.018182 
L 553.665747 161.018182 
L 553.777008 196.363636 
L 556.353204 196.363636 
L 556.464465 161.018182 
L 561.728118 161.018182 
L 561.839378 196.363636 
L 564.415574 196.363636 
L 564.526835 161.018182 
L 567.103031 161.018182 
L 567.214292 196.363636 
L 569.790488 196.363636 
L 569.901749 161.018182 
L 572.477945 161.018182 
L 572.589206 196.363636 
L 575.165402 196.363636 
L 575.276663 161.018182 
L 577.852859 161.018182 
L 577.964119 196.363636 
L 580.540316 196.363636 
L 580.651576 161.018182 
L 583.227772 161.018182 
L 583.339033 196.363636 
L 585.915229 196.363636 
L 586.02649 161.018182 
L 588.602686 161.018182 
L 588.713947 196.363636 
L 591.290143 196.363636 
L 591.401404 161.018182 
L 593.9776 161.018182 
L 594.088861 196.363636 
L 596.665057 196.363636 
L 596.776317 161.018182 
L 599.352514 161.018182 
L 599.463774 196.363636 
L 602.03997 196.363636 
L 602.151231 161.018182 
L 604.727427 161.018182 
L 604.838688 196.363636 
L 607.414884 196.363636 
L 607.526145 161.018182 
L 610.102341 161.018182 
L 610.213602 196.363636 
L 612.789798 196.363636 
L 612.901059 161.018182 
L 615.477255 161.018182 
L 615.588515 196.363636 
L 618.164712 196.363636 
L 618.275972 161.018182 
L 620.852168 161.018182 
L 620.963429 196.363636 
L 623.539625 196.363636 
L 623.650886 161.018182 
L 628.914539 161.018182 
L 629.0258 196.363636 
L 631.601996 196.363636 
L 631.713257 161.018182 
L 634.289453 161.018182 
L 634.400713 196.363636 
L 636.97691 196.363636 
L 637.08817 161.018182 
L 642.351823 161.018182 
L 642.463084 196.363636 
L 645.03928 196.363636 
L 645.150541 161.018182 
L 647.726737 161.018182 
L 647.837998 196.363636 
L 650.414194 196.363636 
L 650.525454 161.018182 
L 653.101651 161.018182 
L 653.212911 196.363636 
L 661.164021 196.363636 
L 661.275282 161.018182 
L 663.851478 161.018182 
L 663.962739 196.363636 
L 666.538935 196.363636 
L 666.650196 161.018182 
L 669.226392 161.018182 
L 669.337652 196.363636 
L 671.913849 196.363636 
L 672.025109 161.018182 
L 674.601305 161.018182 
L 674.712566 196.363636 
L 679.976219 196.363636 
L 680.08748 161.018182 
L 682.663676 161.018182 
L 682.774937 196.363636 
L 685.351133 196.363636 
L 685.462394 161.018182 
L 688.03859 161.018182 
L 688.14985 196.363636 
L 690.726047 196.363636 
L 690.837307 161.018182 
L 693.413503 161.018182 
L 693.524764 196.363636 
L 696.10096 196.363636 
L 696.212221 161.018182 
L 698.788417 161.018182 
L 698.899678 196.363636 
L 701.475874 196.363636 
L 701.587135 161.018182 
L 704.163331 161.018182 
L 704.274592 196.363636 
L 706.850788 196.363636 
L 706.962048 161.018182 
L 709.538245 161.018182 
L 709.649505 196.363636 
L 712.225701 196.363636 
L 712.336962 161.018182 
L 714.913158 161.018182 
L 715.024419 196.363636 
L 717.600615 196.363636 
L 717.711876 161.018182 
L 720.288072 161.018182 
L 720.399333 196.363636 
L 722.975529 196.363636 
L 723.08679 161.018182 
L 725.662986 161.018182 
L 725.774246 196.363636 
L 728.350443 196.363636 
L 728.461703 161.018182 
L 731.037899 161.018182 
L 731.14916 196.363636 
L 733.725356 196.363636 
L 733.836617 161.018182 
L 736.412813 161.018182 
L 736.524074 196.363636 
L 739.10027 196.363636 
L 739.211531 161.018182 
L 741.787727 161.018182 
L 741.898988 196.363636 
L 744.475184 196.363636 
L 744.586444 161.018182 
L 747.162641 161.018182 
L 747.273901 196.363636 
L 749.850097 196.363636 
L 749.961358 161.018182 
L 752.537554 161.018182 
L 752.648815 196.363636 
L 755.225011 196.363636 
L 755.336272 161.018182 
L 757.912468 161.018182 
L 758.023729 196.363636 
L 760.599925 196.363636 
L 760.711186 161.018182 
L 763.287382 161.018182 
L 763.398642 196.363636 
L 765.974838 196.363636 
L 766.086099 161.018182 
L 768.662295 161.018182 
L 768.773556 196.363636 
L 771.349752 196.363636 
L 771.461013 161.018182 
L 774.037209 161.018182 
L 774.14847 196.363636 
L 776.724666 196.363636 
L 776.835927 161.018182 
L 779.412123 161.018182 
L 779.523383 196.363636 
L 782.09958 196.363636 
L 782.21084 161.018182 
L 784.787036 161.018182 
L 784.898297 196.363636 
L 817.036519 196.363636 
L 817.036519 196.363636 
" style="fill:none;stroke:#fca50a;stroke-linecap:square;stroke-width:1.5;"/>
   </g>
   <g id="text_1">
    <!-- 0.1 -->
    <g style="fill:#000004;" transform="translate(714.913696 54.981818)scale(0.16 -0.16)">
     <defs>
      <path d="M 31.78125 66.40625 
Q 24.171875 66.40625 20.328125 58.90625 
Q 16.5 51.421875 16.5 36.375 
Q 16.5 21.390625 20.328125 13.890625 
Q 24.171875 6.390625 31.78125 6.390625 
Q 39.453125 6.390625 43.28125 13.890625 
Q 47.125 21.390625 47.125 36.375 
Q 47.125 51.421875 43.28125 58.90625 
Q 39.453125 66.40625 31.78125 66.40625 
z
M 31.78125 74.21875 
Q 44.046875 74.21875 50.515625 64.515625 
Q 56.984375 54.828125 56.984375 36.375 
Q 56.984375 17.96875 50.515625 8.265625 
Q 44.046875 -1.421875 31.78125 -1.421875 
Q 19.53125 -1.421875 13.0625 8.265625 
Q 6.59375 17.96875 6.59375 36.375 
Q 6.59375 54.828125 13.0625 64.515625 
Q 19.53125 74.21875 31.78125 74.21875 
z
" id="DejaVuSans-48"/>
      <path d="M 10.6875 12.40625 
L 21 12.40625 
L 21 0 
L 10.6875 0 
z
" id="DejaVuSans-46"/>
      <path d="M 12.40625 8.296875 
L 28.515625 8.296875 
L 28.515625 63.921875 
L 10.984375 60.40625 
L 10.984375 69.390625 
L 28.421875 72.90625 
L 38.28125 72.90625 
L 38.28125 8.296875 
L 54.390625 8.296875 
L 54.390625 0 
L 12.40625 0 
z
" id="DejaVuSans-49"/>
     </defs>
     <use xlink:href="#DejaVuSans-48"/>
     <use x="63.623047" xlink:href="#DejaVuSans-46"/>
     <use x="95.410156" xlink:href="#DejaVuSans-49"/>
    </g>
   </g>
   <g id="text_2">
    <!-- 0.2 -->
    <g style="fill:#160b39;" transform="translate(728.35098 72.654545)scale(0.16 -0.16)">
     <defs>
      <path d="M 19.1875 8.296875 
L 53.609375 8.296875 
L 53.609375 0 
L 7.328125 0 
L 7.328125 8.296875 
Q 12.9375 14.109375 22.625 23.890625 
Q 32.328125 33.6875 34.8125 36.53125 
Q 39.546875 41.84375 41.421875 45.53125 
Q 43.3125 49.21875 43.3125 52.78125 
Q 43.3125 58.59375 39.234375 62.25 
Q 35.15625 65.921875 28.609375 65.921875 
Q 23.96875 65.921875 18.8125 64.3125 
Q 13.671875 62.703125 7.8125 59.421875 
L 7.8125 69.390625 
Q 13.765625 71.78125 18.9375 73 
Q 24.125 74.21875 28.421875 74.21875 
Q 39.75 74.21875 46.484375 68.546875 
Q 53.21875 62.890625 53.21875 53.421875 
Q 53.21875 48.921875 51.53125 44.890625 
Q 49.859375 40.875 45.40625 35.40625 
Q 44.1875 33.984375 37.640625 27.21875 
Q 31.109375 20.453125 19.1875 8.296875 
z
" id="DejaVuSans-50"/>
     </defs>
     <use xlink:href="#DejaVuSans-48"/>
     <use x="63.623047" xlink:href="#DejaVuSans-46"/>
     <use x="95.410156" xlink:href="#DejaVuSans-50"/>
    </g>
   </g>
   <g id="text_3">
    <!-- 0.3 -->
    <g style="fill:#420a68;" transform="translate(741.788264 90.327273)scale(0.16 -0.16)">
     <defs>
      <path d="M 40.578125 39.3125 
Q 47.65625 37.796875 51.625 33 
Q 55.609375 28.21875 55.609375 21.1875 
Q 55.609375 10.40625 48.1875 4.484375 
Q 40.765625 -1.421875 27.09375 -1.421875 
Q 22.515625 -1.421875 17.65625 -0.515625 
Q 12.796875 0.390625 7.625 2.203125 
L 7.625 11.71875 
Q 11.71875 9.328125 16.59375 8.109375 
Q 21.484375 6.890625 26.8125 6.890625 
Q 36.078125 6.890625 40.9375 10.546875 
Q 45.796875 14.203125 45.796875 21.1875 
Q 45.796875 27.640625 41.28125 31.265625 
Q 36.765625 34.90625 28.71875 34.90625 
L 20.21875 34.90625 
L 20.21875 43.015625 
L 29.109375 43.015625 
Q 36.375 43.015625 40.234375 45.921875 
Q 44.09375 48.828125 44.09375 54.296875 
Q 44.09375 59.90625 40.109375 62.90625 
Q 36.140625 65.921875 28.71875 65.921875 
Q 24.65625 65.921875 20.015625 65.03125 
Q 15.375 64.15625 9.8125 62.3125 
L 9.8125 71.09375 
Q 15.4375 72.65625 20.34375 73.4375 
Q 25.25 74.21875 29.59375 74.21875 
Q 40.828125 74.21875 47.359375 69.109375 
Q 53.90625 64.015625 53.90625 55.328125 
Q 53.90625 49.265625 50.4375 45.09375 
Q 46.96875 40.921875 40.578125 39.3125 
z
" id="DejaVuSans-51"/>
     </defs>
     <use xlink:href="#DejaVuSans-48"/>
     <use x="63.623047" xlink:href="#DejaVuSans-46"/>
     <use x="95.410156" xlink:href="#DejaVuSans-51"/>
    </g>
   </g>
   <g id="text_4">
    <!-- 0.4 -->
    <g style="fill:#6a176e;" transform="translate(755.225549 108)scale(0.16 -0.16)">
     <defs>
      <path d="M 37.796875 64.3125 
L 12.890625 25.390625 
L 37.796875 25.390625 
z
M 35.203125 72.90625 
L 47.609375 72.90625 
L 47.609375 25.390625 
L 58.015625 25.390625 
L 58.015625 17.1875 
L 47.609375 17.1875 
L 47.609375 0 
L 37.796875 0 
L 37.796875 17.1875 
L 4.890625 17.1875 
L 4.890625 26.703125 
z
" id="DejaVuSans-52"/>
     </defs>
     <use xlink:href="#DejaVuSans-48"/>
     <use x="63.623047" xlink:href="#DejaVuSans-46"/>
     <use x="95.410156" xlink:href="#DejaVuSans-52"/>
    </g>
   </g>
   <g id="text_5">
    <!-- 0.5 -->
    <g style="fill:#932667;" transform="translate(768.662833 125.672727)scale(0.16 -0.16)">
     <defs>
      <path d="M 10.796875 72.90625 
L 49.515625 72.90625 
L 49.515625 64.59375 
L 19.828125 64.59375 
L 19.828125 46.734375 
Q 21.96875 47.46875 24.109375 47.828125 
Q 26.265625 48.1875 28.421875 48.1875 
Q 40.625 48.1875 47.75 41.5 
Q 54.890625 34.8125 54.890625 23.390625 
Q 54.890625 11.625 47.5625 5.09375 
Q 40.234375 -1.421875 26.90625 -1.421875 
Q 22.3125 -1.421875 17.546875 -0.640625 
Q 12.796875 0.140625 7.71875 1.703125 
L 7.71875 11.625 
Q 12.109375 9.234375 16.796875 8.0625 
Q 21.484375 6.890625 26.703125 6.890625 
Q 35.15625 6.890625 40.078125 11.328125 
Q 45.015625 15.765625 45.015625 23.390625 
Q 45.015625 31 40.078125 35.4375 
Q 35.15625 39.890625 26.703125 39.890625 
Q 22.75 39.890625 18.8125 39.015625 
Q 14.890625 38.140625 10.796875 36.28125 
z
" id="DejaVuSans-53"/>
     </defs>
     <use xlink:href="#DejaVuSans-48"/>
     <use x="63.623047" xlink:href="#DejaVuSans-46"/>
     <use x="95.410156" xlink:href="#DejaVuSans-53"/>
    </g>
   </g>
   <g id="text_6">
    <!-- 0.6 -->
    <g style="fill:#bc3754;" transform="translate(782.100117 143.345455)scale(0.16 -0.16)">
     <defs>
      <path d="M 33.015625 40.375 
Q 26.375 40.375 22.484375 35.828125 
Q 18.609375 31.296875 18.609375 23.390625 
Q 18.609375 15.53125 22.484375 10.953125 
Q 26.375 6.390625 33.015625 6.390625 
Q 39.65625 6.390625 43.53125 10.953125 
Q 47.40625 15.53125 47.40625 23.390625 
Q 47.40625 31.296875 43.53125 35.828125 
Q 39.65625 40.375 33.015625 40.375 
z
M 52.59375 71.296875 
L 52.59375 62.3125 
Q 48.875 64.0625 45.09375 64.984375 
Q 41.3125 65.921875 37.59375 65.921875 
Q 27.828125 65.921875 22.671875 59.328125 
Q 17.53125 52.734375 16.796875 39.40625 
Q 19.671875 43.65625 24.015625 45.921875 
Q 28.375 48.1875 33.59375 48.1875 
Q 44.578125 48.1875 50.953125 41.515625 
Q 57.328125 34.859375 57.328125 23.390625 
Q 57.328125 12.15625 50.6875 5.359375 
Q 44.046875 -1.421875 33.015625 -1.421875 
Q 20.359375 -1.421875 13.671875 8.265625 
Q 6.984375 17.96875 6.984375 36.375 
Q 6.984375 53.65625 15.1875 63.9375 
Q 23.390625 74.21875 37.203125 74.21875 
Q 40.921875 74.21875 44.703125 73.484375 
Q 48.484375 72.75 52.59375 71.296875 
z
" id="DejaVuSans-54"/>
     </defs>
     <use xlink:href="#DejaVuSans-48"/>
     <use x="63.623047" xlink:href="#DejaVuSans-46"/>
     <use x="95.410156" xlink:href="#DejaVuSans-54"/>
    </g>
   </g>
   <g id="text_7">
    <!-- 0.7 -->
    <g style="fill:#dd513a;" transform="translate(795.537401 161.018182)scale(0.16 -0.16)">
     <defs>
      <path d="M 8.203125 72.90625 
L 55.078125 72.90625 
L 55.078125 68.703125 
L 28.609375 0 
L 18.3125 0 
L 43.21875 64.59375 
L 8.203125 64.59375 
z
" id="DejaVuSans-55"/>
     </defs>
     <use xlink:href="#DejaVuSans-48"/>
     <use x="63.623047" xlink:href="#DejaVuSans-46"/>
     <use x="95.410156" xlink:href="#DejaVuSans-55"/>
    </g>
   </g>
   <g id="text_8">
    <!-- 0.8 -->
    <g style="fill:#f37819;" transform="translate(808.974686 178.690909)scale(0.16 -0.16)">
     <defs>
      <path d="M 31.78125 34.625 
Q 24.75 34.625 20.71875 30.859375 
Q 16.703125 27.09375 16.703125 20.515625 
Q 16.703125 13.921875 20.71875 10.15625 
Q 24.75 6.390625 31.78125 6.390625 
Q 38.8125 6.390625 42.859375 10.171875 
Q 46.921875 13.96875 46.921875 20.515625 
Q 46.921875 27.09375 42.890625 30.859375 
Q 38.875 34.625 31.78125 34.625 
z
M 21.921875 38.8125 
Q 15.578125 40.375 12.03125 44.71875 
Q 8.5 49.078125 8.5 55.328125 
Q 8.5 64.0625 14.71875 69.140625 
Q 20.953125 74.21875 31.78125 74.21875 
Q 42.671875 74.21875 48.875 69.140625 
Q 55.078125 64.0625 55.078125 55.328125 
Q 55.078125 49.078125 51.53125 44.71875 
Q 48 40.375 41.703125 38.8125 
Q 48.828125 37.15625 52.796875 32.3125 
Q 56.78125 27.484375 56.78125 20.515625 
Q 56.78125 9.90625 50.3125 4.234375 
Q 43.84375 -1.421875 31.78125 -1.421875 
Q 19.734375 -1.421875 13.25 4.234375 
Q 6.78125 9.90625 6.78125 20.515625 
Q 6.78125 27.484375 10.78125 32.3125 
Q 14.796875 37.15625 21.921875 38.8125 
z
M 18.3125 54.390625 
Q 18.3125 48.734375 21.84375 45.5625 
Q 25.390625 42.390625 31.78125 42.390625 
Q 38.140625 42.390625 41.71875 45.5625 
Q 45.3125 48.734375 45.3125 54.390625 
Q 45.3125 60.0625 41.71875 63.234375 
Q 38.140625 66.40625 31.78125 66.40625 
Q 25.390625 66.40625 21.84375 63.234375 
Q 18.3125 60.0625 18.3125 54.390625 
z
" id="DejaVuSans-56"/>
     </defs>
     <use xlink:href="#DejaVuSans-48"/>
     <use x="63.623047" xlink:href="#DejaVuSans-46"/>
     <use x="95.410156" xlink:href="#DejaVuSans-56"/>
    </g>
   </g>
   <g id="text_9">
    <!-- 0.9 -->
    <g style="fill:#fca50a;" transform="translate(822.41197 196.363636)scale(0.16 -0.16)">
     <defs>
      <path d="M 10.984375 1.515625 
L 10.984375 10.5 
Q 14.703125 8.734375 18.5 7.8125 
Q 22.3125 6.890625 25.984375 6.890625 
Q 35.75 6.890625 40.890625 13.453125 
Q 46.046875 20.015625 46.78125 33.40625 
Q 43.953125 29.203125 39.59375 26.953125 
Q 35.25 24.703125 29.984375 24.703125 
Q 19.046875 24.703125 12.671875 31.3125 
Q 6.296875 37.9375 6.296875 49.421875 
Q 6.296875 60.640625 12.9375 67.421875 
Q 19.578125 74.21875 30.609375 74.21875 
Q 43.265625 74.21875 49.921875 64.515625 
Q 56.59375 54.828125 56.59375 36.375 
Q 56.59375 19.140625 48.40625 8.859375 
Q 40.234375 -1.421875 26.421875 -1.421875 
Q 22.703125 -1.421875 18.890625 -0.6875 
Q 15.09375 0.046875 10.984375 1.515625 
z
M 30.609375 32.421875 
Q 37.25 32.421875 41.125 36.953125 
Q 45.015625 41.5 45.015625 49.421875 
Q 45.015625 57.28125 41.125 61.84375 
Q 37.25 66.40625 30.609375 66.40625 
Q 23.96875 66.40625 20.09375 61.84375 
Q 16.21875 57.28125 16.21875 49.421875 
Q 16.21875 41.5 20.09375 36.953125 
Q 23.96875 32.421875 30.609375 32.421875 
z
" id="DejaVuSans-57"/>
     </defs>
     <use xlink:href="#DejaVuSans-48"/>
     <use x="63.623047" xlink:href="#DejaVuSans-46"/>
     <use x="95.410156" xlink:href="#DejaVuSans-57"/>
    </g>
   </g>
   <g id="text_10">
    <!-- 0.5 s -->
    <g transform="translate(37.674569 196.363636)scale(0.16 -0.16)">
     <defs>
      <path id="DejaVuSans-32"/>
      <path d="M 44.28125 53.078125 
L 44.28125 44.578125 
Q 40.484375 46.53125 36.375 47.5 
Q 32.28125 48.484375 27.875 48.484375 
Q 21.1875 48.484375 17.84375 46.4375 
Q 14.5 44.390625 14.5 40.28125 
Q 14.5 37.15625 16.890625 35.375 
Q 19.28125 33.59375 26.515625 31.984375 
L 29.59375 31.296875 
Q 39.15625 29.25 43.1875 25.515625 
Q 47.21875 21.78125 47.21875 15.09375 
Q 47.21875 7.46875 41.1875 3.015625 
Q 35.15625 -1.421875 24.609375 -1.421875 
Q 20.21875 -1.421875 15.453125 -0.5625 
Q 10.6875 0.296875 5.421875 2 
L 5.421875 11.28125 
Q 10.40625 8.6875 15.234375 7.390625 
Q 20.0625 6.109375 24.8125 6.109375 
Q 31.15625 6.109375 34.5625 8.28125 
Q 37.984375 10.453125 37.984375 14.40625 
Q 37.984375 18.0625 35.515625 20.015625 
Q 33.0625 21.96875 24.703125 23.78125 
L 21.578125 24.515625 
Q 13.234375 26.265625 9.515625 29.90625 
Q 5.8125 33.546875 5.8125 39.890625 
Q 5.8125 47.609375 11.28125 51.796875 
Q 16.75 56 26.8125 56 
Q 31.78125 56 36.171875 55.265625 
Q 40.578125 54.546875 44.28125 53.078125 
z
" id="DejaVuSans-115"/>
     </defs>
     <use xlink:href="#DejaVuSans-48"/>
     <use x="63.623047" xlink:href="#DejaVuSans-46"/>
     <use x="95.410156" xlink:href="#DejaVuSans-53"/>
     <use x="159.033203" xlink:href="#DejaVuSans-32"/>
     <use x="190.820312" xlink:href="#DejaVuSans-115"/>
    </g>
   </g>
  </g>
 </g>
 <defs>
  <clipPath id="p12bea8324d">
   <rect height="194.4" width="838.486538" x="10.8" y="10.8"/>
  </clipPath>
 </defs>
</svg>
