<?xml version="1.0" encoding="utf-8" standalone="no"?>
<!DOCTYPE svg PUBLIC "-//W3C//DTD SVG 1.1//EN"
  "http://www.w3.org/Graphics/SVG/1.1/DTD/svg11.dtd">
<!-- Created with matplotlib (https://matplotlib.org/) -->
<svg height="288pt" version="1.1" viewBox="0 0 432 288" width="432pt" xmlns="http://www.w3.org/2000/svg" xmlns:xlink="http://www.w3.org/1999/xlink">
 <metadata>
  <rdf:RDF xmlns:cc="http://creativecommons.org/ns#" xmlns:dc="http://purl.org/dc/elements/1.1/" xmlns:rdf="http://www.w3.org/1999/02/22-rdf-syntax-ns#">
   <cc:Work>
    <dc:type rdf:resource="http://purl.org/dc/dcmitype/StillImage"/>
    <dc:date>2021-10-25T12:58:39.750338</dc:date>
    <dc:format>image/svg+xml</dc:format>
    <dc:creator>
     <cc:Agent>
      <dc:title>Matplotlib v3.3.4, https://matplotlib.org/</dc:title>
     </cc:Agent>
    </dc:creator>
   </cc:Work>
  </rdf:RDF>
 </metadata>
 <defs>
  <style type="text/css">*{stroke-linecap:butt;stroke-linejoin:round;}</style>
 </defs>
 <g id="figure_1">
  <g id="patch_1">
   <path d="M 0 288 
L 432 288 
L 432 0 
L 0 0 
z
" style="fill:none;"/>
  </g>
  <g id="axes_1">
   <g id="patch_2">
    <path d="M 54 252 
L 388.8 252 
L 388.8 34.56 
L 54 34.56 
z
" style="fill:#ffffff;"/>
   </g>
   <g id="patch_3">
    <path clip-path="url(#pba48dcfdd7)" d="M 64.827574 134.208717 
L 78.789447 134.208717 
L 78.789447 117.865998 
L 64.827574 117.865998 
L 64.827574 134.208717 
z
" style="fill:#d3d3d3;stroke:#4d4d4d;stroke-linejoin:miter;stroke-width:1.5;"/>
   </g>
   <g id="patch_4">
    <path clip-path="url(#pba48dcfdd7)" d="M 79.074383 239.678296 
L 93.036255 239.678296 
L 93.036255 237.423182 
L 79.074383 237.423182 
L 79.074383 239.678296 
z
" style="fill:#808080;stroke:#4d4d4d;stroke-linejoin:miter;stroke-width:1.5;"/>
   </g>
   <g id="patch_5">
    <path clip-path="url(#pba48dcfdd7)" d="M 100.444596 119.247724 
L 114.406468 119.247724 
L 114.406468 108.908645 
L 100.444596 108.908645 
L 100.444596 119.247724 
z
" style="fill:#d3d3d3;stroke:#4d4d4d;stroke-linejoin:miter;stroke-width:1.5;"/>
   </g>
   <g id="patch_6">
    <path clip-path="url(#pba48dcfdd7)" d="M 114.691404 238.543598 
L 128.653277 238.543598 
L 128.653277 236.645564 
L 114.691404 236.645564 
L 114.691404 238.543598 
z
" style="fill:#808080;stroke:#4d4d4d;stroke-linejoin:miter;stroke-width:1.5;"/>
   </g>
   <g id="patch_7">
    <path clip-path="url(#pba48dcfdd7)" d="M 136.061617 111.988551 
L 150.023489 111.988551 
L 150.023489 102.935421 
L 136.061617 102.935421 
L 136.061617 111.988551 
z
" style="fill:#d3d3d3;stroke:#4d4d4d;stroke-linejoin:miter;stroke-width:1.5;"/>
   </g>
   <g id="patch_8">
    <path clip-path="url(#pba48dcfdd7)" d="M 150.308426 238.181574 
L 164.270298 238.181574 
L 164.270298 236.067913 
L 150.308426 236.067913 
L 150.308426 238.181574 
z
" style="fill:#808080;stroke:#4d4d4d;stroke-linejoin:miter;stroke-width:1.5;"/>
   </g>
   <g id="patch_9">
    <path clip-path="url(#pba48dcfdd7)" d="M 171.678638 106.425443 
L 185.640511 106.425443 
L 185.640511 98.463475 
L 171.678638 98.463475 
L 171.678638 106.425443 
z
" style="fill:#d3d3d3;stroke:#4d4d4d;stroke-linejoin:miter;stroke-width:1.5;"/>
   </g>
   <g id="patch_10">
    <path clip-path="url(#pba48dcfdd7)" d="M 185.925447 237.679846 
L 199.887319 237.679846 
L 199.887319 235.704857 
L 185.925447 235.704857 
L 185.925447 237.679846 
z
" style="fill:#808080;stroke:#4d4d4d;stroke-linejoin:miter;stroke-width:1.5;"/>
   </g>
   <g id="patch_11">
    <path clip-path="url(#pba48dcfdd7)" d="M 207.29566 102.406838 
L 221.257532 102.406838 
L 221.257532 95.567536 
L 207.29566 95.567536 
L 207.29566 102.406838 
z
" style="fill:#d3d3d3;stroke:#4d4d4d;stroke-linejoin:miter;stroke-width:1.5;"/>
   </g>
   <g id="patch_12">
    <path clip-path="url(#pba48dcfdd7)" d="M 221.542468 237.244516 
L 235.50434 237.244516 
L 235.50434 235.26545 
L 221.542468 235.26545 
L 221.542468 237.244516 
z
" style="fill:#808080;stroke:#4d4d4d;stroke-linejoin:miter;stroke-width:1.5;"/>
   </g>
   <g id="patch_13">
    <path clip-path="url(#pba48dcfdd7)" d="M 242.912681 100.565575 
L 256.874553 100.565575 
L 256.874553 94.461774 
L 242.912681 94.461774 
L 242.912681 100.565575 
z
" style="fill:#d3d3d3;stroke:#4d4d4d;stroke-linejoin:miter;stroke-width:1.5;"/>
   </g>
   <g id="patch_14">
    <path clip-path="url(#pba48dcfdd7)" d="M 257.159489 237.054289 
L 271.121362 237.054289 
L 271.121362 234.934633 
L 257.159489 234.934633 
L 257.159489 237.054289 
z
" style="fill:#808080;stroke:#4d4d4d;stroke-linejoin:miter;stroke-width:1.5;"/>
   </g>
   <g id="patch_15">
    <path clip-path="url(#pba48dcfdd7)" d="M 278.529702 100.763437 
L 292.491574 100.763437 
L 292.491574 94.0473 
L 278.529702 94.0473 
L 278.529702 100.763437 
z
" style="fill:#d3d3d3;stroke:#4d4d4d;stroke-linejoin:miter;stroke-width:1.5;"/>
   </g>
   <g id="patch_16">
    <path clip-path="url(#pba48dcfdd7)" d="M 292.776511 236.748879 
L 306.738383 236.748879 
L 306.738383 234.653087 
L 292.776511 234.653087 
L 292.776511 236.748879 
z
" style="fill:#808080;stroke:#4d4d4d;stroke-linejoin:miter;stroke-width:1.5;"/>
   </g>
   <g id="patch_17">
    <path clip-path="url(#pba48dcfdd7)" d="M 314.146723 103.542388 
L 328.108596 103.542388 
L 328.108596 95.97296 
L 314.146723 95.97296 
L 314.146723 103.542388 
z
" style="fill:#d3d3d3;stroke:#4d4d4d;stroke-linejoin:miter;stroke-width:1.5;"/>
   </g>
   <g id="patch_18">
    <path clip-path="url(#pba48dcfdd7)" d="M 328.393532 236.639641 
L 342.355404 236.639641 
L 342.355404 234.720066 
L 328.393532 234.720066 
L 328.393532 236.639641 
z
" style="fill:#808080;stroke:#4d4d4d;stroke-linejoin:miter;stroke-width:1.5;"/>
   </g>
   <g id="patch_19">
    <path clip-path="url(#pba48dcfdd7)" d="M 349.763745 110.444228 
L 363.725617 110.444228 
L 363.725617 99.935491 
L 349.763745 99.935491 
L 349.763745 110.444228 
z
" style="fill:#d3d3d3;stroke:#4d4d4d;stroke-linejoin:miter;stroke-width:1.5;"/>
   </g>
   <g id="patch_20">
    <path clip-path="url(#pba48dcfdd7)" d="M 364.010553 237.161173 
L 377.972426 237.161173 
L 377.972426 234.833279 
L 364.010553 234.833279 
L 364.010553 237.161173 
z
" style="fill:#808080;stroke:#4d4d4d;stroke-linejoin:miter;stroke-width:1.5;"/>
   </g>
   <g id="patch_21">
    <path clip-path="url(#pba48dcfdd7)" d="M 78.931915 250.032311 
L 78.931915 250.032311 
L 78.931915 250.032311 
L 78.931915 250.032311 
z
" style="fill:#d3d3d3;stroke:#4d4d4d;stroke-linejoin:miter;stroke-width:0.75;"/>
   </g>
   <g id="patch_22">
    <path clip-path="url(#pba48dcfdd7)" d="M 78.931915 250.032311 
L 78.931915 250.032311 
L 78.931915 250.032311 
L 78.931915 250.032311 
z
" style="fill:#808080;stroke:#4d4d4d;stroke-linejoin:miter;stroke-width:0.75;"/>
   </g>
   <g id="matplotlib.axis_1">
    <g id="xtick_1">
     <g id="line2d_1">
      <defs>
       <path d="M 0 0 
L 0 3.5 
" id="maec1ab6281" style="stroke:#000000;stroke-width:0.8;"/>
      </defs>
      <g>
       <use style="stroke:#000000;stroke-width:0.8;" x="78.931915" xlink:href="#maec1ab6281" y="262"/>
      </g>
     </g>
     <g id="text_1">
      <!-- 0.1 -->
      <g transform="translate(68.594884 278.877969)scale(0.13 -0.13)">
       <defs>
        <path d="M 31.78125 66.40625 
Q 24.171875 66.40625 20.328125 58.90625 
Q 16.5 51.421875 16.5 36.375 
Q 16.5 21.390625 20.328125 13.890625 
Q 24.171875 6.390625 31.78125 6.390625 
Q 39.453125 6.390625 43.28125 13.890625 
Q 47.125 21.390625 47.125 36.375 
Q 47.125 51.421875 43.28125 58.90625 
Q 39.453125 66.40625 31.78125 66.40625 
z
M 31.78125 74.21875 
Q 44.046875 74.21875 50.515625 64.515625 
Q 56.984375 54.828125 56.984375 36.375 
Q 56.984375 17.96875 50.515625 8.265625 
Q 44.046875 -1.421875 31.78125 -1.421875 
Q 19.53125 -1.421875 13.0625 8.265625 
Q 6.59375 17.96875 6.59375 36.375 
Q 6.59375 54.828125 13.0625 64.515625 
Q 19.53125 74.21875 31.78125 74.21875 
z
" id="DejaVuSans-48"/>
        <path d="M 10.6875 12.40625 
L 21 12.40625 
L 21 0 
L 10.6875 0 
z
" id="DejaVuSans-46"/>
        <path d="M 12.40625 8.296875 
L 28.515625 8.296875 
L 28.515625 63.921875 
L 10.984375 60.40625 
L 10.984375 69.390625 
L 28.421875 72.90625 
L 38.28125 72.90625 
L 38.28125 8.296875 
L 54.390625 8.296875 
L 54.390625 0 
L 12.40625 0 
z
" id="DejaVuSans-49"/>
       </defs>
       <use xlink:href="#DejaVuSans-48"/>
       <use x="63.623047" xlink:href="#DejaVuSans-46"/>
       <use x="95.410156" xlink:href="#DejaVuSans-49"/>
      </g>
     </g>
    </g>
    <g id="xtick_2">
     <g id="line2d_2">
      <g>
       <use style="stroke:#000000;stroke-width:0.8;" x="114.548936" xlink:href="#maec1ab6281" y="262"/>
      </g>
     </g>
     <g id="text_2">
      <!-- 0.2 -->
      <g transform="translate(104.211905 278.877969)scale(0.13 -0.13)">
       <defs>
        <path d="M 19.1875 8.296875 
L 53.609375 8.296875 
L 53.609375 0 
L 7.328125 0 
L 7.328125 8.296875 
Q 12.9375 14.109375 22.625 23.890625 
Q 32.328125 33.6875 34.8125 36.53125 
Q 39.546875 41.84375 41.421875 45.53125 
Q 43.3125 49.21875 43.3125 52.78125 
Q 43.3125 58.59375 39.234375 62.25 
Q 35.15625 65.921875 28.609375 65.921875 
Q 23.96875 65.921875 18.8125 64.3125 
Q 13.671875 62.703125 7.8125 59.421875 
L 7.8125 69.390625 
Q 13.765625 71.78125 18.9375 73 
Q 24.125 74.21875 28.421875 74.21875 
Q 39.75 74.21875 46.484375 68.546875 
Q 53.21875 62.890625 53.21875 53.421875 
Q 53.21875 48.921875 51.53125 44.890625 
Q 49.859375 40.875 45.40625 35.40625 
Q 44.1875 33.984375 37.640625 27.21875 
Q 31.109375 20.453125 19.1875 8.296875 
z
" id="DejaVuSans-50"/>
       </defs>
       <use xlink:href="#DejaVuSans-48"/>
       <use x="63.623047" xlink:href="#DejaVuSans-46"/>
       <use x="95.410156" xlink:href="#DejaVuSans-50"/>
      </g>
     </g>
    </g>
    <g id="xtick_3">
     <g id="line2d_3">
      <g>
       <use style="stroke:#000000;stroke-width:0.8;" x="150.165957" xlink:href="#maec1ab6281" y="262"/>
      </g>
     </g>
     <g id="text_3">
      <!-- 0.3 -->
      <g transform="translate(139.828926 278.877969)scale(0.13 -0.13)">
       <defs>
        <path d="M 40.578125 39.3125 
Q 47.65625 37.796875 51.625 33 
Q 55.609375 28.21875 55.609375 21.1875 
Q 55.609375 10.40625 48.1875 4.484375 
Q 40.765625 -1.421875 27.09375 -1.421875 
Q 22.515625 -1.421875 17.65625 -0.515625 
Q 12.796875 0.390625 7.625 2.203125 
L 7.625 11.71875 
Q 11.71875 9.328125 16.59375 8.109375 
Q 21.484375 6.890625 26.8125 6.890625 
Q 36.078125 6.890625 40.9375 10.546875 
Q 45.796875 14.203125 45.796875 21.1875 
Q 45.796875 27.640625 41.28125 31.265625 
Q 36.765625 34.90625 28.71875 34.90625 
L 20.21875 34.90625 
L 20.21875 43.015625 
L 29.109375 43.015625 
Q 36.375 43.015625 40.234375 45.921875 
Q 44.09375 48.828125 44.09375 54.296875 
Q 44.09375 59.90625 40.109375 62.90625 
Q 36.140625 65.921875 28.71875 65.921875 
Q 24.65625 65.921875 20.015625 65.03125 
Q 15.375 64.15625 9.8125 62.3125 
L 9.8125 71.09375 
Q 15.4375 72.65625 20.34375 73.4375 
Q 25.25 74.21875 29.59375 74.21875 
Q 40.828125 74.21875 47.359375 69.109375 
Q 53.90625 64.015625 53.90625 55.328125 
Q 53.90625 49.265625 50.4375 45.09375 
Q 46.96875 40.921875 40.578125 39.3125 
z
" id="DejaVuSans-51"/>
       </defs>
       <use xlink:href="#DejaVuSans-48"/>
       <use x="63.623047" xlink:href="#DejaVuSans-46"/>
       <use x="95.410156" xlink:href="#DejaVuSans-51"/>
      </g>
     </g>
    </g>
    <g id="xtick_4">
     <g id="line2d_4">
      <g>
       <use style="stroke:#000000;stroke-width:0.8;" x="185.782979" xlink:href="#maec1ab6281" y="262"/>
      </g>
     </g>
     <g id="text_4">
      <!-- 0.4 -->
      <g transform="translate(175.445947 278.877969)scale(0.13 -0.13)">
       <defs>
        <path d="M 37.796875 64.3125 
L 12.890625 25.390625 
L 37.796875 25.390625 
z
M 35.203125 72.90625 
L 47.609375 72.90625 
L 47.609375 25.390625 
L 58.015625 25.390625 
L 58.015625 17.1875 
L 47.609375 17.1875 
L 47.609375 0 
L 37.796875 0 
L 37.796875 17.1875 
L 4.890625 17.1875 
L 4.890625 26.703125 
z
" id="DejaVuSans-52"/>
       </defs>
       <use xlink:href="#DejaVuSans-48"/>
       <use x="63.623047" xlink:href="#DejaVuSans-46"/>
       <use x="95.410156" xlink:href="#DejaVuSans-52"/>
      </g>
     </g>
    </g>
    <g id="xtick_5">
     <g id="line2d_5">
      <g>
       <use style="stroke:#000000;stroke-width:0.8;" x="221.4" xlink:href="#maec1ab6281" y="262"/>
      </g>
     </g>
     <g id="text_5">
      <!-- 0.5 -->
      <g transform="translate(211.062969 278.877969)scale(0.13 -0.13)">
       <defs>
        <path d="M 10.796875 72.90625 
L 49.515625 72.90625 
L 49.515625 64.59375 
L 19.828125 64.59375 
L 19.828125 46.734375 
Q 21.96875 47.46875 24.109375 47.828125 
Q 26.265625 48.1875 28.421875 48.1875 
Q 40.625 48.1875 47.75 41.5 
Q 54.890625 34.8125 54.890625 23.390625 
Q 54.890625 11.625 47.5625 5.09375 
Q 40.234375 -1.421875 26.90625 -1.421875 
Q 22.3125 -1.421875 17.546875 -0.640625 
Q 12.796875 0.140625 7.71875 1.703125 
L 7.71875 11.625 
Q 12.109375 9.234375 16.796875 8.0625 
Q 21.484375 6.890625 26.703125 6.890625 
Q 35.15625 6.890625 40.078125 11.328125 
Q 45.015625 15.765625 45.015625 23.390625 
Q 45.015625 31 40.078125 35.4375 
Q 35.15625 39.890625 26.703125 39.890625 
Q 22.75 39.890625 18.8125 39.015625 
Q 14.890625 38.140625 10.796875 36.28125 
z
" id="DejaVuSans-53"/>
       </defs>
       <use xlink:href="#DejaVuSans-48"/>
       <use x="63.623047" xlink:href="#DejaVuSans-46"/>
       <use x="95.410156" xlink:href="#DejaVuSans-53"/>
      </g>
     </g>
    </g>
    <g id="xtick_6">
     <g id="line2d_6">
      <g>
       <use style="stroke:#000000;stroke-width:0.8;" x="257.017021" xlink:href="#maec1ab6281" y="262"/>
      </g>
     </g>
     <g id="text_6">
      <!-- 0.6 -->
      <g transform="translate(246.67999 278.877969)scale(0.13 -0.13)">
       <defs>
        <path d="M 33.015625 40.375 
Q 26.375 40.375 22.484375 35.828125 
Q 18.609375 31.296875 18.609375 23.390625 
Q 18.609375 15.53125 22.484375 10.953125 
Q 26.375 6.390625 33.015625 6.390625 
Q 39.65625 6.390625 43.53125 10.953125 
Q 47.40625 15.53125 47.40625 23.390625 
Q 47.40625 31.296875 43.53125 35.828125 
Q 39.65625 40.375 33.015625 40.375 
z
M 52.59375 71.296875 
L 52.59375 62.3125 
Q 48.875 64.0625 45.09375 64.984375 
Q 41.3125 65.921875 37.59375 65.921875 
Q 27.828125 65.921875 22.671875 59.328125 
Q 17.53125 52.734375 16.796875 39.40625 
Q 19.671875 43.65625 24.015625 45.921875 
Q 28.375 48.1875 33.59375 48.1875 
Q 44.578125 48.1875 50.953125 41.515625 
Q 57.328125 34.859375 57.328125 23.390625 
Q 57.328125 12.15625 50.6875 5.359375 
Q 44.046875 -1.421875 33.015625 -1.421875 
Q 20.359375 -1.421875 13.671875 8.265625 
Q 6.984375 17.96875 6.984375 36.375 
Q 6.984375 53.65625 15.1875 63.9375 
Q 23.390625 74.21875 37.203125 74.21875 
Q 40.921875 74.21875 44.703125 73.484375 
Q 48.484375 72.75 52.59375 71.296875 
z
" id="DejaVuSans-54"/>
       </defs>
       <use xlink:href="#DejaVuSans-48"/>
       <use x="63.623047" xlink:href="#DejaVuSans-46"/>
       <use x="95.410156" xlink:href="#DejaVuSans-54"/>
      </g>
     </g>
    </g>
    <g id="xtick_7">
     <g id="line2d_7">
      <g>
       <use style="stroke:#000000;stroke-width:0.8;" x="292.634043" xlink:href="#maec1ab6281" y="262"/>
      </g>
     </g>
     <g id="text_7">
      <!-- 0.7 -->
      <g transform="translate(282.297011 278.877969)scale(0.13 -0.13)">
       <defs>
        <path d="M 8.203125 72.90625 
L 55.078125 72.90625 
L 55.078125 68.703125 
L 28.609375 0 
L 18.3125 0 
L 43.21875 64.59375 
L 8.203125 64.59375 
z
" id="DejaVuSans-55"/>
       </defs>
       <use xlink:href="#DejaVuSans-48"/>
       <use x="63.623047" xlink:href="#DejaVuSans-46"/>
       <use x="95.410156" xlink:href="#DejaVuSans-55"/>
      </g>
     </g>
    </g>
    <g id="xtick_8">
     <g id="line2d_8">
      <g>
       <use style="stroke:#000000;stroke-width:0.8;" x="328.251064" xlink:href="#maec1ab6281" y="262"/>
      </g>
     </g>
     <g id="text_8">
      <!-- 0.8 -->
      <g transform="translate(317.914033 278.877969)scale(0.13 -0.13)">
       <defs>
        <path d="M 31.78125 34.625 
Q 24.75 34.625 20.71875 30.859375 
Q 16.703125 27.09375 16.703125 20.515625 
Q 16.703125 13.921875 20.71875 10.15625 
Q 24.75 6.390625 31.78125 6.390625 
Q 38.8125 6.390625 42.859375 10.171875 
Q 46.921875 13.96875 46.921875 20.515625 
Q 46.921875 27.09375 42.890625 30.859375 
Q 38.875 34.625 31.78125 34.625 
z
M 21.921875 38.8125 
Q 15.578125 40.375 12.03125 44.71875 
Q 8.5 49.078125 8.5 55.328125 
Q 8.5 64.0625 14.71875 69.140625 
Q 20.953125 74.21875 31.78125 74.21875 
Q 42.671875 74.21875 48.875 69.140625 
Q 55.078125 64.0625 55.078125 55.328125 
Q 55.078125 49.078125 51.53125 44.71875 
Q 48 40.375 41.703125 38.8125 
Q 48.828125 37.15625 52.796875 32.3125 
Q 56.78125 27.484375 56.78125 20.515625 
Q 56.78125 9.90625 50.3125 4.234375 
Q 43.84375 -1.421875 31.78125 -1.421875 
Q 19.734375 -1.421875 13.25 4.234375 
Q 6.78125 9.90625 6.78125 20.515625 
Q 6.78125 27.484375 10.78125 32.3125 
Q 14.796875 37.15625 21.921875 38.8125 
z
M 18.3125 54.390625 
Q 18.3125 48.734375 21.84375 45.5625 
Q 25.390625 42.390625 31.78125 42.390625 
Q 38.140625 42.390625 41.71875 45.5625 
Q 45.3125 48.734375 45.3125 54.390625 
Q 45.3125 60.0625 41.71875 63.234375 
Q 38.140625 66.40625 31.78125 66.40625 
Q 25.390625 66.40625 21.84375 63.234375 
Q 18.3125 60.0625 18.3125 54.390625 
z
" id="DejaVuSans-56"/>
       </defs>
       <use xlink:href="#DejaVuSans-48"/>
       <use x="63.623047" xlink:href="#DejaVuSans-46"/>
       <use x="95.410156" xlink:href="#DejaVuSans-56"/>
      </g>
     </g>
    </g>
    <g id="xtick_9">
     <g id="line2d_9">
      <g>
       <use style="stroke:#000000;stroke-width:0.8;" x="363.868085" xlink:href="#maec1ab6281" y="262"/>
      </g>
     </g>
     <g id="text_9">
      <!-- 0.9 -->
      <g transform="translate(353.531054 278.877969)scale(0.13 -0.13)">
       <defs>
        <path d="M 10.984375 1.515625 
L 10.984375 10.5 
Q 14.703125 8.734375 18.5 7.8125 
Q 22.3125 6.890625 25.984375 6.890625 
Q 35.75 6.890625 40.890625 13.453125 
Q 46.046875 20.015625 46.78125 33.40625 
Q 43.953125 29.203125 39.59375 26.953125 
Q 35.25 24.703125 29.984375 24.703125 
Q 19.046875 24.703125 12.671875 31.3125 
Q 6.296875 37.9375 6.296875 49.421875 
Q 6.296875 60.640625 12.9375 67.421875 
Q 19.578125 74.21875 30.609375 74.21875 
Q 43.265625 74.21875 49.921875 64.515625 
Q 56.59375 54.828125 56.59375 36.375 
Q 56.59375 19.140625 48.40625 8.859375 
Q 40.234375 -1.421875 26.421875 -1.421875 
Q 22.703125 -1.421875 18.890625 -0.6875 
Q 15.09375 0.046875 10.984375 1.515625 
z
M 30.609375 32.421875 
Q 37.25 32.421875 41.125 36.953125 
Q 45.015625 41.5 45.015625 49.421875 
Q 45.015625 57.28125 41.125 61.84375 
Q 37.25 66.40625 30.609375 66.40625 
Q 23.96875 66.40625 20.09375 61.84375 
Q 16.21875 57.28125 16.21875 49.421875 
Q 16.21875 41.5 20.09375 36.953125 
Q 23.96875 32.421875 30.609375 32.421875 
z
" id="DejaVuSans-57"/>
       </defs>
       <use xlink:href="#DejaVuSans-48"/>
       <use x="63.623047" xlink:href="#DejaVuSans-46"/>
       <use x="95.410156" xlink:href="#DejaVuSans-57"/>
      </g>
     </g>
    </g>
    <g id="text_10">
     <!-- Intermittency -->
     <g transform="translate(187.617969 293.18)scale(0.1 -0.1)">
      <defs>
       <path d="M 9.8125 72.90625 
L 19.671875 72.90625 
L 19.671875 0 
L 9.8125 0 
z
" id="DejaVuSans-73"/>
       <path d="M 54.890625 33.015625 
L 54.890625 0 
L 45.90625 0 
L 45.90625 32.71875 
Q 45.90625 40.484375 42.875 44.328125 
Q 39.84375 48.1875 33.796875 48.1875 
Q 26.515625 48.1875 22.3125 43.546875 
Q 18.109375 38.921875 18.109375 30.90625 
L 18.109375 0 
L 9.078125 0 
L 9.078125 54.6875 
L 18.109375 54.6875 
L 18.109375 46.1875 
Q 21.34375 51.125 25.703125 53.5625 
Q 30.078125 56 35.796875 56 
Q 45.21875 56 50.046875 50.171875 
Q 54.890625 44.34375 54.890625 33.015625 
z
" id="DejaVuSans-110"/>
       <path d="M 18.3125 70.21875 
L 18.3125 54.6875 
L 36.8125 54.6875 
L 36.8125 47.703125 
L 18.3125 47.703125 
L 18.3125 18.015625 
Q 18.3125 11.328125 20.140625 9.421875 
Q 21.96875 7.515625 27.59375 7.515625 
L 36.8125 7.515625 
L 36.8125 0 
L 27.59375 0 
Q 17.1875 0 13.234375 3.875 
Q 9.28125 7.765625 9.28125 18.015625 
L 9.28125 47.703125 
L 2.6875 47.703125 
L 2.6875 54.6875 
L 9.28125 54.6875 
L 9.28125 70.21875 
z
" id="DejaVuSans-116"/>
       <path d="M 56.203125 29.59375 
L 56.203125 25.203125 
L 14.890625 25.203125 
Q 15.484375 15.921875 20.484375 11.0625 
Q 25.484375 6.203125 34.421875 6.203125 
Q 39.59375 6.203125 44.453125 7.46875 
Q 49.3125 8.734375 54.109375 11.28125 
L 54.109375 2.78125 
Q 49.265625 0.734375 44.1875 -0.34375 
Q 39.109375 -1.421875 33.890625 -1.421875 
Q 20.796875 -1.421875 13.15625 6.1875 
Q 5.515625 13.8125 5.515625 26.8125 
Q 5.515625 40.234375 12.765625 48.109375 
Q 20.015625 56 32.328125 56 
Q 43.359375 56 49.78125 48.890625 
Q 56.203125 41.796875 56.203125 29.59375 
z
M 47.21875 32.234375 
Q 47.125 39.59375 43.09375 43.984375 
Q 39.0625 48.390625 32.421875 48.390625 
Q 24.90625 48.390625 20.390625 44.140625 
Q 15.875 39.890625 15.1875 32.171875 
z
" id="DejaVuSans-101"/>
       <path d="M 41.109375 46.296875 
Q 39.59375 47.171875 37.8125 47.578125 
Q 36.03125 48 33.890625 48 
Q 26.265625 48 22.1875 43.046875 
Q 18.109375 38.09375 18.109375 28.8125 
L 18.109375 0 
L 9.078125 0 
L 9.078125 54.6875 
L 18.109375 54.6875 
L 18.109375 46.1875 
Q 20.953125 51.171875 25.484375 53.578125 
Q 30.03125 56 36.53125 56 
Q 37.453125 56 38.578125 55.875 
Q 39.703125 55.765625 41.0625 55.515625 
z
" id="DejaVuSans-114"/>
       <path d="M 52 44.1875 
Q 55.375 50.25 60.0625 53.125 
Q 64.75 56 71.09375 56 
Q 79.640625 56 84.28125 50.015625 
Q 88.921875 44.046875 88.921875 33.015625 
L 88.921875 0 
L 79.890625 0 
L 79.890625 32.71875 
Q 79.890625 40.578125 77.09375 44.375 
Q 74.3125 48.1875 68.609375 48.1875 
Q 61.625 48.1875 57.5625 43.546875 
Q 53.515625 38.921875 53.515625 30.90625 
L 53.515625 0 
L 44.484375 0 
L 44.484375 32.71875 
Q 44.484375 40.625 41.703125 44.40625 
Q 38.921875 48.1875 33.109375 48.1875 
Q 26.21875 48.1875 22.15625 43.53125 
Q 18.109375 38.875 18.109375 30.90625 
L 18.109375 0 
L 9.078125 0 
L 9.078125 54.6875 
L 18.109375 54.6875 
L 18.109375 46.1875 
Q 21.1875 51.21875 25.484375 53.609375 
Q 29.78125 56 35.6875 56 
Q 41.65625 56 45.828125 52.96875 
Q 50 49.953125 52 44.1875 
z
" id="DejaVuSans-109"/>
       <path d="M 9.421875 54.6875 
L 18.40625 54.6875 
L 18.40625 0 
L 9.421875 0 
z
M 9.421875 75.984375 
L 18.40625 75.984375 
L 18.40625 64.59375 
L 9.421875 64.59375 
z
" id="DejaVuSans-105"/>
       <path d="M 48.78125 52.59375 
L 48.78125 44.1875 
Q 44.96875 46.296875 41.140625 47.34375 
Q 37.3125 48.390625 33.40625 48.390625 
Q 24.65625 48.390625 19.8125 42.84375 
Q 14.984375 37.3125 14.984375 27.296875 
Q 14.984375 17.28125 19.8125 11.734375 
Q 24.65625 6.203125 33.40625 6.203125 
Q 37.3125 6.203125 41.140625 7.25 
Q 44.96875 8.296875 48.78125 10.40625 
L 48.78125 2.09375 
Q 45.015625 0.34375 40.984375 -0.53125 
Q 36.96875 -1.421875 32.421875 -1.421875 
Q 20.0625 -1.421875 12.78125 6.34375 
Q 5.515625 14.109375 5.515625 27.296875 
Q 5.515625 40.671875 12.859375 48.328125 
Q 20.21875 56 33.015625 56 
Q 37.15625 56 41.109375 55.140625 
Q 45.0625 54.296875 48.78125 52.59375 
z
" id="DejaVuSans-99"/>
       <path d="M 32.171875 -5.078125 
Q 28.375 -14.84375 24.75 -17.8125 
Q 21.140625 -20.796875 15.09375 -20.796875 
L 7.90625 -20.796875 
L 7.90625 -13.28125 
L 13.1875 -13.28125 
Q 16.890625 -13.28125 18.9375 -11.515625 
Q 21 -9.765625 23.484375 -3.21875 
L 25.09375 0.875 
L 2.984375 54.6875 
L 12.5 54.6875 
L 29.59375 11.921875 
L 46.6875 54.6875 
L 56.203125 54.6875 
z
" id="DejaVuSans-121"/>
      </defs>
      <use xlink:href="#DejaVuSans-73"/>
      <use x="29.492188" xlink:href="#DejaVuSans-110"/>
      <use x="92.871094" xlink:href="#DejaVuSans-116"/>
      <use x="132.080078" xlink:href="#DejaVuSans-101"/>
      <use x="193.603516" xlink:href="#DejaVuSans-114"/>
      <use x="232.966797" xlink:href="#DejaVuSans-109"/>
      <use x="330.378906" xlink:href="#DejaVuSans-105"/>
      <use x="358.162109" xlink:href="#DejaVuSans-116"/>
      <use x="397.371094" xlink:href="#DejaVuSans-116"/>
      <use x="436.580078" xlink:href="#DejaVuSans-101"/>
      <use x="498.103516" xlink:href="#DejaVuSans-110"/>
      <use x="561.482422" xlink:href="#DejaVuSans-99"/>
      <use x="616.462891" xlink:href="#DejaVuSans-121"/>
     </g>
    </g>
   </g>
   <g id="matplotlib.axis_2">
    <g id="ytick_1">
     <g id="line2d_10">
      <defs>
       <path d="M 0 0 
L -3.5 0 
" id="mca4a421622" style="stroke:#000000;stroke-width:0.8;"/>
      </defs>
      <g>
       <use style="stroke:#000000;stroke-width:0.8;" x="44" xlink:href="#mca4a421622" y="250.032311"/>
      </g>
     </g>
     <g id="text_11">
      <!-- 0.0 -->
      <g transform="translate(16.325937 254.971295)scale(0.13 -0.13)">
       <use xlink:href="#DejaVuSans-48"/>
       <use x="63.623047" xlink:href="#DejaVuSans-46"/>
       <use x="95.410156" xlink:href="#DejaVuSans-48"/>
      </g>
     </g>
    </g>
    <g id="ytick_2">
     <g id="line2d_11">
      <g>
       <use style="stroke:#000000;stroke-width:0.8;" x="44" xlink:href="#mca4a421622" y="196.792844"/>
      </g>
     </g>
     <g id="text_12">
      <!-- 0.2 -->
      <g transform="translate(16.325937 201.731828)scale(0.13 -0.13)">
       <use xlink:href="#DejaVuSans-48"/>
       <use x="63.623047" xlink:href="#DejaVuSans-46"/>
       <use x="95.410156" xlink:href="#DejaVuSans-50"/>
      </g>
     </g>
    </g>
    <g id="ytick_3">
     <g id="line2d_12">
      <g>
       <use style="stroke:#000000;stroke-width:0.8;" x="44" xlink:href="#mca4a421622" y="143.553377"/>
      </g>
     </g>
     <g id="text_13">
      <!-- 0.4 -->
      <g transform="translate(16.325937 148.492362)scale(0.13 -0.13)">
       <use xlink:href="#DejaVuSans-48"/>
       <use x="63.623047" xlink:href="#DejaVuSans-46"/>
       <use x="95.410156" xlink:href="#DejaVuSans-52"/>
      </g>
     </g>
    </g>
    <g id="ytick_4">
     <g id="line2d_13">
      <g>
       <use style="stroke:#000000;stroke-width:0.8;" x="44" xlink:href="#mca4a421622" y="90.313911"/>
      </g>
     </g>
     <g id="text_14">
      <!-- 0.6 -->
      <g transform="translate(16.325937 95.252895)scale(0.13 -0.13)">
       <use xlink:href="#DejaVuSans-48"/>
       <use x="63.623047" xlink:href="#DejaVuSans-46"/>
       <use x="95.410156" xlink:href="#DejaVuSans-54"/>
      </g>
     </g>
    </g>
    <g id="ytick_5">
     <g id="line2d_14">
      <g>
       <use style="stroke:#000000;stroke-width:0.8;" x="44" xlink:href="#mca4a421622" y="37.074444"/>
      </g>
     </g>
     <g id="text_15">
      <!-- 0.8 -->
      <g transform="translate(16.325937 42.013428)scale(0.13 -0.13)">
       <use xlink:href="#DejaVuSans-48"/>
       <use x="63.623047" xlink:href="#DejaVuSans-46"/>
       <use x="95.410156" xlink:href="#DejaVuSans-56"/>
      </g>
     </g>
    </g>
    <g id="text_16">
     <!-- LN Structure-Dynamics Similarity -->
     <g transform="translate(10.24625 226.340156)rotate(-90)scale(0.1 -0.1)">
      <defs>
       <path d="M 9.8125 72.90625 
L 19.671875 72.90625 
L 19.671875 8.296875 
L 55.171875 8.296875 
L 55.171875 0 
L 9.8125 0 
z
" id="DejaVuSans-76"/>
       <path d="M 9.8125 72.90625 
L 23.09375 72.90625 
L 55.421875 11.921875 
L 55.421875 72.90625 
L 64.984375 72.90625 
L 64.984375 0 
L 51.703125 0 
L 19.390625 60.984375 
L 19.390625 0 
L 9.8125 0 
z
" id="DejaVuSans-78"/>
       <path id="DejaVuSans-32"/>
       <path d="M 53.515625 70.515625 
L 53.515625 60.890625 
Q 47.90625 63.578125 42.921875 64.890625 
Q 37.9375 66.21875 33.296875 66.21875 
Q 25.25 66.21875 20.875 63.09375 
Q 16.5 59.96875 16.5 54.203125 
Q 16.5 49.359375 19.40625 46.890625 
Q 22.3125 44.4375 30.421875 42.921875 
L 36.375 41.703125 
Q 47.40625 39.59375 52.65625 34.296875 
Q 57.90625 29 57.90625 20.125 
Q 57.90625 9.515625 50.796875 4.046875 
Q 43.703125 -1.421875 29.984375 -1.421875 
Q 24.8125 -1.421875 18.96875 -0.25 
Q 13.140625 0.921875 6.890625 3.21875 
L 6.890625 13.375 
Q 12.890625 10.015625 18.65625 8.296875 
Q 24.421875 6.59375 29.984375 6.59375 
Q 38.421875 6.59375 43.015625 9.90625 
Q 47.609375 13.234375 47.609375 19.390625 
Q 47.609375 24.75 44.3125 27.78125 
Q 41.015625 30.8125 33.5 32.328125 
L 27.484375 33.5 
Q 16.453125 35.6875 11.515625 40.375 
Q 6.59375 45.0625 6.59375 53.421875 
Q 6.59375 63.09375 13.40625 68.65625 
Q 20.21875 74.21875 32.171875 74.21875 
Q 37.3125 74.21875 42.625 73.28125 
Q 47.953125 72.359375 53.515625 70.515625 
z
" id="DejaVuSans-83"/>
       <path d="M 8.5 21.578125 
L 8.5 54.6875 
L 17.484375 54.6875 
L 17.484375 21.921875 
Q 17.484375 14.15625 20.5 10.265625 
Q 23.53125 6.390625 29.59375 6.390625 
Q 36.859375 6.390625 41.078125 11.03125 
Q 45.3125 15.671875 45.3125 23.6875 
L 45.3125 54.6875 
L 54.296875 54.6875 
L 54.296875 0 
L 45.3125 0 
L 45.3125 8.40625 
Q 42.046875 3.421875 37.71875 1 
Q 33.40625 -1.421875 27.6875 -1.421875 
Q 18.265625 -1.421875 13.375 4.4375 
Q 8.5 10.296875 8.5 21.578125 
z
M 31.109375 56 
z
" id="DejaVuSans-117"/>
       <path d="M 4.890625 31.390625 
L 31.203125 31.390625 
L 31.203125 23.390625 
L 4.890625 23.390625 
z
" id="DejaVuSans-45"/>
       <path d="M 19.671875 64.796875 
L 19.671875 8.109375 
L 31.59375 8.109375 
Q 46.6875 8.109375 53.6875 14.9375 
Q 60.6875 21.78125 60.6875 36.53125 
Q 60.6875 51.171875 53.6875 57.984375 
Q 46.6875 64.796875 31.59375 64.796875 
z
M 9.8125 72.90625 
L 30.078125 72.90625 
Q 51.265625 72.90625 61.171875 64.09375 
Q 71.09375 55.28125 71.09375 36.53125 
Q 71.09375 17.671875 61.125 8.828125 
Q 51.171875 0 30.078125 0 
L 9.8125 0 
z
" id="DejaVuSans-68"/>
       <path d="M 34.28125 27.484375 
Q 23.390625 27.484375 19.1875 25 
Q 14.984375 22.515625 14.984375 16.5 
Q 14.984375 11.71875 18.140625 8.90625 
Q 21.296875 6.109375 26.703125 6.109375 
Q 34.1875 6.109375 38.703125 11.40625 
Q 43.21875 16.703125 43.21875 25.484375 
L 43.21875 27.484375 
z
M 52.203125 31.203125 
L 52.203125 0 
L 43.21875 0 
L 43.21875 8.296875 
Q 40.140625 3.328125 35.546875 0.953125 
Q 30.953125 -1.421875 24.3125 -1.421875 
Q 15.921875 -1.421875 10.953125 3.296875 
Q 6 8.015625 6 15.921875 
Q 6 25.140625 12.171875 29.828125 
Q 18.359375 34.515625 30.609375 34.515625 
L 43.21875 34.515625 
L 43.21875 35.40625 
Q 43.21875 41.609375 39.140625 45 
Q 35.0625 48.390625 27.6875 48.390625 
Q 23 48.390625 18.546875 47.265625 
Q 14.109375 46.140625 10.015625 43.890625 
L 10.015625 52.203125 
Q 14.9375 54.109375 19.578125 55.046875 
Q 24.21875 56 28.609375 56 
Q 40.484375 56 46.34375 49.84375 
Q 52.203125 43.703125 52.203125 31.203125 
z
" id="DejaVuSans-97"/>
       <path d="M 44.28125 53.078125 
L 44.28125 44.578125 
Q 40.484375 46.53125 36.375 47.5 
Q 32.28125 48.484375 27.875 48.484375 
Q 21.1875 48.484375 17.84375 46.4375 
Q 14.5 44.390625 14.5 40.28125 
Q 14.5 37.15625 16.890625 35.375 
Q 19.28125 33.59375 26.515625 31.984375 
L 29.59375 31.296875 
Q 39.15625 29.25 43.1875 25.515625 
Q 47.21875 21.78125 47.21875 15.09375 
Q 47.21875 7.46875 41.1875 3.015625 
Q 35.15625 -1.421875 24.609375 -1.421875 
Q 20.21875 -1.421875 15.453125 -0.5625 
Q 10.6875 0.296875 5.421875 2 
L 5.421875 11.28125 
Q 10.40625 8.6875 15.234375 7.390625 
Q 20.0625 6.109375 24.8125 6.109375 
Q 31.15625 6.109375 34.5625 8.28125 
Q 37.984375 10.453125 37.984375 14.40625 
Q 37.984375 18.0625 35.515625 20.015625 
Q 33.0625 21.96875 24.703125 23.78125 
L 21.578125 24.515625 
Q 13.234375 26.265625 9.515625 29.90625 
Q 5.8125 33.546875 5.8125 39.890625 
Q 5.8125 47.609375 11.28125 51.796875 
Q 16.75 56 26.8125 56 
Q 31.78125 56 36.171875 55.265625 
Q 40.578125 54.546875 44.28125 53.078125 
z
" id="DejaVuSans-115"/>
       <path d="M 9.421875 75.984375 
L 18.40625 75.984375 
L 18.40625 0 
L 9.421875 0 
z
" id="DejaVuSans-108"/>
      </defs>
      <use xlink:href="#DejaVuSans-76"/>
      <use x="55.712891" xlink:href="#DejaVuSans-78"/>
      <use x="130.517578" xlink:href="#DejaVuSans-32"/>
      <use x="162.304688" xlink:href="#DejaVuSans-83"/>
      <use x="225.78125" xlink:href="#DejaVuSans-116"/>
      <use x="264.990234" xlink:href="#DejaVuSans-114"/>
      <use x="306.103516" xlink:href="#DejaVuSans-117"/>
      <use x="369.482422" xlink:href="#DejaVuSans-99"/>
      <use x="424.462891" xlink:href="#DejaVuSans-116"/>
      <use x="463.671875" xlink:href="#DejaVuSans-117"/>
      <use x="527.050781" xlink:href="#DejaVuSans-114"/>
      <use x="565.914062" xlink:href="#DejaVuSans-101"/>
      <use x="627.4375" xlink:href="#DejaVuSans-45"/>
      <use x="663.521484" xlink:href="#DejaVuSans-68"/>
      <use x="740.523438" xlink:href="#DejaVuSans-121"/>
      <use x="799.703125" xlink:href="#DejaVuSans-110"/>
      <use x="863.082031" xlink:href="#DejaVuSans-97"/>
      <use x="924.361328" xlink:href="#DejaVuSans-109"/>
      <use x="1021.773438" xlink:href="#DejaVuSans-105"/>
      <use x="1049.556641" xlink:href="#DejaVuSans-99"/>
      <use x="1104.537109" xlink:href="#DejaVuSans-115"/>
      <use x="1156.636719" xlink:href="#DejaVuSans-32"/>
      <use x="1188.423828" xlink:href="#DejaVuSans-83"/>
      <use x="1251.900391" xlink:href="#DejaVuSans-105"/>
      <use x="1279.683594" xlink:href="#DejaVuSans-109"/>
      <use x="1377.095703" xlink:href="#DejaVuSans-105"/>
      <use x="1404.878906" xlink:href="#DejaVuSans-108"/>
      <use x="1432.662109" xlink:href="#DejaVuSans-97"/>
      <use x="1493.941406" xlink:href="#DejaVuSans-114"/>
      <use x="1535.054688" xlink:href="#DejaVuSans-105"/>
      <use x="1562.837891" xlink:href="#DejaVuSans-116"/>
      <use x="1602.046875" xlink:href="#DejaVuSans-121"/>
     </g>
    </g>
   </g>
   <g id="line2d_15">
    <path clip-path="url(#pba48dcfdd7)" d="M 248.112766 76.348662 
L 248.112766 72.862582 
L 283.729787 72.862582 
L 283.729787 76.348662 
" style="fill:none;stroke:#333333;stroke-linecap:square;stroke-width:1.5;"/>
   </g>
   <g id="line2d_16">
    <path clip-path="url(#pba48dcfdd7)" d="M 283.729787 55.226965 
L 283.729787 51.740885 
L 354.96383 51.740885 
L 354.96383 55.226965 
" style="fill:none;stroke:#333333;stroke-linecap:square;stroke-width:1.5;"/>
   </g>
   <g id="line2d_17">
    <path clip-path="url(#pba48dcfdd7)" d="M 70.02766 55.226965 
L 70.02766 51.740885 
L 248.112766 51.740885 
L 248.112766 55.226965 
" style="fill:none;stroke:#333333;stroke-linecap:square;stroke-width:1.5;"/>
   </g>
   <g id="patch_23">
    <path d="M 44 252 
L 44 34.56 
" style="fill:none;stroke:#000000;stroke-linecap:square;stroke-linejoin:miter;stroke-width:0.8;"/>
   </g>
   <g id="patch_24">
    <path d="M 54 262 
L 388.8 262 
" style="fill:none;stroke:#000000;stroke-linecap:square;stroke-linejoin:miter;stroke-width:0.8;"/>
   </g>
   <g id="text_17">
    <!-- ns -->
    <g transform="translate(260.147839 69.782894)scale(0.1 -0.1)">
     <use xlink:href="#DejaVuSans-110"/>
     <use x="63.378906" xlink:href="#DejaVuSans-115"/>
    </g>
   </g>
   <g id="text_18">
    <!-- **** -->
    <g transform="translate(309.346809 48.661198)scale(0.1 -0.1)">
     <defs>
      <path d="M 47.015625 60.890625 
L 29.5 51.421875 
L 47.015625 41.890625 
L 44.1875 37.109375 
L 27.78125 47.015625 
L 27.78125 28.609375 
L 22.21875 28.609375 
L 22.21875 47.015625 
L 5.8125 37.109375 
L 2.984375 41.890625 
L 20.515625 51.421875 
L 2.984375 60.890625 
L 5.8125 65.71875 
L 22.21875 55.8125 
L 22.21875 74.21875 
L 27.78125 74.21875 
L 27.78125 55.8125 
L 44.1875 65.71875 
z
" id="DejaVuSans-42"/>
     </defs>
     <use xlink:href="#DejaVuSans-42"/>
     <use x="50" xlink:href="#DejaVuSans-42"/>
     <use x="100" xlink:href="#DejaVuSans-42"/>
     <use x="150" xlink:href="#DejaVuSans-42"/>
    </g>
   </g>
   <g id="text_19">
    <!-- **** -->
    <g transform="translate(149.070213 48.661198)scale(0.1 -0.1)">
     <use xlink:href="#DejaVuSans-42"/>
     <use x="50" xlink:href="#DejaVuSans-42"/>
     <use x="100" xlink:href="#DejaVuSans-42"/>
     <use x="150" xlink:href="#DejaVuSans-42"/>
    </g>
   </g>
   <g id="legend_1">
    <g id="patch_25">
     <path d="M 186.728125 138.700312 
L 206.728125 138.700312 
L 206.728125 131.700312 
L 186.728125 131.700312 
z
" style="fill:#d3d3d3;stroke:#4d4d4d;stroke-linejoin:miter;stroke-width:0.75;"/>
    </g>
    <g id="text_20">
     <!-- Original -->
     <g transform="translate(214.728125 138.700312)scale(0.1 -0.1)">
      <defs>
       <path d="M 39.40625 66.21875 
Q 28.65625 66.21875 22.328125 58.203125 
Q 16.015625 50.203125 16.015625 36.375 
Q 16.015625 22.609375 22.328125 14.59375 
Q 28.65625 6.59375 39.40625 6.59375 
Q 50.140625 6.59375 56.421875 14.59375 
Q 62.703125 22.609375 62.703125 36.375 
Q 62.703125 50.203125 56.421875 58.203125 
Q 50.140625 66.21875 39.40625 66.21875 
z
M 39.40625 74.21875 
Q 54.734375 74.21875 63.90625 63.9375 
Q 73.09375 53.65625 73.09375 36.375 
Q 73.09375 19.140625 63.90625 8.859375 
Q 54.734375 -1.421875 39.40625 -1.421875 
Q 24.03125 -1.421875 14.8125 8.828125 
Q 5.609375 19.09375 5.609375 36.375 
Q 5.609375 53.65625 14.8125 63.9375 
Q 24.03125 74.21875 39.40625 74.21875 
z
" id="DejaVuSans-79"/>
       <path d="M 45.40625 27.984375 
Q 45.40625 37.75 41.375 43.109375 
Q 37.359375 48.484375 30.078125 48.484375 
Q 22.859375 48.484375 18.828125 43.109375 
Q 14.796875 37.75 14.796875 27.984375 
Q 14.796875 18.265625 18.828125 12.890625 
Q 22.859375 7.515625 30.078125 7.515625 
Q 37.359375 7.515625 41.375 12.890625 
Q 45.40625 18.265625 45.40625 27.984375 
z
M 54.390625 6.78125 
Q 54.390625 -7.171875 48.1875 -13.984375 
Q 42 -20.796875 29.203125 -20.796875 
Q 24.46875 -20.796875 20.265625 -20.09375 
Q 16.0625 -19.390625 12.109375 -17.921875 
L 12.109375 -9.1875 
Q 16.0625 -11.328125 19.921875 -12.34375 
Q 23.78125 -13.375 27.78125 -13.375 
Q 36.625 -13.375 41.015625 -8.765625 
Q 45.40625 -4.15625 45.40625 5.171875 
L 45.40625 9.625 
Q 42.625 4.78125 38.28125 2.390625 
Q 33.9375 0 27.875 0 
Q 17.828125 0 11.671875 7.65625 
Q 5.515625 15.328125 5.515625 27.984375 
Q 5.515625 40.671875 11.671875 48.328125 
Q 17.828125 56 27.875 56 
Q 33.9375 56 38.28125 53.609375 
Q 42.625 51.21875 45.40625 46.390625 
L 45.40625 54.6875 
L 54.390625 54.6875 
z
" id="DejaVuSans-103"/>
      </defs>
      <use xlink:href="#DejaVuSans-79"/>
      <use x="78.710938" xlink:href="#DejaVuSans-114"/>
      <use x="119.824219" xlink:href="#DejaVuSans-105"/>
      <use x="147.607422" xlink:href="#DejaVuSans-103"/>
      <use x="211.083984" xlink:href="#DejaVuSans-105"/>
      <use x="238.867188" xlink:href="#DejaVuSans-110"/>
      <use x="302.246094" xlink:href="#DejaVuSans-97"/>
      <use x="363.525391" xlink:href="#DejaVuSans-108"/>
     </g>
    </g>
    <g id="patch_26">
     <path d="M 186.728125 153.378437 
L 206.728125 153.378437 
L 206.728125 146.378437 
L 186.728125 146.378437 
z
" style="fill:#808080;stroke:#4d4d4d;stroke-linejoin:miter;stroke-width:0.75;"/>
    </g>
    <g id="text_21">
     <!-- Shuffled -->
     <g transform="translate(214.728125 153.378437)scale(0.1 -0.1)">
      <defs>
       <path d="M 54.890625 33.015625 
L 54.890625 0 
L 45.90625 0 
L 45.90625 32.71875 
Q 45.90625 40.484375 42.875 44.328125 
Q 39.84375 48.1875 33.796875 48.1875 
Q 26.515625 48.1875 22.3125 43.546875 
Q 18.109375 38.921875 18.109375 30.90625 
L 18.109375 0 
L 9.078125 0 
L 9.078125 75.984375 
L 18.109375 75.984375 
L 18.109375 46.1875 
Q 21.34375 51.125 25.703125 53.5625 
Q 30.078125 56 35.796875 56 
Q 45.21875 56 50.046875 50.171875 
Q 54.890625 44.34375 54.890625 33.015625 
z
" id="DejaVuSans-104"/>
       <path d="M 37.109375 75.984375 
L 37.109375 68.5 
L 28.515625 68.5 
Q 23.6875 68.5 21.796875 66.546875 
Q 19.921875 64.59375 19.921875 59.515625 
L 19.921875 54.6875 
L 34.71875 54.6875 
L 34.71875 47.703125 
L 19.921875 47.703125 
L 19.921875 0 
L 10.890625 0 
L 10.890625 47.703125 
L 2.296875 47.703125 
L 2.296875 54.6875 
L 10.890625 54.6875 
L 10.890625 58.5 
Q 10.890625 67.625 15.140625 71.796875 
Q 19.390625 75.984375 28.609375 75.984375 
z
" id="DejaVuSans-102"/>
       <path d="M 45.40625 46.390625 
L 45.40625 75.984375 
L 54.390625 75.984375 
L 54.390625 0 
L 45.40625 0 
L 45.40625 8.203125 
Q 42.578125 3.328125 38.25 0.953125 
Q 33.9375 -1.421875 27.875 -1.421875 
Q 17.96875 -1.421875 11.734375 6.484375 
Q 5.515625 14.40625 5.515625 27.296875 
Q 5.515625 40.1875 11.734375 48.09375 
Q 17.96875 56 27.875 56 
Q 33.9375 56 38.25 53.625 
Q 42.578125 51.265625 45.40625 46.390625 
z
M 14.796875 27.296875 
Q 14.796875 17.390625 18.875 11.75 
Q 22.953125 6.109375 30.078125 6.109375 
Q 37.203125 6.109375 41.296875 11.75 
Q 45.40625 17.390625 45.40625 27.296875 
Q 45.40625 37.203125 41.296875 42.84375 
Q 37.203125 48.484375 30.078125 48.484375 
Q 22.953125 48.484375 18.875 42.84375 
Q 14.796875 37.203125 14.796875 27.296875 
z
" id="DejaVuSans-100"/>
      </defs>
      <use xlink:href="#DejaVuSans-83"/>
      <use x="63.476562" xlink:href="#DejaVuSans-104"/>
      <use x="126.855469" xlink:href="#DejaVuSans-117"/>
      <use x="190.234375" xlink:href="#DejaVuSans-102"/>
      <use x="225.439453" xlink:href="#DejaVuSans-102"/>
      <use x="260.644531" xlink:href="#DejaVuSans-108"/>
      <use x="288.427734" xlink:href="#DejaVuSans-101"/>
      <use x="349.951172" xlink:href="#DejaVuSans-100"/>
     </g>
    </g>
   </g>
   <g id="PathCollection_1">
    <defs>
     <path d="M 0 3.383948 
C 0.897434 3.383948 1.758231 3.027394 2.392813 2.392813 
C 3.027394 1.758231 3.383948 0.897434 3.383948 0 
C 3.383948 -0.897434 3.027394 -1.758231 2.392813 -2.392813 
C 1.758231 -3.027394 0.897434 -3.383948 0 -3.383948 
C -0.897434 -3.383948 -1.758231 -3.027394 -2.392813 -2.392813 
C -3.027394 -1.758231 -3.383948 -0.897434 -3.383948 0 
C -3.383948 0.897434 -3.027394 1.758231 -2.392813 2.392813 
C -1.758231 3.027394 -0.897434 3.383948 0 3.383948 
z
" id="m3f7d58eff3" style="stroke:#d3d3d3;stroke-width:2.025;"/>
    </defs>
    <g clip-path="url(#pba48dcfdd7)">
     <use style="fill:#d3d3d3;stroke:#d3d3d3;stroke-width:2.025;" x="70.02766" xlink:href="#m3f7d58eff3" y="126.529431"/>
     <use style="fill:#d3d3d3;stroke:#d3d3d3;stroke-width:2.025;" x="105.644681" xlink:href="#m3f7d58eff3" y="114.132741"/>
     <use style="fill:#d3d3d3;stroke:#d3d3d3;stroke-width:2.025;" x="141.261702" xlink:href="#m3f7d58eff3" y="107.961755"/>
     <use style="fill:#d3d3d3;stroke:#d3d3d3;stroke-width:2.025;" x="176.878723" xlink:href="#m3f7d58eff3" y="102.62696"/>
     <use style="fill:#d3d3d3;stroke:#d3d3d3;stroke-width:2.025;" x="212.495745" xlink:href="#m3f7d58eff3" y="99.255959"/>
     <use style="fill:#d3d3d3;stroke:#d3d3d3;stroke-width:2.025;" x="248.112766" xlink:href="#m3f7d58eff3" y="97.67711"/>
     <use style="fill:#d3d3d3;stroke:#d3d3d3;stroke-width:2.025;" x="283.729787" xlink:href="#m3f7d58eff3" y="97.708748"/>
     <use style="fill:#d3d3d3;stroke:#d3d3d3;stroke-width:2.025;" x="319.346809" xlink:href="#m3f7d58eff3" y="100.300504"/>
     <use style="fill:#d3d3d3;stroke:#d3d3d3;stroke-width:2.025;" x="354.96383" xlink:href="#m3f7d58eff3" y="106.583763"/>
    </g>
   </g>
   <g id="PathCollection_2">
    <g clip-path="url(#pba48dcfdd7)">
     <use style="fill:#d3d3d3;stroke:#d3d3d3;stroke-width:2.025;" x="87.83617" xlink:href="#m3f7d58eff3" y="238.480832"/>
     <use style="fill:#d3d3d3;stroke:#d3d3d3;stroke-width:2.025;" x="123.453191" xlink:href="#m3f7d58eff3" y="237.585637"/>
     <use style="fill:#d3d3d3;stroke:#d3d3d3;stroke-width:2.025;" x="159.070213" xlink:href="#m3f7d58eff3" y="237.116287"/>
     <use style="fill:#d3d3d3;stroke:#d3d3d3;stroke-width:2.025;" x="194.687234" xlink:href="#m3f7d58eff3" y="236.601406"/>
     <use style="fill:#d3d3d3;stroke:#d3d3d3;stroke-width:2.025;" x="230.304255" xlink:href="#m3f7d58eff3" y="236.164916"/>
     <use style="fill:#d3d3d3;stroke:#d3d3d3;stroke-width:2.025;" x="265.921277" xlink:href="#m3f7d58eff3" y="235.81713"/>
     <use style="fill:#d3d3d3;stroke:#d3d3d3;stroke-width:2.025;" x="301.538298" xlink:href="#m3f7d58eff3" y="235.524832"/>
     <use style="fill:#d3d3d3;stroke:#d3d3d3;stroke-width:2.025;" x="337.155319" xlink:href="#m3f7d58eff3" y="235.519149"/>
     <use style="fill:#d3d3d3;stroke:#d3d3d3;stroke-width:2.025;" x="372.77234" xlink:href="#m3f7d58eff3" y="235.78286"/>
    </g>
   </g>
   <g id="line2d_18">
    <path clip-path="url(#pba48dcfdd7)" d="M 70.02766 126.529431 
L 105.644681 114.132741 
L 141.261702 107.961755 
L 176.878723 102.62696 
L 212.495745 99.255959 
L 248.112766 97.67711 
L 283.729787 97.708748 
L 319.346809 100.300504 
L 354.96383 106.583763 
" style="fill:none;stroke:#d3d3d3;stroke-linecap:square;stroke-width:2.7;"/>
   </g>
   <g id="line2d_19">
    <path clip-path="url(#pba48dcfdd7)" d="M 87.83617 238.480832 
L 123.453191 237.585637 
L 159.070213 237.116287 
L 194.687234 236.601406 
L 230.304255 236.164916 
L 265.921277 235.81713 
L 301.538298 235.524832 
L 337.155319 235.519149 
L 372.77234 235.78286 
" style="fill:none;stroke:#d3d3d3;stroke-linecap:square;stroke-width:2.7;"/>
   </g>
   <g id="line2d_20">
    <path clip-path="url(#pba48dcfdd7)" d="M 71.808511 134.208717 
L 71.808511 158.371209 
" style="fill:none;stroke:#4d4d4d;stroke-linecap:square;stroke-width:1.5;"/>
   </g>
   <g id="line2d_21">
    <path clip-path="url(#pba48dcfdd7)" d="M 71.808511 117.865998 
L 71.808511 98.421649 
" style="fill:none;stroke:#4d4d4d;stroke-linecap:square;stroke-width:1.5;"/>
   </g>
   <g id="line2d_22">
    <path clip-path="url(#pba48dcfdd7)" d="M 68.318043 158.371209 
L 75.298979 158.371209 
" style="fill:none;stroke:#4d4d4d;stroke-linecap:square;stroke-width:1.5;"/>
   </g>
   <g id="line2d_23">
    <path clip-path="url(#pba48dcfdd7)" d="M 68.318043 98.421649 
L 75.298979 98.421649 
" style="fill:none;stroke:#4d4d4d;stroke-linecap:square;stroke-width:1.5;"/>
   </g>
   <g id="line2d_24">
    <path clip-path="url(#pba48dcfdd7)" d="M 64.827574 125.624689 
L 78.789447 125.624689 
" style="fill:none;stroke:#4d4d4d;stroke-linecap:square;stroke-width:1.5;"/>
   </g>
   <g id="line2d_25">
    <defs>
     <path d="M 0 3.535534 
L 2.12132 0 
L 0 -3.535534 
L -2.12132 0 
z
" id="m3bc9f4be31" style="stroke:#4d4d4d;stroke-linejoin:miter;"/>
    </defs>
    <g clip-path="url(#pba48dcfdd7)">
     <use style="fill:#4d4d4d;stroke:#4d4d4d;stroke-linejoin:miter;" x="71.808511" xlink:href="#m3bc9f4be31" y="159.009617"/>
     <use style="fill:#4d4d4d;stroke:#4d4d4d;stroke-linejoin:miter;" x="71.808511" xlink:href="#m3bc9f4be31" y="180.568562"/>
     <use style="fill:#4d4d4d;stroke:#4d4d4d;stroke-linejoin:miter;" x="71.808511" xlink:href="#m3bc9f4be31" y="171.625356"/>
     <use style="fill:#4d4d4d;stroke:#4d4d4d;stroke-linejoin:miter;" x="71.808511" xlink:href="#m3bc9f4be31" y="161.059974"/>
     <use style="fill:#4d4d4d;stroke:#4d4d4d;stroke-linejoin:miter;" x="71.808511" xlink:href="#m3bc9f4be31" y="171.655721"/>
    </g>
   </g>
   <g id="line2d_26">
    <path clip-path="url(#pba48dcfdd7)" d="M 86.055319 239.678296 
L 86.055319 242.351848 
" style="fill:none;stroke:#4d4d4d;stroke-linecap:square;stroke-width:1.5;"/>
   </g>
   <g id="line2d_27">
    <path clip-path="url(#pba48dcfdd7)" d="M 86.055319 237.423182 
L 86.055319 234.130224 
" style="fill:none;stroke:#4d4d4d;stroke-linecap:square;stroke-width:1.5;"/>
   </g>
   <g id="line2d_28">
    <path clip-path="url(#pba48dcfdd7)" d="M 82.564851 242.351848 
L 89.545787 242.351848 
" style="fill:none;stroke:#4d4d4d;stroke-linecap:square;stroke-width:1.5;"/>
   </g>
   <g id="line2d_29">
    <path clip-path="url(#pba48dcfdd7)" d="M 82.564851 234.130224 
L 89.545787 234.130224 
" style="fill:none;stroke:#4d4d4d;stroke-linecap:square;stroke-width:1.5;"/>
   </g>
   <g id="line2d_30">
    <path clip-path="url(#pba48dcfdd7)" d="M 79.074383 238.5824 
L 93.036255 238.5824 
" style="fill:none;stroke:#4d4d4d;stroke-linecap:square;stroke-width:1.5;"/>
   </g>
   <g id="line2d_31">
    <g clip-path="url(#pba48dcfdd7)">
     <use style="fill:#4d4d4d;stroke:#4d4d4d;stroke-linejoin:miter;" x="86.055319" xlink:href="#m3bc9f4be31" y="244.07709"/>
     <use style="fill:#4d4d4d;stroke:#4d4d4d;stroke-linejoin:miter;" x="86.055319" xlink:href="#m3bc9f4be31" y="232.981362"/>
     <use style="fill:#4d4d4d;stroke:#4d4d4d;stroke-linejoin:miter;" x="86.055319" xlink:href="#m3bc9f4be31" y="233.645897"/>
    </g>
   </g>
   <g id="line2d_32">
    <path clip-path="url(#pba48dcfdd7)" d="M 107.425532 119.247724 
L 107.425532 134.718606 
" style="fill:none;stroke:#4d4d4d;stroke-linecap:square;stroke-width:1.5;"/>
   </g>
   <g id="line2d_33">
    <path clip-path="url(#pba48dcfdd7)" d="M 107.425532 108.908645 
L 107.425532 94.035384 
" style="fill:none;stroke:#4d4d4d;stroke-linecap:square;stroke-width:1.5;"/>
   </g>
   <g id="line2d_34">
    <path clip-path="url(#pba48dcfdd7)" d="M 103.935064 134.718606 
L 110.916 134.718606 
" style="fill:none;stroke:#4d4d4d;stroke-linecap:square;stroke-width:1.5;"/>
   </g>
   <g id="line2d_35">
    <path clip-path="url(#pba48dcfdd7)" d="M 103.935064 94.035384 
L 110.916 94.035384 
" style="fill:none;stroke:#4d4d4d;stroke-linecap:square;stroke-width:1.5;"/>
   </g>
   <g id="line2d_36">
    <path clip-path="url(#pba48dcfdd7)" d="M 100.444596 113.851394 
L 114.406468 113.851394 
" style="fill:none;stroke:#4d4d4d;stroke-linecap:square;stroke-width:1.5;"/>
   </g>
   <g id="line2d_37">
    <g clip-path="url(#pba48dcfdd7)">
     <use style="fill:#4d4d4d;stroke:#4d4d4d;stroke-linejoin:miter;" x="107.425532" xlink:href="#m3bc9f4be31" y="135.451514"/>
     <use style="fill:#4d4d4d;stroke:#4d4d4d;stroke-linejoin:miter;" x="107.425532" xlink:href="#m3bc9f4be31" y="139.380147"/>
     <use style="fill:#4d4d4d;stroke:#4d4d4d;stroke-linejoin:miter;" x="107.425532" xlink:href="#m3bc9f4be31" y="135.862598"/>
     <use style="fill:#4d4d4d;stroke:#4d4d4d;stroke-linejoin:miter;" x="107.425532" xlink:href="#m3bc9f4be31" y="139.967116"/>
     <use style="fill:#4d4d4d;stroke:#4d4d4d;stroke-linejoin:miter;" x="107.425532" xlink:href="#m3bc9f4be31" y="138.541101"/>
    </g>
   </g>
   <g id="line2d_38">
    <path clip-path="url(#pba48dcfdd7)" d="M 121.67234 238.543598 
L 121.67234 241.337907 
" style="fill:none;stroke:#4d4d4d;stroke-linecap:square;stroke-width:1.5;"/>
   </g>
   <g id="line2d_39">
    <path clip-path="url(#pba48dcfdd7)" d="M 121.67234 236.645564 
L 121.67234 233.86784 
" style="fill:none;stroke:#4d4d4d;stroke-linecap:square;stroke-width:1.5;"/>
   </g>
   <g id="line2d_40">
    <path clip-path="url(#pba48dcfdd7)" d="M 118.181872 241.337907 
L 125.162809 241.337907 
" style="fill:none;stroke:#4d4d4d;stroke-linecap:square;stroke-width:1.5;"/>
   </g>
   <g id="line2d_41">
    <path clip-path="url(#pba48dcfdd7)" d="M 118.181872 233.86784 
L 125.162809 233.86784 
" style="fill:none;stroke:#4d4d4d;stroke-linecap:square;stroke-width:1.5;"/>
   </g>
   <g id="line2d_42">
    <path clip-path="url(#pba48dcfdd7)" d="M 114.691404 237.796122 
L 128.653277 237.796122 
" style="fill:none;stroke:#4d4d4d;stroke-linecap:square;stroke-width:1.5;"/>
   </g>
   <g id="line2d_43">
    <g clip-path="url(#pba48dcfdd7)">
     <use style="fill:#4d4d4d;stroke:#4d4d4d;stroke-linejoin:miter;" x="121.67234" xlink:href="#m3bc9f4be31" y="241.606215"/>
     <use style="fill:#4d4d4d;stroke:#4d4d4d;stroke-linejoin:miter;" x="121.67234" xlink:href="#m3bc9f4be31" y="233.740477"/>
     <use style="fill:#4d4d4d;stroke:#4d4d4d;stroke-linejoin:miter;" x="121.67234" xlink:href="#m3bc9f4be31" y="233.594526"/>
     <use style="fill:#4d4d4d;stroke:#4d4d4d;stroke-linejoin:miter;" x="121.67234" xlink:href="#m3bc9f4be31" y="233.619607"/>
    </g>
   </g>
   <g id="line2d_44">
    <path clip-path="url(#pba48dcfdd7)" d="M 143.042553 111.988551 
L 143.042553 124.574816 
" style="fill:none;stroke:#4d4d4d;stroke-linecap:square;stroke-width:1.5;"/>
   </g>
   <g id="line2d_45">
    <path clip-path="url(#pba48dcfdd7)" d="M 143.042553 102.935421 
L 143.042553 90.705531 
" style="fill:none;stroke:#4d4d4d;stroke-linecap:square;stroke-width:1.5;"/>
   </g>
   <g id="line2d_46">
    <path clip-path="url(#pba48dcfdd7)" d="M 139.552085 124.574816 
L 146.533021 124.574816 
" style="fill:none;stroke:#4d4d4d;stroke-linecap:square;stroke-width:1.5;"/>
   </g>
   <g id="line2d_47">
    <path clip-path="url(#pba48dcfdd7)" d="M 139.552085 90.705531 
L 146.533021 90.705531 
" style="fill:none;stroke:#4d4d4d;stroke-linecap:square;stroke-width:1.5;"/>
   </g>
   <g id="line2d_48">
    <path clip-path="url(#pba48dcfdd7)" d="M 136.061617 107.916519 
L 150.023489 107.916519 
" style="fill:none;stroke:#4d4d4d;stroke-linecap:square;stroke-width:1.5;"/>
   </g>
   <g id="line2d_49">
    <g clip-path="url(#pba48dcfdd7)">
     <use style="fill:#4d4d4d;stroke:#4d4d4d;stroke-linejoin:miter;" x="143.042553" xlink:href="#m3bc9f4be31" y="128.977144"/>
     <use style="fill:#4d4d4d;stroke:#4d4d4d;stroke-linejoin:miter;" x="143.042553" xlink:href="#m3bc9f4be31" y="129.231674"/>
     <use style="fill:#4d4d4d;stroke:#4d4d4d;stroke-linejoin:miter;" x="143.042553" xlink:href="#m3bc9f4be31" y="135.017879"/>
     <use style="fill:#4d4d4d;stroke:#4d4d4d;stroke-linejoin:miter;" x="143.042553" xlink:href="#m3bc9f4be31" y="126.74536"/>
     <use style="fill:#4d4d4d;stroke:#4d4d4d;stroke-linejoin:miter;" x="143.042553" xlink:href="#m3bc9f4be31" y="129.726003"/>
     <use style="fill:#4d4d4d;stroke:#4d4d4d;stroke-linejoin:miter;" x="143.042553" xlink:href="#m3bc9f4be31" y="126.252545"/>
    </g>
   </g>
   <g id="line2d_50">
    <path clip-path="url(#pba48dcfdd7)" d="M 157.289362 238.181574 
L 157.289362 240.6055 
" style="fill:none;stroke:#4d4d4d;stroke-linecap:square;stroke-width:1.5;"/>
   </g>
   <g id="line2d_51">
    <path clip-path="url(#pba48dcfdd7)" d="M 157.289362 236.067913 
L 157.289362 232.905041 
" style="fill:none;stroke:#4d4d4d;stroke-linecap:square;stroke-width:1.5;"/>
   </g>
   <g id="line2d_52">
    <path clip-path="url(#pba48dcfdd7)" d="M 153.798894 240.6055 
L 160.77983 240.6055 
" style="fill:none;stroke:#4d4d4d;stroke-linecap:square;stroke-width:1.5;"/>
   </g>
   <g id="line2d_53">
    <path clip-path="url(#pba48dcfdd7)" d="M 153.798894 232.905041 
L 160.77983 232.905041 
" style="fill:none;stroke:#4d4d4d;stroke-linecap:square;stroke-width:1.5;"/>
   </g>
   <g id="line2d_54">
    <path clip-path="url(#pba48dcfdd7)" d="M 150.308426 237.30549 
L 164.270298 237.30549 
" style="fill:none;stroke:#4d4d4d;stroke-linecap:square;stroke-width:1.5;"/>
   </g>
   <g id="line2d_55">
    <g clip-path="url(#pba48dcfdd7)">
     <use style="fill:#4d4d4d;stroke:#4d4d4d;stroke-linejoin:miter;" x="157.289362" xlink:href="#m3bc9f4be31" y="232.293371"/>
    </g>
   </g>
   <g id="line2d_56">
    <path clip-path="url(#pba48dcfdd7)" d="M 178.659574 106.425443 
L 178.659574 118.32953 
" style="fill:none;stroke:#4d4d4d;stroke-linecap:square;stroke-width:1.5;"/>
   </g>
   <g id="line2d_57">
    <path clip-path="url(#pba48dcfdd7)" d="M 178.659574 98.463475 
L 178.659574 88.799618 
" style="fill:none;stroke:#4d4d4d;stroke-linecap:square;stroke-width:1.5;"/>
   </g>
   <g id="line2d_58">
    <path clip-path="url(#pba48dcfdd7)" d="M 175.169106 118.32953 
L 182.150043 118.32953 
" style="fill:none;stroke:#4d4d4d;stroke-linecap:square;stroke-width:1.5;"/>
   </g>
   <g id="line2d_59">
    <path clip-path="url(#pba48dcfdd7)" d="M 175.169106 88.799618 
L 182.150043 88.799618 
" style="fill:none;stroke:#4d4d4d;stroke-linecap:square;stroke-width:1.5;"/>
   </g>
   <g id="line2d_60">
    <path clip-path="url(#pba48dcfdd7)" d="M 171.678638 102.245273 
L 185.640511 102.245273 
" style="fill:none;stroke:#4d4d4d;stroke-linecap:square;stroke-width:1.5;"/>
   </g>
   <g id="line2d_61">
    <g clip-path="url(#pba48dcfdd7)">
     <use style="fill:#4d4d4d;stroke:#4d4d4d;stroke-linejoin:miter;" x="178.659574" xlink:href="#m3bc9f4be31" y="121.975748"/>
     <use style="fill:#4d4d4d;stroke:#4d4d4d;stroke-linejoin:miter;" x="178.659574" xlink:href="#m3bc9f4be31" y="121.253908"/>
     <use style="fill:#4d4d4d;stroke:#4d4d4d;stroke-linejoin:miter;" x="178.659574" xlink:href="#m3bc9f4be31" y="119.719004"/>
     <use style="fill:#4d4d4d;stroke:#4d4d4d;stroke-linejoin:miter;" x="178.659574" xlink:href="#m3bc9f4be31" y="85.618892"/>
    </g>
   </g>
   <g id="line2d_62">
    <path clip-path="url(#pba48dcfdd7)" d="M 192.906383 237.679846 
L 192.906383 240.066952 
" style="fill:none;stroke:#4d4d4d;stroke-linecap:square;stroke-width:1.5;"/>
   </g>
   <g id="line2d_63">
    <path clip-path="url(#pba48dcfdd7)" d="M 192.906383 235.704857 
L 192.906383 232.830273 
" style="fill:none;stroke:#4d4d4d;stroke-linecap:square;stroke-width:1.5;"/>
   </g>
   <g id="line2d_64">
    <path clip-path="url(#pba48dcfdd7)" d="M 189.415915 240.066952 
L 196.396851 240.066952 
" style="fill:none;stroke:#4d4d4d;stroke-linecap:square;stroke-width:1.5;"/>
   </g>
   <g id="line2d_65">
    <path clip-path="url(#pba48dcfdd7)" d="M 189.415915 232.830273 
L 196.396851 232.830273 
" style="fill:none;stroke:#4d4d4d;stroke-linecap:square;stroke-width:1.5;"/>
   </g>
   <g id="line2d_66">
    <path clip-path="url(#pba48dcfdd7)" d="M 185.925447 236.761117 
L 199.887319 236.761117 
" style="fill:none;stroke:#4d4d4d;stroke-linecap:square;stroke-width:1.5;"/>
   </g>
   <g id="line2d_67">
    <g clip-path="url(#pba48dcfdd7)">
     <use style="fill:#4d4d4d;stroke:#4d4d4d;stroke-linejoin:miter;" x="192.906383" xlink:href="#m3bc9f4be31" y="232.384225"/>
     <use style="fill:#4d4d4d;stroke:#4d4d4d;stroke-linejoin:miter;" x="192.906383" xlink:href="#m3bc9f4be31" y="232.524323"/>
     <use style="fill:#4d4d4d;stroke:#4d4d4d;stroke-linejoin:miter;" x="192.906383" xlink:href="#m3bc9f4be31" y="232.710576"/>
    </g>
   </g>
   <g id="line2d_68">
    <path clip-path="url(#pba48dcfdd7)" d="M 214.276596 102.406838 
L 214.276596 112.498681 
" style="fill:none;stroke:#4d4d4d;stroke-linecap:square;stroke-width:1.5;"/>
   </g>
   <g id="line2d_69">
    <path clip-path="url(#pba48dcfdd7)" d="M 214.276596 95.567536 
L 214.276596 86.103726 
" style="fill:none;stroke:#4d4d4d;stroke-linecap:square;stroke-width:1.5;"/>
   </g>
   <g id="line2d_70">
    <path clip-path="url(#pba48dcfdd7)" d="M 210.786128 112.498681 
L 217.767064 112.498681 
" style="fill:none;stroke:#4d4d4d;stroke-linecap:square;stroke-width:1.5;"/>
   </g>
   <g id="line2d_71">
    <path clip-path="url(#pba48dcfdd7)" d="M 210.786128 86.103726 
L 217.767064 86.103726 
" style="fill:none;stroke:#4d4d4d;stroke-linecap:square;stroke-width:1.5;"/>
   </g>
   <g id="line2d_72">
    <path clip-path="url(#pba48dcfdd7)" d="M 207.29566 98.875725 
L 221.257532 98.875725 
" style="fill:none;stroke:#4d4d4d;stroke-linecap:square;stroke-width:1.5;"/>
   </g>
   <g id="line2d_73">
    <g clip-path="url(#pba48dcfdd7)">
     <use style="fill:#4d4d4d;stroke:#4d4d4d;stroke-linejoin:miter;" x="214.276596" xlink:href="#m3bc9f4be31" y="119.920635"/>
     <use style="fill:#4d4d4d;stroke:#4d4d4d;stroke-linejoin:miter;" x="214.276596" xlink:href="#m3bc9f4be31" y="116.994429"/>
     <use style="fill:#4d4d4d;stroke:#4d4d4d;stroke-linejoin:miter;" x="214.276596" xlink:href="#m3bc9f4be31" y="118.111204"/>
     <use style="fill:#4d4d4d;stroke:#4d4d4d;stroke-linejoin:miter;" x="214.276596" xlink:href="#m3bc9f4be31" y="114.116238"/>
     <use style="fill:#4d4d4d;stroke:#4d4d4d;stroke-linejoin:miter;" x="214.276596" xlink:href="#m3bc9f4be31" y="116.094379"/>
     <use style="fill:#4d4d4d;stroke:#4d4d4d;stroke-linejoin:miter;" x="214.276596" xlink:href="#m3bc9f4be31" y="113.32485"/>
    </g>
   </g>
   <g id="line2d_74">
    <path clip-path="url(#pba48dcfdd7)" d="M 228.523404 237.244516 
L 228.523404 239.614482 
" style="fill:none;stroke:#4d4d4d;stroke-linecap:square;stroke-width:1.5;"/>
   </g>
   <g id="line2d_75">
    <path clip-path="url(#pba48dcfdd7)" d="M 228.523404 235.26545 
L 228.523404 232.370077 
" style="fill:none;stroke:#4d4d4d;stroke-linecap:square;stroke-width:1.5;"/>
   </g>
   <g id="line2d_76">
    <path clip-path="url(#pba48dcfdd7)" d="M 225.032936 239.614482 
L 232.013872 239.614482 
" style="fill:none;stroke:#4d4d4d;stroke-linecap:square;stroke-width:1.5;"/>
   </g>
   <g id="line2d_77">
    <path clip-path="url(#pba48dcfdd7)" d="M 225.032936 232.370077 
L 232.013872 232.370077 
" style="fill:none;stroke:#4d4d4d;stroke-linecap:square;stroke-width:1.5;"/>
   </g>
   <g id="line2d_78">
    <path clip-path="url(#pba48dcfdd7)" d="M 221.542468 236.336155 
L 235.50434 236.336155 
" style="fill:none;stroke:#4d4d4d;stroke-linecap:square;stroke-width:1.5;"/>
   </g>
   <g id="line2d_79">
    <g clip-path="url(#pba48dcfdd7)">
     <use style="fill:#4d4d4d;stroke:#4d4d4d;stroke-linejoin:miter;" x="228.523404" xlink:href="#m3bc9f4be31" y="232.293775"/>
     <use style="fill:#4d4d4d;stroke:#4d4d4d;stroke-linejoin:miter;" x="228.523404" xlink:href="#m3bc9f4be31" y="231.949825"/>
    </g>
   </g>
   <g id="line2d_80">
    <path clip-path="url(#pba48dcfdd7)" d="M 249.893617 100.565575 
L 249.893617 109.601148 
" style="fill:none;stroke:#4d4d4d;stroke-linecap:square;stroke-width:1.5;"/>
   </g>
   <g id="line2d_81">
    <path clip-path="url(#pba48dcfdd7)" d="M 249.893617 94.461774 
L 249.893617 87.326974 
" style="fill:none;stroke:#4d4d4d;stroke-linecap:square;stroke-width:1.5;"/>
   </g>
   <g id="line2d_82">
    <path clip-path="url(#pba48dcfdd7)" d="M 246.403149 109.601148 
L 253.384085 109.601148 
" style="fill:none;stroke:#4d4d4d;stroke-linecap:square;stroke-width:1.5;"/>
   </g>
   <g id="line2d_83">
    <path clip-path="url(#pba48dcfdd7)" d="M 246.403149 87.326974 
L 253.384085 87.326974 
" style="fill:none;stroke:#4d4d4d;stroke-linecap:square;stroke-width:1.5;"/>
   </g>
   <g id="line2d_84">
    <path clip-path="url(#pba48dcfdd7)" d="M 242.912681 97.379735 
L 256.874553 97.379735 
" style="fill:none;stroke:#4d4d4d;stroke-linecap:square;stroke-width:1.5;"/>
   </g>
   <g id="line2d_85">
    <g clip-path="url(#pba48dcfdd7)">
     <use style="fill:#4d4d4d;stroke:#4d4d4d;stroke-linejoin:miter;" x="249.893617" xlink:href="#m3bc9f4be31" y="114.190872"/>
     <use style="fill:#4d4d4d;stroke:#4d4d4d;stroke-linejoin:miter;" x="249.893617" xlink:href="#m3bc9f4be31" y="111.77362"/>
     <use style="fill:#4d4d4d;stroke:#4d4d4d;stroke-linejoin:miter;" x="249.893617" xlink:href="#m3bc9f4be31" y="117.805116"/>
     <use style="fill:#4d4d4d;stroke:#4d4d4d;stroke-linejoin:miter;" x="249.893617" xlink:href="#m3bc9f4be31" y="111.572924"/>
     <use style="fill:#4d4d4d;stroke:#4d4d4d;stroke-linejoin:miter;" x="249.893617" xlink:href="#m3bc9f4be31" y="109.841271"/>
     <use style="fill:#4d4d4d;stroke:#4d4d4d;stroke-linejoin:miter;" x="249.893617" xlink:href="#m3bc9f4be31" y="110.89432"/>
     <use style="fill:#4d4d4d;stroke:#4d4d4d;stroke-linejoin:miter;" x="249.893617" xlink:href="#m3bc9f4be31" y="111.801041"/>
     <use style="fill:#4d4d4d;stroke:#4d4d4d;stroke-linejoin:miter;" x="249.893617" xlink:href="#m3bc9f4be31" y="111.087412"/>
     <use style="fill:#4d4d4d;stroke:#4d4d4d;stroke-linejoin:miter;" x="249.893617" xlink:href="#m3bc9f4be31" y="114.233836"/>
     <use style="fill:#4d4d4d;stroke:#4d4d4d;stroke-linejoin:miter;" x="249.893617" xlink:href="#m3bc9f4be31" y="110.115251"/>
     <use style="fill:#4d4d4d;stroke:#4d4d4d;stroke-linejoin:miter;" x="249.893617" xlink:href="#m3bc9f4be31" y="111.967759"/>
    </g>
   </g>
   <g id="line2d_86">
    <path clip-path="url(#pba48dcfdd7)" d="M 264.140426 237.054289 
L 264.140426 239.86206 
" style="fill:none;stroke:#4d4d4d;stroke-linecap:square;stroke-width:1.5;"/>
   </g>
   <g id="line2d_87">
    <path clip-path="url(#pba48dcfdd7)" d="M 264.140426 234.934633 
L 264.140426 231.820303 
" style="fill:none;stroke:#4d4d4d;stroke-linecap:square;stroke-width:1.5;"/>
   </g>
   <g id="line2d_88">
    <path clip-path="url(#pba48dcfdd7)" d="M 260.649957 239.86206 
L 267.630894 239.86206 
" style="fill:none;stroke:#4d4d4d;stroke-linecap:square;stroke-width:1.5;"/>
   </g>
   <g id="line2d_89">
    <path clip-path="url(#pba48dcfdd7)" d="M 260.649957 231.820303 
L 267.630894 231.820303 
" style="fill:none;stroke:#4d4d4d;stroke-linecap:square;stroke-width:1.5;"/>
   </g>
   <g id="line2d_90">
    <path clip-path="url(#pba48dcfdd7)" d="M 257.159489 236.056013 
L 271.121362 236.056013 
" style="fill:none;stroke:#4d4d4d;stroke-linecap:square;stroke-width:1.5;"/>
   </g>
   <g id="line2d_91">
    <g clip-path="url(#pba48dcfdd7)">
     <use style="fill:#4d4d4d;stroke:#4d4d4d;stroke-linejoin:miter;" x="264.140426" xlink:href="#m3bc9f4be31" y="231.310666"/>
     <use style="fill:#4d4d4d;stroke:#4d4d4d;stroke-linejoin:miter;" x="264.140426" xlink:href="#m3bc9f4be31" y="231.549687"/>
     <use style="fill:#4d4d4d;stroke:#4d4d4d;stroke-linejoin:miter;" x="264.140426" xlink:href="#m3bc9f4be31" y="231.652787"/>
     <use style="fill:#4d4d4d;stroke:#4d4d4d;stroke-linejoin:miter;" x="264.140426" xlink:href="#m3bc9f4be31" y="231.692384"/>
     <use style="fill:#4d4d4d;stroke:#4d4d4d;stroke-linejoin:miter;" x="264.140426" xlink:href="#m3bc9f4be31" y="231.671779"/>
     <use style="fill:#4d4d4d;stroke:#4d4d4d;stroke-linejoin:miter;" x="264.140426" xlink:href="#m3bc9f4be31" y="231.385141"/>
    </g>
   </g>
   <g id="line2d_92">
    <path clip-path="url(#pba48dcfdd7)" d="M 285.510638 100.763437 
L 285.510638 110.025904 
" style="fill:none;stroke:#4d4d4d;stroke-linecap:square;stroke-width:1.5;"/>
   </g>
   <g id="line2d_93">
    <path clip-path="url(#pba48dcfdd7)" d="M 285.510638 94.0473 
L 285.510638 86.806903 
" style="fill:none;stroke:#4d4d4d;stroke-linecap:square;stroke-width:1.5;"/>
   </g>
   <g id="line2d_94">
    <path clip-path="url(#pba48dcfdd7)" d="M 282.02017 110.025904 
L 289.001106 110.025904 
" style="fill:none;stroke:#4d4d4d;stroke-linecap:square;stroke-width:1.5;"/>
   </g>
   <g id="line2d_95">
    <path clip-path="url(#pba48dcfdd7)" d="M 282.02017 86.806903 
L 289.001106 86.806903 
" style="fill:none;stroke:#4d4d4d;stroke-linecap:square;stroke-width:1.5;"/>
   </g>
   <g id="line2d_96">
    <path clip-path="url(#pba48dcfdd7)" d="M 278.529702 97.620771 
L 292.491574 97.620771 
" style="fill:none;stroke:#4d4d4d;stroke-linecap:square;stroke-width:1.5;"/>
   </g>
   <g id="line2d_97">
    <g clip-path="url(#pba48dcfdd7)">
     <use style="fill:#4d4d4d;stroke:#4d4d4d;stroke-linejoin:miter;" x="285.510638" xlink:href="#m3bc9f4be31" y="113.890398"/>
     <use style="fill:#4d4d4d;stroke:#4d4d4d;stroke-linejoin:miter;" x="285.510638" xlink:href="#m3bc9f4be31" y="116.50935"/>
     <use style="fill:#4d4d4d;stroke:#4d4d4d;stroke-linejoin:miter;" x="285.510638" xlink:href="#m3bc9f4be31" y="118.858628"/>
     <use style="fill:#4d4d4d;stroke:#4d4d4d;stroke-linejoin:miter;" x="285.510638" xlink:href="#m3bc9f4be31" y="112.456014"/>
     <use style="fill:#4d4d4d;stroke:#4d4d4d;stroke-linejoin:miter;" x="285.510638" xlink:href="#m3bc9f4be31" y="112.437702"/>
    </g>
   </g>
   <g id="line2d_98">
    <path clip-path="url(#pba48dcfdd7)" d="M 299.757447 236.748879 
L 299.757447 239.205415 
" style="fill:none;stroke:#4d4d4d;stroke-linecap:square;stroke-width:1.5;"/>
   </g>
   <g id="line2d_99">
    <path clip-path="url(#pba48dcfdd7)" d="M 299.757447 234.653087 
L 299.757447 231.624282 
" style="fill:none;stroke:#4d4d4d;stroke-linecap:square;stroke-width:1.5;"/>
   </g>
   <g id="line2d_100">
    <path clip-path="url(#pba48dcfdd7)" d="M 296.266979 239.205415 
L 303.247915 239.205415 
" style="fill:none;stroke:#4d4d4d;stroke-linecap:square;stroke-width:1.5;"/>
   </g>
   <g id="line2d_101">
    <path clip-path="url(#pba48dcfdd7)" d="M 296.266979 231.624282 
L 303.247915 231.624282 
" style="fill:none;stroke:#4d4d4d;stroke-linecap:square;stroke-width:1.5;"/>
   </g>
   <g id="line2d_102">
    <path clip-path="url(#pba48dcfdd7)" d="M 292.776511 235.803376 
L 306.738383 235.803376 
" style="fill:none;stroke:#4d4d4d;stroke-linecap:square;stroke-width:1.5;"/>
   </g>
   <g id="line2d_103">
    <g clip-path="url(#pba48dcfdd7)">
     <use style="fill:#4d4d4d;stroke:#4d4d4d;stroke-linejoin:miter;" x="299.757447" xlink:href="#m3bc9f4be31" y="230.313289"/>
     <use style="fill:#4d4d4d;stroke:#4d4d4d;stroke-linejoin:miter;" x="299.757447" xlink:href="#m3bc9f4be31" y="231.444053"/>
     <use style="fill:#4d4d4d;stroke:#4d4d4d;stroke-linejoin:miter;" x="299.757447" xlink:href="#m3bc9f4be31" y="230.64643"/>
     <use style="fill:#4d4d4d;stroke:#4d4d4d;stroke-linejoin:miter;" x="299.757447" xlink:href="#m3bc9f4be31" y="231.059523"/>
     <use style="fill:#4d4d4d;stroke:#4d4d4d;stroke-linejoin:miter;" x="299.757447" xlink:href="#m3bc9f4be31" y="231.241719"/>
     <use style="fill:#4d4d4d;stroke:#4d4d4d;stroke-linejoin:miter;" x="299.757447" xlink:href="#m3bc9f4be31" y="231.036523"/>
     <use style="fill:#4d4d4d;stroke:#4d4d4d;stroke-linejoin:miter;" x="299.757447" xlink:href="#m3bc9f4be31" y="231.076231"/>
     <use style="fill:#4d4d4d;stroke:#4d4d4d;stroke-linejoin:miter;" x="299.757447" xlink:href="#m3bc9f4be31" y="231.277292"/>
     <use style="fill:#4d4d4d;stroke:#4d4d4d;stroke-linejoin:miter;" x="299.757447" xlink:href="#m3bc9f4be31" y="231.33212"/>
    </g>
   </g>
   <g id="line2d_104">
    <path clip-path="url(#pba48dcfdd7)" d="M 321.12766 103.542388 
L 321.12766 114.442041 
" style="fill:none;stroke:#4d4d4d;stroke-linecap:square;stroke-width:1.5;"/>
   </g>
   <g id="line2d_105">
    <path clip-path="url(#pba48dcfdd7)" d="M 321.12766 95.97296 
L 321.12766 85.872472 
" style="fill:none;stroke:#4d4d4d;stroke-linecap:square;stroke-width:1.5;"/>
   </g>
   <g id="line2d_106">
    <path clip-path="url(#pba48dcfdd7)" d="M 317.637191 114.442041 
L 324.618128 114.442041 
" style="fill:none;stroke:#4d4d4d;stroke-linecap:square;stroke-width:1.5;"/>
   </g>
   <g id="line2d_107">
    <path clip-path="url(#pba48dcfdd7)" d="M 317.637191 85.872472 
L 324.618128 85.872472 
" style="fill:none;stroke:#4d4d4d;stroke-linecap:square;stroke-width:1.5;"/>
   </g>
   <g id="line2d_108">
    <path clip-path="url(#pba48dcfdd7)" d="M 314.146723 99.206607 
L 328.108596 99.206607 
" style="fill:none;stroke:#4d4d4d;stroke-linecap:square;stroke-width:1.5;"/>
   </g>
   <g id="line2d_109">
    <g clip-path="url(#pba48dcfdd7)">
     <use style="fill:#4d4d4d;stroke:#4d4d4d;stroke-linejoin:miter;" x="321.12766" xlink:href="#m3bc9f4be31" y="126.405514"/>
     <use style="fill:#4d4d4d;stroke:#4d4d4d;stroke-linejoin:miter;" x="321.12766" xlink:href="#m3bc9f4be31" y="118.77923"/>
     <use style="fill:#4d4d4d;stroke:#4d4d4d;stroke-linejoin:miter;" x="321.12766" xlink:href="#m3bc9f4be31" y="116.023512"/>
     <use style="fill:#4d4d4d;stroke:#4d4d4d;stroke-linejoin:miter;" x="321.12766" xlink:href="#m3bc9f4be31" y="119.557321"/>
     <use style="fill:#4d4d4d;stroke:#4d4d4d;stroke-linejoin:miter;" x="321.12766" xlink:href="#m3bc9f4be31" y="120.034233"/>
     <use style="fill:#4d4d4d;stroke:#4d4d4d;stroke-linejoin:miter;" x="321.12766" xlink:href="#m3bc9f4be31" y="116.05033"/>
     <use style="fill:#4d4d4d;stroke:#4d4d4d;stroke-linejoin:miter;" x="321.12766" xlink:href="#m3bc9f4be31" y="129.859447"/>
     <use style="fill:#4d4d4d;stroke:#4d4d4d;stroke-linejoin:miter;" x="321.12766" xlink:href="#m3bc9f4be31" y="117.293482"/>
     <use style="fill:#4d4d4d;stroke:#4d4d4d;stroke-linejoin:miter;" x="321.12766" xlink:href="#m3bc9f4be31" y="116.613926"/>
     <use style="fill:#4d4d4d;stroke:#4d4d4d;stroke-linejoin:miter;" x="321.12766" xlink:href="#m3bc9f4be31" y="153.385898"/>
    </g>
   </g>
   <g id="line2d_110">
    <path clip-path="url(#pba48dcfdd7)" d="M 335.374468 236.639641 
L 335.374468 238.85178 
" style="fill:none;stroke:#4d4d4d;stroke-linecap:square;stroke-width:1.5;"/>
   </g>
   <g id="line2d_111">
    <path clip-path="url(#pba48dcfdd7)" d="M 335.374468 234.720066 
L 335.374468 231.84208 
" style="fill:none;stroke:#4d4d4d;stroke-linecap:square;stroke-width:1.5;"/>
   </g>
   <g id="line2d_112">
    <path clip-path="url(#pba48dcfdd7)" d="M 331.884 238.85178 
L 338.864936 238.85178 
" style="fill:none;stroke:#4d4d4d;stroke-linecap:square;stroke-width:1.5;"/>
   </g>
   <g id="line2d_113">
    <path clip-path="url(#pba48dcfdd7)" d="M 331.884 231.84208 
L 338.864936 231.84208 
" style="fill:none;stroke:#4d4d4d;stroke-linecap:square;stroke-width:1.5;"/>
   </g>
   <g id="line2d_114">
    <path clip-path="url(#pba48dcfdd7)" d="M 328.393532 235.824602 
L 342.355404 235.824602 
" style="fill:none;stroke:#4d4d4d;stroke-linecap:square;stroke-width:1.5;"/>
   </g>
   <g id="line2d_115">
    <g clip-path="url(#pba48dcfdd7)">
     <use style="fill:#4d4d4d;stroke:#4d4d4d;stroke-linejoin:miter;" x="335.374468" xlink:href="#m3bc9f4be31" y="241.471021"/>
     <use style="fill:#4d4d4d;stroke:#4d4d4d;stroke-linejoin:miter;" x="335.374468" xlink:href="#m3bc9f4be31" y="231.541528"/>
     <use style="fill:#4d4d4d;stroke:#4d4d4d;stroke-linejoin:miter;" x="335.374468" xlink:href="#m3bc9f4be31" y="231.795757"/>
     <use style="fill:#4d4d4d;stroke:#4d4d4d;stroke-linejoin:miter;" x="335.374468" xlink:href="#m3bc9f4be31" y="230.496865"/>
     <use style="fill:#4d4d4d;stroke:#4d4d4d;stroke-linejoin:miter;" x="335.374468" xlink:href="#m3bc9f4be31" y="231.698063"/>
     <use style="fill:#4d4d4d;stroke:#4d4d4d;stroke-linejoin:miter;" x="335.374468" xlink:href="#m3bc9f4be31" y="230.514754"/>
     <use style="fill:#4d4d4d;stroke:#4d4d4d;stroke-linejoin:miter;" x="335.374468" xlink:href="#m3bc9f4be31" y="231.355763"/>
     <use style="fill:#4d4d4d;stroke:#4d4d4d;stroke-linejoin:miter;" x="335.374468" xlink:href="#m3bc9f4be31" y="231.188519"/>
     <use style="fill:#4d4d4d;stroke:#4d4d4d;stroke-linejoin:miter;" x="335.374468" xlink:href="#m3bc9f4be31" y="231.570585"/>
     <use style="fill:#4d4d4d;stroke:#4d4d4d;stroke-linejoin:miter;" x="335.374468" xlink:href="#m3bc9f4be31" y="231.705716"/>
     <use style="fill:#4d4d4d;stroke:#4d4d4d;stroke-linejoin:miter;" x="335.374468" xlink:href="#m3bc9f4be31" y="231.025719"/>
     <use style="fill:#4d4d4d;stroke:#4d4d4d;stroke-linejoin:miter;" x="335.374468" xlink:href="#m3bc9f4be31" y="231.008551"/>
     <use style="fill:#4d4d4d;stroke:#4d4d4d;stroke-linejoin:miter;" x="335.374468" xlink:href="#m3bc9f4be31" y="230.878449"/>
     <use style="fill:#4d4d4d;stroke:#4d4d4d;stroke-linejoin:miter;" x="335.374468" xlink:href="#m3bc9f4be31" y="231.454973"/>
     <use style="fill:#4d4d4d;stroke:#4d4d4d;stroke-linejoin:miter;" x="335.374468" xlink:href="#m3bc9f4be31" y="231.221443"/>
     <use style="fill:#4d4d4d;stroke:#4d4d4d;stroke-linejoin:miter;" x="335.374468" xlink:href="#m3bc9f4be31" y="231.253791"/>
     <use style="fill:#4d4d4d;stroke:#4d4d4d;stroke-linejoin:miter;" x="335.374468" xlink:href="#m3bc9f4be31" y="231.803585"/>
     <use style="fill:#4d4d4d;stroke:#4d4d4d;stroke-linejoin:miter;" x="335.374468" xlink:href="#m3bc9f4be31" y="231.130278"/>
     <use style="fill:#4d4d4d;stroke:#4d4d4d;stroke-linejoin:miter;" x="335.374468" xlink:href="#m3bc9f4be31" y="231.249407"/>
     <use style="fill:#4d4d4d;stroke:#4d4d4d;stroke-linejoin:miter;" x="335.374468" xlink:href="#m3bc9f4be31" y="231.652612"/>
     <use style="fill:#4d4d4d;stroke:#4d4d4d;stroke-linejoin:miter;" x="335.374468" xlink:href="#m3bc9f4be31" y="231.672941"/>
     <use style="fill:#4d4d4d;stroke:#4d4d4d;stroke-linejoin:miter;" x="335.374468" xlink:href="#m3bc9f4be31" y="230.510462"/>
     <use style="fill:#4d4d4d;stroke:#4d4d4d;stroke-linejoin:miter;" x="335.374468" xlink:href="#m3bc9f4be31" y="231.487619"/>
    </g>
   </g>
   <g id="line2d_116">
    <path clip-path="url(#pba48dcfdd7)" d="M 356.744681 110.444228 
L 356.744681 126.127797 
" style="fill:none;stroke:#4d4d4d;stroke-linecap:square;stroke-width:1.5;"/>
   </g>
   <g id="line2d_117">
    <path clip-path="url(#pba48dcfdd7)" d="M 356.744681 99.935491 
L 356.744681 91.091234 
" style="fill:none;stroke:#4d4d4d;stroke-linecap:square;stroke-width:1.5;"/>
   </g>
   <g id="line2d_118">
    <path clip-path="url(#pba48dcfdd7)" d="M 353.254213 126.127797 
L 360.235149 126.127797 
" style="fill:none;stroke:#4d4d4d;stroke-linecap:square;stroke-width:1.5;"/>
   </g>
   <g id="line2d_119">
    <path clip-path="url(#pba48dcfdd7)" d="M 353.254213 91.091234 
L 360.235149 91.091234 
" style="fill:none;stroke:#4d4d4d;stroke-linecap:square;stroke-width:1.5;"/>
   </g>
   <g id="line2d_120">
    <path clip-path="url(#pba48dcfdd7)" d="M 349.763745 104.221034 
L 363.725617 104.221034 
" style="fill:none;stroke:#4d4d4d;stroke-linecap:square;stroke-width:1.5;"/>
   </g>
   <g id="line2d_121">
    <g clip-path="url(#pba48dcfdd7)">
     <use style="fill:#4d4d4d;stroke:#4d4d4d;stroke-linejoin:miter;" x="356.744681" xlink:href="#m3bc9f4be31" y="132.191306"/>
     <use style="fill:#4d4d4d;stroke:#4d4d4d;stroke-linejoin:miter;" x="356.744681" xlink:href="#m3bc9f4be31" y="129.153768"/>
     <use style="fill:#4d4d4d;stroke:#4d4d4d;stroke-linejoin:miter;" x="356.744681" xlink:href="#m3bc9f4be31" y="144.521898"/>
     <use style="fill:#4d4d4d;stroke:#4d4d4d;stroke-linejoin:miter;" x="356.744681" xlink:href="#m3bc9f4be31" y="132.882319"/>
     <use style="fill:#4d4d4d;stroke:#4d4d4d;stroke-linejoin:miter;" x="356.744681" xlink:href="#m3bc9f4be31" y="132.241622"/>
     <use style="fill:#4d4d4d;stroke:#4d4d4d;stroke-linejoin:miter;" x="356.744681" xlink:href="#m3bc9f4be31" y="127.291446"/>
     <use style="fill:#4d4d4d;stroke:#4d4d4d;stroke-linejoin:miter;" x="356.744681" xlink:href="#m3bc9f4be31" y="130.304798"/>
     <use style="fill:#4d4d4d;stroke:#4d4d4d;stroke-linejoin:miter;" x="356.744681" xlink:href="#m3bc9f4be31" y="141.16679"/>
     <use style="fill:#4d4d4d;stroke:#4d4d4d;stroke-linejoin:miter;" x="356.744681" xlink:href="#m3bc9f4be31" y="132.550176"/>
     <use style="fill:#4d4d4d;stroke:#4d4d4d;stroke-linejoin:miter;" x="356.744681" xlink:href="#m3bc9f4be31" y="126.868851"/>
     <use style="fill:#4d4d4d;stroke:#4d4d4d;stroke-linejoin:miter;" x="356.744681" xlink:href="#m3bc9f4be31" y="130.608333"/>
     <use style="fill:#4d4d4d;stroke:#4d4d4d;stroke-linejoin:miter;" x="356.744681" xlink:href="#m3bc9f4be31" y="132.720435"/>
     <use style="fill:#4d4d4d;stroke:#4d4d4d;stroke-linejoin:miter;" x="356.744681" xlink:href="#m3bc9f4be31" y="130.591726"/>
     <use style="fill:#4d4d4d;stroke:#4d4d4d;stroke-linejoin:miter;" x="356.744681" xlink:href="#m3bc9f4be31" y="129.994484"/>
     <use style="fill:#4d4d4d;stroke:#4d4d4d;stroke-linejoin:miter;" x="356.744681" xlink:href="#m3bc9f4be31" y="131.416551"/>
     <use style="fill:#4d4d4d;stroke:#4d4d4d;stroke-linejoin:miter;" x="356.744681" xlink:href="#m3bc9f4be31" y="128.693237"/>
     <use style="fill:#4d4d4d;stroke:#4d4d4d;stroke-linejoin:miter;" x="356.744681" xlink:href="#m3bc9f4be31" y="133.035872"/>
     <use style="fill:#4d4d4d;stroke:#4d4d4d;stroke-linejoin:miter;" x="356.744681" xlink:href="#m3bc9f4be31" y="131.426823"/>
     <use style="fill:#4d4d4d;stroke:#4d4d4d;stroke-linejoin:miter;" x="356.744681" xlink:href="#m3bc9f4be31" y="137.697671"/>
     <use style="fill:#4d4d4d;stroke:#4d4d4d;stroke-linejoin:miter;" x="356.744681" xlink:href="#m3bc9f4be31" y="138.07784"/>
     <use style="fill:#4d4d4d;stroke:#4d4d4d;stroke-linejoin:miter;" x="356.744681" xlink:href="#m3bc9f4be31" y="128.415354"/>
     <use style="fill:#4d4d4d;stroke:#4d4d4d;stroke-linejoin:miter;" x="356.744681" xlink:href="#m3bc9f4be31" y="141.61502"/>
     <use style="fill:#4d4d4d;stroke:#4d4d4d;stroke-linejoin:miter;" x="356.744681" xlink:href="#m3bc9f4be31" y="155.330239"/>
     <use style="fill:#4d4d4d;stroke:#4d4d4d;stroke-linejoin:miter;" x="356.744681" xlink:href="#m3bc9f4be31" y="134.652835"/>
     <use style="fill:#4d4d4d;stroke:#4d4d4d;stroke-linejoin:miter;" x="356.744681" xlink:href="#m3bc9f4be31" y="128.967609"/>
     <use style="fill:#4d4d4d;stroke:#4d4d4d;stroke-linejoin:miter;" x="356.744681" xlink:href="#m3bc9f4be31" y="133.772529"/>
     <use style="fill:#4d4d4d;stroke:#4d4d4d;stroke-linejoin:miter;" x="356.744681" xlink:href="#m3bc9f4be31" y="132.588002"/>
    </g>
   </g>
   <g id="line2d_122">
    <path clip-path="url(#pba48dcfdd7)" d="M 370.991489 237.161173 
L 370.991489 240.359164 
" style="fill:none;stroke:#4d4d4d;stroke-linecap:square;stroke-width:1.5;"/>
   </g>
   <g id="line2d_123">
    <path clip-path="url(#pba48dcfdd7)" d="M 370.991489 234.833279 
L 370.991489 231.368873 
" style="fill:none;stroke:#4d4d4d;stroke-linecap:square;stroke-width:1.5;"/>
   </g>
   <g id="line2d_124">
    <path clip-path="url(#pba48dcfdd7)" d="M 367.501021 240.359164 
L 374.481957 240.359164 
" style="fill:none;stroke:#4d4d4d;stroke-linecap:square;stroke-width:1.5;"/>
   </g>
   <g id="line2d_125">
    <path clip-path="url(#pba48dcfdd7)" d="M 367.501021 231.368873 
L 374.481957 231.368873 
" style="fill:none;stroke:#4d4d4d;stroke-linecap:square;stroke-width:1.5;"/>
   </g>
   <g id="line2d_126">
    <path clip-path="url(#pba48dcfdd7)" d="M 364.010553 236.078044 
L 377.972426 236.078044 
" style="fill:none;stroke:#4d4d4d;stroke-linecap:square;stroke-width:1.5;"/>
   </g>
   <g id="line2d_127">
    <g clip-path="url(#pba48dcfdd7)">
     <use style="fill:#4d4d4d;stroke:#4d4d4d;stroke-linejoin:miter;" x="370.991489" xlink:href="#m3bc9f4be31" y="241.90602"/>
     <use style="fill:#4d4d4d;stroke:#4d4d4d;stroke-linejoin:miter;" x="370.991489" xlink:href="#m3bc9f4be31" y="230.949301"/>
     <use style="fill:#4d4d4d;stroke:#4d4d4d;stroke-linejoin:miter;" x="370.991489" xlink:href="#m3bc9f4be31" y="230.22935"/>
     <use style="fill:#4d4d4d;stroke:#4d4d4d;stroke-linejoin:miter;" x="370.991489" xlink:href="#m3bc9f4be31" y="231.160049"/>
     <use style="fill:#4d4d4d;stroke:#4d4d4d;stroke-linejoin:miter;" x="370.991489" xlink:href="#m3bc9f4be31" y="230.874103"/>
     <use style="fill:#4d4d4d;stroke:#4d4d4d;stroke-linejoin:miter;" x="370.991489" xlink:href="#m3bc9f4be31" y="231.294992"/>
     <use style="fill:#4d4d4d;stroke:#4d4d4d;stroke-linejoin:miter;" x="370.991489" xlink:href="#m3bc9f4be31" y="230.295924"/>
     <use style="fill:#4d4d4d;stroke:#4d4d4d;stroke-linejoin:miter;" x="370.991489" xlink:href="#m3bc9f4be31" y="231.251725"/>
     <use style="fill:#4d4d4d;stroke:#4d4d4d;stroke-linejoin:miter;" x="370.991489" xlink:href="#m3bc9f4be31" y="230.749289"/>
     <use style="fill:#4d4d4d;stroke:#4d4d4d;stroke-linejoin:miter;" x="370.991489" xlink:href="#m3bc9f4be31" y="230.332368"/>
     <use style="fill:#4d4d4d;stroke:#4d4d4d;stroke-linejoin:miter;" x="370.991489" xlink:href="#m3bc9f4be31" y="230.214815"/>
     <use style="fill:#4d4d4d;stroke:#4d4d4d;stroke-linejoin:miter;" x="370.991489" xlink:href="#m3bc9f4be31" y="230.955156"/>
     <use style="fill:#4d4d4d;stroke:#4d4d4d;stroke-linejoin:miter;" x="370.991489" xlink:href="#m3bc9f4be31" y="230.430391"/>
     <use style="fill:#4d4d4d;stroke:#4d4d4d;stroke-linejoin:miter;" x="370.991489" xlink:href="#m3bc9f4be31" y="231.101887"/>
     <use style="fill:#4d4d4d;stroke:#4d4d4d;stroke-linejoin:miter;" x="370.991489" xlink:href="#m3bc9f4be31" y="230.641565"/>
     <use style="fill:#4d4d4d;stroke:#4d4d4d;stroke-linejoin:miter;" x="370.991489" xlink:href="#m3bc9f4be31" y="231.321414"/>
     <use style="fill:#4d4d4d;stroke:#4d4d4d;stroke-linejoin:miter;" x="370.991489" xlink:href="#m3bc9f4be31" y="231.100925"/>
     <use style="fill:#4d4d4d;stroke:#4d4d4d;stroke-linejoin:miter;" x="370.991489" xlink:href="#m3bc9f4be31" y="230.981135"/>
     <use style="fill:#4d4d4d;stroke:#4d4d4d;stroke-linejoin:miter;" x="370.991489" xlink:href="#m3bc9f4be31" y="230.864226"/>
     <use style="fill:#4d4d4d;stroke:#4d4d4d;stroke-linejoin:miter;" x="370.991489" xlink:href="#m3bc9f4be31" y="230.868022"/>
     <use style="fill:#4d4d4d;stroke:#4d4d4d;stroke-linejoin:miter;" x="370.991489" xlink:href="#m3bc9f4be31" y="231.034676"/>
     <use style="fill:#4d4d4d;stroke:#4d4d4d;stroke-linejoin:miter;" x="370.991489" xlink:href="#m3bc9f4be31" y="231.292987"/>
    </g>
   </g>
  </g>
 </g>
 <defs>
  <clipPath id="pba48dcfdd7">
   <rect height="217.44" width="334.8" x="54" y="34.56"/>
  </clipPath>
 </defs>
</svg>
