<?xml version="1.0" encoding="utf-8" standalone="no"?>
<!DOCTYPE svg PUBLIC "-//W3C//DTD SVG 1.1//EN"
  "http://www.w3.org/Graphics/SVG/1.1/DTD/svg11.dtd">
<!-- Created with matplotlib (https://matplotlib.org/) -->
<svg height="288pt" version="1.1" viewBox="0 0 432 288" width="432pt" xmlns="http://www.w3.org/2000/svg" xmlns:xlink="http://www.w3.org/1999/xlink">
 <metadata>
  <rdf:RDF xmlns:cc="http://creativecommons.org/ns#" xmlns:dc="http://purl.org/dc/elements/1.1/" xmlns:rdf="http://www.w3.org/1999/02/22-rdf-syntax-ns#">
   <cc:Work>
    <dc:type rdf:resource="http://purl.org/dc/dcmitype/StillImage"/>
    <dc:date>2021-11-24T13:52:02.097347</dc:date>
    <dc:format>image/svg+xml</dc:format>
    <dc:creator>
     <cc:Agent>
      <dc:title>Matplotlib v3.3.4, https://matplotlib.org/</dc:title>
     </cc:Agent>
    </dc:creator>
   </cc:Work>
  </rdf:RDF>
 </metadata>
 <defs>
  <style type="text/css">*{stroke-linecap:butt;stroke-linejoin:round;}</style>
 </defs>
 <g id="figure_1">
  <g id="patch_1">
   <path d="M 0 288 
L 432 288 
L 432 0 
L 0 0 
z
" style="fill:none;"/>
  </g>
  <g id="axes_1">
   <g id="patch_2">
    <path d="M 54 252 
L 388.8 252 
L 388.8 34.56 
L 54 34.56 
z
" style="fill:#ffffff;"/>
   </g>
   <g id="patch_3">
    <path clip-path="url(#p9451c52a7e)" d="M 63.786462 189.917132 
L 76.405846 189.917132 
L 76.405846 144.940265 
L 63.786462 144.940265 
L 63.786462 189.917132 
z
" style="fill:#d3d3d3;stroke:#4d4d4d;stroke-linejoin:miter;stroke-width:1.5;"/>
   </g>
   <g id="patch_4">
    <path clip-path="url(#p9451c52a7e)" d="M 76.663385 205.728331 
L 89.282769 205.728331 
L 89.282769 189.786054 
L 76.663385 189.786054 
L 76.663385 205.728331 
z
" style="fill:#808080;stroke:#4d4d4d;stroke-linejoin:miter;stroke-width:1.5;"/>
   </g>
   <g id="patch_5">
    <path clip-path="url(#p9451c52a7e)" d="M 95.978769 169.397721 
L 108.598154 169.397721 
L 108.598154 138.176138 
L 95.978769 138.176138 
L 95.978769 169.397721 
z
" style="fill:#d3d3d3;stroke:#4d4d4d;stroke-linejoin:miter;stroke-width:1.5;"/>
   </g>
   <g id="patch_6">
    <path clip-path="url(#p9451c52a7e)" d="M 108.855692 193.616235 
L 121.475077 193.616235 
L 121.475077 181.04061 
L 108.855692 181.04061 
L 108.855692 193.616235 
z
" style="fill:#808080;stroke:#4d4d4d;stroke-linejoin:miter;stroke-width:1.5;"/>
   </g>
   <g id="patch_7">
    <path clip-path="url(#p9451c52a7e)" d="M 128.171077 161.44581 
L 140.790462 161.44581 
L 140.790462 136.495167 
L 128.171077 136.495167 
L 128.171077 161.44581 
z
" style="fill:#d3d3d3;stroke:#4d4d4d;stroke-linejoin:miter;stroke-width:1.5;"/>
   </g>
   <g id="patch_8">
    <path clip-path="url(#p9451c52a7e)" d="M 141.048 190.895897 
L 153.667385 190.895897 
L 153.667385 177.88131 
L 141.048 177.88131 
L 141.048 190.895897 
z
" style="fill:#808080;stroke:#4d4d4d;stroke-linejoin:miter;stroke-width:1.5;"/>
   </g>
   <g id="patch_9">
    <path clip-path="url(#p9451c52a7e)" d="M 160.363385 159.576458 
L 172.982769 159.576458 
L 172.982769 136.425417 
L 160.363385 136.425417 
L 160.363385 159.576458 
z
" style="fill:#d3d3d3;stroke:#4d4d4d;stroke-linejoin:miter;stroke-width:1.5;"/>
   </g>
   <g id="patch_10">
    <path clip-path="url(#p9451c52a7e)" d="M 173.240308 189.164487 
L 185.859692 189.164487 
L 185.859692 176.531394 
L 173.240308 176.531394 
L 173.240308 189.164487 
z
" style="fill:#808080;stroke:#4d4d4d;stroke-linejoin:miter;stroke-width:1.5;"/>
   </g>
   <g id="patch_11">
    <path clip-path="url(#p9451c52a7e)" d="M 192.555692 159.949665 
L 205.175077 159.949665 
L 205.175077 137.974471 
L 192.555692 137.974471 
L 192.555692 159.949665 
z
" style="fill:#d3d3d3;stroke:#4d4d4d;stroke-linejoin:miter;stroke-width:1.5;"/>
   </g>
   <g id="patch_12">
    <path clip-path="url(#p9451c52a7e)" d="M 205.432615 187.808897 
L 218.052 187.808897 
L 218.052 175.45127 
L 205.432615 175.45127 
L 205.432615 187.808897 
z
" style="fill:#808080;stroke:#4d4d4d;stroke-linejoin:miter;stroke-width:1.5;"/>
   </g>
   <g id="patch_13">
    <path clip-path="url(#p9451c52a7e)" d="M 224.748 159.952865 
L 237.367385 159.952865 
L 237.367385 138.253239 
L 224.748 138.253239 
L 224.748 159.952865 
z
" style="fill:#d3d3d3;stroke:#4d4d4d;stroke-linejoin:miter;stroke-width:1.5;"/>
   </g>
   <g id="patch_14">
    <path clip-path="url(#p9451c52a7e)" d="M 237.624923 186.9592 
L 250.244308 186.9592 
L 250.244308 174.273253 
L 237.624923 174.273253 
L 237.624923 186.9592 
z
" style="fill:#808080;stroke:#4d4d4d;stroke-linejoin:miter;stroke-width:1.5;"/>
   </g>
   <g id="patch_15">
    <path clip-path="url(#p9451c52a7e)" d="M 256.940308 159.640887 
L 269.559692 159.640887 
L 269.559692 138.969109 
L 256.940308 138.969109 
L 256.940308 159.640887 
z
" style="fill:#d3d3d3;stroke:#4d4d4d;stroke-linejoin:miter;stroke-width:1.5;"/>
   </g>
   <g id="patch_16">
    <path clip-path="url(#p9451c52a7e)" d="M 269.817231 186.210753 
L 282.436615 186.210753 
L 282.436615 172.408772 
L 269.817231 172.408772 
L 269.817231 186.210753 
z
" style="fill:#808080;stroke:#4d4d4d;stroke-linejoin:miter;stroke-width:1.5;"/>
   </g>
   <g id="patch_17">
    <path clip-path="url(#p9451c52a7e)" d="M 289.132615 159.859494 
L 301.752 159.859494 
L 301.752 140.451733 
L 289.132615 140.451733 
L 289.132615 159.859494 
z
" style="fill:#d3d3d3;stroke:#4d4d4d;stroke-linejoin:miter;stroke-width:1.5;"/>
   </g>
   <g id="patch_18">
    <path clip-path="url(#p9451c52a7e)" d="M 302.009538 185.746291 
L 314.628923 185.746291 
L 314.628923 171.869663 
L 302.009538 171.869663 
L 302.009538 185.746291 
z
" style="fill:#808080;stroke:#4d4d4d;stroke-linejoin:miter;stroke-width:1.5;"/>
   </g>
   <g id="patch_19">
    <path clip-path="url(#p9451c52a7e)" d="M 321.324923 160.564097 
L 333.944308 160.564097 
L 333.944308 141.347925 
L 321.324923 141.347925 
L 321.324923 160.564097 
z
" style="fill:#d3d3d3;stroke:#4d4d4d;stroke-linejoin:miter;stroke-width:1.5;"/>
   </g>
   <g id="patch_20">
    <path clip-path="url(#p9451c52a7e)" d="M 334.201846 185.638438 
L 346.821231 185.638438 
L 346.821231 171.258232 
L 334.201846 171.258232 
L 334.201846 185.638438 
z
" style="fill:#808080;stroke:#4d4d4d;stroke-linejoin:miter;stroke-width:1.5;"/>
   </g>
   <g id="patch_21">
    <path clip-path="url(#p9451c52a7e)" d="M 353.517231 163.361847 
L 366.136615 163.361847 
L 366.136615 141.899323 
L 353.517231 141.899323 
L 353.517231 163.361847 
z
" style="fill:#d3d3d3;stroke:#4d4d4d;stroke-linejoin:miter;stroke-width:1.5;"/>
   </g>
   <g id="patch_22">
    <path clip-path="url(#p9451c52a7e)" d="M 366.394154 186.611612 
L 379.013538 186.611612 
L 379.013538 173.05681 
L 366.394154 173.05681 
L 366.394154 186.611612 
z
" style="fill:#808080;stroke:#4d4d4d;stroke-linejoin:miter;stroke-width:1.5;"/>
   </g>
   <g id="PathCollection_1">
    <defs>
     <path d="M 0 3.383948 
C 0.897434 3.383948 1.758231 3.027394 2.392813 2.392813 
C 3.027394 1.758231 3.383948 0.897434 3.383948 0 
C 3.383948 -0.897434 3.027394 -1.758231 2.392813 -2.392813 
C 1.758231 -3.027394 0.897434 -3.383948 0 -3.383948 
C -0.897434 -3.383948 -1.758231 -3.027394 -2.392813 -2.392813 
C -3.027394 -1.758231 -3.383948 -0.897434 -3.383948 0 
C -3.383948 0.897434 -3.027394 1.758231 -2.392813 2.392813 
C -1.758231 3.027394 -0.897434 3.383948 0 3.383948 
z
" id="m1e7867ac0a" style="stroke:#d3d3d3;stroke-width:2.025;"/>
    </defs>
    <g clip-path="url(#p9451c52a7e)">
     <use style="fill:#d3d3d3;stroke:#d3d3d3;stroke-width:2.025;" x="68.486538" xlink:href="#m1e7867ac0a" y="168.686545"/>
     <use style="fill:#d3d3d3;stroke:#d3d3d3;stroke-width:2.025;" x="100.678846" xlink:href="#m1e7867ac0a" y="154.102637"/>
     <use style="fill:#d3d3d3;stroke:#d3d3d3;stroke-width:2.025;" x="132.871154" xlink:href="#m1e7867ac0a" y="150.955421"/>
     <use style="fill:#d3d3d3;stroke:#d3d3d3;stroke-width:2.025;" x="165.063462" xlink:href="#m1e7867ac0a" y="150.099196"/>
     <use style="fill:#d3d3d3;stroke:#d3d3d3;stroke-width:2.025;" x="197.255769" xlink:href="#m1e7867ac0a" y="150.391293"/>
     <use style="fill:#d3d3d3;stroke:#d3d3d3;stroke-width:2.025;" x="229.448077" xlink:href="#m1e7867ac0a" y="150.911008"/>
     <use style="fill:#d3d3d3;stroke:#d3d3d3;stroke-width:2.025;" x="261.640385" xlink:href="#m1e7867ac0a" y="151.285185"/>
     <use style="fill:#d3d3d3;stroke:#d3d3d3;stroke-width:2.025;" x="293.832692" xlink:href="#m1e7867ac0a" y="152.131261"/>
     <use style="fill:#d3d3d3;stroke:#d3d3d3;stroke-width:2.025;" x="326.025" xlink:href="#m1e7867ac0a" y="152.864664"/>
     <use style="fill:#d3d3d3;stroke:#d3d3d3;stroke-width:2.025;" x="358.217308" xlink:href="#m1e7867ac0a" y="154.802513"/>
    </g>
   </g>
   <g id="PathCollection_2">
    <defs>
     <path d="M 0 3.383948 
C 0.897434 3.383948 1.758231 3.027394 2.392813 2.392813 
C 3.027394 1.758231 3.383948 0.897434 3.383948 0 
C 3.383948 -0.897434 3.027394 -1.758231 2.392813 -2.392813 
C 1.758231 -3.027394 0.897434 -3.383948 0 -3.383948 
C -0.897434 -3.383948 -1.758231 -3.027394 -2.392813 -2.392813 
C -3.027394 -1.758231 -3.383948 -0.897434 -3.383948 0 
C -3.383948 0.897434 -3.027394 1.758231 -2.392813 2.392813 
C -1.758231 3.027394 -0.897434 3.383948 0 3.383948 
z
" id="mf71de52642" style="stroke:#808080;stroke-width:2.025;"/>
    </defs>
    <g clip-path="url(#p9451c52a7e)">
     <use style="fill:#808080;stroke:#808080;stroke-width:2.025;" x="84.582692" xlink:href="#mf71de52642" y="196.624536"/>
     <use style="fill:#808080;stroke:#808080;stroke-width:2.025;" x="116.775" xlink:href="#mf71de52642" y="187.090645"/>
     <use style="fill:#808080;stroke:#808080;stroke-width:2.025;" x="148.967308" xlink:href="#mf71de52642" y="184.232827"/>
     <use style="fill:#808080;stroke:#808080;stroke-width:2.025;" x="181.159615" xlink:href="#mf71de52642" y="182.710715"/>
     <use style="fill:#808080;stroke:#808080;stroke-width:2.025;" x="213.351923" xlink:href="#mf71de52642" y="181.426714"/>
     <use style="fill:#808080;stroke:#808080;stroke-width:2.025;" x="245.544231" xlink:href="#mf71de52642" y="180.403385"/>
     <use style="fill:#808080;stroke:#808080;stroke-width:2.025;" x="277.736538" xlink:href="#mf71de52642" y="179.489071"/>
     <use style="fill:#808080;stroke:#808080;stroke-width:2.025;" x="309.928846" xlink:href="#mf71de52642" y="178.928872"/>
     <use style="fill:#808080;stroke:#808080;stroke-width:2.025;" x="342.121154" xlink:href="#mf71de52642" y="178.822666"/>
     <use style="fill:#808080;stroke:#808080;stroke-width:2.025;" x="374.313462" xlink:href="#mf71de52642" y="179.793379"/>
    </g>
   </g>
   <g id="patch_23">
    <path clip-path="url(#p9451c52a7e)" d="M 76.534615 237.81715 
L 76.534615 237.81715 
L 76.534615 237.81715 
L 76.534615 237.81715 
z
" style="fill:#d3d3d3;stroke:#4d4d4d;stroke-linejoin:miter;stroke-width:0.75;"/>
   </g>
   <g id="patch_24">
    <path clip-path="url(#p9451c52a7e)" d="M 76.534615 237.81715 
L 76.534615 237.81715 
L 76.534615 237.81715 
L 76.534615 237.81715 
z
" style="fill:#808080;stroke:#4d4d4d;stroke-linejoin:miter;stroke-width:0.75;"/>
   </g>
   <g id="line2d_1">
    <path clip-path="url(#p9451c52a7e)" d="M 68.486538 168.686545 
L 100.678846 154.102637 
L 132.871154 150.955421 
L 165.063462 150.099196 
L 197.255769 150.391293 
L 229.448077 150.911008 
L 261.640385 151.285185 
L 293.832692 152.131261 
L 326.025 152.864664 
L 358.217308 154.802513 
" style="fill:none;stroke:#d3d3d3;stroke-linecap:square;stroke-width:2.7;"/>
   </g>
   <g id="line2d_2">
    <path clip-path="url(#p9451c52a7e)" d="M 84.582692 196.624536 
L 116.775 187.090645 
L 148.967308 184.232827 
L 181.159615 182.710715 
L 213.351923 181.426714 
L 245.544231 180.403385 
L 277.736538 179.489071 
L 309.928846 178.928872 
L 342.121154 178.822666 
L 374.313462 179.793379 
" style="fill:none;stroke:#808080;stroke-linecap:square;stroke-width:2.7;"/>
   </g>
   <g id="matplotlib.axis_1">
    <g id="xtick_1">
     <g id="line2d_3">
      <defs>
       <path d="M 0 0 
L 0 3.5 
" id="m2e2707a153" style="stroke:#000000;stroke-width:0.8;"/>
      </defs>
      <g>
       <use style="stroke:#000000;stroke-width:0.8;" x="76.534615" xlink:href="#m2e2707a153" y="262"/>
      </g>
     </g>
     <g id="text_1">
      <!-- DC -->
      <g transform="translate(66.990787 278.877969)scale(0.13 -0.13)">
       <defs>
        <path d="M 19.671875 64.796875 
L 19.671875 8.109375 
L 31.59375 8.109375 
Q 46.6875 8.109375 53.6875 14.9375 
Q 60.6875 21.78125 60.6875 36.53125 
Q 60.6875 51.171875 53.6875 57.984375 
Q 46.6875 64.796875 31.59375 64.796875 
z
M 9.8125 72.90625 
L 30.078125 72.90625 
Q 51.265625 72.90625 61.171875 64.09375 
Q 71.09375 55.28125 71.09375 36.53125 
Q 71.09375 17.671875 61.125 8.828125 
Q 51.171875 0 30.078125 0 
L 9.8125 0 
z
" id="DejaVuSans-68"/>
        <path d="M 64.40625 67.28125 
L 64.40625 56.890625 
Q 59.421875 61.53125 53.78125 63.8125 
Q 48.140625 66.109375 41.796875 66.109375 
Q 29.296875 66.109375 22.65625 58.46875 
Q 16.015625 50.828125 16.015625 36.375 
Q 16.015625 21.96875 22.65625 14.328125 
Q 29.296875 6.6875 41.796875 6.6875 
Q 48.140625 6.6875 53.78125 8.984375 
Q 59.421875 11.28125 64.40625 15.921875 
L 64.40625 5.609375 
Q 59.234375 2.09375 53.4375 0.328125 
Q 47.65625 -1.421875 41.21875 -1.421875 
Q 24.65625 -1.421875 15.125 8.703125 
Q 5.609375 18.84375 5.609375 36.375 
Q 5.609375 53.953125 15.125 64.078125 
Q 24.65625 74.21875 41.21875 74.21875 
Q 47.75 74.21875 53.53125 72.484375 
Q 59.328125 70.75 64.40625 67.28125 
z
" id="DejaVuSans-67"/>
       </defs>
       <use xlink:href="#DejaVuSans-68"/>
       <use x="77.001953" xlink:href="#DejaVuSans-67"/>
      </g>
     </g>
    </g>
    <g id="xtick_2">
     <g id="line2d_4">
      <g>
       <use style="stroke:#000000;stroke-width:0.8;" x="108.726923" xlink:href="#m2e2707a153" y="262"/>
      </g>
     </g>
     <g id="text_2">
      <!-- 0.1 -->
      <g transform="translate(98.389892 278.877969)scale(0.13 -0.13)">
       <defs>
        <path d="M 31.78125 66.40625 
Q 24.171875 66.40625 20.328125 58.90625 
Q 16.5 51.421875 16.5 36.375 
Q 16.5 21.390625 20.328125 13.890625 
Q 24.171875 6.390625 31.78125 6.390625 
Q 39.453125 6.390625 43.28125 13.890625 
Q 47.125 21.390625 47.125 36.375 
Q 47.125 51.421875 43.28125 58.90625 
Q 39.453125 66.40625 31.78125 66.40625 
z
M 31.78125 74.21875 
Q 44.046875 74.21875 50.515625 64.515625 
Q 56.984375 54.828125 56.984375 36.375 
Q 56.984375 17.96875 50.515625 8.265625 
Q 44.046875 -1.421875 31.78125 -1.421875 
Q 19.53125 -1.421875 13.0625 8.265625 
Q 6.59375 17.96875 6.59375 36.375 
Q 6.59375 54.828125 13.0625 64.515625 
Q 19.53125 74.21875 31.78125 74.21875 
z
" id="DejaVuSans-48"/>
        <path d="M 10.6875 12.40625 
L 21 12.40625 
L 21 0 
L 10.6875 0 
z
" id="DejaVuSans-46"/>
        <path d="M 12.40625 8.296875 
L 28.515625 8.296875 
L 28.515625 63.921875 
L 10.984375 60.40625 
L 10.984375 69.390625 
L 28.421875 72.90625 
L 38.28125 72.90625 
L 38.28125 8.296875 
L 54.390625 8.296875 
L 54.390625 0 
L 12.40625 0 
z
" id="DejaVuSans-49"/>
       </defs>
       <use xlink:href="#DejaVuSans-48"/>
       <use x="63.623047" xlink:href="#DejaVuSans-46"/>
       <use x="95.410156" xlink:href="#DejaVuSans-49"/>
      </g>
     </g>
    </g>
    <g id="xtick_3">
     <g id="line2d_5">
      <g>
       <use style="stroke:#000000;stroke-width:0.8;" x="140.919231" xlink:href="#m2e2707a153" y="262"/>
      </g>
     </g>
     <g id="text_3">
      <!-- 0.2 -->
      <g transform="translate(130.5822 278.877969)scale(0.13 -0.13)">
       <defs>
        <path d="M 19.1875 8.296875 
L 53.609375 8.296875 
L 53.609375 0 
L 7.328125 0 
L 7.328125 8.296875 
Q 12.9375 14.109375 22.625 23.890625 
Q 32.328125 33.6875 34.8125 36.53125 
Q 39.546875 41.84375 41.421875 45.53125 
Q 43.3125 49.21875 43.3125 52.78125 
Q 43.3125 58.59375 39.234375 62.25 
Q 35.15625 65.921875 28.609375 65.921875 
Q 23.96875 65.921875 18.8125 64.3125 
Q 13.671875 62.703125 7.8125 59.421875 
L 7.8125 69.390625 
Q 13.765625 71.78125 18.9375 73 
Q 24.125 74.21875 28.421875 74.21875 
Q 39.75 74.21875 46.484375 68.546875 
Q 53.21875 62.890625 53.21875 53.421875 
Q 53.21875 48.921875 51.53125 44.890625 
Q 49.859375 40.875 45.40625 35.40625 
Q 44.1875 33.984375 37.640625 27.21875 
Q 31.109375 20.453125 19.1875 8.296875 
z
" id="DejaVuSans-50"/>
       </defs>
       <use xlink:href="#DejaVuSans-48"/>
       <use x="63.623047" xlink:href="#DejaVuSans-46"/>
       <use x="95.410156" xlink:href="#DejaVuSans-50"/>
      </g>
     </g>
    </g>
    <g id="xtick_4">
     <g id="line2d_6">
      <g>
       <use style="stroke:#000000;stroke-width:0.8;" x="173.111538" xlink:href="#m2e2707a153" y="262"/>
      </g>
     </g>
     <g id="text_4">
      <!-- 0.3 -->
      <g transform="translate(162.774507 278.877969)scale(0.13 -0.13)">
       <defs>
        <path d="M 40.578125 39.3125 
Q 47.65625 37.796875 51.625 33 
Q 55.609375 28.21875 55.609375 21.1875 
Q 55.609375 10.40625 48.1875 4.484375 
Q 40.765625 -1.421875 27.09375 -1.421875 
Q 22.515625 -1.421875 17.65625 -0.515625 
Q 12.796875 0.390625 7.625 2.203125 
L 7.625 11.71875 
Q 11.71875 9.328125 16.59375 8.109375 
Q 21.484375 6.890625 26.8125 6.890625 
Q 36.078125 6.890625 40.9375 10.546875 
Q 45.796875 14.203125 45.796875 21.1875 
Q 45.796875 27.640625 41.28125 31.265625 
Q 36.765625 34.90625 28.71875 34.90625 
L 20.21875 34.90625 
L 20.21875 43.015625 
L 29.109375 43.015625 
Q 36.375 43.015625 40.234375 45.921875 
Q 44.09375 48.828125 44.09375 54.296875 
Q 44.09375 59.90625 40.109375 62.90625 
Q 36.140625 65.921875 28.71875 65.921875 
Q 24.65625 65.921875 20.015625 65.03125 
Q 15.375 64.15625 9.8125 62.3125 
L 9.8125 71.09375 
Q 15.4375 72.65625 20.34375 73.4375 
Q 25.25 74.21875 29.59375 74.21875 
Q 40.828125 74.21875 47.359375 69.109375 
Q 53.90625 64.015625 53.90625 55.328125 
Q 53.90625 49.265625 50.4375 45.09375 
Q 46.96875 40.921875 40.578125 39.3125 
z
" id="DejaVuSans-51"/>
       </defs>
       <use xlink:href="#DejaVuSans-48"/>
       <use x="63.623047" xlink:href="#DejaVuSans-46"/>
       <use x="95.410156" xlink:href="#DejaVuSans-51"/>
      </g>
     </g>
    </g>
    <g id="xtick_5">
     <g id="line2d_7">
      <g>
       <use style="stroke:#000000;stroke-width:0.8;" x="205.303846" xlink:href="#m2e2707a153" y="262"/>
      </g>
     </g>
     <g id="text_5">
      <!-- 0.4 -->
      <g transform="translate(194.966815 278.877969)scale(0.13 -0.13)">
       <defs>
        <path d="M 37.796875 64.3125 
L 12.890625 25.390625 
L 37.796875 25.390625 
z
M 35.203125 72.90625 
L 47.609375 72.90625 
L 47.609375 25.390625 
L 58.015625 25.390625 
L 58.015625 17.1875 
L 47.609375 17.1875 
L 47.609375 0 
L 37.796875 0 
L 37.796875 17.1875 
L 4.890625 17.1875 
L 4.890625 26.703125 
z
" id="DejaVuSans-52"/>
       </defs>
       <use xlink:href="#DejaVuSans-48"/>
       <use x="63.623047" xlink:href="#DejaVuSans-46"/>
       <use x="95.410156" xlink:href="#DejaVuSans-52"/>
      </g>
     </g>
    </g>
    <g id="xtick_6">
     <g id="line2d_8">
      <g>
       <use style="stroke:#000000;stroke-width:0.8;" x="237.496154" xlink:href="#m2e2707a153" y="262"/>
      </g>
     </g>
     <g id="text_6">
      <!-- 0.5 -->
      <g transform="translate(227.159123 278.877969)scale(0.13 -0.13)">
       <defs>
        <path d="M 10.796875 72.90625 
L 49.515625 72.90625 
L 49.515625 64.59375 
L 19.828125 64.59375 
L 19.828125 46.734375 
Q 21.96875 47.46875 24.109375 47.828125 
Q 26.265625 48.1875 28.421875 48.1875 
Q 40.625 48.1875 47.75 41.5 
Q 54.890625 34.8125 54.890625 23.390625 
Q 54.890625 11.625 47.5625 5.09375 
Q 40.234375 -1.421875 26.90625 -1.421875 
Q 22.3125 -1.421875 17.546875 -0.640625 
Q 12.796875 0.140625 7.71875 1.703125 
L 7.71875 11.625 
Q 12.109375 9.234375 16.796875 8.0625 
Q 21.484375 6.890625 26.703125 6.890625 
Q 35.15625 6.890625 40.078125 11.328125 
Q 45.015625 15.765625 45.015625 23.390625 
Q 45.015625 31 40.078125 35.4375 
Q 35.15625 39.890625 26.703125 39.890625 
Q 22.75 39.890625 18.8125 39.015625 
Q 14.890625 38.140625 10.796875 36.28125 
z
" id="DejaVuSans-53"/>
       </defs>
       <use xlink:href="#DejaVuSans-48"/>
       <use x="63.623047" xlink:href="#DejaVuSans-46"/>
       <use x="95.410156" xlink:href="#DejaVuSans-53"/>
      </g>
     </g>
    </g>
    <g id="xtick_7">
     <g id="line2d_9">
      <g>
       <use style="stroke:#000000;stroke-width:0.8;" x="269.688462" xlink:href="#m2e2707a153" y="262"/>
      </g>
     </g>
     <g id="text_7">
      <!-- 0.6 -->
      <g transform="translate(259.35143 278.877969)scale(0.13 -0.13)">
       <defs>
        <path d="M 33.015625 40.375 
Q 26.375 40.375 22.484375 35.828125 
Q 18.609375 31.296875 18.609375 23.390625 
Q 18.609375 15.53125 22.484375 10.953125 
Q 26.375 6.390625 33.015625 6.390625 
Q 39.65625 6.390625 43.53125 10.953125 
Q 47.40625 15.53125 47.40625 23.390625 
Q 47.40625 31.296875 43.53125 35.828125 
Q 39.65625 40.375 33.015625 40.375 
z
M 52.59375 71.296875 
L 52.59375 62.3125 
Q 48.875 64.0625 45.09375 64.984375 
Q 41.3125 65.921875 37.59375 65.921875 
Q 27.828125 65.921875 22.671875 59.328125 
Q 17.53125 52.734375 16.796875 39.40625 
Q 19.671875 43.65625 24.015625 45.921875 
Q 28.375 48.1875 33.59375 48.1875 
Q 44.578125 48.1875 50.953125 41.515625 
Q 57.328125 34.859375 57.328125 23.390625 
Q 57.328125 12.15625 50.6875 5.359375 
Q 44.046875 -1.421875 33.015625 -1.421875 
Q 20.359375 -1.421875 13.671875 8.265625 
Q 6.984375 17.96875 6.984375 36.375 
Q 6.984375 53.65625 15.1875 63.9375 
Q 23.390625 74.21875 37.203125 74.21875 
Q 40.921875 74.21875 44.703125 73.484375 
Q 48.484375 72.75 52.59375 71.296875 
z
" id="DejaVuSans-54"/>
       </defs>
       <use xlink:href="#DejaVuSans-48"/>
       <use x="63.623047" xlink:href="#DejaVuSans-46"/>
       <use x="95.410156" xlink:href="#DejaVuSans-54"/>
      </g>
     </g>
    </g>
    <g id="xtick_8">
     <g id="line2d_10">
      <g>
       <use style="stroke:#000000;stroke-width:0.8;" x="301.880769" xlink:href="#m2e2707a153" y="262"/>
      </g>
     </g>
     <g id="text_8">
      <!-- 0.7 -->
      <g transform="translate(291.543738 278.877969)scale(0.13 -0.13)">
       <defs>
        <path d="M 8.203125 72.90625 
L 55.078125 72.90625 
L 55.078125 68.703125 
L 28.609375 0 
L 18.3125 0 
L 43.21875 64.59375 
L 8.203125 64.59375 
z
" id="DejaVuSans-55"/>
       </defs>
       <use xlink:href="#DejaVuSans-48"/>
       <use x="63.623047" xlink:href="#DejaVuSans-46"/>
       <use x="95.410156" xlink:href="#DejaVuSans-55"/>
      </g>
     </g>
    </g>
    <g id="xtick_9">
     <g id="line2d_11">
      <g>
       <use style="stroke:#000000;stroke-width:0.8;" x="334.073077" xlink:href="#m2e2707a153" y="262"/>
      </g>
     </g>
     <g id="text_9">
      <!-- 0.8 -->
      <g transform="translate(323.736046 278.877969)scale(0.13 -0.13)">
       <defs>
        <path d="M 31.78125 34.625 
Q 24.75 34.625 20.71875 30.859375 
Q 16.703125 27.09375 16.703125 20.515625 
Q 16.703125 13.921875 20.71875 10.15625 
Q 24.75 6.390625 31.78125 6.390625 
Q 38.8125 6.390625 42.859375 10.171875 
Q 46.921875 13.96875 46.921875 20.515625 
Q 46.921875 27.09375 42.890625 30.859375 
Q 38.875 34.625 31.78125 34.625 
z
M 21.921875 38.8125 
Q 15.578125 40.375 12.03125 44.71875 
Q 8.5 49.078125 8.5 55.328125 
Q 8.5 64.0625 14.71875 69.140625 
Q 20.953125 74.21875 31.78125 74.21875 
Q 42.671875 74.21875 48.875 69.140625 
Q 55.078125 64.0625 55.078125 55.328125 
Q 55.078125 49.078125 51.53125 44.71875 
Q 48 40.375 41.703125 38.8125 
Q 48.828125 37.15625 52.796875 32.3125 
Q 56.78125 27.484375 56.78125 20.515625 
Q 56.78125 9.90625 50.3125 4.234375 
Q 43.84375 -1.421875 31.78125 -1.421875 
Q 19.734375 -1.421875 13.25 4.234375 
Q 6.78125 9.90625 6.78125 20.515625 
Q 6.78125 27.484375 10.78125 32.3125 
Q 14.796875 37.15625 21.921875 38.8125 
z
M 18.3125 54.390625 
Q 18.3125 48.734375 21.84375 45.5625 
Q 25.390625 42.390625 31.78125 42.390625 
Q 38.140625 42.390625 41.71875 45.5625 
Q 45.3125 48.734375 45.3125 54.390625 
Q 45.3125 60.0625 41.71875 63.234375 
Q 38.140625 66.40625 31.78125 66.40625 
Q 25.390625 66.40625 21.84375 63.234375 
Q 18.3125 60.0625 18.3125 54.390625 
z
" id="DejaVuSans-56"/>
       </defs>
       <use xlink:href="#DejaVuSans-48"/>
       <use x="63.623047" xlink:href="#DejaVuSans-46"/>
       <use x="95.410156" xlink:href="#DejaVuSans-56"/>
      </g>
     </g>
    </g>
    <g id="xtick_10">
     <g id="line2d_12">
      <g>
       <use style="stroke:#000000;stroke-width:0.8;" x="366.265385" xlink:href="#m2e2707a153" y="262"/>
      </g>
     </g>
     <g id="text_10">
      <!-- 0.9 -->
      <g transform="translate(355.928353 278.877969)scale(0.13 -0.13)">
       <defs>
        <path d="M 10.984375 1.515625 
L 10.984375 10.5 
Q 14.703125 8.734375 18.5 7.8125 
Q 22.3125 6.890625 25.984375 6.890625 
Q 35.75 6.890625 40.890625 13.453125 
Q 46.046875 20.015625 46.78125 33.40625 
Q 43.953125 29.203125 39.59375 26.953125 
Q 35.25 24.703125 29.984375 24.703125 
Q 19.046875 24.703125 12.671875 31.3125 
Q 6.296875 37.9375 6.296875 49.421875 
Q 6.296875 60.640625 12.9375 67.421875 
Q 19.578125 74.21875 30.609375 74.21875 
Q 43.265625 74.21875 49.921875 64.515625 
Q 56.59375 54.828125 56.59375 36.375 
Q 56.59375 19.140625 48.40625 8.859375 
Q 40.234375 -1.421875 26.421875 -1.421875 
Q 22.703125 -1.421875 18.890625 -0.6875 
Q 15.09375 0.046875 10.984375 1.515625 
z
M 30.609375 32.421875 
Q 37.25 32.421875 41.125 36.953125 
Q 45.015625 41.5 45.015625 49.421875 
Q 45.015625 57.28125 41.125 61.84375 
Q 37.25 66.40625 30.609375 66.40625 
Q 23.96875 66.40625 20.09375 61.84375 
Q 16.21875 57.28125 16.21875 49.421875 
Q 16.21875 41.5 20.09375 36.953125 
Q 23.96875 32.421875 30.609375 32.421875 
z
" id="DejaVuSans-57"/>
       </defs>
       <use xlink:href="#DejaVuSans-48"/>
       <use x="63.623047" xlink:href="#DejaVuSans-46"/>
       <use x="95.410156" xlink:href="#DejaVuSans-57"/>
      </g>
     </g>
    </g>
    <g id="text_11">
     <!-- Intermittency -->
     <g transform="translate(187.617969 293.18)scale(0.1 -0.1)">
      <defs>
       <path d="M 9.8125 72.90625 
L 19.671875 72.90625 
L 19.671875 0 
L 9.8125 0 
z
" id="DejaVuSans-73"/>
       <path d="M 54.890625 33.015625 
L 54.890625 0 
L 45.90625 0 
L 45.90625 32.71875 
Q 45.90625 40.484375 42.875 44.328125 
Q 39.84375 48.1875 33.796875 48.1875 
Q 26.515625 48.1875 22.3125 43.546875 
Q 18.109375 38.921875 18.109375 30.90625 
L 18.109375 0 
L 9.078125 0 
L 9.078125 54.6875 
L 18.109375 54.6875 
L 18.109375 46.1875 
Q 21.34375 51.125 25.703125 53.5625 
Q 30.078125 56 35.796875 56 
Q 45.21875 56 50.046875 50.171875 
Q 54.890625 44.34375 54.890625 33.015625 
z
" id="DejaVuSans-110"/>
       <path d="M 18.3125 70.21875 
L 18.3125 54.6875 
L 36.8125 54.6875 
L 36.8125 47.703125 
L 18.3125 47.703125 
L 18.3125 18.015625 
Q 18.3125 11.328125 20.140625 9.421875 
Q 21.96875 7.515625 27.59375 7.515625 
L 36.8125 7.515625 
L 36.8125 0 
L 27.59375 0 
Q 17.1875 0 13.234375 3.875 
Q 9.28125 7.765625 9.28125 18.015625 
L 9.28125 47.703125 
L 2.6875 47.703125 
L 2.6875 54.6875 
L 9.28125 54.6875 
L 9.28125 70.21875 
z
" id="DejaVuSans-116"/>
       <path d="M 56.203125 29.59375 
L 56.203125 25.203125 
L 14.890625 25.203125 
Q 15.484375 15.921875 20.484375 11.0625 
Q 25.484375 6.203125 34.421875 6.203125 
Q 39.59375 6.203125 44.453125 7.46875 
Q 49.3125 8.734375 54.109375 11.28125 
L 54.109375 2.78125 
Q 49.265625 0.734375 44.1875 -0.34375 
Q 39.109375 -1.421875 33.890625 -1.421875 
Q 20.796875 -1.421875 13.15625 6.1875 
Q 5.515625 13.8125 5.515625 26.8125 
Q 5.515625 40.234375 12.765625 48.109375 
Q 20.015625 56 32.328125 56 
Q 43.359375 56 49.78125 48.890625 
Q 56.203125 41.796875 56.203125 29.59375 
z
M 47.21875 32.234375 
Q 47.125 39.59375 43.09375 43.984375 
Q 39.0625 48.390625 32.421875 48.390625 
Q 24.90625 48.390625 20.390625 44.140625 
Q 15.875 39.890625 15.1875 32.171875 
z
" id="DejaVuSans-101"/>
       <path d="M 41.109375 46.296875 
Q 39.59375 47.171875 37.8125 47.578125 
Q 36.03125 48 33.890625 48 
Q 26.265625 48 22.1875 43.046875 
Q 18.109375 38.09375 18.109375 28.8125 
L 18.109375 0 
L 9.078125 0 
L 9.078125 54.6875 
L 18.109375 54.6875 
L 18.109375 46.1875 
Q 20.953125 51.171875 25.484375 53.578125 
Q 30.03125 56 36.53125 56 
Q 37.453125 56 38.578125 55.875 
Q 39.703125 55.765625 41.0625 55.515625 
z
" id="DejaVuSans-114"/>
       <path d="M 52 44.1875 
Q 55.375 50.25 60.0625 53.125 
Q 64.75 56 71.09375 56 
Q 79.640625 56 84.28125 50.015625 
Q 88.921875 44.046875 88.921875 33.015625 
L 88.921875 0 
L 79.890625 0 
L 79.890625 32.71875 
Q 79.890625 40.578125 77.09375 44.375 
Q 74.3125 48.1875 68.609375 48.1875 
Q 61.625 48.1875 57.5625 43.546875 
Q 53.515625 38.921875 53.515625 30.90625 
L 53.515625 0 
L 44.484375 0 
L 44.484375 32.71875 
Q 44.484375 40.625 41.703125 44.40625 
Q 38.921875 48.1875 33.109375 48.1875 
Q 26.21875 48.1875 22.15625 43.53125 
Q 18.109375 38.875 18.109375 30.90625 
L 18.109375 0 
L 9.078125 0 
L 9.078125 54.6875 
L 18.109375 54.6875 
L 18.109375 46.1875 
Q 21.1875 51.21875 25.484375 53.609375 
Q 29.78125 56 35.6875 56 
Q 41.65625 56 45.828125 52.96875 
Q 50 49.953125 52 44.1875 
z
" id="DejaVuSans-109"/>
       <path d="M 9.421875 54.6875 
L 18.40625 54.6875 
L 18.40625 0 
L 9.421875 0 
z
M 9.421875 75.984375 
L 18.40625 75.984375 
L 18.40625 64.59375 
L 9.421875 64.59375 
z
" id="DejaVuSans-105"/>
       <path d="M 48.78125 52.59375 
L 48.78125 44.1875 
Q 44.96875 46.296875 41.140625 47.34375 
Q 37.3125 48.390625 33.40625 48.390625 
Q 24.65625 48.390625 19.8125 42.84375 
Q 14.984375 37.3125 14.984375 27.296875 
Q 14.984375 17.28125 19.8125 11.734375 
Q 24.65625 6.203125 33.40625 6.203125 
Q 37.3125 6.203125 41.140625 7.25 
Q 44.96875 8.296875 48.78125 10.40625 
L 48.78125 2.09375 
Q 45.015625 0.34375 40.984375 -0.53125 
Q 36.96875 -1.421875 32.421875 -1.421875 
Q 20.0625 -1.421875 12.78125 6.34375 
Q 5.515625 14.109375 5.515625 27.296875 
Q 5.515625 40.671875 12.859375 48.328125 
Q 20.21875 56 33.015625 56 
Q 37.15625 56 41.109375 55.140625 
Q 45.0625 54.296875 48.78125 52.59375 
z
" id="DejaVuSans-99"/>
       <path d="M 32.171875 -5.078125 
Q 28.375 -14.84375 24.75 -17.8125 
Q 21.140625 -20.796875 15.09375 -20.796875 
L 7.90625 -20.796875 
L 7.90625 -13.28125 
L 13.1875 -13.28125 
Q 16.890625 -13.28125 18.9375 -11.515625 
Q 21 -9.765625 23.484375 -3.21875 
L 25.09375 0.875 
L 2.984375 54.6875 
L 12.5 54.6875 
L 29.59375 11.921875 
L 46.6875 54.6875 
L 56.203125 54.6875 
z
" id="DejaVuSans-121"/>
      </defs>
      <use xlink:href="#DejaVuSans-73"/>
      <use x="29.492188" xlink:href="#DejaVuSans-110"/>
      <use x="92.871094" xlink:href="#DejaVuSans-116"/>
      <use x="132.080078" xlink:href="#DejaVuSans-101"/>
      <use x="193.603516" xlink:href="#DejaVuSans-114"/>
      <use x="232.966797" xlink:href="#DejaVuSans-109"/>
      <use x="330.378906" xlink:href="#DejaVuSans-105"/>
      <use x="358.162109" xlink:href="#DejaVuSans-116"/>
      <use x="397.371094" xlink:href="#DejaVuSans-116"/>
      <use x="436.580078" xlink:href="#DejaVuSans-101"/>
      <use x="498.103516" xlink:href="#DejaVuSans-110"/>
      <use x="561.482422" xlink:href="#DejaVuSans-99"/>
      <use x="616.462891" xlink:href="#DejaVuSans-121"/>
     </g>
    </g>
   </g>
   <g id="matplotlib.axis_2">
    <g id="ytick_1">
     <g id="line2d_13">
      <defs>
       <path d="M 0 0 
L -3.5 0 
" id="ma665721e41" style="stroke:#000000;stroke-width:0.8;"/>
      </defs>
      <g>
       <use style="stroke:#000000;stroke-width:0.8;" x="44" xlink:href="#ma665721e41" y="237.81715"/>
      </g>
     </g>
     <g id="text_12">
      <!-- 0.00 -->
      <g transform="translate(8.054688 242.756134)scale(0.13 -0.13)">
       <use xlink:href="#DejaVuSans-48"/>
       <use x="63.623047" xlink:href="#DejaVuSans-46"/>
       <use x="95.410156" xlink:href="#DejaVuSans-48"/>
       <use x="159.033203" xlink:href="#DejaVuSans-48"/>
      </g>
     </g>
    </g>
    <g id="ytick_2">
     <g id="line2d_14">
      <g>
       <use style="stroke:#000000;stroke-width:0.8;" x="44" xlink:href="#ma665721e41" y="205.079151"/>
      </g>
     </g>
     <g id="text_13">
      <!-- 0.25 -->
      <g transform="translate(8.054688 210.018135)scale(0.13 -0.13)">
       <use xlink:href="#DejaVuSans-48"/>
       <use x="63.623047" xlink:href="#DejaVuSans-46"/>
       <use x="95.410156" xlink:href="#DejaVuSans-50"/>
       <use x="159.033203" xlink:href="#DejaVuSans-53"/>
      </g>
     </g>
    </g>
    <g id="ytick_3">
     <g id="line2d_15">
      <g>
       <use style="stroke:#000000;stroke-width:0.8;" x="44" xlink:href="#ma665721e41" y="172.341152"/>
      </g>
     </g>
     <g id="text_14">
      <!-- 0.50 -->
      <g transform="translate(8.054688 177.280136)scale(0.13 -0.13)">
       <use xlink:href="#DejaVuSans-48"/>
       <use x="63.623047" xlink:href="#DejaVuSans-46"/>
       <use x="95.410156" xlink:href="#DejaVuSans-53"/>
       <use x="159.033203" xlink:href="#DejaVuSans-48"/>
      </g>
     </g>
    </g>
    <g id="ytick_4">
     <g id="line2d_16">
      <g>
       <use style="stroke:#000000;stroke-width:0.8;" x="44" xlink:href="#ma665721e41" y="139.603153"/>
      </g>
     </g>
     <g id="text_15">
      <!-- 0.75 -->
      <g transform="translate(8.054688 144.542137)scale(0.13 -0.13)">
       <use xlink:href="#DejaVuSans-48"/>
       <use x="63.623047" xlink:href="#DejaVuSans-46"/>
       <use x="95.410156" xlink:href="#DejaVuSans-55"/>
       <use x="159.033203" xlink:href="#DejaVuSans-53"/>
      </g>
     </g>
    </g>
    <g id="ytick_5">
     <g id="line2d_17">
      <g>
       <use style="stroke:#000000;stroke-width:0.8;" x="44" xlink:href="#ma665721e41" y="106.865154"/>
      </g>
     </g>
     <g id="text_16">
      <!-- 1.00 -->
      <g transform="translate(8.054688 111.804138)scale(0.13 -0.13)">
       <use xlink:href="#DejaVuSans-49"/>
       <use x="63.623047" xlink:href="#DejaVuSans-46"/>
       <use x="95.410156" xlink:href="#DejaVuSans-48"/>
       <use x="159.033203" xlink:href="#DejaVuSans-48"/>
      </g>
     </g>
    </g>
    <g id="ytick_6">
     <g id="line2d_18">
      <g>
       <use style="stroke:#000000;stroke-width:0.8;" x="44" xlink:href="#ma665721e41" y="74.127155"/>
      </g>
     </g>
     <g id="text_17">
      <!-- 1.25 -->
      <g transform="translate(8.054688 79.066139)scale(0.13 -0.13)">
       <use xlink:href="#DejaVuSans-49"/>
       <use x="63.623047" xlink:href="#DejaVuSans-46"/>
       <use x="95.410156" xlink:href="#DejaVuSans-50"/>
       <use x="159.033203" xlink:href="#DejaVuSans-53"/>
      </g>
     </g>
    </g>
    <g id="ytick_7">
     <g id="line2d_19">
      <g>
       <use style="stroke:#000000;stroke-width:0.8;" x="44" xlink:href="#ma665721e41" y="41.389156"/>
      </g>
     </g>
     <g id="text_18">
      <!-- 1.50 -->
      <g transform="translate(8.054688 46.32814)scale(0.13 -0.13)">
       <use xlink:href="#DejaVuSans-49"/>
       <use x="63.623047" xlink:href="#DejaVuSans-46"/>
       <use x="95.410156" xlink:href="#DejaVuSans-53"/>
       <use x="159.033203" xlink:href="#DejaVuSans-48"/>
      </g>
     </g>
    </g>
    <g id="text_19">
     <!-- PN Structure-Dynamics Similarity -->
     <g transform="translate(1.975 226.569063)rotate(-90)scale(0.1 -0.1)">
      <defs>
       <path d="M 19.671875 64.796875 
L 19.671875 37.40625 
L 32.078125 37.40625 
Q 38.96875 37.40625 42.71875 40.96875 
Q 46.484375 44.53125 46.484375 51.125 
Q 46.484375 57.671875 42.71875 61.234375 
Q 38.96875 64.796875 32.078125 64.796875 
z
M 9.8125 72.90625 
L 32.078125 72.90625 
Q 44.34375 72.90625 50.609375 67.359375 
Q 56.890625 61.8125 56.890625 51.125 
Q 56.890625 40.328125 50.609375 34.8125 
Q 44.34375 29.296875 32.078125 29.296875 
L 19.671875 29.296875 
L 19.671875 0 
L 9.8125 0 
z
" id="DejaVuSans-80"/>
       <path d="M 9.8125 72.90625 
L 23.09375 72.90625 
L 55.421875 11.921875 
L 55.421875 72.90625 
L 64.984375 72.90625 
L 64.984375 0 
L 51.703125 0 
L 19.390625 60.984375 
L 19.390625 0 
L 9.8125 0 
z
" id="DejaVuSans-78"/>
       <path id="DejaVuSans-32"/>
       <path d="M 53.515625 70.515625 
L 53.515625 60.890625 
Q 47.90625 63.578125 42.921875 64.890625 
Q 37.9375 66.21875 33.296875 66.21875 
Q 25.25 66.21875 20.875 63.09375 
Q 16.5 59.96875 16.5 54.203125 
Q 16.5 49.359375 19.40625 46.890625 
Q 22.3125 44.4375 30.421875 42.921875 
L 36.375 41.703125 
Q 47.40625 39.59375 52.65625 34.296875 
Q 57.90625 29 57.90625 20.125 
Q 57.90625 9.515625 50.796875 4.046875 
Q 43.703125 -1.421875 29.984375 -1.421875 
Q 24.8125 -1.421875 18.96875 -0.25 
Q 13.140625 0.921875 6.890625 3.21875 
L 6.890625 13.375 
Q 12.890625 10.015625 18.65625 8.296875 
Q 24.421875 6.59375 29.984375 6.59375 
Q 38.421875 6.59375 43.015625 9.90625 
Q 47.609375 13.234375 47.609375 19.390625 
Q 47.609375 24.75 44.3125 27.78125 
Q 41.015625 30.8125 33.5 32.328125 
L 27.484375 33.5 
Q 16.453125 35.6875 11.515625 40.375 
Q 6.59375 45.0625 6.59375 53.421875 
Q 6.59375 63.09375 13.40625 68.65625 
Q 20.21875 74.21875 32.171875 74.21875 
Q 37.3125 74.21875 42.625 73.28125 
Q 47.953125 72.359375 53.515625 70.515625 
z
" id="DejaVuSans-83"/>
       <path d="M 8.5 21.578125 
L 8.5 54.6875 
L 17.484375 54.6875 
L 17.484375 21.921875 
Q 17.484375 14.15625 20.5 10.265625 
Q 23.53125 6.390625 29.59375 6.390625 
Q 36.859375 6.390625 41.078125 11.03125 
Q 45.3125 15.671875 45.3125 23.6875 
L 45.3125 54.6875 
L 54.296875 54.6875 
L 54.296875 0 
L 45.3125 0 
L 45.3125 8.40625 
Q 42.046875 3.421875 37.71875 1 
Q 33.40625 -1.421875 27.6875 -1.421875 
Q 18.265625 -1.421875 13.375 4.4375 
Q 8.5 10.296875 8.5 21.578125 
z
M 31.109375 56 
z
" id="DejaVuSans-117"/>
       <path d="M 4.890625 31.390625 
L 31.203125 31.390625 
L 31.203125 23.390625 
L 4.890625 23.390625 
z
" id="DejaVuSans-45"/>
       <path d="M 34.28125 27.484375 
Q 23.390625 27.484375 19.1875 25 
Q 14.984375 22.515625 14.984375 16.5 
Q 14.984375 11.71875 18.140625 8.90625 
Q 21.296875 6.109375 26.703125 6.109375 
Q 34.1875 6.109375 38.703125 11.40625 
Q 43.21875 16.703125 43.21875 25.484375 
L 43.21875 27.484375 
z
M 52.203125 31.203125 
L 52.203125 0 
L 43.21875 0 
L 43.21875 8.296875 
Q 40.140625 3.328125 35.546875 0.953125 
Q 30.953125 -1.421875 24.3125 -1.421875 
Q 15.921875 -1.421875 10.953125 3.296875 
Q 6 8.015625 6 15.921875 
Q 6 25.140625 12.171875 29.828125 
Q 18.359375 34.515625 30.609375 34.515625 
L 43.21875 34.515625 
L 43.21875 35.40625 
Q 43.21875 41.609375 39.140625 45 
Q 35.0625 48.390625 27.6875 48.390625 
Q 23 48.390625 18.546875 47.265625 
Q 14.109375 46.140625 10.015625 43.890625 
L 10.015625 52.203125 
Q 14.9375 54.109375 19.578125 55.046875 
Q 24.21875 56 28.609375 56 
Q 40.484375 56 46.34375 49.84375 
Q 52.203125 43.703125 52.203125 31.203125 
z
" id="DejaVuSans-97"/>
       <path d="M 44.28125 53.078125 
L 44.28125 44.578125 
Q 40.484375 46.53125 36.375 47.5 
Q 32.28125 48.484375 27.875 48.484375 
Q 21.1875 48.484375 17.84375 46.4375 
Q 14.5 44.390625 14.5 40.28125 
Q 14.5 37.15625 16.890625 35.375 
Q 19.28125 33.59375 26.515625 31.984375 
L 29.59375 31.296875 
Q 39.15625 29.25 43.1875 25.515625 
Q 47.21875 21.78125 47.21875 15.09375 
Q 47.21875 7.46875 41.1875 3.015625 
Q 35.15625 -1.421875 24.609375 -1.421875 
Q 20.21875 -1.421875 15.453125 -0.5625 
Q 10.6875 0.296875 5.421875 2 
L 5.421875 11.28125 
Q 10.40625 8.6875 15.234375 7.390625 
Q 20.0625 6.109375 24.8125 6.109375 
Q 31.15625 6.109375 34.5625 8.28125 
Q 37.984375 10.453125 37.984375 14.40625 
Q 37.984375 18.0625 35.515625 20.015625 
Q 33.0625 21.96875 24.703125 23.78125 
L 21.578125 24.515625 
Q 13.234375 26.265625 9.515625 29.90625 
Q 5.8125 33.546875 5.8125 39.890625 
Q 5.8125 47.609375 11.28125 51.796875 
Q 16.75 56 26.8125 56 
Q 31.78125 56 36.171875 55.265625 
Q 40.578125 54.546875 44.28125 53.078125 
z
" id="DejaVuSans-115"/>
       <path d="M 9.421875 75.984375 
L 18.40625 75.984375 
L 18.40625 0 
L 9.421875 0 
z
" id="DejaVuSans-108"/>
      </defs>
      <use xlink:href="#DejaVuSans-80"/>
      <use x="60.302734" xlink:href="#DejaVuSans-78"/>
      <use x="135.107422" xlink:href="#DejaVuSans-32"/>
      <use x="166.894531" xlink:href="#DejaVuSans-83"/>
      <use x="230.371094" xlink:href="#DejaVuSans-116"/>
      <use x="269.580078" xlink:href="#DejaVuSans-114"/>
      <use x="310.693359" xlink:href="#DejaVuSans-117"/>
      <use x="374.072266" xlink:href="#DejaVuSans-99"/>
      <use x="429.052734" xlink:href="#DejaVuSans-116"/>
      <use x="468.261719" xlink:href="#DejaVuSans-117"/>
      <use x="531.640625" xlink:href="#DejaVuSans-114"/>
      <use x="570.503906" xlink:href="#DejaVuSans-101"/>
      <use x="632.027344" xlink:href="#DejaVuSans-45"/>
      <use x="668.111328" xlink:href="#DejaVuSans-68"/>
      <use x="745.113281" xlink:href="#DejaVuSans-121"/>
      <use x="804.292969" xlink:href="#DejaVuSans-110"/>
      <use x="867.671875" xlink:href="#DejaVuSans-97"/>
      <use x="928.951172" xlink:href="#DejaVuSans-109"/>
      <use x="1026.363281" xlink:href="#DejaVuSans-105"/>
      <use x="1054.146484" xlink:href="#DejaVuSans-99"/>
      <use x="1109.126953" xlink:href="#DejaVuSans-115"/>
      <use x="1161.226562" xlink:href="#DejaVuSans-32"/>
      <use x="1193.013672" xlink:href="#DejaVuSans-83"/>
      <use x="1256.490234" xlink:href="#DejaVuSans-105"/>
      <use x="1284.273438" xlink:href="#DejaVuSans-109"/>
      <use x="1381.685547" xlink:href="#DejaVuSans-105"/>
      <use x="1409.46875" xlink:href="#DejaVuSans-108"/>
      <use x="1437.251953" xlink:href="#DejaVuSans-97"/>
      <use x="1498.53125" xlink:href="#DejaVuSans-114"/>
      <use x="1539.644531" xlink:href="#DejaVuSans-105"/>
      <use x="1567.427734" xlink:href="#DejaVuSans-116"/>
      <use x="1606.636719" xlink:href="#DejaVuSans-121"/>
     </g>
    </g>
   </g>
   <g id="line2d_20">
    <path clip-path="url(#p9451c52a7e)" d="M 70.096154 189.917132 
L 70.096154 245.43983 
" style="fill:none;stroke:#4d4d4d;stroke-linecap:square;stroke-width:1.5;"/>
   </g>
   <g id="line2d_21">
    <path clip-path="url(#p9451c52a7e)" d="M 70.096154 144.940265 
L 70.096154 121.90372 
" style="fill:none;stroke:#4d4d4d;stroke-linecap:square;stroke-width:1.5;"/>
   </g>
   <g id="line2d_22">
    <path clip-path="url(#p9451c52a7e)" d="M 66.941308 245.43983 
L 73.251 245.43983 
" style="fill:none;stroke:#4d4d4d;stroke-linecap:square;stroke-width:1.5;"/>
   </g>
   <g id="line2d_23">
    <path clip-path="url(#p9451c52a7e)" d="M 66.941308 121.90372 
L 73.251 121.90372 
" style="fill:none;stroke:#4d4d4d;stroke-linecap:square;stroke-width:1.5;"/>
   </g>
   <g id="line2d_24"/>
   <g id="line2d_25">
    <path clip-path="url(#p9451c52a7e)" d="M 82.973077 205.728331 
L 82.973077 224.463488 
" style="fill:none;stroke:#4d4d4d;stroke-linecap:square;stroke-width:1.5;"/>
   </g>
   <g id="line2d_26">
    <path clip-path="url(#p9451c52a7e)" d="M 82.973077 189.786054 
L 82.973077 165.906357 
" style="fill:none;stroke:#4d4d4d;stroke-linecap:square;stroke-width:1.5;"/>
   </g>
   <g id="line2d_27">
    <path clip-path="url(#p9451c52a7e)" d="M 79.818231 224.463488 
L 86.127923 224.463488 
" style="fill:none;stroke:#4d4d4d;stroke-linecap:square;stroke-width:1.5;"/>
   </g>
   <g id="line2d_28">
    <path clip-path="url(#p9451c52a7e)" d="M 79.818231 165.906357 
L 86.127923 165.906357 
" style="fill:none;stroke:#4d4d4d;stroke-linecap:square;stroke-width:1.5;"/>
   </g>
   <g id="line2d_29">
    <defs>
     <path d="M 0 3.535534 
L 2.12132 0 
L 0 -3.535534 
L -2.12132 0 
z
" id="m55f3904a52" style="stroke:#4d4d4d;stroke-linejoin:miter;"/>
    </defs>
    <g clip-path="url(#p9451c52a7e)">
     <use style="fill:#4d4d4d;stroke:#4d4d4d;stroke-linejoin:miter;" x="82.973077" xlink:href="#m55f3904a52" y="163.793442"/>
     <use style="fill:#4d4d4d;stroke:#4d4d4d;stroke-linejoin:miter;" x="82.973077" xlink:href="#m55f3904a52" y="164.790171"/>
     <use style="fill:#4d4d4d;stroke:#4d4d4d;stroke-linejoin:miter;" x="82.973077" xlink:href="#m55f3904a52" y="164.055217"/>
     <use style="fill:#4d4d4d;stroke:#4d4d4d;stroke-linejoin:miter;" x="82.973077" xlink:href="#m55f3904a52" y="165.775827"/>
     <use style="fill:#4d4d4d;stroke:#4d4d4d;stroke-linejoin:miter;" x="82.973077" xlink:href="#m55f3904a52" y="163.148577"/>
     <use style="fill:#4d4d4d;stroke:#4d4d4d;stroke-linejoin:miter;" x="82.973077" xlink:href="#m55f3904a52" y="163.33424"/>
     <use style="fill:#4d4d4d;stroke:#4d4d4d;stroke-linejoin:miter;" x="82.973077" xlink:href="#m55f3904a52" y="165.377893"/>
     <use style="fill:#4d4d4d;stroke:#4d4d4d;stroke-linejoin:miter;" x="82.973077" xlink:href="#m55f3904a52" y="165.824751"/>
    </g>
   </g>
   <g id="line2d_30">
    <path clip-path="url(#p9451c52a7e)" d="M 102.288462 169.397721 
L 102.288462 212.289197 
" style="fill:none;stroke:#4d4d4d;stroke-linecap:square;stroke-width:1.5;"/>
   </g>
   <g id="line2d_31">
    <path clip-path="url(#p9451c52a7e)" d="M 102.288462 138.176138 
L 102.288462 114.236424 
" style="fill:none;stroke:#4d4d4d;stroke-linecap:square;stroke-width:1.5;"/>
   </g>
   <g id="line2d_32">
    <path clip-path="url(#p9451c52a7e)" d="M 99.133615 212.289197 
L 105.443308 212.289197 
" style="fill:none;stroke:#4d4d4d;stroke-linecap:square;stroke-width:1.5;"/>
   </g>
   <g id="line2d_33">
    <path clip-path="url(#p9451c52a7e)" d="M 99.133615 114.236424 
L 105.443308 114.236424 
" style="fill:none;stroke:#4d4d4d;stroke-linecap:square;stroke-width:1.5;"/>
   </g>
   <g id="line2d_34"/>
   <g id="line2d_35">
    <path clip-path="url(#p9451c52a7e)" d="M 115.165385 193.616235 
L 115.165385 205.79854 
" style="fill:none;stroke:#4d4d4d;stroke-linecap:square;stroke-width:1.5;"/>
   </g>
   <g id="line2d_36">
    <path clip-path="url(#p9451c52a7e)" d="M 115.165385 181.04061 
L 115.165385 162.888345 
" style="fill:none;stroke:#4d4d4d;stroke-linecap:square;stroke-width:1.5;"/>
   </g>
   <g id="line2d_37">
    <path clip-path="url(#p9451c52a7e)" d="M 112.010538 205.79854 
L 118.320231 205.79854 
" style="fill:none;stroke:#4d4d4d;stroke-linecap:square;stroke-width:1.5;"/>
   </g>
   <g id="line2d_38">
    <path clip-path="url(#p9451c52a7e)" d="M 112.010538 162.888345 
L 118.320231 162.888345 
" style="fill:none;stroke:#4d4d4d;stroke-linecap:square;stroke-width:1.5;"/>
   </g>
   <g id="line2d_39"/>
   <g id="line2d_40">
    <path clip-path="url(#p9451c52a7e)" d="M 134.480769 161.44581 
L 134.480769 197.294289 
" style="fill:none;stroke:#4d4d4d;stroke-linecap:square;stroke-width:1.5;"/>
   </g>
   <g id="line2d_41">
    <path clip-path="url(#p9451c52a7e)" d="M 134.480769 136.495167 
L 134.480769 116.028039 
" style="fill:none;stroke:#4d4d4d;stroke-linecap:square;stroke-width:1.5;"/>
   </g>
   <g id="line2d_42">
    <path clip-path="url(#p9451c52a7e)" d="M 131.325923 197.294289 
L 137.635615 197.294289 
" style="fill:none;stroke:#4d4d4d;stroke-linecap:square;stroke-width:1.5;"/>
   </g>
   <g id="line2d_43">
    <path clip-path="url(#p9451c52a7e)" d="M 131.325923 116.028039 
L 137.635615 116.028039 
" style="fill:none;stroke:#4d4d4d;stroke-linecap:square;stroke-width:1.5;"/>
   </g>
   <g id="line2d_44">
    <g clip-path="url(#p9451c52a7e)">
     <use style="fill:#4d4d4d;stroke:#4d4d4d;stroke-linejoin:miter;" x="134.480769" xlink:href="#m55f3904a52" y="201.662831"/>
     <use style="fill:#4d4d4d;stroke:#4d4d4d;stroke-linejoin:miter;" x="134.480769" xlink:href="#m55f3904a52" y="204.92614"/>
     <use style="fill:#4d4d4d;stroke:#4d4d4d;stroke-linejoin:miter;" x="134.480769" xlink:href="#m55f3904a52" y="202.769724"/>
     <use style="fill:#4d4d4d;stroke:#4d4d4d;stroke-linejoin:miter;" x="134.480769" xlink:href="#m55f3904a52" y="199.156397"/>
     <use style="fill:#4d4d4d;stroke:#4d4d4d;stroke-linejoin:miter;" x="134.480769" xlink:href="#m55f3904a52" y="202.249631"/>
     <use style="fill:#4d4d4d;stroke:#4d4d4d;stroke-linejoin:miter;" x="134.480769" xlink:href="#m55f3904a52" y="206.150385"/>
     <use style="fill:#4d4d4d;stroke:#4d4d4d;stroke-linejoin:miter;" x="134.480769" xlink:href="#m55f3904a52" y="199.148109"/>
     <use style="fill:#4d4d4d;stroke:#4d4d4d;stroke-linejoin:miter;" x="134.480769" xlink:href="#m55f3904a52" y="204.265168"/>
     <use style="fill:#4d4d4d;stroke:#4d4d4d;stroke-linejoin:miter;" x="134.480769" xlink:href="#m55f3904a52" y="208.537476"/>
     <use style="fill:#4d4d4d;stroke:#4d4d4d;stroke-linejoin:miter;" x="134.480769" xlink:href="#m55f3904a52" y="201.102453"/>
     <use style="fill:#4d4d4d;stroke:#4d4d4d;stroke-linejoin:miter;" x="134.480769" xlink:href="#m55f3904a52" y="206.805037"/>
     <use style="fill:#4d4d4d;stroke:#4d4d4d;stroke-linejoin:miter;" x="134.480769" xlink:href="#m55f3904a52" y="208.624217"/>
     <use style="fill:#4d4d4d;stroke:#4d4d4d;stroke-linejoin:miter;" x="134.480769" xlink:href="#m55f3904a52" y="210.406559"/>
     <use style="fill:#4d4d4d;stroke:#4d4d4d;stroke-linejoin:miter;" x="134.480769" xlink:href="#m55f3904a52" y="204.300468"/>
     <use style="fill:#4d4d4d;stroke:#4d4d4d;stroke-linejoin:miter;" x="134.480769" xlink:href="#m55f3904a52" y="204.017975"/>
     <use style="fill:#4d4d4d;stroke:#4d4d4d;stroke-linejoin:miter;" x="134.480769" xlink:href="#m55f3904a52" y="207.231325"/>
     <use style="fill:#4d4d4d;stroke:#4d4d4d;stroke-linejoin:miter;" x="134.480769" xlink:href="#m55f3904a52" y="205.643567"/>
    </g>
   </g>
   <g id="line2d_45">
    <path clip-path="url(#p9451c52a7e)" d="M 147.357692 190.895897 
L 147.357692 201.36856 
" style="fill:none;stroke:#4d4d4d;stroke-linecap:square;stroke-width:1.5;"/>
   </g>
   <g id="line2d_46">
    <path clip-path="url(#p9451c52a7e)" d="M 147.357692 177.88131 
L 147.357692 162.75689 
" style="fill:none;stroke:#4d4d4d;stroke-linecap:square;stroke-width:1.5;"/>
   </g>
   <g id="line2d_47">
    <path clip-path="url(#p9451c52a7e)" d="M 144.202846 201.36856 
L 150.512538 201.36856 
" style="fill:none;stroke:#4d4d4d;stroke-linecap:square;stroke-width:1.5;"/>
   </g>
   <g id="line2d_48">
    <path clip-path="url(#p9451c52a7e)" d="M 144.202846 162.75689 
L 150.512538 162.75689 
" style="fill:none;stroke:#4d4d4d;stroke-linecap:square;stroke-width:1.5;"/>
   </g>
   <g id="line2d_49"/>
   <g id="line2d_50">
    <path clip-path="url(#p9451c52a7e)" d="M 166.673077 159.576458 
L 166.673077 192.793091 
" style="fill:none;stroke:#4d4d4d;stroke-linecap:square;stroke-width:1.5;"/>
   </g>
   <g id="line2d_51">
    <path clip-path="url(#p9451c52a7e)" d="M 166.673077 136.425417 
L 166.673077 115.623847 
" style="fill:none;stroke:#4d4d4d;stroke-linecap:square;stroke-width:1.5;"/>
   </g>
   <g id="line2d_52">
    <path clip-path="url(#p9451c52a7e)" d="M 163.518231 192.793091 
L 169.827923 192.793091 
" style="fill:none;stroke:#4d4d4d;stroke-linecap:square;stroke-width:1.5;"/>
   </g>
   <g id="line2d_53">
    <path clip-path="url(#p9451c52a7e)" d="M 163.518231 115.623847 
L 169.827923 115.623847 
" style="fill:none;stroke:#4d4d4d;stroke-linecap:square;stroke-width:1.5;"/>
   </g>
   <g id="line2d_54">
    <g clip-path="url(#p9451c52a7e)">
     <use style="fill:#4d4d4d;stroke:#4d4d4d;stroke-linejoin:miter;" x="166.673077" xlink:href="#m55f3904a52" y="203.676326"/>
     <use style="fill:#4d4d4d;stroke:#4d4d4d;stroke-linejoin:miter;" x="166.673077" xlink:href="#m55f3904a52" y="194.826193"/>
     <use style="fill:#4d4d4d;stroke:#4d4d4d;stroke-linejoin:miter;" x="166.673077" xlink:href="#m55f3904a52" y="197.583613"/>
     <use style="fill:#4d4d4d;stroke:#4d4d4d;stroke-linejoin:miter;" x="166.673077" xlink:href="#m55f3904a52" y="194.984015"/>
     <use style="fill:#4d4d4d;stroke:#4d4d4d;stroke-linejoin:miter;" x="166.673077" xlink:href="#m55f3904a52" y="196.67212"/>
     <use style="fill:#4d4d4d;stroke:#4d4d4d;stroke-linejoin:miter;" x="166.673077" xlink:href="#m55f3904a52" y="200.857568"/>
     <use style="fill:#4d4d4d;stroke:#4d4d4d;stroke-linejoin:miter;" x="166.673077" xlink:href="#m55f3904a52" y="196.510237"/>
     <use style="fill:#4d4d4d;stroke:#4d4d4d;stroke-linejoin:miter;" x="166.673077" xlink:href="#m55f3904a52" y="205.576591"/>
     <use style="fill:#4d4d4d;stroke:#4d4d4d;stroke-linejoin:miter;" x="166.673077" xlink:href="#m55f3904a52" y="196.200608"/>
     <use style="fill:#4d4d4d;stroke:#4d4d4d;stroke-linejoin:miter;" x="166.673077" xlink:href="#m55f3904a52" y="194.893495"/>
     <use style="fill:#4d4d4d;stroke:#4d4d4d;stroke-linejoin:miter;" x="166.673077" xlink:href="#m55f3904a52" y="198.151497"/>
     <use style="fill:#4d4d4d;stroke:#4d4d4d;stroke-linejoin:miter;" x="166.673077" xlink:href="#m55f3904a52" y="203.073049"/>
     <use style="fill:#4d4d4d;stroke:#4d4d4d;stroke-linejoin:miter;" x="166.673077" xlink:href="#m55f3904a52" y="202.933245"/>
     <use style="fill:#4d4d4d;stroke:#4d4d4d;stroke-linejoin:miter;" x="166.673077" xlink:href="#m55f3904a52" y="205.527377"/>
     <use style="fill:#4d4d4d;stroke:#4d4d4d;stroke-linejoin:miter;" x="166.673077" xlink:href="#m55f3904a52" y="196.705485"/>
    </g>
   </g>
   <g id="line2d_55">
    <path clip-path="url(#p9451c52a7e)" d="M 179.55 189.164487 
L 179.55 198.087574 
" style="fill:none;stroke:#4d4d4d;stroke-linecap:square;stroke-width:1.5;"/>
   </g>
   <g id="line2d_56">
    <path clip-path="url(#p9451c52a7e)" d="M 179.55 176.531394 
L 179.55 163.124878 
" style="fill:none;stroke:#4d4d4d;stroke-linecap:square;stroke-width:1.5;"/>
   </g>
   <g id="line2d_57">
    <path clip-path="url(#p9451c52a7e)" d="M 176.395154 198.087574 
L 182.704846 198.087574 
" style="fill:none;stroke:#4d4d4d;stroke-linecap:square;stroke-width:1.5;"/>
   </g>
   <g id="line2d_58">
    <path clip-path="url(#p9451c52a7e)" d="M 176.395154 163.124878 
L 182.704846 163.124878 
" style="fill:none;stroke:#4d4d4d;stroke-linecap:square;stroke-width:1.5;"/>
   </g>
   <g id="line2d_59"/>
   <g id="line2d_60">
    <path clip-path="url(#p9451c52a7e)" d="M 198.865385 159.949665 
L 198.865385 192.167059 
" style="fill:none;stroke:#4d4d4d;stroke-linecap:square;stroke-width:1.5;"/>
   </g>
   <g id="line2d_61">
    <path clip-path="url(#p9451c52a7e)" d="M 198.865385 137.974471 
L 198.865385 118.750512 
" style="fill:none;stroke:#4d4d4d;stroke-linecap:square;stroke-width:1.5;"/>
   </g>
   <g id="line2d_62">
    <path clip-path="url(#p9451c52a7e)" d="M 195.710538 192.167059 
L 202.020231 192.167059 
" style="fill:none;stroke:#4d4d4d;stroke-linecap:square;stroke-width:1.5;"/>
   </g>
   <g id="line2d_63">
    <path clip-path="url(#p9451c52a7e)" d="M 195.710538 118.750512 
L 202.020231 118.750512 
" style="fill:none;stroke:#4d4d4d;stroke-linecap:square;stroke-width:1.5;"/>
   </g>
   <g id="line2d_64">
    <g clip-path="url(#p9451c52a7e)">
     <use style="fill:#4d4d4d;stroke:#4d4d4d;stroke-linejoin:miter;" x="198.865385" xlink:href="#m55f3904a52" y="195.065133"/>
     <use style="fill:#4d4d4d;stroke:#4d4d4d;stroke-linejoin:miter;" x="198.865385" xlink:href="#m55f3904a52" y="204.688487"/>
     <use style="fill:#4d4d4d;stroke:#4d4d4d;stroke-linejoin:miter;" x="198.865385" xlink:href="#m55f3904a52" y="193.658491"/>
     <use style="fill:#4d4d4d;stroke:#4d4d4d;stroke-linejoin:miter;" x="198.865385" xlink:href="#m55f3904a52" y="195.662444"/>
     <use style="fill:#4d4d4d;stroke:#4d4d4d;stroke-linejoin:miter;" x="198.865385" xlink:href="#m55f3904a52" y="197.320108"/>
     <use style="fill:#4d4d4d;stroke:#4d4d4d;stroke-linejoin:miter;" x="198.865385" xlink:href="#m55f3904a52" y="194.654361"/>
     <use style="fill:#4d4d4d;stroke:#4d4d4d;stroke-linejoin:miter;" x="198.865385" xlink:href="#m55f3904a52" y="197.492102"/>
     <use style="fill:#4d4d4d;stroke:#4d4d4d;stroke-linejoin:miter;" x="198.865385" xlink:href="#m55f3904a52" y="203.263338"/>
     <use style="fill:#4d4d4d;stroke:#4d4d4d;stroke-linejoin:miter;" x="198.865385" xlink:href="#m55f3904a52" y="196.096469"/>
     <use style="fill:#4d4d4d;stroke:#4d4d4d;stroke-linejoin:miter;" x="198.865385" xlink:href="#m55f3904a52" y="199.679156"/>
     <use style="fill:#4d4d4d;stroke:#4d4d4d;stroke-linejoin:miter;" x="198.865385" xlink:href="#m55f3904a52" y="205.479862"/>
     <use style="fill:#4d4d4d;stroke:#4d4d4d;stroke-linejoin:miter;" x="198.865385" xlink:href="#m55f3904a52" y="196.35544"/>
     <use style="fill:#4d4d4d;stroke:#4d4d4d;stroke-linejoin:miter;" x="198.865385" xlink:href="#m55f3904a52" y="198.513267"/>
    </g>
   </g>
   <g id="line2d_65">
    <path clip-path="url(#p9451c52a7e)" d="M 211.742308 187.808897 
L 211.742308 197.870806 
" style="fill:none;stroke:#4d4d4d;stroke-linecap:square;stroke-width:1.5;"/>
   </g>
   <g id="line2d_66">
    <path clip-path="url(#p9451c52a7e)" d="M 211.742308 175.45127 
L 211.742308 159.251195 
" style="fill:none;stroke:#4d4d4d;stroke-linecap:square;stroke-width:1.5;"/>
   </g>
   <g id="line2d_67">
    <path clip-path="url(#p9451c52a7e)" d="M 208.587462 197.870806 
L 214.897154 197.870806 
" style="fill:none;stroke:#4d4d4d;stroke-linecap:square;stroke-width:1.5;"/>
   </g>
   <g id="line2d_68">
    <path clip-path="url(#p9451c52a7e)" d="M 208.587462 159.251195 
L 214.897154 159.251195 
" style="fill:none;stroke:#4d4d4d;stroke-linecap:square;stroke-width:1.5;"/>
   </g>
   <g id="line2d_69"/>
   <g id="line2d_70">
    <path clip-path="url(#p9451c52a7e)" d="M 231.057692 159.952865 
L 231.057692 190.894042 
" style="fill:none;stroke:#4d4d4d;stroke-linecap:square;stroke-width:1.5;"/>
   </g>
   <g id="line2d_71">
    <path clip-path="url(#p9451c52a7e)" d="M 231.057692 138.253239 
L 231.057692 118.760968 
" style="fill:none;stroke:#4d4d4d;stroke-linecap:square;stroke-width:1.5;"/>
   </g>
   <g id="line2d_72">
    <path clip-path="url(#p9451c52a7e)" d="M 227.902846 190.894042 
L 234.212538 190.894042 
" style="fill:none;stroke:#4d4d4d;stroke-linecap:square;stroke-width:1.5;"/>
   </g>
   <g id="line2d_73">
    <path clip-path="url(#p9451c52a7e)" d="M 227.902846 118.760968 
L 234.212538 118.760968 
" style="fill:none;stroke:#4d4d4d;stroke-linecap:square;stroke-width:1.5;"/>
   </g>
   <g id="line2d_74">
    <g clip-path="url(#p9451c52a7e)">
     <use style="fill:#4d4d4d;stroke:#4d4d4d;stroke-linejoin:miter;" x="231.057692" xlink:href="#m55f3904a52" y="208.016178"/>
     <use style="fill:#4d4d4d;stroke:#4d4d4d;stroke-linejoin:miter;" x="231.057692" xlink:href="#m55f3904a52" y="195.923299"/>
     <use style="fill:#4d4d4d;stroke:#4d4d4d;stroke-linejoin:miter;" x="231.057692" xlink:href="#m55f3904a52" y="197.784031"/>
     <use style="fill:#4d4d4d;stroke:#4d4d4d;stroke-linejoin:miter;" x="231.057692" xlink:href="#m55f3904a52" y="192.771929"/>
     <use style="fill:#4d4d4d;stroke:#4d4d4d;stroke-linejoin:miter;" x="231.057692" xlink:href="#m55f3904a52" y="192.722626"/>
     <use style="fill:#4d4d4d;stroke:#4d4d4d;stroke-linejoin:miter;" x="231.057692" xlink:href="#m55f3904a52" y="193.703625"/>
     <use style="fill:#4d4d4d;stroke:#4d4d4d;stroke-linejoin:miter;" x="231.057692" xlink:href="#m55f3904a52" y="203.540035"/>
     <use style="fill:#4d4d4d;stroke:#4d4d4d;stroke-linejoin:miter;" x="231.057692" xlink:href="#m55f3904a52" y="198.71224"/>
     <use style="fill:#4d4d4d;stroke:#4d4d4d;stroke-linejoin:miter;" x="231.057692" xlink:href="#m55f3904a52" y="194.502749"/>
     <use style="fill:#4d4d4d;stroke:#4d4d4d;stroke-linejoin:miter;" x="231.057692" xlink:href="#m55f3904a52" y="200.846845"/>
     <use style="fill:#4d4d4d;stroke:#4d4d4d;stroke-linejoin:miter;" x="231.057692" xlink:href="#m55f3904a52" y="199.427038"/>
     <use style="fill:#4d4d4d;stroke:#4d4d4d;stroke-linejoin:miter;" x="231.057692" xlink:href="#m55f3904a52" y="196.733282"/>
    </g>
   </g>
   <g id="line2d_75">
    <path clip-path="url(#p9451c52a7e)" d="M 243.934615 186.9592 
L 243.934615 198.190619 
" style="fill:none;stroke:#4d4d4d;stroke-linecap:square;stroke-width:1.5;"/>
   </g>
   <g id="line2d_76">
    <path clip-path="url(#p9451c52a7e)" d="M 243.934615 174.273253 
L 243.934615 162.303959 
" style="fill:none;stroke:#4d4d4d;stroke-linecap:square;stroke-width:1.5;"/>
   </g>
   <g id="line2d_77">
    <path clip-path="url(#p9451c52a7e)" d="M 240.779769 198.190619 
L 247.089462 198.190619 
" style="fill:none;stroke:#4d4d4d;stroke-linecap:square;stroke-width:1.5;"/>
   </g>
   <g id="line2d_78">
    <path clip-path="url(#p9451c52a7e)" d="M 240.779769 162.303959 
L 247.089462 162.303959 
" style="fill:none;stroke:#4d4d4d;stroke-linecap:square;stroke-width:1.5;"/>
   </g>
   <g id="line2d_79"/>
   <g id="line2d_80">
    <path clip-path="url(#p9451c52a7e)" d="M 263.25 159.640887 
L 263.25 190.024764 
" style="fill:none;stroke:#4d4d4d;stroke-linecap:square;stroke-width:1.5;"/>
   </g>
   <g id="line2d_81">
    <path clip-path="url(#p9451c52a7e)" d="M 263.25 138.969109 
L 263.25 122.323568 
" style="fill:none;stroke:#4d4d4d;stroke-linecap:square;stroke-width:1.5;"/>
   </g>
   <g id="line2d_82">
    <path clip-path="url(#p9451c52a7e)" d="M 260.095154 190.024764 
L 266.404846 190.024764 
" style="fill:none;stroke:#4d4d4d;stroke-linecap:square;stroke-width:1.5;"/>
   </g>
   <g id="line2d_83">
    <path clip-path="url(#p9451c52a7e)" d="M 260.095154 122.323568 
L 266.404846 122.323568 
" style="fill:none;stroke:#4d4d4d;stroke-linecap:square;stroke-width:1.5;"/>
   </g>
   <g id="line2d_84">
    <g clip-path="url(#p9451c52a7e)">
     <use style="fill:#4d4d4d;stroke:#4d4d4d;stroke-linejoin:miter;" x="263.25" xlink:href="#m55f3904a52" y="197.019212"/>
     <use style="fill:#4d4d4d;stroke:#4d4d4d;stroke-linejoin:miter;" x="263.25" xlink:href="#m55f3904a52" y="191.931415"/>
     <use style="fill:#4d4d4d;stroke:#4d4d4d;stroke-linejoin:miter;" x="263.25" xlink:href="#m55f3904a52" y="191.635242"/>
     <use style="fill:#4d4d4d;stroke:#4d4d4d;stroke-linejoin:miter;" x="263.25" xlink:href="#m55f3904a52" y="192.429701"/>
     <use style="fill:#4d4d4d;stroke:#4d4d4d;stroke-linejoin:miter;" x="263.25" xlink:href="#m55f3904a52" y="197.564157"/>
     <use style="fill:#4d4d4d;stroke:#4d4d4d;stroke-linejoin:miter;" x="263.25" xlink:href="#m55f3904a52" y="198.59227"/>
     <use style="fill:#4d4d4d;stroke:#4d4d4d;stroke-linejoin:miter;" x="263.25" xlink:href="#m55f3904a52" y="196.285967"/>
     <use style="fill:#4d4d4d;stroke:#4d4d4d;stroke-linejoin:miter;" x="263.25" xlink:href="#m55f3904a52" y="196.364988"/>
     <use style="fill:#4d4d4d;stroke:#4d4d4d;stroke-linejoin:miter;" x="263.25" xlink:href="#m55f3904a52" y="194.471416"/>
     <use style="fill:#4d4d4d;stroke:#4d4d4d;stroke-linejoin:miter;" x="263.25" xlink:href="#m55f3904a52" y="198.36698"/>
     <use style="fill:#4d4d4d;stroke:#4d4d4d;stroke-linejoin:miter;" x="263.25" xlink:href="#m55f3904a52" y="200.93061"/>
     <use style="fill:#4d4d4d;stroke:#4d4d4d;stroke-linejoin:miter;" x="263.25" xlink:href="#m55f3904a52" y="195.77349"/>
    </g>
   </g>
   <g id="line2d_85">
    <path clip-path="url(#p9451c52a7e)" d="M 276.126923 186.210753 
L 276.126923 200.817522 
" style="fill:none;stroke:#4d4d4d;stroke-linecap:square;stroke-width:1.5;"/>
   </g>
   <g id="line2d_86">
    <path clip-path="url(#p9451c52a7e)" d="M 276.126923 172.408772 
L 276.126923 161.183126 
" style="fill:none;stroke:#4d4d4d;stroke-linecap:square;stroke-width:1.5;"/>
   </g>
   <g id="line2d_87">
    <path clip-path="url(#p9451c52a7e)" d="M 272.972077 200.817522 
L 279.281769 200.817522 
" style="fill:none;stroke:#4d4d4d;stroke-linecap:square;stroke-width:1.5;"/>
   </g>
   <g id="line2d_88">
    <path clip-path="url(#p9451c52a7e)" d="M 272.972077 161.183126 
L 279.281769 161.183126 
" style="fill:none;stroke:#4d4d4d;stroke-linecap:square;stroke-width:1.5;"/>
   </g>
   <g id="line2d_89"/>
   <g id="line2d_90">
    <path clip-path="url(#p9451c52a7e)" d="M 295.442308 159.859494 
L 295.442308 188.13051 
" style="fill:none;stroke:#4d4d4d;stroke-linecap:square;stroke-width:1.5;"/>
   </g>
   <g id="line2d_91">
    <path clip-path="url(#p9451c52a7e)" d="M 295.442308 140.451733 
L 295.442308 123.094556 
" style="fill:none;stroke:#4d4d4d;stroke-linecap:square;stroke-width:1.5;"/>
   </g>
   <g id="line2d_92">
    <path clip-path="url(#p9451c52a7e)" d="M 292.287462 188.13051 
L 298.597154 188.13051 
" style="fill:none;stroke:#4d4d4d;stroke-linecap:square;stroke-width:1.5;"/>
   </g>
   <g id="line2d_93">
    <path clip-path="url(#p9451c52a7e)" d="M 292.287462 123.094556 
L 298.597154 123.094556 
" style="fill:none;stroke:#4d4d4d;stroke-linecap:square;stroke-width:1.5;"/>
   </g>
   <g id="line2d_94">
    <g clip-path="url(#p9451c52a7e)">
     <use style="fill:#4d4d4d;stroke:#4d4d4d;stroke-linejoin:miter;" x="295.442308" xlink:href="#m55f3904a52" y="194.101451"/>
     <use style="fill:#4d4d4d;stroke:#4d4d4d;stroke-linejoin:miter;" x="295.442308" xlink:href="#m55f3904a52" y="194.34744"/>
     <use style="fill:#4d4d4d;stroke:#4d4d4d;stroke-linejoin:miter;" x="295.442308" xlink:href="#m55f3904a52" y="190.067387"/>
     <use style="fill:#4d4d4d;stroke:#4d4d4d;stroke-linejoin:miter;" x="295.442308" xlink:href="#m55f3904a52" y="191.376222"/>
     <use style="fill:#4d4d4d;stroke:#4d4d4d;stroke-linejoin:miter;" x="295.442308" xlink:href="#m55f3904a52" y="194.040134"/>
     <use style="fill:#4d4d4d;stroke:#4d4d4d;stroke-linejoin:miter;" x="295.442308" xlink:href="#m55f3904a52" y="195.474287"/>
     <use style="fill:#4d4d4d;stroke:#4d4d4d;stroke-linejoin:miter;" x="295.442308" xlink:href="#m55f3904a52" y="193.108717"/>
     <use style="fill:#4d4d4d;stroke:#4d4d4d;stroke-linejoin:miter;" x="295.442308" xlink:href="#m55f3904a52" y="192.042185"/>
     <use style="fill:#4d4d4d;stroke:#4d4d4d;stroke-linejoin:miter;" x="295.442308" xlink:href="#m55f3904a52" y="196.019729"/>
     <use style="fill:#4d4d4d;stroke:#4d4d4d;stroke-linejoin:miter;" x="295.442308" xlink:href="#m55f3904a52" y="192.442514"/>
     <use style="fill:#4d4d4d;stroke:#4d4d4d;stroke-linejoin:miter;" x="295.442308" xlink:href="#m55f3904a52" y="197.098714"/>
     <use style="fill:#4d4d4d;stroke:#4d4d4d;stroke-linejoin:miter;" x="295.442308" xlink:href="#m55f3904a52" y="205.315696"/>
     <use style="fill:#4d4d4d;stroke:#4d4d4d;stroke-linejoin:miter;" x="295.442308" xlink:href="#m55f3904a52" y="197.783772"/>
     <use style="fill:#4d4d4d;stroke:#4d4d4d;stroke-linejoin:miter;" x="295.442308" xlink:href="#m55f3904a52" y="189.620503"/>
     <use style="fill:#4d4d4d;stroke:#4d4d4d;stroke-linejoin:miter;" x="295.442308" xlink:href="#m55f3904a52" y="193.587281"/>
    </g>
   </g>
   <g id="line2d_95">
    <path clip-path="url(#p9451c52a7e)" d="M 308.319231 185.746291 
L 308.319231 199.800649 
" style="fill:none;stroke:#4d4d4d;stroke-linecap:square;stroke-width:1.5;"/>
   </g>
   <g id="line2d_96">
    <path clip-path="url(#p9451c52a7e)" d="M 308.319231 171.869663 
L 308.319231 160.131788 
" style="fill:none;stroke:#4d4d4d;stroke-linecap:square;stroke-width:1.5;"/>
   </g>
   <g id="line2d_97">
    <path clip-path="url(#p9451c52a7e)" d="M 305.164385 199.800649 
L 311.474077 199.800649 
" style="fill:none;stroke:#4d4d4d;stroke-linecap:square;stroke-width:1.5;"/>
   </g>
   <g id="line2d_98">
    <path clip-path="url(#p9451c52a7e)" d="M 305.164385 160.131788 
L 311.474077 160.131788 
" style="fill:none;stroke:#4d4d4d;stroke-linecap:square;stroke-width:1.5;"/>
   </g>
   <g id="line2d_99"/>
   <g id="line2d_100">
    <path clip-path="url(#p9451c52a7e)" d="M 327.634615 160.564097 
L 327.634615 188.56172 
" style="fill:none;stroke:#4d4d4d;stroke-linecap:square;stroke-width:1.5;"/>
   </g>
   <g id="line2d_101">
    <path clip-path="url(#p9451c52a7e)" d="M 327.634615 141.347925 
L 327.634615 123.846237 
" style="fill:none;stroke:#4d4d4d;stroke-linecap:square;stroke-width:1.5;"/>
   </g>
   <g id="line2d_102">
    <path clip-path="url(#p9451c52a7e)" d="M 324.479769 188.56172 
L 330.789462 188.56172 
" style="fill:none;stroke:#4d4d4d;stroke-linecap:square;stroke-width:1.5;"/>
   </g>
   <g id="line2d_103">
    <path clip-path="url(#p9451c52a7e)" d="M 324.479769 123.846237 
L 330.789462 123.846237 
" style="fill:none;stroke:#4d4d4d;stroke-linecap:square;stroke-width:1.5;"/>
   </g>
   <g id="line2d_104">
    <g clip-path="url(#p9451c52a7e)">
     <use style="fill:#4d4d4d;stroke:#4d4d4d;stroke-linejoin:miter;" x="327.634615" xlink:href="#m55f3904a52" y="189.58927"/>
     <use style="fill:#4d4d4d;stroke:#4d4d4d;stroke-linejoin:miter;" x="327.634615" xlink:href="#m55f3904a52" y="189.84945"/>
     <use style="fill:#4d4d4d;stroke:#4d4d4d;stroke-linejoin:miter;" x="327.634615" xlink:href="#m55f3904a52" y="194.257538"/>
     <use style="fill:#4d4d4d;stroke:#4d4d4d;stroke-linejoin:miter;" x="327.634615" xlink:href="#m55f3904a52" y="204.752508"/>
     <use style="fill:#4d4d4d;stroke:#4d4d4d;stroke-linejoin:miter;" x="327.634615" xlink:href="#m55f3904a52" y="198.38771"/>
     <use style="fill:#4d4d4d;stroke:#4d4d4d;stroke-linejoin:miter;" x="327.634615" xlink:href="#m55f3904a52" y="192.813684"/>
     <use style="fill:#4d4d4d;stroke:#4d4d4d;stroke-linejoin:miter;" x="327.634615" xlink:href="#m55f3904a52" y="191.057515"/>
     <use style="fill:#4d4d4d;stroke:#4d4d4d;stroke-linejoin:miter;" x="327.634615" xlink:href="#m55f3904a52" y="195.573893"/>
     <use style="fill:#4d4d4d;stroke:#4d4d4d;stroke-linejoin:miter;" x="327.634615" xlink:href="#m55f3904a52" y="191.132235"/>
     <use style="fill:#4d4d4d;stroke:#4d4d4d;stroke-linejoin:miter;" x="327.634615" xlink:href="#m55f3904a52" y="197.343768"/>
     <use style="fill:#4d4d4d;stroke:#4d4d4d;stroke-linejoin:miter;" x="327.634615" xlink:href="#m55f3904a52" y="190.391906"/>
     <use style="fill:#4d4d4d;stroke:#4d4d4d;stroke-linejoin:miter;" x="327.634615" xlink:href="#m55f3904a52" y="193.672581"/>
     <use style="fill:#4d4d4d;stroke:#4d4d4d;stroke-linejoin:miter;" x="327.634615" xlink:href="#m55f3904a52" y="215.839319"/>
     <use style="fill:#4d4d4d;stroke:#4d4d4d;stroke-linejoin:miter;" x="327.634615" xlink:href="#m55f3904a52" y="193.827512"/>
     <use style="fill:#4d4d4d;stroke:#4d4d4d;stroke-linejoin:miter;" x="327.634615" xlink:href="#m55f3904a52" y="197.849746"/>
     <use style="fill:#4d4d4d;stroke:#4d4d4d;stroke-linejoin:miter;" x="327.634615" xlink:href="#m55f3904a52" y="191.284524"/>
     <use style="fill:#4d4d4d;stroke:#4d4d4d;stroke-linejoin:miter;" x="327.634615" xlink:href="#m55f3904a52" y="197.753986"/>
     <use style="fill:#4d4d4d;stroke:#4d4d4d;stroke-linejoin:miter;" x="327.634615" xlink:href="#m55f3904a52" y="190.025012"/>
     <use style="fill:#4d4d4d;stroke:#4d4d4d;stroke-linejoin:miter;" x="327.634615" xlink:href="#m55f3904a52" y="194.870181"/>
     <use style="fill:#4d4d4d;stroke:#4d4d4d;stroke-linejoin:miter;" x="327.634615" xlink:href="#m55f3904a52" y="203.994646"/>
     <use style="fill:#4d4d4d;stroke:#4d4d4d;stroke-linejoin:miter;" x="327.634615" xlink:href="#m55f3904a52" y="196.977102"/>
     <use style="fill:#4d4d4d;stroke:#4d4d4d;stroke-linejoin:miter;" x="327.634615" xlink:href="#m55f3904a52" y="196.213251"/>
     <use style="fill:#4d4d4d;stroke:#4d4d4d;stroke-linejoin:miter;" x="327.634615" xlink:href="#m55f3904a52" y="193.177233"/>
    </g>
   </g>
   <g id="line2d_105">
    <path clip-path="url(#p9451c52a7e)" d="M 340.511538 185.638438 
L 340.511538 198.650328 
" style="fill:none;stroke:#4d4d4d;stroke-linecap:square;stroke-width:1.5;"/>
   </g>
   <g id="line2d_106">
    <path clip-path="url(#p9451c52a7e)" d="M 340.511538 171.258232 
L 340.511538 158.976776 
" style="fill:none;stroke:#4d4d4d;stroke-linecap:square;stroke-width:1.5;"/>
   </g>
   <g id="line2d_107">
    <path clip-path="url(#p9451c52a7e)" d="M 337.356692 198.650328 
L 343.666385 198.650328 
" style="fill:none;stroke:#4d4d4d;stroke-linecap:square;stroke-width:1.5;"/>
   </g>
   <g id="line2d_108">
    <path clip-path="url(#p9451c52a7e)" d="M 337.356692 158.976776 
L 343.666385 158.976776 
" style="fill:none;stroke:#4d4d4d;stroke-linecap:square;stroke-width:1.5;"/>
   </g>
   <g id="line2d_109"/>
   <g id="line2d_110">
    <path clip-path="url(#p9451c52a7e)" d="M 359.826923 163.361847 
L 359.826923 195.068126 
" style="fill:none;stroke:#4d4d4d;stroke-linecap:square;stroke-width:1.5;"/>
   </g>
   <g id="line2d_111">
    <path clip-path="url(#p9451c52a7e)" d="M 359.826923 141.899323 
L 359.826923 124.216574 
" style="fill:none;stroke:#4d4d4d;stroke-linecap:square;stroke-width:1.5;"/>
   </g>
   <g id="line2d_112">
    <path clip-path="url(#p9451c52a7e)" d="M 356.672077 195.068126 
L 362.981769 195.068126 
" style="fill:none;stroke:#4d4d4d;stroke-linecap:square;stroke-width:1.5;"/>
   </g>
   <g id="line2d_113">
    <path clip-path="url(#p9451c52a7e)" d="M 356.672077 124.216574 
L 362.981769 124.216574 
" style="fill:none;stroke:#4d4d4d;stroke-linecap:square;stroke-width:1.5;"/>
   </g>
   <g id="line2d_114">
    <g clip-path="url(#p9451c52a7e)">
     <use style="fill:#4d4d4d;stroke:#4d4d4d;stroke-linejoin:miter;" x="359.826923" xlink:href="#m55f3904a52" y="200.010922"/>
     <use style="fill:#4d4d4d;stroke:#4d4d4d;stroke-linejoin:miter;" x="359.826923" xlink:href="#m55f3904a52" y="203.717833"/>
     <use style="fill:#4d4d4d;stroke:#4d4d4d;stroke-linejoin:miter;" x="359.826923" xlink:href="#m55f3904a52" y="202.866587"/>
     <use style="fill:#4d4d4d;stroke:#4d4d4d;stroke-linejoin:miter;" x="359.826923" xlink:href="#m55f3904a52" y="197.290533"/>
     <use style="fill:#4d4d4d;stroke:#4d4d4d;stroke-linejoin:miter;" x="359.826923" xlink:href="#m55f3904a52" y="199.259518"/>
     <use style="fill:#4d4d4d;stroke:#4d4d4d;stroke-linejoin:miter;" x="359.826923" xlink:href="#m55f3904a52" y="201.930428"/>
     <use style="fill:#4d4d4d;stroke:#4d4d4d;stroke-linejoin:miter;" x="359.826923" xlink:href="#m55f3904a52" y="215.303063"/>
     <use style="fill:#4d4d4d;stroke:#4d4d4d;stroke-linejoin:miter;" x="359.826923" xlink:href="#m55f3904a52" y="197.081655"/>
     <use style="fill:#4d4d4d;stroke:#4d4d4d;stroke-linejoin:miter;" x="359.826923" xlink:href="#m55f3904a52" y="201.309115"/>
     <use style="fill:#4d4d4d;stroke:#4d4d4d;stroke-linejoin:miter;" x="359.826923" xlink:href="#m55f3904a52" y="210.589525"/>
     <use style="fill:#4d4d4d;stroke:#4d4d4d;stroke-linejoin:miter;" x="359.826923" xlink:href="#m55f3904a52" y="197.632393"/>
     <use style="fill:#4d4d4d;stroke:#4d4d4d;stroke-linejoin:miter;" x="359.826923" xlink:href="#m55f3904a52" y="203.270872"/>
    </g>
   </g>
   <g id="line2d_115">
    <path clip-path="url(#p9451c52a7e)" d="M 372.703846 186.611612 
L 372.703846 203.612497 
" style="fill:none;stroke:#4d4d4d;stroke-linecap:square;stroke-width:1.5;"/>
   </g>
   <g id="line2d_116">
    <path clip-path="url(#p9451c52a7e)" d="M 372.703846 173.05681 
L 372.703846 158.367747 
" style="fill:none;stroke:#4d4d4d;stroke-linecap:square;stroke-width:1.5;"/>
   </g>
   <g id="line2d_117">
    <path clip-path="url(#p9451c52a7e)" d="M 369.549 203.612497 
L 375.858692 203.612497 
" style="fill:none;stroke:#4d4d4d;stroke-linecap:square;stroke-width:1.5;"/>
   </g>
   <g id="line2d_118">
    <path clip-path="url(#p9451c52a7e)" d="M 369.549 158.367747 
L 375.858692 158.367747 
" style="fill:none;stroke:#4d4d4d;stroke-linecap:square;stroke-width:1.5;"/>
   </g>
   <g id="line2d_119"/>
   <g id="line2d_120">
    <path clip-path="url(#p9451c52a7e)" d="M 68.486538 105.576999 
L 68.486538 102.690524 
L 100.678846 102.690524 
L 100.678846 105.576999 
" style="fill:none;stroke:#333333;stroke-linecap:square;stroke-width:1.5;"/>
   </g>
   <g id="line2d_121">
    <path clip-path="url(#p9451c52a7e)" d="M 100.678846 88.088232 
L 100.678846 85.201757 
L 165.063462 85.201757 
L 165.063462 88.088232 
" style="fill:none;stroke:#333333;stroke-linecap:square;stroke-width:1.5;"/>
   </g>
   <g id="line2d_122">
    <path clip-path="url(#p9451c52a7e)" d="M 68.486538 70.599465 
L 68.486538 67.71299 
L 165.063462 67.71299 
L 165.063462 70.599465 
" style="fill:none;stroke:#333333;stroke-linecap:square;stroke-width:1.5;"/>
   </g>
   <g id="line2d_123">
    <path clip-path="url(#p9451c52a7e)" d="M 165.063462 53.110698 
L 165.063462 50.224223 
L 358.217308 50.224223 
L 358.217308 53.110698 
" style="fill:none;stroke:#333333;stroke-linecap:square;stroke-width:1.5;"/>
   </g>
   <g id="line2d_124">
    <path clip-path="url(#p9451c52a7e)" d="M 63.786462 163.292356 
L 76.405846 163.292356 
" style="fill:none;stroke:#4d4d4d;stroke-linecap:square;stroke-width:1.5;"/>
   </g>
   <g id="line2d_125">
    <path clip-path="url(#p9451c52a7e)" d="M 76.663385 198.965888 
L 89.282769 198.965888 
" style="fill:none;stroke:#4d4d4d;stroke-linecap:square;stroke-width:1.5;"/>
   </g>
   <g id="line2d_126">
    <path clip-path="url(#p9451c52a7e)" d="M 95.978769 151.548475 
L 108.598154 151.548475 
" style="fill:none;stroke:#4d4d4d;stroke-linecap:square;stroke-width:1.5;"/>
   </g>
   <g id="line2d_127">
    <path clip-path="url(#p9451c52a7e)" d="M 108.855692 188.21047 
L 121.475077 188.21047 
" style="fill:none;stroke:#4d4d4d;stroke-linecap:square;stroke-width:1.5;"/>
   </g>
   <g id="line2d_128">
    <path clip-path="url(#p9451c52a7e)" d="M 128.171077 148.486447 
L 140.790462 148.486447 
" style="fill:none;stroke:#4d4d4d;stroke-linecap:square;stroke-width:1.5;"/>
   </g>
   <g id="line2d_129">
    <path clip-path="url(#p9451c52a7e)" d="M 141.048 185.364982 
L 153.667385 185.364982 
" style="fill:none;stroke:#4d4d4d;stroke-linecap:square;stroke-width:1.5;"/>
   </g>
   <g id="line2d_130">
    <path clip-path="url(#p9451c52a7e)" d="M 160.363385 147.261062 
L 172.982769 147.261062 
" style="fill:none;stroke:#4d4d4d;stroke-linecap:square;stroke-width:1.5;"/>
   </g>
   <g id="line2d_131">
    <path clip-path="url(#p9451c52a7e)" d="M 173.240308 184.050861 
L 185.859692 184.050861 
" style="fill:none;stroke:#4d4d4d;stroke-linecap:square;stroke-width:1.5;"/>
   </g>
   <g id="line2d_132">
    <path clip-path="url(#p9451c52a7e)" d="M 192.555692 147.030468 
L 205.175077 147.030468 
" style="fill:none;stroke:#4d4d4d;stroke-linecap:square;stroke-width:1.5;"/>
   </g>
   <g id="line2d_133">
    <path clip-path="url(#p9451c52a7e)" d="M 205.432615 182.708321 
L 218.052 182.708321 
" style="fill:none;stroke:#4d4d4d;stroke-linecap:square;stroke-width:1.5;"/>
   </g>
   <g id="line2d_134">
    <path clip-path="url(#p9451c52a7e)" d="M 224.748 147.893128 
L 237.367385 147.893128 
" style="fill:none;stroke:#4d4d4d;stroke-linecap:square;stroke-width:1.5;"/>
   </g>
   <g id="line2d_135">
    <path clip-path="url(#p9451c52a7e)" d="M 237.624923 181.379277 
L 250.244308 181.379277 
" style="fill:none;stroke:#4d4d4d;stroke-linecap:square;stroke-width:1.5;"/>
   </g>
   <g id="line2d_136">
    <path clip-path="url(#p9451c52a7e)" d="M 256.940308 149.097769 
L 269.559692 149.097769 
" style="fill:none;stroke:#4d4d4d;stroke-linecap:square;stroke-width:1.5;"/>
   </g>
   <g id="line2d_137">
    <path clip-path="url(#p9451c52a7e)" d="M 269.817231 180.868243 
L 282.436615 180.868243 
" style="fill:none;stroke:#4d4d4d;stroke-linecap:square;stroke-width:1.5;"/>
   </g>
   <g id="line2d_138">
    <path clip-path="url(#p9451c52a7e)" d="M 289.132615 149.359503 
L 301.752 149.359503 
" style="fill:none;stroke:#4d4d4d;stroke-linecap:square;stroke-width:1.5;"/>
   </g>
   <g id="line2d_139">
    <path clip-path="url(#p9451c52a7e)" d="M 302.009538 180.144654 
L 314.628923 180.144654 
" style="fill:none;stroke:#4d4d4d;stroke-linecap:square;stroke-width:1.5;"/>
   </g>
   <g id="line2d_140">
    <path clip-path="url(#p9451c52a7e)" d="M 321.324923 149.425037 
L 333.944308 149.425037 
" style="fill:none;stroke:#4d4d4d;stroke-linecap:square;stroke-width:1.5;"/>
   </g>
   <g id="line2d_141">
    <path clip-path="url(#p9451c52a7e)" d="M 334.201846 180.002666 
L 346.821231 180.002666 
" style="fill:none;stroke:#4d4d4d;stroke-linecap:square;stroke-width:1.5;"/>
   </g>
   <g id="line2d_142">
    <path clip-path="url(#p9451c52a7e)" d="M 353.517231 151.782067 
L 366.136615 151.782067 
" style="fill:none;stroke:#4d4d4d;stroke-linecap:square;stroke-width:1.5;"/>
   </g>
   <g id="line2d_143">
    <path clip-path="url(#p9451c52a7e)" d="M 366.394154 180.781763 
L 379.013538 180.781763 
" style="fill:none;stroke:#4d4d4d;stroke-linecap:square;stroke-width:1.5;"/>
   </g>
   <g id="patch_25">
    <path d="M 44 252 
L 44 34.56 
" style="fill:none;stroke:#000000;stroke-linecap:square;stroke-linejoin:miter;stroke-width:0.8;"/>
   </g>
   <g id="patch_26">
    <path d="M 54 262 
L 388.8 262 
" style="fill:none;stroke:#000000;stroke-linecap:square;stroke-linejoin:miter;stroke-width:0.8;"/>
   </g>
   <g id="text_20">
    <!-- **** -->
    <g transform="translate(74.582692 99.610837)scale(0.1 -0.1)">
     <defs>
      <path d="M 47.015625 60.890625 
L 29.5 51.421875 
L 47.015625 41.890625 
L 44.1875 37.109375 
L 27.78125 47.015625 
L 27.78125 28.609375 
L 22.21875 28.609375 
L 22.21875 47.015625 
L 5.8125 37.109375 
L 2.984375 41.890625 
L 20.515625 51.421875 
L 2.984375 60.890625 
L 5.8125 65.71875 
L 22.21875 55.8125 
L 22.21875 74.21875 
L 27.78125 74.21875 
L 27.78125 55.8125 
L 44.1875 65.71875 
z
" id="DejaVuSans-42"/>
     </defs>
     <use xlink:href="#DejaVuSans-42"/>
     <use x="50" xlink:href="#DejaVuSans-42"/>
     <use x="100" xlink:href="#DejaVuSans-42"/>
     <use x="150" xlink:href="#DejaVuSans-42"/>
    </g>
   </g>
   <g id="text_21">
    <!-- **** -->
    <g transform="translate(122.871154 82.12207)scale(0.1 -0.1)">
     <use xlink:href="#DejaVuSans-42"/>
     <use x="50" xlink:href="#DejaVuSans-42"/>
     <use x="100" xlink:href="#DejaVuSans-42"/>
     <use x="150" xlink:href="#DejaVuSans-42"/>
    </g>
   </g>
   <g id="text_22">
    <!-- **** -->
    <g transform="translate(106.775 64.633303)scale(0.1 -0.1)">
     <use xlink:href="#DejaVuSans-42"/>
     <use x="50" xlink:href="#DejaVuSans-42"/>
     <use x="100" xlink:href="#DejaVuSans-42"/>
     <use x="150" xlink:href="#DejaVuSans-42"/>
    </g>
   </g>
   <g id="text_23">
    <!-- **** -->
    <g transform="translate(251.640385 47.144536)scale(0.1 -0.1)">
     <use xlink:href="#DejaVuSans-42"/>
     <use x="50" xlink:href="#DejaVuSans-42"/>
     <use x="100" xlink:href="#DejaVuSans-42"/>
     <use x="150" xlink:href="#DejaVuSans-42"/>
    </g>
   </g>
   <g id="legend_1">
    <g id="patch_27">
     <path d="M 186.728125 226.242188 
L 206.728125 226.242188 
L 206.728125 219.242188 
L 186.728125 219.242188 
z
" style="fill:#d3d3d3;stroke:#4d4d4d;stroke-linejoin:miter;stroke-width:0.75;"/>
    </g>
    <g id="text_24">
     <!-- Original -->
     <g transform="translate(214.728125 226.242188)scale(0.1 -0.1)">
      <defs>
       <path d="M 39.40625 66.21875 
Q 28.65625 66.21875 22.328125 58.203125 
Q 16.015625 50.203125 16.015625 36.375 
Q 16.015625 22.609375 22.328125 14.59375 
Q 28.65625 6.59375 39.40625 6.59375 
Q 50.140625 6.59375 56.421875 14.59375 
Q 62.703125 22.609375 62.703125 36.375 
Q 62.703125 50.203125 56.421875 58.203125 
Q 50.140625 66.21875 39.40625 66.21875 
z
M 39.40625 74.21875 
Q 54.734375 74.21875 63.90625 63.9375 
Q 73.09375 53.65625 73.09375 36.375 
Q 73.09375 19.140625 63.90625 8.859375 
Q 54.734375 -1.421875 39.40625 -1.421875 
Q 24.03125 -1.421875 14.8125 8.828125 
Q 5.609375 19.09375 5.609375 36.375 
Q 5.609375 53.65625 14.8125 63.9375 
Q 24.03125 74.21875 39.40625 74.21875 
z
" id="DejaVuSans-79"/>
       <path d="M 45.40625 27.984375 
Q 45.40625 37.75 41.375 43.109375 
Q 37.359375 48.484375 30.078125 48.484375 
Q 22.859375 48.484375 18.828125 43.109375 
Q 14.796875 37.75 14.796875 27.984375 
Q 14.796875 18.265625 18.828125 12.890625 
Q 22.859375 7.515625 30.078125 7.515625 
Q 37.359375 7.515625 41.375 12.890625 
Q 45.40625 18.265625 45.40625 27.984375 
z
M 54.390625 6.78125 
Q 54.390625 -7.171875 48.1875 -13.984375 
Q 42 -20.796875 29.203125 -20.796875 
Q 24.46875 -20.796875 20.265625 -20.09375 
Q 16.0625 -19.390625 12.109375 -17.921875 
L 12.109375 -9.1875 
Q 16.0625 -11.328125 19.921875 -12.34375 
Q 23.78125 -13.375 27.78125 -13.375 
Q 36.625 -13.375 41.015625 -8.765625 
Q 45.40625 -4.15625 45.40625 5.171875 
L 45.40625 9.625 
Q 42.625 4.78125 38.28125 2.390625 
Q 33.9375 0 27.875 0 
Q 17.828125 0 11.671875 7.65625 
Q 5.515625 15.328125 5.515625 27.984375 
Q 5.515625 40.671875 11.671875 48.328125 
Q 17.828125 56 27.875 56 
Q 33.9375 56 38.28125 53.609375 
Q 42.625 51.21875 45.40625 46.390625 
L 45.40625 54.6875 
L 54.390625 54.6875 
z
" id="DejaVuSans-103"/>
      </defs>
      <use xlink:href="#DejaVuSans-79"/>
      <use x="78.710938" xlink:href="#DejaVuSans-114"/>
      <use x="119.824219" xlink:href="#DejaVuSans-105"/>
      <use x="147.607422" xlink:href="#DejaVuSans-103"/>
      <use x="211.083984" xlink:href="#DejaVuSans-105"/>
      <use x="238.867188" xlink:href="#DejaVuSans-110"/>
      <use x="302.246094" xlink:href="#DejaVuSans-97"/>
      <use x="363.525391" xlink:href="#DejaVuSans-108"/>
     </g>
    </g>
    <g id="patch_28">
     <path d="M 186.728125 240.920312 
L 206.728125 240.920312 
L 206.728125 233.920312 
L 186.728125 233.920312 
z
" style="fill:#808080;stroke:#4d4d4d;stroke-linejoin:miter;stroke-width:0.75;"/>
    </g>
    <g id="text_25">
     <!-- Shuffled -->
     <g transform="translate(214.728125 240.920312)scale(0.1 -0.1)">
      <defs>
       <path d="M 54.890625 33.015625 
L 54.890625 0 
L 45.90625 0 
L 45.90625 32.71875 
Q 45.90625 40.484375 42.875 44.328125 
Q 39.84375 48.1875 33.796875 48.1875 
Q 26.515625 48.1875 22.3125 43.546875 
Q 18.109375 38.921875 18.109375 30.90625 
L 18.109375 0 
L 9.078125 0 
L 9.078125 75.984375 
L 18.109375 75.984375 
L 18.109375 46.1875 
Q 21.34375 51.125 25.703125 53.5625 
Q 30.078125 56 35.796875 56 
Q 45.21875 56 50.046875 50.171875 
Q 54.890625 44.34375 54.890625 33.015625 
z
" id="DejaVuSans-104"/>
       <path d="M 37.109375 75.984375 
L 37.109375 68.5 
L 28.515625 68.5 
Q 23.6875 68.5 21.796875 66.546875 
Q 19.921875 64.59375 19.921875 59.515625 
L 19.921875 54.6875 
L 34.71875 54.6875 
L 34.71875 47.703125 
L 19.921875 47.703125 
L 19.921875 0 
L 10.890625 0 
L 10.890625 47.703125 
L 2.296875 47.703125 
L 2.296875 54.6875 
L 10.890625 54.6875 
L 10.890625 58.5 
Q 10.890625 67.625 15.140625 71.796875 
Q 19.390625 75.984375 28.609375 75.984375 
z
" id="DejaVuSans-102"/>
       <path d="M 45.40625 46.390625 
L 45.40625 75.984375 
L 54.390625 75.984375 
L 54.390625 0 
L 45.40625 0 
L 45.40625 8.203125 
Q 42.578125 3.328125 38.25 0.953125 
Q 33.9375 -1.421875 27.875 -1.421875 
Q 17.96875 -1.421875 11.734375 6.484375 
Q 5.515625 14.40625 5.515625 27.296875 
Q 5.515625 40.1875 11.734375 48.09375 
Q 17.96875 56 27.875 56 
Q 33.9375 56 38.25 53.625 
Q 42.578125 51.265625 45.40625 46.390625 
z
M 14.796875 27.296875 
Q 14.796875 17.390625 18.875 11.75 
Q 22.953125 6.109375 30.078125 6.109375 
Q 37.203125 6.109375 41.296875 11.75 
Q 45.40625 17.390625 45.40625 27.296875 
Q 45.40625 37.203125 41.296875 42.84375 
Q 37.203125 48.484375 30.078125 48.484375 
Q 22.953125 48.484375 18.875 42.84375 
Q 14.796875 37.203125 14.796875 27.296875 
z
" id="DejaVuSans-100"/>
      </defs>
      <use xlink:href="#DejaVuSans-83"/>
      <use x="63.476562" xlink:href="#DejaVuSans-104"/>
      <use x="126.855469" xlink:href="#DejaVuSans-117"/>
      <use x="190.234375" xlink:href="#DejaVuSans-102"/>
      <use x="225.439453" xlink:href="#DejaVuSans-102"/>
      <use x="260.644531" xlink:href="#DejaVuSans-108"/>
      <use x="288.427734" xlink:href="#DejaVuSans-101"/>
      <use x="349.951172" xlink:href="#DejaVuSans-100"/>
     </g>
    </g>
   </g>
  </g>
 </g>
 <defs>
  <clipPath id="p9451c52a7e">
   <rect height="217.44" width="334.8" x="54" y="34.56"/>
  </clipPath>
 </defs>
</svg>
