<?xml version="1.0" encoding="utf-8" standalone="no"?>
<!DOCTYPE svg PUBLIC "-//W3C//DTD SVG 1.1//EN"
  "http://www.w3.org/Graphics/SVG/1.1/DTD/svg11.dtd">
<!-- Created with matplotlib (https://matplotlib.org/) -->
<svg height="504pt" version="1.1" viewBox="0 0 1152 504" width="1152pt" xmlns="http://www.w3.org/2000/svg" xmlns:xlink="http://www.w3.org/1999/xlink">
 <metadata>
  <rdf:RDF xmlns:cc="http://creativecommons.org/ns#" xmlns:dc="http://purl.org/dc/elements/1.1/" xmlns:rdf="http://www.w3.org/1999/02/22-rdf-syntax-ns#">
   <cc:Work>
    <dc:type rdf:resource="http://purl.org/dc/dcmitype/StillImage"/>
    <dc:date>2021-05-03T23:43:45.040778</dc:date>
    <dc:format>image/svg+xml</dc:format>
    <dc:creator>
     <cc:Agent>
      <dc:title>Matplotlib v3.3.4, https://matplotlib.org/</dc:title>
     </cc:Agent>
    </dc:creator>
   </cc:Work>
  </rdf:RDF>
 </metadata>
 <defs>
  <style type="text/css">*{stroke-linecap:butt;stroke-linejoin:round;}</style>
 </defs>
 <g id="figure_1">
  <g id="patch_1">
   <path d="M 0 504 
L 1152 504 
L 1152 0 
L 0 0 
z
" style="fill:none;"/>
  </g>
  <g id="axes_1">
   <g id="patch_2">
    <path d="M 144 441 
L 1036.8 441 
L 1036.8 60.48 
L 144 60.48 
z
" style="fill:#ffffff;"/>
   </g>
   <g id="matplotlib.axis_1">
    <g id="xtick_1">
     <g id="line2d_1">
      <defs>
       <path d="M 0 0 
L 0 3.5 
" id="mfdb56feceb" style="stroke:#000000;stroke-width:0.8;"/>
      </defs>
      <g>
       <use style="stroke:#000000;stroke-width:0.8;" x="144" xlink:href="#mfdb56feceb" y="441"/>
      </g>
     </g>
     <g id="text_1">
      <!-- 0 -->
      <g transform="translate(137.6375 463.196875)scale(0.2 -0.2)">
       <defs>
        <path d="M 31.78125 66.40625 
Q 24.171875 66.40625 20.328125 58.90625 
Q 16.5 51.421875 16.5 36.375 
Q 16.5 21.390625 20.328125 13.890625 
Q 24.171875 6.390625 31.78125 6.390625 
Q 39.453125 6.390625 43.28125 13.890625 
Q 47.125 21.390625 47.125 36.375 
Q 47.125 51.421875 43.28125 58.90625 
Q 39.453125 66.40625 31.78125 66.40625 
z
M 31.78125 74.21875 
Q 44.046875 74.21875 50.515625 64.515625 
Q 56.984375 54.828125 56.984375 36.375 
Q 56.984375 17.96875 50.515625 8.265625 
Q 44.046875 -1.421875 31.78125 -1.421875 
Q 19.53125 -1.421875 13.0625 8.265625 
Q 6.59375 17.96875 6.59375 36.375 
Q 6.59375 54.828125 13.0625 64.515625 
Q 19.53125 74.21875 31.78125 74.21875 
z
" id="DejaVuSans-48"/>
       </defs>
       <use xlink:href="#DejaVuSans-48"/>
      </g>
     </g>
    </g>
    <g id="xtick_2">
     <g id="line2d_2">
      <g>
       <use style="stroke:#000000;stroke-width:0.8;" x="271.542857" xlink:href="#mfdb56feceb" y="441"/>
      </g>
     </g>
     <g id="text_2">
      <!-- 5 -->
      <g transform="translate(265.180357 463.196875)scale(0.2 -0.2)">
       <defs>
        <path d="M 10.796875 72.90625 
L 49.515625 72.90625 
L 49.515625 64.59375 
L 19.828125 64.59375 
L 19.828125 46.734375 
Q 21.96875 47.46875 24.109375 47.828125 
Q 26.265625 48.1875 28.421875 48.1875 
Q 40.625 48.1875 47.75 41.5 
Q 54.890625 34.8125 54.890625 23.390625 
Q 54.890625 11.625 47.5625 5.09375 
Q 40.234375 -1.421875 26.90625 -1.421875 
Q 22.3125 -1.421875 17.546875 -0.640625 
Q 12.796875 0.140625 7.71875 1.703125 
L 7.71875 11.625 
Q 12.109375 9.234375 16.796875 8.0625 
Q 21.484375 6.890625 26.703125 6.890625 
Q 35.15625 6.890625 40.078125 11.328125 
Q 45.015625 15.765625 45.015625 23.390625 
Q 45.015625 31 40.078125 35.4375 
Q 35.15625 39.890625 26.703125 39.890625 
Q 22.75 39.890625 18.8125 39.015625 
Q 14.890625 38.140625 10.796875 36.28125 
z
" id="DejaVuSans-53"/>
       </defs>
       <use xlink:href="#DejaVuSans-53"/>
      </g>
     </g>
    </g>
    <g id="xtick_3">
     <g id="line2d_3">
      <g>
       <use style="stroke:#000000;stroke-width:0.8;" x="399.085714" xlink:href="#mfdb56feceb" y="441"/>
      </g>
     </g>
     <g id="text_3">
      <!-- 10 -->
      <g transform="translate(386.360714 463.196875)scale(0.2 -0.2)">
       <defs>
        <path d="M 12.40625 8.296875 
L 28.515625 8.296875 
L 28.515625 63.921875 
L 10.984375 60.40625 
L 10.984375 69.390625 
L 28.421875 72.90625 
L 38.28125 72.90625 
L 38.28125 8.296875 
L 54.390625 8.296875 
L 54.390625 0 
L 12.40625 0 
z
" id="DejaVuSans-49"/>
       </defs>
       <use xlink:href="#DejaVuSans-49"/>
       <use x="63.623047" xlink:href="#DejaVuSans-48"/>
      </g>
     </g>
    </g>
    <g id="xtick_4">
     <g id="line2d_4">
      <g>
       <use style="stroke:#000000;stroke-width:0.8;" x="526.628571" xlink:href="#mfdb56feceb" y="441"/>
      </g>
     </g>
     <g id="text_4">
      <!-- 15 -->
      <g transform="translate(513.903571 463.196875)scale(0.2 -0.2)">
       <use xlink:href="#DejaVuSans-49"/>
       <use x="63.623047" xlink:href="#DejaVuSans-53"/>
      </g>
     </g>
    </g>
    <g id="xtick_5">
     <g id="line2d_5">
      <g>
       <use style="stroke:#000000;stroke-width:0.8;" x="654.171429" xlink:href="#mfdb56feceb" y="441"/>
      </g>
     </g>
     <g id="text_5">
      <!-- 20 -->
      <g transform="translate(641.446429 463.196875)scale(0.2 -0.2)">
       <defs>
        <path d="M 19.1875 8.296875 
L 53.609375 8.296875 
L 53.609375 0 
L 7.328125 0 
L 7.328125 8.296875 
Q 12.9375 14.109375 22.625 23.890625 
Q 32.328125 33.6875 34.8125 36.53125 
Q 39.546875 41.84375 41.421875 45.53125 
Q 43.3125 49.21875 43.3125 52.78125 
Q 43.3125 58.59375 39.234375 62.25 
Q 35.15625 65.921875 28.609375 65.921875 
Q 23.96875 65.921875 18.8125 64.3125 
Q 13.671875 62.703125 7.8125 59.421875 
L 7.8125 69.390625 
Q 13.765625 71.78125 18.9375 73 
Q 24.125 74.21875 28.421875 74.21875 
Q 39.75 74.21875 46.484375 68.546875 
Q 53.21875 62.890625 53.21875 53.421875 
Q 53.21875 48.921875 51.53125 44.890625 
Q 49.859375 40.875 45.40625 35.40625 
Q 44.1875 33.984375 37.640625 27.21875 
Q 31.109375 20.453125 19.1875 8.296875 
z
" id="DejaVuSans-50"/>
       </defs>
       <use xlink:href="#DejaVuSans-50"/>
       <use x="63.623047" xlink:href="#DejaVuSans-48"/>
      </g>
     </g>
    </g>
    <g id="xtick_6">
     <g id="line2d_6">
      <g>
       <use style="stroke:#000000;stroke-width:0.8;" x="781.714286" xlink:href="#mfdb56feceb" y="441"/>
      </g>
     </g>
     <g id="text_6">
      <!-- 25 -->
      <g transform="translate(768.989286 463.196875)scale(0.2 -0.2)">
       <use xlink:href="#DejaVuSans-50"/>
       <use x="63.623047" xlink:href="#DejaVuSans-53"/>
      </g>
     </g>
    </g>
    <g id="xtick_7">
     <g id="line2d_7">
      <g>
       <use style="stroke:#000000;stroke-width:0.8;" x="909.257143" xlink:href="#mfdb56feceb" y="441"/>
      </g>
     </g>
     <g id="text_7">
      <!-- 30 -->
      <g transform="translate(896.532143 463.196875)scale(0.2 -0.2)">
       <defs>
        <path d="M 40.578125 39.3125 
Q 47.65625 37.796875 51.625 33 
Q 55.609375 28.21875 55.609375 21.1875 
Q 55.609375 10.40625 48.1875 4.484375 
Q 40.765625 -1.421875 27.09375 -1.421875 
Q 22.515625 -1.421875 17.65625 -0.515625 
Q 12.796875 0.390625 7.625 2.203125 
L 7.625 11.71875 
Q 11.71875 9.328125 16.59375 8.109375 
Q 21.484375 6.890625 26.8125 6.890625 
Q 36.078125 6.890625 40.9375 10.546875 
Q 45.796875 14.203125 45.796875 21.1875 
Q 45.796875 27.640625 41.28125 31.265625 
Q 36.765625 34.90625 28.71875 34.90625 
L 20.21875 34.90625 
L 20.21875 43.015625 
L 29.109375 43.015625 
Q 36.375 43.015625 40.234375 45.921875 
Q 44.09375 48.828125 44.09375 54.296875 
Q 44.09375 59.90625 40.109375 62.90625 
Q 36.140625 65.921875 28.71875 65.921875 
Q 24.65625 65.921875 20.015625 65.03125 
Q 15.375 64.15625 9.8125 62.3125 
L 9.8125 71.09375 
Q 15.4375 72.65625 20.34375 73.4375 
Q 25.25 74.21875 29.59375 74.21875 
Q 40.828125 74.21875 47.359375 69.109375 
Q 53.90625 64.015625 53.90625 55.328125 
Q 53.90625 49.265625 50.4375 45.09375 
Q 46.96875 40.921875 40.578125 39.3125 
z
" id="DejaVuSans-51"/>
       </defs>
       <use xlink:href="#DejaVuSans-51"/>
       <use x="63.623047" xlink:href="#DejaVuSans-48"/>
      </g>
     </g>
    </g>
    <g id="xtick_8">
     <g id="line2d_8">
      <g>
       <use style="stroke:#000000;stroke-width:0.8;" x="1036.8" xlink:href="#mfdb56feceb" y="441"/>
      </g>
     </g>
     <g id="text_8">
      <!-- 35 -->
      <g transform="translate(1024.075 463.196875)scale(0.2 -0.2)">
       <use xlink:href="#DejaVuSans-51"/>
       <use x="63.623047" xlink:href="#DejaVuSans-53"/>
      </g>
     </g>
    </g>
    <g id="text_9">
     <!-- Time (in s) -->
     <g transform="translate(537.448437 486.553125)scale(0.2 -0.2)">
      <defs>
       <path d="M -0.296875 72.90625 
L 61.375 72.90625 
L 61.375 64.59375 
L 35.5 64.59375 
L 35.5 0 
L 25.59375 0 
L 25.59375 64.59375 
L -0.296875 64.59375 
z
" id="DejaVuSans-84"/>
       <path d="M 9.421875 54.6875 
L 18.40625 54.6875 
L 18.40625 0 
L 9.421875 0 
z
M 9.421875 75.984375 
L 18.40625 75.984375 
L 18.40625 64.59375 
L 9.421875 64.59375 
z
" id="DejaVuSans-105"/>
       <path d="M 52 44.1875 
Q 55.375 50.25 60.0625 53.125 
Q 64.75 56 71.09375 56 
Q 79.640625 56 84.28125 50.015625 
Q 88.921875 44.046875 88.921875 33.015625 
L 88.921875 0 
L 79.890625 0 
L 79.890625 32.71875 
Q 79.890625 40.578125 77.09375 44.375 
Q 74.3125 48.1875 68.609375 48.1875 
Q 61.625 48.1875 57.5625 43.546875 
Q 53.515625 38.921875 53.515625 30.90625 
L 53.515625 0 
L 44.484375 0 
L 44.484375 32.71875 
Q 44.484375 40.625 41.703125 44.40625 
Q 38.921875 48.1875 33.109375 48.1875 
Q 26.21875 48.1875 22.15625 43.53125 
Q 18.109375 38.875 18.109375 30.90625 
L 18.109375 0 
L 9.078125 0 
L 9.078125 54.6875 
L 18.109375 54.6875 
L 18.109375 46.1875 
Q 21.1875 51.21875 25.484375 53.609375 
Q 29.78125 56 35.6875 56 
Q 41.65625 56 45.828125 52.96875 
Q 50 49.953125 52 44.1875 
z
" id="DejaVuSans-109"/>
       <path d="M 56.203125 29.59375 
L 56.203125 25.203125 
L 14.890625 25.203125 
Q 15.484375 15.921875 20.484375 11.0625 
Q 25.484375 6.203125 34.421875 6.203125 
Q 39.59375 6.203125 44.453125 7.46875 
Q 49.3125 8.734375 54.109375 11.28125 
L 54.109375 2.78125 
Q 49.265625 0.734375 44.1875 -0.34375 
Q 39.109375 -1.421875 33.890625 -1.421875 
Q 20.796875 -1.421875 13.15625 6.1875 
Q 5.515625 13.8125 5.515625 26.8125 
Q 5.515625 40.234375 12.765625 48.109375 
Q 20.015625 56 32.328125 56 
Q 43.359375 56 49.78125 48.890625 
Q 56.203125 41.796875 56.203125 29.59375 
z
M 47.21875 32.234375 
Q 47.125 39.59375 43.09375 43.984375 
Q 39.0625 48.390625 32.421875 48.390625 
Q 24.90625 48.390625 20.390625 44.140625 
Q 15.875 39.890625 15.1875 32.171875 
z
" id="DejaVuSans-101"/>
       <path id="DejaVuSans-32"/>
       <path d="M 31 75.875 
Q 24.46875 64.65625 21.28125 53.65625 
Q 18.109375 42.671875 18.109375 31.390625 
Q 18.109375 20.125 21.3125 9.0625 
Q 24.515625 -2 31 -13.1875 
L 23.1875 -13.1875 
Q 15.875 -1.703125 12.234375 9.375 
Q 8.59375 20.453125 8.59375 31.390625 
Q 8.59375 42.28125 12.203125 53.3125 
Q 15.828125 64.359375 23.1875 75.875 
z
" id="DejaVuSans-40"/>
       <path d="M 54.890625 33.015625 
L 54.890625 0 
L 45.90625 0 
L 45.90625 32.71875 
Q 45.90625 40.484375 42.875 44.328125 
Q 39.84375 48.1875 33.796875 48.1875 
Q 26.515625 48.1875 22.3125 43.546875 
Q 18.109375 38.921875 18.109375 30.90625 
L 18.109375 0 
L 9.078125 0 
L 9.078125 54.6875 
L 18.109375 54.6875 
L 18.109375 46.1875 
Q 21.34375 51.125 25.703125 53.5625 
Q 30.078125 56 35.796875 56 
Q 45.21875 56 50.046875 50.171875 
Q 54.890625 44.34375 54.890625 33.015625 
z
" id="DejaVuSans-110"/>
       <path d="M 44.28125 53.078125 
L 44.28125 44.578125 
Q 40.484375 46.53125 36.375 47.5 
Q 32.28125 48.484375 27.875 48.484375 
Q 21.1875 48.484375 17.84375 46.4375 
Q 14.5 44.390625 14.5 40.28125 
Q 14.5 37.15625 16.890625 35.375 
Q 19.28125 33.59375 26.515625 31.984375 
L 29.59375 31.296875 
Q 39.15625 29.25 43.1875 25.515625 
Q 47.21875 21.78125 47.21875 15.09375 
Q 47.21875 7.46875 41.1875 3.015625 
Q 35.15625 -1.421875 24.609375 -1.421875 
Q 20.21875 -1.421875 15.453125 -0.5625 
Q 10.6875 0.296875 5.421875 2 
L 5.421875 11.28125 
Q 10.40625 8.6875 15.234375 7.390625 
Q 20.0625 6.109375 24.8125 6.109375 
Q 31.15625 6.109375 34.5625 8.28125 
Q 37.984375 10.453125 37.984375 14.40625 
Q 37.984375 18.0625 35.515625 20.015625 
Q 33.0625 21.96875 24.703125 23.78125 
L 21.578125 24.515625 
Q 13.234375 26.265625 9.515625 29.90625 
Q 5.8125 33.546875 5.8125 39.890625 
Q 5.8125 47.609375 11.28125 51.796875 
Q 16.75 56 26.8125 56 
Q 31.78125 56 36.171875 55.265625 
Q 40.578125 54.546875 44.28125 53.078125 
z
" id="DejaVuSans-115"/>
       <path d="M 8.015625 75.875 
L 15.828125 75.875 
Q 23.140625 64.359375 26.78125 53.3125 
Q 30.421875 42.28125 30.421875 31.390625 
Q 30.421875 20.453125 26.78125 9.375 
Q 23.140625 -1.703125 15.828125 -13.1875 
L 8.015625 -13.1875 
Q 14.5 -2 17.703125 9.0625 
Q 20.90625 20.125 20.90625 31.390625 
Q 20.90625 42.671875 17.703125 53.65625 
Q 14.5 64.65625 8.015625 75.875 
z
" id="DejaVuSans-41"/>
      </defs>
      <use xlink:href="#DejaVuSans-84"/>
      <use x="57.958984" xlink:href="#DejaVuSans-105"/>
      <use x="85.742188" xlink:href="#DejaVuSans-109"/>
      <use x="183.154297" xlink:href="#DejaVuSans-101"/>
      <use x="244.677734" xlink:href="#DejaVuSans-32"/>
      <use x="276.464844" xlink:href="#DejaVuSans-40"/>
      <use x="315.478516" xlink:href="#DejaVuSans-105"/>
      <use x="343.261719" xlink:href="#DejaVuSans-110"/>
      <use x="406.640625" xlink:href="#DejaVuSans-32"/>
      <use x="438.427734" xlink:href="#DejaVuSans-115"/>
      <use x="490.527344" xlink:href="#DejaVuSans-41"/>
     </g>
    </g>
   </g>
   <g id="matplotlib.axis_2">
    <g id="ytick_1">
     <g id="line2d_9">
      <defs>
       <path d="M 0 0 
L -3.5 0 
" id="mf32444bd4c" style="stroke:#000000;stroke-width:0.8;"/>
      </defs>
      <g>
       <use style="stroke:#000000;stroke-width:0.8;" x="144" xlink:href="#mf32444bd4c" y="423.703636"/>
      </g>
     </g>
     <g id="text_10">
      <!-- 0.0 -->
      <g transform="translate(105.19375 431.302074)scale(0.2 -0.2)">
       <defs>
        <path d="M 10.6875 12.40625 
L 21 12.40625 
L 21 0 
L 10.6875 0 
z
" id="DejaVuSans-46"/>
       </defs>
       <use xlink:href="#DejaVuSans-48"/>
       <use x="63.623047" xlink:href="#DejaVuSans-46"/>
       <use x="95.410156" xlink:href="#DejaVuSans-48"/>
      </g>
     </g>
    </g>
    <g id="ytick_2">
     <g id="line2d_10">
      <g>
       <use style="stroke:#000000;stroke-width:0.8;" x="144" xlink:href="#mf32444bd4c" y="379.776364"/>
      </g>
     </g>
     <g id="text_11">
      <!-- 0.2 -->
      <g transform="translate(105.19375 387.374801)scale(0.2 -0.2)">
       <use xlink:href="#DejaVuSans-48"/>
       <use x="63.623047" xlink:href="#DejaVuSans-46"/>
       <use x="95.410156" xlink:href="#DejaVuSans-50"/>
      </g>
     </g>
    </g>
    <g id="ytick_3">
     <g id="line2d_11">
      <g>
       <use style="stroke:#000000;stroke-width:0.8;" x="144" xlink:href="#mf32444bd4c" y="335.849091"/>
      </g>
     </g>
     <g id="text_12">
      <!-- 0.4 -->
      <g transform="translate(105.19375 343.447528)scale(0.2 -0.2)">
       <defs>
        <path d="M 37.796875 64.3125 
L 12.890625 25.390625 
L 37.796875 25.390625 
z
M 35.203125 72.90625 
L 47.609375 72.90625 
L 47.609375 25.390625 
L 58.015625 25.390625 
L 58.015625 17.1875 
L 47.609375 17.1875 
L 47.609375 0 
L 37.796875 0 
L 37.796875 17.1875 
L 4.890625 17.1875 
L 4.890625 26.703125 
z
" id="DejaVuSans-52"/>
       </defs>
       <use xlink:href="#DejaVuSans-48"/>
       <use x="63.623047" xlink:href="#DejaVuSans-46"/>
       <use x="95.410156" xlink:href="#DejaVuSans-52"/>
      </g>
     </g>
    </g>
    <g id="ytick_4">
     <g id="line2d_12">
      <g>
       <use style="stroke:#000000;stroke-width:0.8;" x="144" xlink:href="#mf32444bd4c" y="291.921818"/>
      </g>
     </g>
     <g id="text_13">
      <!-- 0.6 -->
      <g transform="translate(105.19375 299.520256)scale(0.2 -0.2)">
       <defs>
        <path d="M 33.015625 40.375 
Q 26.375 40.375 22.484375 35.828125 
Q 18.609375 31.296875 18.609375 23.390625 
Q 18.609375 15.53125 22.484375 10.953125 
Q 26.375 6.390625 33.015625 6.390625 
Q 39.65625 6.390625 43.53125 10.953125 
Q 47.40625 15.53125 47.40625 23.390625 
Q 47.40625 31.296875 43.53125 35.828125 
Q 39.65625 40.375 33.015625 40.375 
z
M 52.59375 71.296875 
L 52.59375 62.3125 
Q 48.875 64.0625 45.09375 64.984375 
Q 41.3125 65.921875 37.59375 65.921875 
Q 27.828125 65.921875 22.671875 59.328125 
Q 17.53125 52.734375 16.796875 39.40625 
Q 19.671875 43.65625 24.015625 45.921875 
Q 28.375 48.1875 33.59375 48.1875 
Q 44.578125 48.1875 50.953125 41.515625 
Q 57.328125 34.859375 57.328125 23.390625 
Q 57.328125 12.15625 50.6875 5.359375 
Q 44.046875 -1.421875 33.015625 -1.421875 
Q 20.359375 -1.421875 13.671875 8.265625 
Q 6.984375 17.96875 6.984375 36.375 
Q 6.984375 53.65625 15.1875 63.9375 
Q 23.390625 74.21875 37.203125 74.21875 
Q 40.921875 74.21875 44.703125 73.484375 
Q 48.484375 72.75 52.59375 71.296875 
z
" id="DejaVuSans-54"/>
       </defs>
       <use xlink:href="#DejaVuSans-48"/>
       <use x="63.623047" xlink:href="#DejaVuSans-46"/>
       <use x="95.410156" xlink:href="#DejaVuSans-54"/>
      </g>
     </g>
    </g>
    <g id="ytick_5">
     <g id="line2d_13">
      <g>
       <use style="stroke:#000000;stroke-width:0.8;" x="144" xlink:href="#mf32444bd4c" y="247.994545"/>
      </g>
     </g>
     <g id="text_14">
      <!-- 0.8 -->
      <g transform="translate(105.19375 255.592983)scale(0.2 -0.2)">
       <defs>
        <path d="M 31.78125 34.625 
Q 24.75 34.625 20.71875 30.859375 
Q 16.703125 27.09375 16.703125 20.515625 
Q 16.703125 13.921875 20.71875 10.15625 
Q 24.75 6.390625 31.78125 6.390625 
Q 38.8125 6.390625 42.859375 10.171875 
Q 46.921875 13.96875 46.921875 20.515625 
Q 46.921875 27.09375 42.890625 30.859375 
Q 38.875 34.625 31.78125 34.625 
z
M 21.921875 38.8125 
Q 15.578125 40.375 12.03125 44.71875 
Q 8.5 49.078125 8.5 55.328125 
Q 8.5 64.0625 14.71875 69.140625 
Q 20.953125 74.21875 31.78125 74.21875 
Q 42.671875 74.21875 48.875 69.140625 
Q 55.078125 64.0625 55.078125 55.328125 
Q 55.078125 49.078125 51.53125 44.71875 
Q 48 40.375 41.703125 38.8125 
Q 48.828125 37.15625 52.796875 32.3125 
Q 56.78125 27.484375 56.78125 20.515625 
Q 56.78125 9.90625 50.3125 4.234375 
Q 43.84375 -1.421875 31.78125 -1.421875 
Q 19.734375 -1.421875 13.25 4.234375 
Q 6.78125 9.90625 6.78125 20.515625 
Q 6.78125 27.484375 10.78125 32.3125 
Q 14.796875 37.15625 21.921875 38.8125 
z
M 18.3125 54.390625 
Q 18.3125 48.734375 21.84375 45.5625 
Q 25.390625 42.390625 31.78125 42.390625 
Q 38.140625 42.390625 41.71875 45.5625 
Q 45.3125 48.734375 45.3125 54.390625 
Q 45.3125 60.0625 41.71875 63.234375 
Q 38.140625 66.40625 31.78125 66.40625 
Q 25.390625 66.40625 21.84375 63.234375 
Q 18.3125 60.0625 18.3125 54.390625 
z
" id="DejaVuSans-56"/>
       </defs>
       <use xlink:href="#DejaVuSans-48"/>
       <use x="63.623047" xlink:href="#DejaVuSans-46"/>
       <use x="95.410156" xlink:href="#DejaVuSans-56"/>
      </g>
     </g>
    </g>
    <g id="ytick_6">
     <g id="line2d_14">
      <g>
       <use style="stroke:#000000;stroke-width:0.8;" x="144" xlink:href="#mf32444bd4c" y="204.067273"/>
      </g>
     </g>
     <g id="text_15">
      <!-- 1.0 -->
      <g transform="translate(105.19375 211.66571)scale(0.2 -0.2)">
       <use xlink:href="#DejaVuSans-49"/>
       <use x="63.623047" xlink:href="#DejaVuSans-46"/>
       <use x="95.410156" xlink:href="#DejaVuSans-48"/>
      </g>
     </g>
    </g>
    <g id="ytick_7">
     <g id="line2d_15">
      <g>
       <use style="stroke:#000000;stroke-width:0.8;" x="144" xlink:href="#mf32444bd4c" y="160.14"/>
      </g>
     </g>
     <g id="text_16">
      <!-- 1.2 -->
      <g transform="translate(105.19375 167.738437)scale(0.2 -0.2)">
       <use xlink:href="#DejaVuSans-49"/>
       <use x="63.623047" xlink:href="#DejaVuSans-46"/>
       <use x="95.410156" xlink:href="#DejaVuSans-50"/>
      </g>
     </g>
    </g>
    <g id="ytick_8">
     <g id="line2d_16">
      <g>
       <use style="stroke:#000000;stroke-width:0.8;" x="144" xlink:href="#mf32444bd4c" y="116.212727"/>
      </g>
     </g>
     <g id="text_17">
      <!-- 1.4 -->
      <g transform="translate(105.19375 123.811165)scale(0.2 -0.2)">
       <use xlink:href="#DejaVuSans-49"/>
       <use x="63.623047" xlink:href="#DejaVuSans-46"/>
       <use x="95.410156" xlink:href="#DejaVuSans-52"/>
      </g>
     </g>
    </g>
    <g id="ytick_9">
     <g id="line2d_17">
      <g>
       <use style="stroke:#000000;stroke-width:0.8;" x="144" xlink:href="#mf32444bd4c" y="72.285455"/>
      </g>
     </g>
     <g id="text_18">
      <!-- 1.6 -->
      <g transform="translate(105.19375 79.883892)scale(0.2 -0.2)">
       <use xlink:href="#DejaVuSans-49"/>
       <use x="63.623047" xlink:href="#DejaVuSans-46"/>
       <use x="95.410156" xlink:href="#DejaVuSans-54"/>
      </g>
     </g>
    </g>
    <g id="text_19">
     <!-- Mean Activity -->
     <g transform="translate(97.034375 318.563438)rotate(-90)scale(0.2 -0.2)">
      <defs>
       <path d="M 9.8125 72.90625 
L 24.515625 72.90625 
L 43.109375 23.296875 
L 61.8125 72.90625 
L 76.515625 72.90625 
L 76.515625 0 
L 66.890625 0 
L 66.890625 64.015625 
L 48.09375 14.015625 
L 38.1875 14.015625 
L 19.390625 64.015625 
L 19.390625 0 
L 9.8125 0 
z
" id="DejaVuSans-77"/>
       <path d="M 34.28125 27.484375 
Q 23.390625 27.484375 19.1875 25 
Q 14.984375 22.515625 14.984375 16.5 
Q 14.984375 11.71875 18.140625 8.90625 
Q 21.296875 6.109375 26.703125 6.109375 
Q 34.1875 6.109375 38.703125 11.40625 
Q 43.21875 16.703125 43.21875 25.484375 
L 43.21875 27.484375 
z
M 52.203125 31.203125 
L 52.203125 0 
L 43.21875 0 
L 43.21875 8.296875 
Q 40.140625 3.328125 35.546875 0.953125 
Q 30.953125 -1.421875 24.3125 -1.421875 
Q 15.921875 -1.421875 10.953125 3.296875 
Q 6 8.015625 6 15.921875 
Q 6 25.140625 12.171875 29.828125 
Q 18.359375 34.515625 30.609375 34.515625 
L 43.21875 34.515625 
L 43.21875 35.40625 
Q 43.21875 41.609375 39.140625 45 
Q 35.0625 48.390625 27.6875 48.390625 
Q 23 48.390625 18.546875 47.265625 
Q 14.109375 46.140625 10.015625 43.890625 
L 10.015625 52.203125 
Q 14.9375 54.109375 19.578125 55.046875 
Q 24.21875 56 28.609375 56 
Q 40.484375 56 46.34375 49.84375 
Q 52.203125 43.703125 52.203125 31.203125 
z
" id="DejaVuSans-97"/>
       <path d="M 34.1875 63.1875 
L 20.796875 26.90625 
L 47.609375 26.90625 
z
M 28.609375 72.90625 
L 39.796875 72.90625 
L 67.578125 0 
L 57.328125 0 
L 50.6875 18.703125 
L 17.828125 18.703125 
L 11.1875 0 
L 0.78125 0 
z
" id="DejaVuSans-65"/>
       <path d="M 48.78125 52.59375 
L 48.78125 44.1875 
Q 44.96875 46.296875 41.140625 47.34375 
Q 37.3125 48.390625 33.40625 48.390625 
Q 24.65625 48.390625 19.8125 42.84375 
Q 14.984375 37.3125 14.984375 27.296875 
Q 14.984375 17.28125 19.8125 11.734375 
Q 24.65625 6.203125 33.40625 6.203125 
Q 37.3125 6.203125 41.140625 7.25 
Q 44.96875 8.296875 48.78125 10.40625 
L 48.78125 2.09375 
Q 45.015625 0.34375 40.984375 -0.53125 
Q 36.96875 -1.421875 32.421875 -1.421875 
Q 20.0625 -1.421875 12.78125 6.34375 
Q 5.515625 14.109375 5.515625 27.296875 
Q 5.515625 40.671875 12.859375 48.328125 
Q 20.21875 56 33.015625 56 
Q 37.15625 56 41.109375 55.140625 
Q 45.0625 54.296875 48.78125 52.59375 
z
" id="DejaVuSans-99"/>
       <path d="M 18.3125 70.21875 
L 18.3125 54.6875 
L 36.8125 54.6875 
L 36.8125 47.703125 
L 18.3125 47.703125 
L 18.3125 18.015625 
Q 18.3125 11.328125 20.140625 9.421875 
Q 21.96875 7.515625 27.59375 7.515625 
L 36.8125 7.515625 
L 36.8125 0 
L 27.59375 0 
Q 17.1875 0 13.234375 3.875 
Q 9.28125 7.765625 9.28125 18.015625 
L 9.28125 47.703125 
L 2.6875 47.703125 
L 2.6875 54.6875 
L 9.28125 54.6875 
L 9.28125 70.21875 
z
" id="DejaVuSans-116"/>
       <path d="M 2.984375 54.6875 
L 12.5 54.6875 
L 29.59375 8.796875 
L 46.6875 54.6875 
L 56.203125 54.6875 
L 35.6875 0 
L 23.484375 0 
z
" id="DejaVuSans-118"/>
       <path d="M 32.171875 -5.078125 
Q 28.375 -14.84375 24.75 -17.8125 
Q 21.140625 -20.796875 15.09375 -20.796875 
L 7.90625 -20.796875 
L 7.90625 -13.28125 
L 13.1875 -13.28125 
Q 16.890625 -13.28125 18.9375 -11.515625 
Q 21 -9.765625 23.484375 -3.21875 
L 25.09375 0.875 
L 2.984375 54.6875 
L 12.5 54.6875 
L 29.59375 11.921875 
L 46.6875 54.6875 
L 56.203125 54.6875 
z
" id="DejaVuSans-121"/>
      </defs>
      <use xlink:href="#DejaVuSans-77"/>
      <use x="86.279297" xlink:href="#DejaVuSans-101"/>
      <use x="147.802734" xlink:href="#DejaVuSans-97"/>
      <use x="209.082031" xlink:href="#DejaVuSans-110"/>
      <use x="272.460938" xlink:href="#DejaVuSans-32"/>
      <use x="304.248047" xlink:href="#DejaVuSans-65"/>
      <use x="370.90625" xlink:href="#DejaVuSans-99"/>
      <use x="425.886719" xlink:href="#DejaVuSans-116"/>
      <use x="465.095703" xlink:href="#DejaVuSans-105"/>
      <use x="492.878906" xlink:href="#DejaVuSans-118"/>
      <use x="552.058594" xlink:href="#DejaVuSans-105"/>
      <use x="579.841797" xlink:href="#DejaVuSans-116"/>
      <use x="619.050781" xlink:href="#DejaVuSans-121"/>
     </g>
    </g>
   </g>
   <g id="line2d_18">
    <path clip-path="url(#p2d609c868c)" d="M 144 423.703636 
L 155.478857 423.703636 
L 158.029714 368.794545 
L 159.305143 396.249091 
L 160.580571 396.249091 
L 161.856 368.794545 
L 163.131429 396.249091 
L 168.233143 396.249091 
L 169.508571 368.794545 
L 170.784 396.249091 
L 177.161143 396.249091 
L 178.436571 368.794545 
L 179.712 396.249091 
L 180.987429 396.249091 
L 182.262857 368.794545 
L 183.538286 368.794545 
L 184.813714 313.885455 
L 186.089143 341.34 
L 188.64 286.430909 
L 189.915429 341.34 
L 192.466286 341.34 
L 193.741714 313.885455 
L 195.017143 341.34 
L 196.292571 341.34 
L 197.568 286.430909 
L 198.843429 341.34 
L 201.394286 341.34 
L 202.669714 313.885455 
L 203.945143 341.34 
L 205.220571 341.34 
L 206.496 286.430909 
L 207.771429 286.430909 
L 210.322286 341.34 
L 211.597714 341.34 
L 212.873143 368.794545 
L 214.148571 368.794545 
L 215.424 341.34 
L 216.699429 368.794545 
L 217.974857 368.794545 
L 219.250286 341.34 
L 220.525714 368.794545 
L 224.352 368.794545 
L 225.627429 396.249091 
L 228.178286 396.249091 
L 229.453714 368.794545 
L 230.729143 396.249091 
L 232.004571 396.249091 
L 233.28 368.794545 
L 234.555429 396.249091 
L 237.106286 286.430909 
L 238.381714 335.849091 
L 239.657143 291.921818 
L 240.932571 286.430909 
L 243.483429 341.34 
L 244.758857 286.430909 
L 246.034286 258.976364 
L 248.585143 313.885455 
L 249.860571 258.976364 
L 251.136 313.885455 
L 252.411429 286.430909 
L 253.686857 286.430909 
L 254.962286 313.885455 
L 256.237714 286.430909 
L 257.513143 341.34 
L 258.788571 313.885455 
L 261.339429 368.794545 
L 262.614857 368.794545 
L 263.890286 396.249091 
L 265.165714 396.249091 
L 266.441143 368.794545 
L 267.716571 396.249091 
L 274.093714 396.249091 
L 275.369143 368.794545 
L 276.644571 396.249091 
L 277.92 368.794545 
L 279.195429 368.794545 
L 280.470857 341.34 
L 281.746286 368.794545 
L 283.021714 341.34 
L 284.297143 286.430909 
L 285.572571 204.067273 
L 286.848 204.067273 
L 288.123429 231.521818 
L 289.398857 231.521818 
L 290.674286 204.067273 
L 291.949714 231.521818 
L 293.225143 286.430909 
L 294.500571 269.958182 
L 295.776 247.994545 
L 297.051429 204.067273 
L 298.326857 286.430909 
L 303.428571 286.430909 
L 304.704 231.521818 
L 305.979429 204.067273 
L 308.530286 368.794545 
L 309.805714 423.703636 
L 334.038857 423.703636 
L 336.589714 258.976364 
L 337.865143 341.34 
L 339.140571 341.34 
L 340.416 258.976364 
L 341.691429 341.34 
L 345.517714 341.34 
L 348.068571 231.521818 
L 349.344 313.885455 
L 350.619429 231.521818 
L 351.894857 286.430909 
L 353.170286 231.521818 
L 354.445714 286.430909 
L 355.721143 286.430909 
L 356.996571 231.521818 
L 358.272 231.521818 
L 359.547429 258.976364 
L 362.098286 204.067273 
L 363.373714 286.430909 
L 365.924571 341.34 
L 367.2 286.430909 
L 368.475429 341.34 
L 371.026286 341.34 
L 372.301714 313.885455 
L 374.852571 368.794545 
L 376.128 341.34 
L 377.403429 368.794545 
L 379.954286 368.794545 
L 381.229714 341.34 
L 382.505143 286.430909 
L 383.780571 258.976364 
L 385.056 313.885455 
L 386.331429 258.976364 
L 387.606857 231.521818 
L 388.882286 258.976364 
L 390.157714 231.521818 
L 392.708571 286.430909 
L 395.259429 231.521818 
L 396.534857 258.976364 
L 397.810286 258.976364 
L 399.085714 313.885455 
L 402.912 313.885455 
L 404.187429 258.976364 
L 406.738286 204.067273 
L 408.013714 286.430909 
L 409.289143 286.430909 
L 410.564571 204.067273 
L 411.84 286.430909 
L 414.390857 341.34 
L 415.666286 313.885455 
L 416.941714 341.34 
L 418.217143 313.885455 
L 419.492571 313.885455 
L 420.768 368.794545 
L 424.594286 368.794545 
L 425.869714 341.34 
L 427.145143 286.430909 
L 428.420571 313.885455 
L 429.696 231.521818 
L 430.971429 313.885455 
L 433.522286 313.885455 
L 434.797714 286.430909 
L 436.073143 313.885455 
L 437.348571 396.249091 
L 438.624 368.794545 
L 439.899429 368.794545 
L 441.174857 341.34 
L 442.450286 368.794545 
L 443.725714 368.794545 
L 445.001143 341.34 
L 446.276571 368.794545 
L 447.552 341.34 
L 448.827429 368.794545 
L 451.378286 368.794545 
L 452.653714 341.34 
L 453.929143 368.794545 
L 455.204571 313.885455 
L 456.48 286.430909 
L 459.030857 286.430909 
L 460.306286 258.976364 
L 461.581714 258.976364 
L 462.857143 176.612727 
L 464.132571 258.976364 
L 465.408 231.521818 
L 466.683429 149.158182 
L 467.958857 231.521818 
L 469.234286 258.976364 
L 471.785143 258.976364 
L 473.060571 231.521818 
L 474.336 258.976364 
L 475.611429 204.067273 
L 476.886857 286.430909 
L 478.162286 258.976364 
L 479.437714 286.430909 
L 480.713143 286.430909 
L 481.988571 258.976364 
L 483.264 286.430909 
L 484.539429 231.521818 
L 485.814857 258.976364 
L 487.090286 368.794545 
L 488.365714 423.703636 
L 525.353143 423.703636 
L 526.628571 313.885455 
L 527.904 368.794545 
L 529.179429 341.34 
L 530.454857 341.34 
L 531.730286 319.376364 
L 533.005714 308.394545 
L 534.281143 258.976364 
L 535.556571 313.885455 
L 536.832 258.976364 
L 538.107429 258.976364 
L 539.382857 176.612727 
L 540.658286 176.612727 
L 541.933714 231.521818 
L 543.209143 258.976364 
L 544.484571 258.976364 
L 545.76 176.612727 
L 547.035429 258.976364 
L 548.310857 204.067273 
L 549.586286 258.976364 
L 550.861714 258.976364 
L 552.137143 231.521818 
L 553.412571 258.976364 
L 554.688 176.612727 
L 555.963429 258.976364 
L 557.238857 204.067273 
L 558.514286 286.430909 
L 559.789714 286.430909 
L 561.065143 258.976364 
L 562.340571 286.430909 
L 563.616 204.067273 
L 564.891429 313.885455 
L 566.166857 258.976364 
L 567.442286 341.34 
L 569.993143 341.34 
L 571.268571 368.794545 
L 572.544 368.794545 
L 573.819429 341.34 
L 575.094857 368.794545 
L 578.921143 368.794545 
L 580.196571 341.34 
L 581.472 368.794545 
L 582.747429 341.34 
L 585.298286 341.34 
L 586.573714 313.885455 
L 587.849143 231.521818 
L 589.124571 286.430909 
L 590.4 258.976364 
L 591.675429 313.885455 
L 592.950857 231.521818 
L 594.226286 258.976364 
L 595.501714 341.34 
L 596.777143 341.34 
L 598.052571 286.430909 
L 600.603429 341.34 
L 605.705143 341.34 
L 606.980571 286.430909 
L 609.531429 341.34 
L 610.806857 341.34 
L 612.082286 258.976364 
L 613.357714 313.885455 
L 614.633143 204.067273 
L 615.908571 149.158182 
L 617.184 258.976364 
L 618.459429 286.430909 
L 619.734857 286.430909 
L 621.010286 258.976364 
L 622.285714 286.430909 
L 623.561143 258.976364 
L 624.836571 204.067273 
L 626.112 286.430909 
L 628.662857 286.430909 
L 629.938286 258.976364 
L 631.213714 286.430909 
L 633.764571 231.521818 
L 636.315429 286.430909 
L 638.866286 286.430909 
L 640.141714 176.612727 
L 641.417143 176.612727 
L 642.692571 258.976364 
L 643.968 286.430909 
L 645.243429 346.830909 
L 646.518857 357.812727 
L 647.794286 341.34 
L 649.069714 368.794545 
L 650.345143 352.321818 
L 651.620571 363.303636 
L 652.896 368.794545 
L 654.171429 368.794545 
L 655.446857 335.849091 
L 656.722286 368.794545 
L 657.997714 368.794545 
L 659.273143 352.321818 
L 660.548571 363.303636 
L 661.824 330.358182 
L 663.099429 352.321818 
L 664.374857 341.34 
L 665.650286 346.830909 
L 666.925714 423.703636 
L 691.158857 423.703636 
L 693.709714 368.794545 
L 694.985143 396.249091 
L 696.260571 396.249091 
L 697.536 368.794545 
L 701.362286 368.794545 
L 702.637714 341.34 
L 703.913143 368.794545 
L 705.188571 313.885455 
L 706.464 368.794545 
L 707.739429 341.34 
L 709.014857 341.34 
L 710.290286 368.794545 
L 711.565714 368.794545 
L 712.841143 341.34 
L 714.116571 368.794545 
L 715.392 368.794545 
L 716.667429 313.885455 
L 717.942857 204.067273 
L 719.218286 286.430909 
L 720.493714 286.430909 
L 721.769143 198.576364 
L 723.044571 165.630909 
L 724.32 149.158182 
L 725.595429 231.521818 
L 729.421714 231.521818 
L 730.697143 258.976364 
L 733.248 204.067273 
L 735.798857 258.976364 
L 737.074286 204.067273 
L 738.349714 258.976364 
L 739.625143 258.976364 
L 740.900571 204.067273 
L 742.176 176.612727 
L 743.451429 77.776364 
L 744.726857 165.630909 
L 746.002286 176.612727 
L 747.277714 258.976364 
L 748.553143 231.521818 
L 749.828571 231.521818 
L 751.104 258.976364 
L 752.379429 176.612727 
L 753.654857 258.976364 
L 754.930286 231.521818 
L 756.205714 258.976364 
L 757.481143 204.067273 
L 758.756571 226.030909 
L 760.032 182.103636 
L 761.307429 149.158182 
L 762.582857 231.521818 
L 763.858286 204.067273 
L 766.409143 204.067273 
L 767.684571 143.667273 
L 768.96 154.649091 
L 770.235429 121.703636 
L 771.510857 313.885455 
L 772.786286 368.794545 
L 774.061714 396.249091 
L 780.438857 396.249091 
L 781.714286 368.794545 
L 782.989714 396.249091 
L 784.265143 396.249091 
L 785.540571 368.794545 
L 788.091429 368.794545 
L 789.366857 313.885455 
L 790.642286 313.885455 
L 791.917714 280.94 
L 793.193143 264.467273 
L 794.468571 204.067273 
L 795.744 204.067273 
L 797.019429 258.976364 
L 798.294857 198.576364 
L 799.570286 237.012727 
L 800.845714 258.976364 
L 802.121143 231.521818 
L 803.396571 231.521818 
L 805.947429 286.430909 
L 807.222857 286.430909 
L 808.498286 258.976364 
L 809.773714 286.430909 
L 811.049143 237.012727 
L 812.324571 253.485455 
L 813.6 258.976364 
L 814.875429 286.430909 
L 816.150857 286.430909 
L 817.426286 258.976364 
L 818.701714 176.612727 
L 819.977143 176.612727 
L 821.252571 258.976364 
L 822.528 258.976364 
L 823.803429 341.34 
L 825.078857 341.34 
L 826.354286 286.430909 
L 827.629714 341.34 
L 831.456 341.34 
L 832.731429 396.249091 
L 835.282286 396.249091 
L 836.557714 368.794545 
L 839.108571 368.794545 
L 840.384 313.885455 
L 841.659429 368.794545 
L 844.210286 368.794545 
L 845.485714 423.703636 
L 869.718857 423.703636 
L 872.269714 368.794545 
L 873.545143 396.249091 
L 874.820571 396.249091 
L 876.096 368.794545 
L 878.646857 368.794545 
L 879.922286 341.34 
L 881.197714 368.794545 
L 883.748571 258.976364 
L 885.024 286.430909 
L 886.299429 258.976364 
L 887.574857 313.885455 
L 891.401143 313.885455 
L 892.676571 258.976364 
L 893.952 258.976364 
L 895.227429 313.885455 
L 896.502857 149.158182 
L 897.778286 231.521818 
L 899.053714 286.430909 
L 900.329143 368.794545 
L 905.430857 368.794545 
L 906.706286 396.249091 
L 907.981714 396.249091 
L 909.257143 313.885455 
L 910.532571 368.794545 
L 911.808 368.794545 
L 913.083429 341.34 
L 914.358857 341.34 
L 915.634286 286.430909 
L 916.909714 313.885455 
L 918.185143 313.885455 
L 919.460571 258.976364 
L 920.736 286.430909 
L 922.011429 258.976364 
L 923.286857 313.885455 
L 930.939429 313.885455 
L 932.214857 341.34 
L 936.041143 341.34 
L 937.316571 313.885455 
L 938.592 313.885455 
L 939.867429 286.430909 
L 941.142857 286.430909 
L 942.418286 258.976364 
L 944.969143 258.976364 
L 946.244571 176.612727 
L 947.52 204.067273 
L 948.795429 258.976364 
L 952.621714 341.34 
L 953.897143 341.34 
L 955.172571 368.794545 
L 956.448 341.34 
L 957.723429 368.794545 
L 962.825143 368.794545 
L 964.100571 341.34 
L 965.376 341.34 
L 966.651429 368.794545 
L 969.202286 368.794545 
L 970.477714 341.34 
L 971.753143 258.976364 
L 974.304 258.976364 
L 976.854857 313.885455 
L 978.130286 286.430909 
L 980.681143 286.430909 
L 981.956571 258.976364 
L 983.232 286.430909 
L 984.507429 231.521818 
L 985.782857 286.430909 
L 987.058286 204.067273 
L 988.333714 286.430909 
L 992.16 286.430909 
L 993.435429 231.521818 
L 994.710857 258.976364 
L 995.986286 258.976364 
L 997.261714 313.885455 
L 998.537143 286.430909 
L 999.812571 341.34 
L 1002.363429 341.34 
L 1003.638857 368.794545 
L 1004.914286 341.34 
L 1006.189714 368.794545 
L 1010.016 368.794545 
L 1011.291429 341.34 
L 1012.566857 341.34 
L 1013.842286 368.794545 
L 1015.117714 341.34 
L 1016.393143 286.430909 
L 1018.944 286.430909 
L 1020.219429 258.976364 
L 1024.045714 423.703636 
L 1035.524571 423.703636 
L 1035.524571 423.703636 
" style="fill:none;stroke:#000004;stroke-linecap:square;"/>
   </g>
   <g id="line2d_19">
    <path clip-path="url(#p2d609c868c)" d="M 144 423.703636 
L 155.478857 423.703636 
L 156.754286 379.776364 
L 158.029714 279.371169 
L 159.305143 345.262078 
L 160.580571 298.197143 
L 161.856 313.885455 
L 163.131429 345.262078 
L 165.682286 345.262078 
L 166.957714 282.508831 
L 168.233143 282.508831 
L 169.508571 285.646494 
L 170.784 295.059481 
L 172.059429 298.197143 
L 173.334857 313.885455 
L 174.610286 313.885455 
L 175.885714 282.508831 
L 177.161143 282.508831 
L 178.436571 298.197143 
L 179.712 282.508831 
L 180.987429 313.885455 
L 182.262857 204.067273 
L 183.538286 219.755584 
L 184.813714 288.784156 
L 186.089143 291.921818 
L 187.364571 282.508831 
L 188.64 282.508831 
L 189.915429 266.820519 
L 191.190857 298.197143 
L 192.466286 282.508831 
L 193.741714 251.132208 
L 195.017143 282.508831 
L 196.292571 298.197143 
L 198.843429 266.820519 
L 200.118857 298.197143 
L 201.394286 282.508831 
L 202.669714 251.132208 
L 203.945143 282.508831 
L 205.220571 298.197143 
L 206.496 266.820519 
L 207.771429 204.067273 
L 209.046857 219.755584 
L 210.322286 282.508831 
L 211.597714 222.893247 
L 212.873143 232.306234 
L 214.148571 266.820519 
L 215.424 266.820519 
L 216.699429 235.443896 
L 217.974857 219.755584 
L 219.250286 219.755584 
L 220.525714 251.132208 
L 221.801143 251.132208 
L 223.076571 266.820519 
L 224.352 235.443896 
L 225.627429 219.755584 
L 226.902857 235.443896 
L 228.178286 188.378961 
L 229.453714 232.306234 
L 230.729143 222.893247 
L 232.004571 172.690649 
L 233.28 188.378961 
L 234.555429 188.378961 
L 235.830857 282.508831 
L 237.106286 313.885455 
L 238.381714 266.820519 
L 239.657143 360.95039 
L 240.932571 345.262078 
L 242.208 360.95039 
L 243.483429 345.262078 
L 246.034286 376.638701 
L 247.309714 329.573766 
L 248.585143 360.95039 
L 249.860571 345.262078 
L 251.136 360.95039 
L 252.411429 329.573766 
L 253.686857 360.95039 
L 254.962286 360.95039 
L 257.513143 329.573766 
L 258.788571 266.820519 
L 260.064 298.197143 
L 261.339429 282.508831 
L 262.614857 182.103636 
L 263.890286 226.030909 
L 265.165714 235.443896 
L 266.441143 188.378961 
L 267.716571 235.443896 
L 268.992 188.378961 
L 270.267429 251.132208 
L 271.542857 235.443896 
L 272.818286 251.132208 
L 274.093714 188.378961 
L 275.369143 235.443896 
L 276.644571 235.443896 
L 277.92 219.755584 
L 279.195429 251.132208 
L 280.470857 251.132208 
L 281.746286 266.820519 
L 283.021714 235.443896 
L 284.297143 282.508831 
L 285.572571 345.262078 
L 286.848 329.573766 
L 288.123429 376.638701 
L 291.949714 376.638701 
L 293.225143 345.262078 
L 294.500571 360.95039 
L 295.776 345.262078 
L 297.051429 338.986753 
L 298.326857 351.537403 
L 299.602286 360.95039 
L 300.877714 360.95039 
L 302.153143 345.262078 
L 304.704 345.262078 
L 305.979429 360.95039 
L 307.254857 345.262078 
L 308.530286 392.327013 
L 309.805714 423.703636 
L 334.038857 423.703636 
L 336.589714 392.327013 
L 337.865143 408.015325 
L 339.140571 408.015325 
L 340.416 392.327013 
L 341.691429 408.015325 
L 342.966857 313.885455 
L 344.242286 313.885455 
L 345.517714 345.262078 
L 346.793143 329.573766 
L 348.068571 345.262078 
L 349.344 345.262078 
L 350.619429 360.95039 
L 351.894857 360.95039 
L 354.445714 329.573766 
L 356.996571 360.95039 
L 358.272 345.262078 
L 359.547429 360.95039 
L 360.822857 313.885455 
L 362.098286 313.885455 
L 363.373714 360.95039 
L 364.649143 360.95039 
L 365.924571 313.885455 
L 367.2 345.262078 
L 368.475429 345.262078 
L 369.750857 313.885455 
L 371.026286 345.262078 
L 372.301714 298.197143 
L 373.577143 329.573766 
L 374.852571 329.573766 
L 376.128 313.885455 
L 378.678857 313.885455 
L 379.954286 329.573766 
L 381.229714 298.197143 
L 382.505143 360.95039 
L 383.780571 345.262078 
L 385.056 345.262078 
L 386.331429 298.197143 
L 387.606857 329.573766 
L 388.882286 345.262078 
L 390.157714 266.820519 
L 391.433143 313.885455 
L 392.708571 329.573766 
L 393.984 298.197143 
L 395.259429 329.573766 
L 396.534857 329.573766 
L 397.810286 298.197143 
L 399.085714 313.885455 
L 400.361143 251.132208 
L 401.636571 298.197143 
L 402.912 313.885455 
L 404.187429 313.885455 
L 405.462857 329.573766 
L 406.738286 329.573766 
L 408.013714 360.95039 
L 409.289143 329.573766 
L 410.564571 360.95039 
L 411.84 298.197143 
L 413.115429 313.885455 
L 414.390857 345.262078 
L 416.941714 313.885455 
L 418.217143 329.573766 
L 420.768 329.573766 
L 422.043429 313.885455 
L 423.318857 329.573766 
L 424.594286 329.573766 
L 425.869714 298.197143 
L 427.145143 329.573766 
L 429.696 360.95039 
L 433.522286 360.95039 
L 434.797714 345.262078 
L 436.073143 282.508831 
L 437.348571 235.443896 
L 438.624 313.885455 
L 439.899429 298.197143 
L 441.174857 329.573766 
L 442.450286 345.262078 
L 443.725714 329.573766 
L 445.001143 329.573766 
L 446.276571 313.885455 
L 447.552 345.262078 
L 448.827429 329.573766 
L 450.102857 345.262078 
L 452.653714 345.262078 
L 453.929143 329.573766 
L 455.204571 329.573766 
L 456.48 345.262078 
L 457.755429 345.262078 
L 459.030857 360.95039 
L 460.306286 360.95039 
L 461.581714 313.885455 
L 462.857143 313.885455 
L 464.132571 345.262078 
L 465.408 360.95039 
L 467.958857 360.95039 
L 469.234286 345.262078 
L 473.060571 345.262078 
L 474.336 360.95039 
L 478.162286 360.95039 
L 480.713143 329.573766 
L 483.264 360.95039 
L 487.090286 360.95039 
L 488.365714 423.703636 
L 520.251429 423.703636 
L 521.526857 360.95039 
L 522.802286 392.327013 
L 524.077714 392.327013 
L 525.353143 360.95039 
L 526.628571 360.95039 
L 527.904 376.638701 
L 529.179429 376.638701 
L 530.454857 360.95039 
L 531.730286 360.95039 
L 533.005714 329.573766 
L 534.281143 345.262078 
L 535.556571 345.262078 
L 536.832 360.95039 
L 538.107429 357.812727 
L 539.382857 332.711429 
L 540.658286 345.262078 
L 541.933714 329.573766 
L 544.484571 329.573766 
L 545.76 345.262078 
L 547.035429 329.573766 
L 548.310857 345.262078 
L 550.861714 313.885455 
L 553.412571 345.262078 
L 554.688 345.262078 
L 555.963429 329.573766 
L 557.238857 360.95039 
L 558.514286 345.262078 
L 561.065143 345.262078 
L 562.340571 360.95039 
L 563.616 335.849091 
L 564.891429 307.61013 
L 566.166857 282.508831 
L 567.442286 360.95039 
L 568.717714 345.262078 
L 569.993143 298.197143 
L 571.268571 345.262078 
L 572.544 345.262078 
L 573.819429 329.573766 
L 577.645714 329.573766 
L 580.196571 298.197143 
L 581.472 329.573766 
L 584.022857 298.197143 
L 585.298286 345.262078 
L 586.573714 345.262078 
L 587.849143 360.95039 
L 589.124571 329.573766 
L 590.4 345.262078 
L 591.675429 345.262078 
L 592.950857 360.95039 
L 594.226286 320.160779 
L 595.501714 338.986753 
L 596.777143 345.262078 
L 598.052571 298.197143 
L 599.328 345.262078 
L 601.878857 345.262078 
L 603.154286 313.885455 
L 604.429714 329.573766 
L 606.980571 329.573766 
L 608.256 345.262078 
L 613.357714 345.262078 
L 614.633143 313.885455 
L 615.908571 313.885455 
L 617.184 360.95039 
L 618.459429 360.95039 
L 619.734857 345.262078 
L 621.010286 360.95039 
L 623.561143 329.573766 
L 624.836571 360.95039 
L 627.387429 360.95039 
L 628.662857 345.262078 
L 629.938286 360.95039 
L 631.213714 357.812727 
L 632.489143 332.711429 
L 633.764571 345.262078 
L 635.04 360.95039 
L 636.315429 360.95039 
L 637.590857 345.262078 
L 638.866286 360.95039 
L 640.141714 360.95039 
L 641.417143 313.885455 
L 642.692571 345.262078 
L 643.968 360.95039 
L 645.243429 357.812727 
L 646.518857 360.95039 
L 647.794286 342.124416 
L 649.069714 357.812727 
L 650.345143 326.436104 
L 652.896 351.537403 
L 654.171429 357.812727 
L 656.722286 345.262078 
L 657.997714 332.711429 
L 659.273143 329.573766 
L 660.548571 310.747792 
L 661.824 357.812727 
L 664.374857 357.812727 
L 665.650286 367.225714 
L 666.925714 423.703636 
L 691.158857 423.703636 
L 692.434286 360.95039 
L 693.709714 313.885455 
L 694.985143 360.95039 
L 696.260571 345.262078 
L 697.536 313.885455 
L 698.811429 376.638701 
L 701.362286 376.638701 
L 702.637714 360.95039 
L 703.913143 376.638701 
L 705.188571 313.885455 
L 706.464 345.262078 
L 707.739429 329.573766 
L 709.014857 329.573766 
L 710.290286 345.262078 
L 711.565714 313.885455 
L 712.841143 298.197143 
L 714.116571 298.197143 
L 715.392 313.885455 
L 719.218286 313.885455 
L 720.493714 329.573766 
L 721.769143 354.675065 
L 723.044571 360.95039 
L 724.32 329.573766 
L 726.870857 298.197143 
L 728.146286 329.573766 
L 729.421714 282.508831 
L 730.697143 310.747792 
L 731.972571 317.023117 
L 733.248 329.573766 
L 734.523429 313.885455 
L 735.798857 313.885455 
L 737.074286 329.573766 
L 738.349714 298.197143 
L 740.900571 329.573766 
L 742.176 360.95039 
L 743.451429 345.262078 
L 746.002286 376.638701 
L 747.277714 345.262078 
L 749.828571 345.262078 
L 751.104 360.95039 
L 752.379429 360.95039 
L 753.654857 345.262078 
L 756.205714 345.262078 
L 757.481143 376.638701 
L 758.756571 360.95039 
L 760.032 376.638701 
L 762.582857 376.638701 
L 763.858286 360.95039 
L 765.133714 360.95039 
L 766.409143 376.638701 
L 768.96 345.262078 
L 770.235429 360.95039 
L 771.510857 313.885455 
L 772.786286 219.755584 
L 774.061714 266.820519 
L 775.337143 266.820519 
L 776.612571 222.893247 
L 777.888 247.994545 
L 779.163429 251.132208 
L 781.714286 282.508831 
L 782.989714 282.508831 
L 784.265143 251.132208 
L 785.540571 266.820519 
L 786.816 251.132208 
L 788.091429 298.197143 
L 789.366857 313.885455 
L 790.642286 345.262078 
L 791.917714 360.95039 
L 793.193143 345.262078 
L 794.468571 360.95039 
L 795.744 360.95039 
L 797.019429 376.638701 
L 798.294857 360.95039 
L 799.570286 376.638701 
L 802.121143 376.638701 
L 803.396571 345.262078 
L 804.672 329.573766 
L 805.947429 360.95039 
L 807.222857 360.95039 
L 808.498286 332.711429 
L 809.773714 357.812727 
L 811.049143 360.95039 
L 812.324571 345.262078 
L 813.6 345.262078 
L 814.875429 360.95039 
L 816.150857 360.95039 
L 817.426286 329.573766 
L 818.701714 345.262078 
L 819.977143 282.508831 
L 821.252571 298.197143 
L 822.528 282.508831 
L 823.803429 235.443896 
L 825.078857 282.508831 
L 827.629714 251.132208 
L 828.905143 298.197143 
L 830.180571 282.508831 
L 831.456 235.443896 
L 832.731429 204.067273 
L 834.006857 235.443896 
L 835.282286 188.378961 
L 836.557714 251.132208 
L 839.108571 251.132208 
L 840.384 235.443896 
L 841.659429 251.132208 
L 842.934857 235.443896 
L 845.485714 423.703636 
L 869.718857 423.703636 
L 872.269714 204.067273 
L 873.545143 313.885455 
L 874.820571 313.885455 
L 876.096 204.067273 
L 877.371429 329.573766 
L 881.197714 329.573766 
L 882.473143 345.262078 
L 883.748571 298.197143 
L 885.024 360.95039 
L 891.401143 360.95039 
L 892.676571 298.197143 
L 893.952 360.95039 
L 899.053714 360.95039 
L 900.329143 298.197143 
L 901.604571 282.508831 
L 902.88 307.61013 
L 904.155429 320.160779 
L 905.430857 313.885455 
L 906.706286 313.885455 
L 909.257143 282.508831 
L 910.532571 298.197143 
L 911.808 329.573766 
L 913.083429 329.573766 
L 914.358857 345.262078 
L 915.634286 329.573766 
L 916.909714 360.95039 
L 918.185143 345.262078 
L 919.460571 345.262078 
L 920.736 329.573766 
L 922.011429 298.197143 
L 924.562286 360.95039 
L 925.837714 329.573766 
L 927.113143 313.885455 
L 928.388571 329.573766 
L 930.939429 329.573766 
L 932.214857 345.262078 
L 933.490286 345.262078 
L 934.765714 329.573766 
L 936.041143 329.573766 
L 937.316571 345.262078 
L 938.592 298.197143 
L 939.867429 360.95039 
L 943.693714 360.95039 
L 947.52 313.885455 
L 948.795429 345.262078 
L 950.070857 360.95039 
L 951.346286 360.95039 
L 952.621714 345.262078 
L 953.897143 313.885455 
L 955.172571 298.197143 
L 957.723429 298.197143 
L 958.998857 329.573766 
L 960.274286 313.885455 
L 961.549714 329.573766 
L 962.825143 329.573766 
L 964.100571 313.885455 
L 965.376 282.508831 
L 966.651429 313.885455 
L 967.926857 329.573766 
L 969.202286 313.885455 
L 970.477714 345.262078 
L 971.753143 313.885455 
L 973.028571 298.197143 
L 974.304 329.573766 
L 975.579429 345.262078 
L 976.854857 313.885455 
L 978.130286 345.262078 
L 979.405714 345.262078 
L 980.681143 360.95039 
L 981.956571 313.885455 
L 983.232 360.95039 
L 984.507429 360.95039 
L 985.782857 345.262078 
L 987.058286 360.95039 
L 989.609143 360.95039 
L 990.884571 329.573766 
L 993.435429 360.95039 
L 994.710857 345.262078 
L 995.986286 360.95039 
L 997.261714 329.573766 
L 998.537143 313.885455 
L 999.812571 329.573766 
L 1001.088 251.132208 
L 1002.363429 329.573766 
L 1003.638857 313.885455 
L 1004.914286 313.885455 
L 1007.465143 345.262078 
L 1008.740571 313.885455 
L 1010.016 313.885455 
L 1011.291429 345.262078 
L 1012.566857 329.573766 
L 1015.117714 360.95039 
L 1016.393143 360.95039 
L 1017.668571 345.262078 
L 1018.944 313.885455 
L 1020.219429 360.95039 
L 1021.494857 360.95039 
L 1024.045714 423.703636 
L 1035.524571 423.703636 
L 1035.524571 423.703636 
" style="fill:none;stroke:#781c6d;stroke-linecap:square;"/>
   </g>
   <g id="line2d_20">
    <path clip-path="url(#p2d609c868c)" d="M 144 423.703636 
L 155.478857 423.703636 
L 156.754286 341.34 
L 158.029714 286.430909 
L 159.305143 341.34 
L 161.856 286.430909 
L 163.131429 341.34 
L 166.957714 341.34 
L 168.233143 368.794545 
L 169.508571 341.34 
L 170.784 368.794545 
L 174.610286 368.794545 
L 175.885714 341.34 
L 177.161143 368.794545 
L 178.436571 341.34 
L 179.712 368.794545 
L 183.538286 368.794545 
L 184.813714 396.249091 
L 192.466286 396.249091 
L 193.741714 368.794545 
L 195.017143 396.249091 
L 201.394286 396.249091 
L 202.669714 368.794545 
L 203.945143 396.249091 
L 206.496 396.249091 
L 207.771429 368.794545 
L 209.046857 368.794545 
L 210.322286 396.249091 
L 211.597714 368.794545 
L 212.873143 396.249091 
L 214.148571 396.249091 
L 215.424 368.794545 
L 216.699429 396.249091 
L 223.076571 396.249091 
L 224.352 368.794545 
L 225.627429 396.249091 
L 232.004571 396.249091 
L 233.28 368.794545 
L 234.555429 396.249091 
L 235.830857 396.249091 
L 238.381714 341.34 
L 239.657143 286.430909 
L 240.932571 286.430909 
L 242.208 176.612727 
L 243.483429 258.976364 
L 244.758857 313.885455 
L 246.034286 313.885455 
L 248.585143 258.976364 
L 249.860571 313.885455 
L 251.136 313.885455 
L 252.411429 286.430909 
L 253.686857 313.885455 
L 254.962286 313.885455 
L 258.788571 231.521818 
L 260.064 313.885455 
L 261.339429 341.34 
L 262.614857 396.249091 
L 268.992 396.249091 
L 270.267429 368.794545 
L 271.542857 396.249091 
L 277.92 396.249091 
L 279.195429 368.794545 
L 280.470857 396.249091 
L 281.746286 396.249091 
L 283.021714 368.794545 
L 284.297143 313.885455 
L 285.572571 368.794545 
L 286.848 286.430909 
L 289.398857 341.34 
L 290.674286 313.885455 
L 291.949714 313.885455 
L 293.225143 341.34 
L 294.500571 313.885455 
L 295.776 341.34 
L 297.051429 341.34 
L 298.326857 313.885455 
L 299.602286 313.885455 
L 300.877714 341.34 
L 302.153143 341.34 
L 303.428571 313.885455 
L 304.704 341.34 
L 305.979429 341.34 
L 307.254857 313.885455 
L 309.805714 423.703636 
L 334.038857 423.703636 
L 336.589714 204.067273 
L 337.865143 313.885455 
L 339.140571 313.885455 
L 340.416 204.067273 
L 341.691429 313.885455 
L 342.966857 313.885455 
L 344.242286 286.430909 
L 345.517714 313.885455 
L 346.793143 313.885455 
L 348.068571 231.521818 
L 349.344 313.885455 
L 350.619429 341.34 
L 355.721143 341.34 
L 356.996571 258.976364 
L 358.272 341.34 
L 359.547429 341.34 
L 360.822857 286.430909 
L 362.098286 286.430909 
L 363.373714 313.885455 
L 364.649143 313.885455 
L 365.924571 258.976364 
L 367.2 313.885455 
L 371.026286 313.885455 
L 373.577143 258.976364 
L 376.128 313.885455 
L 379.954286 313.885455 
L 382.505143 258.976364 
L 385.056 313.885455 
L 386.331429 286.430909 
L 387.606857 313.885455 
L 388.882286 396.249091 
L 391.433143 396.249091 
L 392.708571 368.794545 
L 393.984 396.249091 
L 400.361143 396.249091 
L 401.636571 368.794545 
L 402.912 396.249091 
L 405.462857 396.249091 
L 406.738286 368.794545 
L 408.013714 313.885455 
L 409.289143 341.34 
L 410.564571 286.430909 
L 411.84 204.067273 
L 413.115429 313.885455 
L 414.390857 313.885455 
L 415.666286 286.430909 
L 416.941714 286.430909 
L 418.217143 313.885455 
L 419.492571 286.430909 
L 420.768 286.430909 
L 422.043429 313.885455 
L 423.318857 286.430909 
L 424.594286 313.885455 
L 425.869714 313.885455 
L 427.145143 286.430909 
L 428.420571 313.885455 
L 429.696 258.976364 
L 430.971429 313.885455 
L 432.246857 313.885455 
L 433.522286 286.430909 
L 434.797714 313.885455 
L 436.073143 258.976364 
L 437.348571 286.430909 
L 438.624 286.430909 
L 439.899429 313.885455 
L 442.450286 258.976364 
L 448.827429 258.976364 
L 450.102857 286.430909 
L 451.378286 258.976364 
L 452.653714 286.430909 
L 453.929143 258.976364 
L 455.204571 258.976364 
L 457.755429 313.885455 
L 460.306286 313.885455 
L 461.581714 286.430909 
L 462.857143 368.794545 
L 464.132571 341.34 
L 465.408 341.34 
L 466.683429 368.794545 
L 471.785143 368.794545 
L 473.060571 341.34 
L 474.336 341.34 
L 475.611429 313.885455 
L 476.886857 341.34 
L 478.162286 341.34 
L 479.437714 313.885455 
L 480.713143 341.34 
L 481.988571 313.885455 
L 483.264 313.885455 
L 484.539429 341.34 
L 485.814857 313.885455 
L 487.090286 396.249091 
L 488.365714 423.703636 
L 512.598857 423.703636 
L 515.149714 94.249091 
L 516.425143 231.521818 
L 517.700571 149.158182 
L 518.976 121.703636 
L 520.251429 231.521818 
L 521.526857 231.521818 
L 522.802286 204.067273 
L 524.077714 149.158182 
L 525.353143 231.521818 
L 526.628571 204.067273 
L 529.179429 258.976364 
L 530.454857 258.976364 
L 531.730286 286.430909 
L 533.005714 258.976364 
L 534.281143 313.885455 
L 535.556571 286.430909 
L 536.832 286.430909 
L 538.107429 313.885455 
L 540.658286 313.885455 
L 541.933714 396.249091 
L 549.586286 396.249091 
L 550.861714 368.794545 
L 552.137143 396.249091 
L 555.963429 396.249091 
L 557.238857 368.794545 
L 558.514286 313.885455 
L 559.789714 286.430909 
L 561.065143 341.34 
L 562.340571 313.885455 
L 563.616 313.885455 
L 564.891429 286.430909 
L 567.442286 286.430909 
L 568.717714 231.521818 
L 569.993143 286.430909 
L 571.268571 258.976364 
L 572.544 258.976364 
L 573.819429 231.521818 
L 575.094857 286.430909 
L 576.370286 258.976364 
L 578.921143 313.885455 
L 580.196571 308.394545 
L 581.472 291.921818 
L 582.747429 258.976364 
L 584.022857 313.885455 
L 585.298286 286.430909 
L 586.573714 313.885455 
L 587.849143 313.885455 
L 589.124571 247.994545 
L 590.4 269.958182 
L 591.675429 286.430909 
L 592.950857 341.34 
L 594.226286 286.430909 
L 595.501714 313.885455 
L 596.777143 286.430909 
L 598.052571 313.885455 
L 599.328 258.976364 
L 600.603429 313.885455 
L 601.878857 286.430909 
L 603.154286 313.885455 
L 604.429714 286.430909 
L 605.705143 313.885455 
L 606.980571 313.885455 
L 608.256 286.430909 
L 610.806857 286.430909 
L 612.082286 341.34 
L 613.357714 313.885455 
L 614.633143 313.885455 
L 615.908571 286.430909 
L 617.184 341.34 
L 618.459429 313.885455 
L 619.734857 341.34 
L 621.010286 341.34 
L 622.285714 313.885455 
L 623.561143 341.34 
L 624.836571 313.885455 
L 626.112 341.34 
L 627.387429 313.885455 
L 628.662857 341.34 
L 631.213714 341.34 
L 632.489143 313.885455 
L 633.764571 313.885455 
L 635.04 341.34 
L 636.315429 313.885455 
L 637.590857 341.34 
L 640.141714 341.34 
L 641.417143 286.430909 
L 642.692571 341.34 
L 643.968 286.430909 
L 645.243429 226.030909 
L 646.518857 237.012727 
L 647.794286 275.449091 
L 649.069714 247.994545 
L 650.345143 215.049091 
L 651.620571 269.958182 
L 652.896 247.994545 
L 654.171429 275.449091 
L 655.446857 247.994545 
L 656.722286 264.467273 
L 657.997714 258.976364 
L 659.273143 264.467273 
L 660.548571 286.430909 
L 661.824 264.467273 
L 663.099429 291.921818 
L 664.374857 280.94 
L 665.650286 330.358182 
L 666.925714 423.703636 
L 691.158857 423.703636 
L 692.434286 286.430909 
L 693.709714 176.612727 
L 694.985143 286.430909 
L 696.260571 258.976364 
L 697.536 176.612727 
L 698.811429 258.976364 
L 700.086857 258.976364 
L 701.362286 231.521818 
L 702.637714 231.521818 
L 703.913143 258.976364 
L 705.188571 204.067273 
L 706.464 258.976364 
L 707.739429 286.430909 
L 711.565714 286.430909 
L 712.841143 313.885455 
L 714.116571 258.976364 
L 716.667429 313.885455 
L 717.942857 258.976364 
L 719.218286 258.976364 
L 720.493714 368.794545 
L 721.769143 368.794545 
L 724.32 423.703636 
L 740.900571 423.703636 
L 743.451429 368.794545 
L 747.277714 368.794545 
L 748.553143 341.34 
L 749.828571 368.794545 
L 751.104 341.34 
L 752.379429 341.34 
L 753.654857 368.794545 
L 758.756571 368.794545 
L 760.032 341.34 
L 761.307429 341.34 
L 762.582857 368.794545 
L 766.409143 368.794545 
L 767.684571 341.34 
L 768.96 352.321818 
L 770.235429 330.358182 
L 771.510857 396.249091 
L 772.786286 341.34 
L 774.061714 368.794545 
L 775.337143 368.794545 
L 776.612571 341.34 
L 777.888 341.34 
L 779.163429 368.794545 
L 781.714286 368.794545 
L 782.989714 341.34 
L 784.265143 368.794545 
L 786.816 368.794545 
L 788.091429 313.885455 
L 789.366857 341.34 
L 790.642286 286.430909 
L 791.917714 286.430909 
L 793.193143 231.521818 
L 794.468571 231.521818 
L 795.744 286.430909 
L 797.019429 324.867273 
L 798.294857 330.358182 
L 799.570286 341.34 
L 800.845714 313.885455 
L 802.121143 313.885455 
L 803.396571 341.34 
L 805.947429 341.34 
L 807.222857 324.867273 
L 808.498286 330.358182 
L 809.773714 313.885455 
L 811.049143 313.885455 
L 812.324571 341.34 
L 814.875429 341.34 
L 816.150857 335.849091 
L 817.426286 319.376364 
L 818.701714 341.34 
L 821.252571 396.249091 
L 822.528 396.249091 
L 823.803429 368.794545 
L 825.078857 396.249091 
L 826.354286 396.249091 
L 827.629714 368.794545 
L 828.905143 396.249091 
L 834.006857 396.249091 
L 835.282286 368.794545 
L 836.557714 396.249091 
L 844.210286 396.249091 
L 845.485714 423.703636 
L 869.718857 423.703636 
L 870.994286 313.885455 
L 872.269714 231.521818 
L 873.545143 313.885455 
L 874.820571 286.430909 
L 876.096 231.521818 
L 877.371429 313.885455 
L 879.922286 313.885455 
L 881.197714 286.430909 
L 882.473143 313.885455 
L 883.748571 231.521818 
L 885.024 313.885455 
L 888.850286 313.885455 
L 890.125714 286.430909 
L 891.401143 313.885455 
L 892.676571 231.521818 
L 893.952 313.885455 
L 895.227429 313.885455 
L 896.502857 231.521818 
L 897.778286 231.521818 
L 899.053714 313.885455 
L 900.329143 313.885455 
L 901.604571 286.430909 
L 902.88 313.885455 
L 906.706286 313.885455 
L 907.981714 286.430909 
L 909.257143 286.430909 
L 910.532571 258.976364 
L 911.808 313.885455 
L 915.634286 313.885455 
L 916.909714 286.430909 
L 918.185143 313.885455 
L 919.460571 258.976364 
L 920.736 286.430909 
L 922.011429 258.976364 
L 924.562286 313.885455 
L 925.837714 313.885455 
L 927.113143 286.430909 
L 929.664 286.430909 
L 930.939429 313.885455 
L 932.214857 286.430909 
L 933.490286 286.430909 
L 934.765714 313.885455 
L 936.041143 313.885455 
L 937.316571 286.430909 
L 938.592 286.430909 
L 939.867429 313.885455 
L 942.418286 313.885455 
L 943.693714 341.34 
L 944.969143 341.34 
L 946.244571 313.885455 
L 947.52 313.885455 
L 948.795429 341.34 
L 951.346286 286.430909 
L 952.621714 286.430909 
L 953.897143 313.885455 
L 955.172571 286.430909 
L 957.723429 286.430909 
L 958.998857 313.885455 
L 960.274286 313.885455 
L 961.549714 286.430909 
L 962.825143 313.885455 
L 964.100571 286.430909 
L 966.651429 286.430909 
L 967.926857 313.885455 
L 969.202286 313.885455 
L 970.477714 286.430909 
L 971.753143 286.430909 
L 973.028571 313.885455 
L 974.304 286.430909 
L 975.579429 341.34 
L 978.130286 341.34 
L 979.405714 313.885455 
L 980.681143 341.34 
L 981.956571 341.34 
L 983.232 286.430909 
L 984.507429 341.34 
L 988.333714 341.34 
L 989.609143 313.885455 
L 990.884571 341.34 
L 992.16 286.430909 
L 993.435429 341.34 
L 995.986286 341.34 
L 998.537143 286.430909 
L 999.812571 313.885455 
L 1001.088 258.976364 
L 1002.363429 313.885455 
L 1003.638857 313.885455 
L 1004.914286 286.430909 
L 1007.465143 286.430909 
L 1010.016 231.521818 
L 1011.291429 258.976364 
L 1012.566857 258.976364 
L 1013.842286 286.430909 
L 1016.393143 286.430909 
L 1017.668571 313.885455 
L 1018.944 313.885455 
L 1020.219429 231.521818 
L 1022.770286 396.249091 
L 1024.045714 423.703636 
L 1035.524571 423.703636 
L 1035.524571 423.703636 
" style="fill:none;stroke:#ed6925;stroke-linecap:square;"/>
   </g>
   <g id="patch_3">
    <path d="M 144 441 
L 144 60.48 
" style="fill:none;stroke:#000000;stroke-linecap:square;stroke-linejoin:miter;stroke-width:0.8;"/>
   </g>
   <g id="patch_4">
    <path d="M 1036.8 441 
L 1036.8 60.48 
" style="fill:none;stroke:#000000;stroke-linecap:square;stroke-linejoin:miter;stroke-width:0.8;"/>
   </g>
   <g id="patch_5">
    <path d="M 144 441 
L 1036.8 441 
" style="fill:none;stroke:#000000;stroke-linecap:square;stroke-linejoin:miter;stroke-width:0.8;"/>
   </g>
   <g id="patch_6">
    <path d="M 144 60.48 
L 1036.8 60.48 
" style="fill:none;stroke:#000000;stroke-linecap:square;stroke-linejoin:miter;stroke-width:0.8;"/>
   </g>
   <g id="legend_1">
    <g id="line2d_21">
     <path d="M 505.914062 73.578438 
L 525.914062 73.578438 
" style="fill:none;stroke:#000004;stroke-linecap:square;"/>
    </g>
    <g id="line2d_22"/>
    <g id="text_20">
     <!-- M1 -->
     <g transform="translate(533.914062 77.078438)scale(0.1 -0.1)">
      <use xlink:href="#DejaVuSans-77"/>
      <use x="86.279297" xlink:href="#DejaVuSans-49"/>
     </g>
    </g>
    <g id="line2d_23">
     <path d="M 568.904688 73.578438 
L 588.904688 73.578438 
" style="fill:none;stroke:#781c6d;stroke-linecap:square;"/>
    </g>
    <g id="line2d_24"/>
    <g id="text_21">
     <!-- M2 -->
     <g transform="translate(596.904688 77.078438)scale(0.1 -0.1)">
      <use xlink:href="#DejaVuSans-77"/>
      <use x="86.279297" xlink:href="#DejaVuSans-50"/>
     </g>
    </g>
    <g id="line2d_25">
     <path d="M 631.895313 73.578438 
L 651.895313 73.578438 
" style="fill:none;stroke:#ed6925;stroke-linecap:square;"/>
    </g>
    <g id="line2d_26"/>
    <g id="text_22">
     <!-- M3 -->
     <g transform="translate(659.895313 77.078438)scale(0.1 -0.1)">
      <use xlink:href="#DejaVuSans-77"/>
      <use x="86.279297" xlink:href="#DejaVuSans-51"/>
     </g>
    </g>
   </g>
  </g>
 </g>
 <defs>
  <clipPath id="p2d609c868c">
   <rect height="380.52" width="892.8" x="144" y="60.48"/>
  </clipPath>
 </defs>
</svg>
