<?xml version="1.0" encoding="utf-8" standalone="no"?>
<!DOCTYPE svg PUBLIC "-//W3C//DTD SVG 1.1//EN"
  "http://www.w3.org/Graphics/SVG/1.1/DTD/svg11.dtd">
<!-- Created with matplotlib (https://matplotlib.org/) -->
<svg height="504pt" version="1.1" viewBox="0 0 1152 504" width="1152pt" xmlns="http://www.w3.org/2000/svg" xmlns:xlink="http://www.w3.org/1999/xlink">
 <metadata>
  <rdf:RDF xmlns:cc="http://creativecommons.org/ns#" xmlns:dc="http://purl.org/dc/elements/1.1/" xmlns:rdf="http://www.w3.org/1999/02/22-rdf-syntax-ns#">
   <cc:Work>
    <dc:type rdf:resource="http://purl.org/dc/dcmitype/StillImage"/>
    <dc:date>2021-05-03T23:43:37.564394</dc:date>
    <dc:format>image/svg+xml</dc:format>
    <dc:creator>
     <cc:Agent>
      <dc:title>Matplotlib v3.3.4, https://matplotlib.org/</dc:title>
     </cc:Agent>
    </dc:creator>
   </cc:Work>
  </rdf:RDF>
 </metadata>
 <defs>
  <style type="text/css">*{stroke-linecap:butt;stroke-linejoin:round;}</style>
 </defs>
 <g id="figure_1">
  <g id="patch_1">
   <path d="M 0 504 
L 1152 504 
L 1152 0 
L 0 0 
z
" style="fill:none;"/>
  </g>
  <g id="axes_1">
   <g id="patch_2">
    <path d="M 144 441 
L 1036.8 441 
L 1036.8 60.48 
L 144 60.48 
z
" style="fill:#ffffff;"/>
   </g>
   <g id="matplotlib.axis_1">
    <g id="xtick_1">
     <g id="line2d_1">
      <defs>
       <path d="M 0 0 
L 0 3.5 
" id="m06c9040dc9" style="stroke:#000000;stroke-width:0.8;"/>
      </defs>
      <g>
       <use style="stroke:#000000;stroke-width:0.8;" x="144" xlink:href="#m06c9040dc9" y="441"/>
      </g>
     </g>
     <g id="text_1">
      <!-- 0 -->
      <g transform="translate(137.6375 463.196875)scale(0.2 -0.2)">
       <defs>
        <path d="M 31.78125 66.40625 
Q 24.171875 66.40625 20.328125 58.90625 
Q 16.5 51.421875 16.5 36.375 
Q 16.5 21.390625 20.328125 13.890625 
Q 24.171875 6.390625 31.78125 6.390625 
Q 39.453125 6.390625 43.28125 13.890625 
Q 47.125 21.390625 47.125 36.375 
Q 47.125 51.421875 43.28125 58.90625 
Q 39.453125 66.40625 31.78125 66.40625 
z
M 31.78125 74.21875 
Q 44.046875 74.21875 50.515625 64.515625 
Q 56.984375 54.828125 56.984375 36.375 
Q 56.984375 17.96875 50.515625 8.265625 
Q 44.046875 -1.421875 31.78125 -1.421875 
Q 19.53125 -1.421875 13.0625 8.265625 
Q 6.59375 17.96875 6.59375 36.375 
Q 6.59375 54.828125 13.0625 64.515625 
Q 19.53125 74.21875 31.78125 74.21875 
z
" id="DejaVuSans-48"/>
       </defs>
       <use xlink:href="#DejaVuSans-48"/>
      </g>
     </g>
    </g>
    <g id="xtick_2">
     <g id="line2d_2">
      <g>
       <use style="stroke:#000000;stroke-width:0.8;" x="271.542857" xlink:href="#m06c9040dc9" y="441"/>
      </g>
     </g>
     <g id="text_2">
      <!-- 5 -->
      <g transform="translate(265.180357 463.196875)scale(0.2 -0.2)">
       <defs>
        <path d="M 10.796875 72.90625 
L 49.515625 72.90625 
L 49.515625 64.59375 
L 19.828125 64.59375 
L 19.828125 46.734375 
Q 21.96875 47.46875 24.109375 47.828125 
Q 26.265625 48.1875 28.421875 48.1875 
Q 40.625 48.1875 47.75 41.5 
Q 54.890625 34.8125 54.890625 23.390625 
Q 54.890625 11.625 47.5625 5.09375 
Q 40.234375 -1.421875 26.90625 -1.421875 
Q 22.3125 -1.421875 17.546875 -0.640625 
Q 12.796875 0.140625 7.71875 1.703125 
L 7.71875 11.625 
Q 12.109375 9.234375 16.796875 8.0625 
Q 21.484375 6.890625 26.703125 6.890625 
Q 35.15625 6.890625 40.078125 11.328125 
Q 45.015625 15.765625 45.015625 23.390625 
Q 45.015625 31 40.078125 35.4375 
Q 35.15625 39.890625 26.703125 39.890625 
Q 22.75 39.890625 18.8125 39.015625 
Q 14.890625 38.140625 10.796875 36.28125 
z
" id="DejaVuSans-53"/>
       </defs>
       <use xlink:href="#DejaVuSans-53"/>
      </g>
     </g>
    </g>
    <g id="xtick_3">
     <g id="line2d_3">
      <g>
       <use style="stroke:#000000;stroke-width:0.8;" x="399.085714" xlink:href="#m06c9040dc9" y="441"/>
      </g>
     </g>
     <g id="text_3">
      <!-- 10 -->
      <g transform="translate(386.360714 463.196875)scale(0.2 -0.2)">
       <defs>
        <path d="M 12.40625 8.296875 
L 28.515625 8.296875 
L 28.515625 63.921875 
L 10.984375 60.40625 
L 10.984375 69.390625 
L 28.421875 72.90625 
L 38.28125 72.90625 
L 38.28125 8.296875 
L 54.390625 8.296875 
L 54.390625 0 
L 12.40625 0 
z
" id="DejaVuSans-49"/>
       </defs>
       <use xlink:href="#DejaVuSans-49"/>
       <use x="63.623047" xlink:href="#DejaVuSans-48"/>
      </g>
     </g>
    </g>
    <g id="xtick_4">
     <g id="line2d_4">
      <g>
       <use style="stroke:#000000;stroke-width:0.8;" x="526.628571" xlink:href="#m06c9040dc9" y="441"/>
      </g>
     </g>
     <g id="text_4">
      <!-- 15 -->
      <g transform="translate(513.903571 463.196875)scale(0.2 -0.2)">
       <use xlink:href="#DejaVuSans-49"/>
       <use x="63.623047" xlink:href="#DejaVuSans-53"/>
      </g>
     </g>
    </g>
    <g id="xtick_5">
     <g id="line2d_5">
      <g>
       <use style="stroke:#000000;stroke-width:0.8;" x="654.171429" xlink:href="#m06c9040dc9" y="441"/>
      </g>
     </g>
     <g id="text_5">
      <!-- 20 -->
      <g transform="translate(641.446429 463.196875)scale(0.2 -0.2)">
       <defs>
        <path d="M 19.1875 8.296875 
L 53.609375 8.296875 
L 53.609375 0 
L 7.328125 0 
L 7.328125 8.296875 
Q 12.9375 14.109375 22.625 23.890625 
Q 32.328125 33.6875 34.8125 36.53125 
Q 39.546875 41.84375 41.421875 45.53125 
Q 43.3125 49.21875 43.3125 52.78125 
Q 43.3125 58.59375 39.234375 62.25 
Q 35.15625 65.921875 28.609375 65.921875 
Q 23.96875 65.921875 18.8125 64.3125 
Q 13.671875 62.703125 7.8125 59.421875 
L 7.8125 69.390625 
Q 13.765625 71.78125 18.9375 73 
Q 24.125 74.21875 28.421875 74.21875 
Q 39.75 74.21875 46.484375 68.546875 
Q 53.21875 62.890625 53.21875 53.421875 
Q 53.21875 48.921875 51.53125 44.890625 
Q 49.859375 40.875 45.40625 35.40625 
Q 44.1875 33.984375 37.640625 27.21875 
Q 31.109375 20.453125 19.1875 8.296875 
z
" id="DejaVuSans-50"/>
       </defs>
       <use xlink:href="#DejaVuSans-50"/>
       <use x="63.623047" xlink:href="#DejaVuSans-48"/>
      </g>
     </g>
    </g>
    <g id="xtick_6">
     <g id="line2d_6">
      <g>
       <use style="stroke:#000000;stroke-width:0.8;" x="781.714286" xlink:href="#m06c9040dc9" y="441"/>
      </g>
     </g>
     <g id="text_6">
      <!-- 25 -->
      <g transform="translate(768.989286 463.196875)scale(0.2 -0.2)">
       <use xlink:href="#DejaVuSans-50"/>
       <use x="63.623047" xlink:href="#DejaVuSans-53"/>
      </g>
     </g>
    </g>
    <g id="xtick_7">
     <g id="line2d_7">
      <g>
       <use style="stroke:#000000;stroke-width:0.8;" x="909.257143" xlink:href="#m06c9040dc9" y="441"/>
      </g>
     </g>
     <g id="text_7">
      <!-- 30 -->
      <g transform="translate(896.532143 463.196875)scale(0.2 -0.2)">
       <defs>
        <path d="M 40.578125 39.3125 
Q 47.65625 37.796875 51.625 33 
Q 55.609375 28.21875 55.609375 21.1875 
Q 55.609375 10.40625 48.1875 4.484375 
Q 40.765625 -1.421875 27.09375 -1.421875 
Q 22.515625 -1.421875 17.65625 -0.515625 
Q 12.796875 0.390625 7.625 2.203125 
L 7.625 11.71875 
Q 11.71875 9.328125 16.59375 8.109375 
Q 21.484375 6.890625 26.8125 6.890625 
Q 36.078125 6.890625 40.9375 10.546875 
Q 45.796875 14.203125 45.796875 21.1875 
Q 45.796875 27.640625 41.28125 31.265625 
Q 36.765625 34.90625 28.71875 34.90625 
L 20.21875 34.90625 
L 20.21875 43.015625 
L 29.109375 43.015625 
Q 36.375 43.015625 40.234375 45.921875 
Q 44.09375 48.828125 44.09375 54.296875 
Q 44.09375 59.90625 40.109375 62.90625 
Q 36.140625 65.921875 28.71875 65.921875 
Q 24.65625 65.921875 20.015625 65.03125 
Q 15.375 64.15625 9.8125 62.3125 
L 9.8125 71.09375 
Q 15.4375 72.65625 20.34375 73.4375 
Q 25.25 74.21875 29.59375 74.21875 
Q 40.828125 74.21875 47.359375 69.109375 
Q 53.90625 64.015625 53.90625 55.328125 
Q 53.90625 49.265625 50.4375 45.09375 
Q 46.96875 40.921875 40.578125 39.3125 
z
" id="DejaVuSans-51"/>
       </defs>
       <use xlink:href="#DejaVuSans-51"/>
       <use x="63.623047" xlink:href="#DejaVuSans-48"/>
      </g>
     </g>
    </g>
    <g id="xtick_8">
     <g id="line2d_8">
      <g>
       <use style="stroke:#000000;stroke-width:0.8;" x="1036.8" xlink:href="#m06c9040dc9" y="441"/>
      </g>
     </g>
     <g id="text_8">
      <!-- 35 -->
      <g transform="translate(1024.075 463.196875)scale(0.2 -0.2)">
       <use xlink:href="#DejaVuSans-51"/>
       <use x="63.623047" xlink:href="#DejaVuSans-53"/>
      </g>
     </g>
    </g>
    <g id="text_9">
     <!-- Time (in s) -->
     <g transform="translate(537.448437 486.553125)scale(0.2 -0.2)">
      <defs>
       <path d="M -0.296875 72.90625 
L 61.375 72.90625 
L 61.375 64.59375 
L 35.5 64.59375 
L 35.5 0 
L 25.59375 0 
L 25.59375 64.59375 
L -0.296875 64.59375 
z
" id="DejaVuSans-84"/>
       <path d="M 9.421875 54.6875 
L 18.40625 54.6875 
L 18.40625 0 
L 9.421875 0 
z
M 9.421875 75.984375 
L 18.40625 75.984375 
L 18.40625 64.59375 
L 9.421875 64.59375 
z
" id="DejaVuSans-105"/>
       <path d="M 52 44.1875 
Q 55.375 50.25 60.0625 53.125 
Q 64.75 56 71.09375 56 
Q 79.640625 56 84.28125 50.015625 
Q 88.921875 44.046875 88.921875 33.015625 
L 88.921875 0 
L 79.890625 0 
L 79.890625 32.71875 
Q 79.890625 40.578125 77.09375 44.375 
Q 74.3125 48.1875 68.609375 48.1875 
Q 61.625 48.1875 57.5625 43.546875 
Q 53.515625 38.921875 53.515625 30.90625 
L 53.515625 0 
L 44.484375 0 
L 44.484375 32.71875 
Q 44.484375 40.625 41.703125 44.40625 
Q 38.921875 48.1875 33.109375 48.1875 
Q 26.21875 48.1875 22.15625 43.53125 
Q 18.109375 38.875 18.109375 30.90625 
L 18.109375 0 
L 9.078125 0 
L 9.078125 54.6875 
L 18.109375 54.6875 
L 18.109375 46.1875 
Q 21.1875 51.21875 25.484375 53.609375 
Q 29.78125 56 35.6875 56 
Q 41.65625 56 45.828125 52.96875 
Q 50 49.953125 52 44.1875 
z
" id="DejaVuSans-109"/>
       <path d="M 56.203125 29.59375 
L 56.203125 25.203125 
L 14.890625 25.203125 
Q 15.484375 15.921875 20.484375 11.0625 
Q 25.484375 6.203125 34.421875 6.203125 
Q 39.59375 6.203125 44.453125 7.46875 
Q 49.3125 8.734375 54.109375 11.28125 
L 54.109375 2.78125 
Q 49.265625 0.734375 44.1875 -0.34375 
Q 39.109375 -1.421875 33.890625 -1.421875 
Q 20.796875 -1.421875 13.15625 6.1875 
Q 5.515625 13.8125 5.515625 26.8125 
Q 5.515625 40.234375 12.765625 48.109375 
Q 20.015625 56 32.328125 56 
Q 43.359375 56 49.78125 48.890625 
Q 56.203125 41.796875 56.203125 29.59375 
z
M 47.21875 32.234375 
Q 47.125 39.59375 43.09375 43.984375 
Q 39.0625 48.390625 32.421875 48.390625 
Q 24.90625 48.390625 20.390625 44.140625 
Q 15.875 39.890625 15.1875 32.171875 
z
" id="DejaVuSans-101"/>
       <path id="DejaVuSans-32"/>
       <path d="M 31 75.875 
Q 24.46875 64.65625 21.28125 53.65625 
Q 18.109375 42.671875 18.109375 31.390625 
Q 18.109375 20.125 21.3125 9.0625 
Q 24.515625 -2 31 -13.1875 
L 23.1875 -13.1875 
Q 15.875 -1.703125 12.234375 9.375 
Q 8.59375 20.453125 8.59375 31.390625 
Q 8.59375 42.28125 12.203125 53.3125 
Q 15.828125 64.359375 23.1875 75.875 
z
" id="DejaVuSans-40"/>
       <path d="M 54.890625 33.015625 
L 54.890625 0 
L 45.90625 0 
L 45.90625 32.71875 
Q 45.90625 40.484375 42.875 44.328125 
Q 39.84375 48.1875 33.796875 48.1875 
Q 26.515625 48.1875 22.3125 43.546875 
Q 18.109375 38.921875 18.109375 30.90625 
L 18.109375 0 
L 9.078125 0 
L 9.078125 54.6875 
L 18.109375 54.6875 
L 18.109375 46.1875 
Q 21.34375 51.125 25.703125 53.5625 
Q 30.078125 56 35.796875 56 
Q 45.21875 56 50.046875 50.171875 
Q 54.890625 44.34375 54.890625 33.015625 
z
" id="DejaVuSans-110"/>
       <path d="M 44.28125 53.078125 
L 44.28125 44.578125 
Q 40.484375 46.53125 36.375 47.5 
Q 32.28125 48.484375 27.875 48.484375 
Q 21.1875 48.484375 17.84375 46.4375 
Q 14.5 44.390625 14.5 40.28125 
Q 14.5 37.15625 16.890625 35.375 
Q 19.28125 33.59375 26.515625 31.984375 
L 29.59375 31.296875 
Q 39.15625 29.25 43.1875 25.515625 
Q 47.21875 21.78125 47.21875 15.09375 
Q 47.21875 7.46875 41.1875 3.015625 
Q 35.15625 -1.421875 24.609375 -1.421875 
Q 20.21875 -1.421875 15.453125 -0.5625 
Q 10.6875 0.296875 5.421875 2 
L 5.421875 11.28125 
Q 10.40625 8.6875 15.234375 7.390625 
Q 20.0625 6.109375 24.8125 6.109375 
Q 31.15625 6.109375 34.5625 8.28125 
Q 37.984375 10.453125 37.984375 14.40625 
Q 37.984375 18.0625 35.515625 20.015625 
Q 33.0625 21.96875 24.703125 23.78125 
L 21.578125 24.515625 
Q 13.234375 26.265625 9.515625 29.90625 
Q 5.8125 33.546875 5.8125 39.890625 
Q 5.8125 47.609375 11.28125 51.796875 
Q 16.75 56 26.8125 56 
Q 31.78125 56 36.171875 55.265625 
Q 40.578125 54.546875 44.28125 53.078125 
z
" id="DejaVuSans-115"/>
       <path d="M 8.015625 75.875 
L 15.828125 75.875 
Q 23.140625 64.359375 26.78125 53.3125 
Q 30.421875 42.28125 30.421875 31.390625 
Q 30.421875 20.453125 26.78125 9.375 
Q 23.140625 -1.703125 15.828125 -13.1875 
L 8.015625 -13.1875 
Q 14.5 -2 17.703125 9.0625 
Q 20.90625 20.125 20.90625 31.390625 
Q 20.90625 42.671875 17.703125 53.65625 
Q 14.5 64.65625 8.015625 75.875 
z
" id="DejaVuSans-41"/>
      </defs>
      <use xlink:href="#DejaVuSans-84"/>
      <use x="57.958984" xlink:href="#DejaVuSans-105"/>
      <use x="85.742188" xlink:href="#DejaVuSans-109"/>
      <use x="183.154297" xlink:href="#DejaVuSans-101"/>
      <use x="244.677734" xlink:href="#DejaVuSans-32"/>
      <use x="276.464844" xlink:href="#DejaVuSans-40"/>
      <use x="315.478516" xlink:href="#DejaVuSans-105"/>
      <use x="343.261719" xlink:href="#DejaVuSans-110"/>
      <use x="406.640625" xlink:href="#DejaVuSans-32"/>
      <use x="438.427734" xlink:href="#DejaVuSans-115"/>
      <use x="490.527344" xlink:href="#DejaVuSans-41"/>
     </g>
    </g>
   </g>
   <g id="matplotlib.axis_2">
    <g id="ytick_1">
     <g id="line2d_9">
      <defs>
       <path d="M 0 0 
L -3.5 0 
" id="ma7cc9cf093" style="stroke:#000000;stroke-width:0.8;"/>
      </defs>
      <g>
       <use style="stroke:#000000;stroke-width:0.8;" x="144" xlink:href="#ma7cc9cf093" y="423.703636"/>
      </g>
     </g>
     <g id="text_10">
      <!-- 0.0 -->
      <g transform="translate(105.19375 431.302074)scale(0.2 -0.2)">
       <defs>
        <path d="M 10.6875 12.40625 
L 21 12.40625 
L 21 0 
L 10.6875 0 
z
" id="DejaVuSans-46"/>
       </defs>
       <use xlink:href="#DejaVuSans-48"/>
       <use x="63.623047" xlink:href="#DejaVuSans-46"/>
       <use x="95.410156" xlink:href="#DejaVuSans-48"/>
      </g>
     </g>
    </g>
    <g id="ytick_2">
     <g id="line2d_10">
      <g>
       <use style="stroke:#000000;stroke-width:0.8;" x="144" xlink:href="#ma7cc9cf093" y="354.518182"/>
      </g>
     </g>
     <g id="text_11">
      <!-- 0.2 -->
      <g transform="translate(105.19375 362.116619)scale(0.2 -0.2)">
       <use xlink:href="#DejaVuSans-48"/>
       <use x="63.623047" xlink:href="#DejaVuSans-46"/>
       <use x="95.410156" xlink:href="#DejaVuSans-50"/>
      </g>
     </g>
    </g>
    <g id="ytick_3">
     <g id="line2d_11">
      <g>
       <use style="stroke:#000000;stroke-width:0.8;" x="144" xlink:href="#ma7cc9cf093" y="285.332727"/>
      </g>
     </g>
     <g id="text_12">
      <!-- 0.4 -->
      <g transform="translate(105.19375 292.931165)scale(0.2 -0.2)">
       <defs>
        <path d="M 37.796875 64.3125 
L 12.890625 25.390625 
L 37.796875 25.390625 
z
M 35.203125 72.90625 
L 47.609375 72.90625 
L 47.609375 25.390625 
L 58.015625 25.390625 
L 58.015625 17.1875 
L 47.609375 17.1875 
L 47.609375 0 
L 37.796875 0 
L 37.796875 17.1875 
L 4.890625 17.1875 
L 4.890625 26.703125 
z
" id="DejaVuSans-52"/>
       </defs>
       <use xlink:href="#DejaVuSans-48"/>
       <use x="63.623047" xlink:href="#DejaVuSans-46"/>
       <use x="95.410156" xlink:href="#DejaVuSans-52"/>
      </g>
     </g>
    </g>
    <g id="ytick_4">
     <g id="line2d_12">
      <g>
       <use style="stroke:#000000;stroke-width:0.8;" x="144" xlink:href="#ma7cc9cf093" y="216.147273"/>
      </g>
     </g>
     <g id="text_13">
      <!-- 0.6 -->
      <g transform="translate(105.19375 223.74571)scale(0.2 -0.2)">
       <defs>
        <path d="M 33.015625 40.375 
Q 26.375 40.375 22.484375 35.828125 
Q 18.609375 31.296875 18.609375 23.390625 
Q 18.609375 15.53125 22.484375 10.953125 
Q 26.375 6.390625 33.015625 6.390625 
Q 39.65625 6.390625 43.53125 10.953125 
Q 47.40625 15.53125 47.40625 23.390625 
Q 47.40625 31.296875 43.53125 35.828125 
Q 39.65625 40.375 33.015625 40.375 
z
M 52.59375 71.296875 
L 52.59375 62.3125 
Q 48.875 64.0625 45.09375 64.984375 
Q 41.3125 65.921875 37.59375 65.921875 
Q 27.828125 65.921875 22.671875 59.328125 
Q 17.53125 52.734375 16.796875 39.40625 
Q 19.671875 43.65625 24.015625 45.921875 
Q 28.375 48.1875 33.59375 48.1875 
Q 44.578125 48.1875 50.953125 41.515625 
Q 57.328125 34.859375 57.328125 23.390625 
Q 57.328125 12.15625 50.6875 5.359375 
Q 44.046875 -1.421875 33.015625 -1.421875 
Q 20.359375 -1.421875 13.671875 8.265625 
Q 6.984375 17.96875 6.984375 36.375 
Q 6.984375 53.65625 15.1875 63.9375 
Q 23.390625 74.21875 37.203125 74.21875 
Q 40.921875 74.21875 44.703125 73.484375 
Q 48.484375 72.75 52.59375 71.296875 
z
" id="DejaVuSans-54"/>
       </defs>
       <use xlink:href="#DejaVuSans-48"/>
       <use x="63.623047" xlink:href="#DejaVuSans-46"/>
       <use x="95.410156" xlink:href="#DejaVuSans-54"/>
      </g>
     </g>
    </g>
    <g id="ytick_5">
     <g id="line2d_13">
      <g>
       <use style="stroke:#000000;stroke-width:0.8;" x="144" xlink:href="#ma7cc9cf093" y="146.961818"/>
      </g>
     </g>
     <g id="text_14">
      <!-- 0.8 -->
      <g transform="translate(105.19375 154.560256)scale(0.2 -0.2)">
       <defs>
        <path d="M 31.78125 34.625 
Q 24.75 34.625 20.71875 30.859375 
Q 16.703125 27.09375 16.703125 20.515625 
Q 16.703125 13.921875 20.71875 10.15625 
Q 24.75 6.390625 31.78125 6.390625 
Q 38.8125 6.390625 42.859375 10.171875 
Q 46.921875 13.96875 46.921875 20.515625 
Q 46.921875 27.09375 42.890625 30.859375 
Q 38.875 34.625 31.78125 34.625 
z
M 21.921875 38.8125 
Q 15.578125 40.375 12.03125 44.71875 
Q 8.5 49.078125 8.5 55.328125 
Q 8.5 64.0625 14.71875 69.140625 
Q 20.953125 74.21875 31.78125 74.21875 
Q 42.671875 74.21875 48.875 69.140625 
Q 55.078125 64.0625 55.078125 55.328125 
Q 55.078125 49.078125 51.53125 44.71875 
Q 48 40.375 41.703125 38.8125 
Q 48.828125 37.15625 52.796875 32.3125 
Q 56.78125 27.484375 56.78125 20.515625 
Q 56.78125 9.90625 50.3125 4.234375 
Q 43.84375 -1.421875 31.78125 -1.421875 
Q 19.734375 -1.421875 13.25 4.234375 
Q 6.78125 9.90625 6.78125 20.515625 
Q 6.78125 27.484375 10.78125 32.3125 
Q 14.796875 37.15625 21.921875 38.8125 
z
M 18.3125 54.390625 
Q 18.3125 48.734375 21.84375 45.5625 
Q 25.390625 42.390625 31.78125 42.390625 
Q 38.140625 42.390625 41.71875 45.5625 
Q 45.3125 48.734375 45.3125 54.390625 
Q 45.3125 60.0625 41.71875 63.234375 
Q 38.140625 66.40625 31.78125 66.40625 
Q 25.390625 66.40625 21.84375 63.234375 
Q 18.3125 60.0625 18.3125 54.390625 
z
" id="DejaVuSans-56"/>
       </defs>
       <use xlink:href="#DejaVuSans-48"/>
       <use x="63.623047" xlink:href="#DejaVuSans-46"/>
       <use x="95.410156" xlink:href="#DejaVuSans-56"/>
      </g>
     </g>
    </g>
    <g id="ytick_6">
     <g id="line2d_14">
      <g>
       <use style="stroke:#000000;stroke-width:0.8;" x="144" xlink:href="#ma7cc9cf093" y="77.776364"/>
      </g>
     </g>
     <g id="text_15">
      <!-- 1.0 -->
      <g transform="translate(105.19375 85.374801)scale(0.2 -0.2)">
       <use xlink:href="#DejaVuSans-49"/>
       <use x="63.623047" xlink:href="#DejaVuSans-46"/>
       <use x="95.410156" xlink:href="#DejaVuSans-48"/>
      </g>
     </g>
    </g>
    <g id="text_16">
     <!-- Mean Activity -->
     <g transform="translate(97.034375 318.563438)rotate(-90)scale(0.2 -0.2)">
      <defs>
       <path d="M 9.8125 72.90625 
L 24.515625 72.90625 
L 43.109375 23.296875 
L 61.8125 72.90625 
L 76.515625 72.90625 
L 76.515625 0 
L 66.890625 0 
L 66.890625 64.015625 
L 48.09375 14.015625 
L 38.1875 14.015625 
L 19.390625 64.015625 
L 19.390625 0 
L 9.8125 0 
z
" id="DejaVuSans-77"/>
       <path d="M 34.28125 27.484375 
Q 23.390625 27.484375 19.1875 25 
Q 14.984375 22.515625 14.984375 16.5 
Q 14.984375 11.71875 18.140625 8.90625 
Q 21.296875 6.109375 26.703125 6.109375 
Q 34.1875 6.109375 38.703125 11.40625 
Q 43.21875 16.703125 43.21875 25.484375 
L 43.21875 27.484375 
z
M 52.203125 31.203125 
L 52.203125 0 
L 43.21875 0 
L 43.21875 8.296875 
Q 40.140625 3.328125 35.546875 0.953125 
Q 30.953125 -1.421875 24.3125 -1.421875 
Q 15.921875 -1.421875 10.953125 3.296875 
Q 6 8.015625 6 15.921875 
Q 6 25.140625 12.171875 29.828125 
Q 18.359375 34.515625 30.609375 34.515625 
L 43.21875 34.515625 
L 43.21875 35.40625 
Q 43.21875 41.609375 39.140625 45 
Q 35.0625 48.390625 27.6875 48.390625 
Q 23 48.390625 18.546875 47.265625 
Q 14.109375 46.140625 10.015625 43.890625 
L 10.015625 52.203125 
Q 14.9375 54.109375 19.578125 55.046875 
Q 24.21875 56 28.609375 56 
Q 40.484375 56 46.34375 49.84375 
Q 52.203125 43.703125 52.203125 31.203125 
z
" id="DejaVuSans-97"/>
       <path d="M 34.1875 63.1875 
L 20.796875 26.90625 
L 47.609375 26.90625 
z
M 28.609375 72.90625 
L 39.796875 72.90625 
L 67.578125 0 
L 57.328125 0 
L 50.6875 18.703125 
L 17.828125 18.703125 
L 11.1875 0 
L 0.78125 0 
z
" id="DejaVuSans-65"/>
       <path d="M 48.78125 52.59375 
L 48.78125 44.1875 
Q 44.96875 46.296875 41.140625 47.34375 
Q 37.3125 48.390625 33.40625 48.390625 
Q 24.65625 48.390625 19.8125 42.84375 
Q 14.984375 37.3125 14.984375 27.296875 
Q 14.984375 17.28125 19.8125 11.734375 
Q 24.65625 6.203125 33.40625 6.203125 
Q 37.3125 6.203125 41.140625 7.25 
Q 44.96875 8.296875 48.78125 10.40625 
L 48.78125 2.09375 
Q 45.015625 0.34375 40.984375 -0.53125 
Q 36.96875 -1.421875 32.421875 -1.421875 
Q 20.0625 -1.421875 12.78125 6.34375 
Q 5.515625 14.109375 5.515625 27.296875 
Q 5.515625 40.671875 12.859375 48.328125 
Q 20.21875 56 33.015625 56 
Q 37.15625 56 41.109375 55.140625 
Q 45.0625 54.296875 48.78125 52.59375 
z
" id="DejaVuSans-99"/>
       <path d="M 18.3125 70.21875 
L 18.3125 54.6875 
L 36.8125 54.6875 
L 36.8125 47.703125 
L 18.3125 47.703125 
L 18.3125 18.015625 
Q 18.3125 11.328125 20.140625 9.421875 
Q 21.96875 7.515625 27.59375 7.515625 
L 36.8125 7.515625 
L 36.8125 0 
L 27.59375 0 
Q 17.1875 0 13.234375 3.875 
Q 9.28125 7.765625 9.28125 18.015625 
L 9.28125 47.703125 
L 2.6875 47.703125 
L 2.6875 54.6875 
L 9.28125 54.6875 
L 9.28125 70.21875 
z
" id="DejaVuSans-116"/>
       <path d="M 2.984375 54.6875 
L 12.5 54.6875 
L 29.59375 8.796875 
L 46.6875 54.6875 
L 56.203125 54.6875 
L 35.6875 0 
L 23.484375 0 
z
" id="DejaVuSans-118"/>
       <path d="M 32.171875 -5.078125 
Q 28.375 -14.84375 24.75 -17.8125 
Q 21.140625 -20.796875 15.09375 -20.796875 
L 7.90625 -20.796875 
L 7.90625 -13.28125 
L 13.1875 -13.28125 
Q 16.890625 -13.28125 18.9375 -11.515625 
Q 21 -9.765625 23.484375 -3.21875 
L 25.09375 0.875 
L 2.984375 54.6875 
L 12.5 54.6875 
L 29.59375 11.921875 
L 46.6875 54.6875 
L 56.203125 54.6875 
z
" id="DejaVuSans-121"/>
      </defs>
      <use xlink:href="#DejaVuSans-77"/>
      <use x="86.279297" xlink:href="#DejaVuSans-101"/>
      <use x="147.802734" xlink:href="#DejaVuSans-97"/>
      <use x="209.082031" xlink:href="#DejaVuSans-110"/>
      <use x="272.460938" xlink:href="#DejaVuSans-32"/>
      <use x="304.248047" xlink:href="#DejaVuSans-65"/>
      <use x="370.90625" xlink:href="#DejaVuSans-99"/>
      <use x="425.886719" xlink:href="#DejaVuSans-116"/>
      <use x="465.095703" xlink:href="#DejaVuSans-105"/>
      <use x="492.878906" xlink:href="#DejaVuSans-118"/>
      <use x="552.058594" xlink:href="#DejaVuSans-105"/>
      <use x="579.841797" xlink:href="#DejaVuSans-116"/>
      <use x="619.050781" xlink:href="#DejaVuSans-121"/>
     </g>
    </g>
   </g>
   <g id="line2d_15">
    <path clip-path="url(#p4cb013c0ef)" d="M 144 423.703636 
L 155.478857 423.703636 
L 156.754286 250.74 
L 158.029714 99.396818 
L 159.305143 250.74 
L 160.580571 229.119545 
L 161.856 99.396818 
L 163.131429 272.360455 
L 164.406857 250.74 
L 165.682286 250.74 
L 168.233143 293.980909 
L 169.508571 207.499091 
L 170.784 272.360455 
L 172.059429 315.601364 
L 173.334857 293.980909 
L 174.610286 337.221818 
L 175.885714 337.221818 
L 177.161143 293.980909 
L 178.436571 311.277273 
L 179.712 272.360455 
L 180.987429 272.360455 
L 182.262857 276.684545 
L 183.538286 268.036364 
L 184.813714 358.842273 
L 186.089143 358.842273 
L 187.364571 380.462727 
L 188.64 384.786818 
L 191.190857 402.083182 
L 193.741714 402.083182 
L 195.017143 380.462727 
L 196.292571 402.083182 
L 203.945143 402.083182 
L 205.220571 380.462727 
L 206.496 402.083182 
L 207.771429 380.462727 
L 209.046857 402.083182 
L 210.322286 337.221818 
L 211.597714 337.221818 
L 212.873143 272.360455 
L 214.148571 315.601364 
L 215.424 337.221818 
L 216.699429 315.601364 
L 217.974857 315.601364 
L 219.250286 306.953182 
L 220.525714 324.249545 
L 221.801143 337.221818 
L 224.352 337.221818 
L 225.627429 293.980909 
L 226.902857 337.221818 
L 228.178286 311.277273 
L 229.453714 319.925455 
L 230.729143 337.221818 
L 232.004571 315.601364 
L 233.28 315.601364 
L 234.555429 289.656818 
L 235.830857 289.656818 
L 237.106286 220.471364 
L 238.381714 289.656818 
L 239.657143 293.980909 
L 240.932571 250.74 
L 243.483429 293.980909 
L 244.758857 272.360455 
L 246.034286 272.360455 
L 247.309714 276.684545 
L 248.585143 268.036364 
L 249.860571 315.601364 
L 251.136 315.601364 
L 252.411429 293.980909 
L 253.686857 293.980909 
L 254.962286 311.277273 
L 256.237714 285.332727 
L 257.513143 306.953182 
L 258.788571 116.693182 
L 260.064 151.285909 
L 261.339429 177.230455 
L 262.614857 207.499091 
L 263.890286 185.878636 
L 265.165714 168.582273 
L 266.441143 207.499091 
L 267.716571 177.230455 
L 268.992 211.823182 
L 270.267429 207.499091 
L 271.542857 242.091818 
L 272.818286 224.795455 
L 275.369143 250.74 
L 276.644571 229.119545 
L 277.92 272.360455 
L 279.195429 255.064091 
L 280.470857 276.684545 
L 283.021714 242.091818 
L 284.297143 242.091818 
L 285.572571 250.74 
L 286.848 250.74 
L 288.123429 211.823182 
L 289.398857 237.767727 
L 290.674286 220.471364 
L 291.949714 224.795455 
L 293.225143 242.091818 
L 294.500571 203.175 
L 295.776 237.767727 
L 297.051429 224.795455 
L 298.326857 229.119545 
L 299.602286 181.554545 
L 300.877714 242.091818 
L 302.153143 237.767727 
L 303.428571 216.147273 
L 304.704 246.415909 
L 305.979429 229.119545 
L 307.254857 250.74 
L 308.530286 281.008636 
L 309.805714 423.703636 
L 334.038857 423.703636 
L 335.314286 363.166364 
L 336.589714 229.119545 
L 337.865143 315.601364 
L 339.140571 250.74 
L 340.416 272.360455 
L 341.691429 315.601364 
L 344.242286 315.601364 
L 346.793143 272.360455 
L 348.068571 293.980909 
L 349.344 337.221818 
L 353.170286 337.221818 
L 355.721143 293.980909 
L 356.996571 332.897727 
L 358.272 319.925455 
L 359.547429 337.221818 
L 360.822857 380.462727 
L 362.098286 380.462727 
L 363.373714 423.703636 
L 364.649143 384.786818 
L 365.924571 384.786818 
L 367.2 345.87 
L 368.475429 384.786818 
L 372.301714 384.786818 
L 373.577143 345.87 
L 374.852571 402.083182 
L 381.229714 402.083182 
L 382.505143 380.462727 
L 383.780571 380.462727 
L 385.056 358.842273 
L 386.331429 402.083182 
L 387.606857 402.083182 
L 388.882286 397.759091 
L 390.157714 376.138636 
L 391.433143 341.545909 
L 392.708571 380.462727 
L 393.984 376.138636 
L 395.259429 363.166364 
L 396.534857 345.87 
L 397.810286 363.166364 
L 399.085714 345.87 
L 400.361143 350.194091 
L 401.636571 281.008636 
L 402.912 324.249545 
L 404.187429 332.897727 
L 405.462857 281.008636 
L 406.738286 315.601364 
L 408.013714 341.545909 
L 409.289143 328.573636 
L 410.564571 319.925455 
L 411.84 324.249545 
L 413.115429 319.925455 
L 414.390857 289.656818 
L 415.666286 229.119545 
L 416.941714 259.388182 
L 418.217143 259.388182 
L 419.492571 237.767727 
L 420.768 263.712273 
L 422.043429 242.091818 
L 423.318857 259.388182 
L 424.594286 259.388182 
L 425.869714 272.360455 
L 427.145143 259.388182 
L 429.696 268.036364 
L 430.971429 255.064091 
L 432.246857 250.74 
L 433.522286 276.684545 
L 434.797714 293.980909 
L 436.073143 216.147273 
L 437.348571 198.850909 
L 438.624 237.767727 
L 439.899429 272.360455 
L 441.174857 263.712273 
L 442.450286 315.601364 
L 443.725714 302.629091 
L 445.001143 293.980909 
L 446.276571 293.980909 
L 447.552 311.277273 
L 448.827429 302.629091 
L 452.653714 328.573636 
L 453.929143 315.601364 
L 455.204571 298.305 
L 456.48 319.925455 
L 457.755429 306.953182 
L 459.030857 263.712273 
L 460.306286 276.684545 
L 461.581714 268.036364 
L 462.857143 250.74 
L 464.132571 289.656818 
L 465.408 237.767727 
L 466.683429 168.582273 
L 467.958857 203.175 
L 469.234286 207.499091 
L 470.509714 190.202727 
L 471.785143 233.443636 
L 474.336 216.147273 
L 475.611429 190.202727 
L 476.886857 177.230455 
L 478.162286 203.175 
L 479.437714 216.147273 
L 480.713143 203.175 
L 481.988571 237.767727 
L 483.264 237.767727 
L 484.539429 233.443636 
L 485.814857 203.175 
L 487.090286 341.545909 
L 488.365714 423.703636 
L 512.598857 423.703636 
L 513.874286 315.601364 
L 515.149714 250.74 
L 516.425143 315.601364 
L 517.700571 272.360455 
L 518.976 250.74 
L 520.251429 315.601364 
L 522.802286 272.360455 
L 524.077714 185.878636 
L 525.353143 272.360455 
L 526.628571 207.499091 
L 527.904 250.74 
L 529.179429 250.74 
L 530.454857 272.360455 
L 531.730286 272.360455 
L 533.005714 229.119545 
L 534.281143 272.360455 
L 535.556571 250.74 
L 536.832 207.499091 
L 538.107429 250.74 
L 539.382857 220.471364 
L 540.658286 237.767727 
L 541.933714 272.360455 
L 543.209143 293.980909 
L 544.484571 229.119545 
L 545.76 250.74 
L 547.035429 293.980909 
L 548.310857 293.980909 
L 549.586286 272.360455 
L 552.137143 272.360455 
L 553.412571 259.388182 
L 554.688 211.823182 
L 555.963429 272.360455 
L 557.238857 272.360455 
L 558.514286 229.119545 
L 559.789714 293.980909 
L 561.065143 337.221818 
L 562.340571 315.601364 
L 563.616 272.360455 
L 564.891429 358.842273 
L 566.166857 337.221818 
L 567.442286 358.842273 
L 571.268571 358.842273 
L 572.544 337.221818 
L 575.094857 337.221818 
L 576.370286 358.842273 
L 580.196571 358.842273 
L 581.472 337.221818 
L 585.298286 337.221818 
L 586.573714 293.980909 
L 587.849143 315.601364 
L 589.124571 293.980909 
L 590.4 250.74 
L 594.226286 315.601364 
L 595.501714 315.601364 
L 596.777143 272.360455 
L 598.052571 250.74 
L 599.328 207.499091 
L 600.603429 229.119545 
L 601.878857 263.712273 
L 603.154286 259.388182 
L 604.429714 272.360455 
L 605.705143 229.119545 
L 606.980571 272.360455 
L 608.256 229.119545 
L 609.531429 229.119545 
L 612.082286 272.360455 
L 613.357714 272.360455 
L 614.633143 229.119545 
L 615.908571 229.119545 
L 617.184 293.980909 
L 618.459429 229.119545 
L 619.734857 250.74 
L 621.010286 293.980909 
L 622.285714 293.980909 
L 623.561143 250.74 
L 626.112 293.980909 
L 627.387429 229.119545 
L 628.662857 293.980909 
L 629.938286 293.980909 
L 631.213714 207.499091 
L 632.489143 272.360455 
L 633.764571 229.119545 
L 635.04 293.980909 
L 638.866286 358.842273 
L 640.141714 358.842273 
L 641.417143 315.601364 
L 642.692571 358.842273 
L 645.243429 358.842273 
L 646.518857 315.601364 
L 647.794286 358.842273 
L 649.069714 358.842273 
L 650.345143 337.221818 
L 651.620571 358.842273 
L 654.171429 358.842273 
L 655.446857 315.601364 
L 656.722286 315.601364 
L 657.997714 293.980909 
L 660.548571 337.221818 
L 661.824 337.221818 
L 663.099429 315.601364 
L 664.374857 311.277273 
L 665.650286 384.786818 
L 666.925714 423.703636 
L 691.158857 423.703636 
L 693.709714 293.980909 
L 694.985143 358.842273 
L 696.260571 358.842273 
L 697.536 293.980909 
L 698.811429 358.842273 
L 700.086857 302.629091 
L 701.362286 263.712273 
L 702.637714 216.147273 
L 703.913143 293.980909 
L 705.188571 263.712273 
L 706.464 250.74 
L 707.739429 129.665455 
L 709.014857 207.499091 
L 710.290286 142.637727 
L 711.565714 229.119545 
L 712.841143 220.471364 
L 714.116571 250.74 
L 715.392 207.499091 
L 716.667429 151.285909 
L 717.942857 224.795455 
L 719.218286 229.119545 
L 720.493714 315.601364 
L 721.769143 337.221818 
L 723.044571 311.277273 
L 724.32 337.221818 
L 725.595429 319.925455 
L 726.870857 293.980909 
L 728.146286 337.221818 
L 730.697143 337.221818 
L 731.972571 311.277273 
L 733.248 337.221818 
L 734.523429 328.573636 
L 735.798857 306.953182 
L 737.074286 315.601364 
L 738.349714 337.221818 
L 739.625143 337.221818 
L 740.900571 332.897727 
L 742.176 293.980909 
L 743.451429 332.897727 
L 744.726857 332.897727 
L 746.002286 311.277273 
L 747.277714 293.980909 
L 748.553143 298.305 
L 749.828571 324.249545 
L 751.104 302.629091 
L 752.379429 298.305 
L 753.654857 319.925455 
L 754.930286 302.629091 
L 756.205714 324.249545 
L 757.481143 319.925455 
L 758.756571 306.953182 
L 760.032 341.545909 
L 762.582857 341.545909 
L 763.858286 345.87 
L 765.133714 354.518182 
L 766.409143 337.221818 
L 767.684571 328.573636 
L 768.96 306.953182 
L 770.235429 306.953182 
L 772.786286 289.656818 
L 774.061714 328.573636 
L 775.337143 311.277273 
L 780.438857 311.277273 
L 781.714286 319.925455 
L 782.989714 311.277273 
L 784.265143 311.277273 
L 785.540571 328.573636 
L 786.816 311.277273 
L 788.091429 311.277273 
L 789.366857 328.573636 
L 790.642286 293.980909 
L 791.917714 311.277273 
L 793.193143 281.008636 
L 794.468571 211.823182 
L 795.744 281.008636 
L 797.019429 259.388182 
L 798.294857 285.332727 
L 799.570286 281.008636 
L 800.845714 250.74 
L 802.121143 255.064091 
L 803.396571 289.656818 
L 804.672 255.064091 
L 805.947429 250.74 
L 807.222857 281.008636 
L 808.498286 281.008636 
L 809.773714 298.305 
L 811.049143 272.360455 
L 812.324571 285.332727 
L 813.6 289.656818 
L 814.875429 281.008636 
L 816.150857 298.305 
L 817.426286 285.332727 
L 818.701714 289.656818 
L 819.977143 281.008636 
L 821.252571 302.629091 
L 822.528 306.953182 
L 823.803429 319.925455 
L 825.078857 315.601364 
L 826.354286 306.953182 
L 827.629714 315.601364 
L 828.905143 306.953182 
L 830.180571 302.629091 
L 831.456 306.953182 
L 834.006857 298.305 
L 836.557714 315.601364 
L 837.833143 337.221818 
L 839.108571 319.925455 
L 840.384 298.305 
L 841.659429 302.629091 
L 842.934857 315.601364 
L 845.485714 423.703636 
L 869.718857 423.703636 
L 870.994286 337.221818 
L 872.269714 233.443636 
L 873.545143 328.573636 
L 874.820571 328.573636 
L 876.096 233.443636 
L 877.371429 281.008636 
L 878.646857 207.499091 
L 879.922286 146.961818 
L 881.197714 151.285909 
L 882.473143 194.526818 
L 883.748571 146.961818 
L 885.024 181.554545 
L 886.299429 185.878636 
L 887.574857 229.119545 
L 888.850286 216.147273 
L 890.125714 250.74 
L 891.401143 224.795455 
L 892.676571 177.230455 
L 893.952 224.795455 
L 895.227429 246.415909 
L 896.502857 181.554545 
L 897.778286 172.906364 
L 899.053714 272.360455 
L 900.329143 259.388182 
L 901.604571 263.712273 
L 902.88 306.953182 
L 904.155429 281.008636 
L 905.430857 298.305 
L 906.706286 259.388182 
L 907.981714 311.277273 
L 909.257143 302.629091 
L 910.532571 311.277273 
L 911.808 302.629091 
L 913.083429 276.684545 
L 914.358857 293.980909 
L 915.634286 268.036364 
L 916.909714 311.277273 
L 918.185143 302.629091 
L 919.460571 268.036364 
L 920.736 224.795455 
L 922.011429 233.443636 
L 923.286857 146.961818 
L 924.562286 242.091818 
L 925.837714 194.526818 
L 927.113143 194.526818 
L 928.388571 220.471364 
L 929.664 224.795455 
L 930.939429 185.878636 
L 932.214857 190.202727 
L 933.490286 207.499091 
L 936.041143 233.443636 
L 937.316571 216.147273 
L 938.592 203.175 
L 939.867429 233.443636 
L 941.142857 203.175 
L 942.418286 224.795455 
L 943.693714 229.119545 
L 944.969143 255.064091 
L 946.244571 203.175 
L 947.52 198.850909 
L 950.070857 242.091818 
L 951.346286 203.175 
L 952.621714 242.091818 
L 953.897143 246.415909 
L 955.172571 216.147273 
L 956.448 246.415909 
L 957.723429 229.119545 
L 958.998857 224.795455 
L 960.274286 229.119545 
L 961.549714 246.415909 
L 962.825143 216.147273 
L 964.100571 229.119545 
L 966.651429 246.415909 
L 967.926857 229.119545 
L 969.202286 242.091818 
L 970.477714 233.443636 
L 971.753143 181.554545 
L 973.028571 138.313636 
L 974.304 207.499091 
L 975.579429 216.147273 
L 976.854857 233.443636 
L 978.130286 224.795455 
L 979.405714 237.767727 
L 980.681143 194.526818 
L 981.956571 242.091818 
L 983.232 237.767727 
L 984.507429 237.767727 
L 985.782857 242.091818 
L 987.058286 237.767727 
L 988.333714 229.119545 
L 989.609143 250.74 
L 990.884571 242.091818 
L 992.16 259.388182 
L 993.435429 259.388182 
L 994.710857 276.684545 
L 995.986286 276.684545 
L 997.261714 250.74 
L 998.537143 255.064091 
L 999.812571 306.953182 
L 1001.088 289.656818 
L 1002.363429 306.953182 
L 1003.638857 281.008636 
L 1004.914286 281.008636 
L 1006.189714 259.388182 
L 1008.740571 293.980909 
L 1010.016 289.656818 
L 1011.291429 298.305 
L 1012.566857 276.684545 
L 1013.842286 268.036364 
L 1015.117714 285.332727 
L 1016.393143 250.74 
L 1017.668571 276.684545 
L 1018.944 289.656818 
L 1020.219429 289.656818 
L 1021.494857 276.684545 
L 1022.770286 324.249545 
L 1024.045714 423.703636 
L 1035.524571 423.703636 
L 1035.524571 423.703636 
" style="fill:none;stroke:#000004;stroke-linecap:square;"/>
   </g>
   <g id="line2d_16">
    <path clip-path="url(#p4cb013c0ef)" d="M 144 423.703636 
L 155.478857 423.703636 
L 158.029714 374.285455 
L 159.305143 398.994545 
L 160.580571 398.994545 
L 161.856 374.285455 
L 164.406857 374.285455 
L 165.682286 349.576364 
L 168.233143 349.576364 
L 170.784 300.158182 
L 172.059429 324.867273 
L 173.334857 319.925455 
L 174.610286 280.390909 
L 175.885714 275.449091 
L 177.161143 250.74 
L 178.436571 280.390909 
L 179.712 300.158182 
L 180.987429 300.158182 
L 182.262857 275.449091 
L 183.538286 226.030909 
L 184.813714 275.449091 
L 186.089143 201.321818 
L 187.364571 226.030909 
L 188.64 221.089091 
L 189.915429 211.205455 
L 191.190857 171.670909 
L 192.466286 181.554545 
L 193.741714 176.612727 
L 195.017143 151.903636 
L 196.292571 226.030909 
L 197.568 176.612727 
L 198.843429 226.030909 
L 200.118857 186.496364 
L 201.394286 191.438182 
L 202.669714 176.612727 
L 203.945143 176.612727 
L 205.220571 211.205455 
L 207.771429 92.601818 
L 209.046857 102.485455 
L 210.322286 226.030909 
L 211.597714 201.321818 
L 212.873143 226.030909 
L 214.148571 206.263636 
L 215.424 201.321818 
L 216.699429 235.914545 
L 217.974857 211.205455 
L 219.250286 250.74 
L 221.801143 250.74 
L 223.076571 142.02 
L 224.352 240.856364 
L 225.627429 250.74 
L 226.902857 196.38 
L 228.178286 250.74 
L 230.729143 250.74 
L 232.004571 132.136364 
L 233.28 151.903636 
L 234.555429 250.74 
L 235.830857 250.74 
L 237.106286 295.216364 
L 238.381714 300.158182 
L 239.657143 300.158182 
L 240.932571 250.74 
L 242.208 280.390909 
L 243.483429 300.158182 
L 244.758857 275.449091 
L 246.034286 270.507273 
L 247.309714 300.158182 
L 248.585143 300.158182 
L 249.860571 250.74 
L 251.136 206.263636 
L 252.411429 275.449091 
L 253.686857 235.914545 
L 254.962286 235.914545 
L 256.237714 275.449091 
L 257.513143 250.74 
L 258.788571 329.809091 
L 260.064 398.994545 
L 266.441143 398.994545 
L 267.716571 374.285455 
L 268.992 398.994545 
L 270.267429 398.994545 
L 271.542857 384.169091 
L 272.818286 379.227273 
L 274.093714 324.867273 
L 275.369143 319.925455 
L 276.644571 310.041818 
L 277.92 310.041818 
L 279.195429 319.925455 
L 280.470857 334.750909 
L 281.746286 339.692727 
L 283.021714 300.158182 
L 284.297143 245.798182 
L 285.572571 275.449091 
L 286.848 364.401818 
L 288.123429 334.750909 
L 289.398857 344.634545 
L 290.674286 364.401818 
L 293.225143 344.634545 
L 295.776 364.401818 
L 297.051429 354.518182 
L 298.326857 384.169091 
L 299.602286 384.169091 
L 300.877714 359.46 
L 302.153143 349.576364 
L 303.428571 364.401818 
L 304.704 334.750909 
L 305.979429 349.576364 
L 307.254857 369.343636 
L 308.530286 379.227273 
L 309.805714 423.703636 
L 334.038857 423.703636 
L 336.589714 176.612727 
L 337.865143 300.158182 
L 339.140571 300.158182 
L 340.416 176.612727 
L 341.691429 300.158182 
L 346.793143 300.158182 
L 348.068571 151.903636 
L 349.344 245.798182 
L 350.619429 245.798182 
L 351.894857 211.205455 
L 353.170286 245.798182 
L 354.445714 250.74 
L 355.721143 235.914545 
L 356.996571 132.136364 
L 358.272 216.147273 
L 359.547429 245.798182 
L 360.822857 77.776364 
L 362.098286 102.485455 
L 363.373714 196.38 
L 364.649143 226.030909 
L 365.924571 235.914545 
L 367.2 221.089091 
L 369.750857 211.205455 
L 371.026286 265.565455 
L 372.301714 265.565455 
L 373.577143 240.856364 
L 374.852571 211.205455 
L 376.128 206.263636 
L 377.403429 186.496364 
L 378.678857 146.961818 
L 379.954286 226.030909 
L 381.229714 226.030909 
L 382.505143 142.02 
L 383.780571 235.914545 
L 385.056 151.903636 
L 386.331429 132.136364 
L 387.606857 87.66 
L 388.882286 235.914545 
L 390.157714 201.321818 
L 391.433143 216.147273 
L 392.708571 255.681818 
L 393.984 240.856364 
L 395.259429 206.263636 
L 396.534857 245.798182 
L 397.810286 245.798182 
L 399.085714 275.449091 
L 400.361143 250.74 
L 401.636571 295.216364 
L 402.912 280.390909 
L 404.187429 280.390909 
L 405.462857 250.74 
L 406.738286 255.681818 
L 408.013714 285.332727 
L 409.289143 270.507273 
L 410.564571 221.089091 
L 411.84 161.787273 
L 413.115429 226.030909 
L 414.390857 300.158182 
L 415.666286 300.158182 
L 416.941714 334.750909 
L 418.217143 339.692727 
L 419.492571 329.809091 
L 420.768 344.634545 
L 422.043429 329.809091 
L 423.318857 295.216364 
L 424.594286 324.867273 
L 425.869714 329.809091 
L 427.145143 329.809091 
L 428.420571 324.867273 
L 429.696 300.158182 
L 430.971429 310.041818 
L 432.246857 305.1 
L 433.522286 295.216364 
L 434.797714 300.158182 
L 436.073143 300.158182 
L 437.348571 245.798182 
L 438.624 310.041818 
L 439.899429 319.925455 
L 441.174857 270.507273 
L 442.450286 226.030909 
L 443.725714 240.856364 
L 445.001143 265.565455 
L 446.276571 260.623636 
L 447.552 265.565455 
L 448.827429 275.449091 
L 450.102857 250.74 
L 451.378286 235.914545 
L 452.653714 250.74 
L 453.929143 255.681818 
L 455.204571 250.74 
L 456.48 270.507273 
L 457.755429 275.449091 
L 459.030857 270.507273 
L 460.306286 255.681818 
L 461.581714 245.798182 
L 462.857143 191.438182 
L 464.132571 280.390909 
L 465.408 344.634545 
L 466.683429 374.285455 
L 467.958857 379.227273 
L 469.234286 374.285455 
L 470.509714 379.227273 
L 471.785143 364.401818 
L 473.060571 389.110909 
L 474.336 394.052727 
L 475.611429 384.169091 
L 476.886857 398.994545 
L 478.162286 398.994545 
L 479.437714 394.052727 
L 480.713143 374.285455 
L 481.988571 359.46 
L 483.264 354.518182 
L 484.539429 359.46 
L 485.814857 354.518182 
L 487.090286 364.401818 
L 488.365714 423.703636 
L 512.598857 423.703636 
L 513.874286 300.158182 
L 515.149714 226.030909 
L 516.425143 300.158182 
L 517.700571 250.74 
L 518.976 226.030909 
L 520.251429 300.158182 
L 522.802286 349.576364 
L 524.077714 300.158182 
L 525.353143 349.576364 
L 526.628571 324.867273 
L 527.904 349.576364 
L 531.730286 349.576364 
L 533.005714 300.158182 
L 534.281143 349.576364 
L 535.556571 324.867273 
L 536.832 349.576364 
L 538.107429 349.576364 
L 539.382857 250.74 
L 540.658286 275.449091 
L 541.933714 275.449091 
L 543.209143 319.925455 
L 544.484571 329.809091 
L 545.76 349.576364 
L 548.310857 300.158182 
L 549.586286 349.576364 
L 552.137143 349.576364 
L 553.412571 359.46 
L 554.688 374.285455 
L 555.963429 374.285455 
L 557.238857 324.867273 
L 558.514286 324.867273 
L 559.789714 275.449091 
L 561.065143 250.74 
L 562.340571 250.74 
L 563.616 201.321818 
L 564.891429 201.321818 
L 566.166857 127.194545 
L 567.442286 250.74 
L 569.993143 201.321818 
L 571.268571 226.030909 
L 572.544 226.030909 
L 573.819429 250.74 
L 575.094857 226.030909 
L 577.645714 226.030909 
L 578.921143 221.089091 
L 580.196571 230.972727 
L 581.472 201.321818 
L 582.747429 250.74 
L 584.022857 226.030909 
L 585.298286 250.74 
L 586.573714 300.158182 
L 587.849143 226.030909 
L 590.4 226.030909 
L 591.675429 250.74 
L 592.950857 300.158182 
L 594.226286 300.158182 
L 595.501714 275.449091 
L 598.052571 324.867273 
L 599.328 324.867273 
L 600.603429 349.576364 
L 604.429714 349.576364 
L 605.705143 329.809091 
L 606.980571 319.925455 
L 608.256 324.867273 
L 609.531429 349.576364 
L 613.357714 349.576364 
L 614.633143 275.449091 
L 615.908571 250.74 
L 617.184 300.158182 
L 621.010286 300.158182 
L 622.285714 275.449091 
L 623.561143 324.867273 
L 626.112 324.867273 
L 627.387429 300.158182 
L 628.662857 324.867273 
L 629.938286 300.158182 
L 632.489143 349.576364 
L 633.764571 349.576364 
L 635.04 324.867273 
L 636.315429 226.030909 
L 637.590857 201.321818 
L 638.866286 151.903636 
L 640.141714 201.321818 
L 642.692571 201.321818 
L 643.968 250.74 
L 645.243429 245.798182 
L 646.518857 206.263636 
L 647.794286 230.972727 
L 649.069714 196.38 
L 650.345143 226.030909 
L 651.620571 226.030909 
L 652.896 250.74 
L 654.171429 235.914545 
L 655.446857 240.856364 
L 656.722286 275.449091 
L 657.997714 250.74 
L 659.273143 176.612727 
L 660.548571 275.449091 
L 661.824 265.565455 
L 663.099429 260.623636 
L 664.374857 275.449091 
L 665.650286 275.449091 
L 666.925714 423.703636 
L 691.158857 423.703636 
L 693.709714 275.449091 
L 694.985143 349.576364 
L 696.260571 349.576364 
L 697.536 275.449091 
L 698.811429 324.867273 
L 700.086857 349.576364 
L 701.362286 324.867273 
L 702.637714 349.576364 
L 703.913143 349.576364 
L 705.188571 329.809091 
L 706.464 319.925455 
L 707.739429 398.994545 
L 710.290286 398.994545 
L 711.565714 374.285455 
L 712.841143 354.518182 
L 714.116571 369.343636 
L 715.392 374.285455 
L 716.667429 349.576364 
L 717.942857 300.158182 
L 719.218286 300.158182 
L 720.493714 211.205455 
L 721.769143 221.089091 
L 723.044571 245.798182 
L 724.32 201.321818 
L 725.595429 186.496364 
L 726.870857 221.089091 
L 728.146286 221.089091 
L 729.421714 245.798182 
L 730.697143 206.263636 
L 731.972571 250.74 
L 733.248 250.74 
L 734.523429 181.554545 
L 735.798857 250.74 
L 737.074286 196.38 
L 738.349714 250.74 
L 739.625143 201.321818 
L 740.900571 250.74 
L 742.176 176.612727 
L 743.451429 181.554545 
L 744.726857 107.427273 
L 746.002286 295.216364 
L 747.277714 285.332727 
L 748.553143 265.565455 
L 749.828571 305.1 
L 752.379429 265.565455 
L 753.654857 305.1 
L 754.930286 300.158182 
L 756.205714 270.507273 
L 757.481143 285.332727 
L 758.756571 305.1 
L 760.032 245.798182 
L 761.307429 250.74 
L 762.582857 245.798182 
L 763.858286 235.914545 
L 765.133714 211.205455 
L 766.409143 211.205455 
L 767.684571 191.438182 
L 768.96 186.496364 
L 770.235429 186.496364 
L 771.510857 230.972727 
L 772.786286 260.623636 
L 774.061714 226.030909 
L 775.337143 265.565455 
L 776.612571 230.972727 
L 777.888 216.147273 
L 779.163429 250.74 
L 780.438857 230.972727 
L 781.714286 260.623636 
L 782.989714 245.798182 
L 784.265143 265.565455 
L 785.540571 245.798182 
L 786.816 235.914545 
L 788.091429 216.147273 
L 789.366857 245.798182 
L 790.642286 250.74 
L 791.917714 270.507273 
L 793.193143 245.798182 
L 795.744 275.449091 
L 797.019429 250.74 
L 798.294857 305.1 
L 799.570286 300.158182 
L 800.845714 310.041818 
L 802.121143 290.274545 
L 803.396571 314.983636 
L 804.672 300.158182 
L 805.947429 290.274545 
L 807.222857 310.041818 
L 808.498286 305.1 
L 809.773714 280.390909 
L 811.049143 290.274545 
L 812.324571 305.1 
L 813.6 275.449091 
L 814.875429 270.507273 
L 816.150857 255.681818 
L 817.426286 295.216364 
L 818.701714 260.623636 
L 819.977143 206.263636 
L 821.252571 305.1 
L 822.528 255.681818 
L 823.803429 275.449091 
L 825.078857 265.565455 
L 826.354286 265.565455 
L 827.629714 290.274545 
L 828.905143 300.158182 
L 830.180571 295.216364 
L 832.731429 255.681818 
L 834.006857 260.623636 
L 835.282286 260.623636 
L 836.557714 275.449091 
L 837.833143 255.681818 
L 839.108571 270.507273 
L 840.384 255.681818 
L 841.659429 285.332727 
L 842.934857 245.798182 
L 844.210286 305.1 
L 845.485714 423.703636 
L 869.718857 423.703636 
L 870.994286 374.285455 
L 872.269714 265.565455 
L 873.545143 344.634545 
L 874.820571 314.983636 
L 876.096 295.216364 
L 877.371429 369.343636 
L 878.646857 394.052727 
L 881.197714 423.703636 
L 882.473143 403.936364 
L 883.748571 398.994545 
L 885.024 398.994545 
L 886.299429 389.110909 
L 887.574857 384.169091 
L 888.850286 384.169091 
L 890.125714 359.46 
L 891.401143 364.401818 
L 892.676571 374.285455 
L 893.952 349.576364 
L 895.227429 329.809091 
L 896.502857 334.750909 
L 897.778286 314.983636 
L 899.053714 334.750909 
L 900.329143 329.809091 
L 901.604571 270.507273 
L 902.88 265.565455 
L 904.155429 250.74 
L 906.706286 270.507273 
L 907.981714 295.216364 
L 909.257143 280.390909 
L 910.532571 280.390909 
L 911.808 255.681818 
L 913.083429 280.390909 
L 914.358857 265.565455 
L 916.909714 295.216364 
L 918.185143 290.274545 
L 919.460571 310.041818 
L 920.736 270.507273 
L 922.011429 339.692727 
L 923.286857 344.634545 
L 924.562286 379.227273 
L 927.113143 389.110909 
L 928.388571 379.227273 
L 929.664 374.285455 
L 930.939429 379.227273 
L 932.214857 374.285455 
L 934.765714 384.169091 
L 936.041143 379.227273 
L 937.316571 384.169091 
L 938.592 349.576364 
L 939.867429 369.343636 
L 943.693714 339.692727 
L 944.969143 354.518182 
L 946.244571 334.750909 
L 947.52 310.041818 
L 950.070857 349.576364 
L 951.346286 349.576364 
L 953.897143 359.46 
L 955.172571 354.518182 
L 956.448 339.692727 
L 957.723429 349.576364 
L 958.998857 349.576364 
L 960.274286 359.46 
L 961.549714 364.401818 
L 962.825143 349.576364 
L 964.100571 344.634545 
L 965.376 349.576364 
L 966.651429 344.634545 
L 967.926857 354.518182 
L 969.202286 349.576364 
L 970.477714 369.343636 
L 971.753143 344.634545 
L 974.304 364.401818 
L 975.579429 349.576364 
L 976.854857 364.401818 
L 978.130286 369.343636 
L 979.405714 349.576364 
L 980.681143 359.46 
L 981.956571 349.576364 
L 983.232 344.634545 
L 984.507429 349.576364 
L 985.782857 359.46 
L 987.058286 344.634545 
L 988.333714 344.634545 
L 989.609143 339.692727 
L 990.884571 329.809091 
L 992.16 334.750909 
L 993.435429 324.867273 
L 994.710857 295.216364 
L 995.986286 310.041818 
L 997.261714 245.798182 
L 998.537143 201.321818 
L 999.812571 265.565455 
L 1001.088 270.507273 
L 1002.363429 250.74 
L 1003.638857 285.332727 
L 1004.914286 270.507273 
L 1006.189714 280.390909 
L 1007.465143 295.216364 
L 1008.740571 300.158182 
L 1010.016 285.332727 
L 1011.291429 285.332727 
L 1012.566857 290.274545 
L 1013.842286 305.1 
L 1015.117714 285.332727 
L 1016.393143 285.332727 
L 1017.668571 310.041818 
L 1018.944 285.332727 
L 1020.219429 290.274545 
L 1021.494857 280.390909 
L 1022.770286 359.46 
L 1024.045714 423.703636 
L 1035.524571 423.703636 
L 1035.524571 423.703636 
" style="fill:none;stroke:#bc3754;stroke-linecap:square;"/>
   </g>
   <g id="patch_3">
    <path d="M 144 441 
L 144 60.48 
" style="fill:none;stroke:#000000;stroke-linecap:square;stroke-linejoin:miter;stroke-width:0.8;"/>
   </g>
   <g id="patch_4">
    <path d="M 1036.8 441 
L 1036.8 60.48 
" style="fill:none;stroke:#000000;stroke-linecap:square;stroke-linejoin:miter;stroke-width:0.8;"/>
   </g>
   <g id="patch_5">
    <path d="M 144 441 
L 1036.8 441 
" style="fill:none;stroke:#000000;stroke-linecap:square;stroke-linejoin:miter;stroke-width:0.8;"/>
   </g>
   <g id="patch_6">
    <path d="M 144 60.48 
L 1036.8 60.48 
" style="fill:none;stroke:#000000;stroke-linecap:square;stroke-linejoin:miter;stroke-width:0.8;"/>
   </g>
   <g id="legend_1">
    <g id="line2d_17">
     <path d="M 537.409375 73.578438 
L 557.409375 73.578438 
" style="fill:none;stroke:#000004;stroke-linecap:square;"/>
    </g>
    <g id="line2d_18"/>
    <g id="text_17">
     <!-- M1 -->
     <g transform="translate(565.409375 77.078438)scale(0.1 -0.1)">
      <use xlink:href="#DejaVuSans-77"/>
      <use x="86.279297" xlink:href="#DejaVuSans-49"/>
     </g>
    </g>
    <g id="line2d_19">
     <path d="M 600.4 73.578438 
L 620.4 73.578438 
" style="fill:none;stroke:#bc3754;stroke-linecap:square;"/>
    </g>
    <g id="line2d_20"/>
    <g id="text_18">
     <!-- M2 -->
     <g transform="translate(628.4 77.078438)scale(0.1 -0.1)">
      <use xlink:href="#DejaVuSans-77"/>
      <use x="86.279297" xlink:href="#DejaVuSans-50"/>
     </g>
    </g>
   </g>
  </g>
 </g>
 <defs>
  <clipPath id="p4cb013c0ef">
   <rect height="380.52" width="892.8" x="144" y="60.48"/>
  </clipPath>
 </defs>
</svg>
