<?xml version="1.0" encoding="utf-8" standalone="no"?>
<!DOCTYPE svg PUBLIC "-//W3C//DTD SVG 1.1//EN"
  "http://www.w3.org/Graphics/SVG/1.1/DTD/svg11.dtd">
<!-- Created with matplotlib (https://matplotlib.org/) -->
<svg height="504pt" version="1.1" viewBox="0 0 1152 504" width="1152pt" xmlns="http://www.w3.org/2000/svg" xmlns:xlink="http://www.w3.org/1999/xlink">
 <metadata>
  <rdf:RDF xmlns:cc="http://creativecommons.org/ns#" xmlns:dc="http://purl.org/dc/elements/1.1/" xmlns:rdf="http://www.w3.org/1999/02/22-rdf-syntax-ns#">
   <cc:Work>
    <dc:type rdf:resource="http://purl.org/dc/dcmitype/StillImage"/>
    <dc:date>2021-05-03T23:43:42.594364</dc:date>
    <dc:format>image/svg+xml</dc:format>
    <dc:creator>
     <cc:Agent>
      <dc:title>Matplotlib v3.3.4, https://matplotlib.org/</dc:title>
     </cc:Agent>
    </dc:creator>
   </cc:Work>
  </rdf:RDF>
 </metadata>
 <defs>
  <style type="text/css">*{stroke-linecap:butt;stroke-linejoin:round;}</style>
 </defs>
 <g id="figure_1">
  <g id="patch_1">
   <path d="M 0 504 
L 1152 504 
L 1152 0 
L 0 0 
z
" style="fill:none;"/>
  </g>
  <g id="axes_1">
   <g id="patch_2">
    <path d="M 144 441 
L 1036.8 441 
L 1036.8 60.48 
L 144 60.48 
z
" style="fill:#ffffff;"/>
   </g>
   <g id="matplotlib.axis_1">
    <g id="xtick_1">
     <g id="line2d_1">
      <defs>
       <path d="M 0 0 
L 0 3.5 
" id="m371670a00f" style="stroke:#000000;stroke-width:0.8;"/>
      </defs>
      <g>
       <use style="stroke:#000000;stroke-width:0.8;" x="144" xlink:href="#m371670a00f" y="441"/>
      </g>
     </g>
     <g id="text_1">
      <!-- 0 -->
      <g transform="translate(137.6375 463.196875)scale(0.2 -0.2)">
       <defs>
        <path d="M 31.78125 66.40625 
Q 24.171875 66.40625 20.328125 58.90625 
Q 16.5 51.421875 16.5 36.375 
Q 16.5 21.390625 20.328125 13.890625 
Q 24.171875 6.390625 31.78125 6.390625 
Q 39.453125 6.390625 43.28125 13.890625 
Q 47.125 21.390625 47.125 36.375 
Q 47.125 51.421875 43.28125 58.90625 
Q 39.453125 66.40625 31.78125 66.40625 
z
M 31.78125 74.21875 
Q 44.046875 74.21875 50.515625 64.515625 
Q 56.984375 54.828125 56.984375 36.375 
Q 56.984375 17.96875 50.515625 8.265625 
Q 44.046875 -1.421875 31.78125 -1.421875 
Q 19.53125 -1.421875 13.0625 8.265625 
Q 6.59375 17.96875 6.59375 36.375 
Q 6.59375 54.828125 13.0625 64.515625 
Q 19.53125 74.21875 31.78125 74.21875 
z
" id="DejaVuSans-48"/>
       </defs>
       <use xlink:href="#DejaVuSans-48"/>
      </g>
     </g>
    </g>
    <g id="xtick_2">
     <g id="line2d_2">
      <g>
       <use style="stroke:#000000;stroke-width:0.8;" x="271.542857" xlink:href="#m371670a00f" y="441"/>
      </g>
     </g>
     <g id="text_2">
      <!-- 5 -->
      <g transform="translate(265.180357 463.196875)scale(0.2 -0.2)">
       <defs>
        <path d="M 10.796875 72.90625 
L 49.515625 72.90625 
L 49.515625 64.59375 
L 19.828125 64.59375 
L 19.828125 46.734375 
Q 21.96875 47.46875 24.109375 47.828125 
Q 26.265625 48.1875 28.421875 48.1875 
Q 40.625 48.1875 47.75 41.5 
Q 54.890625 34.8125 54.890625 23.390625 
Q 54.890625 11.625 47.5625 5.09375 
Q 40.234375 -1.421875 26.90625 -1.421875 
Q 22.3125 -1.421875 17.546875 -0.640625 
Q 12.796875 0.140625 7.71875 1.703125 
L 7.71875 11.625 
Q 12.109375 9.234375 16.796875 8.0625 
Q 21.484375 6.890625 26.703125 6.890625 
Q 35.15625 6.890625 40.078125 11.328125 
Q 45.015625 15.765625 45.015625 23.390625 
Q 45.015625 31 40.078125 35.4375 
Q 35.15625 39.890625 26.703125 39.890625 
Q 22.75 39.890625 18.8125 39.015625 
Q 14.890625 38.140625 10.796875 36.28125 
z
" id="DejaVuSans-53"/>
       </defs>
       <use xlink:href="#DejaVuSans-53"/>
      </g>
     </g>
    </g>
    <g id="xtick_3">
     <g id="line2d_3">
      <g>
       <use style="stroke:#000000;stroke-width:0.8;" x="399.085714" xlink:href="#m371670a00f" y="441"/>
      </g>
     </g>
     <g id="text_3">
      <!-- 10 -->
      <g transform="translate(386.360714 463.196875)scale(0.2 -0.2)">
       <defs>
        <path d="M 12.40625 8.296875 
L 28.515625 8.296875 
L 28.515625 63.921875 
L 10.984375 60.40625 
L 10.984375 69.390625 
L 28.421875 72.90625 
L 38.28125 72.90625 
L 38.28125 8.296875 
L 54.390625 8.296875 
L 54.390625 0 
L 12.40625 0 
z
" id="DejaVuSans-49"/>
       </defs>
       <use xlink:href="#DejaVuSans-49"/>
       <use x="63.623047" xlink:href="#DejaVuSans-48"/>
      </g>
     </g>
    </g>
    <g id="xtick_4">
     <g id="line2d_4">
      <g>
       <use style="stroke:#000000;stroke-width:0.8;" x="526.628571" xlink:href="#m371670a00f" y="441"/>
      </g>
     </g>
     <g id="text_4">
      <!-- 15 -->
      <g transform="translate(513.903571 463.196875)scale(0.2 -0.2)">
       <use xlink:href="#DejaVuSans-49"/>
       <use x="63.623047" xlink:href="#DejaVuSans-53"/>
      </g>
     </g>
    </g>
    <g id="xtick_5">
     <g id="line2d_5">
      <g>
       <use style="stroke:#000000;stroke-width:0.8;" x="654.171429" xlink:href="#m371670a00f" y="441"/>
      </g>
     </g>
     <g id="text_5">
      <!-- 20 -->
      <g transform="translate(641.446429 463.196875)scale(0.2 -0.2)">
       <defs>
        <path d="M 19.1875 8.296875 
L 53.609375 8.296875 
L 53.609375 0 
L 7.328125 0 
L 7.328125 8.296875 
Q 12.9375 14.109375 22.625 23.890625 
Q 32.328125 33.6875 34.8125 36.53125 
Q 39.546875 41.84375 41.421875 45.53125 
Q 43.3125 49.21875 43.3125 52.78125 
Q 43.3125 58.59375 39.234375 62.25 
Q 35.15625 65.921875 28.609375 65.921875 
Q 23.96875 65.921875 18.8125 64.3125 
Q 13.671875 62.703125 7.8125 59.421875 
L 7.8125 69.390625 
Q 13.765625 71.78125 18.9375 73 
Q 24.125 74.21875 28.421875 74.21875 
Q 39.75 74.21875 46.484375 68.546875 
Q 53.21875 62.890625 53.21875 53.421875 
Q 53.21875 48.921875 51.53125 44.890625 
Q 49.859375 40.875 45.40625 35.40625 
Q 44.1875 33.984375 37.640625 27.21875 
Q 31.109375 20.453125 19.1875 8.296875 
z
" id="DejaVuSans-50"/>
       </defs>
       <use xlink:href="#DejaVuSans-50"/>
       <use x="63.623047" xlink:href="#DejaVuSans-48"/>
      </g>
     </g>
    </g>
    <g id="xtick_6">
     <g id="line2d_6">
      <g>
       <use style="stroke:#000000;stroke-width:0.8;" x="781.714286" xlink:href="#m371670a00f" y="441"/>
      </g>
     </g>
     <g id="text_6">
      <!-- 25 -->
      <g transform="translate(768.989286 463.196875)scale(0.2 -0.2)">
       <use xlink:href="#DejaVuSans-50"/>
       <use x="63.623047" xlink:href="#DejaVuSans-53"/>
      </g>
     </g>
    </g>
    <g id="xtick_7">
     <g id="line2d_7">
      <g>
       <use style="stroke:#000000;stroke-width:0.8;" x="909.257143" xlink:href="#m371670a00f" y="441"/>
      </g>
     </g>
     <g id="text_7">
      <!-- 30 -->
      <g transform="translate(896.532143 463.196875)scale(0.2 -0.2)">
       <defs>
        <path d="M 40.578125 39.3125 
Q 47.65625 37.796875 51.625 33 
Q 55.609375 28.21875 55.609375 21.1875 
Q 55.609375 10.40625 48.1875 4.484375 
Q 40.765625 -1.421875 27.09375 -1.421875 
Q 22.515625 -1.421875 17.65625 -0.515625 
Q 12.796875 0.390625 7.625 2.203125 
L 7.625 11.71875 
Q 11.71875 9.328125 16.59375 8.109375 
Q 21.484375 6.890625 26.8125 6.890625 
Q 36.078125 6.890625 40.9375 10.546875 
Q 45.796875 14.203125 45.796875 21.1875 
Q 45.796875 27.640625 41.28125 31.265625 
Q 36.765625 34.90625 28.71875 34.90625 
L 20.21875 34.90625 
L 20.21875 43.015625 
L 29.109375 43.015625 
Q 36.375 43.015625 40.234375 45.921875 
Q 44.09375 48.828125 44.09375 54.296875 
Q 44.09375 59.90625 40.109375 62.90625 
Q 36.140625 65.921875 28.71875 65.921875 
Q 24.65625 65.921875 20.015625 65.03125 
Q 15.375 64.15625 9.8125 62.3125 
L 9.8125 71.09375 
Q 15.4375 72.65625 20.34375 73.4375 
Q 25.25 74.21875 29.59375 74.21875 
Q 40.828125 74.21875 47.359375 69.109375 
Q 53.90625 64.015625 53.90625 55.328125 
Q 53.90625 49.265625 50.4375 45.09375 
Q 46.96875 40.921875 40.578125 39.3125 
z
" id="DejaVuSans-51"/>
       </defs>
       <use xlink:href="#DejaVuSans-51"/>
       <use x="63.623047" xlink:href="#DejaVuSans-48"/>
      </g>
     </g>
    </g>
    <g id="xtick_8">
     <g id="line2d_8">
      <g>
       <use style="stroke:#000000;stroke-width:0.8;" x="1036.8" xlink:href="#m371670a00f" y="441"/>
      </g>
     </g>
     <g id="text_8">
      <!-- 35 -->
      <g transform="translate(1024.075 463.196875)scale(0.2 -0.2)">
       <use xlink:href="#DejaVuSans-51"/>
       <use x="63.623047" xlink:href="#DejaVuSans-53"/>
      </g>
     </g>
    </g>
    <g id="text_9">
     <!-- Time (in s) -->
     <g transform="translate(537.448437 486.553125)scale(0.2 -0.2)">
      <defs>
       <path d="M -0.296875 72.90625 
L 61.375 72.90625 
L 61.375 64.59375 
L 35.5 64.59375 
L 35.5 0 
L 25.59375 0 
L 25.59375 64.59375 
L -0.296875 64.59375 
z
" id="DejaVuSans-84"/>
       <path d="M 9.421875 54.6875 
L 18.40625 54.6875 
L 18.40625 0 
L 9.421875 0 
z
M 9.421875 75.984375 
L 18.40625 75.984375 
L 18.40625 64.59375 
L 9.421875 64.59375 
z
" id="DejaVuSans-105"/>
       <path d="M 52 44.1875 
Q 55.375 50.25 60.0625 53.125 
Q 64.75 56 71.09375 56 
Q 79.640625 56 84.28125 50.015625 
Q 88.921875 44.046875 88.921875 33.015625 
L 88.921875 0 
L 79.890625 0 
L 79.890625 32.71875 
Q 79.890625 40.578125 77.09375 44.375 
Q 74.3125 48.1875 68.609375 48.1875 
Q 61.625 48.1875 57.5625 43.546875 
Q 53.515625 38.921875 53.515625 30.90625 
L 53.515625 0 
L 44.484375 0 
L 44.484375 32.71875 
Q 44.484375 40.625 41.703125 44.40625 
Q 38.921875 48.1875 33.109375 48.1875 
Q 26.21875 48.1875 22.15625 43.53125 
Q 18.109375 38.875 18.109375 30.90625 
L 18.109375 0 
L 9.078125 0 
L 9.078125 54.6875 
L 18.109375 54.6875 
L 18.109375 46.1875 
Q 21.1875 51.21875 25.484375 53.609375 
Q 29.78125 56 35.6875 56 
Q 41.65625 56 45.828125 52.96875 
Q 50 49.953125 52 44.1875 
z
" id="DejaVuSans-109"/>
       <path d="M 56.203125 29.59375 
L 56.203125 25.203125 
L 14.890625 25.203125 
Q 15.484375 15.921875 20.484375 11.0625 
Q 25.484375 6.203125 34.421875 6.203125 
Q 39.59375 6.203125 44.453125 7.46875 
Q 49.3125 8.734375 54.109375 11.28125 
L 54.109375 2.78125 
Q 49.265625 0.734375 44.1875 -0.34375 
Q 39.109375 -1.421875 33.890625 -1.421875 
Q 20.796875 -1.421875 13.15625 6.1875 
Q 5.515625 13.8125 5.515625 26.8125 
Q 5.515625 40.234375 12.765625 48.109375 
Q 20.015625 56 32.328125 56 
Q 43.359375 56 49.78125 48.890625 
Q 56.203125 41.796875 56.203125 29.59375 
z
M 47.21875 32.234375 
Q 47.125 39.59375 43.09375 43.984375 
Q 39.0625 48.390625 32.421875 48.390625 
Q 24.90625 48.390625 20.390625 44.140625 
Q 15.875 39.890625 15.1875 32.171875 
z
" id="DejaVuSans-101"/>
       <path id="DejaVuSans-32"/>
       <path d="M 31 75.875 
Q 24.46875 64.65625 21.28125 53.65625 
Q 18.109375 42.671875 18.109375 31.390625 
Q 18.109375 20.125 21.3125 9.0625 
Q 24.515625 -2 31 -13.1875 
L 23.1875 -13.1875 
Q 15.875 -1.703125 12.234375 9.375 
Q 8.59375 20.453125 8.59375 31.390625 
Q 8.59375 42.28125 12.203125 53.3125 
Q 15.828125 64.359375 23.1875 75.875 
z
" id="DejaVuSans-40"/>
       <path d="M 54.890625 33.015625 
L 54.890625 0 
L 45.90625 0 
L 45.90625 32.71875 
Q 45.90625 40.484375 42.875 44.328125 
Q 39.84375 48.1875 33.796875 48.1875 
Q 26.515625 48.1875 22.3125 43.546875 
Q 18.109375 38.921875 18.109375 30.90625 
L 18.109375 0 
L 9.078125 0 
L 9.078125 54.6875 
L 18.109375 54.6875 
L 18.109375 46.1875 
Q 21.34375 51.125 25.703125 53.5625 
Q 30.078125 56 35.796875 56 
Q 45.21875 56 50.046875 50.171875 
Q 54.890625 44.34375 54.890625 33.015625 
z
" id="DejaVuSans-110"/>
       <path d="M 44.28125 53.078125 
L 44.28125 44.578125 
Q 40.484375 46.53125 36.375 47.5 
Q 32.28125 48.484375 27.875 48.484375 
Q 21.1875 48.484375 17.84375 46.4375 
Q 14.5 44.390625 14.5 40.28125 
Q 14.5 37.15625 16.890625 35.375 
Q 19.28125 33.59375 26.515625 31.984375 
L 29.59375 31.296875 
Q 39.15625 29.25 43.1875 25.515625 
Q 47.21875 21.78125 47.21875 15.09375 
Q 47.21875 7.46875 41.1875 3.015625 
Q 35.15625 -1.421875 24.609375 -1.421875 
Q 20.21875 -1.421875 15.453125 -0.5625 
Q 10.6875 0.296875 5.421875 2 
L 5.421875 11.28125 
Q 10.40625 8.6875 15.234375 7.390625 
Q 20.0625 6.109375 24.8125 6.109375 
Q 31.15625 6.109375 34.5625 8.28125 
Q 37.984375 10.453125 37.984375 14.40625 
Q 37.984375 18.0625 35.515625 20.015625 
Q 33.0625 21.96875 24.703125 23.78125 
L 21.578125 24.515625 
Q 13.234375 26.265625 9.515625 29.90625 
Q 5.8125 33.546875 5.8125 39.890625 
Q 5.8125 47.609375 11.28125 51.796875 
Q 16.75 56 26.8125 56 
Q 31.78125 56 36.171875 55.265625 
Q 40.578125 54.546875 44.28125 53.078125 
z
" id="DejaVuSans-115"/>
       <path d="M 8.015625 75.875 
L 15.828125 75.875 
Q 23.140625 64.359375 26.78125 53.3125 
Q 30.421875 42.28125 30.421875 31.390625 
Q 30.421875 20.453125 26.78125 9.375 
Q 23.140625 -1.703125 15.828125 -13.1875 
L 8.015625 -13.1875 
Q 14.5 -2 17.703125 9.0625 
Q 20.90625 20.125 20.90625 31.390625 
Q 20.90625 42.671875 17.703125 53.65625 
Q 14.5 64.65625 8.015625 75.875 
z
" id="DejaVuSans-41"/>
      </defs>
      <use xlink:href="#DejaVuSans-84"/>
      <use x="57.958984" xlink:href="#DejaVuSans-105"/>
      <use x="85.742188" xlink:href="#DejaVuSans-109"/>
      <use x="183.154297" xlink:href="#DejaVuSans-101"/>
      <use x="244.677734" xlink:href="#DejaVuSans-32"/>
      <use x="276.464844" xlink:href="#DejaVuSans-40"/>
      <use x="315.478516" xlink:href="#DejaVuSans-105"/>
      <use x="343.261719" xlink:href="#DejaVuSans-110"/>
      <use x="406.640625" xlink:href="#DejaVuSans-32"/>
      <use x="438.427734" xlink:href="#DejaVuSans-115"/>
      <use x="490.527344" xlink:href="#DejaVuSans-41"/>
     </g>
    </g>
   </g>
   <g id="matplotlib.axis_2">
    <g id="ytick_1">
     <g id="line2d_9">
      <defs>
       <path d="M 0 0 
L -3.5 0 
" id="mc5c6a5ec44" style="stroke:#000000;stroke-width:0.8;"/>
      </defs>
      <g>
       <use style="stroke:#000000;stroke-width:0.8;" x="144" xlink:href="#mc5c6a5ec44" y="423.703636"/>
      </g>
     </g>
     <g id="text_10">
      <!-- 0.0 -->
      <g transform="translate(105.19375 431.302074)scale(0.2 -0.2)">
       <defs>
        <path d="M 10.6875 12.40625 
L 21 12.40625 
L 21 0 
L 10.6875 0 
z
" id="DejaVuSans-46"/>
       </defs>
       <use xlink:href="#DejaVuSans-48"/>
       <use x="63.623047" xlink:href="#DejaVuSans-46"/>
       <use x="95.410156" xlink:href="#DejaVuSans-48"/>
      </g>
     </g>
    </g>
    <g id="ytick_2">
     <g id="line2d_10">
      <g>
       <use style="stroke:#000000;stroke-width:0.8;" x="144" xlink:href="#mc5c6a5ec44" y="372.72488"/>
      </g>
     </g>
     <g id="text_11">
      <!-- 0.2 -->
      <g transform="translate(105.19375 380.323318)scale(0.2 -0.2)">
       <use xlink:href="#DejaVuSans-48"/>
       <use x="63.623047" xlink:href="#DejaVuSans-46"/>
       <use x="95.410156" xlink:href="#DejaVuSans-50"/>
      </g>
     </g>
    </g>
    <g id="ytick_3">
     <g id="line2d_11">
      <g>
       <use style="stroke:#000000;stroke-width:0.8;" x="144" xlink:href="#mc5c6a5ec44" y="321.746124"/>
      </g>
     </g>
     <g id="text_12">
      <!-- 0.4 -->
      <g transform="translate(105.19375 329.344562)scale(0.2 -0.2)">
       <defs>
        <path d="M 37.796875 64.3125 
L 12.890625 25.390625 
L 37.796875 25.390625 
z
M 35.203125 72.90625 
L 47.609375 72.90625 
L 47.609375 25.390625 
L 58.015625 25.390625 
L 58.015625 17.1875 
L 47.609375 17.1875 
L 47.609375 0 
L 37.796875 0 
L 37.796875 17.1875 
L 4.890625 17.1875 
L 4.890625 26.703125 
z
" id="DejaVuSans-52"/>
       </defs>
       <use xlink:href="#DejaVuSans-48"/>
       <use x="63.623047" xlink:href="#DejaVuSans-46"/>
       <use x="95.410156" xlink:href="#DejaVuSans-52"/>
      </g>
     </g>
    </g>
    <g id="ytick_4">
     <g id="line2d_12">
      <g>
       <use style="stroke:#000000;stroke-width:0.8;" x="144" xlink:href="#mc5c6a5ec44" y="270.767368"/>
      </g>
     </g>
     <g id="text_13">
      <!-- 0.6 -->
      <g transform="translate(105.19375 278.365806)scale(0.2 -0.2)">
       <defs>
        <path d="M 33.015625 40.375 
Q 26.375 40.375 22.484375 35.828125 
Q 18.609375 31.296875 18.609375 23.390625 
Q 18.609375 15.53125 22.484375 10.953125 
Q 26.375 6.390625 33.015625 6.390625 
Q 39.65625 6.390625 43.53125 10.953125 
Q 47.40625 15.53125 47.40625 23.390625 
Q 47.40625 31.296875 43.53125 35.828125 
Q 39.65625 40.375 33.015625 40.375 
z
M 52.59375 71.296875 
L 52.59375 62.3125 
Q 48.875 64.0625 45.09375 64.984375 
Q 41.3125 65.921875 37.59375 65.921875 
Q 27.828125 65.921875 22.671875 59.328125 
Q 17.53125 52.734375 16.796875 39.40625 
Q 19.671875 43.65625 24.015625 45.921875 
Q 28.375 48.1875 33.59375 48.1875 
Q 44.578125 48.1875 50.953125 41.515625 
Q 57.328125 34.859375 57.328125 23.390625 
Q 57.328125 12.15625 50.6875 5.359375 
Q 44.046875 -1.421875 33.015625 -1.421875 
Q 20.359375 -1.421875 13.671875 8.265625 
Q 6.984375 17.96875 6.984375 36.375 
Q 6.984375 53.65625 15.1875 63.9375 
Q 23.390625 74.21875 37.203125 74.21875 
Q 40.921875 74.21875 44.703125 73.484375 
Q 48.484375 72.75 52.59375 71.296875 
z
" id="DejaVuSans-54"/>
       </defs>
       <use xlink:href="#DejaVuSans-48"/>
       <use x="63.623047" xlink:href="#DejaVuSans-46"/>
       <use x="95.410156" xlink:href="#DejaVuSans-54"/>
      </g>
     </g>
    </g>
    <g id="ytick_5">
     <g id="line2d_13">
      <g>
       <use style="stroke:#000000;stroke-width:0.8;" x="144" xlink:href="#mc5c6a5ec44" y="219.788612"/>
      </g>
     </g>
     <g id="text_14">
      <!-- 0.8 -->
      <g transform="translate(105.19375 227.38705)scale(0.2 -0.2)">
       <defs>
        <path d="M 31.78125 34.625 
Q 24.75 34.625 20.71875 30.859375 
Q 16.703125 27.09375 16.703125 20.515625 
Q 16.703125 13.921875 20.71875 10.15625 
Q 24.75 6.390625 31.78125 6.390625 
Q 38.8125 6.390625 42.859375 10.171875 
Q 46.921875 13.96875 46.921875 20.515625 
Q 46.921875 27.09375 42.890625 30.859375 
Q 38.875 34.625 31.78125 34.625 
z
M 21.921875 38.8125 
Q 15.578125 40.375 12.03125 44.71875 
Q 8.5 49.078125 8.5 55.328125 
Q 8.5 64.0625 14.71875 69.140625 
Q 20.953125 74.21875 31.78125 74.21875 
Q 42.671875 74.21875 48.875 69.140625 
Q 55.078125 64.0625 55.078125 55.328125 
Q 55.078125 49.078125 51.53125 44.71875 
Q 48 40.375 41.703125 38.8125 
Q 48.828125 37.15625 52.796875 32.3125 
Q 56.78125 27.484375 56.78125 20.515625 
Q 56.78125 9.90625 50.3125 4.234375 
Q 43.84375 -1.421875 31.78125 -1.421875 
Q 19.734375 -1.421875 13.25 4.234375 
Q 6.78125 9.90625 6.78125 20.515625 
Q 6.78125 27.484375 10.78125 32.3125 
Q 14.796875 37.15625 21.921875 38.8125 
z
M 18.3125 54.390625 
Q 18.3125 48.734375 21.84375 45.5625 
Q 25.390625 42.390625 31.78125 42.390625 
Q 38.140625 42.390625 41.71875 45.5625 
Q 45.3125 48.734375 45.3125 54.390625 
Q 45.3125 60.0625 41.71875 63.234375 
Q 38.140625 66.40625 31.78125 66.40625 
Q 25.390625 66.40625 21.84375 63.234375 
Q 18.3125 60.0625 18.3125 54.390625 
z
" id="DejaVuSans-56"/>
       </defs>
       <use xlink:href="#DejaVuSans-48"/>
       <use x="63.623047" xlink:href="#DejaVuSans-46"/>
       <use x="95.410156" xlink:href="#DejaVuSans-56"/>
      </g>
     </g>
    </g>
    <g id="ytick_6">
     <g id="line2d_14">
      <g>
       <use style="stroke:#000000;stroke-width:0.8;" x="144" xlink:href="#mc5c6a5ec44" y="168.809856"/>
      </g>
     </g>
     <g id="text_15">
      <!-- 1.0 -->
      <g transform="translate(105.19375 176.408294)scale(0.2 -0.2)">
       <use xlink:href="#DejaVuSans-49"/>
       <use x="63.623047" xlink:href="#DejaVuSans-46"/>
       <use x="95.410156" xlink:href="#DejaVuSans-48"/>
      </g>
     </g>
    </g>
    <g id="ytick_7">
     <g id="line2d_15">
      <g>
       <use style="stroke:#000000;stroke-width:0.8;" x="144" xlink:href="#mc5c6a5ec44" y="117.8311"/>
      </g>
     </g>
     <g id="text_16">
      <!-- 1.2 -->
      <g transform="translate(105.19375 125.429538)scale(0.2 -0.2)">
       <use xlink:href="#DejaVuSans-49"/>
       <use x="63.623047" xlink:href="#DejaVuSans-46"/>
       <use x="95.410156" xlink:href="#DejaVuSans-50"/>
      </g>
     </g>
    </g>
    <g id="ytick_8">
     <g id="line2d_16">
      <g>
       <use style="stroke:#000000;stroke-width:0.8;" x="144" xlink:href="#mc5c6a5ec44" y="66.852344"/>
      </g>
     </g>
     <g id="text_17">
      <!-- 1.4 -->
      <g transform="translate(105.19375 74.450782)scale(0.2 -0.2)">
       <use xlink:href="#DejaVuSans-49"/>
       <use x="63.623047" xlink:href="#DejaVuSans-46"/>
       <use x="95.410156" xlink:href="#DejaVuSans-52"/>
      </g>
     </g>
    </g>
    <g id="text_18">
     <!-- Mean Activity -->
     <g transform="translate(97.034375 318.563438)rotate(-90)scale(0.2 -0.2)">
      <defs>
       <path d="M 9.8125 72.90625 
L 24.515625 72.90625 
L 43.109375 23.296875 
L 61.8125 72.90625 
L 76.515625 72.90625 
L 76.515625 0 
L 66.890625 0 
L 66.890625 64.015625 
L 48.09375 14.015625 
L 38.1875 14.015625 
L 19.390625 64.015625 
L 19.390625 0 
L 9.8125 0 
z
" id="DejaVuSans-77"/>
       <path d="M 34.28125 27.484375 
Q 23.390625 27.484375 19.1875 25 
Q 14.984375 22.515625 14.984375 16.5 
Q 14.984375 11.71875 18.140625 8.90625 
Q 21.296875 6.109375 26.703125 6.109375 
Q 34.1875 6.109375 38.703125 11.40625 
Q 43.21875 16.703125 43.21875 25.484375 
L 43.21875 27.484375 
z
M 52.203125 31.203125 
L 52.203125 0 
L 43.21875 0 
L 43.21875 8.296875 
Q 40.140625 3.328125 35.546875 0.953125 
Q 30.953125 -1.421875 24.3125 -1.421875 
Q 15.921875 -1.421875 10.953125 3.296875 
Q 6 8.015625 6 15.921875 
Q 6 25.140625 12.171875 29.828125 
Q 18.359375 34.515625 30.609375 34.515625 
L 43.21875 34.515625 
L 43.21875 35.40625 
Q 43.21875 41.609375 39.140625 45 
Q 35.0625 48.390625 27.6875 48.390625 
Q 23 48.390625 18.546875 47.265625 
Q 14.109375 46.140625 10.015625 43.890625 
L 10.015625 52.203125 
Q 14.9375 54.109375 19.578125 55.046875 
Q 24.21875 56 28.609375 56 
Q 40.484375 56 46.34375 49.84375 
Q 52.203125 43.703125 52.203125 31.203125 
z
" id="DejaVuSans-97"/>
       <path d="M 34.1875 63.1875 
L 20.796875 26.90625 
L 47.609375 26.90625 
z
M 28.609375 72.90625 
L 39.796875 72.90625 
L 67.578125 0 
L 57.328125 0 
L 50.6875 18.703125 
L 17.828125 18.703125 
L 11.1875 0 
L 0.78125 0 
z
" id="DejaVuSans-65"/>
       <path d="M 48.78125 52.59375 
L 48.78125 44.1875 
Q 44.96875 46.296875 41.140625 47.34375 
Q 37.3125 48.390625 33.40625 48.390625 
Q 24.65625 48.390625 19.8125 42.84375 
Q 14.984375 37.3125 14.984375 27.296875 
Q 14.984375 17.28125 19.8125 11.734375 
Q 24.65625 6.203125 33.40625 6.203125 
Q 37.3125 6.203125 41.140625 7.25 
Q 44.96875 8.296875 48.78125 10.40625 
L 48.78125 2.09375 
Q 45.015625 0.34375 40.984375 -0.53125 
Q 36.96875 -1.421875 32.421875 -1.421875 
Q 20.0625 -1.421875 12.78125 6.34375 
Q 5.515625 14.109375 5.515625 27.296875 
Q 5.515625 40.671875 12.859375 48.328125 
Q 20.21875 56 33.015625 56 
Q 37.15625 56 41.109375 55.140625 
Q 45.0625 54.296875 48.78125 52.59375 
z
" id="DejaVuSans-99"/>
       <path d="M 18.3125 70.21875 
L 18.3125 54.6875 
L 36.8125 54.6875 
L 36.8125 47.703125 
L 18.3125 47.703125 
L 18.3125 18.015625 
Q 18.3125 11.328125 20.140625 9.421875 
Q 21.96875 7.515625 27.59375 7.515625 
L 36.8125 7.515625 
L 36.8125 0 
L 27.59375 0 
Q 17.1875 0 13.234375 3.875 
Q 9.28125 7.765625 9.28125 18.015625 
L 9.28125 47.703125 
L 2.6875 47.703125 
L 2.6875 54.6875 
L 9.28125 54.6875 
L 9.28125 70.21875 
z
" id="DejaVuSans-116"/>
       <path d="M 2.984375 54.6875 
L 12.5 54.6875 
L 29.59375 8.796875 
L 46.6875 54.6875 
L 56.203125 54.6875 
L 35.6875 0 
L 23.484375 0 
z
" id="DejaVuSans-118"/>
       <path d="M 32.171875 -5.078125 
Q 28.375 -14.84375 24.75 -17.8125 
Q 21.140625 -20.796875 15.09375 -20.796875 
L 7.90625 -20.796875 
L 7.90625 -13.28125 
L 13.1875 -13.28125 
Q 16.890625 -13.28125 18.9375 -11.515625 
Q 21 -9.765625 23.484375 -3.21875 
L 25.09375 0.875 
L 2.984375 54.6875 
L 12.5 54.6875 
L 29.59375 11.921875 
L 46.6875 54.6875 
L 56.203125 54.6875 
z
" id="DejaVuSans-121"/>
      </defs>
      <use xlink:href="#DejaVuSans-77"/>
      <use x="86.279297" xlink:href="#DejaVuSans-101"/>
      <use x="147.802734" xlink:href="#DejaVuSans-97"/>
      <use x="209.082031" xlink:href="#DejaVuSans-110"/>
      <use x="272.460938" xlink:href="#DejaVuSans-32"/>
      <use x="304.248047" xlink:href="#DejaVuSans-65"/>
      <use x="370.90625" xlink:href="#DejaVuSans-99"/>
      <use x="425.886719" xlink:href="#DejaVuSans-116"/>
      <use x="465.095703" xlink:href="#DejaVuSans-105"/>
      <use x="492.878906" xlink:href="#DejaVuSans-118"/>
      <use x="552.058594" xlink:href="#DejaVuSans-105"/>
      <use x="579.841797" xlink:href="#DejaVuSans-116"/>
      <use x="619.050781" xlink:href="#DejaVuSans-121"/>
     </g>
    </g>
   </g>
   <g id="line2d_17">
    <path clip-path="url(#p20c87e15a4)" d="M 144 423.703636 
L 155.478857 423.703636 
L 158.029714 200.671579 
L 159.305143 312.187608 
L 160.580571 312.187608 
L 161.856 200.671579 
L 163.131429 312.187608 
L 165.682286 312.187608 
L 166.957714 296.256746 
L 168.233143 248.464163 
L 169.508571 184.740718 
L 170.784 264.395024 
L 173.334857 264.395024 
L 174.610286 280.325885 
L 177.161143 280.325885 
L 178.436571 184.740718 
L 179.712 248.464163 
L 180.987429 264.395024 
L 182.262857 200.671579 
L 183.538286 200.671579 
L 184.813714 296.256746 
L 186.089143 280.325885 
L 187.364571 248.464163 
L 188.64 296.256746 
L 192.466286 296.256746 
L 193.741714 264.395024 
L 195.017143 248.464163 
L 196.292571 280.325885 
L 197.568 264.395024 
L 198.843429 296.256746 
L 201.394286 296.256746 
L 202.669714 264.395024 
L 206.496 264.395024 
L 207.771429 248.464163 
L 210.322286 344.04933 
L 211.597714 359.980191 
L 212.873143 359.980191 
L 214.148571 344.04933 
L 215.424 375.911053 
L 216.699429 359.980191 
L 217.974857 359.980191 
L 219.250286 344.04933 
L 220.525714 359.980191 
L 221.801143 344.04933 
L 225.627429 344.04933 
L 226.902857 359.980191 
L 230.729143 359.980191 
L 232.004571 296.256746 
L 233.28 296.256746 
L 234.555429 328.118469 
L 237.106286 328.118469 
L 238.381714 375.911053 
L 239.657143 375.911053 
L 240.932571 344.04933 
L 243.483429 375.911053 
L 248.585143 375.911053 
L 249.860571 328.118469 
L 251.136 375.911053 
L 257.513143 375.911053 
L 260.064 344.04933 
L 261.339429 375.911053 
L 266.441143 375.911053 
L 268.992 344.04933 
L 270.267429 375.911053 
L 275.369143 375.911053 
L 277.92 344.04933 
L 279.195429 375.911053 
L 281.746286 375.911053 
L 283.021714 344.04933 
L 284.297143 359.980191 
L 286.848 359.980191 
L 288.123429 375.911053 
L 291.949714 375.911053 
L 293.225143 359.980191 
L 294.500571 375.911053 
L 295.776 344.04933 
L 297.051429 375.911053 
L 300.877714 375.911053 
L 302.153143 359.980191 
L 303.428571 375.911053 
L 304.704 359.980191 
L 305.979429 359.980191 
L 307.254857 375.911053 
L 308.530286 398.214258 
L 309.805714 423.703636 
L 334.038857 423.703636 
L 335.314286 264.395024 
L 336.589714 121.017273 
L 337.865143 264.395024 
L 339.140571 248.464163 
L 340.416 121.017273 
L 341.691429 264.395024 
L 344.242286 264.395024 
L 345.517714 248.464163 
L 346.793143 264.395024 
L 348.068571 136.948134 
L 349.344 280.325885 
L 350.619429 280.325885 
L 351.894857 248.464163 
L 353.170286 264.395024 
L 354.445714 232.533301 
L 355.721143 264.395024 
L 356.996571 168.809856 
L 358.272 232.533301 
L 359.547429 248.464163 
L 360.822857 248.464163 
L 362.098286 264.395024 
L 363.373714 296.256746 
L 364.649143 280.325885 
L 365.924571 280.325885 
L 367.2 264.395024 
L 369.750857 296.256746 
L 371.026286 296.256746 
L 372.301714 280.325885 
L 373.577143 248.464163 
L 374.852571 280.325885 
L 376.128 248.464163 
L 377.403429 296.256746 
L 379.954286 296.256746 
L 381.229714 312.187608 
L 382.505143 264.395024 
L 383.780571 296.256746 
L 385.056 264.395024 
L 386.331429 258.022679 
L 387.606857 270.767368 
L 388.882286 296.256746 
L 390.157714 264.395024 
L 391.433143 280.325885 
L 393.984 280.325885 
L 395.259429 248.464163 
L 396.534857 296.256746 
L 397.810286 296.256746 
L 400.361143 264.395024 
L 401.636571 296.256746 
L 402.912 264.395024 
L 404.187429 264.395024 
L 405.462857 312.187608 
L 408.013714 312.187608 
L 409.289143 264.395024 
L 410.564571 280.325885 
L 411.84 248.464163 
L 413.115429 312.187608 
L 414.390857 359.980191 
L 416.941714 359.980191 
L 418.217143 344.04933 
L 422.043429 344.04933 
L 423.318857 359.980191 
L 425.869714 359.980191 
L 427.145143 344.04933 
L 428.420571 344.04933 
L 429.696 359.980191 
L 430.971429 328.118469 
L 432.246857 359.980191 
L 434.797714 359.980191 
L 436.073143 312.187608 
L 437.348571 328.118469 
L 438.624 328.118469 
L 439.899429 375.911053 
L 446.276571 375.911053 
L 447.552 328.118469 
L 448.827429 375.911053 
L 455.204571 375.911053 
L 456.48 328.118469 
L 457.755429 375.911053 
L 460.306286 375.911053 
L 461.581714 356.794019 
L 462.857143 315.37378 
L 464.132571 328.118469 
L 465.408 344.04933 
L 466.683429 344.04933 
L 467.958857 359.980191 
L 473.060571 359.980191 
L 474.336 312.187608 
L 475.611429 344.04933 
L 476.886857 359.980191 
L 481.988571 359.980191 
L 483.264 324.932297 
L 484.539429 331.304641 
L 485.814857 359.980191 
L 487.090286 420.517464 
L 488.365714 423.703636 
L 512.598857 423.703636 
L 515.149714 391.841914 
L 516.425143 407.772775 
L 517.700571 407.772775 
L 518.976 391.841914 
L 521.526857 423.703636 
L 538.107429 423.703636 
L 540.658286 391.841914 
L 541.933714 407.772775 
L 543.209143 375.911053 
L 544.484571 328.118469 
L 545.76 359.980191 
L 547.035429 344.04933 
L 550.861714 344.04933 
L 552.137143 359.980191 
L 553.412571 344.04933 
L 554.688 344.04933 
L 555.963429 359.980191 
L 557.238857 347.235502 
L 558.514286 356.794019 
L 559.789714 344.04933 
L 561.065143 359.980191 
L 562.340571 344.04933 
L 563.616 344.04933 
L 564.891429 280.325885 
L 566.166857 248.464163 
L 567.442286 267.581196 
L 568.717714 229.347129 
L 569.993143 184.740718 
L 575.094857 248.464163 
L 576.370286 232.533301 
L 577.645714 200.671579 
L 578.921143 248.464163 
L 580.196571 248.464163 
L 581.472 232.533301 
L 582.747429 264.395024 
L 584.022857 248.464163 
L 585.298286 235.719474 
L 586.573714 197.485407 
L 587.849143 264.395024 
L 590.4 136.948134 
L 591.675429 216.60244 
L 592.950857 232.533301 
L 595.501714 213.416268 
L 596.777143 213.416268 
L 598.052571 232.533301 
L 599.328 216.60244 
L 600.603429 232.533301 
L 601.878857 232.533301 
L 603.154286 248.464163 
L 604.429714 216.60244 
L 605.705143 216.60244 
L 606.980571 264.395024 
L 608.256 216.60244 
L 609.531429 248.464163 
L 610.806857 248.464163 
L 612.082286 264.395024 
L 615.908571 168.809856 
L 617.184 280.325885 
L 618.459429 232.533301 
L 619.734857 216.60244 
L 621.010286 232.533301 
L 622.285714 232.533301 
L 623.561143 168.809856 
L 624.836571 200.671579 
L 626.112 248.464163 
L 627.387429 232.533301 
L 628.662857 248.464163 
L 631.213714 216.60244 
L 632.489143 194.299234 
L 633.764571 191.113062 
L 635.04 248.464163 
L 636.315429 232.533301 
L 637.590857 248.464163 
L 638.866286 232.533301 
L 640.141714 136.948134 
L 641.417143 140.134306 
L 642.692571 229.347129 
L 643.968 264.395024 
L 645.243429 264.395024 
L 646.518857 248.464163 
L 647.794286 248.464163 
L 649.069714 200.671579 
L 650.345143 216.60244 
L 651.620571 248.464163 
L 652.896 264.395024 
L 654.171429 264.395024 
L 655.446857 248.464163 
L 656.722286 264.395024 
L 657.997714 200.671579 
L 659.273143 168.809856 
L 660.548571 200.671579 
L 661.824 248.464163 
L 663.099429 248.464163 
L 664.374857 232.533301 
L 665.650286 264.395024 
L 666.925714 423.703636 
L 691.158857 423.703636 
L 693.709714 359.980191 
L 694.985143 391.841914 
L 696.260571 391.841914 
L 697.536 359.980191 
L 698.811429 407.772775 
L 703.913143 407.772775 
L 705.188571 391.841914 
L 706.464 407.772775 
L 712.841143 407.772775 
L 714.116571 391.841914 
L 715.392 407.772775 
L 716.667429 407.772775 
L 717.942857 344.04933 
L 719.218286 264.395024 
L 720.493714 280.325885 
L 721.769143 248.464163 
L 723.044571 248.464163 
L 724.32 296.256746 
L 725.595429 264.395024 
L 726.870857 296.256746 
L 728.146286 264.395024 
L 729.421714 264.395024 
L 731.972571 296.256746 
L 733.248 264.395024 
L 735.798857 296.256746 
L 737.074286 264.395024 
L 738.349714 264.395024 
L 740.900571 296.256746 
L 742.176 264.395024 
L 743.451429 200.671579 
L 744.726857 232.533301 
L 746.002286 312.187608 
L 747.277714 312.187608 
L 748.553143 328.118469 
L 749.828571 328.118469 
L 751.104 312.187608 
L 754.930286 312.187608 
L 756.205714 296.256746 
L 757.481143 312.187608 
L 758.756571 280.325885 
L 760.032 264.395024 
L 761.307429 280.325885 
L 762.582857 264.395024 
L 763.858286 280.325885 
L 765.133714 280.325885 
L 766.409143 264.395024 
L 767.684571 264.395024 
L 768.96 248.464163 
L 770.235429 248.464163 
L 771.510857 264.395024 
L 772.786286 184.740718 
L 774.061714 232.533301 
L 775.337143 248.464163 
L 776.612571 200.671579 
L 777.888 216.60244 
L 779.163429 200.671579 
L 780.438857 232.533301 
L 782.989714 232.533301 
L 784.265143 248.464163 
L 785.540571 184.740718 
L 786.816 216.60244 
L 788.091429 216.60244 
L 790.642286 248.464163 
L 791.917714 216.60244 
L 793.193143 248.464163 
L 794.468571 136.948134 
L 795.744 200.671579 
L 797.019429 232.533301 
L 798.294857 232.533301 
L 799.570286 248.464163 
L 800.845714 216.60244 
L 802.121143 248.464163 
L 803.396571 232.533301 
L 804.672 184.740718 
L 805.947429 200.671579 
L 807.222857 232.533301 
L 808.498286 248.464163 
L 809.773714 232.533301 
L 812.324571 232.533301 
L 813.6 200.671579 
L 814.875429 184.740718 
L 816.150857 232.533301 
L 817.426286 248.464163 
L 818.701714 184.740718 
L 819.977143 152.878995 
L 821.252571 232.533301 
L 825.078857 232.533301 
L 826.354286 264.395024 
L 827.629714 232.533301 
L 828.905143 248.464163 
L 830.180571 248.464163 
L 831.456 232.533301 
L 832.731429 248.464163 
L 834.006857 232.533301 
L 836.557714 232.533301 
L 837.833143 216.60244 
L 840.384 216.60244 
L 841.659429 232.533301 
L 842.934857 232.533301 
L 844.210286 312.187608 
L 845.485714 423.703636 
L 869.718857 423.703636 
L 872.269714 187.92689 
L 873.545143 296.256746 
L 874.820571 264.395024 
L 876.096 200.671579 
L 877.371429 296.256746 
L 879.922286 296.256746 
L 881.197714 264.395024 
L 882.473143 296.256746 
L 883.748571 200.671579 
L 885.024 296.256746 
L 888.850286 296.256746 
L 890.125714 264.395024 
L 891.401143 296.256746 
L 892.676571 216.60244 
L 893.952 280.325885 
L 895.227429 296.256746 
L 896.502857 216.60244 
L 897.778286 232.533301 
L 899.053714 280.325885 
L 900.329143 296.256746 
L 901.604571 184.740718 
L 902.88 264.395024 
L 904.155429 248.464163 
L 906.706286 248.464163 
L 907.981714 216.60244 
L 909.257143 200.671579 
L 911.808 200.671579 
L 913.083429 248.464163 
L 914.358857 232.533301 
L 915.634286 248.464163 
L 916.909714 216.60244 
L 918.185143 200.671579 
L 919.460571 216.60244 
L 920.736 200.671579 
L 922.011429 200.671579 
L 923.286857 216.60244 
L 924.562286 264.395024 
L 925.837714 232.533301 
L 928.388571 264.395024 
L 929.664 200.671579 
L 930.939429 248.464163 
L 932.214857 248.464163 
L 933.490286 264.395024 
L 934.765714 216.60244 
L 936.041143 248.464163 
L 937.316571 216.60244 
L 938.592 216.60244 
L 939.867429 200.671579 
L 941.142857 216.60244 
L 942.418286 248.464163 
L 943.693714 200.671579 
L 944.969143 248.464163 
L 946.244571 184.740718 
L 947.52 168.809856 
L 948.795429 200.671579 
L 950.070857 264.395024 
L 952.621714 264.395024 
L 953.897143 216.60244 
L 955.172571 248.464163 
L 956.448 216.60244 
L 957.723429 248.464163 
L 958.998857 232.533301 
L 960.274286 232.533301 
L 961.549714 248.464163 
L 962.825143 248.464163 
L 964.100571 168.809856 
L 965.376 216.60244 
L 967.926857 216.60244 
L 969.202286 248.464163 
L 970.477714 248.464163 
L 971.753143 168.809856 
L 973.028571 184.740718 
L 974.304 248.464163 
L 975.579429 264.395024 
L 976.854857 264.395024 
L 978.130286 280.325885 
L 979.405714 280.325885 
L 980.681143 232.533301 
L 983.232 264.395024 
L 984.507429 248.464163 
L 985.782857 248.464163 
L 987.058286 232.533301 
L 988.333714 248.464163 
L 989.609143 200.671579 
L 990.884571 200.671579 
L 992.16 232.533301 
L 993.435429 216.60244 
L 995.986286 216.60244 
L 997.261714 184.740718 
L 998.537143 105.086411 
L 999.812571 232.533301 
L 1001.088 248.464163 
L 1002.363429 248.464163 
L 1004.914286 216.60244 
L 1006.189714 264.395024 
L 1007.465143 232.533301 
L 1008.740571 248.464163 
L 1010.016 248.464163 
L 1011.291429 264.395024 
L 1012.566857 248.464163 
L 1013.842286 200.671579 
L 1015.117714 216.60244 
L 1017.668571 216.60244 
L 1020.219429 248.464163 
L 1021.494857 232.533301 
L 1022.770286 280.325885 
L 1024.045714 423.703636 
L 1035.524571 423.703636 
L 1035.524571 423.703636 
" style="fill:none;stroke:#000004;stroke-linecap:square;"/>
   </g>
   <g id="line2d_18">
    <path clip-path="url(#p20c87e15a4)" d="M 144 423.703636 
L 155.478857 423.703636 
L 156.754286 350.876842 
L 158.029714 296.256746 
L 159.305143 350.876842 
L 160.580571 332.670144 
L 161.856 296.256746 
L 163.131429 350.876842 
L 165.682286 350.876842 
L 166.957714 332.670144 
L 168.233143 369.083541 
L 169.508571 332.670144 
L 170.784 369.083541 
L 174.610286 369.083541 
L 175.885714 350.876842 
L 177.161143 369.083541 
L 178.436571 332.670144 
L 179.712 369.083541 
L 180.987429 369.083541 
L 182.262857 332.670144 
L 183.538286 332.670144 
L 184.813714 369.083541 
L 186.089143 369.083541 
L 187.364571 332.670144 
L 188.64 369.083541 
L 192.466286 369.083541 
L 193.741714 332.670144 
L 195.017143 369.083541 
L 196.292571 350.876842 
L 197.568 369.083541 
L 201.394286 369.083541 
L 202.669714 332.670144 
L 203.945143 369.083541 
L 205.220571 369.083541 
L 206.496 350.876842 
L 207.771429 296.256746 
L 209.046857 278.050048 
L 210.322286 314.463445 
L 212.873143 205.223254 
L 214.148571 278.050048 
L 215.424 241.636651 
L 216.699429 241.636651 
L 217.974857 296.256746 
L 220.525714 259.843349 
L 221.801143 296.256746 
L 223.076571 296.256746 
L 224.352 259.843349 
L 225.627429 259.843349 
L 226.902857 296.256746 
L 229.453714 259.843349 
L 230.729143 296.256746 
L 232.004571 259.843349 
L 233.28 241.636651 
L 235.830857 314.463445 
L 237.106286 223.429952 
L 238.381714 241.636651 
L 239.657143 205.223254 
L 240.932571 241.636651 
L 242.208 223.429952 
L 244.758857 223.429952 
L 246.034286 259.843349 
L 247.309714 241.636651 
L 248.585143 241.636651 
L 251.136 205.223254 
L 252.411429 259.843349 
L 253.686857 223.429952 
L 254.962286 259.843349 
L 256.237714 241.636651 
L 257.513143 168.809856 
L 258.788571 168.809856 
L 260.064 241.636651 
L 263.890286 241.636651 
L 265.165714 245.27799 
L 266.441143 237.995311 
L 267.716571 187.016555 
L 268.992 241.636651 
L 271.542857 241.636651 
L 272.818286 259.843349 
L 274.093714 259.843349 
L 275.369143 241.636651 
L 276.644571 187.016555 
L 277.92 223.429952 
L 279.195429 241.636651 
L 280.470857 223.429952 
L 281.746286 259.843349 
L 284.297143 150.603158 
L 285.572571 241.636651 
L 286.848 223.429952 
L 288.123429 259.843349 
L 289.398857 223.429952 
L 290.674286 241.636651 
L 291.949714 241.636651 
L 293.225143 223.429952 
L 294.500571 241.636651 
L 295.776 223.429952 
L 297.051429 259.843349 
L 299.602286 223.429952 
L 300.877714 241.636651 
L 302.153143 223.429952 
L 303.428571 241.636651 
L 304.704 223.429952 
L 305.979429 259.843349 
L 307.254857 259.843349 
L 308.530286 296.256746 
L 309.805714 423.703636 
L 334.038857 423.703636 
L 336.589714 387.290239 
L 337.865143 405.496938 
L 339.140571 405.496938 
L 340.416 387.290239 
L 341.691429 405.496938 
L 346.793143 405.496938 
L 348.068571 369.083541 
L 349.344 369.083541 
L 350.619429 350.876842 
L 351.894857 350.876842 
L 353.170286 387.290239 
L 354.445714 387.290239 
L 355.721143 369.083541 
L 356.996571 387.290239 
L 358.272 369.083541 
L 359.547429 387.290239 
L 362.098286 278.050048 
L 363.373714 318.104785 
L 364.649143 329.028804 
L 365.924571 332.670144 
L 367.2 332.670144 
L 368.475429 350.876842 
L 369.750857 350.876842 
L 371.026286 332.670144 
L 374.852571 332.670144 
L 376.128 350.876842 
L 378.678857 350.876842 
L 382.505143 296.256746 
L 383.780571 332.670144 
L 385.056 296.256746 
L 387.606857 296.256746 
L 388.882286 350.876842 
L 390.157714 350.876842 
L 391.433143 314.463445 
L 392.708571 350.876842 
L 393.984 350.876842 
L 395.259429 332.670144 
L 396.534857 350.876842 
L 397.810286 332.670144 
L 399.085714 350.876842 
L 400.361143 314.463445 
L 401.636571 350.876842 
L 402.912 350.876842 
L 404.187429 314.463445 
L 405.462857 332.670144 
L 406.738286 314.463445 
L 410.564571 314.463445 
L 411.84 278.050048 
L 413.115429 259.843349 
L 414.390857 267.126029 
L 415.666286 197.940574 
L 416.941714 278.050048 
L 418.217143 278.050048 
L 419.492571 205.223254 
L 420.768 278.050048 
L 422.043429 241.636651 
L 423.318857 241.636651 
L 424.594286 278.050048 
L 425.869714 278.050048 
L 427.145143 223.429952 
L 428.420571 259.843349 
L 429.696 278.050048 
L 430.971429 256.20201 
L 432.246857 245.27799 
L 433.522286 259.843349 
L 434.797714 278.050048 
L 436.073143 205.223254 
L 437.348571 205.223254 
L 438.624 278.050048 
L 439.899429 223.429952 
L 442.450286 223.429952 
L 443.725714 259.843349 
L 445.001143 205.223254 
L 446.276571 241.636651 
L 447.552 259.843349 
L 448.827429 223.429952 
L 450.102857 241.636651 
L 451.378286 241.636651 
L 452.653714 205.223254 
L 453.929143 259.843349 
L 455.204571 205.223254 
L 456.48 259.843349 
L 457.755429 259.843349 
L 459.030857 205.223254 
L 460.306286 241.636651 
L 461.581714 205.223254 
L 462.857143 205.223254 
L 464.132571 259.843349 
L 465.408 259.843349 
L 466.683429 278.050048 
L 467.958857 241.636651 
L 469.234286 259.843349 
L 470.509714 259.843349 
L 471.785143 241.636651 
L 473.060571 241.636651 
L 474.336 278.050048 
L 475.611429 278.050048 
L 478.162286 241.636651 
L 480.713143 241.636651 
L 481.988571 259.843349 
L 483.264 259.843349 
L 484.539429 278.050048 
L 485.814857 259.843349 
L 487.090286 314.463445 
L 488.365714 423.703636 
L 512.598857 423.703636 
L 515.149714 132.396459 
L 516.425143 259.843349 
L 518.976 150.603158 
L 520.251429 259.843349 
L 521.526857 223.429952 
L 522.802286 223.429952 
L 524.077714 150.603158 
L 525.353143 187.016555 
L 526.628571 132.396459 
L 527.904 205.223254 
L 529.179429 187.016555 
L 530.454857 223.429952 
L 531.730286 223.429952 
L 533.005714 187.016555 
L 534.281143 205.223254 
L 535.556571 150.603158 
L 536.832 150.603158 
L 538.107429 223.429952 
L 539.382857 168.809856 
L 540.658286 187.016555 
L 543.209143 259.843349 
L 544.484571 274.408708 
L 545.76 281.691388 
L 547.035429 259.843349 
L 548.310857 296.256746 
L 549.586286 278.050048 
L 550.861714 296.256746 
L 552.137143 223.429952 
L 553.412571 296.256746 
L 554.688 278.050048 
L 555.963429 278.050048 
L 557.238857 296.256746 
L 558.514286 278.050048 
L 559.789714 296.256746 
L 561.065143 259.843349 
L 562.340571 259.843349 
L 563.616 278.050048 
L 564.891429 314.463445 
L 566.166857 321.746124 
L 567.442286 343.594163 
L 568.717714 387.290239 
L 569.993143 405.496938 
L 573.819429 405.496938 
L 575.094857 369.083541 
L 576.370286 369.083541 
L 577.645714 387.290239 
L 578.921143 369.083541 
L 580.196571 387.290239 
L 584.022857 387.290239 
L 585.298286 369.083541 
L 586.573714 369.083541 
L 589.124571 405.496938 
L 594.226286 405.496938 
L 595.501714 387.290239 
L 596.777143 405.496938 
L 603.154286 405.496938 
L 604.429714 369.083541 
L 605.705143 369.083541 
L 606.980571 387.290239 
L 608.256 387.290239 
L 609.531429 369.083541 
L 610.806857 387.290239 
L 612.082286 387.290239 
L 613.357714 369.083541 
L 614.633143 369.083541 
L 617.184 332.670144 
L 618.459429 387.290239 
L 619.734857 369.083541 
L 621.010286 387.290239 
L 622.285714 369.083541 
L 623.561143 369.083541 
L 624.836571 387.290239 
L 629.938286 387.290239 
L 631.213714 350.876842 
L 632.489143 387.290239 
L 638.866286 387.290239 
L 640.141714 350.876842 
L 641.417143 350.876842 
L 642.692571 387.290239 
L 645.243429 350.876842 
L 646.518857 369.083541 
L 647.794286 369.083541 
L 649.069714 314.463445 
L 650.345143 369.083541 
L 656.722286 369.083541 
L 657.997714 350.876842 
L 659.273143 387.290239 
L 665.650286 387.290239 
L 666.925714 423.703636 
L 691.158857 423.703636 
L 693.709714 95.983062 
L 694.985143 259.843349 
L 696.260571 259.843349 
L 697.536 95.983062 
L 698.811429 241.636651 
L 700.086857 241.636651 
L 701.362286 223.429952 
L 702.637714 241.636651 
L 703.913143 241.636651 
L 705.188571 77.776364 
L 706.464 241.636651 
L 707.739429 223.429952 
L 709.014857 241.636651 
L 712.841143 241.636651 
L 714.116571 95.983062 
L 715.392 223.429952 
L 717.942857 223.429952 
L 719.218286 259.843349 
L 720.493714 314.463445 
L 721.769143 332.670144 
L 723.044571 296.256746 
L 724.32 332.670144 
L 729.421714 332.670144 
L 730.697143 296.256746 
L 731.972571 296.256746 
L 734.523429 332.670144 
L 738.349714 332.670144 
L 740.900571 296.256746 
L 742.176 296.256746 
L 743.451429 278.050048 
L 744.726857 332.670144 
L 746.002286 332.670144 
L 747.277714 307.180766 
L 748.553143 285.332727 
L 749.828571 296.256746 
L 751.104 278.050048 
L 752.379429 296.256746 
L 753.654857 296.256746 
L 754.930286 314.463445 
L 756.205714 314.463445 
L 757.481143 332.670144 
L 760.032 296.256746 
L 761.307429 296.256746 
L 762.582857 332.670144 
L 766.409143 332.670144 
L 767.684571 278.050048 
L 768.96 259.843349 
L 771.510857 369.083541 
L 772.786286 387.290239 
L 775.337143 387.290239 
L 776.612571 369.083541 
L 777.888 387.290239 
L 779.163429 387.290239 
L 780.438857 369.083541 
L 781.714286 387.290239 
L 785.540571 387.290239 
L 786.816 369.083541 
L 788.091429 387.290239 
L 789.366857 369.083541 
L 790.642286 387.290239 
L 794.468571 387.290239 
L 795.744 369.083541 
L 797.019429 387.290239 
L 798.294857 369.083541 
L 799.570286 387.290239 
L 803.396571 387.290239 
L 804.672 369.083541 
L 805.947429 387.290239 
L 807.222857 369.083541 
L 808.498286 387.290239 
L 812.324571 387.290239 
L 813.6 369.083541 
L 814.875429 387.290239 
L 816.150857 369.083541 
L 817.426286 387.290239 
L 818.701714 387.290239 
L 819.977143 369.083541 
L 821.252571 369.083541 
L 822.528 350.876842 
L 823.803429 369.083541 
L 825.078857 350.876842 
L 826.354286 350.876842 
L 827.629714 369.083541 
L 830.180571 369.083541 
L 831.456 350.876842 
L 832.731429 369.083541 
L 834.006857 350.876842 
L 836.557714 387.290239 
L 839.108571 387.290239 
L 840.384 369.083541 
L 841.659429 387.290239 
L 842.934857 387.290239 
L 845.485714 423.703636 
L 869.718857 423.703636 
L 870.994286 332.670144 
L 872.269714 259.843349 
L 873.545143 332.670144 
L 874.820571 314.463445 
L 876.096 259.843349 
L 877.371429 332.670144 
L 879.922286 332.670144 
L 881.197714 314.463445 
L 882.473143 314.463445 
L 883.748571 278.050048 
L 885.024 332.670144 
L 888.850286 332.670144 
L 890.125714 314.463445 
L 891.401143 332.670144 
L 892.676571 278.050048 
L 893.952 314.463445 
L 895.227429 332.670144 
L 896.502857 296.256746 
L 897.778286 296.256746 
L 899.053714 332.670144 
L 902.88 387.290239 
L 907.981714 387.290239 
L 909.257143 369.083541 
L 910.532571 369.083541 
L 911.808 387.290239 
L 916.909714 387.290239 
L 918.185143 369.083541 
L 919.460571 387.290239 
L 920.736 369.083541 
L 922.011429 332.670144 
L 923.286857 332.670144 
L 924.562286 369.083541 
L 928.388571 369.083541 
L 929.664 332.670144 
L 930.939429 369.083541 
L 933.490286 369.083541 
L 934.765714 350.876842 
L 936.041143 387.290239 
L 937.316571 387.290239 
L 938.592 369.083541 
L 939.867429 387.290239 
L 943.693714 387.290239 
L 944.969143 369.083541 
L 946.244571 369.083541 
L 947.52 314.463445 
L 948.795429 350.876842 
L 950.070857 369.083541 
L 951.346286 369.083541 
L 952.621714 350.876842 
L 953.897143 369.083541 
L 955.172571 350.876842 
L 956.448 350.876842 
L 957.723429 369.083541 
L 958.998857 369.083541 
L 960.274286 387.290239 
L 962.825143 387.290239 
L 964.100571 369.083541 
L 965.376 369.083541 
L 966.651429 387.290239 
L 970.477714 387.290239 
L 971.753143 350.876842 
L 973.028571 332.670144 
L 975.579429 369.083541 
L 976.854857 350.876842 
L 978.130286 369.083541 
L 980.681143 369.083541 
L 981.956571 350.876842 
L 983.232 350.876842 
L 984.507429 369.083541 
L 985.782857 369.083541 
L 987.058286 387.290239 
L 990.884571 387.290239 
L 992.16 350.876842 
L 993.435429 387.290239 
L 999.812571 387.290239 
L 1001.088 332.670144 
L 1003.638857 369.083541 
L 1004.914286 369.083541 
L 1006.189714 350.876842 
L 1007.465143 369.083541 
L 1008.740571 369.083541 
L 1010.016 332.670144 
L 1011.291429 369.083541 
L 1013.842286 369.083541 
L 1015.117714 387.290239 
L 1017.668571 387.290239 
L 1018.944 350.876842 
L 1020.219429 387.290239 
L 1021.494857 387.290239 
L 1022.770286 423.703636 
L 1035.524571 423.703636 
L 1035.524571 423.703636 
" style="fill:none;stroke:#bc3754;stroke-linecap:square;"/>
   </g>
   <g id="patch_3">
    <path d="M 144 441 
L 144 60.48 
" style="fill:none;stroke:#000000;stroke-linecap:square;stroke-linejoin:miter;stroke-width:0.8;"/>
   </g>
   <g id="patch_4">
    <path d="M 1036.8 441 
L 1036.8 60.48 
" style="fill:none;stroke:#000000;stroke-linecap:square;stroke-linejoin:miter;stroke-width:0.8;"/>
   </g>
   <g id="patch_5">
    <path d="M 144 441 
L 1036.8 441 
" style="fill:none;stroke:#000000;stroke-linecap:square;stroke-linejoin:miter;stroke-width:0.8;"/>
   </g>
   <g id="patch_6">
    <path d="M 144 60.48 
L 1036.8 60.48 
" style="fill:none;stroke:#000000;stroke-linecap:square;stroke-linejoin:miter;stroke-width:0.8;"/>
   </g>
   <g id="legend_1">
    <g id="line2d_19">
     <path d="M 537.409375 73.578438 
L 557.409375 73.578438 
" style="fill:none;stroke:#000004;stroke-linecap:square;"/>
    </g>
    <g id="line2d_20"/>
    <g id="text_19">
     <!-- M1 -->
     <g transform="translate(565.409375 77.078438)scale(0.1 -0.1)">
      <use xlink:href="#DejaVuSans-77"/>
      <use x="86.279297" xlink:href="#DejaVuSans-49"/>
     </g>
    </g>
    <g id="line2d_21">
     <path d="M 600.4 73.578438 
L 620.4 73.578438 
" style="fill:none;stroke:#bc3754;stroke-linecap:square;"/>
    </g>
    <g id="line2d_22"/>
    <g id="text_20">
     <!-- M2 -->
     <g transform="translate(628.4 77.078438)scale(0.1 -0.1)">
      <use xlink:href="#DejaVuSans-77"/>
      <use x="86.279297" xlink:href="#DejaVuSans-50"/>
     </g>
    </g>
   </g>
  </g>
 </g>
 <defs>
  <clipPath id="p20c87e15a4">
   <rect height="380.52" width="892.8" x="144" y="60.48"/>
  </clipPath>
 </defs>
</svg>
