<?xml version="1.0" encoding="utf-8" standalone="no"?>
<!DOCTYPE svg PUBLIC "-//W3C//DTD SVG 1.1//EN"
  "http://www.w3.org/Graphics/SVG/1.1/DTD/svg11.dtd">
<!-- Created with matplotlib (https://matplotlib.org/) -->
<svg height="504pt" version="1.1" viewBox="0 0 1152 504" width="1152pt" xmlns="http://www.w3.org/2000/svg" xmlns:xlink="http://www.w3.org/1999/xlink">
 <metadata>
  <rdf:RDF xmlns:cc="http://creativecommons.org/ns#" xmlns:dc="http://purl.org/dc/elements/1.1/" xmlns:rdf="http://www.w3.org/1999/02/22-rdf-syntax-ns#">
   <cc:Work>
    <dc:type rdf:resource="http://purl.org/dc/dcmitype/StillImage"/>
    <dc:date>2021-05-03T23:43:21.359784</dc:date>
    <dc:format>image/svg+xml</dc:format>
    <dc:creator>
     <cc:Agent>
      <dc:title>Matplotlib v3.3.4, https://matplotlib.org/</dc:title>
     </cc:Agent>
    </dc:creator>
   </cc:Work>
  </rdf:RDF>
 </metadata>
 <defs>
  <style type="text/css">*{stroke-linecap:butt;stroke-linejoin:round;}</style>
 </defs>
 <g id="figure_1">
  <g id="patch_1">
   <path d="M 0 504 
L 1152 504 
L 1152 0 
L 0 0 
z
" style="fill:none;"/>
  </g>
  <g id="axes_1">
   <g id="patch_2">
    <path d="M 144 441 
L 1036.8 441 
L 1036.8 60.48 
L 144 60.48 
z
" style="fill:#ffffff;"/>
   </g>
   <g id="matplotlib.axis_1">
    <g id="xtick_1">
     <g id="line2d_1">
      <defs>
       <path d="M 0 0 
L 0 3.5 
" id="me073109c1b" style="stroke:#000000;stroke-width:0.8;"/>
      </defs>
      <g>
       <use style="stroke:#000000;stroke-width:0.8;" x="144" xlink:href="#me073109c1b" y="441"/>
      </g>
     </g>
     <g id="text_1">
      <!-- 0 -->
      <g transform="translate(137.6375 463.196875)scale(0.2 -0.2)">
       <defs>
        <path d="M 31.78125 66.40625 
Q 24.171875 66.40625 20.328125 58.90625 
Q 16.5 51.421875 16.5 36.375 
Q 16.5 21.390625 20.328125 13.890625 
Q 24.171875 6.390625 31.78125 6.390625 
Q 39.453125 6.390625 43.28125 13.890625 
Q 47.125 21.390625 47.125 36.375 
Q 47.125 51.421875 43.28125 58.90625 
Q 39.453125 66.40625 31.78125 66.40625 
z
M 31.78125 74.21875 
Q 44.046875 74.21875 50.515625 64.515625 
Q 56.984375 54.828125 56.984375 36.375 
Q 56.984375 17.96875 50.515625 8.265625 
Q 44.046875 -1.421875 31.78125 -1.421875 
Q 19.53125 -1.421875 13.0625 8.265625 
Q 6.59375 17.96875 6.59375 36.375 
Q 6.59375 54.828125 13.0625 64.515625 
Q 19.53125 74.21875 31.78125 74.21875 
z
" id="DejaVuSans-48"/>
       </defs>
       <use xlink:href="#DejaVuSans-48"/>
      </g>
     </g>
    </g>
    <g id="xtick_2">
     <g id="line2d_2">
      <g>
       <use style="stroke:#000000;stroke-width:0.8;" x="271.542857" xlink:href="#me073109c1b" y="441"/>
      </g>
     </g>
     <g id="text_2">
      <!-- 5 -->
      <g transform="translate(265.180357 463.196875)scale(0.2 -0.2)">
       <defs>
        <path d="M 10.796875 72.90625 
L 49.515625 72.90625 
L 49.515625 64.59375 
L 19.828125 64.59375 
L 19.828125 46.734375 
Q 21.96875 47.46875 24.109375 47.828125 
Q 26.265625 48.1875 28.421875 48.1875 
Q 40.625 48.1875 47.75 41.5 
Q 54.890625 34.8125 54.890625 23.390625 
Q 54.890625 11.625 47.5625 5.09375 
Q 40.234375 -1.421875 26.90625 -1.421875 
Q 22.3125 -1.421875 17.546875 -0.640625 
Q 12.796875 0.140625 7.71875 1.703125 
L 7.71875 11.625 
Q 12.109375 9.234375 16.796875 8.0625 
Q 21.484375 6.890625 26.703125 6.890625 
Q 35.15625 6.890625 40.078125 11.328125 
Q 45.015625 15.765625 45.015625 23.390625 
Q 45.015625 31 40.078125 35.4375 
Q 35.15625 39.890625 26.703125 39.890625 
Q 22.75 39.890625 18.8125 39.015625 
Q 14.890625 38.140625 10.796875 36.28125 
z
" id="DejaVuSans-53"/>
       </defs>
       <use xlink:href="#DejaVuSans-53"/>
      </g>
     </g>
    </g>
    <g id="xtick_3">
     <g id="line2d_3">
      <g>
       <use style="stroke:#000000;stroke-width:0.8;" x="399.085714" xlink:href="#me073109c1b" y="441"/>
      </g>
     </g>
     <g id="text_3">
      <!-- 10 -->
      <g transform="translate(386.360714 463.196875)scale(0.2 -0.2)">
       <defs>
        <path d="M 12.40625 8.296875 
L 28.515625 8.296875 
L 28.515625 63.921875 
L 10.984375 60.40625 
L 10.984375 69.390625 
L 28.421875 72.90625 
L 38.28125 72.90625 
L 38.28125 8.296875 
L 54.390625 8.296875 
L 54.390625 0 
L 12.40625 0 
z
" id="DejaVuSans-49"/>
       </defs>
       <use xlink:href="#DejaVuSans-49"/>
       <use x="63.623047" xlink:href="#DejaVuSans-48"/>
      </g>
     </g>
    </g>
    <g id="xtick_4">
     <g id="line2d_4">
      <g>
       <use style="stroke:#000000;stroke-width:0.8;" x="526.628571" xlink:href="#me073109c1b" y="441"/>
      </g>
     </g>
     <g id="text_4">
      <!-- 15 -->
      <g transform="translate(513.903571 463.196875)scale(0.2 -0.2)">
       <use xlink:href="#DejaVuSans-49"/>
       <use x="63.623047" xlink:href="#DejaVuSans-53"/>
      </g>
     </g>
    </g>
    <g id="xtick_5">
     <g id="line2d_5">
      <g>
       <use style="stroke:#000000;stroke-width:0.8;" x="654.171429" xlink:href="#me073109c1b" y="441"/>
      </g>
     </g>
     <g id="text_5">
      <!-- 20 -->
      <g transform="translate(641.446429 463.196875)scale(0.2 -0.2)">
       <defs>
        <path d="M 19.1875 8.296875 
L 53.609375 8.296875 
L 53.609375 0 
L 7.328125 0 
L 7.328125 8.296875 
Q 12.9375 14.109375 22.625 23.890625 
Q 32.328125 33.6875 34.8125 36.53125 
Q 39.546875 41.84375 41.421875 45.53125 
Q 43.3125 49.21875 43.3125 52.78125 
Q 43.3125 58.59375 39.234375 62.25 
Q 35.15625 65.921875 28.609375 65.921875 
Q 23.96875 65.921875 18.8125 64.3125 
Q 13.671875 62.703125 7.8125 59.421875 
L 7.8125 69.390625 
Q 13.765625 71.78125 18.9375 73 
Q 24.125 74.21875 28.421875 74.21875 
Q 39.75 74.21875 46.484375 68.546875 
Q 53.21875 62.890625 53.21875 53.421875 
Q 53.21875 48.921875 51.53125 44.890625 
Q 49.859375 40.875 45.40625 35.40625 
Q 44.1875 33.984375 37.640625 27.21875 
Q 31.109375 20.453125 19.1875 8.296875 
z
" id="DejaVuSans-50"/>
       </defs>
       <use xlink:href="#DejaVuSans-50"/>
       <use x="63.623047" xlink:href="#DejaVuSans-48"/>
      </g>
     </g>
    </g>
    <g id="xtick_6">
     <g id="line2d_6">
      <g>
       <use style="stroke:#000000;stroke-width:0.8;" x="781.714286" xlink:href="#me073109c1b" y="441"/>
      </g>
     </g>
     <g id="text_6">
      <!-- 25 -->
      <g transform="translate(768.989286 463.196875)scale(0.2 -0.2)">
       <use xlink:href="#DejaVuSans-50"/>
       <use x="63.623047" xlink:href="#DejaVuSans-53"/>
      </g>
     </g>
    </g>
    <g id="xtick_7">
     <g id="line2d_7">
      <g>
       <use style="stroke:#000000;stroke-width:0.8;" x="909.257143" xlink:href="#me073109c1b" y="441"/>
      </g>
     </g>
     <g id="text_7">
      <!-- 30 -->
      <g transform="translate(896.532143 463.196875)scale(0.2 -0.2)">
       <defs>
        <path d="M 40.578125 39.3125 
Q 47.65625 37.796875 51.625 33 
Q 55.609375 28.21875 55.609375 21.1875 
Q 55.609375 10.40625 48.1875 4.484375 
Q 40.765625 -1.421875 27.09375 -1.421875 
Q 22.515625 -1.421875 17.65625 -0.515625 
Q 12.796875 0.390625 7.625 2.203125 
L 7.625 11.71875 
Q 11.71875 9.328125 16.59375 8.109375 
Q 21.484375 6.890625 26.8125 6.890625 
Q 36.078125 6.890625 40.9375 10.546875 
Q 45.796875 14.203125 45.796875 21.1875 
Q 45.796875 27.640625 41.28125 31.265625 
Q 36.765625 34.90625 28.71875 34.90625 
L 20.21875 34.90625 
L 20.21875 43.015625 
L 29.109375 43.015625 
Q 36.375 43.015625 40.234375 45.921875 
Q 44.09375 48.828125 44.09375 54.296875 
Q 44.09375 59.90625 40.109375 62.90625 
Q 36.140625 65.921875 28.71875 65.921875 
Q 24.65625 65.921875 20.015625 65.03125 
Q 15.375 64.15625 9.8125 62.3125 
L 9.8125 71.09375 
Q 15.4375 72.65625 20.34375 73.4375 
Q 25.25 74.21875 29.59375 74.21875 
Q 40.828125 74.21875 47.359375 69.109375 
Q 53.90625 64.015625 53.90625 55.328125 
Q 53.90625 49.265625 50.4375 45.09375 
Q 46.96875 40.921875 40.578125 39.3125 
z
" id="DejaVuSans-51"/>
       </defs>
       <use xlink:href="#DejaVuSans-51"/>
       <use x="63.623047" xlink:href="#DejaVuSans-48"/>
      </g>
     </g>
    </g>
    <g id="xtick_8">
     <g id="line2d_8">
      <g>
       <use style="stroke:#000000;stroke-width:0.8;" x="1036.8" xlink:href="#me073109c1b" y="441"/>
      </g>
     </g>
     <g id="text_8">
      <!-- 35 -->
      <g transform="translate(1024.075 463.196875)scale(0.2 -0.2)">
       <use xlink:href="#DejaVuSans-51"/>
       <use x="63.623047" xlink:href="#DejaVuSans-53"/>
      </g>
     </g>
    </g>
    <g id="text_9">
     <!-- Time (in s) -->
     <g transform="translate(537.448437 486.553125)scale(0.2 -0.2)">
      <defs>
       <path d="M -0.296875 72.90625 
L 61.375 72.90625 
L 61.375 64.59375 
L 35.5 64.59375 
L 35.5 0 
L 25.59375 0 
L 25.59375 64.59375 
L -0.296875 64.59375 
z
" id="DejaVuSans-84"/>
       <path d="M 9.421875 54.6875 
L 18.40625 54.6875 
L 18.40625 0 
L 9.421875 0 
z
M 9.421875 75.984375 
L 18.40625 75.984375 
L 18.40625 64.59375 
L 9.421875 64.59375 
z
" id="DejaVuSans-105"/>
       <path d="M 52 44.1875 
Q 55.375 50.25 60.0625 53.125 
Q 64.75 56 71.09375 56 
Q 79.640625 56 84.28125 50.015625 
Q 88.921875 44.046875 88.921875 33.015625 
L 88.921875 0 
L 79.890625 0 
L 79.890625 32.71875 
Q 79.890625 40.578125 77.09375 44.375 
Q 74.3125 48.1875 68.609375 48.1875 
Q 61.625 48.1875 57.5625 43.546875 
Q 53.515625 38.921875 53.515625 30.90625 
L 53.515625 0 
L 44.484375 0 
L 44.484375 32.71875 
Q 44.484375 40.625 41.703125 44.40625 
Q 38.921875 48.1875 33.109375 48.1875 
Q 26.21875 48.1875 22.15625 43.53125 
Q 18.109375 38.875 18.109375 30.90625 
L 18.109375 0 
L 9.078125 0 
L 9.078125 54.6875 
L 18.109375 54.6875 
L 18.109375 46.1875 
Q 21.1875 51.21875 25.484375 53.609375 
Q 29.78125 56 35.6875 56 
Q 41.65625 56 45.828125 52.96875 
Q 50 49.953125 52 44.1875 
z
" id="DejaVuSans-109"/>
       <path d="M 56.203125 29.59375 
L 56.203125 25.203125 
L 14.890625 25.203125 
Q 15.484375 15.921875 20.484375 11.0625 
Q 25.484375 6.203125 34.421875 6.203125 
Q 39.59375 6.203125 44.453125 7.46875 
Q 49.3125 8.734375 54.109375 11.28125 
L 54.109375 2.78125 
Q 49.265625 0.734375 44.1875 -0.34375 
Q 39.109375 -1.421875 33.890625 -1.421875 
Q 20.796875 -1.421875 13.15625 6.1875 
Q 5.515625 13.8125 5.515625 26.8125 
Q 5.515625 40.234375 12.765625 48.109375 
Q 20.015625 56 32.328125 56 
Q 43.359375 56 49.78125 48.890625 
Q 56.203125 41.796875 56.203125 29.59375 
z
M 47.21875 32.234375 
Q 47.125 39.59375 43.09375 43.984375 
Q 39.0625 48.390625 32.421875 48.390625 
Q 24.90625 48.390625 20.390625 44.140625 
Q 15.875 39.890625 15.1875 32.171875 
z
" id="DejaVuSans-101"/>
       <path id="DejaVuSans-32"/>
       <path d="M 31 75.875 
Q 24.46875 64.65625 21.28125 53.65625 
Q 18.109375 42.671875 18.109375 31.390625 
Q 18.109375 20.125 21.3125 9.0625 
Q 24.515625 -2 31 -13.1875 
L 23.1875 -13.1875 
Q 15.875 -1.703125 12.234375 9.375 
Q 8.59375 20.453125 8.59375 31.390625 
Q 8.59375 42.28125 12.203125 53.3125 
Q 15.828125 64.359375 23.1875 75.875 
z
" id="DejaVuSans-40"/>
       <path d="M 54.890625 33.015625 
L 54.890625 0 
L 45.90625 0 
L 45.90625 32.71875 
Q 45.90625 40.484375 42.875 44.328125 
Q 39.84375 48.1875 33.796875 48.1875 
Q 26.515625 48.1875 22.3125 43.546875 
Q 18.109375 38.921875 18.109375 30.90625 
L 18.109375 0 
L 9.078125 0 
L 9.078125 54.6875 
L 18.109375 54.6875 
L 18.109375 46.1875 
Q 21.34375 51.125 25.703125 53.5625 
Q 30.078125 56 35.796875 56 
Q 45.21875 56 50.046875 50.171875 
Q 54.890625 44.34375 54.890625 33.015625 
z
" id="DejaVuSans-110"/>
       <path d="M 44.28125 53.078125 
L 44.28125 44.578125 
Q 40.484375 46.53125 36.375 47.5 
Q 32.28125 48.484375 27.875 48.484375 
Q 21.1875 48.484375 17.84375 46.4375 
Q 14.5 44.390625 14.5 40.28125 
Q 14.5 37.15625 16.890625 35.375 
Q 19.28125 33.59375 26.515625 31.984375 
L 29.59375 31.296875 
Q 39.15625 29.25 43.1875 25.515625 
Q 47.21875 21.78125 47.21875 15.09375 
Q 47.21875 7.46875 41.1875 3.015625 
Q 35.15625 -1.421875 24.609375 -1.421875 
Q 20.21875 -1.421875 15.453125 -0.5625 
Q 10.6875 0.296875 5.421875 2 
L 5.421875 11.28125 
Q 10.40625 8.6875 15.234375 7.390625 
Q 20.0625 6.109375 24.8125 6.109375 
Q 31.15625 6.109375 34.5625 8.28125 
Q 37.984375 10.453125 37.984375 14.40625 
Q 37.984375 18.0625 35.515625 20.015625 
Q 33.0625 21.96875 24.703125 23.78125 
L 21.578125 24.515625 
Q 13.234375 26.265625 9.515625 29.90625 
Q 5.8125 33.546875 5.8125 39.890625 
Q 5.8125 47.609375 11.28125 51.796875 
Q 16.75 56 26.8125 56 
Q 31.78125 56 36.171875 55.265625 
Q 40.578125 54.546875 44.28125 53.078125 
z
" id="DejaVuSans-115"/>
       <path d="M 8.015625 75.875 
L 15.828125 75.875 
Q 23.140625 64.359375 26.78125 53.3125 
Q 30.421875 42.28125 30.421875 31.390625 
Q 30.421875 20.453125 26.78125 9.375 
Q 23.140625 -1.703125 15.828125 -13.1875 
L 8.015625 -13.1875 
Q 14.5 -2 17.703125 9.0625 
Q 20.90625 20.125 20.90625 31.390625 
Q 20.90625 42.671875 17.703125 53.65625 
Q 14.5 64.65625 8.015625 75.875 
z
" id="DejaVuSans-41"/>
      </defs>
      <use xlink:href="#DejaVuSans-84"/>
      <use x="57.958984" xlink:href="#DejaVuSans-105"/>
      <use x="85.742188" xlink:href="#DejaVuSans-109"/>
      <use x="183.154297" xlink:href="#DejaVuSans-101"/>
      <use x="244.677734" xlink:href="#DejaVuSans-32"/>
      <use x="276.464844" xlink:href="#DejaVuSans-40"/>
      <use x="315.478516" xlink:href="#DejaVuSans-105"/>
      <use x="343.261719" xlink:href="#DejaVuSans-110"/>
      <use x="406.640625" xlink:href="#DejaVuSans-32"/>
      <use x="438.427734" xlink:href="#DejaVuSans-115"/>
      <use x="490.527344" xlink:href="#DejaVuSans-41"/>
     </g>
    </g>
   </g>
   <g id="matplotlib.axis_2">
    <g id="ytick_1">
     <g id="line2d_9">
      <defs>
       <path d="M 0 0 
L -3.5 0 
" id="m92964df0a8" style="stroke:#000000;stroke-width:0.8;"/>
      </defs>
      <g>
       <use style="stroke:#000000;stroke-width:0.8;" x="144" xlink:href="#m92964df0a8" y="423.703636"/>
      </g>
     </g>
     <g id="text_10">
      <!-- 0.0 -->
      <g transform="translate(105.19375 431.302074)scale(0.2 -0.2)">
       <defs>
        <path d="M 10.6875 12.40625 
L 21 12.40625 
L 21 0 
L 10.6875 0 
z
" id="DejaVuSans-46"/>
       </defs>
       <use xlink:href="#DejaVuSans-48"/>
       <use x="63.623047" xlink:href="#DejaVuSans-46"/>
       <use x="95.410156" xlink:href="#DejaVuSans-48"/>
      </g>
     </g>
    </g>
    <g id="ytick_2">
     <g id="line2d_10">
      <g>
       <use style="stroke:#000000;stroke-width:0.8;" x="144" xlink:href="#m92964df0a8" y="379.227273"/>
      </g>
     </g>
     <g id="text_11">
      <!-- 0.2 -->
      <g transform="translate(105.19375 386.82571)scale(0.2 -0.2)">
       <use xlink:href="#DejaVuSans-48"/>
       <use x="63.623047" xlink:href="#DejaVuSans-46"/>
       <use x="95.410156" xlink:href="#DejaVuSans-50"/>
      </g>
     </g>
    </g>
    <g id="ytick_3">
     <g id="line2d_11">
      <g>
       <use style="stroke:#000000;stroke-width:0.8;" x="144" xlink:href="#m92964df0a8" y="334.750909"/>
      </g>
     </g>
     <g id="text_12">
      <!-- 0.4 -->
      <g transform="translate(105.19375 342.349347)scale(0.2 -0.2)">
       <defs>
        <path d="M 37.796875 64.3125 
L 12.890625 25.390625 
L 37.796875 25.390625 
z
M 35.203125 72.90625 
L 47.609375 72.90625 
L 47.609375 25.390625 
L 58.015625 25.390625 
L 58.015625 17.1875 
L 47.609375 17.1875 
L 47.609375 0 
L 37.796875 0 
L 37.796875 17.1875 
L 4.890625 17.1875 
L 4.890625 26.703125 
z
" id="DejaVuSans-52"/>
       </defs>
       <use xlink:href="#DejaVuSans-48"/>
       <use x="63.623047" xlink:href="#DejaVuSans-46"/>
       <use x="95.410156" xlink:href="#DejaVuSans-52"/>
      </g>
     </g>
    </g>
    <g id="ytick_4">
     <g id="line2d_12">
      <g>
       <use style="stroke:#000000;stroke-width:0.8;" x="144" xlink:href="#m92964df0a8" y="290.274545"/>
      </g>
     </g>
     <g id="text_13">
      <!-- 0.6 -->
      <g transform="translate(105.19375 297.872983)scale(0.2 -0.2)">
       <defs>
        <path d="M 33.015625 40.375 
Q 26.375 40.375 22.484375 35.828125 
Q 18.609375 31.296875 18.609375 23.390625 
Q 18.609375 15.53125 22.484375 10.953125 
Q 26.375 6.390625 33.015625 6.390625 
Q 39.65625 6.390625 43.53125 10.953125 
Q 47.40625 15.53125 47.40625 23.390625 
Q 47.40625 31.296875 43.53125 35.828125 
Q 39.65625 40.375 33.015625 40.375 
z
M 52.59375 71.296875 
L 52.59375 62.3125 
Q 48.875 64.0625 45.09375 64.984375 
Q 41.3125 65.921875 37.59375 65.921875 
Q 27.828125 65.921875 22.671875 59.328125 
Q 17.53125 52.734375 16.796875 39.40625 
Q 19.671875 43.65625 24.015625 45.921875 
Q 28.375 48.1875 33.59375 48.1875 
Q 44.578125 48.1875 50.953125 41.515625 
Q 57.328125 34.859375 57.328125 23.390625 
Q 57.328125 12.15625 50.6875 5.359375 
Q 44.046875 -1.421875 33.015625 -1.421875 
Q 20.359375 -1.421875 13.671875 8.265625 
Q 6.984375 17.96875 6.984375 36.375 
Q 6.984375 53.65625 15.1875 63.9375 
Q 23.390625 74.21875 37.203125 74.21875 
Q 40.921875 74.21875 44.703125 73.484375 
Q 48.484375 72.75 52.59375 71.296875 
z
" id="DejaVuSans-54"/>
       </defs>
       <use xlink:href="#DejaVuSans-48"/>
       <use x="63.623047" xlink:href="#DejaVuSans-46"/>
       <use x="95.410156" xlink:href="#DejaVuSans-54"/>
      </g>
     </g>
    </g>
    <g id="ytick_5">
     <g id="line2d_13">
      <g>
       <use style="stroke:#000000;stroke-width:0.8;" x="144" xlink:href="#m92964df0a8" y="245.798182"/>
      </g>
     </g>
     <g id="text_14">
      <!-- 0.8 -->
      <g transform="translate(105.19375 253.396619)scale(0.2 -0.2)">
       <defs>
        <path d="M 31.78125 34.625 
Q 24.75 34.625 20.71875 30.859375 
Q 16.703125 27.09375 16.703125 20.515625 
Q 16.703125 13.921875 20.71875 10.15625 
Q 24.75 6.390625 31.78125 6.390625 
Q 38.8125 6.390625 42.859375 10.171875 
Q 46.921875 13.96875 46.921875 20.515625 
Q 46.921875 27.09375 42.890625 30.859375 
Q 38.875 34.625 31.78125 34.625 
z
M 21.921875 38.8125 
Q 15.578125 40.375 12.03125 44.71875 
Q 8.5 49.078125 8.5 55.328125 
Q 8.5 64.0625 14.71875 69.140625 
Q 20.953125 74.21875 31.78125 74.21875 
Q 42.671875 74.21875 48.875 69.140625 
Q 55.078125 64.0625 55.078125 55.328125 
Q 55.078125 49.078125 51.53125 44.71875 
Q 48 40.375 41.703125 38.8125 
Q 48.828125 37.15625 52.796875 32.3125 
Q 56.78125 27.484375 56.78125 20.515625 
Q 56.78125 9.90625 50.3125 4.234375 
Q 43.84375 -1.421875 31.78125 -1.421875 
Q 19.734375 -1.421875 13.25 4.234375 
Q 6.78125 9.90625 6.78125 20.515625 
Q 6.78125 27.484375 10.78125 32.3125 
Q 14.796875 37.15625 21.921875 38.8125 
z
M 18.3125 54.390625 
Q 18.3125 48.734375 21.84375 45.5625 
Q 25.390625 42.390625 31.78125 42.390625 
Q 38.140625 42.390625 41.71875 45.5625 
Q 45.3125 48.734375 45.3125 54.390625 
Q 45.3125 60.0625 41.71875 63.234375 
Q 38.140625 66.40625 31.78125 66.40625 
Q 25.390625 66.40625 21.84375 63.234375 
Q 18.3125 60.0625 18.3125 54.390625 
z
" id="DejaVuSans-56"/>
       </defs>
       <use xlink:href="#DejaVuSans-48"/>
       <use x="63.623047" xlink:href="#DejaVuSans-46"/>
       <use x="95.410156" xlink:href="#DejaVuSans-56"/>
      </g>
     </g>
    </g>
    <g id="ytick_6">
     <g id="line2d_14">
      <g>
       <use style="stroke:#000000;stroke-width:0.8;" x="144" xlink:href="#m92964df0a8" y="201.321818"/>
      </g>
     </g>
     <g id="text_15">
      <!-- 1.0 -->
      <g transform="translate(105.19375 208.920256)scale(0.2 -0.2)">
       <use xlink:href="#DejaVuSans-49"/>
       <use x="63.623047" xlink:href="#DejaVuSans-46"/>
       <use x="95.410156" xlink:href="#DejaVuSans-48"/>
      </g>
     </g>
    </g>
    <g id="ytick_7">
     <g id="line2d_15">
      <g>
       <use style="stroke:#000000;stroke-width:0.8;" x="144" xlink:href="#m92964df0a8" y="156.845455"/>
      </g>
     </g>
     <g id="text_16">
      <!-- 1.2 -->
      <g transform="translate(105.19375 164.443892)scale(0.2 -0.2)">
       <use xlink:href="#DejaVuSans-49"/>
       <use x="63.623047" xlink:href="#DejaVuSans-46"/>
       <use x="95.410156" xlink:href="#DejaVuSans-50"/>
      </g>
     </g>
    </g>
    <g id="ytick_8">
     <g id="line2d_16">
      <g>
       <use style="stroke:#000000;stroke-width:0.8;" x="144" xlink:href="#m92964df0a8" y="112.369091"/>
      </g>
     </g>
     <g id="text_17">
      <!-- 1.4 -->
      <g transform="translate(105.19375 119.967528)scale(0.2 -0.2)">
       <use xlink:href="#DejaVuSans-49"/>
       <use x="63.623047" xlink:href="#DejaVuSans-46"/>
       <use x="95.410156" xlink:href="#DejaVuSans-52"/>
      </g>
     </g>
    </g>
    <g id="ytick_9">
     <g id="line2d_17">
      <g>
       <use style="stroke:#000000;stroke-width:0.8;" x="144" xlink:href="#m92964df0a8" y="67.892727"/>
      </g>
     </g>
     <g id="text_18">
      <!-- 1.6 -->
      <g transform="translate(105.19375 75.491165)scale(0.2 -0.2)">
       <use xlink:href="#DejaVuSans-49"/>
       <use x="63.623047" xlink:href="#DejaVuSans-46"/>
       <use x="95.410156" xlink:href="#DejaVuSans-54"/>
      </g>
     </g>
    </g>
    <g id="text_19">
     <!-- Mean Activity -->
     <g transform="translate(97.034375 318.563438)rotate(-90)scale(0.2 -0.2)">
      <defs>
       <path d="M 9.8125 72.90625 
L 24.515625 72.90625 
L 43.109375 23.296875 
L 61.8125 72.90625 
L 76.515625 72.90625 
L 76.515625 0 
L 66.890625 0 
L 66.890625 64.015625 
L 48.09375 14.015625 
L 38.1875 14.015625 
L 19.390625 64.015625 
L 19.390625 0 
L 9.8125 0 
z
" id="DejaVuSans-77"/>
       <path d="M 34.28125 27.484375 
Q 23.390625 27.484375 19.1875 25 
Q 14.984375 22.515625 14.984375 16.5 
Q 14.984375 11.71875 18.140625 8.90625 
Q 21.296875 6.109375 26.703125 6.109375 
Q 34.1875 6.109375 38.703125 11.40625 
Q 43.21875 16.703125 43.21875 25.484375 
L 43.21875 27.484375 
z
M 52.203125 31.203125 
L 52.203125 0 
L 43.21875 0 
L 43.21875 8.296875 
Q 40.140625 3.328125 35.546875 0.953125 
Q 30.953125 -1.421875 24.3125 -1.421875 
Q 15.921875 -1.421875 10.953125 3.296875 
Q 6 8.015625 6 15.921875 
Q 6 25.140625 12.171875 29.828125 
Q 18.359375 34.515625 30.609375 34.515625 
L 43.21875 34.515625 
L 43.21875 35.40625 
Q 43.21875 41.609375 39.140625 45 
Q 35.0625 48.390625 27.6875 48.390625 
Q 23 48.390625 18.546875 47.265625 
Q 14.109375 46.140625 10.015625 43.890625 
L 10.015625 52.203125 
Q 14.9375 54.109375 19.578125 55.046875 
Q 24.21875 56 28.609375 56 
Q 40.484375 56 46.34375 49.84375 
Q 52.203125 43.703125 52.203125 31.203125 
z
" id="DejaVuSans-97"/>
       <path d="M 34.1875 63.1875 
L 20.796875 26.90625 
L 47.609375 26.90625 
z
M 28.609375 72.90625 
L 39.796875 72.90625 
L 67.578125 0 
L 57.328125 0 
L 50.6875 18.703125 
L 17.828125 18.703125 
L 11.1875 0 
L 0.78125 0 
z
" id="DejaVuSans-65"/>
       <path d="M 48.78125 52.59375 
L 48.78125 44.1875 
Q 44.96875 46.296875 41.140625 47.34375 
Q 37.3125 48.390625 33.40625 48.390625 
Q 24.65625 48.390625 19.8125 42.84375 
Q 14.984375 37.3125 14.984375 27.296875 
Q 14.984375 17.28125 19.8125 11.734375 
Q 24.65625 6.203125 33.40625 6.203125 
Q 37.3125 6.203125 41.140625 7.25 
Q 44.96875 8.296875 48.78125 10.40625 
L 48.78125 2.09375 
Q 45.015625 0.34375 40.984375 -0.53125 
Q 36.96875 -1.421875 32.421875 -1.421875 
Q 20.0625 -1.421875 12.78125 6.34375 
Q 5.515625 14.109375 5.515625 27.296875 
Q 5.515625 40.671875 12.859375 48.328125 
Q 20.21875 56 33.015625 56 
Q 37.15625 56 41.109375 55.140625 
Q 45.0625 54.296875 48.78125 52.59375 
z
" id="DejaVuSans-99"/>
       <path d="M 18.3125 70.21875 
L 18.3125 54.6875 
L 36.8125 54.6875 
L 36.8125 47.703125 
L 18.3125 47.703125 
L 18.3125 18.015625 
Q 18.3125 11.328125 20.140625 9.421875 
Q 21.96875 7.515625 27.59375 7.515625 
L 36.8125 7.515625 
L 36.8125 0 
L 27.59375 0 
Q 17.1875 0 13.234375 3.875 
Q 9.28125 7.765625 9.28125 18.015625 
L 9.28125 47.703125 
L 2.6875 47.703125 
L 2.6875 54.6875 
L 9.28125 54.6875 
L 9.28125 70.21875 
z
" id="DejaVuSans-116"/>
       <path d="M 2.984375 54.6875 
L 12.5 54.6875 
L 29.59375 8.796875 
L 46.6875 54.6875 
L 56.203125 54.6875 
L 35.6875 0 
L 23.484375 0 
z
" id="DejaVuSans-118"/>
       <path d="M 32.171875 -5.078125 
Q 28.375 -14.84375 24.75 -17.8125 
Q 21.140625 -20.796875 15.09375 -20.796875 
L 7.90625 -20.796875 
L 7.90625 -13.28125 
L 13.1875 -13.28125 
Q 16.890625 -13.28125 18.9375 -11.515625 
Q 21 -9.765625 23.484375 -3.21875 
L 25.09375 0.875 
L 2.984375 54.6875 
L 12.5 54.6875 
L 29.59375 11.921875 
L 46.6875 54.6875 
L 56.203125 54.6875 
z
" id="DejaVuSans-121"/>
      </defs>
      <use xlink:href="#DejaVuSans-77"/>
      <use x="86.279297" xlink:href="#DejaVuSans-101"/>
      <use x="147.802734" xlink:href="#DejaVuSans-97"/>
      <use x="209.082031" xlink:href="#DejaVuSans-110"/>
      <use x="272.460938" xlink:href="#DejaVuSans-32"/>
      <use x="304.248047" xlink:href="#DejaVuSans-65"/>
      <use x="370.90625" xlink:href="#DejaVuSans-99"/>
      <use x="425.886719" xlink:href="#DejaVuSans-116"/>
      <use x="465.095703" xlink:href="#DejaVuSans-105"/>
      <use x="492.878906" xlink:href="#DejaVuSans-118"/>
      <use x="552.058594" xlink:href="#DejaVuSans-105"/>
      <use x="579.841797" xlink:href="#DejaVuSans-116"/>
      <use x="619.050781" xlink:href="#DejaVuSans-121"/>
     </g>
    </g>
   </g>
   <g id="line2d_18">
    <path clip-path="url(#p7ddd33e7a3)" d="M 144 423.703636 
L 155.478857 423.703636 
L 158.029714 77.776364 
L 159.305143 250.74 
L 160.580571 250.74 
L 161.856 77.776364 
L 163.131429 275.449091 
L 168.233143 275.449091 
L 169.508571 176.612727 
L 170.784 324.867273 
L 172.059429 374.285455 
L 173.334857 374.285455 
L 174.610286 349.576364 
L 175.885714 349.576364 
L 177.161143 374.285455 
L 178.436571 324.867273 
L 179.712 374.285455 
L 180.987429 374.285455 
L 182.262857 349.576364 
L 183.538286 349.576364 
L 184.813714 300.158182 
L 186.089143 275.449091 
L 187.364571 226.030909 
L 188.64 300.158182 
L 189.915429 275.449091 
L 191.190857 275.449091 
L 192.466286 300.158182 
L 193.741714 201.321818 
L 195.017143 300.158182 
L 198.843429 300.158182 
L 200.118857 275.449091 
L 202.669714 275.449091 
L 203.945143 324.867273 
L 205.220571 324.867273 
L 206.496 300.158182 
L 207.771429 201.321818 
L 209.046857 226.030909 
L 210.322286 300.158182 
L 211.597714 275.449091 
L 214.148571 324.867273 
L 216.699429 423.703636 
L 225.627429 423.703636 
L 229.453714 349.576364 
L 230.729143 374.285455 
L 232.004571 300.158182 
L 233.28 300.158182 
L 234.555429 349.576364 
L 235.830857 300.158182 
L 237.106286 151.903636 
L 238.381714 275.449091 
L 239.657143 275.449091 
L 240.932571 151.903636 
L 242.208 275.449091 
L 243.483429 275.449091 
L 244.758857 250.74 
L 246.034286 275.449091 
L 247.309714 226.030909 
L 248.585143 230.972727 
L 249.860571 275.449091 
L 251.136 300.158182 
L 252.411429 275.449091 
L 253.686857 275.449091 
L 254.962286 300.158182 
L 257.513143 201.321818 
L 258.788571 250.74 
L 260.064 295.216364 
L 261.339429 280.390909 
L 262.614857 324.867273 
L 263.890286 374.285455 
L 266.441143 374.285455 
L 267.716571 398.994545 
L 272.818286 398.994545 
L 274.093714 374.285455 
L 275.369143 398.994545 
L 276.644571 398.994545 
L 277.92 314.983636 
L 279.195429 285.332727 
L 280.470857 295.216364 
L 281.746286 319.925455 
L 283.021714 314.983636 
L 284.297143 359.46 
L 285.572571 384.169091 
L 286.848 379.227273 
L 288.123429 379.227273 
L 289.398857 394.052727 
L 293.225143 394.052727 
L 294.500571 423.703636 
L 295.776 423.703636 
L 297.051429 413.82 
L 298.326857 408.878182 
L 299.602286 398.994545 
L 302.153143 408.878182 
L 303.428571 403.936364 
L 304.704 408.878182 
L 305.979429 408.878182 
L 307.254857 389.110909 
L 308.530286 394.052727 
L 309.805714 423.703636 
L 334.038857 423.703636 
L 335.314286 349.576364 
L 336.589714 324.867273 
L 337.865143 349.576364 
L 339.140571 300.158182 
L 340.416 349.576364 
L 341.691429 349.576364 
L 342.966857 324.867273 
L 345.517714 226.030909 
L 346.793143 300.158182 
L 349.344 250.74 
L 350.619429 300.158182 
L 353.170286 300.158182 
L 354.445714 250.74 
L 355.721143 275.449091 
L 358.272 275.449091 
L 359.547429 300.158182 
L 360.822857 226.030909 
L 362.098286 250.74 
L 363.373714 300.158182 
L 364.649143 300.158182 
L 367.2 280.390909 
L 368.475429 300.158182 
L 369.750857 270.507273 
L 371.026286 310.041818 
L 372.301714 280.390909 
L 373.577143 275.449091 
L 374.852571 280.390909 
L 376.128 265.565455 
L 377.403429 305.1 
L 378.678857 310.041818 
L 379.954286 310.041818 
L 381.229714 245.798182 
L 382.505143 300.158182 
L 383.780571 310.041818 
L 385.056 300.158182 
L 386.331429 280.390909 
L 387.606857 285.332727 
L 388.882286 359.46 
L 390.157714 379.227273 
L 391.433143 369.343636 
L 393.984 379.227273 
L 395.259429 364.401818 
L 396.534857 364.401818 
L 397.810286 359.46 
L 399.085714 364.401818 
L 400.361143 354.518182 
L 402.912 374.285455 
L 406.738286 359.46 
L 408.013714 379.227273 
L 409.289143 389.110909 
L 410.564571 384.169091 
L 411.84 389.110909 
L 413.115429 384.169091 
L 414.390857 384.169091 
L 415.666286 354.518182 
L 416.941714 384.169091 
L 418.217143 379.227273 
L 419.492571 379.227273 
L 420.768 349.576364 
L 422.043429 369.343636 
L 424.594286 349.576364 
L 425.869714 369.343636 
L 427.145143 349.576364 
L 428.420571 354.518182 
L 429.696 334.750909 
L 430.971429 359.46 
L 434.797714 389.110909 
L 436.073143 374.285455 
L 438.624 374.285455 
L 439.899429 359.46 
L 441.174857 305.1 
L 442.450286 329.809091 
L 443.725714 329.809091 
L 445.001143 314.983636 
L 446.276571 334.750909 
L 447.552 314.983636 
L 448.827429 305.1 
L 450.102857 300.158182 
L 451.378286 280.390909 
L 452.653714 300.158182 
L 453.929143 314.983636 
L 455.204571 290.274545 
L 456.48 310.041818 
L 457.755429 319.925455 
L 459.030857 310.041818 
L 460.306286 310.041818 
L 461.581714 290.274545 
L 462.857143 310.041818 
L 464.132571 339.692727 
L 465.408 329.809091 
L 466.683429 339.692727 
L 467.958857 334.750909 
L 469.234286 319.925455 
L 470.509714 319.925455 
L 471.785143 334.750909 
L 473.060571 305.1 
L 474.336 300.158182 
L 475.611429 314.983636 
L 476.886857 324.867273 
L 479.437714 295.216364 
L 480.713143 334.750909 
L 481.988571 324.867273 
L 484.539429 324.867273 
L 485.814857 329.809091 
L 487.090286 349.576364 
L 488.365714 423.703636 
L 512.598857 423.703636 
L 515.149714 324.867273 
L 516.425143 374.285455 
L 518.976 374.285455 
L 520.251429 423.703636 
L 527.904 423.703636 
L 530.454857 374.285455 
L 531.730286 398.994545 
L 533.005714 398.994545 
L 534.281143 423.703636 
L 540.658286 423.703636 
L 541.933714 398.994545 
L 543.209143 359.46 
L 544.484571 369.343636 
L 545.76 329.809091 
L 547.035429 369.343636 
L 548.310857 374.285455 
L 550.861714 374.285455 
L 552.137143 369.343636 
L 553.412571 398.994545 
L 559.789714 398.994545 
L 561.065143 374.285455 
L 563.616 364.401818 
L 564.891429 374.285455 
L 566.166857 379.227273 
L 567.442286 349.576364 
L 568.717714 295.216364 
L 569.993143 275.449091 
L 571.268571 324.867273 
L 572.544 300.158182 
L 573.819429 285.332727 
L 575.094857 290.274545 
L 576.370286 300.158182 
L 577.645714 270.507273 
L 578.921143 300.158182 
L 580.196571 270.507273 
L 581.472 260.623636 
L 582.747429 275.449091 
L 584.022857 275.449091 
L 585.298286 300.158182 
L 586.573714 295.216364 
L 587.849143 300.158182 
L 589.124571 216.147273 
L 590.4 285.332727 
L 591.675429 280.390909 
L 592.950857 310.041818 
L 594.226286 290.274545 
L 595.501714 305.1 
L 596.777143 310.041818 
L 598.052571 290.274545 
L 599.328 240.856364 
L 600.603429 240.856364 
L 601.878857 280.390909 
L 603.154286 290.274545 
L 604.429714 265.565455 
L 605.705143 270.507273 
L 606.980571 255.681818 
L 608.256 250.74 
L 609.531429 275.449091 
L 610.806857 275.449091 
L 612.082286 300.158182 
L 614.633143 290.274545 
L 615.908571 354.518182 
L 617.184 364.401818 
L 618.459429 389.110909 
L 619.734857 389.110909 
L 621.010286 379.227273 
L 622.285714 389.110909 
L 623.561143 384.169091 
L 624.836571 374.285455 
L 626.112 339.692727 
L 627.387429 334.750909 
L 628.662857 349.576364 
L 631.213714 300.158182 
L 632.489143 329.809091 
L 635.04 310.041818 
L 636.315429 329.809091 
L 637.590857 344.634545 
L 640.141714 305.1 
L 641.417143 290.274545 
L 642.692571 324.867273 
L 643.968 226.030909 
L 645.243429 240.856364 
L 646.518857 260.623636 
L 647.794286 230.972727 
L 649.069714 230.972727 
L 650.345143 265.565455 
L 651.620571 265.565455 
L 652.896 270.507273 
L 654.171429 245.798182 
L 655.446857 275.449091 
L 656.722286 240.856364 
L 657.997714 285.332727 
L 659.273143 270.507273 
L 660.548571 295.216364 
L 661.824 295.216364 
L 663.099429 285.332727 
L 664.374857 295.216364 
L 665.650286 339.692727 
L 666.925714 423.703636 
L 691.158857 423.703636 
L 693.709714 324.867273 
L 694.985143 374.285455 
L 696.260571 374.285455 
L 697.536 349.576364 
L 698.811429 398.994545 
L 700.086857 374.285455 
L 701.362286 374.285455 
L 702.637714 349.576364 
L 703.913143 394.052727 
L 705.188571 374.285455 
L 707.739429 374.285455 
L 709.014857 379.227273 
L 710.290286 398.994545 
L 714.116571 398.994545 
L 715.392 379.227273 
L 716.667429 394.052727 
L 717.942857 379.227273 
L 719.218286 374.285455 
L 720.493714 339.692727 
L 721.769143 290.274545 
L 723.044571 329.809091 
L 724.32 344.634545 
L 725.595429 295.216364 
L 726.870857 314.983636 
L 728.146286 305.1 
L 729.421714 334.750909 
L 730.697143 339.692727 
L 731.972571 334.750909 
L 733.248 369.343636 
L 734.523429 369.343636 
L 735.798857 364.401818 
L 737.074286 374.285455 
L 738.349714 379.227273 
L 739.625143 374.285455 
L 740.900571 374.285455 
L 743.451429 334.750909 
L 744.726857 349.576364 
L 746.002286 349.576364 
L 747.277714 300.158182 
L 748.553143 310.041818 
L 749.828571 300.158182 
L 752.379429 300.158182 
L 753.654857 270.507273 
L 754.930286 285.332727 
L 756.205714 305.1 
L 757.481143 329.809091 
L 758.756571 319.925455 
L 760.032 319.925455 
L 762.582857 359.46 
L 763.858286 349.576364 
L 765.133714 359.46 
L 766.409143 354.518182 
L 767.684571 329.809091 
L 768.96 344.634545 
L 770.235429 349.576364 
L 771.510857 329.809091 
L 772.786286 240.856364 
L 774.061714 319.925455 
L 775.337143 314.983636 
L 776.612571 260.623636 
L 777.888 305.1 
L 779.163429 319.925455 
L 780.438857 319.925455 
L 781.714286 334.750909 
L 782.989714 305.1 
L 785.540571 255.681818 
L 788.091429 275.449091 
L 789.366857 295.216364 
L 791.917714 295.216364 
L 793.193143 221.089091 
L 794.468571 201.321818 
L 797.019429 334.750909 
L 798.294857 349.576364 
L 799.570286 344.634545 
L 800.845714 329.809091 
L 802.121143 344.634545 
L 803.396571 349.576364 
L 804.672 344.634545 
L 805.947429 354.518182 
L 807.222857 344.634545 
L 808.498286 364.401818 
L 809.773714 359.46 
L 811.049143 349.576364 
L 812.324571 334.750909 
L 813.6 359.46 
L 814.875429 354.518182 
L 816.150857 344.634545 
L 817.426286 364.401818 
L 819.977143 305.1 
L 821.252571 349.576364 
L 822.528 374.285455 
L 823.803429 374.285455 
L 826.354286 384.169091 
L 830.180571 384.169091 
L 831.456 398.994545 
L 832.731429 389.110909 
L 834.006857 384.169091 
L 835.282286 384.169091 
L 836.557714 369.343636 
L 837.833143 389.110909 
L 839.108571 384.169091 
L 840.384 374.285455 
L 841.659429 359.46 
L 842.934857 349.576364 
L 844.210286 389.110909 
L 845.485714 423.703636 
L 869.718857 423.703636 
L 870.994286 324.867273 
L 872.269714 275.449091 
L 873.545143 324.867273 
L 874.820571 275.449091 
L 876.096 275.449091 
L 877.371429 324.867273 
L 878.646857 324.867273 
L 879.922286 275.449091 
L 881.197714 230.972727 
L 882.473143 295.216364 
L 883.748571 275.449091 
L 885.024 300.158182 
L 886.299429 250.74 
L 887.574857 300.158182 
L 888.850286 300.158182 
L 890.125714 255.681818 
L 891.401143 295.216364 
L 892.676571 275.449091 
L 893.952 275.449091 
L 895.227429 300.158182 
L 896.502857 151.903636 
L 897.778286 137.078182 
L 899.053714 314.983636 
L 900.329143 349.576364 
L 901.604571 374.285455 
L 902.88 423.703636 
L 913.083429 423.703636 
L 914.358857 398.994545 
L 915.634286 349.576364 
L 916.909714 374.285455 
L 918.185143 374.285455 
L 919.460571 349.576364 
L 920.736 349.576364 
L 922.011429 324.867273 
L 923.286857 349.576364 
L 924.562286 300.158182 
L 925.837714 151.903636 
L 927.113143 181.554545 
L 928.388571 156.845455 
L 930.939429 176.612727 
L 932.214857 226.030909 
L 933.490286 151.903636 
L 934.765714 250.74 
L 936.041143 226.030909 
L 937.316571 275.449091 
L 938.592 265.565455 
L 939.867429 324.867273 
L 941.142857 324.867273 
L 942.418286 300.158182 
L 943.693714 349.576364 
L 944.969143 349.576364 
L 947.52 300.158182 
L 950.070857 349.576364 
L 951.346286 270.507273 
L 952.621714 329.809091 
L 953.897143 334.750909 
L 955.172571 285.332727 
L 956.448 329.809091 
L 957.723429 324.867273 
L 958.998857 310.041818 
L 960.274286 270.507273 
L 961.549714 305.1 
L 962.825143 290.274545 
L 964.100571 270.507273 
L 965.376 300.158182 
L 966.651429 300.158182 
L 967.926857 270.507273 
L 969.202286 285.332727 
L 970.477714 270.507273 
L 971.753143 265.565455 
L 973.028571 206.263636 
L 974.304 275.449091 
L 975.579429 300.158182 
L 976.854857 275.449091 
L 978.130286 285.332727 
L 979.405714 290.274545 
L 980.681143 250.74 
L 981.956571 270.507273 
L 983.232 300.158182 
L 984.507429 280.390909 
L 985.782857 295.216364 
L 987.058286 250.74 
L 988.333714 230.972727 
L 989.609143 270.507273 
L 990.884571 250.74 
L 992.16 295.216364 
L 993.435429 300.158182 
L 994.710857 280.390909 
L 995.986286 300.158182 
L 997.261714 250.74 
L 998.537143 240.856364 
L 999.812571 295.216364 
L 1001.088 314.983636 
L 1002.363429 285.332727 
L 1003.638857 339.692727 
L 1004.914286 379.227273 
L 1006.189714 374.285455 
L 1007.465143 384.169091 
L 1008.740571 384.169091 
L 1010.016 364.401818 
L 1011.291429 369.343636 
L 1012.566857 384.169091 
L 1015.117714 384.169091 
L 1017.668571 374.285455 
L 1020.219429 344.634545 
L 1021.494857 354.518182 
L 1022.770286 369.343636 
L 1024.045714 423.703636 
L 1035.524571 423.703636 
L 1035.524571 423.703636 
" style="fill:none;stroke:#000004;stroke-linecap:square;"/>
   </g>
   <g id="line2d_19">
    <path clip-path="url(#p7ddd33e7a3)" d="M 144 423.703636 
L 155.478857 423.703636 
L 156.754286 401.465455 
L 159.305143 401.465455 
L 160.580571 379.227273 
L 161.856 401.465455 
L 165.682286 401.465455 
L 166.957714 379.227273 
L 168.233143 401.465455 
L 170.784 401.465455 
L 172.059429 379.227273 
L 173.334857 379.227273 
L 174.610286 334.750909 
L 175.885714 356.989091 
L 177.161143 356.989091 
L 178.436571 379.227273 
L 179.712 356.989091 
L 183.538286 356.989091 
L 184.813714 401.465455 
L 186.089143 423.703636 
L 188.64 423.703636 
L 189.915429 379.227273 
L 191.190857 401.465455 
L 192.466286 401.465455 
L 193.741714 379.227273 
L 195.017143 401.465455 
L 200.118857 401.465455 
L 201.394286 356.989091 
L 202.669714 379.227273 
L 205.220571 334.750909 
L 206.496 356.989091 
L 207.771429 356.989091 
L 209.046857 379.227273 
L 210.322286 356.989091 
L 211.597714 312.512727 
L 212.873143 290.274545 
L 214.148571 290.274545 
L 216.699429 201.321818 
L 217.974857 134.607273 
L 219.250286 174.636 
L 220.525714 183.531273 
L 221.801143 201.321818 
L 223.076571 156.845455 
L 224.352 223.56 
L 225.627429 179.083636 
L 226.902857 201.321818 
L 228.178286 245.798182 
L 230.729143 245.798182 
L 232.004571 201.321818 
L 233.28 223.56 
L 234.555429 268.036364 
L 237.106286 401.465455 
L 243.483429 401.465455 
L 244.758857 379.227273 
L 246.034286 401.465455 
L 247.309714 401.465455 
L 248.585143 397.017818 
L 249.860571 379.227273 
L 251.136 379.227273 
L 252.411429 356.989091 
L 253.686857 356.989091 
L 254.962286 379.227273 
L 256.237714 379.227273 
L 257.513143 356.989091 
L 258.788571 356.989091 
L 262.614857 423.703636 
L 263.890286 379.227273 
L 265.165714 401.465455 
L 266.441143 356.989091 
L 268.992 356.989091 
L 270.267429 379.227273 
L 274.093714 379.227273 
L 275.369143 334.750909 
L 276.644571 361.436727 
L 279.195429 343.646182 
L 280.470857 352.541455 
L 281.746286 334.750909 
L 283.021714 325.855636 
L 284.297143 210.217091 
L 285.572571 250.245818 
L 286.848 245.798182 
L 288.123429 245.798182 
L 289.398857 228.007636 
L 290.674286 241.350545 
L 291.949714 276.931636 
L 294.500571 223.56 
L 295.776 223.56 
L 297.051429 245.798182 
L 298.326857 223.56 
L 299.602286 254.693455 
L 300.877714 272.484 
L 302.153143 263.588727 
L 303.428571 263.588727 
L 304.704 236.902909 
L 305.979429 245.798182 
L 307.254857 276.931636 
L 309.805714 423.703636 
L 334.038857 423.703636 
L 335.314286 356.989091 
L 336.589714 245.798182 
L 337.865143 334.750909 
L 339.140571 312.512727 
L 340.416 245.798182 
L 341.691429 334.750909 
L 342.966857 356.989091 
L 344.242286 356.989091 
L 345.517714 401.465455 
L 349.344 401.465455 
L 350.619429 379.227273 
L 351.894857 401.465455 
L 358.272 401.465455 
L 359.547429 379.227273 
L 360.822857 379.227273 
L 363.373714 423.703636 
L 364.649143 423.703636 
L 367.2 405.913091 
L 368.475429 392.570182 
L 369.750857 374.779636 
L 371.026286 383.674909 
L 372.301714 379.227273 
L 373.577143 383.674909 
L 374.852571 383.674909 
L 376.128 361.436727 
L 377.403429 356.989091 
L 378.678857 370.332 
L 379.954286 370.332 
L 382.505143 343.646182 
L 383.780571 352.541455 
L 385.056 312.512727 
L 386.331429 308.065091 
L 387.606857 312.512727 
L 388.882286 339.198545 
L 390.157714 330.303273 
L 391.433143 339.198545 
L 392.708571 352.541455 
L 393.984 352.541455 
L 395.259429 276.931636 
L 396.534857 290.274545 
L 397.810286 290.274545 
L 399.085714 303.617455 
L 400.361143 299.169818 
L 401.636571 290.274545 
L 402.912 303.617455 
L 404.187429 250.245818 
L 405.462857 219.112364 
L 406.738286 268.036364 
L 408.013714 236.902909 
L 409.289143 241.350545 
L 410.564571 201.321818 
L 411.84 165.740727 
L 413.115429 187.978909 
L 414.390857 290.274545 
L 415.666286 285.826909 
L 416.941714 285.826909 
L 418.217143 294.722182 
L 419.492571 263.588727 
L 420.768 294.722182 
L 422.043429 299.169818 
L 423.318857 281.379273 
L 424.594286 281.379273 
L 425.869714 312.512727 
L 427.145143 312.512727 
L 428.420571 290.274545 
L 429.696 308.065091 
L 430.971429 303.617455 
L 432.246857 308.065091 
L 433.522286 272.484 
L 434.797714 276.931636 
L 436.073143 272.484 
L 437.348571 245.798182 
L 438.624 308.065091 
L 442.450286 334.750909 
L 443.725714 348.093818 
L 445.001143 339.198545 
L 446.276571 339.198545 
L 447.552 361.436727 
L 448.827429 379.227273 
L 450.102857 379.227273 
L 451.378286 370.332 
L 452.653714 379.227273 
L 453.929143 365.884364 
L 455.204571 370.332 
L 456.48 370.332 
L 457.755429 374.779636 
L 459.030857 370.332 
L 461.581714 343.646182 
L 462.857143 285.826909 
L 464.132571 325.855636 
L 465.408 303.617455 
L 466.683429 321.408 
L 467.958857 325.855636 
L 469.234286 312.512727 
L 470.509714 325.855636 
L 471.785143 325.855636 
L 474.336 352.541455 
L 475.611429 348.093818 
L 476.886857 339.198545 
L 478.162286 343.646182 
L 479.437714 343.646182 
L 480.713143 330.303273 
L 483.264 356.989091 
L 484.539429 348.093818 
L 485.814857 343.646182 
L 488.365714 423.703636 
L 512.598857 423.703636 
L 515.149714 290.274545 
L 516.425143 356.989091 
L 517.700571 356.989091 
L 518.976 223.56 
L 520.251429 290.274545 
L 521.526857 290.274545 
L 522.802286 223.56 
L 524.077714 290.274545 
L 525.353143 290.274545 
L 526.628571 223.56 
L 527.904 268.036364 
L 529.179429 290.274545 
L 531.730286 290.274545 
L 533.005714 312.512727 
L 534.281143 268.036364 
L 535.556571 245.798182 
L 536.832 268.036364 
L 538.107429 245.798182 
L 539.382857 201.321818 
L 540.658286 245.798182 
L 541.933714 272.484 
L 543.209143 303.617455 
L 544.484571 272.484 
L 545.76 312.512727 
L 547.035429 308.065091 
L 548.310857 281.379273 
L 549.586286 299.169818 
L 550.861714 294.722182 
L 552.137143 276.931636 
L 553.412571 241.350545 
L 554.688 285.826909 
L 555.963429 272.484 
L 557.238857 263.588727 
L 559.789714 272.484 
L 561.065143 290.274545 
L 562.340571 285.826909 
L 563.616 236.902909 
L 564.891429 268.036364 
L 566.166857 250.245818 
L 567.442286 370.332 
L 568.717714 334.750909 
L 569.993143 379.227273 
L 571.268571 379.227273 
L 572.544 339.198545 
L 573.819429 374.779636 
L 575.094857 383.674909 
L 576.370286 401.465455 
L 577.645714 401.465455 
L 578.921143 383.674909 
L 580.196571 401.465455 
L 581.472 397.017818 
L 582.747429 401.465455 
L 586.573714 401.465455 
L 587.849143 383.674909 
L 589.124571 379.227273 
L 590.4 334.750909 
L 591.675429 374.779636 
L 592.950857 370.332 
L 594.226286 343.646182 
L 595.501714 365.884364 
L 596.777143 370.332 
L 598.052571 343.646182 
L 599.328 383.674909 
L 600.603429 388.122545 
L 601.878857 388.122545 
L 603.154286 383.674909 
L 605.705143 401.465455 
L 606.980571 397.017818 
L 608.256 397.017818 
L 609.531429 405.913091 
L 612.082286 405.913091 
L 613.357714 388.122545 
L 614.633143 361.436727 
L 615.908571 312.512727 
L 617.184 308.065091 
L 618.459429 330.303273 
L 619.734857 316.960364 
L 621.010286 294.722182 
L 622.285714 330.303273 
L 623.561143 334.750909 
L 624.836571 299.169818 
L 626.112 334.750909 
L 627.387429 352.541455 
L 629.938286 334.750909 
L 631.213714 343.646182 
L 632.489143 348.093818 
L 633.764571 308.065091 
L 635.04 343.646182 
L 637.590857 352.541455 
L 638.866286 334.750909 
L 640.141714 321.408 
L 641.417143 334.750909 
L 642.692571 370.332 
L 643.968 383.674909 
L 645.243429 379.227273 
L 646.518857 397.017818 
L 647.794286 392.570182 
L 649.069714 383.674909 
L 650.345143 392.570182 
L 651.620571 397.017818 
L 654.171429 388.122545 
L 655.446857 361.436727 
L 656.722286 388.122545 
L 659.273143 379.227273 
L 660.548571 392.570182 
L 661.824 374.779636 
L 663.099429 388.122545 
L 664.374857 383.674909 
L 665.650286 388.122545 
L 666.925714 423.703636 
L 703.913143 423.703636 
L 705.188571 410.360727 
L 706.464 401.465455 
L 707.739429 388.122545 
L 709.014857 370.332 
L 710.290286 370.332 
L 711.565714 388.122545 
L 712.841143 388.122545 
L 714.116571 374.779636 
L 715.392 388.122545 
L 716.667429 365.884364 
L 717.942857 325.855636 
L 719.218286 290.274545 
L 720.493714 330.303273 
L 721.769143 281.379273 
L 723.044571 339.198545 
L 724.32 325.855636 
L 725.595429 303.617455 
L 726.870857 334.750909 
L 728.146286 339.198545 
L 729.421714 325.855636 
L 730.697143 299.169818 
L 731.972571 281.379273 
L 733.248 232.455273 
L 734.523429 276.931636 
L 735.798857 245.798182 
L 737.074286 290.274545 
L 739.625143 281.379273 
L 740.900571 268.036364 
L 742.176 228.007636 
L 743.451429 236.902909 
L 744.726857 219.112364 
L 746.002286 312.512727 
L 747.277714 321.408 
L 748.553143 365.884364 
L 749.828571 392.570182 
L 751.104 370.332 
L 752.379429 388.122545 
L 753.654857 410.360727 
L 754.930286 410.360727 
L 756.205714 414.808364 
L 757.481143 397.017818 
L 758.756571 401.465455 
L 761.307429 374.779636 
L 762.582857 383.674909 
L 763.858286 374.779636 
L 765.133714 388.122545 
L 766.409143 356.989091 
L 767.684571 348.093818 
L 768.96 325.855636 
L 770.235429 334.750909 
L 771.510857 361.436727 
L 772.786286 343.646182 
L 774.061714 370.332 
L 775.337143 352.541455 
L 776.612571 352.541455 
L 779.163429 370.332 
L 780.438857 348.093818 
L 781.714286 356.989091 
L 782.989714 383.674909 
L 784.265143 397.017818 
L 785.540571 397.017818 
L 786.816 379.227273 
L 788.091429 397.017818 
L 790.642286 388.122545 
L 791.917714 401.465455 
L 793.193143 401.465455 
L 794.468571 397.017818 
L 795.744 383.674909 
L 797.019429 339.198545 
L 798.294857 343.646182 
L 799.570286 330.303273 
L 800.845714 339.198545 
L 802.121143 339.198545 
L 803.396571 356.989091 
L 804.672 325.855636 
L 805.947429 325.855636 
L 807.222857 339.198545 
L 808.498286 303.617455 
L 809.773714 290.274545 
L 811.049143 268.036364 
L 812.324571 303.617455 
L 813.6 268.036364 
L 814.875429 241.350545 
L 816.150857 299.169818 
L 817.426286 285.826909 
L 818.701714 232.455273 
L 819.977143 219.112364 
L 821.252571 281.379273 
L 822.528 245.798182 
L 823.803429 276.931636 
L 825.078857 232.455273 
L 826.354286 219.112364 
L 827.629714 241.350545 
L 828.905143 268.036364 
L 831.456 241.350545 
L 832.731429 245.798182 
L 834.006857 254.693455 
L 835.282286 214.664727 
L 836.557714 219.112364 
L 837.833143 232.455273 
L 839.108571 236.902909 
L 840.384 263.588727 
L 841.659429 276.931636 
L 842.934857 254.693455 
L 844.210286 316.960364 
L 845.485714 423.703636 
L 869.718857 423.703636 
L 872.269714 379.227273 
L 873.545143 401.465455 
L 874.820571 401.465455 
L 876.096 356.989091 
L 877.371429 379.227273 
L 879.922286 379.227273 
L 881.197714 401.465455 
L 885.024 401.465455 
L 886.299429 379.227273 
L 887.574857 401.465455 
L 892.676571 401.465455 
L 893.952 423.703636 
L 895.227429 379.227273 
L 896.502857 356.989091 
L 897.778286 339.198545 
L 899.053714 330.303273 
L 900.329143 312.512727 
L 901.604571 134.607273 
L 902.88 223.56 
L 904.155429 170.188364 
L 905.430857 165.740727 
L 906.706286 156.845455 
L 907.981714 183.531273 
L 909.257143 174.636 
L 910.532571 223.56 
L 911.808 223.56 
L 913.083429 201.321818 
L 914.358857 165.740727 
L 915.634286 214.664727 
L 916.909714 268.036364 
L 918.185143 245.798182 
L 919.460571 245.798182 
L 920.736 201.321818 
L 922.011429 223.56 
L 923.286857 187.978909 
L 925.837714 423.703636 
L 933.490286 423.703636 
L 934.765714 401.465455 
L 937.316571 401.465455 
L 938.592 379.227273 
L 939.867429 401.465455 
L 941.142857 401.465455 
L 942.418286 356.989091 
L 943.693714 379.227273 
L 944.969143 334.750909 
L 946.244571 379.227273 
L 950.070857 379.227273 
L 951.346286 303.617455 
L 952.621714 356.989091 
L 953.897143 316.960364 
L 955.172571 370.332 
L 956.448 370.332 
L 957.723429 365.884364 
L 958.998857 370.332 
L 960.274286 365.884364 
L 961.549714 383.674909 
L 962.825143 379.227273 
L 964.100571 383.674909 
L 965.376 392.570182 
L 966.651429 392.570182 
L 967.926857 401.465455 
L 969.202286 383.674909 
L 970.477714 401.465455 
L 973.028571 401.465455 
L 974.304 397.017818 
L 975.579429 361.436727 
L 976.854857 374.779636 
L 978.130286 361.436727 
L 979.405714 361.436727 
L 980.681143 374.779636 
L 981.956571 379.227273 
L 983.232 374.779636 
L 987.058286 388.122545 
L 988.333714 397.017818 
L 989.609143 401.465455 
L 990.884571 401.465455 
L 992.16 397.017818 
L 993.435429 401.465455 
L 995.986286 401.465455 
L 997.261714 383.674909 
L 998.537143 419.256 
L 999.812571 410.360727 
L 1001.088 374.779636 
L 1002.363429 365.884364 
L 1003.638857 370.332 
L 1004.914286 316.960364 
L 1006.189714 303.617455 
L 1007.465143 325.855636 
L 1008.740571 303.617455 
L 1010.016 299.169818 
L 1011.291429 325.855636 
L 1012.566857 303.617455 
L 1013.842286 294.722182 
L 1015.117714 303.617455 
L 1016.393143 272.484 
L 1017.668571 308.065091 
L 1018.944 272.484 
L 1020.219429 303.617455 
L 1021.494857 290.274545 
L 1022.770286 361.436727 
L 1024.045714 423.703636 
L 1035.524571 423.703636 
L 1035.524571 423.703636 
" style="fill:none;stroke:#57106e;stroke-linecap:square;"/>
   </g>
   <g id="line2d_20">
    <path clip-path="url(#p7ddd33e7a3)" d="M 144 423.703636 
L 170.784 423.703636 
L 172.059429 379.227273 
L 173.334857 379.227273 
L 174.610286 334.750909 
L 175.885714 379.227273 
L 178.436571 379.227273 
L 179.712 334.750909 
L 180.987429 379.227273 
L 182.262857 334.750909 
L 183.538286 334.750909 
L 184.813714 379.227273 
L 186.089143 379.227273 
L 187.364571 334.750909 
L 188.64 379.227273 
L 192.466286 379.227273 
L 193.741714 334.750909 
L 195.017143 379.227273 
L 201.394286 379.227273 
L 202.669714 334.750909 
L 203.945143 379.227273 
L 205.220571 379.227273 
L 206.496 423.703636 
L 260.064 423.703636 
L 262.614857 334.750909 
L 263.890286 379.227273 
L 265.165714 334.750909 
L 266.441143 245.798182 
L 267.716571 334.750909 
L 268.992 334.750909 
L 270.267429 290.274545 
L 271.542857 334.750909 
L 272.818286 334.750909 
L 274.093714 290.274545 
L 275.369143 334.750909 
L 276.644571 334.750909 
L 277.92 370.332 
L 279.195429 379.227273 
L 281.746286 379.227273 
L 283.021714 334.750909 
L 284.297143 334.750909 
L 285.572571 379.227273 
L 286.848 397.017818 
L 289.398857 397.017818 
L 290.674286 370.332 
L 291.949714 397.017818 
L 293.225143 397.017818 
L 295.776 343.646182 
L 297.051429 370.332 
L 299.602286 370.332 
L 300.877714 316.960364 
L 302.153143 370.332 
L 308.530286 370.332 
L 309.805714 423.703636 
L 334.038857 423.703636 
L 336.589714 334.750909 
L 337.865143 379.227273 
L 339.140571 379.227273 
L 340.416 334.750909 
L 341.691429 379.227273 
L 346.793143 379.227273 
L 348.068571 334.750909 
L 349.344 379.227273 
L 355.721143 379.227273 
L 356.996571 334.750909 
L 358.272 379.227273 
L 365.924571 379.227273 
L 367.2 388.122545 
L 368.475429 370.332 
L 369.750857 388.122545 
L 371.026286 388.122545 
L 372.301714 352.541455 
L 374.852571 388.122545 
L 376.128 388.122545 
L 378.678857 370.332 
L 379.954286 397.017818 
L 381.229714 388.122545 
L 383.780571 405.913091 
L 385.056 405.913091 
L 386.331429 388.122545 
L 387.606857 352.541455 
L 388.882286 361.436727 
L 390.157714 254.693455 
L 391.433143 334.750909 
L 392.708571 334.750909 
L 393.984 308.065091 
L 395.259429 352.541455 
L 396.534857 352.541455 
L 397.810286 343.646182 
L 399.085714 361.436727 
L 400.361143 361.436727 
L 401.636571 388.122545 
L 404.187429 388.122545 
L 405.462857 405.913091 
L 406.738286 414.808364 
L 409.289143 414.808364 
L 410.564571 405.913091 
L 411.84 414.808364 
L 413.115429 405.913091 
L 415.666286 352.541455 
L 416.941714 361.436727 
L 418.217143 379.227273 
L 419.492571 352.541455 
L 420.768 397.017818 
L 423.318857 397.017818 
L 425.869714 379.227273 
L 427.145143 379.227273 
L 428.420571 334.750909 
L 429.696 379.227273 
L 433.522286 379.227273 
L 434.797714 361.436727 
L 436.073143 352.541455 
L 437.348571 299.169818 
L 438.624 343.646182 
L 439.899429 370.332 
L 441.174857 343.646182 
L 442.450286 370.332 
L 443.725714 352.541455 
L 445.001143 352.541455 
L 446.276571 370.332 
L 448.827429 370.332 
L 450.102857 361.436727 
L 451.378286 379.227273 
L 453.929143 361.436727 
L 456.48 379.227273 
L 457.755429 379.227273 
L 459.030857 370.332 
L 460.306286 379.227273 
L 461.581714 334.750909 
L 462.857143 316.960364 
L 464.132571 370.332 
L 465.408 370.332 
L 466.683429 379.227273 
L 467.958857 379.227273 
L 470.509714 361.436727 
L 471.785143 370.332 
L 473.060571 370.332 
L 474.336 379.227273 
L 475.611429 379.227273 
L 476.886857 388.122545 
L 478.162286 379.227273 
L 479.437714 379.227273 
L 480.713143 370.332 
L 481.988571 388.122545 
L 485.814857 388.122545 
L 487.090286 379.227273 
L 488.365714 423.703636 
L 512.598857 423.703636 
L 513.874286 379.227273 
L 515.149714 245.798182 
L 516.425143 334.750909 
L 517.700571 290.274545 
L 518.976 290.274545 
L 520.251429 334.750909 
L 522.802286 334.750909 
L 524.077714 290.274545 
L 525.353143 334.750909 
L 526.628571 290.274545 
L 529.179429 379.227273 
L 531.730286 290.274545 
L 533.005714 334.750909 
L 534.281143 334.750909 
L 535.556571 290.274545 
L 536.832 290.274545 
L 538.107429 334.750909 
L 539.382857 290.274545 
L 540.658286 299.169818 
L 541.933714 370.332 
L 543.209143 379.227273 
L 544.484571 334.750909 
L 545.76 379.227273 
L 553.412571 379.227273 
L 554.688 334.750909 
L 555.963429 379.227273 
L 562.340571 379.227273 
L 563.616 334.750909 
L 564.891429 245.798182 
L 566.166857 334.750909 
L 567.442286 334.750909 
L 568.717714 379.227273 
L 573.819429 379.227273 
L 575.094857 334.750909 
L 576.370286 379.227273 
L 582.747429 379.227273 
L 584.022857 334.750909 
L 585.298286 379.227273 
L 591.675429 379.227273 
L 592.950857 334.750909 
L 594.226286 379.227273 
L 600.603429 379.227273 
L 601.878857 334.750909 
L 603.154286 379.227273 
L 609.531429 379.227273 
L 610.806857 361.436727 
L 612.082286 352.541455 
L 613.357714 379.227273 
L 614.633143 379.227273 
L 617.184 308.065091 
L 618.459429 343.646182 
L 619.734857 343.646182 
L 621.010286 263.588727 
L 622.285714 343.646182 
L 624.836571 343.646182 
L 627.387429 379.227273 
L 628.662857 370.332 
L 629.938286 370.332 
L 631.213714 405.913091 
L 637.590857 405.913091 
L 638.866286 388.122545 
L 640.141714 397.017818 
L 641.417143 370.332 
L 642.692571 397.017818 
L 643.968 397.017818 
L 645.243429 405.913091 
L 646.518857 405.913091 
L 647.794286 397.017818 
L 649.069714 405.913091 
L 650.345143 405.913091 
L 651.620571 397.017818 
L 652.896 405.913091 
L 654.171429 405.913091 
L 655.446857 388.122545 
L 656.722286 397.017818 
L 659.273143 379.227273 
L 661.824 379.227273 
L 663.099429 388.122545 
L 665.650286 388.122545 
L 666.925714 423.703636 
L 691.158857 423.703636 
L 693.709714 156.845455 
L 694.985143 290.274545 
L 696.260571 290.274545 
L 697.536 112.369091 
L 698.811429 245.798182 
L 700.086857 290.274545 
L 701.362286 245.798182 
L 702.637714 290.274545 
L 703.913143 290.274545 
L 705.188571 192.426545 
L 706.464 308.065091 
L 707.739429 299.169818 
L 709.014857 299.169818 
L 711.565714 316.960364 
L 712.841143 316.960364 
L 714.116571 263.588727 
L 715.392 272.484 
L 716.667429 308.065091 
L 717.942857 325.855636 
L 719.218286 316.960364 
L 720.493714 405.913091 
L 725.595429 405.913091 
L 726.870857 414.808364 
L 729.421714 414.808364 
L 730.697143 405.913091 
L 731.972571 414.808364 
L 738.349714 414.808364 
L 739.625143 405.913091 
L 740.900571 414.808364 
L 744.726857 414.808364 
L 746.002286 388.122545 
L 747.277714 343.646182 
L 748.553143 370.332 
L 749.828571 370.332 
L 751.104 352.541455 
L 752.379429 379.227273 
L 754.930286 379.227273 
L 756.205714 370.332 
L 757.481143 379.227273 
L 758.756571 343.646182 
L 760.032 325.855636 
L 761.307429 352.541455 
L 762.582857 325.855636 
L 763.858286 352.541455 
L 765.133714 343.646182 
L 766.409143 352.541455 
L 767.684571 290.274545 
L 768.96 281.379273 
L 770.235429 352.541455 
L 771.510857 379.227273 
L 772.786286 414.808364 
L 774.061714 397.017818 
L 775.337143 397.017818 
L 776.612571 405.913091 
L 777.888 397.017818 
L 779.163429 405.913091 
L 780.438857 379.227273 
L 782.989714 379.227273 
L 784.265143 352.541455 
L 785.540571 379.227273 
L 786.816 388.122545 
L 789.366857 388.122545 
L 790.642286 352.541455 
L 791.917714 370.332 
L 793.193143 370.332 
L 794.468571 334.750909 
L 795.744 370.332 
L 797.019429 352.541455 
L 798.294857 299.169818 
L 800.845714 299.169818 
L 802.121143 290.274545 
L 803.396571 316.960364 
L 804.672 299.169818 
L 805.947429 352.541455 
L 808.498286 352.541455 
L 809.773714 325.855636 
L 811.049143 405.913091 
L 812.324571 388.122545 
L 813.6 405.913091 
L 819.977143 405.913091 
L 821.252571 388.122545 
L 822.528 405.913091 
L 828.905143 405.913091 
L 830.180571 397.017818 
L 831.456 397.017818 
L 832.731429 414.808364 
L 837.833143 414.808364 
L 839.108571 405.913091 
L 840.384 414.808364 
L 844.210286 414.808364 
L 845.485714 423.703636 
L 869.718857 423.703636 
L 872.269714 334.750909 
L 873.545143 379.227273 
L 874.820571 379.227273 
L 876.096 334.750909 
L 877.371429 379.227273 
L 882.473143 379.227273 
L 883.748571 334.750909 
L 885.024 379.227273 
L 891.401143 379.227273 
L 892.676571 334.750909 
L 895.227429 423.703636 
L 948.795429 423.703636 
L 951.346286 334.750909 
L 952.621714 379.227273 
L 953.897143 379.227273 
L 955.172571 352.541455 
L 956.448 361.436727 
L 957.723429 379.227273 
L 962.825143 379.227273 
L 964.100571 334.750909 
L 965.376 379.227273 
L 971.753143 379.227273 
L 973.028571 334.750909 
L 974.304 379.227273 
L 980.681143 379.227273 
L 981.956571 334.750909 
L 983.232 379.227273 
L 989.609143 379.227273 
L 990.884571 334.750909 
L 992.16 379.227273 
L 995.986286 379.227273 
L 997.261714 334.750909 
L 998.537143 370.332 
L 999.812571 325.855636 
L 1001.088 361.436727 
L 1002.363429 370.332 
L 1003.638857 361.436727 
L 1004.914286 316.960364 
L 1006.189714 263.588727 
L 1007.465143 316.960364 
L 1008.740571 263.588727 
L 1010.016 272.484 
L 1011.291429 343.646182 
L 1012.566857 343.646182 
L 1013.842286 334.750909 
L 1016.393143 352.541455 
L 1017.668571 325.855636 
L 1018.944 397.017818 
L 1020.219429 405.913091 
L 1022.770286 405.913091 
L 1024.045714 423.703636 
L 1035.524571 423.703636 
L 1035.524571 423.703636 
" style="fill:none;stroke:#bc3754;stroke-linecap:square;"/>
   </g>
   <g id="line2d_21">
    <path clip-path="url(#p7ddd33e7a3)" d="M 144 423.703636 
L 155.478857 423.703636 
L 158.029714 349.576364 
L 159.305143 386.64 
L 160.580571 386.64 
L 161.856 349.576364 
L 164.406857 349.576364 
L 165.682286 312.512727 
L 166.957714 349.576364 
L 168.233143 349.576364 
L 169.508571 253.210909 
L 170.784 260.623636 
L 172.059429 312.512727 
L 173.334857 268.036364 
L 174.610286 319.925455 
L 175.885714 349.576364 
L 179.712 238.385455 
L 182.262857 312.512727 
L 183.538286 275.449091 
L 184.813714 312.512727 
L 186.089143 312.512727 
L 188.64 238.385455 
L 189.915429 312.512727 
L 192.466286 312.512727 
L 193.741714 275.449091 
L 195.017143 312.512727 
L 197.568 312.512727 
L 198.843429 238.385455 
L 200.118857 312.512727 
L 201.394286 312.512727 
L 202.669714 275.449091 
L 203.945143 349.576364 
L 205.220571 349.576364 
L 206.496 275.449091 
L 207.771429 349.576364 
L 209.046857 275.449091 
L 210.322286 423.703636 
L 235.830857 423.703636 
L 237.106286 312.512727 
L 239.657143 312.512727 
L 240.932571 349.576364 
L 242.208 312.512727 
L 243.483429 349.576364 
L 246.034286 349.576364 
L 247.309714 312.512727 
L 248.585143 312.512727 
L 249.860571 349.576364 
L 251.136 349.576364 
L 252.411429 312.512727 
L 253.686857 349.576364 
L 256.237714 349.576364 
L 257.513143 386.64 
L 258.788571 312.512727 
L 260.064 312.512727 
L 261.339429 349.576364 
L 262.614857 201.321818 
L 263.890286 238.385455 
L 265.165714 164.258182 
L 266.441143 275.449091 
L 268.992 275.449091 
L 271.542857 201.321818 
L 272.818286 275.449091 
L 274.093714 238.385455 
L 275.369143 275.449091 
L 276.644571 305.1 
L 277.92 312.512727 
L 279.195429 342.163636 
L 280.470857 349.576364 
L 281.746286 312.512727 
L 283.021714 342.163636 
L 284.297143 379.227273 
L 285.572571 401.465455 
L 290.674286 401.465455 
L 291.949714 379.227273 
L 293.225143 401.465455 
L 299.602286 401.465455 
L 300.877714 379.227273 
L 302.153143 401.465455 
L 304.704 401.465455 
L 305.979429 394.052727 
L 308.530286 394.052727 
L 309.805714 423.703636 
L 334.038857 423.703636 
L 336.589714 275.449091 
L 337.865143 349.576364 
L 339.140571 349.576364 
L 340.416 275.449091 
L 341.691429 349.576364 
L 342.966857 349.576364 
L 345.517714 275.449091 
L 346.793143 312.512727 
L 348.068571 238.385455 
L 350.619429 312.512727 
L 355.721143 312.512727 
L 358.272 238.385455 
L 359.547429 312.512727 
L 360.822857 201.321818 
L 362.098286 275.449091 
L 363.373714 253.210909 
L 364.649143 297.687273 
L 365.924571 290.274545 
L 367.2 356.989091 
L 368.475429 334.750909 
L 369.750857 342.163636 
L 371.026286 319.925455 
L 373.577143 334.750909 
L 374.852571 364.401818 
L 376.128 364.401818 
L 377.403429 371.814545 
L 378.678857 342.163636 
L 379.954286 371.814545 
L 381.229714 371.814545 
L 382.505143 356.989091 
L 383.780571 371.814545 
L 385.056 356.989091 
L 386.331429 356.989091 
L 387.606857 371.814545 
L 388.882286 364.401818 
L 390.157714 342.163636 
L 391.433143 356.989091 
L 392.708571 342.163636 
L 393.984 342.163636 
L 395.259429 379.227273 
L 396.534857 386.64 
L 399.085714 386.64 
L 400.361143 371.814545 
L 401.636571 349.576364 
L 402.912 379.227273 
L 404.187429 386.64 
L 405.462857 401.465455 
L 409.289143 401.465455 
L 410.564571 394.052727 
L 413.115429 408.878182 
L 415.666286 394.052727 
L 416.941714 401.465455 
L 418.217143 401.465455 
L 419.492571 394.052727 
L 420.768 356.989091 
L 422.043429 386.64 
L 423.318857 386.64 
L 424.594286 371.814545 
L 425.869714 379.227273 
L 427.145143 379.227273 
L 428.420571 371.814545 
L 429.696 356.989091 
L 430.971429 371.814545 
L 432.246857 364.401818 
L 433.522286 379.227273 
L 434.797714 379.227273 
L 436.073143 364.401818 
L 437.348571 312.512727 
L 438.624 319.925455 
L 439.899429 342.163636 
L 441.174857 319.925455 
L 442.450286 327.338182 
L 443.725714 312.512727 
L 445.001143 305.1 
L 446.276571 327.338182 
L 447.552 312.512727 
L 448.827429 305.1 
L 450.102857 327.338182 
L 453.929143 305.1 
L 455.204571 319.925455 
L 456.48 290.274545 
L 457.755429 319.925455 
L 459.030857 319.925455 
L 460.306286 334.750909 
L 461.581714 334.750909 
L 462.857143 327.338182 
L 464.132571 356.989091 
L 465.408 371.814545 
L 467.958857 356.989091 
L 469.234286 371.814545 
L 470.509714 371.814545 
L 471.785143 356.989091 
L 473.060571 371.814545 
L 474.336 364.401818 
L 476.886857 334.750909 
L 478.162286 334.750909 
L 479.437714 342.163636 
L 480.713143 334.750909 
L 481.988571 342.163636 
L 483.264 342.163636 
L 484.539429 312.512727 
L 485.814857 319.925455 
L 487.090286 386.64 
L 488.365714 423.703636 
L 512.598857 423.703636 
L 515.149714 275.449091 
L 516.425143 349.576364 
L 517.700571 349.576364 
L 518.976 312.512727 
L 520.251429 386.64 
L 525.353143 386.64 
L 526.628571 349.576364 
L 527.904 386.64 
L 529.179429 386.64 
L 530.454857 423.703636 
L 540.658286 423.703636 
L 541.933714 394.052727 
L 543.209143 379.227273 
L 544.484571 386.64 
L 545.76 356.989091 
L 547.035429 379.227273 
L 548.310857 386.64 
L 550.861714 386.64 
L 552.137143 356.989091 
L 553.412571 379.227273 
L 554.688 386.64 
L 559.789714 386.64 
L 561.065143 356.989091 
L 562.340571 386.64 
L 563.616 379.227273 
L 564.891429 386.64 
L 566.166857 386.64 
L 567.442286 319.925455 
L 568.717714 238.385455 
L 571.268571 312.512727 
L 572.544 312.512727 
L 573.819429 230.972727 
L 575.094857 282.861818 
L 576.370286 312.512727 
L 580.196571 312.512727 
L 581.472 238.385455 
L 582.747429 290.274545 
L 584.022857 297.687273 
L 585.298286 312.512727 
L 587.849143 312.512727 
L 589.124571 201.321818 
L 590.4 230.972727 
L 591.675429 282.861818 
L 592.950857 356.989091 
L 598.052571 356.989091 
L 599.328 319.925455 
L 600.603429 327.338182 
L 601.878857 356.989091 
L 603.154286 356.989091 
L 604.429714 349.576364 
L 605.705143 327.338182 
L 606.980571 342.163636 
L 608.256 275.449091 
L 609.531429 268.036364 
L 610.806857 282.861818 
L 612.082286 312.512727 
L 613.357714 312.512727 
L 615.908571 297.687273 
L 617.184 268.036364 
L 618.459429 342.163636 
L 619.734857 342.163636 
L 621.010286 334.750909 
L 622.285714 349.576364 
L 623.561143 342.163636 
L 624.836571 349.576364 
L 626.112 312.512727 
L 627.387429 312.512727 
L 629.938286 342.163636 
L 631.213714 349.576364 
L 632.489143 349.576364 
L 633.764571 319.925455 
L 635.04 342.163636 
L 636.315429 312.512727 
L 637.590857 319.925455 
L 638.866286 334.750909 
L 640.141714 268.036364 
L 641.417143 216.147273 
L 642.692571 312.512727 
L 643.968 349.576364 
L 645.243429 371.814545 
L 646.518857 349.576364 
L 647.794286 371.814545 
L 649.069714 371.814545 
L 650.345143 356.989091 
L 651.620571 364.401818 
L 652.896 364.401818 
L 654.171429 356.989091 
L 655.446857 364.401818 
L 656.722286 356.989091 
L 659.273143 312.512727 
L 660.548571 275.449091 
L 661.824 312.512727 
L 663.099429 305.1 
L 664.374857 312.512727 
L 665.650286 364.401818 
L 666.925714 423.703636 
L 691.158857 423.703636 
L 693.709714 275.449091 
L 694.985143 349.576364 
L 696.260571 349.576364 
L 697.536 275.449091 
L 698.811429 275.449091 
L 700.086857 312.512727 
L 701.362286 312.512727 
L 702.637714 275.449091 
L 703.913143 312.512727 
L 705.188571 230.972727 
L 706.464 268.036364 
L 707.739429 282.861818 
L 709.014857 201.321818 
L 710.290286 268.036364 
L 711.565714 282.861818 
L 712.841143 282.861818 
L 714.116571 245.798182 
L 715.392 253.210909 
L 716.667429 245.798182 
L 717.942857 275.449091 
L 719.218286 275.449091 
L 720.493714 334.750909 
L 721.769143 356.989091 
L 724.32 356.989091 
L 726.870857 327.338182 
L 728.146286 364.401818 
L 729.421714 364.401818 
L 731.972571 379.227273 
L 734.523429 364.401818 
L 735.798857 349.576364 
L 737.074286 364.401818 
L 739.625143 364.401818 
L 740.900571 371.814545 
L 742.176 364.401818 
L 743.451429 364.401818 
L 747.277714 386.64 
L 748.553143 312.512727 
L 749.828571 297.687273 
L 751.104 290.274545 
L 752.379429 297.687273 
L 754.930286 268.036364 
L 756.205714 268.036364 
L 757.481143 253.210909 
L 758.756571 245.798182 
L 760.032 290.274545 
L 761.307429 260.623636 
L 762.582857 275.449091 
L 763.858286 268.036364 
L 765.133714 253.210909 
L 766.409143 305.1 
L 767.684571 253.210909 
L 768.96 253.210909 
L 770.235429 290.274545 
L 771.510857 349.576364 
L 772.786286 342.163636 
L 775.337143 356.989091 
L 776.612571 319.925455 
L 777.888 349.576364 
L 779.163429 342.163636 
L 780.438857 342.163636 
L 781.714286 305.1 
L 782.989714 282.861818 
L 784.265143 312.512727 
L 785.540571 319.925455 
L 786.816 260.623636 
L 788.091429 312.512727 
L 789.366857 312.512727 
L 790.642286 290.274545 
L 791.917714 305.1 
L 793.193143 268.036364 
L 794.468571 238.385455 
L 795.744 275.449091 
L 797.019429 371.814545 
L 799.570286 371.814545 
L 800.845714 364.401818 
L 802.121143 364.401818 
L 803.396571 342.163636 
L 804.672 371.814545 
L 805.947429 364.401818 
L 807.222857 371.814545 
L 808.498286 371.814545 
L 809.773714 364.401818 
L 811.049143 386.64 
L 812.324571 371.814545 
L 813.6 386.64 
L 814.875429 364.401818 
L 816.150857 386.64 
L 817.426286 386.64 
L 818.701714 379.227273 
L 819.977143 386.64 
L 822.528 386.64 
L 823.803429 394.052727 
L 825.078857 394.052727 
L 826.354286 401.465455 
L 827.629714 394.052727 
L 828.905143 401.465455 
L 830.180571 401.465455 
L 831.456 394.052727 
L 832.731429 394.052727 
L 835.282286 408.878182 
L 836.557714 401.465455 
L 837.833143 408.878182 
L 839.108571 408.878182 
L 840.384 401.465455 
L 841.659429 408.878182 
L 844.210286 408.878182 
L 845.485714 423.703636 
L 869.718857 423.703636 
L 872.269714 201.321818 
L 873.545143 312.512727 
L 874.820571 312.512727 
L 876.096 201.321818 
L 877.371429 312.512727 
L 882.473143 312.512727 
L 883.748571 201.321818 
L 885.024 312.512727 
L 891.401143 312.512727 
L 892.676571 238.385455 
L 893.952 275.449091 
L 896.502857 423.703636 
L 933.490286 423.703636 
L 934.765714 386.64 
L 936.041143 312.512727 
L 937.316571 312.512727 
L 938.592 327.338182 
L 939.867429 223.56 
L 941.142857 238.385455 
L 942.418286 208.734545 
L 943.693714 268.036364 
L 944.969143 275.449091 
L 946.244571 201.321818 
L 947.52 201.321818 
L 948.795429 275.449091 
L 950.070857 275.449091 
L 951.346286 319.925455 
L 953.897143 319.925455 
L 955.172571 253.210909 
L 956.448 319.925455 
L 957.723429 319.925455 
L 958.998857 282.861818 
L 960.274286 319.925455 
L 961.549714 290.274545 
L 962.825143 319.925455 
L 964.100571 312.512727 
L 965.376 290.274545 
L 966.651429 312.512727 
L 967.926857 268.036364 
L 969.202286 312.512727 
L 970.477714 282.861818 
L 971.753143 268.036364 
L 973.028571 238.385455 
L 974.304 290.274545 
L 975.579429 349.576364 
L 976.854857 349.576364 
L 978.130286 334.750909 
L 979.405714 312.512727 
L 980.681143 349.576364 
L 983.232 349.576364 
L 984.507429 327.338182 
L 985.782857 349.576364 
L 987.058286 349.576364 
L 988.333714 297.687273 
L 989.609143 312.512727 
L 992.16 312.512727 
L 993.435429 268.036364 
L 994.710857 297.687273 
L 995.986286 312.512727 
L 997.261714 223.56 
L 998.537143 238.385455 
L 999.812571 312.512727 
L 1001.088 356.989091 
L 1002.363429 356.989091 
L 1003.638857 334.750909 
L 1004.914286 356.989091 
L 1006.189714 349.576364 
L 1007.465143 371.814545 
L 1008.740571 379.227273 
L 1010.016 379.227273 
L 1012.566857 349.576364 
L 1013.842286 371.814545 
L 1015.117714 356.989091 
L 1016.393143 356.989091 
L 1017.668571 379.227273 
L 1018.944 356.989091 
L 1020.219429 356.989091 
L 1021.494857 342.163636 
L 1022.770286 379.227273 
L 1024.045714 423.703636 
L 1035.524571 423.703636 
L 1035.524571 423.703636 
" style="fill:none;stroke:#f98e09;stroke-linecap:square;"/>
   </g>
   <g id="patch_3">
    <path d="M 144 441 
L 144 60.48 
" style="fill:none;stroke:#000000;stroke-linecap:square;stroke-linejoin:miter;stroke-width:0.8;"/>
   </g>
   <g id="patch_4">
    <path d="M 1036.8 441 
L 1036.8 60.48 
" style="fill:none;stroke:#000000;stroke-linecap:square;stroke-linejoin:miter;stroke-width:0.8;"/>
   </g>
   <g id="patch_5">
    <path d="M 144 441 
L 1036.8 441 
" style="fill:none;stroke:#000000;stroke-linecap:square;stroke-linejoin:miter;stroke-width:0.8;"/>
   </g>
   <g id="patch_6">
    <path d="M 144 60.48 
L 1036.8 60.48 
" style="fill:none;stroke:#000000;stroke-linecap:square;stroke-linejoin:miter;stroke-width:0.8;"/>
   </g>
   <g id="legend_1">
    <g id="line2d_22">
     <path d="M 474.41875 73.578438 
L 494.41875 73.578438 
" style="fill:none;stroke:#000004;stroke-linecap:square;"/>
    </g>
    <g id="line2d_23"/>
    <g id="text_20">
     <!-- M1 -->
     <g transform="translate(502.41875 77.078438)scale(0.1 -0.1)">
      <use xlink:href="#DejaVuSans-77"/>
      <use x="86.279297" xlink:href="#DejaVuSans-49"/>
     </g>
    </g>
    <g id="line2d_24">
     <path d="M 537.409375 73.578438 
L 557.409375 73.578438 
" style="fill:none;stroke:#57106e;stroke-linecap:square;"/>
    </g>
    <g id="line2d_25"/>
    <g id="text_21">
     <!-- M2 -->
     <g transform="translate(565.409375 77.078438)scale(0.1 -0.1)">
      <use xlink:href="#DejaVuSans-77"/>
      <use x="86.279297" xlink:href="#DejaVuSans-50"/>
     </g>
    </g>
    <g id="line2d_26">
     <path d="M 600.4 73.578438 
L 620.4 73.578438 
" style="fill:none;stroke:#bc3754;stroke-linecap:square;"/>
    </g>
    <g id="line2d_27"/>
    <g id="text_22">
     <!-- M3 -->
     <g transform="translate(628.4 77.078438)scale(0.1 -0.1)">
      <use xlink:href="#DejaVuSans-77"/>
      <use x="86.279297" xlink:href="#DejaVuSans-51"/>
     </g>
    </g>
    <g id="line2d_28">
     <path d="M 663.390625 73.578438 
L 683.390625 73.578438 
" style="fill:none;stroke:#f98e09;stroke-linecap:square;"/>
    </g>
    <g id="line2d_29"/>
    <g id="text_23">
     <!-- M4 -->
     <g transform="translate(691.390625 77.078438)scale(0.1 -0.1)">
      <use xlink:href="#DejaVuSans-77"/>
      <use x="86.279297" xlink:href="#DejaVuSans-52"/>
     </g>
    </g>
   </g>
  </g>
 </g>
 <defs>
  <clipPath id="p7ddd33e7a3">
   <rect height="380.52" width="892.8" x="144" y="60.48"/>
  </clipPath>
 </defs>
</svg>
