<?xml version="1.0" encoding="utf-8" standalone="no"?>
<!DOCTYPE svg PUBLIC "-//W3C//DTD SVG 1.1//EN"
  "http://www.w3.org/Graphics/SVG/1.1/DTD/svg11.dtd">
<!-- Created with matplotlib (https://matplotlib.org/) -->
<svg height="504pt" version="1.1" viewBox="0 0 1152 504" width="1152pt" xmlns="http://www.w3.org/2000/svg" xmlns:xlink="http://www.w3.org/1999/xlink">
 <metadata>
  <rdf:RDF xmlns:cc="http://creativecommons.org/ns#" xmlns:dc="http://purl.org/dc/elements/1.1/" xmlns:rdf="http://www.w3.org/1999/02/22-rdf-syntax-ns#">
   <cc:Work>
    <dc:type rdf:resource="http://purl.org/dc/dcmitype/StillImage"/>
    <dc:date>2021-05-03T23:43:31.485135</dc:date>
    <dc:format>image/svg+xml</dc:format>
    <dc:creator>
     <cc:Agent>
      <dc:title>Matplotlib v3.3.4, https://matplotlib.org/</dc:title>
     </cc:Agent>
    </dc:creator>
   </cc:Work>
  </rdf:RDF>
 </metadata>
 <defs>
  <style type="text/css">*{stroke-linecap:butt;stroke-linejoin:round;}</style>
 </defs>
 <g id="figure_1">
  <g id="patch_1">
   <path d="M 0 504 
L 1152 504 
L 1152 0 
L 0 0 
z
" style="fill:none;"/>
  </g>
  <g id="axes_1">
   <g id="patch_2">
    <path d="M 144 441 
L 1036.8 441 
L 1036.8 60.48 
L 144 60.48 
z
" style="fill:#ffffff;"/>
   </g>
   <g id="matplotlib.axis_1">
    <g id="xtick_1">
     <g id="line2d_1">
      <defs>
       <path d="M 0 0 
L 0 3.5 
" id="m97544238c1" style="stroke:#000000;stroke-width:0.8;"/>
      </defs>
      <g>
       <use style="stroke:#000000;stroke-width:0.8;" x="144" xlink:href="#m97544238c1" y="441"/>
      </g>
     </g>
     <g id="text_1">
      <!-- 0 -->
      <g transform="translate(137.6375 463.196875)scale(0.2 -0.2)">
       <defs>
        <path d="M 31.78125 66.40625 
Q 24.171875 66.40625 20.328125 58.90625 
Q 16.5 51.421875 16.5 36.375 
Q 16.5 21.390625 20.328125 13.890625 
Q 24.171875 6.390625 31.78125 6.390625 
Q 39.453125 6.390625 43.28125 13.890625 
Q 47.125 21.390625 47.125 36.375 
Q 47.125 51.421875 43.28125 58.90625 
Q 39.453125 66.40625 31.78125 66.40625 
z
M 31.78125 74.21875 
Q 44.046875 74.21875 50.515625 64.515625 
Q 56.984375 54.828125 56.984375 36.375 
Q 56.984375 17.96875 50.515625 8.265625 
Q 44.046875 -1.421875 31.78125 -1.421875 
Q 19.53125 -1.421875 13.0625 8.265625 
Q 6.59375 17.96875 6.59375 36.375 
Q 6.59375 54.828125 13.0625 64.515625 
Q 19.53125 74.21875 31.78125 74.21875 
z
" id="DejaVuSans-48"/>
       </defs>
       <use xlink:href="#DejaVuSans-48"/>
      </g>
     </g>
    </g>
    <g id="xtick_2">
     <g id="line2d_2">
      <g>
       <use style="stroke:#000000;stroke-width:0.8;" x="271.542857" xlink:href="#m97544238c1" y="441"/>
      </g>
     </g>
     <g id="text_2">
      <!-- 5 -->
      <g transform="translate(265.180357 463.196875)scale(0.2 -0.2)">
       <defs>
        <path d="M 10.796875 72.90625 
L 49.515625 72.90625 
L 49.515625 64.59375 
L 19.828125 64.59375 
L 19.828125 46.734375 
Q 21.96875 47.46875 24.109375 47.828125 
Q 26.265625 48.1875 28.421875 48.1875 
Q 40.625 48.1875 47.75 41.5 
Q 54.890625 34.8125 54.890625 23.390625 
Q 54.890625 11.625 47.5625 5.09375 
Q 40.234375 -1.421875 26.90625 -1.421875 
Q 22.3125 -1.421875 17.546875 -0.640625 
Q 12.796875 0.140625 7.71875 1.703125 
L 7.71875 11.625 
Q 12.109375 9.234375 16.796875 8.0625 
Q 21.484375 6.890625 26.703125 6.890625 
Q 35.15625 6.890625 40.078125 11.328125 
Q 45.015625 15.765625 45.015625 23.390625 
Q 45.015625 31 40.078125 35.4375 
Q 35.15625 39.890625 26.703125 39.890625 
Q 22.75 39.890625 18.8125 39.015625 
Q 14.890625 38.140625 10.796875 36.28125 
z
" id="DejaVuSans-53"/>
       </defs>
       <use xlink:href="#DejaVuSans-53"/>
      </g>
     </g>
    </g>
    <g id="xtick_3">
     <g id="line2d_3">
      <g>
       <use style="stroke:#000000;stroke-width:0.8;" x="399.085714" xlink:href="#m97544238c1" y="441"/>
      </g>
     </g>
     <g id="text_3">
      <!-- 10 -->
      <g transform="translate(386.360714 463.196875)scale(0.2 -0.2)">
       <defs>
        <path d="M 12.40625 8.296875 
L 28.515625 8.296875 
L 28.515625 63.921875 
L 10.984375 60.40625 
L 10.984375 69.390625 
L 28.421875 72.90625 
L 38.28125 72.90625 
L 38.28125 8.296875 
L 54.390625 8.296875 
L 54.390625 0 
L 12.40625 0 
z
" id="DejaVuSans-49"/>
       </defs>
       <use xlink:href="#DejaVuSans-49"/>
       <use x="63.623047" xlink:href="#DejaVuSans-48"/>
      </g>
     </g>
    </g>
    <g id="xtick_4">
     <g id="line2d_4">
      <g>
       <use style="stroke:#000000;stroke-width:0.8;" x="526.628571" xlink:href="#m97544238c1" y="441"/>
      </g>
     </g>
     <g id="text_4">
      <!-- 15 -->
      <g transform="translate(513.903571 463.196875)scale(0.2 -0.2)">
       <use xlink:href="#DejaVuSans-49"/>
       <use x="63.623047" xlink:href="#DejaVuSans-53"/>
      </g>
     </g>
    </g>
    <g id="xtick_5">
     <g id="line2d_5">
      <g>
       <use style="stroke:#000000;stroke-width:0.8;" x="654.171429" xlink:href="#m97544238c1" y="441"/>
      </g>
     </g>
     <g id="text_5">
      <!-- 20 -->
      <g transform="translate(641.446429 463.196875)scale(0.2 -0.2)">
       <defs>
        <path d="M 19.1875 8.296875 
L 53.609375 8.296875 
L 53.609375 0 
L 7.328125 0 
L 7.328125 8.296875 
Q 12.9375 14.109375 22.625 23.890625 
Q 32.328125 33.6875 34.8125 36.53125 
Q 39.546875 41.84375 41.421875 45.53125 
Q 43.3125 49.21875 43.3125 52.78125 
Q 43.3125 58.59375 39.234375 62.25 
Q 35.15625 65.921875 28.609375 65.921875 
Q 23.96875 65.921875 18.8125 64.3125 
Q 13.671875 62.703125 7.8125 59.421875 
L 7.8125 69.390625 
Q 13.765625 71.78125 18.9375 73 
Q 24.125 74.21875 28.421875 74.21875 
Q 39.75 74.21875 46.484375 68.546875 
Q 53.21875 62.890625 53.21875 53.421875 
Q 53.21875 48.921875 51.53125 44.890625 
Q 49.859375 40.875 45.40625 35.40625 
Q 44.1875 33.984375 37.640625 27.21875 
Q 31.109375 20.453125 19.1875 8.296875 
z
" id="DejaVuSans-50"/>
       </defs>
       <use xlink:href="#DejaVuSans-50"/>
       <use x="63.623047" xlink:href="#DejaVuSans-48"/>
      </g>
     </g>
    </g>
    <g id="xtick_6">
     <g id="line2d_6">
      <g>
       <use style="stroke:#000000;stroke-width:0.8;" x="781.714286" xlink:href="#m97544238c1" y="441"/>
      </g>
     </g>
     <g id="text_6">
      <!-- 25 -->
      <g transform="translate(768.989286 463.196875)scale(0.2 -0.2)">
       <use xlink:href="#DejaVuSans-50"/>
       <use x="63.623047" xlink:href="#DejaVuSans-53"/>
      </g>
     </g>
    </g>
    <g id="xtick_7">
     <g id="line2d_7">
      <g>
       <use style="stroke:#000000;stroke-width:0.8;" x="909.257143" xlink:href="#m97544238c1" y="441"/>
      </g>
     </g>
     <g id="text_7">
      <!-- 30 -->
      <g transform="translate(896.532143 463.196875)scale(0.2 -0.2)">
       <defs>
        <path d="M 40.578125 39.3125 
Q 47.65625 37.796875 51.625 33 
Q 55.609375 28.21875 55.609375 21.1875 
Q 55.609375 10.40625 48.1875 4.484375 
Q 40.765625 -1.421875 27.09375 -1.421875 
Q 22.515625 -1.421875 17.65625 -0.515625 
Q 12.796875 0.390625 7.625 2.203125 
L 7.625 11.71875 
Q 11.71875 9.328125 16.59375 8.109375 
Q 21.484375 6.890625 26.8125 6.890625 
Q 36.078125 6.890625 40.9375 10.546875 
Q 45.796875 14.203125 45.796875 21.1875 
Q 45.796875 27.640625 41.28125 31.265625 
Q 36.765625 34.90625 28.71875 34.90625 
L 20.21875 34.90625 
L 20.21875 43.015625 
L 29.109375 43.015625 
Q 36.375 43.015625 40.234375 45.921875 
Q 44.09375 48.828125 44.09375 54.296875 
Q 44.09375 59.90625 40.109375 62.90625 
Q 36.140625 65.921875 28.71875 65.921875 
Q 24.65625 65.921875 20.015625 65.03125 
Q 15.375 64.15625 9.8125 62.3125 
L 9.8125 71.09375 
Q 15.4375 72.65625 20.34375 73.4375 
Q 25.25 74.21875 29.59375 74.21875 
Q 40.828125 74.21875 47.359375 69.109375 
Q 53.90625 64.015625 53.90625 55.328125 
Q 53.90625 49.265625 50.4375 45.09375 
Q 46.96875 40.921875 40.578125 39.3125 
z
" id="DejaVuSans-51"/>
       </defs>
       <use xlink:href="#DejaVuSans-51"/>
       <use x="63.623047" xlink:href="#DejaVuSans-48"/>
      </g>
     </g>
    </g>
    <g id="xtick_8">
     <g id="line2d_8">
      <g>
       <use style="stroke:#000000;stroke-width:0.8;" x="1036.8" xlink:href="#m97544238c1" y="441"/>
      </g>
     </g>
     <g id="text_8">
      <!-- 35 -->
      <g transform="translate(1024.075 463.196875)scale(0.2 -0.2)">
       <use xlink:href="#DejaVuSans-51"/>
       <use x="63.623047" xlink:href="#DejaVuSans-53"/>
      </g>
     </g>
    </g>
    <g id="text_9">
     <!-- Time (in s) -->
     <g transform="translate(537.448437 486.553125)scale(0.2 -0.2)">
      <defs>
       <path d="M -0.296875 72.90625 
L 61.375 72.90625 
L 61.375 64.59375 
L 35.5 64.59375 
L 35.5 0 
L 25.59375 0 
L 25.59375 64.59375 
L -0.296875 64.59375 
z
" id="DejaVuSans-84"/>
       <path d="M 9.421875 54.6875 
L 18.40625 54.6875 
L 18.40625 0 
L 9.421875 0 
z
M 9.421875 75.984375 
L 18.40625 75.984375 
L 18.40625 64.59375 
L 9.421875 64.59375 
z
" id="DejaVuSans-105"/>
       <path d="M 52 44.1875 
Q 55.375 50.25 60.0625 53.125 
Q 64.75 56 71.09375 56 
Q 79.640625 56 84.28125 50.015625 
Q 88.921875 44.046875 88.921875 33.015625 
L 88.921875 0 
L 79.890625 0 
L 79.890625 32.71875 
Q 79.890625 40.578125 77.09375 44.375 
Q 74.3125 48.1875 68.609375 48.1875 
Q 61.625 48.1875 57.5625 43.546875 
Q 53.515625 38.921875 53.515625 30.90625 
L 53.515625 0 
L 44.484375 0 
L 44.484375 32.71875 
Q 44.484375 40.625 41.703125 44.40625 
Q 38.921875 48.1875 33.109375 48.1875 
Q 26.21875 48.1875 22.15625 43.53125 
Q 18.109375 38.875 18.109375 30.90625 
L 18.109375 0 
L 9.078125 0 
L 9.078125 54.6875 
L 18.109375 54.6875 
L 18.109375 46.1875 
Q 21.1875 51.21875 25.484375 53.609375 
Q 29.78125 56 35.6875 56 
Q 41.65625 56 45.828125 52.96875 
Q 50 49.953125 52 44.1875 
z
" id="DejaVuSans-109"/>
       <path d="M 56.203125 29.59375 
L 56.203125 25.203125 
L 14.890625 25.203125 
Q 15.484375 15.921875 20.484375 11.0625 
Q 25.484375 6.203125 34.421875 6.203125 
Q 39.59375 6.203125 44.453125 7.46875 
Q 49.3125 8.734375 54.109375 11.28125 
L 54.109375 2.78125 
Q 49.265625 0.734375 44.1875 -0.34375 
Q 39.109375 -1.421875 33.890625 -1.421875 
Q 20.796875 -1.421875 13.15625 6.1875 
Q 5.515625 13.8125 5.515625 26.8125 
Q 5.515625 40.234375 12.765625 48.109375 
Q 20.015625 56 32.328125 56 
Q 43.359375 56 49.78125 48.890625 
Q 56.203125 41.796875 56.203125 29.59375 
z
M 47.21875 32.234375 
Q 47.125 39.59375 43.09375 43.984375 
Q 39.0625 48.390625 32.421875 48.390625 
Q 24.90625 48.390625 20.390625 44.140625 
Q 15.875 39.890625 15.1875 32.171875 
z
" id="DejaVuSans-101"/>
       <path id="DejaVuSans-32"/>
       <path d="M 31 75.875 
Q 24.46875 64.65625 21.28125 53.65625 
Q 18.109375 42.671875 18.109375 31.390625 
Q 18.109375 20.125 21.3125 9.0625 
Q 24.515625 -2 31 -13.1875 
L 23.1875 -13.1875 
Q 15.875 -1.703125 12.234375 9.375 
Q 8.59375 20.453125 8.59375 31.390625 
Q 8.59375 42.28125 12.203125 53.3125 
Q 15.828125 64.359375 23.1875 75.875 
z
" id="DejaVuSans-40"/>
       <path d="M 54.890625 33.015625 
L 54.890625 0 
L 45.90625 0 
L 45.90625 32.71875 
Q 45.90625 40.484375 42.875 44.328125 
Q 39.84375 48.1875 33.796875 48.1875 
Q 26.515625 48.1875 22.3125 43.546875 
Q 18.109375 38.921875 18.109375 30.90625 
L 18.109375 0 
L 9.078125 0 
L 9.078125 54.6875 
L 18.109375 54.6875 
L 18.109375 46.1875 
Q 21.34375 51.125 25.703125 53.5625 
Q 30.078125 56 35.796875 56 
Q 45.21875 56 50.046875 50.171875 
Q 54.890625 44.34375 54.890625 33.015625 
z
" id="DejaVuSans-110"/>
       <path d="M 44.28125 53.078125 
L 44.28125 44.578125 
Q 40.484375 46.53125 36.375 47.5 
Q 32.28125 48.484375 27.875 48.484375 
Q 21.1875 48.484375 17.84375 46.4375 
Q 14.5 44.390625 14.5 40.28125 
Q 14.5 37.15625 16.890625 35.375 
Q 19.28125 33.59375 26.515625 31.984375 
L 29.59375 31.296875 
Q 39.15625 29.25 43.1875 25.515625 
Q 47.21875 21.78125 47.21875 15.09375 
Q 47.21875 7.46875 41.1875 3.015625 
Q 35.15625 -1.421875 24.609375 -1.421875 
Q 20.21875 -1.421875 15.453125 -0.5625 
Q 10.6875 0.296875 5.421875 2 
L 5.421875 11.28125 
Q 10.40625 8.6875 15.234375 7.390625 
Q 20.0625 6.109375 24.8125 6.109375 
Q 31.15625 6.109375 34.5625 8.28125 
Q 37.984375 10.453125 37.984375 14.40625 
Q 37.984375 18.0625 35.515625 20.015625 
Q 33.0625 21.96875 24.703125 23.78125 
L 21.578125 24.515625 
Q 13.234375 26.265625 9.515625 29.90625 
Q 5.8125 33.546875 5.8125 39.890625 
Q 5.8125 47.609375 11.28125 51.796875 
Q 16.75 56 26.8125 56 
Q 31.78125 56 36.171875 55.265625 
Q 40.578125 54.546875 44.28125 53.078125 
z
" id="DejaVuSans-115"/>
       <path d="M 8.015625 75.875 
L 15.828125 75.875 
Q 23.140625 64.359375 26.78125 53.3125 
Q 30.421875 42.28125 30.421875 31.390625 
Q 30.421875 20.453125 26.78125 9.375 
Q 23.140625 -1.703125 15.828125 -13.1875 
L 8.015625 -13.1875 
Q 14.5 -2 17.703125 9.0625 
Q 20.90625 20.125 20.90625 31.390625 
Q 20.90625 42.671875 17.703125 53.65625 
Q 14.5 64.65625 8.015625 75.875 
z
" id="DejaVuSans-41"/>
      </defs>
      <use xlink:href="#DejaVuSans-84"/>
      <use x="57.958984" xlink:href="#DejaVuSans-105"/>
      <use x="85.742188" xlink:href="#DejaVuSans-109"/>
      <use x="183.154297" xlink:href="#DejaVuSans-101"/>
      <use x="244.677734" xlink:href="#DejaVuSans-32"/>
      <use x="276.464844" xlink:href="#DejaVuSans-40"/>
      <use x="315.478516" xlink:href="#DejaVuSans-105"/>
      <use x="343.261719" xlink:href="#DejaVuSans-110"/>
      <use x="406.640625" xlink:href="#DejaVuSans-32"/>
      <use x="438.427734" xlink:href="#DejaVuSans-115"/>
      <use x="490.527344" xlink:href="#DejaVuSans-41"/>
     </g>
    </g>
   </g>
   <g id="matplotlib.axis_2">
    <g id="ytick_1">
     <g id="line2d_9">
      <defs>
       <path d="M 0 0 
L -3.5 0 
" id="mdf92d9e928" style="stroke:#000000;stroke-width:0.8;"/>
      </defs>
      <g>
       <use style="stroke:#000000;stroke-width:0.8;" x="144" xlink:href="#mdf92d9e928" y="423.703636"/>
      </g>
     </g>
     <g id="text_10">
      <!-- 0.0 -->
      <g transform="translate(105.19375 431.302074)scale(0.2 -0.2)">
       <defs>
        <path d="M 10.6875 12.40625 
L 21 12.40625 
L 21 0 
L 10.6875 0 
z
" id="DejaVuSans-46"/>
       </defs>
       <use xlink:href="#DejaVuSans-48"/>
       <use x="63.623047" xlink:href="#DejaVuSans-46"/>
       <use x="95.410156" xlink:href="#DejaVuSans-48"/>
      </g>
     </g>
    </g>
    <g id="ytick_2">
     <g id="line2d_10">
      <g>
       <use style="stroke:#000000;stroke-width:0.8;" x="144" xlink:href="#mdf92d9e928" y="373.736364"/>
      </g>
     </g>
     <g id="text_11">
      <!-- 0.2 -->
      <g transform="translate(105.19375 381.334801)scale(0.2 -0.2)">
       <use xlink:href="#DejaVuSans-48"/>
       <use x="63.623047" xlink:href="#DejaVuSans-46"/>
       <use x="95.410156" xlink:href="#DejaVuSans-50"/>
      </g>
     </g>
    </g>
    <g id="ytick_3">
     <g id="line2d_11">
      <g>
       <use style="stroke:#000000;stroke-width:0.8;" x="144" xlink:href="#mdf92d9e928" y="323.769091"/>
      </g>
     </g>
     <g id="text_12">
      <!-- 0.4 -->
      <g transform="translate(105.19375 331.367528)scale(0.2 -0.2)">
       <defs>
        <path d="M 37.796875 64.3125 
L 12.890625 25.390625 
L 37.796875 25.390625 
z
M 35.203125 72.90625 
L 47.609375 72.90625 
L 47.609375 25.390625 
L 58.015625 25.390625 
L 58.015625 17.1875 
L 47.609375 17.1875 
L 47.609375 0 
L 37.796875 0 
L 37.796875 17.1875 
L 4.890625 17.1875 
L 4.890625 26.703125 
z
" id="DejaVuSans-52"/>
       </defs>
       <use xlink:href="#DejaVuSans-48"/>
       <use x="63.623047" xlink:href="#DejaVuSans-46"/>
       <use x="95.410156" xlink:href="#DejaVuSans-52"/>
      </g>
     </g>
    </g>
    <g id="ytick_4">
     <g id="line2d_12">
      <g>
       <use style="stroke:#000000;stroke-width:0.8;" x="144" xlink:href="#mdf92d9e928" y="273.801818"/>
      </g>
     </g>
     <g id="text_13">
      <!-- 0.6 -->
      <g transform="translate(105.19375 281.400256)scale(0.2 -0.2)">
       <defs>
        <path d="M 33.015625 40.375 
Q 26.375 40.375 22.484375 35.828125 
Q 18.609375 31.296875 18.609375 23.390625 
Q 18.609375 15.53125 22.484375 10.953125 
Q 26.375 6.390625 33.015625 6.390625 
Q 39.65625 6.390625 43.53125 10.953125 
Q 47.40625 15.53125 47.40625 23.390625 
Q 47.40625 31.296875 43.53125 35.828125 
Q 39.65625 40.375 33.015625 40.375 
z
M 52.59375 71.296875 
L 52.59375 62.3125 
Q 48.875 64.0625 45.09375 64.984375 
Q 41.3125 65.921875 37.59375 65.921875 
Q 27.828125 65.921875 22.671875 59.328125 
Q 17.53125 52.734375 16.796875 39.40625 
Q 19.671875 43.65625 24.015625 45.921875 
Q 28.375 48.1875 33.59375 48.1875 
Q 44.578125 48.1875 50.953125 41.515625 
Q 57.328125 34.859375 57.328125 23.390625 
Q 57.328125 12.15625 50.6875 5.359375 
Q 44.046875 -1.421875 33.015625 -1.421875 
Q 20.359375 -1.421875 13.671875 8.265625 
Q 6.984375 17.96875 6.984375 36.375 
Q 6.984375 53.65625 15.1875 63.9375 
Q 23.390625 74.21875 37.203125 74.21875 
Q 40.921875 74.21875 44.703125 73.484375 
Q 48.484375 72.75 52.59375 71.296875 
z
" id="DejaVuSans-54"/>
       </defs>
       <use xlink:href="#DejaVuSans-48"/>
       <use x="63.623047" xlink:href="#DejaVuSans-46"/>
       <use x="95.410156" xlink:href="#DejaVuSans-54"/>
      </g>
     </g>
    </g>
    <g id="ytick_5">
     <g id="line2d_13">
      <g>
       <use style="stroke:#000000;stroke-width:0.8;" x="144" xlink:href="#mdf92d9e928" y="223.834545"/>
      </g>
     </g>
     <g id="text_14">
      <!-- 0.8 -->
      <g transform="translate(105.19375 231.432983)scale(0.2 -0.2)">
       <defs>
        <path d="M 31.78125 34.625 
Q 24.75 34.625 20.71875 30.859375 
Q 16.703125 27.09375 16.703125 20.515625 
Q 16.703125 13.921875 20.71875 10.15625 
Q 24.75 6.390625 31.78125 6.390625 
Q 38.8125 6.390625 42.859375 10.171875 
Q 46.921875 13.96875 46.921875 20.515625 
Q 46.921875 27.09375 42.890625 30.859375 
Q 38.875 34.625 31.78125 34.625 
z
M 21.921875 38.8125 
Q 15.578125 40.375 12.03125 44.71875 
Q 8.5 49.078125 8.5 55.328125 
Q 8.5 64.0625 14.71875 69.140625 
Q 20.953125 74.21875 31.78125 74.21875 
Q 42.671875 74.21875 48.875 69.140625 
Q 55.078125 64.0625 55.078125 55.328125 
Q 55.078125 49.078125 51.53125 44.71875 
Q 48 40.375 41.703125 38.8125 
Q 48.828125 37.15625 52.796875 32.3125 
Q 56.78125 27.484375 56.78125 20.515625 
Q 56.78125 9.90625 50.3125 4.234375 
Q 43.84375 -1.421875 31.78125 -1.421875 
Q 19.734375 -1.421875 13.25 4.234375 
Q 6.78125 9.90625 6.78125 20.515625 
Q 6.78125 27.484375 10.78125 32.3125 
Q 14.796875 37.15625 21.921875 38.8125 
z
M 18.3125 54.390625 
Q 18.3125 48.734375 21.84375 45.5625 
Q 25.390625 42.390625 31.78125 42.390625 
Q 38.140625 42.390625 41.71875 45.5625 
Q 45.3125 48.734375 45.3125 54.390625 
Q 45.3125 60.0625 41.71875 63.234375 
Q 38.140625 66.40625 31.78125 66.40625 
Q 25.390625 66.40625 21.84375 63.234375 
Q 18.3125 60.0625 18.3125 54.390625 
z
" id="DejaVuSans-56"/>
       </defs>
       <use xlink:href="#DejaVuSans-48"/>
       <use x="63.623047" xlink:href="#DejaVuSans-46"/>
       <use x="95.410156" xlink:href="#DejaVuSans-56"/>
      </g>
     </g>
    </g>
    <g id="ytick_6">
     <g id="line2d_14">
      <g>
       <use style="stroke:#000000;stroke-width:0.8;" x="144" xlink:href="#mdf92d9e928" y="173.867273"/>
      </g>
     </g>
     <g id="text_15">
      <!-- 1.0 -->
      <g transform="translate(105.19375 181.46571)scale(0.2 -0.2)">
       <use xlink:href="#DejaVuSans-49"/>
       <use x="63.623047" xlink:href="#DejaVuSans-46"/>
       <use x="95.410156" xlink:href="#DejaVuSans-48"/>
      </g>
     </g>
    </g>
    <g id="ytick_7">
     <g id="line2d_15">
      <g>
       <use style="stroke:#000000;stroke-width:0.8;" x="144" xlink:href="#mdf92d9e928" y="123.9"/>
      </g>
     </g>
     <g id="text_16">
      <!-- 1.2 -->
      <g transform="translate(105.19375 131.498437)scale(0.2 -0.2)">
       <use xlink:href="#DejaVuSans-49"/>
       <use x="63.623047" xlink:href="#DejaVuSans-46"/>
       <use x="95.410156" xlink:href="#DejaVuSans-50"/>
      </g>
     </g>
    </g>
    <g id="ytick_8">
     <g id="line2d_16">
      <g>
       <use style="stroke:#000000;stroke-width:0.8;" x="144" xlink:href="#mdf92d9e928" y="73.932727"/>
      </g>
     </g>
     <g id="text_17">
      <!-- 1.4 -->
      <g transform="translate(105.19375 81.531165)scale(0.2 -0.2)">
       <use xlink:href="#DejaVuSans-49"/>
       <use x="63.623047" xlink:href="#DejaVuSans-46"/>
       <use x="95.410156" xlink:href="#DejaVuSans-52"/>
      </g>
     </g>
    </g>
    <g id="text_18">
     <!-- Mean Activity -->
     <g transform="translate(97.034375 318.563438)rotate(-90)scale(0.2 -0.2)">
      <defs>
       <path d="M 9.8125 72.90625 
L 24.515625 72.90625 
L 43.109375 23.296875 
L 61.8125 72.90625 
L 76.515625 72.90625 
L 76.515625 0 
L 66.890625 0 
L 66.890625 64.015625 
L 48.09375 14.015625 
L 38.1875 14.015625 
L 19.390625 64.015625 
L 19.390625 0 
L 9.8125 0 
z
" id="DejaVuSans-77"/>
       <path d="M 34.28125 27.484375 
Q 23.390625 27.484375 19.1875 25 
Q 14.984375 22.515625 14.984375 16.5 
Q 14.984375 11.71875 18.140625 8.90625 
Q 21.296875 6.109375 26.703125 6.109375 
Q 34.1875 6.109375 38.703125 11.40625 
Q 43.21875 16.703125 43.21875 25.484375 
L 43.21875 27.484375 
z
M 52.203125 31.203125 
L 52.203125 0 
L 43.21875 0 
L 43.21875 8.296875 
Q 40.140625 3.328125 35.546875 0.953125 
Q 30.953125 -1.421875 24.3125 -1.421875 
Q 15.921875 -1.421875 10.953125 3.296875 
Q 6 8.015625 6 15.921875 
Q 6 25.140625 12.171875 29.828125 
Q 18.359375 34.515625 30.609375 34.515625 
L 43.21875 34.515625 
L 43.21875 35.40625 
Q 43.21875 41.609375 39.140625 45 
Q 35.0625 48.390625 27.6875 48.390625 
Q 23 48.390625 18.546875 47.265625 
Q 14.109375 46.140625 10.015625 43.890625 
L 10.015625 52.203125 
Q 14.9375 54.109375 19.578125 55.046875 
Q 24.21875 56 28.609375 56 
Q 40.484375 56 46.34375 49.84375 
Q 52.203125 43.703125 52.203125 31.203125 
z
" id="DejaVuSans-97"/>
       <path d="M 34.1875 63.1875 
L 20.796875 26.90625 
L 47.609375 26.90625 
z
M 28.609375 72.90625 
L 39.796875 72.90625 
L 67.578125 0 
L 57.328125 0 
L 50.6875 18.703125 
L 17.828125 18.703125 
L 11.1875 0 
L 0.78125 0 
z
" id="DejaVuSans-65"/>
       <path d="M 48.78125 52.59375 
L 48.78125 44.1875 
Q 44.96875 46.296875 41.140625 47.34375 
Q 37.3125 48.390625 33.40625 48.390625 
Q 24.65625 48.390625 19.8125 42.84375 
Q 14.984375 37.3125 14.984375 27.296875 
Q 14.984375 17.28125 19.8125 11.734375 
Q 24.65625 6.203125 33.40625 6.203125 
Q 37.3125 6.203125 41.140625 7.25 
Q 44.96875 8.296875 48.78125 10.40625 
L 48.78125 2.09375 
Q 45.015625 0.34375 40.984375 -0.53125 
Q 36.96875 -1.421875 32.421875 -1.421875 
Q 20.0625 -1.421875 12.78125 6.34375 
Q 5.515625 14.109375 5.515625 27.296875 
Q 5.515625 40.671875 12.859375 48.328125 
Q 20.21875 56 33.015625 56 
Q 37.15625 56 41.109375 55.140625 
Q 45.0625 54.296875 48.78125 52.59375 
z
" id="DejaVuSans-99"/>
       <path d="M 18.3125 70.21875 
L 18.3125 54.6875 
L 36.8125 54.6875 
L 36.8125 47.703125 
L 18.3125 47.703125 
L 18.3125 18.015625 
Q 18.3125 11.328125 20.140625 9.421875 
Q 21.96875 7.515625 27.59375 7.515625 
L 36.8125 7.515625 
L 36.8125 0 
L 27.59375 0 
Q 17.1875 0 13.234375 3.875 
Q 9.28125 7.765625 9.28125 18.015625 
L 9.28125 47.703125 
L 2.6875 47.703125 
L 2.6875 54.6875 
L 9.28125 54.6875 
L 9.28125 70.21875 
z
" id="DejaVuSans-116"/>
       <path d="M 2.984375 54.6875 
L 12.5 54.6875 
L 29.59375 8.796875 
L 46.6875 54.6875 
L 56.203125 54.6875 
L 35.6875 0 
L 23.484375 0 
z
" id="DejaVuSans-118"/>
       <path d="M 32.171875 -5.078125 
Q 28.375 -14.84375 24.75 -17.8125 
Q 21.140625 -20.796875 15.09375 -20.796875 
L 7.90625 -20.796875 
L 7.90625 -13.28125 
L 13.1875 -13.28125 
Q 16.890625 -13.28125 18.9375 -11.515625 
Q 21 -9.765625 23.484375 -3.21875 
L 25.09375 0.875 
L 2.984375 54.6875 
L 12.5 54.6875 
L 29.59375 11.921875 
L 46.6875 54.6875 
L 56.203125 54.6875 
z
" id="DejaVuSans-121"/>
      </defs>
      <use xlink:href="#DejaVuSans-77"/>
      <use x="86.279297" xlink:href="#DejaVuSans-101"/>
      <use x="147.802734" xlink:href="#DejaVuSans-97"/>
      <use x="209.082031" xlink:href="#DejaVuSans-110"/>
      <use x="272.460938" xlink:href="#DejaVuSans-32"/>
      <use x="304.248047" xlink:href="#DejaVuSans-65"/>
      <use x="370.90625" xlink:href="#DejaVuSans-99"/>
      <use x="425.886719" xlink:href="#DejaVuSans-116"/>
      <use x="465.095703" xlink:href="#DejaVuSans-105"/>
      <use x="492.878906" xlink:href="#DejaVuSans-118"/>
      <use x="552.058594" xlink:href="#DejaVuSans-105"/>
      <use x="579.841797" xlink:href="#DejaVuSans-116"/>
      <use x="619.050781" xlink:href="#DejaVuSans-121"/>
     </g>
    </g>
   </g>
   <g id="line2d_17">
    <path clip-path="url(#pe5f6fd7f5b)" d="M 144 423.703636 
L 175.885714 423.703636 
L 177.161143 361.244545 
L 178.436571 392.474091 
L 179.712 361.244545 
L 180.987429 298.785455 
L 182.262857 298.785455 
L 183.538286 236.326364 
L 184.813714 330.015 
L 188.64 330.015 
L 189.915429 267.555909 
L 192.466286 330.015 
L 196.292571 330.015 
L 197.568 298.785455 
L 198.843429 330.015 
L 200.118857 267.555909 
L 201.394286 330.015 
L 205.220571 330.015 
L 206.496 236.326364 
L 207.771429 330.015 
L 209.046857 236.326364 
L 210.322286 361.244545 
L 211.597714 330.015 
L 212.873143 361.244545 
L 214.148571 361.244545 
L 215.424 330.015 
L 216.699429 361.244545 
L 217.974857 330.015 
L 219.250286 361.244545 
L 221.801143 361.244545 
L 223.076571 236.326364 
L 225.627429 298.785455 
L 226.902857 236.326364 
L 229.453714 298.785455 
L 230.729143 298.785455 
L 232.004571 267.555909 
L 233.28 361.244545 
L 234.555429 330.015 
L 237.106286 392.474091 
L 243.483429 392.474091 
L 244.758857 361.244545 
L 246.034286 392.474091 
L 252.411429 392.474091 
L 253.686857 361.244545 
L 254.962286 267.555909 
L 256.237714 267.555909 
L 257.513143 236.326364 
L 258.788571 236.326364 
L 260.064 298.785455 
L 261.339429 267.555909 
L 265.165714 267.555909 
L 266.441143 298.785455 
L 267.716571 298.785455 
L 268.992 267.555909 
L 270.267429 298.785455 
L 271.542857 267.555909 
L 274.093714 267.555909 
L 275.369143 298.785455 
L 276.644571 298.785455 
L 277.92 267.555909 
L 279.195429 298.785455 
L 280.470857 267.555909 
L 281.746286 267.555909 
L 283.021714 330.015 
L 285.572571 330.015 
L 286.848 298.785455 
L 288.123429 298.785455 
L 289.398857 267.555909 
L 290.674286 205.096818 
L 293.225143 267.555909 
L 294.500571 267.555909 
L 295.776 205.096818 
L 297.051429 173.867273 
L 298.326857 205.096818 
L 299.602286 205.096818 
L 300.877714 267.555909 
L 302.153143 267.555909 
L 303.428571 236.326364 
L 304.704 236.326364 
L 305.979429 173.867273 
L 308.530286 361.244545 
L 309.805714 423.703636 
L 334.038857 423.703636 
L 336.589714 173.867273 
L 337.865143 298.785455 
L 339.140571 298.785455 
L 340.416 173.867273 
L 341.691429 298.785455 
L 342.966857 267.555909 
L 344.242286 267.555909 
L 345.517714 205.096818 
L 346.793143 267.555909 
L 348.068571 173.867273 
L 349.344 267.555909 
L 350.619429 205.096818 
L 351.894857 267.555909 
L 355.721143 267.555909 
L 356.996571 173.867273 
L 358.272 205.096818 
L 359.547429 267.555909 
L 360.822857 173.867273 
L 362.098286 205.096818 
L 363.373714 267.555909 
L 365.924571 142.637727 
L 367.2 205.096818 
L 369.750857 205.096818 
L 371.026286 236.326364 
L 373.577143 236.326364 
L 374.852571 173.867273 
L 376.128 142.637727 
L 377.403429 236.326364 
L 378.678857 205.096818 
L 379.954286 267.555909 
L 381.229714 267.555909 
L 382.505143 298.785455 
L 383.780571 267.555909 
L 386.331429 142.637727 
L 387.606857 173.867273 
L 388.882286 330.015 
L 391.433143 330.015 
L 392.708571 323.769091 
L 393.984 242.572273 
L 395.259429 330.015 
L 399.085714 330.015 
L 400.361143 267.555909 
L 402.912 205.096818 
L 404.187429 236.326364 
L 405.462857 205.096818 
L 406.738286 267.555909 
L 409.289143 267.555909 
L 410.564571 205.096818 
L 411.84 267.555909 
L 413.115429 298.785455 
L 414.390857 298.785455 
L 415.666286 267.555909 
L 416.941714 298.785455 
L 418.217143 273.801818 
L 419.492571 261.31 
L 420.768 236.326364 
L 423.318857 298.785455 
L 425.869714 298.785455 
L 427.145143 267.555909 
L 428.420571 267.555909 
L 429.696 236.326364 
L 430.971429 298.785455 
L 434.797714 298.785455 
L 436.073143 236.326364 
L 437.348571 267.555909 
L 438.624 267.555909 
L 439.899429 280.047727 
L 441.174857 286.293636 
L 442.450286 298.785455 
L 443.725714 298.785455 
L 445.001143 255.064091 
L 446.276571 255.064091 
L 447.552 292.539545 
L 448.827429 267.555909 
L 450.102857 298.785455 
L 451.378286 286.293636 
L 452.653714 286.293636 
L 453.929143 255.064091 
L 455.204571 286.293636 
L 456.48 261.31 
L 457.755429 267.555909 
L 459.030857 286.293636 
L 460.306286 298.785455 
L 461.581714 217.588636 
L 462.857143 167.621364 
L 464.132571 211.342727 
L 465.408 217.588636 
L 466.683429 161.375455 
L 467.958857 167.621364 
L 469.234286 167.621364 
L 470.509714 223.834545 
L 471.785143 211.342727 
L 473.060571 161.375455 
L 474.336 186.359091 
L 475.611429 205.096818 
L 476.886857 205.096818 
L 478.162286 217.588636 
L 479.437714 286.293636 
L 480.713143 298.785455 
L 481.988571 261.31 
L 483.264 292.539545 
L 484.539429 305.031364 
L 485.814857 298.785455 
L 487.090286 317.523182 
L 488.365714 423.703636 
L 512.598857 423.703636 
L 513.874286 298.785455 
L 515.149714 111.408182 
L 516.425143 267.555909 
L 517.700571 236.326364 
L 518.976 173.867273 
L 520.251429 298.785455 
L 521.526857 330.015 
L 522.802286 330.015 
L 524.077714 305.031364 
L 525.353143 323.769091 
L 526.628571 267.555909 
L 527.904 330.015 
L 529.179429 298.785455 
L 531.730286 361.244545 
L 533.005714 298.785455 
L 534.281143 361.244545 
L 536.832 361.244545 
L 539.382857 298.785455 
L 543.209143 298.785455 
L 544.484571 248.818182 
L 545.76 242.572273 
L 547.035429 255.064091 
L 548.310857 255.064091 
L 549.586286 230.080455 
L 550.861714 223.834545 
L 552.137143 261.31 
L 553.412571 280.047727 
L 554.688 230.080455 
L 555.963429 280.047727 
L 557.238857 223.834545 
L 558.514286 261.31 
L 559.789714 267.555909 
L 561.065143 248.818182 
L 562.340571 280.047727 
L 563.616 248.818182 
L 564.891429 273.801818 
L 567.442286 348.752727 
L 568.717714 342.506818 
L 569.993143 330.015 
L 571.268571 348.752727 
L 573.819429 361.244545 
L 575.094857 311.277273 
L 576.370286 354.998636 
L 577.645714 298.785455 
L 578.921143 354.998636 
L 580.196571 354.998636 
L 581.472 305.031364 
L 582.747429 267.555909 
L 584.022857 286.293636 
L 585.298286 273.801818 
L 586.573714 305.031364 
L 587.849143 273.801818 
L 589.124571 248.818182 
L 590.4 292.539545 
L 591.675429 305.031364 
L 592.950857 373.736364 
L 594.226286 404.965909 
L 595.501714 367.490455 
L 596.777143 361.244545 
L 598.052571 348.752727 
L 599.328 367.490455 
L 600.603429 367.490455 
L 601.878857 373.736364 
L 603.154286 348.752727 
L 604.429714 367.490455 
L 605.705143 361.244545 
L 606.980571 367.490455 
L 608.256 342.506818 
L 609.531429 348.752727 
L 610.806857 348.752727 
L 612.082286 367.490455 
L 613.357714 292.539545 
L 614.633143 186.359091 
L 615.908571 205.096818 
L 617.184 267.555909 
L 618.459429 311.277273 
L 619.734857 292.539545 
L 622.285714 292.539545 
L 623.561143 311.277273 
L 624.836571 286.293636 
L 626.112 311.277273 
L 627.387429 311.277273 
L 628.662857 305.031364 
L 629.938286 255.064091 
L 631.213714 273.801818 
L 632.489143 298.785455 
L 633.764571 280.047727 
L 635.04 298.785455 
L 636.315429 298.785455 
L 637.590857 305.031364 
L 638.866286 261.31 
L 641.417143 361.244545 
L 642.692571 354.998636 
L 643.968 336.260909 
L 645.243429 336.260909 
L 647.794286 323.769091 
L 649.069714 336.260909 
L 650.345143 323.769091 
L 651.620571 348.752727 
L 652.896 336.260909 
L 654.171429 336.260909 
L 655.446857 323.769091 
L 656.722286 323.769091 
L 657.997714 311.277273 
L 659.273143 323.769091 
L 660.548571 348.752727 
L 661.824 330.015 
L 663.099429 292.539545 
L 664.374857 286.293636 
L 665.650286 336.260909 
L 666.925714 423.703636 
L 716.667429 423.703636 
L 717.942857 298.785455 
L 719.218286 298.785455 
L 720.493714 236.326364 
L 721.769143 298.785455 
L 723.044571 267.555909 
L 724.32 298.785455 
L 725.595429 173.867273 
L 728.146286 298.785455 
L 729.421714 267.555909 
L 730.697143 298.785455 
L 731.972571 298.785455 
L 733.248 267.555909 
L 737.074286 267.555909 
L 738.349714 298.785455 
L 740.900571 298.785455 
L 742.176 236.326364 
L 743.451429 236.326364 
L 744.726857 267.555909 
L 746.002286 361.244545 
L 747.277714 392.474091 
L 748.553143 361.244545 
L 749.828571 392.474091 
L 751.104 392.474091 
L 752.379429 361.244545 
L 753.654857 392.474091 
L 754.930286 330.015 
L 756.205714 361.244545 
L 758.756571 361.244545 
L 760.032 330.015 
L 763.858286 330.015 
L 765.133714 298.785455 
L 767.684571 298.785455 
L 768.96 205.096818 
L 770.235429 142.637727 
L 771.510857 236.326364 
L 772.786286 173.867273 
L 774.061714 236.326364 
L 775.337143 173.867273 
L 776.612571 236.326364 
L 777.888 173.867273 
L 779.163429 236.326364 
L 780.438857 142.637727 
L 781.714286 236.326364 
L 782.989714 236.326364 
L 784.265143 205.096818 
L 785.540571 267.555909 
L 786.816 236.326364 
L 790.642286 236.326364 
L 791.917714 267.555909 
L 793.193143 173.867273 
L 794.468571 111.408182 
L 795.744 173.867273 
L 798.294857 236.326364 
L 799.570286 330.015 
L 800.845714 330.015 
L 802.121143 298.785455 
L 803.396571 330.015 
L 804.672 298.785455 
L 805.947429 298.785455 
L 807.222857 330.015 
L 808.498286 330.015 
L 809.773714 267.555909 
L 811.049143 173.867273 
L 812.324571 236.326364 
L 813.6 142.637727 
L 814.875429 236.326364 
L 816.150857 173.867273 
L 817.426286 267.555909 
L 818.701714 173.867273 
L 819.977143 111.408182 
L 821.252571 267.555909 
L 822.528 205.096818 
L 823.803429 267.555909 
L 828.905143 267.555909 
L 830.180571 298.785455 
L 831.456 298.785455 
L 832.731429 205.096818 
L 834.006857 267.555909 
L 835.282286 267.555909 
L 836.557714 205.096818 
L 837.833143 173.867273 
L 840.384 236.326364 
L 841.659429 205.096818 
L 844.210286 267.555909 
L 845.485714 423.703636 
L 869.718857 423.703636 
L 872.269714 298.785455 
L 873.545143 361.244545 
L 874.820571 361.244545 
L 876.096 298.785455 
L 877.371429 361.244545 
L 879.922286 298.785455 
L 881.197714 205.096818 
L 882.473143 267.555909 
L 883.748571 267.555909 
L 885.024 236.326364 
L 887.574857 298.785455 
L 890.125714 298.785455 
L 891.401143 267.555909 
L 892.676571 267.555909 
L 893.952 205.096818 
L 895.227429 267.555909 
L 896.502857 173.867273 
L 897.778286 173.867273 
L 899.053714 298.785455 
L 900.329143 267.555909 
L 901.604571 298.785455 
L 904.155429 236.326364 
L 905.430857 111.408182 
L 906.706286 236.326364 
L 907.981714 236.326364 
L 909.257143 173.867273 
L 910.532571 267.555909 
L 911.808 205.096818 
L 913.083429 267.555909 
L 914.358857 236.326364 
L 916.909714 298.785455 
L 918.185143 236.326364 
L 919.460571 298.785455 
L 920.736 236.326364 
L 922.011429 267.555909 
L 923.286857 205.096818 
L 924.562286 330.015 
L 927.113143 267.555909 
L 928.388571 330.015 
L 929.664 330.015 
L 930.939429 298.785455 
L 932.214857 298.785455 
L 933.490286 330.015 
L 934.765714 330.015 
L 936.041143 298.785455 
L 937.316571 205.096818 
L 938.592 267.555909 
L 939.867429 205.096818 
L 941.142857 205.096818 
L 942.418286 267.555909 
L 944.969143 267.555909 
L 946.244571 205.096818 
L 947.52 236.326364 
L 950.070857 236.326364 
L 951.346286 298.785455 
L 953.897143 298.785455 
L 955.172571 267.555909 
L 956.448 298.785455 
L 958.998857 236.326364 
L 960.274286 298.785455 
L 962.825143 298.785455 
L 964.100571 236.326364 
L 965.376 267.555909 
L 966.651429 236.326364 
L 967.926857 173.867273 
L 969.202286 267.555909 
L 970.477714 267.555909 
L 971.753143 205.096818 
L 973.028571 236.326364 
L 974.304 298.785455 
L 976.854857 236.326364 
L 978.130286 298.785455 
L 979.405714 267.555909 
L 980.681143 298.785455 
L 981.956571 267.555909 
L 983.232 298.785455 
L 984.507429 298.785455 
L 985.782857 236.326364 
L 987.058286 298.785455 
L 988.333714 267.555909 
L 989.609143 267.555909 
L 992.16 205.096818 
L 993.435429 205.096818 
L 994.710857 173.867273 
L 995.986286 205.096818 
L 997.261714 205.096818 
L 998.537143 173.867273 
L 999.812571 267.555909 
L 1003.638857 361.244545 
L 1004.914286 361.244545 
L 1006.189714 392.474091 
L 1007.465143 392.474091 
L 1008.740571 361.244545 
L 1010.016 392.474091 
L 1013.842286 392.474091 
L 1015.117714 361.244545 
L 1016.393143 236.326364 
L 1017.668571 267.555909 
L 1018.944 236.326364 
L 1020.219429 298.785455 
L 1021.494857 236.326364 
L 1022.770286 361.244545 
L 1024.045714 423.703636 
L 1035.524571 423.703636 
L 1035.524571 423.703636 
" style="fill:none;stroke:#000004;stroke-linecap:square;"/>
   </g>
   <g id="line2d_18">
    <path clip-path="url(#pe5f6fd7f5b)" d="M 144 423.703636 
L 155.478857 423.703636 
L 156.754286 289.176364 
L 158.029714 173.867273 
L 159.305143 289.176364 
L 160.580571 269.958182 
L 161.856 173.867273 
L 163.131429 289.176364 
L 164.406857 250.74 
L 165.682286 193.085455 
L 168.233143 231.521818 
L 169.508571 193.085455 
L 170.784 193.085455 
L 172.059429 212.303636 
L 173.334857 250.74 
L 174.610286 250.74 
L 175.885714 231.521818 
L 177.161143 250.74 
L 179.712 212.303636 
L 180.987429 308.394545 
L 183.538286 231.521818 
L 184.813714 346.830909 
L 186.089143 366.049091 
L 187.364571 366.049091 
L 188.64 346.830909 
L 189.915429 346.830909 
L 191.190857 366.049091 
L 192.466286 366.049091 
L 193.741714 346.830909 
L 195.017143 366.049091 
L 196.292571 366.049091 
L 197.568 346.830909 
L 198.843429 366.049091 
L 200.118857 346.830909 
L 201.394286 366.049091 
L 202.669714 346.830909 
L 203.945143 366.049091 
L 205.220571 366.049091 
L 206.496 327.612727 
L 209.046857 289.176364 
L 210.322286 366.049091 
L 211.597714 346.830909 
L 212.873143 366.049091 
L 216.699429 366.049091 
L 217.974857 346.830909 
L 219.250286 366.049091 
L 220.525714 327.612727 
L 221.801143 366.049091 
L 225.627429 366.049091 
L 226.902857 346.830909 
L 228.178286 366.049091 
L 229.453714 327.612727 
L 230.729143 366.049091 
L 232.004571 346.830909 
L 233.28 193.085455 
L 235.830857 269.958182 
L 237.106286 231.521818 
L 239.657143 269.958182 
L 240.932571 250.74 
L 243.483429 289.176364 
L 244.758857 269.958182 
L 246.034286 269.958182 
L 247.309714 250.74 
L 248.585143 289.176364 
L 249.860571 231.521818 
L 251.136 250.74 
L 252.411429 250.74 
L 253.686857 289.176364 
L 256.237714 327.612727 
L 257.513143 327.612727 
L 258.788571 289.176364 
L 260.064 346.830909 
L 261.339429 366.049091 
L 262.614857 346.830909 
L 263.890286 366.049091 
L 265.165714 366.049091 
L 266.441143 346.830909 
L 267.716571 346.830909 
L 268.992 366.049091 
L 270.267429 350.674545 
L 271.542857 362.205455 
L 272.818286 366.049091 
L 274.093714 366.049091 
L 275.369143 346.830909 
L 276.644571 346.830909 
L 277.92 366.049091 
L 279.195429 366.049091 
L 280.470857 346.830909 
L 281.746286 366.049091 
L 283.021714 327.612727 
L 284.297143 308.394545 
L 285.572571 366.049091 
L 286.848 308.394545 
L 288.123429 327.612727 
L 289.398857 366.049091 
L 290.674286 366.049091 
L 291.949714 385.267273 
L 294.500571 385.267273 
L 295.776 366.049091 
L 298.326857 404.485455 
L 305.979429 404.485455 
L 307.254857 385.267273 
L 308.530286 423.703636 
L 334.038857 423.703636 
L 336.589714 385.267273 
L 337.865143 404.485455 
L 339.140571 404.485455 
L 340.416 385.267273 
L 341.691429 404.485455 
L 344.242286 366.049091 
L 345.517714 404.485455 
L 348.068571 404.485455 
L 349.344 385.267273 
L 350.619429 404.485455 
L 356.996571 404.485455 
L 358.272 385.267273 
L 359.547429 404.485455 
L 360.822857 385.267273 
L 362.098286 404.485455 
L 363.373714 404.485455 
L 364.649143 423.703636 
L 365.924571 404.485455 
L 367.2 404.485455 
L 368.475429 385.267273 
L 369.750857 404.485455 
L 372.301714 404.485455 
L 373.577143 385.267273 
L 374.852571 404.485455 
L 379.954286 404.485455 
L 382.505143 366.049091 
L 383.780571 385.267273 
L 385.056 385.267273 
L 386.331429 423.703636 
L 387.606857 404.485455 
L 388.882286 404.485455 
L 390.157714 346.830909 
L 391.433143 385.267273 
L 392.708571 385.267273 
L 393.984 366.049091 
L 395.259429 366.049091 
L 396.534857 385.267273 
L 401.636571 385.267273 
L 402.912 404.485455 
L 410.564571 404.485455 
L 411.84 385.267273 
L 413.115429 346.830909 
L 414.390857 366.049091 
L 415.666286 327.612727 
L 416.941714 366.049091 
L 418.217143 366.049091 
L 419.492571 346.830909 
L 420.768 366.049091 
L 422.043429 346.830909 
L 423.318857 346.830909 
L 424.594286 366.049091 
L 425.869714 366.049091 
L 427.145143 331.456364 
L 428.420571 362.205455 
L 429.696 366.049091 
L 430.971429 366.049091 
L 432.246857 346.830909 
L 433.522286 366.049091 
L 434.797714 366.049091 
L 436.073143 327.612727 
L 437.348571 308.394545 
L 438.624 346.830909 
L 439.899429 366.049091 
L 441.174857 377.58 
L 442.450286 369.892727 
L 443.725714 377.58 
L 445.001143 346.830909 
L 446.276571 377.58 
L 447.552 369.892727 
L 448.827429 369.892727 
L 451.378286 385.267273 
L 452.653714 385.267273 
L 453.929143 342.987273 
L 455.204571 366.049091 
L 456.48 358.361818 
L 459.030857 358.361818 
L 460.306286 354.518182 
L 461.581714 366.049091 
L 462.857143 358.361818 
L 465.408 404.485455 
L 466.683429 423.703636 
L 467.958857 423.703636 
L 469.234286 412.172727 
L 471.785143 412.172727 
L 473.060571 416.016364 
L 474.336 412.172727 
L 475.611429 416.016364 
L 478.162286 400.641818 
L 479.437714 389.110909 
L 480.713143 362.205455 
L 483.264 369.892727 
L 484.539429 362.205455 
L 485.814857 350.674545 
L 487.090286 400.641818 
L 488.365714 423.703636 
L 512.598857 423.703636 
L 513.874286 366.049091 
L 515.149714 327.612727 
L 516.425143 366.049091 
L 517.700571 346.830909 
L 518.976 308.394545 
L 520.251429 346.830909 
L 521.526857 346.830909 
L 522.802286 327.612727 
L 524.077714 327.612727 
L 525.353143 346.830909 
L 526.628571 308.394545 
L 527.904 346.830909 
L 530.454857 346.830909 
L 531.730286 327.612727 
L 533.005714 269.958182 
L 534.281143 327.612727 
L 536.832 289.176364 
L 538.107429 308.394545 
L 539.382857 250.74 
L 540.658286 269.958182 
L 541.933714 346.830909 
L 543.209143 316.081818 
L 544.484571 327.612727 
L 545.76 366.049091 
L 547.035429 377.58 
L 548.310857 335.3 
L 549.586286 373.736364 
L 552.137143 373.736364 
L 553.412571 385.267273 
L 554.688 381.423636 
L 555.963429 362.205455 
L 558.514286 385.267273 
L 561.065143 385.267273 
L 562.340571 381.423636 
L 563.616 346.830909 
L 564.891429 304.550909 
L 566.166857 231.521818 
L 567.442286 335.3 
L 568.717714 300.707273 
L 569.993143 316.081818 
L 571.268571 316.081818 
L 572.544 335.3 
L 573.819429 366.049091 
L 575.094857 358.361818 
L 578.921143 358.361818 
L 580.196571 308.394545 
L 581.472 350.674545 
L 582.747429 354.518182 
L 584.022857 354.518182 
L 585.298286 346.830909 
L 586.573714 362.205455 
L 587.849143 362.205455 
L 589.124571 319.925455 
L 590.4 323.769091 
L 591.675429 354.518182 
L 592.950857 366.049091 
L 594.226286 346.830909 
L 595.501714 377.58 
L 596.777143 377.58 
L 598.052571 346.830909 
L 599.328 381.423636 
L 600.603429 381.423636 
L 601.878857 377.58 
L 603.154286 381.423636 
L 604.429714 377.58 
L 605.705143 377.58 
L 606.980571 369.892727 
L 608.256 377.58 
L 609.531429 396.798182 
L 610.806857 396.798182 
L 612.082286 392.954545 
L 613.357714 362.205455 
L 614.633143 377.58 
L 615.908571 350.674545 
L 617.184 362.205455 
L 618.459429 362.205455 
L 619.734857 346.830909 
L 621.010286 358.361818 
L 622.285714 342.987273 
L 623.561143 346.830909 
L 624.836571 354.518182 
L 626.112 331.456364 
L 627.387429 346.830909 
L 628.662857 354.518182 
L 629.938286 358.361818 
L 631.213714 339.143636 
L 632.489143 346.830909 
L 633.764571 362.205455 
L 635.04 342.987273 
L 636.315429 362.205455 
L 637.590857 366.049091 
L 638.866286 366.049091 
L 640.141714 346.830909 
L 641.417143 346.830909 
L 643.968 362.205455 
L 645.243429 377.58 
L 647.794286 369.892727 
L 649.069714 362.205455 
L 650.345143 358.361818 
L 651.620571 362.205455 
L 652.896 350.674545 
L 654.171429 369.892727 
L 655.446857 369.892727 
L 656.722286 373.736364 
L 657.997714 366.049091 
L 659.273143 362.205455 
L 660.548571 350.674545 
L 661.824 358.361818 
L 663.099429 346.830909 
L 664.374857 331.456364 
L 665.650286 385.267273 
L 666.925714 423.703636 
L 691.158857 423.703636 
L 693.709714 77.776364 
L 694.985143 250.74 
L 696.260571 250.74 
L 697.536 77.776364 
L 698.811429 250.74 
L 700.086857 250.74 
L 701.362286 231.521818 
L 702.637714 231.521818 
L 703.913143 250.74 
L 705.188571 116.212727 
L 706.464 231.521818 
L 707.739429 231.521818 
L 709.014857 250.74 
L 711.565714 250.74 
L 712.841143 246.896364 
L 714.116571 120.056364 
L 715.392 212.303636 
L 716.667429 250.74 
L 717.942857 231.521818 
L 719.218286 289.176364 
L 720.493714 308.394545 
L 721.769143 366.049091 
L 728.146286 366.049091 
L 729.421714 346.830909 
L 730.697143 366.049091 
L 733.248 366.049091 
L 735.798857 327.612727 
L 737.074286 366.049091 
L 740.900571 366.049091 
L 742.176 346.830909 
L 743.451429 366.049091 
L 744.726857 366.049091 
L 746.002286 404.485455 
L 748.553143 327.612727 
L 749.828571 366.049091 
L 751.104 366.049091 
L 752.379429 308.394545 
L 753.654857 346.830909 
L 754.930286 346.830909 
L 756.205714 327.612727 
L 757.481143 346.830909 
L 758.756571 346.830909 
L 760.032 308.394545 
L 761.307429 327.612727 
L 762.582857 366.049091 
L 763.858286 385.267273 
L 767.684571 385.267273 
L 768.96 366.049091 
L 770.235429 404.485455 
L 771.510857 366.049091 
L 772.786286 366.049091 
L 774.061714 327.612727 
L 776.612571 366.049091 
L 777.888 327.612727 
L 779.163429 366.049091 
L 781.714286 366.049091 
L 782.989714 346.830909 
L 784.265143 366.049091 
L 785.540571 308.394545 
L 788.091429 346.830909 
L 789.366857 346.830909 
L 790.642286 327.612727 
L 791.917714 346.830909 
L 793.193143 308.394545 
L 794.468571 308.394545 
L 795.744 366.049091 
L 797.019429 385.267273 
L 798.294857 327.612727 
L 799.570286 346.830909 
L 802.121143 308.394545 
L 804.672 346.830909 
L 805.947429 327.612727 
L 807.222857 346.830909 
L 808.498286 327.612727 
L 809.773714 366.049091 
L 811.049143 366.049091 
L 812.324571 346.830909 
L 813.6 366.049091 
L 814.875429 346.830909 
L 816.150857 366.049091 
L 818.701714 327.612727 
L 822.528 327.612727 
L 823.803429 346.830909 
L 825.078857 346.830909 
L 826.354286 289.176364 
L 827.629714 308.394545 
L 828.905143 308.394545 
L 830.180571 327.612727 
L 831.456 308.394545 
L 834.006857 346.830909 
L 835.282286 346.830909 
L 836.557714 327.612727 
L 839.108571 366.049091 
L 840.384 346.830909 
L 841.659429 366.049091 
L 842.934857 366.049091 
L 844.210286 385.267273 
L 845.485714 423.703636 
L 869.718857 423.703636 
L 870.994286 346.830909 
L 872.269714 289.176364 
L 873.545143 346.830909 
L 874.820571 327.612727 
L 876.096 289.176364 
L 877.371429 346.830909 
L 879.922286 346.830909 
L 882.473143 385.267273 
L 883.748571 327.612727 
L 886.299429 366.049091 
L 887.574857 346.830909 
L 888.850286 366.049091 
L 892.676571 366.049091 
L 893.952 327.612727 
L 895.227429 385.267273 
L 897.778286 346.830909 
L 899.053714 385.267273 
L 900.329143 366.049091 
L 901.604571 366.049091 
L 904.155429 404.485455 
L 906.706286 404.485455 
L 907.981714 385.267273 
L 909.257143 404.485455 
L 915.634286 404.485455 
L 916.909714 366.049091 
L 918.185143 366.049091 
L 919.460571 385.267273 
L 920.736 366.049091 
L 922.011429 366.049091 
L 923.286857 346.830909 
L 924.562286 423.703636 
L 925.837714 366.049091 
L 927.113143 366.049091 
L 928.388571 385.267273 
L 929.664 366.049091 
L 930.939429 385.267273 
L 932.214857 366.049091 
L 933.490286 385.267273 
L 934.765714 385.267273 
L 936.041143 366.049091 
L 937.316571 404.485455 
L 939.867429 404.485455 
L 941.142857 385.267273 
L 942.418286 404.485455 
L 944.969143 404.485455 
L 946.244571 385.267273 
L 947.52 404.485455 
L 948.795429 385.267273 
L 950.070857 404.485455 
L 951.346286 385.267273 
L 952.621714 404.485455 
L 953.897143 404.485455 
L 955.172571 385.267273 
L 956.448 404.485455 
L 960.274286 404.485455 
L 962.825143 366.049091 
L 965.376 404.485455 
L 966.651429 385.267273 
L 967.926857 404.485455 
L 970.477714 404.485455 
L 973.028571 366.049091 
L 974.304 366.049091 
L 975.579429 308.394545 
L 976.854857 269.958182 
L 978.130286 327.612727 
L 979.405714 327.612727 
L 980.681143 289.176364 
L 981.956571 289.176364 
L 984.507429 327.612727 
L 987.058286 327.612727 
L 988.333714 308.394545 
L 989.609143 327.612727 
L 990.884571 308.394545 
L 992.16 366.049091 
L 995.986286 366.049091 
L 997.261714 346.830909 
L 998.537143 385.267273 
L 999.812571 366.049091 
L 1001.088 404.485455 
L 1002.363429 385.267273 
L 1003.638857 404.485455 
L 1006.189714 404.485455 
L 1007.465143 392.954545 
L 1008.740571 396.798182 
L 1010.016 404.485455 
L 1012.566857 404.485455 
L 1013.842286 385.267273 
L 1015.117714 385.267273 
L 1016.393143 327.612727 
L 1018.944 366.049091 
L 1020.219429 366.049091 
L 1021.494857 327.612727 
L 1022.770286 404.485455 
L 1024.045714 423.703636 
L 1035.524571 423.703636 
L 1035.524571 423.703636 
" style="fill:none;stroke:#781c6d;stroke-linecap:square;"/>
   </g>
   <g id="line2d_19">
    <path clip-path="url(#pe5f6fd7f5b)" d="M 144 423.703636 
L 178.436571 423.703636 
L 182.262857 340.424848 
L 183.538286 368.184444 
L 184.813714 284.905657 
L 186.089143 229.386465 
L 187.364571 229.386465 
L 188.64 257.146061 
L 189.915429 229.386465 
L 191.190857 284.905657 
L 192.466286 229.386465 
L 193.741714 284.905657 
L 196.292571 284.905657 
L 198.843429 229.386465 
L 200.118857 284.905657 
L 201.394286 229.386465 
L 202.669714 284.905657 
L 207.771429 284.905657 
L 209.046857 312.665253 
L 210.322286 257.146061 
L 211.597714 229.386465 
L 212.873143 284.905657 
L 214.148571 284.905657 
L 216.699429 229.386465 
L 219.250286 284.905657 
L 220.525714 257.146061 
L 221.801143 284.905657 
L 223.076571 284.905657 
L 224.352 312.665253 
L 225.627429 284.905657 
L 226.902857 284.905657 
L 228.178286 312.665253 
L 229.453714 284.905657 
L 230.729143 312.665253 
L 232.004571 284.905657 
L 233.28 395.94404 
L 234.555429 368.184444 
L 235.830857 368.184444 
L 237.106286 395.94404 
L 238.381714 395.94404 
L 239.657143 368.184444 
L 240.932571 395.94404 
L 246.034286 395.94404 
L 247.309714 368.184444 
L 249.860571 423.703636 
L 252.411429 423.703636 
L 253.686857 368.184444 
L 254.962286 340.424848 
L 256.237714 368.184444 
L 257.513143 340.424848 
L 258.788571 368.184444 
L 260.064 340.424848 
L 261.339429 284.905657 
L 267.716571 284.905657 
L 268.992 312.665253 
L 270.267429 312.665253 
L 271.542857 284.905657 
L 274.093714 284.905657 
L 275.369143 312.665253 
L 276.644571 284.905657 
L 277.92 312.665253 
L 280.470857 312.665253 
L 281.746286 284.905657 
L 283.021714 284.905657 
L 284.297143 173.867273 
L 285.572571 257.146061 
L 289.398857 340.424848 
L 290.674286 340.424848 
L 291.949714 312.665253 
L 293.225143 340.424848 
L 294.500571 312.665253 
L 295.776 340.424848 
L 297.051429 312.665253 
L 298.326857 340.424848 
L 299.602286 340.424848 
L 300.877714 284.905657 
L 302.153143 312.665253 
L 303.428571 257.146061 
L 304.704 312.665253 
L 305.979429 284.905657 
L 308.530286 340.424848 
L 309.805714 423.703636 
L 334.038857 423.703636 
L 335.314286 284.905657 
L 336.589714 173.867273 
L 337.865143 284.905657 
L 339.140571 257.146061 
L 340.416 173.867273 
L 341.691429 284.905657 
L 342.966857 340.424848 
L 344.242286 340.424848 
L 345.517714 284.905657 
L 346.793143 284.905657 
L 348.068571 257.146061 
L 349.344 312.665253 
L 350.619429 284.905657 
L 351.894857 312.665253 
L 353.170286 312.665253 
L 354.445714 284.905657 
L 355.721143 312.665253 
L 356.996571 257.146061 
L 359.547429 312.665253 
L 360.822857 257.146061 
L 363.373714 312.665253 
L 364.649143 284.905657 
L 365.924571 312.665253 
L 367.2 318.217172 
L 368.475429 334.872929 
L 369.750857 340.424848 
L 371.026286 340.424848 
L 372.301714 312.665253 
L 373.577143 340.424848 
L 374.852571 312.665253 
L 376.128 312.665253 
L 377.403429 340.424848 
L 378.678857 340.424848 
L 379.954286 312.665253 
L 381.229714 257.146061 
L 382.505143 312.665253 
L 383.780571 284.905657 
L 385.056 284.905657 
L 386.331429 201.626869 
L 387.606857 284.905657 
L 390.157714 229.386465 
L 391.433143 284.905657 
L 392.708571 284.905657 
L 393.984 201.626869 
L 395.259429 257.146061 
L 396.534857 284.905657 
L 397.810286 257.146061 
L 400.361143 312.665253 
L 401.636571 284.905657 
L 402.912 312.665253 
L 404.187429 257.146061 
L 405.462857 312.665253 
L 406.738286 284.905657 
L 408.013714 312.665253 
L 409.289143 312.665253 
L 411.84 201.626869 
L 413.115429 257.146061 
L 414.390857 329.32101 
L 415.666286 296.009495 
L 416.941714 340.424848 
L 418.217143 340.424848 
L 419.492571 312.665253 
L 420.768 257.146061 
L 422.043429 290.457576 
L 423.318857 307.113333 
L 424.594286 257.146061 
L 425.869714 312.665253 
L 428.420571 312.665253 
L 429.696 284.905657 
L 433.522286 284.905657 
L 434.797714 312.665253 
L 436.073143 312.665253 
L 437.348571 257.146061 
L 438.624 284.905657 
L 439.899429 268.249899 
L 441.174857 296.009495 
L 442.450286 296.009495 
L 443.725714 273.801818 
L 445.001143 307.113333 
L 446.276571 307.113333 
L 447.552 301.561414 
L 448.827429 251.594141 
L 451.378286 307.113333 
L 452.653714 273.801818 
L 453.929143 290.457576 
L 455.204571 301.561414 
L 456.48 301.561414 
L 457.755429 273.801818 
L 459.030857 284.905657 
L 460.306286 307.113333 
L 461.581714 301.561414 
L 462.857143 312.665253 
L 464.132571 340.424848 
L 465.408 301.561414 
L 466.683429 312.665253 
L 467.958857 307.113333 
L 469.234286 307.113333 
L 470.509714 323.769091 
L 471.785143 334.872929 
L 473.060571 334.872929 
L 474.336 323.769091 
L 475.611429 334.872929 
L 476.886857 273.801818 
L 478.162286 307.113333 
L 479.437714 296.009495 
L 480.713143 279.353737 
L 481.988571 296.009495 
L 483.264 268.249899 
L 484.539429 296.009495 
L 485.814857 251.594141 
L 487.090286 357.080606 
L 488.365714 423.703636 
L 512.598857 423.703636 
L 515.149714 368.184444 
L 516.425143 395.94404 
L 517.700571 395.94404 
L 518.976 368.184444 
L 520.251429 395.94404 
L 522.802286 340.424848 
L 524.077714 368.184444 
L 525.353143 368.184444 
L 526.628571 340.424848 
L 527.904 340.424848 
L 529.179429 368.184444 
L 531.730286 312.665253 
L 533.005714 340.424848 
L 534.281143 340.424848 
L 536.832 284.905657 
L 538.107429 368.184444 
L 540.658286 368.184444 
L 541.933714 340.424848 
L 543.209143 384.840202 
L 544.484571 379.288283 
L 545.76 340.424848 
L 547.035429 296.009495 
L 548.310857 329.32101 
L 549.586286 345.976768 
L 550.861714 329.32101 
L 552.137143 329.32101 
L 553.412571 318.217172 
L 554.688 296.009495 
L 555.963429 307.113333 
L 557.238857 323.769091 
L 558.514286 307.113333 
L 559.789714 329.32101 
L 561.065143 307.113333 
L 562.340571 323.769091 
L 563.616 312.665253 
L 564.891429 307.113333 
L 566.166857 329.32101 
L 567.442286 368.184444 
L 568.717714 329.32101 
L 569.993143 340.424848 
L 571.268571 345.976768 
L 572.544 296.009495 
L 573.819429 251.594141 
L 575.094857 290.457576 
L 576.370286 312.665253 
L 577.645714 273.801818 
L 578.921143 251.594141 
L 580.196571 279.353737 
L 581.472 301.561414 
L 582.747429 312.665253 
L 584.022857 307.113333 
L 585.298286 296.009495 
L 586.573714 290.457576 
L 587.849143 296.009495 
L 589.124571 318.217172 
L 590.4 229.386465 
L 591.675429 229.386465 
L 592.950857 268.249899 
L 594.226286 168.315354 
L 595.501714 251.594141 
L 596.777143 207.178788 
L 598.052571 196.074949 
L 599.328 229.386465 
L 600.603429 234.938384 
L 601.878857 201.626869 
L 603.154286 223.834545 
L 604.429714 251.594141 
L 605.705143 196.074949 
L 606.980571 240.490303 
L 608.256 223.834545 
L 609.531429 223.834545 
L 610.806857 157.211515 
L 612.082286 212.730707 
L 613.357714 290.457576 
L 614.633143 223.834545 
L 615.908571 251.594141 
L 617.184 284.905657 
L 618.459429 296.009495 
L 619.734857 290.457576 
L 621.010286 307.113333 
L 622.285714 279.353737 
L 623.561143 284.905657 
L 624.836571 318.217172 
L 626.112 323.769091 
L 627.387429 301.561414 
L 629.938286 312.665253 
L 631.213714 279.353737 
L 632.489143 318.217172 
L 633.764571 296.009495 
L 635.04 318.217172 
L 636.315429 290.457576 
L 637.590857 307.113333 
L 638.866286 273.801818 
L 640.141714 246.042222 
L 641.417143 173.867273 
L 642.692571 234.938384 
L 643.968 207.178788 
L 645.243429 251.594141 
L 646.518857 246.042222 
L 647.794286 212.730707 
L 649.069714 268.249899 
L 650.345143 268.249899 
L 651.620571 246.042222 
L 652.896 273.801818 
L 654.171429 279.353737 
L 655.446857 218.282626 
L 656.722286 262.69798 
L 657.997714 273.801818 
L 659.273143 268.249899 
L 660.548571 257.146061 
L 661.824 279.353737 
L 663.099429 312.665253 
L 664.374857 318.217172 
L 665.650286 334.872929 
L 666.925714 423.703636 
L 716.667429 423.703636 
L 720.493714 340.424848 
L 721.769143 257.146061 
L 723.044571 340.424848 
L 725.595429 340.424848 
L 726.870857 284.905657 
L 728.146286 257.146061 
L 729.421714 312.665253 
L 730.697143 284.905657 
L 731.972571 312.665253 
L 733.248 312.665253 
L 734.523429 284.905657 
L 735.798857 284.905657 
L 737.074286 257.146061 
L 738.349714 312.665253 
L 740.900571 312.665253 
L 742.176 257.146061 
L 743.451429 173.867273 
L 744.726857 118.348081 
L 746.002286 257.146061 
L 747.277714 201.626869 
L 748.553143 257.146061 
L 749.828571 284.905657 
L 751.104 284.905657 
L 752.379429 229.386465 
L 753.654857 284.905657 
L 754.930286 312.665253 
L 756.205714 257.146061 
L 757.481143 312.665253 
L 758.756571 312.665253 
L 760.032 284.905657 
L 761.307429 312.665253 
L 762.582857 257.146061 
L 763.858286 284.905657 
L 765.133714 229.386465 
L 766.409143 257.146061 
L 767.684571 257.146061 
L 768.96 201.626869 
L 770.235429 284.905657 
L 771.510857 395.94404 
L 772.786286 423.703636 
L 795.744 423.703636 
L 799.570286 340.424848 
L 800.845714 368.184444 
L 802.121143 340.424848 
L 803.396571 340.424848 
L 804.672 368.184444 
L 808.498286 368.184444 
L 809.773714 340.424848 
L 811.049143 395.94404 
L 812.324571 423.703636 
L 869.718857 423.703636 
L 872.269714 257.146061 
L 873.545143 340.424848 
L 874.820571 340.424848 
L 876.096 257.146061 
L 877.371429 340.424848 
L 878.646857 368.184444 
L 882.473143 368.184444 
L 883.748571 312.665253 
L 885.024 368.184444 
L 891.401143 368.184444 
L 892.676571 312.665253 
L 893.952 368.184444 
L 895.227429 368.184444 
L 896.502857 340.424848 
L 899.053714 340.424848 
L 900.329143 368.184444 
L 901.604571 368.184444 
L 904.155429 312.665253 
L 905.430857 340.424848 
L 906.706286 312.665253 
L 907.981714 312.665253 
L 909.257143 340.424848 
L 910.532571 312.665253 
L 911.808 257.146061 
L 914.358857 312.665253 
L 915.634286 284.905657 
L 916.909714 284.905657 
L 918.185143 312.665253 
L 919.460571 284.905657 
L 920.736 312.665253 
L 922.011429 284.905657 
L 923.286857 312.665253 
L 924.562286 229.386465 
L 925.837714 257.146061 
L 927.113143 229.386465 
L 929.664 284.905657 
L 930.939429 257.146061 
L 933.490286 257.146061 
L 934.765714 284.905657 
L 936.041143 284.905657 
L 937.316571 312.665253 
L 938.592 284.905657 
L 939.867429 312.665253 
L 941.142857 284.905657 
L 942.418286 284.905657 
L 943.693714 312.665253 
L 946.244571 257.146061 
L 947.52 284.905657 
L 950.070857 284.905657 
L 951.346286 257.146061 
L 953.897143 257.146061 
L 955.172571 284.905657 
L 956.448 229.386465 
L 958.998857 284.905657 
L 962.825143 284.905657 
L 964.100571 312.665253 
L 965.376 284.905657 
L 966.651429 284.905657 
L 967.926857 312.665253 
L 969.202286 312.665253 
L 971.753143 257.146061 
L 973.028571 284.905657 
L 974.304 340.424848 
L 975.579429 423.703636 
L 995.986286 423.703636 
L 998.537143 312.665253 
L 999.812571 229.386465 
L 1001.088 201.626869 
L 1002.363429 146.107677 
L 1003.638857 201.626869 
L 1006.189714 146.107677 
L 1007.465143 201.626869 
L 1011.291429 118.348081 
L 1012.566857 146.107677 
L 1013.842286 229.386465 
L 1015.117714 257.146061 
L 1016.393143 312.665253 
L 1017.668571 284.905657 
L 1018.944 312.665253 
L 1021.494857 257.146061 
L 1022.770286 395.94404 
L 1024.045714 423.703636 
L 1035.524571 423.703636 
L 1035.524571 423.703636 
" style="fill:none;stroke:#ed6925;stroke-linecap:square;"/>
   </g>
   <g id="patch_3">
    <path d="M 144 441 
L 144 60.48 
" style="fill:none;stroke:#000000;stroke-linecap:square;stroke-linejoin:miter;stroke-width:0.8;"/>
   </g>
   <g id="patch_4">
    <path d="M 1036.8 441 
L 1036.8 60.48 
" style="fill:none;stroke:#000000;stroke-linecap:square;stroke-linejoin:miter;stroke-width:0.8;"/>
   </g>
   <g id="patch_5">
    <path d="M 144 441 
L 1036.8 441 
" style="fill:none;stroke:#000000;stroke-linecap:square;stroke-linejoin:miter;stroke-width:0.8;"/>
   </g>
   <g id="patch_6">
    <path d="M 144 60.48 
L 1036.8 60.48 
" style="fill:none;stroke:#000000;stroke-linecap:square;stroke-linejoin:miter;stroke-width:0.8;"/>
   </g>
   <g id="legend_1">
    <g id="line2d_20">
     <path d="M 505.914062 73.578438 
L 525.914062 73.578438 
" style="fill:none;stroke:#000004;stroke-linecap:square;"/>
    </g>
    <g id="line2d_21"/>
    <g id="text_19">
     <!-- M1 -->
     <g transform="translate(533.914062 77.078438)scale(0.1 -0.1)">
      <use xlink:href="#DejaVuSans-77"/>
      <use x="86.279297" xlink:href="#DejaVuSans-49"/>
     </g>
    </g>
    <g id="line2d_22">
     <path d="M 568.904688 73.578438 
L 588.904688 73.578438 
" style="fill:none;stroke:#781c6d;stroke-linecap:square;"/>
    </g>
    <g id="line2d_23"/>
    <g id="text_20">
     <!-- M2 -->
     <g transform="translate(596.904688 77.078438)scale(0.1 -0.1)">
      <use xlink:href="#DejaVuSans-77"/>
      <use x="86.279297" xlink:href="#DejaVuSans-50"/>
     </g>
    </g>
    <g id="line2d_24">
     <path d="M 631.895313 73.578438 
L 651.895313 73.578438 
" style="fill:none;stroke:#ed6925;stroke-linecap:square;"/>
    </g>
    <g id="line2d_25"/>
    <g id="text_21">
     <!-- M3 -->
     <g transform="translate(659.895313 77.078438)scale(0.1 -0.1)">
      <use xlink:href="#DejaVuSans-77"/>
      <use x="86.279297" xlink:href="#DejaVuSans-51"/>
     </g>
    </g>
   </g>
  </g>
 </g>
 <defs>
  <clipPath id="pe5f6fd7f5b">
   <rect height="380.52" width="892.8" x="144" y="60.48"/>
  </clipPath>
 </defs>
</svg>
