<?xml version="1.0" encoding="utf-8" standalone="no"?>
<!DOCTYPE svg PUBLIC "-//W3C//DTD SVG 1.1//EN"
  "http://www.w3.org/Graphics/SVG/1.1/DTD/svg11.dtd">
<!-- Created with matplotlib (https://matplotlib.org/) -->
<svg height="432pt" version="1.1" viewBox="0 0 432 432" width="432pt" xmlns="http://www.w3.org/2000/svg" xmlns:xlink="http://www.w3.org/1999/xlink">
 <metadata>
  <rdf:RDF xmlns:cc="http://creativecommons.org/ns#" xmlns:dc="http://purl.org/dc/elements/1.1/" xmlns:rdf="http://www.w3.org/1999/02/22-rdf-syntax-ns#">
   <cc:Work>
    <dc:type rdf:resource="http://purl.org/dc/dcmitype/StillImage"/>
    <dc:date>2021-04-26T09:14:50.944978</dc:date>
    <dc:format>image/svg+xml</dc:format>
    <dc:creator>
     <cc:Agent>
      <dc:title>Matplotlib v3.3.2, https://matplotlib.org/</dc:title>
     </cc:Agent>
    </dc:creator>
   </cc:Work>
  </rdf:RDF>
 </metadata>
 <defs>
  <style type="text/css">*{stroke-linecap:butt;stroke-linejoin:round;}</style>
 </defs>
 <g id="figure_1">
  <g id="patch_1">
   <path d="M 0 432 
L 432 432 
L 432 0 
L 0 0 
z
" style="fill:none;"/>
  </g>
  <g id="axes_1">
   <g id="LineCollection_1">
    <path clip-path="url(#pab39f11dff)" d="M 373.581818 321.200295 
L 373.581818 321.200295 
" style="fill:none;stroke:#808080;stroke-width:0.5;"/>
    <path clip-path="url(#pab39f11dff)" d="M 373.581818 321.200295 
L 243.654756 71.166456 
" style="fill:none;stroke:#808080;stroke-width:0.5;"/>
    <path clip-path="url(#pab39f11dff)" d="M 373.581818 321.200295 
L 310.797054 88.093717 
" style="fill:none;stroke:#808080;stroke-width:0.5;"/>
    <path clip-path="url(#pab39f11dff)" d="M 373.581818 321.200295 
L 280.268134 66.665455 
" style="fill:none;stroke:#808080;stroke-width:0.5;"/>
    <path clip-path="url(#pab39f11dff)" d="M 373.581818 321.200295 
L 105.335101 321.460975 
" style="fill:none;stroke:#808080;stroke-width:0.5;"/>
    <path clip-path="url(#pab39f11dff)" d="M 373.581818 321.200295 
L 86.215419 258.74003 
" style="fill:none;stroke:#808080;stroke-width:0.5;"/>
    <path clip-path="url(#pab39f11dff)" d="M 373.581818 321.200295 
L 134.000896 282.022114 
" style="fill:none;stroke:#808080;stroke-width:0.5;"/>
    <path clip-path="url(#pab39f11dff)" d="M 373.581818 321.200295 
L 69.218182 298.765142 
" style="fill:none;stroke:#808080;stroke-width:0.5;"/>
    <path clip-path="url(#pab39f11dff)" d="M 325.204742 308.95678 
L 325.204742 308.95678 
" style="fill:none;stroke:#808080;stroke-width:0.5;"/>
    <path clip-path="url(#pab39f11dff)" d="M 325.204742 308.95678 
L 352.406947 355.75275 
" style="fill:none;stroke:#808080;stroke-width:0.5;"/>
    <path clip-path="url(#pab39f11dff)" d="M 325.204742 308.95678 
L 318.310853 363.174545 
" style="fill:none;stroke:#808080;stroke-width:0.5;"/>
    <path clip-path="url(#pab39f11dff)" d="M 325.204742 308.95678 
L 243.654756 71.166456 
" style="fill:none;stroke:#808080;stroke-width:0.5;"/>
    <path clip-path="url(#pab39f11dff)" d="M 325.204742 308.95678 
L 310.797054 88.093717 
" style="fill:none;stroke:#808080;stroke-width:0.5;"/>
    <path clip-path="url(#pab39f11dff)" d="M 325.204742 308.95678 
L 280.268134 66.665455 
" style="fill:none;stroke:#808080;stroke-width:0.5;"/>
    <path clip-path="url(#pab39f11dff)" d="M 325.204742 308.95678 
L 134.000896 282.022114 
" style="fill:none;stroke:#808080;stroke-width:0.5;"/>
    <path clip-path="url(#pab39f11dff)" d="M 325.204742 308.95678 
L 69.218182 298.765142 
" style="fill:none;stroke:#808080;stroke-width:0.5;"/>
    <path clip-path="url(#pab39f11dff)" d="M 352.406947 355.75275 
L 318.310853 363.174545 
" style="fill:none;stroke:#808080;stroke-width:0.5;"/>
    <path clip-path="url(#pab39f11dff)" d="M 352.406947 355.75275 
L 310.797054 88.093717 
" style="fill:none;stroke:#808080;stroke-width:0.5;"/>
    <path clip-path="url(#pab39f11dff)" d="M 352.406947 355.75275 
L 105.335101 321.460975 
" style="fill:none;stroke:#808080;stroke-width:0.5;"/>
    <path clip-path="url(#pab39f11dff)" d="M 352.406947 355.75275 
L 86.215419 258.74003 
" style="fill:none;stroke:#808080;stroke-width:0.5;"/>
    <path clip-path="url(#pab39f11dff)" d="M 352.406947 355.75275 
L 134.000896 282.022114 
" style="fill:none;stroke:#808080;stroke-width:0.5;"/>
    <path clip-path="url(#pab39f11dff)" d="M 352.406947 355.75275 
L 69.218182 298.765142 
" style="fill:none;stroke:#808080;stroke-width:0.5;"/>
    <path clip-path="url(#pab39f11dff)" d="M 318.310853 363.174545 
L 243.654756 71.166456 
" style="fill:none;stroke:#808080;stroke-width:0.5;"/>
    <path clip-path="url(#pab39f11dff)" d="M 318.310853 363.174545 
L 280.268134 66.665455 
" style="fill:none;stroke:#808080;stroke-width:0.5;"/>
    <path clip-path="url(#pab39f11dff)" d="M 318.310853 363.174545 
L 86.215419 258.74003 
" style="fill:none;stroke:#808080;stroke-width:0.5;"/>
    <path clip-path="url(#pab39f11dff)" d="M 318.310853 363.174545 
L 134.000896 282.022114 
" style="fill:none;stroke:#808080;stroke-width:0.5;"/>
    <path clip-path="url(#pab39f11dff)" d="M 318.310853 363.174545 
L 69.218182 298.765142 
" style="fill:none;stroke:#808080;stroke-width:0.5;"/>
    <path clip-path="url(#pab39f11dff)" d="M 243.654756 71.166456 
L 134.000896 282.022114 
" style="fill:none;stroke:#808080;stroke-width:0.5;"/>
    <path clip-path="url(#pab39f11dff)" d="M 310.797054 88.093717 
L 280.268134 66.665455 
" style="fill:none;stroke:#808080;stroke-width:0.5;"/>
    <path clip-path="url(#pab39f11dff)" d="M 310.797054 88.093717 
L 105.335101 321.460975 
" style="fill:none;stroke:#808080;stroke-width:0.5;"/>
    <path clip-path="url(#pab39f11dff)" d="M 310.797054 88.093717 
L 86.215419 258.74003 
" style="fill:none;stroke:#808080;stroke-width:0.5;"/>
    <path clip-path="url(#pab39f11dff)" d="M 310.797054 88.093717 
L 134.000896 282.022114 
" style="fill:none;stroke:#808080;stroke-width:0.5;"/>
    <path clip-path="url(#pab39f11dff)" d="M 310.797054 88.093717 
L 69.218182 298.765142 
" style="fill:none;stroke:#808080;stroke-width:0.5;"/>
    <path clip-path="url(#pab39f11dff)" d="M 280.268134 66.665455 
L 280.268134 66.665455 
" style="fill:none;stroke:#808080;stroke-width:0.5;"/>
    <path clip-path="url(#pab39f11dff)" d="M 280.268134 66.665455 
L 86.215419 258.74003 
" style="fill:none;stroke:#808080;stroke-width:0.5;"/>
    <path clip-path="url(#pab39f11dff)" d="M 280.268134 66.665455 
L 134.000896 282.022114 
" style="fill:none;stroke:#808080;stroke-width:0.5;"/>
    <path clip-path="url(#pab39f11dff)" d="M 105.335101 321.460975 
L 86.215419 258.74003 
" style="fill:none;stroke:#808080;stroke-width:0.5;"/>
    <path clip-path="url(#pab39f11dff)" d="M 69.218182 298.765142 
L 69.218182 298.765142 
" style="fill:none;stroke:#808080;stroke-width:0.5;"/>
   </g>
   <g id="PathCollection_1">
    <defs>
     <path d="M 0 14.142136 
C 3.750538 14.142136 7.347969 12.652031 10 10 
C 12.652031 7.347969 14.142136 3.750538 14.142136 0 
C 14.142136 -3.750538 12.652031 -7.347969 10 -10 
C 7.347969 -12.652031 3.750538 -14.142136 0 -14.142136 
C -3.750538 -14.142136 -7.347969 -12.652031 -10 -10 
C -12.652031 -7.347969 -14.142136 -3.750538 -14.142136 0 
C -14.142136 3.750538 -12.652031 7.347969 -10 10 
C -7.347969 12.652031 -3.750538 14.142136 0 14.142136 
z
" id="m9366730587" style="stroke:#808080;"/>
    </defs>
    <g clip-path="url(#pab39f11dff)">
     <use style="fill:#808080;stroke:#808080;" x="373.581818" xlink:href="#m9366730587" y="321.200295"/>
     <use style="fill:#808080;stroke:#808080;" x="325.204742" xlink:href="#m9366730587" y="308.95678"/>
     <use style="fill:#808080;stroke:#808080;" x="352.406947" xlink:href="#m9366730587" y="355.75275"/>
     <use style="fill:#808080;stroke:#808080;" x="318.310853" xlink:href="#m9366730587" y="363.174545"/>
     <use style="fill:#808080;stroke:#808080;" x="243.654756" xlink:href="#m9366730587" y="71.166456"/>
     <use style="fill:#808080;stroke:#808080;" x="310.797054" xlink:href="#m9366730587" y="88.093717"/>
     <use style="fill:#808080;stroke:#808080;" x="280.268134" xlink:href="#m9366730587" y="66.665455"/>
     <use style="fill:#808080;stroke:#808080;" x="105.335101" xlink:href="#m9366730587" y="321.460975"/>
     <use style="fill:#808080;stroke:#808080;" x="86.215419" xlink:href="#m9366730587" y="258.74003"/>
     <use style="fill:#808080;stroke:#808080;" x="134.000896" xlink:href="#m9366730587" y="282.022114"/>
     <use style="fill:#808080;stroke:#808080;" x="69.218182" xlink:href="#m9366730587" y="298.765142"/>
    </g>
   </g>
  </g>
 </g>
 <defs>
  <clipPath id="pab39f11dff">
   <rect height="326.16" width="334.8" x="54" y="51.84"/>
  </clipPath>
 </defs>
</svg>
